<?xml version="1.0" encoding="utf-8"?>
<!-- Generator: Adobe Illustrator 22.1.0, SVG Export Plug-In . SVG Version: 6.00 Build 0)  -->
<svg version="1.1" id="Layer_1" xmlns="http://www.w3.org/2000/svg" xmlns:xlink="http://www.w3.org/1999/xlink" x="0px" y="0px"
	 viewBox="0 0 1501 237" style="enable-background:new 0 0 1501 237;" xml:space="preserve">
<style type="text/css">
	.st0{fill:none;}
	.st1{fill:none;stroke:#5B5B5B;stroke-width:9;stroke-linejoin:round;}
	.st2{font-family:'RechargeRg-Bold';}
	.st3{font-size:100.6864px;}
	.st4{fill:#FFFFFF;}
	.st5{fill:#FF8E39;}
	.st6{enable-background:new    ;}
	.st7{fill:url(#SVGID_1_);}
	.st8{fill:url(#SVGID_2_);}
	.st9{fill:#FD7400;}
	.st10{fill:url(#SVGID_3_);}
	.st11{fill:#CC6633;}
	.st12{fill:#B3B3B3;}
	.st13{fill:#E6E6E6;}
	.st14{fill:#808080;}
	.st15{fill:url(#SVGID_4_);}
	.st16{fill:url(#SVGID_5_);}
	.st17{fill:url(#SVGID_6_);}
	.st18{fill:url(#SVGID_7_);}
	.st19{fill:url(#SVGID_8_);}
	.st20{fill:url(#SVGID_9_);}
</style>
<rect x="226.4" y="71.3" class="st0" width="826.4" height="107.9"/>
<g>
	<text transform="matrix(1 0 0 1 226.3585 149.8564)" class="st1 st2 st3">My</text>
	<text transform="matrix(1 0 0 1 431.131 149.8564)" class="st1 st2 st3">Chem</text>
	<text transform="matrix(1 0 0 1 792.0333 149.8564)" class="st1 st2 st3">.info</text>
</g>
<g>
	<text transform="matrix(1 0 0 1 226.3585 149.8564)" class="st4 st2 st3">My</text>
	<text transform="matrix(1 0 0 1 431.131 149.8564)" class="st5 st2 st3">Chem</text>
	<text transform="matrix(1 0 0 1 792.0333 149.8564)" class="st4 st2 st3">.info</text>
</g>
<g class="st6">
	<g>
		<g>
			<g>
				<g>
					<polygon class="st1" points="126.9,85.4 105.8,116.1 76.3,116.1 97.4,85.4 					"/>
				</g>
				<g>
					<polygon class="st1" points="126.9,85.4 105.8,116.1 76.3,116.1 97.4,85.4 					"/>
				</g>
				<g>
					<polygon class="st1" points="126.9,85.4 105.8,116.1 76.3,116.1 97.4,85.4 					"/>
				</g>
			</g>
			<g>
				<g>
					<polygon class="st1" points="127.2,85.5 148.9,116.6 127.2,147.7 105.9,116.6 					"/>
				</g>
				<g>
					<polygon class="st1" points="127.2,85.5 148.9,116.6 127.2,147.7 105.9,116.6 					"/>
				</g>
				<g>
					<polygon class="st1" points="127.2,85.5 148.9,116.6 127.2,147.7 105.9,116.6 					"/>
				</g>
			</g>
			<g>
				<polygon class="st1" points="105.8,116.9 126.9,147.6 97.4,147.6 76.3,116.9 				"/>
			</g>
		</g>
		<g>
			<g>
				<polygon class="st1" points="126.9,23.1 105.8,53.8 76.3,53.8 97.4,23.1 				"/>
			</g>
			<g>
				<polygon class="st1" points="127.2,23.2 148.9,54.3 127.2,85.5 105.9,54.3 				"/>
			</g>
			<g>
				<polygon class="st1" points="105.9,53.8 127.6,85.4 97.2,85.4 75.6,53.8 				"/>
			</g>
		</g>
		<g>
			<g>
				<polygon class="st1" points="126.9,147.6 105.8,178.3 76.3,178.3 97.4,147.6 				"/>
			</g>
			<g>
				<polygon class="st1" points="127.2,147.7 148.9,178.8 127.2,210 105.9,178.8 				"/>
			</g>
			<g>
				<polygon class="st1" points="105.9,178.3 127.6,209.9 97.2,209.9 75.6,178.3 				"/>
			</g>
		</g>
		<g>
			<g>
				<polygon class="st1" points="178.4,116.9 157.3,147.6 127.7,147.6 148.8,116.9 				"/>
			</g>
			<g>
				<polygon class="st1" points="178.8,116.6 200.3,147.7 178.8,178.9 157.4,147.7 				"/>
			</g>
			<g>
				<polygon class="st1" points="157.4,147.6 179.1,179.2 148.7,179.2 127,147.6 				"/>
			</g>
		</g>
		<g>
			<g>
				<polygon class="st1" points="178.2,54.7 157.2,85.4 127.6,85.4 148.7,54.7 				"/>
			</g>
			<g>
				<polygon class="st1" points="178.6,54.3 200.2,85.4 178.6,116.6 157.3,85.4 				"/>
			</g>
			<g>
				<polygon class="st1" points="157.3,85.4 178.9,116.9 148.6,116.9 126.9,85.4 				"/>
			</g>
		</g>
		<g>
			<g>
				<g>
					<polygon class="st1" points="76,116.9 55,147.6 25.3,147.6 46.4,116.9 					"/>
				</g>
				<g>
					<polygon class="st1" points="76,116.9 55,147.6 25.3,147.6 46.4,116.9 					"/>
				</g>
				<g>
					<polygon class="st1" points="76,116.9 55,147.6 25.3,147.6 46.4,116.9 					"/>
				</g>
			</g>
			<g>
				<g>
					<polygon class="st1" points="76.3,116.6 98,147.7 76.3,178.9 55,147.7 					"/>
				</g>
				<g>
					<polygon class="st1" points="76.3,116.6 98,147.7 76.3,178.9 55,147.7 					"/>
				</g>
				<g>
					<polygon class="st1" points="76.3,116.6 98,147.7 76.3,178.9 55,147.7 					"/>
				</g>
			</g>
			<g>
				<polygon class="st1" points="55.1,147.6 76.6,179.2 46.3,179.2 24.7,147.6 				"/>
			</g>
		</g>
		<g>
			<g>
				<g>
					<polygon class="st1" points="75.9,54.7 54.8,85.4 25.2,85.4 46.3,54.7 					"/>
				</g>
				<g>
					<polygon class="st1" points="75.9,54.7 54.8,85.4 25.2,85.4 46.3,54.7 					"/>
				</g>
				<g>
					<polygon class="st1" points="75.9,54.7 54.8,85.4 25.2,85.4 46.3,54.7 					"/>
				</g>
			</g>
			<g>
				<g>
					<polygon class="st1" points="76.2,54.3 97.9,85.4 76.2,116.6 54.8,85.4 					"/>
				</g>
				<g>
					<polygon class="st1" points="76.2,54.3 97.9,85.4 76.2,116.6 54.8,85.4 					"/>
				</g>
				<g>
					<polygon class="st1" points="76.2,54.3 97.9,85.4 76.2,116.6 54.8,85.4 					"/>
				</g>
			</g>
			<g>
				<polygon class="st1" points="54.9,85.4 76.5,116.9 46.2,116.9 24.6,85.4 				"/>
			</g>
		</g>
	</g>
	<g>
		<g>
			<g>
				<g>
					
						<linearGradient id="SVGID_1_" gradientUnits="userSpaceOnUse" x1="-278.2" y1="-344.25" x2="-227.5447" y2="-344.25" gradientTransform="matrix(1 0 0 -1 354.5 -243.5)">
						<stop  offset="0" style="stop-color:#FD7400"/>
						<stop  offset="1" style="stop-color:#FF8E39"/>
					</linearGradient>
					<polygon class="st7" points="126.9,85.4 105.8,116.1 76.3,116.1 97.4,85.4 					"/>
				</g>
				<g>
					
						<linearGradient id="SVGID_2_" gradientUnits="userSpaceOnUse" x1="-80.2" y1="-339.8713" x2="-29.5447" y2="-339.8713" gradientTransform="matrix(1 0 0 -1 156.5 -239.1213)">
						<stop  offset="0" style="stop-color:#FD7400"/>
						<stop  offset="1" style="stop-color:#FF8E39"/>
					</linearGradient>
					<polygon class="st8" points="126.9,85.4 105.8,116.1 76.3,116.1 97.4,85.4 					"/>
				</g>
				<g>
					<polygon class="st9" points="126.9,85.4 105.8,116.1 76.3,116.1 97.4,85.4 					"/>
				</g>
			</g>
			<g>
				<g>
					
						<linearGradient id="SVGID_3_" gradientUnits="userSpaceOnUse" x1="-248.6" y1="-360.1" x2="-205.6" y2="-360.1" gradientTransform="matrix(1 0 0 -1 354.5 -243.5)">
						<stop  offset="0" style="stop-color:#FF8E39;stop-opacity:0"/>
						<stop  offset="0.1239" style="stop-color:#FF913E;stop-opacity:0.1239"/>
						<stop  offset="0.2664" style="stop-color:#FF994C;stop-opacity:0.2664"/>
						<stop  offset="0.4183" style="stop-color:#FFA663;stop-opacity:0.4183"/>
						<stop  offset="0.5766" style="stop-color:#FFB883;stop-opacity:0.5766"/>
						<stop  offset="0.7399" style="stop-color:#FFD0AD;stop-opacity:0.7399"/>
						<stop  offset="0.9051" style="stop-color:#FFEDDF;stop-opacity:0.9051"/>
						<stop  offset="1" style="stop-color:#FFFFFF"/>
					</linearGradient>
					<polygon class="st10" points="127.2,85.5 148.9,116.6 127.2,147.7 105.9,116.6 					"/>
				</g>
				<g>
					<polygon class="st5" points="127.2,85.5 148.9,116.6 127.2,147.7 105.9,116.6 					"/>
				</g>
				<g>
					<polygon class="st5" points="127.2,85.5 148.9,116.6 127.2,147.7 105.9,116.6 					"/>
				</g>
			</g>
			<g>
				<polygon class="st11" points="105.8,116.9 126.9,147.6 97.4,147.6 76.3,116.9 				"/>
			</g>
		</g>
		<g>
			<g>
				<polygon class="st12" points="126.9,23.1 105.8,53.8 76.3,53.8 97.4,23.1 				"/>
			</g>
			<g>
				<polygon class="st13" points="127.2,23.2 148.9,54.3 127.2,85.5 105.9,54.3 				"/>
			</g>
			<g>
				<polygon class="st14" points="105.9,53.8 127.6,85.4 97.2,85.4 75.6,53.8 				"/>
			</g>
		</g>
		<g>
			<g>
				<polygon class="st12" points="126.9,147.6 105.8,178.3 76.3,178.3 97.4,147.6 				"/>
			</g>
			<g>
				<polygon class="st13" points="127.2,147.7 148.9,178.8 127.2,210 105.9,178.8 				"/>
			</g>
			<g>
				<polygon class="st14" points="105.9,178.3 127.6,209.9 97.2,209.9 75.6,178.3 				"/>
			</g>
		</g>
		<g>
			<g>
				<polygon class="st12" points="178.4,116.9 157.3,147.6 127.7,147.6 148.8,116.9 				"/>
			</g>
			<g>
				<polygon class="st13" points="178.8,116.6 200.3,147.7 178.8,178.9 157.4,147.7 				"/>
			</g>
			<g>
				<polygon class="st14" points="157.4,147.6 179.1,179.2 148.7,179.2 127,147.6 				"/>
			</g>
		</g>
		<g>
			<g>
				<polygon class="st12" points="178.2,54.7 157.2,85.4 127.6,85.4 148.7,54.7 				"/>
			</g>
			<g>
				<polygon class="st13" points="178.6,54.3 200.2,85.4 178.6,116.6 157.3,85.4 				"/>
			</g>
			<g>
				<polygon class="st14" points="157.3,85.4 178.9,116.9 148.6,116.9 126.9,85.4 				"/>
			</g>
		</g>
		<g>
			<g>
				<g>
					
						<linearGradient id="SVGID_4_" gradientUnits="userSpaceOnUse" x1="-329.2" y1="-375.75" x2="-278.5" y2="-375.75" gradientTransform="matrix(1 0 0 -1 354.5 -243.5)">
						<stop  offset="0" style="stop-color:#FD7400"/>
						<stop  offset="1" style="stop-color:#FF8E39"/>
					</linearGradient>
					<polygon class="st15" points="76,116.9 55,147.6 25.3,147.6 46.4,116.9 					"/>
				</g>
				<g>
					
						<linearGradient id="SVGID_5_" gradientUnits="userSpaceOnUse" x1="-131.2" y1="-371.3713" x2="-80.5" y2="-371.3713" gradientTransform="matrix(1 0 0 -1 156.5 -239.1213)">
						<stop  offset="0" style="stop-color:#FD7400"/>
						<stop  offset="1" style="stop-color:#FF8E39"/>
					</linearGradient>
					<polygon class="st16" points="76,116.9 55,147.6 25.3,147.6 46.4,116.9 					"/>
				</g>
				<g>
					<polygon class="st9" points="76,116.9 55,147.6 25.3,147.6 46.4,116.9 					"/>
				</g>
			</g>
			<g>
				<g>
					
						<linearGradient id="SVGID_6_" gradientUnits="userSpaceOnUse" x1="-299.5" y1="-391.25" x2="-256.5539" y2="-391.25" gradientTransform="matrix(1 0 0 -1 354.5 -243.5)">
						<stop  offset="0" style="stop-color:#FF8E39;stop-opacity:0"/>
						<stop  offset="0.1239" style="stop-color:#FF913E;stop-opacity:0.1239"/>
						<stop  offset="0.2664" style="stop-color:#FF994C;stop-opacity:0.2664"/>
						<stop  offset="0.4183" style="stop-color:#FFA663;stop-opacity:0.4183"/>
						<stop  offset="0.5766" style="stop-color:#FFB883;stop-opacity:0.5766"/>
						<stop  offset="0.7399" style="stop-color:#FFD0AD;stop-opacity:0.7399"/>
						<stop  offset="0.9051" style="stop-color:#FFEDDF;stop-opacity:0.9051"/>
						<stop  offset="1" style="stop-color:#FFFFFF"/>
					</linearGradient>
					<polygon class="st17" points="76.3,116.6 98,147.7 76.3,178.9 55,147.7 					"/>
				</g>
				<g>
					<polygon class="st5" points="76.3,116.6 98,147.7 76.3,178.9 55,147.7 					"/>
				</g>
				<g>
					<polygon class="st5" points="76.3,116.6 98,147.7 76.3,178.9 55,147.7 					"/>
				</g>
			</g>
			<g>
				<polygon class="st11" points="55.1,147.6 76.6,179.2 46.3,179.2 24.7,147.6 				"/>
			</g>
		</g>
		<g>
			<g>
				<g>
					
						<linearGradient id="SVGID_7_" gradientUnits="userSpaceOnUse" x1="-329.3" y1="-313.55" x2="-278.6" y2="-313.55" gradientTransform="matrix(1 0 0 -1 354.5 -243.5)">
						<stop  offset="0" style="stop-color:#FD7400"/>
						<stop  offset="1" style="stop-color:#FF8E39"/>
					</linearGradient>
					<polygon class="st18" points="75.9,54.7 54.8,85.4 25.2,85.4 46.3,54.7 					"/>
				</g>
				<g>
					
						<linearGradient id="SVGID_8_" gradientUnits="userSpaceOnUse" x1="-131.3" y1="-309.1713" x2="-80.6" y2="-309.1713" gradientTransform="matrix(1 0 0 -1 156.5 -239.1213)">
						<stop  offset="0" style="stop-color:#FD7400"/>
						<stop  offset="1" style="stop-color:#FF8E39"/>
					</linearGradient>
					<polygon class="st19" points="75.9,54.7 54.8,85.4 25.2,85.4 46.3,54.7 					"/>
				</g>
				<g>
					<polygon class="st9" points="75.9,54.7 54.8,85.4 25.2,85.4 46.3,54.7 					"/>
				</g>
			</g>
			<g>
				<g>
					
						<linearGradient id="SVGID_9_" gradientUnits="userSpaceOnUse" x1="-299.7" y1="-328.95" x2="-256.7268" y2="-328.95" gradientTransform="matrix(1 0 0 -1 354.5 -243.5)">
						<stop  offset="0" style="stop-color:#FF8E39;stop-opacity:0"/>
						<stop  offset="0.1239" style="stop-color:#FF913E;stop-opacity:0.1239"/>
						<stop  offset="0.2664" style="stop-color:#FF994C;stop-opacity:0.2664"/>
						<stop  offset="0.4183" style="stop-color:#FFA663;stop-opacity:0.4183"/>
						<stop  offset="0.5766" style="stop-color:#FFB883;stop-opacity:0.5766"/>
						<stop  offset="0.7399" style="stop-color:#FFD0AD;stop-opacity:0.7399"/>
						<stop  offset="0.9051" style="stop-color:#FFEDDF;stop-opacity:0.9051"/>
						<stop  offset="1" style="stop-color:#FFFFFF"/>
					</linearGradient>
					<polygon class="st20" points="76.2,54.3 97.9,85.4 76.2,116.6 54.8,85.4 					"/>
				</g>
				<g>
					<polygon class="st5" points="76.2,54.3 97.9,85.4 76.2,116.6 54.8,85.4 					"/>
				</g>
				<g>
					<polygon class="st5" points="76.2,54.3 97.9,85.4 76.2,116.6 54.8,85.4 					"/>
				</g>
			</g>
			<g>
				<polygon class="st11" points="54.9,85.4 76.5,116.9 46.2,116.9 24.6,85.4 				"/>
			</g>
		</g>
	</g>
</g>
</svg>
