<?xml version="1.0" encoding="utf-8"?>
<!-- Generator: Adobe Illustrator 22.1.0, SVG Export Plug-In . SVG Version: 6.00 Build 0)  -->
<svg version="1.1" id="Layer_1" xmlns="http://www.w3.org/2000/svg" xmlns:xlink="http://www.w3.org/1999/xlink" x="0px" y="0px"
	 viewBox="0 0 1920 728" style="enable-background:new 0 0 1920 728;" xml:space="preserve">
<style type="text/css">
	.st0{fill:none;stroke:#4E95EA;stroke-width:2;stroke-linejoin:round;}
	.st1{fill:none;stroke:#4E95EA;stroke-width:1.8846;stroke-linejoin:round;}
	.st2{fill:none;stroke:#4E95EA;stroke-width:1.7692;stroke-linejoin:round;}
	.st3{fill:none;stroke:#4E95EA;stroke-width:1.6538;stroke-linejoin:round;}
	.st4{fill:none;stroke:#4E95EA;stroke-width:1.5385;stroke-linejoin:round;}
	.st5{fill:none;stroke:#4E95EA;stroke-width:1.4231;stroke-linejoin:round;}
	.st6{fill:none;stroke:#4E95EA;stroke-width:1.3077;stroke-linejoin:round;}
	.st7{fill:none;stroke:#4E95EA;stroke-width:1.1923;stroke-linejoin:round;}
	.st8{fill:none;stroke:#4E95EA;stroke-width:1.0769;stroke-linejoin:round;}
	.st9{fill:none;stroke:#4E95EA;stroke-width:0.9615;stroke-linejoin:round;}
	.st10{fill:none;stroke:#4E95EA;stroke-width:0.8462;stroke-linejoin:round;}
	.st11{fill:none;stroke:#4E95EA;stroke-width:0.7308;stroke-linejoin:round;}
	.st12{fill:none;stroke:#4E95EA;stroke-width:0.6154;stroke-linejoin:round;}
	.st13{fill:none;stroke:#4E95EA;stroke-width:0.5;stroke-linejoin:round;}
</style>
<g>
	<path class="st0" d="M0,561c0,0,143-349,543-174s515,165,659,45s343-199,718,129"/>
	<path class="st1" d="M0,529.8c0,0,146.8-327.5,541.6-150.8c401.6,180.6,514.8,170.2,663.5,46.7s355-203.4,714.8,103.8"/>
	<path class="st2" d="M0,498.5c0,0,150.7-305.9,540.2-127.7c403.1,186.2,514.7,175.3,668.1,48.4s367-207.8,711.7,78.7"/>
	<path class="st3" d="M0,467.3c0,0,155-285.4,538.8-104.5c405.1,190.8,514.5,180.5,672.6,50.1s379-212.2,708.5,53.5"/>
	<path class="st4" d="M0,436.1c0,0,158.9-264,537.5-81.4c406.8,196.3,514.4,185.6,677.2,51.8s391-216.5,705.4,28.4"/>
	<path class="st5" d="M0,404.8c0,0,162.8-242.6,536.1-58.2c408.5,201.7,514.2,190.8,681.7,53.5s403-220.9,702.2,3.2"/>
	<path class="st6" d="M0,373.6c0,0,166.7-221.1,534.7-35.1c410.1,207.3,514.1,195.9,686.2,55.2s415-225.3,699.1-21.9"/>
	<path class="st7" d="M0,342.4c0,0,170.6-199.5,533.3-11.9c411.6,212.9,513.9,201.1,690.8,56.8s427-229.7,695.9-47.1"/>
	<path class="st8" d="M0,311.2c0,0,174.4-177.9,531.9,11.2c413.2,218.6,513.8,206.2,695.3,58.5s439-234.1,692.8-72.2"/>
	<path class="st9" d="M0,279.9c0,0,178.2-156.2,530.5,34.4c414.7,224.3,513.6,211.4,699.8,60.2s451-238.5,689.6-97.4"/>
	<path class="st10" d="M0,248.7c0,0,181.9-134.5,529.2,57.5c416.1,230.2,513.5,216.5,704.4,61.9s463-242.8,686.5-122.5"/>
	<path class="st11" d="M0,217.5c0,0,185.3-112.1,527.8,80.7c417.1,236.8,513.3,221.7,708.9,63.6s475-247.2,683.3-147.7"/>
	<path class="st12" d="M0,186.2c0,0,189.2-90.5,526.4,103.8c418.7,242.5,513.2,226.8,713.5,65.3s487-251.6,680.2-172.8"/>
	<path class="st13" d="M0,155c0,0,193-69,525,127c420.2,248.1,513,232,718,67s499-256,677-198"/>
</g>
</svg>
