<?xml version="1.0" encoding="utf-8"?>
<!-- Generator: Adobe Illustrator 22.1.0, SVG Export Plug-In . SVG Version: 6.00 Build 0)  -->
<svg version="1.1" id="Layer_1" xmlns="http://www.w3.org/2000/svg" xmlns:xlink="http://www.w3.org/1999/xlink" x="0px" y="0px"
	 viewBox="0 0 200 200" style="enable-background:new 0 0 200 200;" xml:space="preserve">
<style type="text/css">
	.st0{fill:url(#SVGID_1_);}
	.st1{fill:#2A7FE2;}
	.st2{fill:url(#SVGID_2_);}
	.st3{fill:#669BE8;}
	.st4{fill:#3366CC;}
	.st5{fill:#B3B3B3;}
	.st6{fill:#E6E6E6;}
	.st7{fill:#808080;}
	.st8{fill:url(#SVGID_3_);}
	.st9{fill:url(#SVGID_4_);}
	.st10{fill:url(#SVGID_5_);}
	.st11{fill:url(#SVGID_6_);}
</style>
<g>
	<g>
		<g>
			<linearGradient id="SVGID_1_" gradientUnits="userSpaceOnUse" x1="115.2789" y1="51.694" x2="168.6025" y2="51.694">
				<stop  offset="0" style="stop-color:#FD7400"/>
				<stop  offset="1" style="stop-color:#FF8E39"/>
			</linearGradient>
			<polygon class="st0" points="168.6,35.5 146.4,67.8 115.3,67.8 137.4,35.5 			"/>
		</g>
		<g>
			<polygon class="st1" points="168.6,35.5 146.4,67.8 115.3,67.8 137.4,35.5 			"/>
		</g>
	</g>
	<g>
		<g>
			<linearGradient id="SVGID_2_" gradientUnits="userSpaceOnUse" x1="146.4215" y1="67.8833" x2="191.0497" y2="67.8833">
				<stop  offset="0" style="stop-color:#FF8E39;stop-opacity:0"/>
				<stop  offset="0.1239" style="stop-color:#FF913E;stop-opacity:0.1239"/>
				<stop  offset="0.2664" style="stop-color:#FF994C;stop-opacity:0.2664"/>
				<stop  offset="0.4183" style="stop-color:#FFA663;stop-opacity:0.4183"/>
				<stop  offset="0.5766" style="stop-color:#FFB883;stop-opacity:0.5766"/>
				<stop  offset="0.7399" style="stop-color:#FFD0AD;stop-opacity:0.7399"/>
				<stop  offset="0.9051" style="stop-color:#FFEDDF;stop-opacity:0.9051"/>
				<stop  offset="1" style="stop-color:#FFFFFF"/>
			</linearGradient>
			<polygon class="st2" points="168.6,35.5 191,67.8 168.6,100.2 146.4,67.8 			"/>
		</g>
		<g>
			<polygon class="st3" points="168.6,35.5 191,67.8 168.6,100.2 146.4,67.8 			"/>
		</g>
	</g>
	<g>
		<polygon class="st4" points="146.4,67.8 168.6,100.2 137.4,100.2 115.3,67.8 		"/>
	</g>
</g>
<g>
	<g>
		<polygon class="st5" points="62.1,99.3 40,131.6 8.8,131.6 31,99.3 		"/>
	</g>
	<g>
		<polygon class="st6" points="62.1,99.3 84.6,131.6 62.1,164 40,131.6 		"/>
	</g>
	<g>
		<polygon class="st7" points="40,131.6 62.1,164 31,164 8.8,131.6 		"/>
	</g>
</g>
<g>
	<g>
		<polygon class="st5" points="115.3,132.1 93.1,164.4 62,164.4 84.1,132.1 		"/>
	</g>
	<g>
		<polygon class="st6" points="115.3,132.1 137.7,164.4 115.3,196.8 93.1,164.4 		"/>
	</g>
	<g>
		<polygon class="st7" points="93.1,164.4 115.3,196.8 84.1,196.8 62,164.4 		"/>
	</g>
</g>
<g>
	<g>
		<polygon class="st5" points="168.7,99.8 146.6,132.1 115.4,132.1 137.6,99.8 		"/>
	</g>
	<g>
		<polygon class="st6" points="168.7,99.8 191.2,132.1 168.7,164.4 146.6,132.1 		"/>
	</g>
	<g>
		<polygon class="st7" points="146.6,132.1 168.7,164.4 137.6,164.4 115.4,132.1 		"/>
	</g>
</g>
<g>
	<g>
		<polygon class="st5" points="62.1,35 40,67.3 8.8,67.3 31,35 		"/>
	</g>
	<g>
		<polygon class="st6" points="62.1,35 84.6,67.3 62.1,99.7 40,67.3 		"/>
	</g>
	<g>
		<polygon class="st7" points="40,67.3 62.1,99.7 31,99.7 8.8,67.3 		"/>
	</g>
</g>
<g>
	<g>
		<g>
			<linearGradient id="SVGID_3_" gradientUnits="userSpaceOnUse" x1="62.4071" y1="84.0273" x2="115.7307" y2="84.0273">
				<stop  offset="0" style="stop-color:#FD7400"/>
				<stop  offset="1" style="stop-color:#FF8E39"/>
			</linearGradient>
			<polygon class="st8" points="115.7,67.9 93.5,100.2 62.4,100.2 84.6,67.9 			"/>
		</g>
		<g>
			<polygon class="st1" points="115.7,67.9 93.5,100.2 62.4,100.2 84.6,67.9 			"/>
		</g>
	</g>
	<g>
		<g>
			<linearGradient id="SVGID_4_" gradientUnits="userSpaceOnUse" x1="93.5497" y1="100.2167" x2="138.1779" y2="100.2167">
				<stop  offset="0" style="stop-color:#FF8E39;stop-opacity:0"/>
				<stop  offset="0.1239" style="stop-color:#FF913E;stop-opacity:0.1239"/>
				<stop  offset="0.2664" style="stop-color:#FF994C;stop-opacity:0.2664"/>
				<stop  offset="0.4183" style="stop-color:#FFA663;stop-opacity:0.4183"/>
				<stop  offset="0.5766" style="stop-color:#FFB883;stop-opacity:0.5766"/>
				<stop  offset="0.7399" style="stop-color:#FFD0AD;stop-opacity:0.7399"/>
				<stop  offset="0.9051" style="stop-color:#FFEDDF;stop-opacity:0.9051"/>
				<stop  offset="1" style="stop-color:#FFFFFF"/>
			</linearGradient>
			<polygon class="st9" points="115.7,67.9 138.2,100.2 115.7,132.6 93.5,100.2 			"/>
		</g>
		<g>
			<polygon class="st3" points="115.7,67.9 138.2,100.2 115.7,132.6 93.5,100.2 			"/>
		</g>
	</g>
	<g>
		<polygon class="st4" points="93.5,100.2 115.7,132.6 84.6,132.6 62.4,100.2 		"/>
	</g>
</g>
<g>
	<g>
		<g>
			<linearGradient id="SVGID_5_" gradientUnits="userSpaceOnUse" x1="62.274" y1="19.3606" x2="115.5976" y2="19.3606">
				<stop  offset="0" style="stop-color:#FD7400"/>
				<stop  offset="1" style="stop-color:#FF8E39"/>
			</linearGradient>
			<polygon class="st10" points="115.6,3.2 93.4,35.5 62.3,35.5 84.4,3.2 			"/>
		</g>
		<g>
			<polygon class="st1" points="115.6,3.2 93.4,35.5 62.3,35.5 84.4,3.2 			"/>
		</g>
	</g>
	<g>
		<g>
			<linearGradient id="SVGID_6_" gradientUnits="userSpaceOnUse" x1="93.4166" y1="35.55" x2="138.0448" y2="35.55">
				<stop  offset="0" style="stop-color:#FF8E39;stop-opacity:0"/>
				<stop  offset="0.1239" style="stop-color:#FF913E;stop-opacity:0.1239"/>
				<stop  offset="0.2664" style="stop-color:#FF994C;stop-opacity:0.2664"/>
				<stop  offset="0.4183" style="stop-color:#FFA663;stop-opacity:0.4183"/>
				<stop  offset="0.5766" style="stop-color:#FFB883;stop-opacity:0.5766"/>
				<stop  offset="0.7399" style="stop-color:#FFD0AD;stop-opacity:0.7399"/>
				<stop  offset="0.9051" style="stop-color:#FFEDDF;stop-opacity:0.9051"/>
				<stop  offset="1" style="stop-color:#FFFFFF"/>
			</linearGradient>
			<polygon class="st11" points="115.6,3.2 138,35.5 115.6,67.9 93.4,35.5 			"/>
		</g>
		<g>
			<polygon class="st3" points="115.6,3.2 138,35.5 115.6,67.9 93.4,35.5 			"/>
		</g>
	</g>
	<g>
		<polygon class="st4" points="93.4,35.5 115.6,67.9 84.4,67.9 62.3,35.5 		"/>
	</g>
</g>
</svg>
