<?xml version="1.0" encoding="utf-8"?>
<!-- Generator: Adobe Illustrator 22.1.0, SVG Export Plug-In . SVG Version: 6.00 Build 0)  -->
<svg version="1.1" id="Layer_1" xmlns="http://www.w3.org/2000/svg" xmlns:xlink="http://www.w3.org/1999/xlink" x="0px" y="0px"
	 viewBox="0 0 1645 237" style="enable-background:new 0 0 1645 237;" xml:space="preserve">
<style type="text/css">
	.Graphic_x0020_Style{fill:none;stroke:#5B5B5B;stroke-width:9;stroke-linejoin:round;}
	.st0{fill:url(#SVGID_1_);}
	.st1{fill:#B3B3B3;}
	.st2{fill:url(#SVGID_2_);}
	.st3{fill:#E6E6E6;}
	.st4{fill:#808080;}
	.st5{fill:#67CF2E;}
	.st6{fill:#85D958;}
	.st7{fill:#40B307;}
	.st8{fill:url(#SVGID_3_);}
	.st9{fill:url(#SVGID_4_);}
	.st10{fill:url(#SVGID_5_);}
	.st11{fill:url(#SVGID_6_);}
	.st12{fill:#FFFFFF;}
</style>
<g>
	<g>
		<g>
			<g>
				<g>
					<g>
						<polygon class="Graphic_x0020_Style" points="180.2,53.9 158.5,85.4 128.2,85.4 149.7,53.9 						"/>
					</g>
					<g>
						<polygon class="Graphic_x0020_Style" points="180.2,53.9 158.5,85.4 128.2,85.4 149.7,53.9 						"/>
					</g>
				</g>
				<g>
					<g>
						<polygon class="Graphic_x0020_Style" points="179.9,54.4 201.5,85.5 179.9,116.8 158.5,85.5 						"/>
					</g>
					<g>
						<polygon class="Graphic_x0020_Style" points="179.9,54.4 201.5,85.5 179.9,116.8 158.5,85.5 						"/>
					</g>
				</g>
				<g>
					<polygon class="Graphic_x0020_Style" points="158.5,85.4 180.1,116.9 149.8,116.9 128.3,85.4 					"/>
				</g>
			</g>
			<g>
				<g>
					<polygon class="Graphic_x0020_Style" points="77.4,116.1 55.8,147.6 25.4,147.6 47.1,116.1 					"/>
				</g>
				<g>
					<polygon class="Graphic_x0020_Style" points="77.1,115.9 98.9,147.1 77.1,178.4 55.7,147.1 					"/>
				</g>
				<g>
					<polygon class="Graphic_x0020_Style" points="55.8,146.9 77.4,178.4 47.1,178.4 25.5,146.9 					"/>
				</g>
			</g>
			<g>
				<g>
					<polygon class="Graphic_x0020_Style" points="128.8,147.6 107.1,179.2 76.7,179.2 98.3,147.6 					"/>
				</g>
				<g>
					<polygon class="Graphic_x0020_Style" points="128.5,147.6 150.1,178.7 128.5,210 107.1,178.7 					"/>
				</g>
				<g>
					<polygon class="Graphic_x0020_Style" points="107.1,178.4 128.7,209.9 98.3,209.9 76.7,178.4 					"/>
				</g>
			</g>
			<g>
				<g>
					<polygon class="Graphic_x0020_Style" points="180.3,116.1 158.6,147.6 128.3,147.6 149.9,116.1 					"/>
				</g>
				<g>
					<polygon class="Graphic_x0020_Style" points="180,116.4 201.7,147.6 180,178.7 158.6,147.6 					"/>
				</g>
				<g>
					<polygon class="Graphic_x0020_Style" points="158.6,147.6 180.3,179.2 149.9,179.2 128.3,147.6 					"/>
				</g>
			</g>
			<g>
				<g>
					<polygon class="Graphic_x0020_Style" points="77.4,53.9 55.8,85.4 25.4,85.4 47.1,53.9 					"/>
				</g>
				<g>
					<polygon class="Graphic_x0020_Style" points="77.1,53.9 98.9,85.1 77.1,116.3 55.7,85.1 					"/>
				</g>
				<g>
					<polygon class="Graphic_x0020_Style" points="55.8,84.6 77.4,116.1 47.1,116.1 25.5,84.6 					"/>
				</g>
			</g>
			<g>
				<g>
					<g>
						<polygon class="Graphic_x0020_Style" points="129.2,85.4 107.5,116.9 77.1,116.9 98.8,85.4 						"/>
					</g>
					<g>
						<polygon class="Graphic_x0020_Style" points="129.2,85.4 107.5,116.9 77.1,116.9 98.8,85.4 						"/>
					</g>
				</g>
				<g>
					<g>
						<polygon class="Graphic_x0020_Style" points="128.9,85.6 150.6,116.8 128.9,148.1 107.4,116.8 						"/>
					</g>
					<g>
						<polygon class="Graphic_x0020_Style" points="128.9,85.6 150.6,116.8 128.9,148.1 107.4,116.8 						"/>
					</g>
				</g>
				<g>
					<polygon class="Graphic_x0020_Style" points="107.5,116.9 129.1,148.4 98.8,148.4 77.2,116.9 					"/>
				</g>
			</g>
			<g>
				<g>
					<g>
						<polygon class="Graphic_x0020_Style" points="129.1,23.1 107.4,54.6 77,54.6 98.6,23.1 						"/>
					</g>
					<g>
						<polygon class="Graphic_x0020_Style" points="129.1,23.1 107.4,54.6 77,54.6 98.6,23.1 						"/>
					</g>
				</g>
				<g>
					<g>
						<polygon class="Graphic_x0020_Style" points="128.8,23.2 150.4,54.4 128.8,85.6 107.3,54.4 						"/>
					</g>
					<g>
						<polygon class="Graphic_x0020_Style" points="128.8,23.2 150.4,54.4 128.8,85.6 107.3,54.4 						"/>
					</g>
				</g>
				<g>
					<polygon class="Graphic_x0020_Style" points="107.4,53.9 129,85.4 98.6,85.4 77.1,53.9 					"/>
				</g>
			</g>
		</g>
	</g>
	<g>
		<g>
			<g>
				<g>
					<g>
						
							<linearGradient id="SVGID_1_" gradientUnits="userSpaceOnUse" x1="-298.3" y1="-313.15" x2="-246.3" y2="-313.15" gradientTransform="matrix(1 0 0 -1 426.5 -243.5)">
							<stop  offset="0" style="stop-color:#FD7400"/>
							<stop  offset="1" style="stop-color:#FF8E39"/>
						</linearGradient>
						<polygon class="st0" points="180.2,53.9 158.5,85.4 128.2,85.4 149.7,53.9 						"/>
					</g>
					<g>
						<polygon class="st1" points="180.2,53.9 158.5,85.4 128.2,85.4 149.7,53.9 						"/>
					</g>
				</g>
				<g>
					<g>
						
							<linearGradient id="SVGID_2_" gradientUnits="userSpaceOnUse" x1="-268" y1="-329.1" x2="-225" y2="-329.1" gradientTransform="matrix(1 0 0 -1 426.5 -243.5)">
							<stop  offset="0" style="stop-color:#FF8E39;stop-opacity:0"/>
							<stop  offset="0.1239" style="stop-color:#FF913E;stop-opacity:0.1239"/>
							<stop  offset="0.2664" style="stop-color:#FF994C;stop-opacity:0.2664"/>
							<stop  offset="0.4183" style="stop-color:#FFA663;stop-opacity:0.4183"/>
							<stop  offset="0.5766" style="stop-color:#FFB883;stop-opacity:0.5766"/>
							<stop  offset="0.7399" style="stop-color:#FFD0AD;stop-opacity:0.7399"/>
							<stop  offset="0.9051" style="stop-color:#FFEDDF;stop-opacity:0.9051"/>
							<stop  offset="1" style="stop-color:#FFFFFF"/>
						</linearGradient>
						<polygon class="st2" points="179.9,54.4 201.5,85.5 179.9,116.8 158.5,85.5 						"/>
					</g>
					<g>
						<polygon class="st3" points="179.9,54.4 201.5,85.5 179.9,116.8 158.5,85.5 						"/>
					</g>
				</g>
				<g>
					<polygon class="st4" points="158.5,85.4 180.1,116.9 149.8,116.9 128.3,85.4 					"/>
				</g>
			</g>
			<g>
				<g>
					<polygon class="st1" points="77.4,116.1 55.8,147.6 25.4,147.6 47.1,116.1 					"/>
				</g>
				<g>
					<polygon class="st3" points="77.1,115.9 98.9,147.1 77.1,178.4 55.7,147.1 					"/>
				</g>
				<g>
					<polygon class="st4" points="55.8,146.9 77.4,178.4 47.1,178.4 25.5,146.9 					"/>
				</g>
			</g>
			<g>
				<g>
					<polygon class="st5" points="128.8,147.6 107.1,179.2 76.7,179.2 98.3,147.6 					"/>
				</g>
				<g>
					<polygon class="st6" points="128.5,147.6 150.1,178.7 128.5,210 107.1,178.7 					"/>
				</g>
				<g>
					<polygon class="st7" points="107.1,178.4 128.7,209.9 98.3,209.9 76.7,178.4 					"/>
				</g>
			</g>
			<g>
				<g>
					<polygon class="st5" points="180.3,116.1 158.6,147.6 128.3,147.6 149.9,116.1 					"/>
				</g>
				<g>
					<polygon class="st6" points="180,116.4 201.7,147.6 180,178.7 158.6,147.6 					"/>
				</g>
				<g>
					<polygon class="st7" points="158.6,147.6 180.3,179.2 149.9,179.2 128.3,147.6 					"/>
				</g>
			</g>
			<g>
				<g>
					<polygon class="st1" points="77.4,53.9 55.8,85.4 25.4,85.4 47.1,53.9 					"/>
				</g>
				<g>
					<polygon class="st3" points="77.1,53.9 98.9,85.1 77.1,116.3 55.7,85.1 					"/>
				</g>
				<g>
					<polygon class="st4" points="55.8,84.6 77.4,116.1 47.1,116.1 25.5,84.6 					"/>
				</g>
			</g>
			<g>
				<g>
					<g>
						
							<linearGradient id="SVGID_3_" gradientUnits="userSpaceOnUse" x1="-349.4" y1="-344.65" x2="-297.3757" y2="-344.65" gradientTransform="matrix(1 0 0 -1 426.5 -243.5)">
							<stop  offset="0" style="stop-color:#FD7400"/>
							<stop  offset="1" style="stop-color:#FF8E39"/>
						</linearGradient>
						<polygon class="st8" points="129.2,85.4 107.5,116.9 77.1,116.9 98.8,85.4 						"/>
					</g>
					<g>
						<polygon class="st5" points="129.2,85.4 107.5,116.9 77.1,116.9 98.8,85.4 						"/>
					</g>
				</g>
				<g>
					<g>
						
							<linearGradient id="SVGID_4_" gradientUnits="userSpaceOnUse" x1="-319.0555" y1="-360.35" x2="-275.9979" y2="-360.35" gradientTransform="matrix(1 0 0 -1 426.5 -243.5)">
							<stop  offset="0" style="stop-color:#FF8E39;stop-opacity:0"/>
							<stop  offset="0.1239" style="stop-color:#FF913E;stop-opacity:0.1239"/>
							<stop  offset="0.2664" style="stop-color:#FF994C;stop-opacity:0.2664"/>
							<stop  offset="0.4183" style="stop-color:#FFA663;stop-opacity:0.4183"/>
							<stop  offset="0.5766" style="stop-color:#FFB883;stop-opacity:0.5766"/>
							<stop  offset="0.7399" style="stop-color:#FFD0AD;stop-opacity:0.7399"/>
							<stop  offset="0.9051" style="stop-color:#FFEDDF;stop-opacity:0.9051"/>
							<stop  offset="1" style="stop-color:#FFFFFF"/>
						</linearGradient>
						<polygon class="st9" points="128.9,85.6 150.6,116.8 128.9,148.1 107.4,116.8 						"/>
					</g>
					<g>
						<polygon class="st6" points="128.9,85.6 150.6,116.8 128.9,148.1 107.4,116.8 						"/>
					</g>
				</g>
				<g>
					<polygon class="st7" points="107.5,116.9 129.1,148.4 98.8,148.4 77.2,116.9 					"/>
				</g>
			</g>
			<g>
				<g>
					<g>
						
							<linearGradient id="SVGID_5_" gradientUnits="userSpaceOnUse" x1="-349.5" y1="-282.35" x2="-297.4758" y2="-282.35" gradientTransform="matrix(1 0 0 -1 426.5 -243.5)">
							<stop  offset="0" style="stop-color:#FD7400"/>
							<stop  offset="1" style="stop-color:#FF8E39"/>
						</linearGradient>
						<polygon class="st10" points="129.1,23.1 107.4,54.6 77,54.6 98.6,23.1 						"/>
					</g>
					<g>
						<polygon class="st1" points="129.1,23.1 107.4,54.6 77,54.6 98.6,23.1 						"/>
					</g>
				</g>
				<g>
					<g>
						
							<linearGradient id="SVGID_6_" gradientUnits="userSpaceOnUse" x1="-319.152" y1="-297.9" x2="-276.1215" y2="-297.9" gradientTransform="matrix(1 0 0 -1 426.5 -243.5)">
							<stop  offset="0" style="stop-color:#FF8E39;stop-opacity:0"/>
							<stop  offset="0.1239" style="stop-color:#FF913E;stop-opacity:0.1239"/>
							<stop  offset="0.2664" style="stop-color:#FF994C;stop-opacity:0.2664"/>
							<stop  offset="0.4183" style="stop-color:#FFA663;stop-opacity:0.4183"/>
							<stop  offset="0.5766" style="stop-color:#FFB883;stop-opacity:0.5766"/>
							<stop  offset="0.7399" style="stop-color:#FFD0AD;stop-opacity:0.7399"/>
							<stop  offset="0.9051" style="stop-color:#FFEDDF;stop-opacity:0.9051"/>
							<stop  offset="1" style="stop-color:#FFFFFF"/>
						</linearGradient>
						<polygon class="st11" points="128.8,23.2 150.4,54.4 128.8,85.6 107.3,54.4 						"/>
					</g>
					<g>
						<polygon class="st3" points="128.8,23.2 150.4,54.4 128.8,85.6 107.3,54.4 						"/>
					</g>
				</g>
				<g>
					<polygon class="st4" points="107.4,53.9 129,85.4 98.6,85.4 77.1,53.9 					"/>
				</g>
			</g>
		</g>
	</g>
</g>
<g>
	<g>
		<g>
			<path class="Graphic_x0020_Style" d="M353,152.2V88.5c0-1.2-0.6-1.8-1.8-1.8H350c-1,0-1.7,0.5-2.1,1.5l-23.2,61.3
				c-0.4,1.1-0.9,1.8-1.6,2.1c-0.7,0.4-1.7,0.5-2.9,0.5h-27.6c-1.3,0-2.3-0.2-3-0.5s-1.2-1.1-1.6-2.1L265,88.2
				c-0.4-1-1.1-1.5-2.2-1.5h-1.1c-1.2,0-1.8,0.6-1.8,1.8v63.7h-22.5V71c0-2.4,1.1-3.5,3.3-3.5H279c2.5,0,4.1,1.1,4.9,3.1l20.8,60.5
				c0.1,0.5,0.5,0.7,1.1,0.7h2.1c0.5,0,0.8-0.2,0.9-0.7l20.9-60.5c0.4-1,0.9-1.8,1.7-2.4c0.8-0.5,1.8-0.8,3-0.8h37.9
				c2.2,0,3.3,1.1,3.3,3.5v81.2L353,152.2L353,152.2z"/>
			<path class="Graphic_x0020_Style" d="M441.1,144.7h0.8V88.3h21.2v65.2c0,3.7-0.5,7.1-1.4,10.2c-0.9,3-2.4,5.7-4.3,7.8
				c-2,2.2-4.7,3.9-8,5c-3.4,1.2-7.5,1.8-12.3,1.8h-48.5v-17.8h45.2c3,0,5.1-0.7,6.3-2.1c1.2-1.4,1.8-3.5,1.8-6.5v-5.1h-30.2
				c-9.5,0-16.3-1.9-20.3-5.8c-4-3.9-5.9-9.7-5.9-17.5V88.3h21.2v32.6c0,3.5,0.7,5.9,2,7.2s3.7,1.9,7,1.9h19.7L441.1,144.7z"/>
			<path class="Graphic_x0020_Style" d="M565.5,67.5h27.8v0.9l-42.5,81.1c-0.5,1.1-1.1,1.8-1.8,2.1c-0.6,0.4-1.5,0.5-2.8,0.5h-29.5
				c-1.3,0-2.3-0.2-2.9-0.6c-0.6-0.4-1.2-1.1-1.8-2.1l-42-81v-0.9h28.3l31.2,63.7c0.3,0.6,0.8,0.9,1.6,0.9h1.3
				c0.8,0,1.3-0.3,1.6-0.9L565.5,67.5z"/>
			<path class="Graphic_x0020_Style" d="M591,104.1V88.3h59.3c4.2,0,7.2,1.1,9.2,3.5s3,5.7,3,10.1v47.5c0,1.8-0.9,2.8-2.7,2.8h-55.8
				c-2.4,0-4.4-0.3-6.2-0.8c-1.8-0.6-3.4-1.6-4.6-3s-2.3-3.3-2.9-5.6c-0.7-2.3-1-5.1-1-8.5v-4.8c0-6,1.3-10.4,3.9-12.9
				c2.6-2.6,6.2-3.9,10.9-3.9h32.4l4,9.4h0.8v-12.9c0-1.8-0.4-3-1.1-3.8s-1.8-1.1-3.4-1.1L591,104.1L591,104.1z M640.1,136.4
				c0.8,0,1.3-0.5,1.3-1.4v-9.8h-27.7c-1.4,0-2.4,0.4-3,1.1c-0.6,0.7-0.8,1.8-0.8,3.1v2.8c0,1.3,0.3,2.4,0.8,3
				c0.6,0.8,1.6,1.1,3,1.1L640.1,136.4L640.1,136.4z"/>
			<path class="Graphic_x0020_Style" d="M726.5,115.1h-0.9v-8.8c0-0.8-0.4-1.3-1.1-1.3h-25.7c-1.8,0-3.2,0.5-4,1.3s-1.1,2.4-1.1,4.4
				v41.4h-21.1v-45.9c0-5.4,1.4-9.8,4.3-13c2.8-3.3,7.3-4.9,13.6-4.9h51.8c2,0,3,1.1,3,3.1V108L726.5,115.1z"/>
			<path class="Graphic_x0020_Style" d="M753,78.3V61.4h21.1v16.9H753z M753,152.2V88.3h21.1v63.9H753z"/>
			<path class="Graphic_x0020_Style" d="M784.7,104.1V88.3H844c4.2,0,7.2,1.1,9.2,3.5s3,5.7,3,10.1v47.5c0,1.8-0.9,2.8-2.7,2.8
				h-55.8c-2.4,0-4.4-0.3-6.2-0.8c-1.8-0.6-3.4-1.6-4.6-3s-2.3-3.3-2.9-5.6c-0.7-2.3-1-5.1-1-8.5v-4.8c0-6,1.3-10.4,3.9-12.9
				c2.6-2.6,6.2-3.9,10.9-3.9h32.4l4,9.4h0.8v-12.9c0-1.8-0.4-3-1.1-3.8s-1.8-1.1-3.4-1.1L784.7,104.1L784.7,104.1z M833.8,136.4
				c0.8,0,1.3-0.5,1.3-1.4v-9.8h-27.7c-1.4,0-2.4,0.4-3,1.1c-0.6,0.7-0.8,1.8-0.8,3.1v2.8c0,1.3,0.3,2.4,0.8,3
				c0.6,0.8,1.6,1.1,3,1.1L833.8,136.4L833.8,136.4z"/>
			<path class="Graphic_x0020_Style" d="M866.5,88.3h52.1c4.7,0,8.8,0.6,12.1,1.8s6,2.9,8.1,5.1c2.1,2.2,3.6,4.9,4.5,8
				c0.9,3.1,1.4,6.6,1.4,10.4v38.5h-21.1v-37.1c0-3.7-0.7-6.3-2.1-7.8c-1.4-1.4-3.7-2.2-6.9-2.2h-22.8l-3.5-9.3h-0.8v56.4h-21.1v-64
				H866.5z"/>
			<path class="Graphic_x0020_Style" d="M1000.4,104.4h-18.6v47.8h-21.1v-47.8h-8.4l-5.8-15.2v-0.9h14.2V67.5h21.1v20.8h18.6V104.4z
				"/>
			<path class="Graphic_x0020_Style" d="M996.4,152.2v-19.3h21.1v19.3H996.4z"/>
			<path class="Graphic_x0020_Style" d="M1028.2,78.3V61.4h21.1v16.9H1028.2z M1028.2,152.2V88.3h21.1v63.9H1028.2z"/>
			<path class="Graphic_x0020_Style" d="M1060.1,88.3h52.1c4.7,0,8.8,0.6,12.1,1.8s6,2.9,8.1,5.1c2.1,2.2,3.6,4.9,4.5,8
				s1.4,6.6,1.4,10.4v38.5h-21.1v-37.1c0-3.7-0.7-6.3-2.1-7.8c-1.4-1.4-3.7-2.2-6.9-2.2h-22.8l-3.5-9.3h-0.8v56.4H1060v-64H1060.1z"
				/>
			<path class="Graphic_x0020_Style" d="M1194.1,104.4h-18.6v47.8h-21.1v-47.8h-8.6l-5.6-15.2v-0.9h14.2v-7.7c0-3.8,0.4-6.9,1.1-9.4
				c0.8-2.4,2.1-4.4,3.9-5.9c1.8-1.4,4.2-2.5,7.2-3c3-0.6,6.7-0.8,11.1-0.8h9.4l5.7,14.3v1.1h-12.3c-2,0-3.4,0.5-4,1.4
				c-0.7,0.9-1.1,2.4-1.1,4.5v5.7h18.6L1194.1,104.4L1194.1,104.4z"/>
			<path class="Graphic_x0020_Style" d="M1281.7,126.8c0,3.9-0.5,7.4-1.4,10.4c-0.9,3.1-2.4,5.8-4.6,8c-2.1,2.2-4.8,3.9-8.2,5.1
				c-3.4,1.2-7.4,1.8-12.1,1.8h-30.7c-4.7,0-8.8-0.6-12-1.8c-3.3-1.2-6-2.9-8.1-5.1c-2.1-2.2-3.6-4.9-4.6-8
				c-0.9-3.1-1.4-6.6-1.4-10.4v-13.2c0-3.8,0.5-7.2,1.4-10.4c0.9-3.1,2.4-5.8,4.6-8c2.1-2.2,4.8-3.9,8.1-5.1c3.3-1.2,7.3-1.8,12-1.8
				h30.7c4.7,0,8.8,0.6,12.1,1.8s6,2.9,8.2,5.1c2.1,2.2,3.6,4.9,4.6,8c0.9,3.1,1.4,6.6,1.4,10.4V126.8z M1251.7,133.5
				c3.4,0,5.6-0.7,7-2c1.3-1.3,2-3.8,2-7.5v-9c0-3.9-0.7-6.6-2.1-7.9c-1.4-1.4-3.7-2.1-6.9-2.1h-22.9c-3.4,0-5.6,0.7-6.9,2.1
				s-1.9,4-1.9,7.8v9c0,3.7,0.6,6.1,1.9,7.5c1.3,1.3,3.6,2,6.9,2H1251.7z"/>
		</g>
		<g>
			<path class="Graphic_x0020_Style" d="M353,152.2V88.5c0-1.2-0.6-1.8-1.8-1.8H350c-1,0-1.7,0.5-2.1,1.5l-23.2,61.3
				c-0.4,1.1-0.9,1.8-1.6,2.1c-0.7,0.4-1.7,0.5-2.9,0.5h-27.6c-1.3,0-2.3-0.2-3-0.5s-1.2-1.1-1.6-2.1L265,88.2
				c-0.4-1-1.1-1.5-2.2-1.5h-1.1c-1.2,0-1.8,0.6-1.8,1.8v63.7h-22.5V71c0-2.4,1.1-3.5,3.3-3.5H279c2.5,0,4.1,1.1,4.9,3.1l20.8,60.5
				c0.1,0.5,0.5,0.7,1.1,0.7h2.1c0.5,0,0.8-0.2,0.9-0.7l20.9-60.5c0.4-1,0.9-1.8,1.7-2.4c0.8-0.5,1.8-0.8,3-0.8h37.9
				c2.2,0,3.3,1.1,3.3,3.5v81.2L353,152.2L353,152.2z"/>
			<path class="Graphic_x0020_Style" d="M441.1,144.7h0.8V88.3h21.2v65.2c0,3.7-0.5,7.1-1.4,10.2c-0.9,3-2.4,5.7-4.3,7.8
				c-2,2.2-4.7,3.9-8,5c-3.4,1.2-7.5,1.8-12.3,1.8h-48.5v-17.8h45.2c3,0,5.1-0.7,6.3-2.1c1.2-1.4,1.8-3.5,1.8-6.5v-5.1h-30.2
				c-9.5,0-16.3-1.9-20.3-5.8c-4-3.9-5.9-9.7-5.9-17.5V88.3h21.2v32.6c0,3.5,0.7,5.9,2,7.2s3.7,1.9,7,1.9h19.7L441.1,144.7z"/>
			<path class="Graphic_x0020_Style" d="M565.5,67.5h27.8v0.9l-42.5,81.1c-0.5,1.1-1.1,1.8-1.8,2.1c-0.6,0.4-1.5,0.5-2.8,0.5h-29.5
				c-1.3,0-2.3-0.2-2.9-0.6c-0.6-0.4-1.2-1.1-1.8-2.1l-42-81v-0.9h28.3l31.2,63.7c0.3,0.6,0.8,0.9,1.6,0.9h1.3
				c0.8,0,1.3-0.3,1.6-0.9L565.5,67.5z"/>
			<path class="Graphic_x0020_Style" d="M591,104.1V88.3h59.3c4.2,0,7.2,1.1,9.2,3.5s3,5.7,3,10.1v47.5c0,1.8-0.9,2.8-2.7,2.8h-55.8
				c-2.4,0-4.4-0.3-6.2-0.8c-1.8-0.6-3.4-1.6-4.6-3s-2.3-3.3-2.9-5.6c-0.7-2.3-1-5.1-1-8.5v-4.8c0-6,1.3-10.4,3.9-12.9
				c2.6-2.6,6.2-3.9,10.9-3.9h32.4l4,9.4h0.8v-12.9c0-1.8-0.4-3-1.1-3.8s-1.8-1.1-3.4-1.1L591,104.1L591,104.1z M640.1,136.4
				c0.8,0,1.3-0.5,1.3-1.4v-9.8h-27.7c-1.4,0-2.4,0.4-3,1.1c-0.6,0.7-0.8,1.8-0.8,3.1v2.8c0,1.3,0.3,2.4,0.8,3
				c0.6,0.8,1.6,1.1,3,1.1L640.1,136.4L640.1,136.4z"/>
			<path class="Graphic_x0020_Style" d="M726.5,115.1h-0.9v-8.8c0-0.8-0.4-1.3-1.1-1.3h-25.7c-1.8,0-3.2,0.5-4,1.3s-1.1,2.4-1.1,4.4
				v41.4h-21.1v-45.9c0-5.4,1.4-9.8,4.3-13c2.8-3.3,7.3-4.9,13.6-4.9h51.8c2,0,3,1.1,3,3.1V108L726.5,115.1z"/>
			<path class="Graphic_x0020_Style" d="M753,78.3V61.4h21.1v16.9H753z M753,152.2V88.3h21.1v63.9H753z"/>
			<path class="Graphic_x0020_Style" d="M784.7,104.1V88.3H844c4.2,0,7.2,1.1,9.2,3.5s3,5.7,3,10.1v47.5c0,1.8-0.9,2.8-2.7,2.8
				h-55.8c-2.4,0-4.4-0.3-6.2-0.8c-1.8-0.6-3.4-1.6-4.6-3s-2.3-3.3-2.9-5.6c-0.7-2.3-1-5.1-1-8.5v-4.8c0-6,1.3-10.4,3.9-12.9
				c2.6-2.6,6.2-3.9,10.9-3.9h32.4l4,9.4h0.8v-12.9c0-1.8-0.4-3-1.1-3.8s-1.8-1.1-3.4-1.1L784.7,104.1L784.7,104.1z M833.8,136.4
				c0.8,0,1.3-0.5,1.3-1.4v-9.8h-27.7c-1.4,0-2.4,0.4-3,1.1c-0.6,0.7-0.8,1.8-0.8,3.1v2.8c0,1.3,0.3,2.4,0.8,3
				c0.6,0.8,1.6,1.1,3,1.1L833.8,136.4L833.8,136.4z"/>
			<path class="Graphic_x0020_Style" d="M866.5,88.3h52.1c4.7,0,8.8,0.6,12.1,1.8s6,2.9,8.1,5.1c2.1,2.2,3.6,4.9,4.5,8
				c0.9,3.1,1.4,6.6,1.4,10.4v38.5h-21.1v-37.1c0-3.7-0.7-6.3-2.1-7.8c-1.4-1.4-3.7-2.2-6.9-2.2h-22.8l-3.5-9.3h-0.8v56.4h-21.1v-64
				H866.5z"/>
			<path class="Graphic_x0020_Style" d="M1000.4,104.4h-18.6v47.8h-21.1v-47.8h-8.4l-5.8-15.2v-0.9h14.2V67.5h21.1v20.8h18.6V104.4z
				"/>
			<path class="Graphic_x0020_Style" d="M996.4,152.2v-19.3h21.1v19.3H996.4z"/>
			<path class="Graphic_x0020_Style" d="M1028.2,78.3V61.4h21.1v16.9H1028.2z M1028.2,152.2V88.3h21.1v63.9H1028.2z"/>
			<path class="Graphic_x0020_Style" d="M1060.1,88.3h52.1c4.7,0,8.8,0.6,12.1,1.8s6,2.9,8.1,5.1c2.1,2.2,3.6,4.9,4.5,8
				s1.4,6.6,1.4,10.4v38.5h-21.1v-37.1c0-3.7-0.7-6.3-2.1-7.8c-1.4-1.4-3.7-2.2-6.9-2.2h-22.8l-3.5-9.3h-0.8v56.4H1060v-64H1060.1z"
				/>
			<path class="Graphic_x0020_Style" d="M1194.1,104.4h-18.6v47.8h-21.1v-47.8h-8.6l-5.6-15.2v-0.9h14.2v-7.7c0-3.8,0.4-6.9,1.1-9.4
				c0.8-2.4,2.1-4.4,3.9-5.9c1.8-1.4,4.2-2.5,7.2-3c3-0.6,6.7-0.8,11.1-0.8h9.4l5.7,14.3v1.1h-12.3c-2,0-3.4,0.5-4,1.4
				c-0.7,0.9-1.1,2.4-1.1,4.5v5.7h18.6L1194.1,104.4L1194.1,104.4z"/>
			<path class="Graphic_x0020_Style" d="M1281.7,126.8c0,3.9-0.5,7.4-1.4,10.4c-0.9,3.1-2.4,5.8-4.6,8c-2.1,2.2-4.8,3.9-8.2,5.1
				c-3.4,1.2-7.4,1.8-12.1,1.8h-30.7c-4.7,0-8.8-0.6-12-1.8c-3.3-1.2-6-2.9-8.1-5.1c-2.1-2.2-3.6-4.9-4.6-8
				c-0.9-3.1-1.4-6.6-1.4-10.4v-13.2c0-3.8,0.5-7.2,1.4-10.4c0.9-3.1,2.4-5.8,4.6-8c2.1-2.2,4.8-3.9,8.1-5.1c3.3-1.2,7.3-1.8,12-1.8
				h30.7c4.7,0,8.8,0.6,12.1,1.8s6,2.9,8.2,5.1c2.1,2.2,3.6,4.9,4.6,8c0.9,3.1,1.4,6.6,1.4,10.4V126.8z M1251.7,133.5
				c3.4,0,5.6-0.7,7-2c1.3-1.3,2-3.8,2-7.5v-9c0-3.9-0.7-6.6-2.1-7.9c-1.4-1.4-3.7-2.1-6.9-2.1h-22.9c-3.4,0-5.6,0.7-6.9,2.1
				s-1.9,4-1.9,7.8v9c0,3.7,0.6,6.1,1.9,7.5c1.3,1.3,3.6,2,6.9,2H1251.7z"/>
		</g>
	</g>
	<g>
		<g>
			<path d="M353,152.2V88.5c0-1.2-0.6-1.8-1.8-1.8H350c-1,0-1.7,0.5-2.1,1.5l-23.2,61.3c-0.4,1.1-0.9,1.8-1.6,2.1
				c-0.7,0.4-1.7,0.5-2.9,0.5h-27.6c-1.3,0-2.3-0.2-3-0.5s-1.2-1.1-1.6-2.1L265,88.2c-0.4-1-1.1-1.5-2.2-1.5h-1.1
				c-1.2,0-1.8,0.6-1.8,1.8v63.7h-22.5V71c0-2.4,1.1-3.5,3.3-3.5H279c2.5,0,4.1,1.1,4.9,3.1l20.8,60.5c0.1,0.5,0.5,0.7,1.1,0.7h2.1
				c0.5,0,0.8-0.2,0.9-0.7l20.9-60.5c0.4-1,0.9-1.8,1.7-2.4c0.8-0.5,1.8-0.8,3-0.8h37.9c2.2,0,3.3,1.1,3.3,3.5v81.2L353,152.2
				L353,152.2z"/>
			<path d="M441.1,144.7h0.8V88.3h21.2v65.2c0,3.7-0.5,7.1-1.4,10.2c-0.9,3-2.4,5.7-4.3,7.8c-2,2.2-4.7,3.9-8,5
				c-3.4,1.2-7.5,1.8-12.3,1.8h-48.5v-17.8h45.2c3,0,5.1-0.7,6.3-2.1c1.2-1.4,1.8-3.5,1.8-6.5v-5.1h-30.2c-9.5,0-16.3-1.9-20.3-5.8
				c-4-3.9-5.9-9.7-5.9-17.5V88.3h21.2v32.6c0,3.5,0.7,5.9,2,7.2s3.7,1.9,7,1.9h19.7L441.1,144.7z"/>
			<path d="M565.5,67.5h27.8v0.9l-42.5,81.1c-0.5,1.1-1.1,1.8-1.8,2.1c-0.6,0.4-1.5,0.5-2.8,0.5h-29.5c-1.3,0-2.3-0.2-2.9-0.6
				c-0.6-0.4-1.2-1.1-1.8-2.1l-42-81v-0.9h28.3l31.2,63.7c0.3,0.6,0.8,0.9,1.6,0.9h1.3c0.8,0,1.3-0.3,1.6-0.9L565.5,67.5z"/>
			<path d="M591,104.1V88.3h59.3c4.2,0,7.2,1.1,9.2,3.5s3,5.7,3,10.1v47.5c0,1.8-0.9,2.8-2.7,2.8h-55.8c-2.4,0-4.4-0.3-6.2-0.8
				c-1.8-0.6-3.4-1.6-4.6-3s-2.3-3.3-2.9-5.6c-0.7-2.3-1-5.1-1-8.5v-4.8c0-6,1.3-10.4,3.9-12.9c2.6-2.6,6.2-3.9,10.9-3.9h32.4l4,9.4
				h0.8v-12.9c0-1.8-0.4-3-1.1-3.8s-1.8-1.1-3.4-1.1L591,104.1L591,104.1z M640.1,136.4c0.8,0,1.3-0.5,1.3-1.4v-9.8h-27.7
				c-1.4,0-2.4,0.4-3,1.1c-0.6,0.7-0.8,1.8-0.8,3.1v2.8c0,1.3,0.3,2.4,0.8,3c0.6,0.8,1.6,1.1,3,1.1L640.1,136.4L640.1,136.4z"/>
			<path d="M726.5,115.1h-0.9v-8.8c0-0.8-0.4-1.3-1.1-1.3h-25.7c-1.8,0-3.2,0.5-4,1.3s-1.1,2.4-1.1,4.4v41.4h-21.1v-45.9
				c0-5.4,1.4-9.8,4.3-13c2.8-3.3,7.3-4.9,13.6-4.9h51.8c2,0,3,1.1,3,3.1V108L726.5,115.1z"/>
			<path d="M753,78.3V61.4h21.1v16.9H753z M753,152.2V88.3h21.1v63.9H753z"/>
			<path d="M784.7,104.1V88.3H844c4.2,0,7.2,1.1,9.2,3.5s3,5.7,3,10.1v47.5c0,1.8-0.9,2.8-2.7,2.8h-55.8c-2.4,0-4.4-0.3-6.2-0.8
				c-1.8-0.6-3.4-1.6-4.6-3s-2.3-3.3-2.9-5.6c-0.7-2.3-1-5.1-1-8.5v-4.8c0-6,1.3-10.4,3.9-12.9c2.6-2.6,6.2-3.9,10.9-3.9h32.4l4,9.4
				h0.8v-12.9c0-1.8-0.4-3-1.1-3.8s-1.8-1.1-3.4-1.1L784.7,104.1L784.7,104.1z M833.8,136.4c0.8,0,1.3-0.5,1.3-1.4v-9.8h-27.7
				c-1.4,0-2.4,0.4-3,1.1c-0.6,0.7-0.8,1.8-0.8,3.1v2.8c0,1.3,0.3,2.4,0.8,3c0.6,0.8,1.6,1.1,3,1.1L833.8,136.4L833.8,136.4z"/>
			<path d="M866.5,88.3h52.1c4.7,0,8.8,0.6,12.1,1.8s6,2.9,8.1,5.1c2.1,2.2,3.6,4.9,4.5,8c0.9,3.1,1.4,6.6,1.4,10.4v38.5h-21.1
				v-37.1c0-3.7-0.7-6.3-2.1-7.8c-1.4-1.4-3.7-2.2-6.9-2.2h-22.8l-3.5-9.3h-0.8v56.4h-21.1v-64H866.5z"/>
			<path d="M1000.4,104.4h-18.6v47.8h-21.1v-47.8h-8.4l-5.8-15.2v-0.9h14.2V67.5h21.1v20.8h18.6V104.4z"/>
			<path d="M996.4,152.2v-19.3h21.1v19.3H996.4z"/>
			<path d="M1028.2,78.3V61.4h21.1v16.9H1028.2z M1028.2,152.2V88.3h21.1v63.9H1028.2z"/>
			<path d="M1060.1,88.3h52.1c4.7,0,8.8,0.6,12.1,1.8s6,2.9,8.1,5.1c2.1,2.2,3.6,4.9,4.5,8s1.4,6.6,1.4,10.4v38.5h-21.1v-37.1
				c0-3.7-0.7-6.3-2.1-7.8c-1.4-1.4-3.7-2.2-6.9-2.2h-22.8l-3.5-9.3h-0.8v56.4H1060v-64H1060.1z"/>
			<path d="M1194.1,104.4h-18.6v47.8h-21.1v-47.8h-8.6l-5.6-15.2v-0.9h14.2v-7.7c0-3.8,0.4-6.9,1.1-9.4c0.8-2.4,2.1-4.4,3.9-5.9
				c1.8-1.4,4.2-2.5,7.2-3c3-0.6,6.7-0.8,11.1-0.8h9.4l5.7,14.3v1.1h-12.3c-2,0-3.4,0.5-4,1.4c-0.7,0.9-1.1,2.4-1.1,4.5v5.7h18.6
				L1194.1,104.4L1194.1,104.4z"/>
			<path d="M1281.7,126.8c0,3.9-0.5,7.4-1.4,10.4c-0.9,3.1-2.4,5.8-4.6,8c-2.1,2.2-4.8,3.9-8.2,5.1c-3.4,1.2-7.4,1.8-12.1,1.8h-30.7
				c-4.7,0-8.8-0.6-12-1.8c-3.3-1.2-6-2.9-8.1-5.1c-2.1-2.2-3.6-4.9-4.6-8c-0.9-3.1-1.4-6.6-1.4-10.4v-13.2c0-3.8,0.5-7.2,1.4-10.4
				c0.9-3.1,2.4-5.8,4.6-8c2.1-2.2,4.8-3.9,8.1-5.1c3.3-1.2,7.3-1.8,12-1.8h30.7c4.7,0,8.8,0.6,12.1,1.8s6,2.9,8.2,5.1
				c2.1,2.2,3.6,4.9,4.6,8c0.9,3.1,1.4,6.6,1.4,10.4V126.8z M1251.7,133.5c3.4,0,5.6-0.7,7-2c1.3-1.3,2-3.8,2-7.5v-9
				c0-3.9-0.7-6.6-2.1-7.9c-1.4-1.4-3.7-2.1-6.9-2.1h-22.9c-3.4,0-5.6,0.7-6.9,2.1s-1.9,4-1.9,7.8v9c0,3.7,0.6,6.1,1.9,7.5
				c1.3,1.3,3.6,2,6.9,2H1251.7z"/>
		</g>
		<g>
			<path class="st12" d="M353,152.2V88.5c0-1.2-0.6-1.8-1.8-1.8H350c-1,0-1.7,0.5-2.1,1.5l-23.2,61.3c-0.4,1.1-0.9,1.8-1.6,2.1
				c-0.7,0.4-1.7,0.5-2.9,0.5h-27.6c-1.3,0-2.3-0.2-3-0.5s-1.2-1.1-1.6-2.1L265,88.2c-0.4-1-1.1-1.5-2.2-1.5h-1.1
				c-1.2,0-1.8,0.6-1.8,1.8v63.7h-22.5V71c0-2.4,1.1-3.5,3.3-3.5H279c2.5,0,4.1,1.1,4.9,3.1l20.8,60.5c0.1,0.5,0.5,0.7,1.1,0.7h2.1
				c0.5,0,0.8-0.2,0.9-0.7l20.9-60.5c0.4-1,0.9-1.8,1.7-2.4c0.8-0.5,1.8-0.8,3-0.8h37.9c2.2,0,3.3,1.1,3.3,3.5v81.2L353,152.2
				L353,152.2z"/>
			<path class="st12" d="M441.1,144.7h0.8V88.3h21.2v65.2c0,3.7-0.5,7.1-1.4,10.2c-0.9,3-2.4,5.7-4.3,7.8c-2,2.2-4.7,3.9-8,5
				c-3.4,1.2-7.5,1.8-12.3,1.8h-48.5v-17.8h45.2c3,0,5.1-0.7,6.3-2.1c1.2-1.4,1.8-3.5,1.8-6.5v-5.1h-30.2c-9.5,0-16.3-1.9-20.3-5.8
				c-4-3.9-5.9-9.7-5.9-17.5V88.3h21.2v32.6c0,3.5,0.7,5.9,2,7.2s3.7,1.9,7,1.9h19.7L441.1,144.7z"/>
			<path class="st6" d="M565.5,67.5h27.8v0.9l-42.5,81.1c-0.5,1.1-1.1,1.8-1.8,2.1c-0.6,0.4-1.5,0.5-2.8,0.5h-29.5
				c-1.3,0-2.3-0.2-2.9-0.6c-0.6-0.4-1.2-1.1-1.8-2.1l-42-81v-0.9h28.3l31.2,63.7c0.3,0.6,0.8,0.9,1.6,0.9h1.3
				c0.8,0,1.3-0.3,1.6-0.9L565.5,67.5z"/>
			<path class="st6" d="M591,104.1V88.3h59.3c4.2,0,7.2,1.1,9.2,3.5s3,5.7,3,10.1v47.5c0,1.8-0.9,2.8-2.7,2.8h-55.8
				c-2.4,0-4.4-0.3-6.2-0.8c-1.8-0.6-3.4-1.6-4.6-3s-2.3-3.3-2.9-5.6c-0.7-2.3-1-5.1-1-8.5v-4.8c0-6,1.3-10.4,3.9-12.9
				c2.6-2.6,6.2-3.9,10.9-3.9h32.4l4,9.4h0.8v-12.9c0-1.8-0.4-3-1.1-3.8s-1.8-1.1-3.4-1.1L591,104.1L591,104.1z M640.1,136.4
				c0.8,0,1.3-0.5,1.3-1.4v-9.8h-27.7c-1.4,0-2.4,0.4-3,1.1c-0.6,0.7-0.8,1.8-0.8,3.1v2.8c0,1.3,0.3,2.4,0.8,3
				c0.6,0.8,1.6,1.1,3,1.1L640.1,136.4L640.1,136.4z"/>
			<path class="st6" d="M726.5,115.1h-0.9v-8.8c0-0.8-0.4-1.3-1.1-1.3h-25.7c-1.8,0-3.2,0.5-4,1.3s-1.1,2.4-1.1,4.4v41.4h-21.1
				v-45.9c0-5.4,1.4-9.8,4.3-13c2.8-3.3,7.3-4.9,13.6-4.9h51.8c2,0,3,1.1,3,3.1V108L726.5,115.1z"/>
			<path class="st6" d="M753,78.3V61.4h21.1v16.9H753z M753,152.2V88.3h21.1v63.9H753z"/>
			<path class="st6" d="M784.7,104.1V88.3H844c4.2,0,7.2,1.1,9.2,3.5s3,5.7,3,10.1v47.5c0,1.8-0.9,2.8-2.7,2.8h-55.8
				c-2.4,0-4.4-0.3-6.2-0.8c-1.8-0.6-3.4-1.6-4.6-3s-2.3-3.3-2.9-5.6c-0.7-2.3-1-5.1-1-8.5v-4.8c0-6,1.3-10.4,3.9-12.9
				c2.6-2.6,6.2-3.9,10.9-3.9h32.4l4,9.4h0.8v-12.9c0-1.8-0.4-3-1.1-3.8s-1.8-1.1-3.4-1.1L784.7,104.1L784.7,104.1z M833.8,136.4
				c0.8,0,1.3-0.5,1.3-1.4v-9.8h-27.7c-1.4,0-2.4,0.4-3,1.1c-0.6,0.7-0.8,1.8-0.8,3.1v2.8c0,1.3,0.3,2.4,0.8,3
				c0.6,0.8,1.6,1.1,3,1.1L833.8,136.4L833.8,136.4z"/>
			<path class="st6" d="M866.5,88.3h52.1c4.7,0,8.8,0.6,12.1,1.8s6,2.9,8.1,5.1c2.1,2.2,3.6,4.9,4.5,8c0.9,3.1,1.4,6.6,1.4,10.4
				v38.5h-21.1v-37.1c0-3.7-0.7-6.3-2.1-7.8c-1.4-1.4-3.7-2.2-6.9-2.2h-22.8l-3.5-9.3h-0.8v56.4h-21.1v-64H866.5z"/>
			<path class="st6" d="M1000.4,104.4h-18.6v47.8h-21.1v-47.8h-8.4l-5.8-15.2v-0.9h14.2V67.5h21.1v20.8h18.6V104.4z"/>
			<path class="st12" d="M996.4,152.2v-19.3h21.1v19.3H996.4z"/>
			<path class="st12" d="M1028.2,78.3V61.4h21.1v16.9H1028.2z M1028.2,152.2V88.3h21.1v63.9H1028.2z"/>
			<path class="st12" d="M1060.1,88.3h52.1c4.7,0,8.8,0.6,12.1,1.8s6,2.9,8.1,5.1c2.1,2.2,3.6,4.9,4.5,8s1.4,6.6,1.4,10.4v38.5
				h-21.1v-37.1c0-3.7-0.7-6.3-2.1-7.8c-1.4-1.4-3.7-2.2-6.9-2.2h-22.8l-3.5-9.3h-0.8v56.4H1060v-64H1060.1z"/>
			<path class="st12" d="M1194.1,104.4h-18.6v47.8h-21.1v-47.8h-8.6l-5.6-15.2v-0.9h14.2v-7.7c0-3.8,0.4-6.9,1.1-9.4
				c0.8-2.4,2.1-4.4,3.9-5.9c1.8-1.4,4.2-2.5,7.2-3c3-0.6,6.7-0.8,11.1-0.8h9.4l5.7,14.3v1.1h-12.3c-2,0-3.4,0.5-4,1.4
				c-0.7,0.9-1.1,2.4-1.1,4.5v5.7h18.6L1194.1,104.4L1194.1,104.4z"/>
			<path class="st12" d="M1281.7,126.8c0,3.9-0.5,7.4-1.4,10.4c-0.9,3.1-2.4,5.8-4.6,8c-2.1,2.2-4.8,3.9-8.2,5.1
				c-3.4,1.2-7.4,1.8-12.1,1.8h-30.7c-4.7,0-8.8-0.6-12-1.8c-3.3-1.2-6-2.9-8.1-5.1c-2.1-2.2-3.6-4.9-4.6-8
				c-0.9-3.1-1.4-6.6-1.4-10.4v-13.2c0-3.8,0.5-7.2,1.4-10.4c0.9-3.1,2.4-5.8,4.6-8c2.1-2.2,4.8-3.9,8.1-5.1c3.3-1.2,7.3-1.8,12-1.8
				h30.7c4.7,0,8.8,0.6,12.1,1.8s6,2.9,8.2,5.1c2.1,2.2,3.6,4.9,4.6,8c0.9,3.1,1.4,6.6,1.4,10.4V126.8z M1251.7,133.5
				c3.4,0,5.6-0.7,7-2c1.3-1.3,2-3.8,2-7.5v-9c0-3.9-0.7-6.6-2.1-7.9c-1.4-1.4-3.7-2.1-6.9-2.1h-22.9c-3.4,0-5.6,0.7-6.9,2.1
				s-1.9,4-1.9,7.8v9c0,3.7,0.6,6.1,1.9,7.5c1.3,1.3,3.6,2,6.9,2H1251.7z"/>
		</g>
	</g>
</g>
</svg>
