<?xml version="1.0" standalone="no"?>
<!DOCTYPE svg PUBLIC "-//W3C//DTD SVG 20010904//EN"
 "http://www.w3.org/TR/2001/REC-SVG-20010904/DTD/svg10.dtd">
<svg version="1.0" xmlns="http://www.w3.org/2000/svg"
 width="700.000000pt" height="700.000000pt" viewBox="0 0 700.000000 700.000000"
 preserveAspectRatio="xMidYMid meet">
<metadata>
Created by potrace 1.11, written by Peter Selinger 2001-2013
</metadata>
<g transform="translate(0.000000,700.000000) scale(0.100000,-0.100000)"
fill="#000000" stroke="none">
<path d="M3026 6884 c-6 -6 -81 -113 -166 -238 -85 -124 -256 -373 -380 -552
l-225 -325 -540 0 -540 1 -385 -561 c-212 -309 -386 -564 -388 -568 -1 -4 111
-174 251 -377 139 -203 297 -434 352 -514 54 -80 113 -166 132 -192 18 -26 33
-52 33 -58 0 -5 -109 -168 -242 -362 -134 -194 -269 -391 -301 -438 -32 -47
-96 -140 -142 -207 l-84 -121 84 -124 c47 -67 89 -130 95 -138 6 -8 142 -206
302 -440 160 -234 294 -427 299 -430 4 -3 247 -5 539 -5 520 0 531 0 549 -20
10 -11 113 -159 229 -330 242 -354 263 -386 277 -407 14 -23 247 -362 252
-368 2 -3 248 -5 546 -5 471 0 543 2 554 15 7 8 101 141 207 295 107 154 264
379 348 500 84 120 154 225 156 232 2 7 7 13 10 13 4 0 18 17 31 38 l23 37
539 0 c296 0 539 3 539 7 0 5 4 7 9 5 5 -1 36 36 68 83 32 47 84 121 114 165
129 186 285 412 303 440 11 16 23 34 28 40 24 28 268 386 268 393 0 7 -75 118
-265 392 -33 47 -162 233 -288 414 l-228 330 72 105 c40 58 103 149 139 201
37 52 181 259 319 459 l253 364 -87 126 c-48 69 -109 158 -136 196 -27 39 -79
113 -115 165 -36 52 -84 122 -107 155 -24 33 -109 156 -191 273 -81 116 -153
213 -159 213 -7 1 -250 2 -541 3 l-529 1 -45 65 c-25 36 -201 288 -390 560
-190 272 -347 497 -349 500 -3 3 -248 5 -546 5 -382 0 -544 -3 -551 -11z"/>
</g>
</svg>
