<?xml version="1.0" encoding="utf-8"?>
<!-- Generator: Adobe Illustrator 22.1.0, SVG Export Plug-In . SVG Version: 6.00 Build 0)  -->
<svg version="1.1" id="Layer_1" xmlns="http://www.w3.org/2000/svg" xmlns:xlink="http://www.w3.org/1999/xlink" x="0px" y="0px"
	 viewBox="0 0 100 100" style="enable-background:new 0 0 100 100;" xml:space="preserve">
<style type="text/css">
	:root {
	  --blue-dark: #3366CC;
	  --blue-medium: #2A7FE2;
	  --blue-light: #669BE8;

	  --green-dark: #40B307;
	  --green-medium: #67CF2E;
	  --green-light: #85D958;

	  --orange-dark: #CC6633;
	  --orange-medium: #FD7400;
	  --orange-light: #FF8E39;
	}
	.st0{fill:none;stroke:var(--orange-dark);stroke-width:4;stroke-miterlimit:10;}
	.st1{fill:none;stroke:var(--orange-light);stroke-width:4;stroke-miterlimit:10;}
	.st2{fill:url(#SVGID_1_);}
	.st3{fill:var(--orange-light);}
	@keyframes Ani {
    0% {
        transform: scale(1);
				transform-origin: center;
				opacity: 1;
    }
    100% {
        transform: scale(1.4);
				transform-origin: center;
				opacity: 0;
    }
}


		.Ani {
		    animation: Ani 4s ease-in-out;
		    -webkit-animation: Ani 4s ease-in-out;
				-webkit-animation-iteration-count: 5; /* Safari 4.0 - 8.0 */
				animation-iteration-count: 5;
		}

	</style>
<circle class="st1 Ani" cx="53" cy="31.5" r="13.5"/>
<g id="wlNPg1.tif">
	<g>
		<linearGradient id="SVGID_1_" gradientUnits="userSpaceOnUse" x1="47.8333" y1="98.5" x2="47.8333" y2="26.3034">
			<stop  offset="0.5644" style="stop-color:#818181"/>
			<stop  offset="0.6571" style="stop-color:#929292"/>
			<stop  offset="1" style="stop-color:var(--orange-light)"/>
		</linearGradient>
		<path class="st2" d="M37.4,53.1c1.7-6.2,6.1-7.9,10.4-3.8c0-1.6,0-3,0-4.4c0-4.3,0-8.6,0-12.9c0-2.4,1.6-4.6,3.6-5.3
			c2.3-0.8,4.7-0.2,6.2,1.5c1.1,1.3,1.3,2.8,1.3,4.4c0,10.5,0,20.9,0,31.4c0,0.7,0,1.4,0,2.1c0.9,0.1,1-0.5,1.2-0.9
			c1.8-2.6,3.5-5.3,5.4-7.9c1.5-2,4.2-2.5,6.5-1.5c2.3,1.1,3.6,3.7,3.2,6c-0.3,1.4-1.1,2.5-1.9,3.7C66.6,75.8,59.7,86,52.9,96.4
			c-1,1.5-2.2,2.1-4,2.1c-8.4-0.1-16.8,0-25.1,0c-2.9,0-3.5-0.6-3.5-3.4c0-10.4,0-20.7,0-31.1c0-4.1,1.8-6.1,6-6.4
			c1.3-0.1,1-0.9,1-1.6c0.3-3.5,3-5.9,6.3-5.5C35.1,50.8,36.3,51.6,37.4,53.1z"/>
	</g>
</g>
<ellipse class="st3" cx="53.4" cy="30.7" rx="3.4" ry="2.8"/>
</svg>
