<?xml version="1.0" encoding="utf-8"?>
<!-- Generator: Adobe Illustrator 22.1.0, SVG Export Plug-In . SVG Version: 6.00 Build 0)  -->
<svg version="1.1" id="Layer_1" xmlns="http://www.w3.org/2000/svg" xmlns:xlink="http://www.w3.org/1999/xlink" x="0px" y="0px"
	 viewBox="0 0 100 100" style="enable-background:new 0 0 100 100;" xml:space="preserve">
<style type="text/css">
	:root {
	  --blue-dark: #3366CC;
	  --blue-medium: #2A7FE2;
	  --blue-light: #669BE8;

	  --green-dark: #40B307;
	  --green-medium: #67CF2E;
	  --green-light: #85D958;

	  --orange-dark: #CC6633;
	  --orange-medium: #FD7400;
	  --orange-light: #FF8E39;
	}
	.st0{fill:url(#SVGID_1_);}
	.st1{fill:url(#SVGID_2_);}
	.st2{fill:url(#SVGID_3_);}
	.st3{fill:none;stroke:var(--orange-medium);stroke-linecap:round;stroke-miterlimit:10;}
	.st4{fill:var(--orange-light);}
	.st5{opacity:0.1;fill:#FFFFFF;}
	@-webkit-keyframes rotation {
	from {
			-webkit-transform: rotate(0deg);
			-ms-transform:rotate(0deg); /* IE 9 */
		  -moz-transform:rotate(0deg); /* Firefox */
		  -o-transform:rotate(0deg); /* Opera */
	}
	to {
			-webkit-transform: rotate(359deg);
			-ms-transform:rotate(359deg); /* IE 9 */
		  -moz-transform:rotate(359deg); /* Firefox */
		  -o-transform:rotate(359deg); /* Opera */
	}
}

	.rotate1 {
	    animation: rotation 15s ease-in-out;
	    -webkit-animation: rotation 15s ease-in-out;
			-webkit-transform-origin: center;
  		transform-origin: center;
			-webkit-animation-iteration-count: 1; /* Safari 4.0 - 8.0 */
    	animation-iteration-count: 1;
	}

	.rotate2 {
	    animation: rotation 20s ease-in-out;
	    -webkit-animation: rotation 20s ease-in-out;
			-webkit-transform-origin: center;
  		transform-origin: center;
			-webkit-animation-iteration-count: 1; /* Safari 4.0 - 8.0 */
    	animation-iteration-count: 1;
	}

</style>
<linearGradient id="SVGID_1_" gradientUnits="userSpaceOnUse" x1="50" y1="97.3333" x2="50" y2="2.6667">
	<stop  offset="3.782051e-02" style="stop-color:var(--orange-dark)"/>
	<stop  offset="0.2254" style="stop-color:var(--orange-medium)"/>
	<stop  offset="0.4659" style="stop-color:var(--orange-medium)"/>
	<stop  offset="0.734" style="stop-color:var(--orange-medium)"/>
	<stop  offset="1" style="stop-color:var(--orange-light)"/>
</linearGradient>
<circle class="st0" cx="50" cy="50" r="47.3"/>
<linearGradient id="SVGID_2_" gradientUnits="userSpaceOnUse" x1="50" y1="94.6667" x2="50" y2="5.3333">
	<stop  offset="0" style="stop-color:#242424"/>
	<stop  offset="0.2617" style="stop-color:#3E3E3E"/>
	<stop  offset="0.8187" style="stop-color:#818181"/>
	<stop  offset="1" style="stop-color:#989898"/>
</linearGradient>
<circle class="st1" cx="50" cy="50" r="44.7"/>
<linearGradient id="SVGID_3_" gradientUnits="userSpaceOnUse" x1="50" y1="92.7148" x2="50" y2="7.2852">
	<stop  offset="0" style="stop-color:#989898"/>
	<stop  offset="0.1813" style="stop-color:#818181"/>
	<stop  offset="0.7383" style="stop-color:#3E3E3E"/>
	<stop  offset="1" style="stop-color:#242424"/>
</linearGradient>
<circle class="st2" cx="50" cy="50" r="42.7"/>
<g>
	<g>
		<line class="st3" x1="79.5" y1="78.8" x2="75.6" y2="74.9"/>
		<line class="st3" x1="25.7" y1="25.3" x2="21.8" y2="21.4"/>
	</g>
	<g>
		<line class="st3" x1="50.8" y1="90.8" x2="50.8" y2="85.3"/>
		<line class="st3" x1="50.6" y1="14.9" x2="50.6" y2="9.4"/>
	</g>
	<g>
		<line class="st3" x1="22" y1="78.9" x2="25.9" y2="75"/>
		<line class="st3" x1="75.5" y1="25.2" x2="79.4" y2="21.3"/>
	</g>
	<g>
		<line class="st3" x1="10" y1="50.2" x2="15.5" y2="50.2"/>
		<line class="st3" x1="85.8" y1="50" x2="91.3" y2="50"/>
	</g>
</g>
<path class="st4 rotate1" d="M51.4,45.9V9.1c0-0.8-0.6-1.4-1.4-1.4l0,0c-0.8,0-1.4,0.6-1.4,1.4v36.8c-2,0.7-3.4,2.8-2.8,5.2
	c0.4,1.5,1.6,2.7,3.1,3.1c2.9,0.7,5.4-1.5,5.4-4.2C54.3,48.1,53.1,46.5,51.4,45.9z"/>
<path class="st4 rotate2" d="M54.1,51.4h24.8c0.8,0,1.4-0.6,1.4-1.4l0,0c0-0.8-0.6-1.4-1.4-1.4H54.1c-0.7-2-2.8-3.4-5.2-2.8
	c-1.5,0.4-2.7,1.6-3.1,3.1c-0.7,2.9,1.5,5.4,4.2,5.4C51.9,54.3,53.5,53.1,54.1,51.4z"/>
<path class="st5" d="M13,71.3c0,0,4.3,8,13.9,14.6l58.9-59.2c0,0-6.6-10.5-12.2-12.4L13,71.3z"/>
</svg>
