<?xml version="1.0" encoding="utf-8"?>
<!-- Generator: Adobe Illustrator 22.1.0, SVG Export Plug-In . SVG Version: 6.00 Build 0)  -->
<svg version="1.1" xmlns="http://www.w3.org/2000/svg" xmlns:xlink="http://www.w3.org/1999/xlink" x="0px" y="0px"
	 viewBox="0 0 200 200" style="enable-background:new 0 0 200 200;" xml:space="preserve">
<style type="text/css">
	.st0{display:none;}
	.st1{display:inline;}
	.st2{enable-background:new    ;}
	.st3{fill:#B3B3B3;}
	.st4{fill:#E6E6E6;}
	.st5{fill:#808080;}
	.st6{fill:#67CF2E;}
	.st7{fill:#85D958;}
	.st8{fill:#40B307;}
	.st9{fill:none;stroke:#FFC81A;stroke-width:2;stroke-miterlimit:10;}
	.st10{fill:none;stroke:#FF8E39;stroke-miterlimit:10;}
	.st11{fill:none;stroke:#85D958;stroke-miterlimit:10;}
	.st12{fill:none;stroke:#669BE8;stroke-miterlimit:10;}
	.st13{fill:none;stroke:#FFC81A;stroke-miterlimit:10;}
	.st14{opacity:0.75;fill:#669BE8;}
	.st15{opacity:0.68;fill:#85D958;}
	.st16{opacity:0.73;fill:#FF8E39;}
	.st17{fill:#848484;}
	.st18{fill:#BABABA;}
	.st19{fill:#EFEFEF;}
	@keyframes Ani {
    0% {
        transform: scale(1);
				transform-origin: center;
				opacity:0;
    }
		50% {
        transform: scale(1.3);
				transform-origin: center;
				opacity:.4;
    }
		100% {
        transform: scale(1);
				transform-origin: center;
				opacity:0;
    }
}

@keyframes Ani2 {
	0% {
			transform: scale(1);
			transform-origin: center;
			opacity:0;
	}
	50% {
			transform: scale(1.4);
			transform-origin: center;
			opacity:.4;
	}
	100% {
			transform: scale(1);
			transform-origin: center;
			opacity:0;
	}
}

@keyframes Ani3 {
	0% {
			transform: scale(1);
			transform-origin: center;
			opacity:0;
	}
	50% {
			transform: scale(1.5);
			transform-origin: center;
			opacity:.4;
	}
	100% {
			transform: scale(1);
			transform-origin: center;
			opacity:0;
	}
}

		.Ani {
		    animation: Ani 3s ease-in-out;
		    -webkit-animation: Ani 3s ease-in-out;
				-webkit-animation-iteration-count: 3; /* Safari 4.0 - 8.0 */
				animation-iteration-count: 3;
		}

		.Ani2 {
		    animation: Ani2 3s ease-in-out;
		    -webkit-animation: Ani2 3s ease-in-out;
				-webkit-animation-iteration-count: 3; /* Safari 4.0 - 8.0 */
				animation-iteration-count: 3;
		}

		.Ani3 {
		    animation: Ani3 3s ease-in-out;
		    -webkit-animation: Ani3 3s ease-in-out;
				-webkit-animation-iteration-count: 3; /* Safari 4.0 - 8.0 */
				animation-iteration-count: 3;
		}

</style>
<g id="Layer_1">
	<g class="st0">
		<g class="st1">
			<g class="st2">
				<g>
					<polygon class="st3" points="114.6,11.7 94.1,40.8 64.9,40.8 85.6,11.7 					"/>
				</g>
				<g>
					<polygon class="st4" points="114.9,11.7 135.7,41.1 114.9,70.6 94.1,41.1 					"/>
				</g>
				<g>
					<polygon class="st5" points="94.1,40.8 114.6,70 85.6,70 64.9,40.8 					"/>
				</g>
			</g>
		</g>
		<g class="st1">
			<g class="st2">
				<g>
					<polygon class="st6" points="114.6,70.9 94.1,100 64.9,100 85.6,70.9 					"/>
				</g>
				<g>
					<polygon class="st7" points="114.9,70.6 135.7,100 114.9,129.4 94.1,100 					"/>
				</g>
				<g>
					<polygon class="st8" points="94.1,100 114.6,129.1 85.6,129.1 64.9,100 					"/>
				</g>
			</g>
		</g>
		<g class="st1">
			<g class="st2">
				<g>
					<polygon class="st3" points="164.9,40.8 144.3,70 115.2,70 135.8,40.8 					"/>
				</g>
				<g>
					<polygon class="st4" points="165.1,41.1 186,70.6 165.1,100 144.4,70.6 					"/>
				</g>
				<g>
					<polygon class="st5" points="144.3,70.9 164.9,100 135.8,100 115.2,70.9 					"/>
				</g>
			</g>
		</g>
		<g class="st1">
			<g class="st2">
				<g>
					<polygon class="st6" points="164.9,100 144.3,129.1 115.2,129.1 135.8,100 					"/>
				</g>
				<g>
					<polygon class="st7" points="165.1,100 186,129.4 165.1,158.9 144.4,129.4 					"/>
				</g>
				<g>
					<polygon class="st8" points="144.3,129.1 164.9,158.3 135.8,158.3 115.2,129.1 					"/>
				</g>
			</g>
		</g>
		<g class="st1">
			<g class="st2">
				<g>
					<polygon class="st3" points="64.4,40.8 43.8,70 14.6,70 35.3,40.8 					"/>
				</g>
				<g>
					<polygon class="st4" points="64.7,41.1 85.4,70.6 64.7,100 43.8,70.6 					"/>
				</g>
				<g>
					<polygon class="st5" points="43.8,70.9 64.4,100 35.3,100 14.6,70.9 					"/>
				</g>
			</g>
		</g>
		<g class="st1">
			<g class="st2">
				<g>
					<polygon class="st3" points="64.4,100 43.8,129.1 14.6,129.1 35.3,100 					"/>
				</g>
				<g>
					<polygon class="st4" points="64.7,100 85.4,129.4 64.7,158.9 43.8,129.4 					"/>
				</g>
				<g>
					<polygon class="st5" points="43.8,129.1 64.4,158.3 35.3,158.3 14.6,129.1 					"/>
				</g>
			</g>
		</g>
		<g class="st1">
			<g class="st2">
				<g>
					<polygon class="st6" points="114.6,129.1 94.1,158.3 64.9,158.3 85.6,129.1 					"/>
				</g>
				<g>
					<polygon class="st7" points="114.9,129.4 135.7,158.9 114.9,188.3 94.1,158.9 					"/>
				</g>
				<g>
					<polygon class="st8" points="94.1,159.2 114.6,188.3 85.6,188.3 64.9,159.2 					"/>
				</g>
			</g>
		</g>
	</g>
	<polygon class="st9" points="53.4,19.3 146.6,19.3 193.2,100 146.6,180.7 53.4,180.7 6.8,100 	"/>
	<polygon class="st10" points="64.6,38.6 135.4,38.6 170.9,100 135.4,161.4 64.6,161.4 29.1,100 	"/>
	<polygon class="st11" points="75.1,56.8 124.9,56.8 149.9,100 124.9,143.2 75.1,143.2 50.1,100 	"/>
	<polygon class="st12" points="83.7,71.8 116.3,71.8 132.6,100 116.3,128.2 83.7,128.2 67.4,100 	"/>
	<line class="st13" x1="146.6" y1="19.3" x2="100" y2="100"/>
	<line class="st13" x1="146.6" y1="180.7" x2="100" y2="100"/>
	<line class="st13" x1="6.8" y1="100" x2="100" y2="100"/>
</g>
<g id="Layer_2">
	<polygon class="st14 Ani3" points="100,100 67.4,100 83.7,128.2 116.3,128.2 	"/>
	<polygon class="st15 Ani2" points="124.9,56.8 100,100 124.9,143.2 149.9,100 	"/>
	<polygon class="st16 Ani" points="135.4,38.6 100,100 29.1,100 64.6,38.6 	"/>
	<g>
		<polygon class="st17" points="99.9,100 87.3,100 93.6,110.9 106.2,110.9 		"/>
		<polygon class="st18" points="93.6,89.1 106.2,89.1 99.9,100 87.3,100 		"/>
		<polygon class="st19" points="99.9,100 106.2,89.1 112.7,100 106.2,110.9 		"/>
	</g>
</g>
</svg>
