<?xml version="1.0" encoding="utf-8"?>
<!-- Generator: Adobe Illustrator 22.1.0, SVG Export Plug-In . SVG Version: 6.00 Build 0)  -->
<svg version="1.1" id="Layer_1" xmlns="http://www.w3.org/2000/svg" xmlns:xlink="http://www.w3.org/1999/xlink" x="0px" y="0px"
	 viewBox="0 0 200 200" style="enable-background:new 0 0 200 200;" xml:space="preserve">
<style type="text/css">
	.st0{enable-background:new    ;}
	.st1{fill:#B3B3B3;}
	.st2{fill:#E6E6E6;}
	.st3{fill:#808080;}
</style>
<g>
	<g class="st0">
		<g>
			<polygon class="st1" points="116.2,1 92.9,34 59.9,34 83.3,1 			"/>
		</g>
		<g>
			<polygon class="st2" points="116.5,1 140.1,34.3 116.5,67.7 93,34.3 			"/>
		</g>
		<g>
			<polygon class="st3" points="92.9,34 116.2,67 83.3,67 59.9,34 			"/>
		</g>
	</g>
	<g class="st0">
		<g>
			<polygon class="st1" points="116.2,67 92.9,100 59.9,100 83.3,67 			"/>
		</g>
		<g>
			<polygon class="st2" points="116.5,66.7 140.1,100 116.5,133.3 93,100 			"/>
		</g>
		<g>
			<polygon class="st3" points="92.9,100 116.2,133 83.3,133 59.9,100 			"/>
		</g>
	</g>
	<g>
		<polygon class="st1" points="173.1,34 149.9,67 116.9,67 140.1,34 		"/>
	</g>
	<g>
		<polygon class="st2" points="173.4,33.3 197,66.7 173.4,100 149.9,66.7 		"/>
	</g>
	<g>
		<polygon class="st3" points="149.9,67 173.1,100 140.1,100 116.9,67 		"/>
	</g>
	<g class="st0">
		<g>
			<polygon class="st1" points="173.1,100 149.9,133 116.9,133 140.1,100 			"/>
		</g>
		<g>
			<polygon class="st2" points="173.4,100 197,133.3 173.4,166.6 149.9,133.3 			"/>
		</g>
		<g>
			<polygon class="st3" points="149.9,133 173.1,166 140.1,166 116.9,133 			"/>
		</g>
	</g>
	<g>
		<polygon class="st1" points="59.4,34 36,67 3,67 26.4,34 		"/>
	</g>
	<g>
		<polygon class="st2" points="59.6,33.3 83.1,66.7 59.6,100 36,66.7 		"/>
	</g>
	<g>
		<polygon class="st3" points="36,67 59.4,100 26.4,100 3,67 		"/>
	</g>
	<g class="st0">
		<g>
			<polygon class="st1" points="59.4,100 36,133 3,133 26.4,100 			"/>
		</g>
		<g>
			<polygon class="st2" points="59.6,100 83.1,133.3 59.6,166.6 36,133.3 			"/>
		</g>
		<g>
			<polygon class="st3" points="36,133 59.4,166 26.4,166 3,133 			"/>
		</g>
	</g>
	<g>
		<polygon class="st1" points="116.2,133 92.9,166 59.9,166 83.3,133 		"/>
	</g>
	<g>
		<polygon class="st2" points="116.5,132.3 140.1,165.6 116.5,199 93,165.6 		"/>
	</g>
	<g>
		<polygon class="st3" points="92.9,166 116.2,199 83.3,199 59.9,166 		"/>
	</g>
</g>
</svg>
