<?xml version="1.0" encoding="utf-8"?>
<!-- Generator: Adobe Illustrator 22.1.0, SVG Export Plug-In . SVG Version: 6.00 Build 0)  -->
<svg version="1.1" id="Layer_1" xmlns="http://www.w3.org/2000/svg" xmlns:xlink="http://www.w3.org/1999/xlink" x="0px" y="0px"
	 viewBox="0 0 964 745" style="enable-background:new 0 0 964 745;" xml:space="preserve">
<style type="text/css">
	.st0{fill:none;}
	.st1{fill:#FFFFFF;stroke:#FFFFFF;stroke-miterlimit:10;}
	.st2{fill:none;stroke:#FFFFFF;stroke-miterlimit:10;}
	.st3{fill:none;stroke:#FFFFFF;stroke-width:4;stroke-linecap:round;stroke-linejoin:round;stroke-miterlimit:10;}
	.st4{fill:#FFFFFF;}
	.st5{font-family:'RechargeRg-Bold';}
	.st6{font-size:87px;}
</style>
<rect x="61.8" y="562" class="st0" width="841.2" height="119"/>
<g>
	<g>
		<g>
			<g>
				<polygon class="st1" points="524.3,199.6 470.4,278.3 394.5,278.3 448.4,199.6 				"/>
			</g>
			<g>
				<polygon class="st1" points="524.3,199.6 579,278.3 524.3,356.9 470.4,278.3 				"/>
			</g>
			<g>
				<polygon class="st1" points="470.4,278.3 524.3,356.9 448.4,356.9 394.5,278.3 				"/>
			</g>
		</g>
		<g>
			<g>
				<g>
					<polygon class="st2" points="393.7,120.7 339.8,199.4 263.9,199.4 318.1,120.7 					"/>
				</g>
				<g>
					<polygon class="st2" points="393.7,120.7 448.4,199.4 393.7,278.3 339.8,199.4 					"/>
				</g>
				<g>
					<polygon class="st2" points="339.8,199.4 393.7,278.3 318.1,278.3 263.9,199.4 					"/>
				</g>
			</g>
			<g>
				<g>
					<polygon class="st2" points="393.7,278.3 339.8,356.7 263.9,356.7 318.1,278.3 					"/>
				</g>
				<g>
					<polygon class="st2" points="393.7,278.3 448.4,356.7 393.7,435.6 339.8,356.7 					"/>
				</g>
				<g>
					<polygon class="st2" points="339.8,356.7 393.7,435.6 318.1,435.6 263.9,356.7 					"/>
				</g>
			</g>
			<g>
				<g>
					<polygon class="st2" points="654.9,120.7 600.8,199.4 525.1,199.4 579,120.7 					"/>
				</g>
				<g>
					<polygon class="st2" points="654.9,120.7 709.6,199.4 654.9,278.3 600.8,199.4 					"/>
				</g>
				<g>
					<polygon class="st2" points="600.8,199.4 654.9,278.3 579,278.3 525.1,199.4 					"/>
				</g>
			</g>
			<g>
				<g>
					<polygon class="st2" points="654.9,278.3 600.8,356.7 525.1,356.7 579,278.3 					"/>
				</g>
				<g>
					<polygon class="st2" points="654.9,278.3 709.6,356.7 654.9,435.6 600.8,356.7 					"/>
				</g>
				<g>
					<polygon class="st2" points="600.8,356.7 654.9,435.6 579,435.6 525.1,356.7 					"/>
				</g>
			</g>
			<g>
				<g>
					<polygon class="st2" points="524.3,42.1 470.4,120.7 394.5,120.7 448.4,42.1 					"/>
				</g>
				<g>
					<polygon class="st2" points="524.3,42.1 579,120.7 524.3,199.6 470.4,120.7 					"/>
				</g>
				<g>
					<polygon class="st2" points="470.4,120.7 524.3,199.6 448.4,199.6 394.5,120.7 					"/>
				</g>
			</g>
			<g>
				<g>
					<polygon class="st2" points="524.3,356.9 470.4,435.6 394.5,435.6 448.4,356.9 					"/>
				</g>
				<g>
					<polygon class="st2" points="524.3,356.9 579,435.6 524.3,514.5 470.4,435.6 					"/>
				</g>
				<g>
					<polygon class="st2" points="470.4,435.6 524.3,514.5 448.4,514.5 394.5,435.6 					"/>
				</g>
			</g>
		</g>
		<g>
			<g>
				<g>
					<line class="st3" x1="339.8" y1="199.4" x2="320" y2="199.4"/>
				</g>
			</g>
			<g>
				<g>
					<line class="st3" x1="339.8" y1="356.7" x2="320" y2="356.7"/>
				</g>
			</g>
			<g>
				<g>
					<line class="st3" x1="600.8" y1="199.4" x2="581" y2="199.4"/>
				</g>
			</g>
			<g>
				<g>
					<line class="st3" x1="600.8" y1="356.7" x2="581" y2="356.7"/>
				</g>
			</g>
			<g>
				<g>
					<line class="st3" x1="470.4" y1="120.7" x2="450.4" y2="120.7"/>
				</g>
			</g>
			<g>
				<g>
					<line class="st3" x1="470.4" y1="435.6" x2="450.4" y2="435.6"/>
				</g>
			</g>
			<g>
				<g>
					<g>
						<line class="st3" x1="470.4" y1="278.3" x2="450.4" y2="278.3"/>
					</g>
				</g>
				<line class="st3" x1="470.4" y1="278.3" x2="482.3" y2="261.2"/>
				<line class="st3" x1="470.4" y1="278.3" x2="482.5" y2="295.1"/>
				<line class="st3" x1="394.5" y1="278.3" x2="406.6" y2="261.2"/>
				<line class="st3" x1="394.5" y1="278.3" x2="406.9" y2="295.8"/>
				<path class="st3" d="M406.9,295.8"/>
				<path class="st3" d="M482.8,295.8"/>
				<path class="st3" d="M406.9,295.8"/>
				<path class="st3" d="M482.8,295.8"/>
				<path class="st3" d="M566.9,261.2"/>
				<path class="st3" d="M406.6,261.2"/>
				<path class="st3" d="M566.9,295.8"/>
				<path class="st3" d="M406.9,295.8"/>
				<line class="st3" x1="579" y1="278.3" x2="566.9" y2="261.2"/>
				<line class="st3" x1="566.9" y1="295.8" x2="579" y2="278.3"/>
				<line class="st3" x1="448.4" y1="199.6" x2="436" y2="218.2"/>
				<line class="st3" x1="473.1" y1="199.6" x2="448.4" y2="199.6"/>
				<line class="st3" x1="524.3" y1="199.6" x2="501.1" y2="199.6"/>
				<line class="st3" x1="511.5" y1="219.2" x2="524.3" y2="199.6"/>
				<line class="st3" x1="538" y1="218.4" x2="524.3" y2="199.6"/>
				<line class="st3" x1="524.3" y1="356.9" x2="496.6" y2="356.9"/>
				<line class="st3" x1="510.7" y1="336.7" x2="524.3" y2="356.9"/>
				<line class="st3" x1="539.7" y1="335.9" x2="524.3" y2="356.9"/>
				<line class="st3" x1="448.4" y1="356.9" x2="436.3" y2="338.4"/>
				<line class="st3" x1="470.9" y1="356.9" x2="448.4" y2="356.9"/>
				<line class="st3" x1="339.8" y1="199.4" x2="351.9" y2="182.6"/>
				<line class="st3" x1="339.8" y1="199.4" x2="352.2" y2="216.4"/>
				<line class="st3" x1="263.9" y1="199.4" x2="276" y2="182.6"/>
				<line class="st3" x1="263.9" y1="199.4" x2="276.5" y2="217.2"/>
				<path class="st3" d="M276.5,217.2"/>
				<path class="st3" d="M352.2,217.2"/>
				<path class="st3" d="M276.5,217.2"/>
				<path class="st3" d="M352.2,217.2"/>
				<path class="st3" d="M436.3,182.6"/>
				<path class="st3" d="M276,182.6"/>
				<path class="st3" d="M436.3,217.2"/>
				<path class="st3" d="M276.5,217.2"/>
				<line class="st3" x1="448.4" y1="199.4" x2="436.3" y2="182.6"/>
				<line class="st3" x1="436.3" y1="217.2" x2="448.4" y2="199.4"/>
				<line class="st3" x1="318.1" y1="120.7" x2="305.7" y2="139.5"/>
				<line class="st3" x1="342.8" y1="120.7" x2="318.1" y2="120.7"/>
				<line class="st3" x1="393.7" y1="120.7" x2="370.5" y2="120.7"/>
				<line class="st3" x1="380.9" y1="140.3" x2="393.7" y2="120.7"/>
				<line class="st3" x1="407.6" y1="139.8" x2="393.7" y2="120.7"/>
				<line class="st3" x1="393.7" y1="278.3" x2="366.3" y2="278.3"/>
				<line class="st3" x1="380.4" y1="258" x2="393.7" y2="278.3"/>
				<line class="st3" x1="409.1" y1="257.3" x2="393.7" y2="278.3"/>
				<line class="st3" x1="318.1" y1="278.3" x2="305.9" y2="259.5"/>
				<line class="st3" x1="340.3" y1="278.3" x2="318.1" y2="278.3"/>
				<line class="st3" x1="339.8" y1="356.7" x2="351.9" y2="339.9"/>
				<line class="st3" x1="339.8" y1="356.7" x2="352.2" y2="373.8"/>
				<line class="st3" x1="263.9" y1="356.7" x2="276" y2="339.9"/>
				<line class="st3" x1="263.9" y1="356.7" x2="276.5" y2="374.5"/>
				<path class="st3" d="M276.5,374.5"/>
				<path class="st3" d="M352.2,374.5"/>
				<path class="st3" d="M276.5,374.5"/>
				<path class="st3" d="M352.2,374.5"/>
				<path class="st3" d="M436.3,339.9"/>
				<path class="st3" d="M276,339.9"/>
				<path class="st3" d="M436.3,374.5"/>
				<path class="st3" d="M276.5,374.5"/>
				<line class="st3" x1="448.4" y1="356.7" x2="436.3" y2="339.9"/>
				<line class="st3" x1="436.3" y1="374.5" x2="448.4" y2="356.7"/>
				<line class="st3" x1="318.1" y1="278.3" x2="305.7" y2="296.8"/>
				<line class="st3" x1="342.8" y1="278.3" x2="318.1" y2="278.3"/>
				<line class="st3" x1="393.7" y1="278.3" x2="370.5" y2="278.3"/>
				<line class="st3" x1="380.9" y1="297.6" x2="393.7" y2="278.3"/>
				<line class="st3" x1="407.6" y1="297.1" x2="393.7" y2="278.3"/>
				<line class="st3" x1="393.7" y1="435.6" x2="366.3" y2="435.6"/>
				<line class="st3" x1="380.4" y1="415.3" x2="393.7" y2="435.6"/>
				<line class="st3" x1="409.1" y1="414.6" x2="393.7" y2="435.6"/>
				<line class="st3" x1="318.1" y1="435.6" x2="305.9" y2="416.8"/>
				<line class="st3" x1="340.3" y1="435.6" x2="318.1" y2="435.6"/>
				<line class="st3" x1="600.8" y1="199.4" x2="612.9" y2="182.6"/>
				<line class="st3" x1="600.8" y1="199.4" x2="613.1" y2="216.4"/>
				<line class="st3" x1="525.1" y1="199.4" x2="537.2" y2="182.6"/>
				<line class="st3" x1="525.1" y1="199.4" x2="537.5" y2="217.2"/>
				<path class="st3" d="M537.5,217.2"/>
				<path class="st3" d="M613.4,217.2"/>
				<path class="st3" d="M537.5,217.2"/>
				<path class="st3" d="M613.4,217.2"/>
				<path class="st3" d="M697.2,182.6"/>
				<path class="st3" d="M537.2,182.6"/>
				<path class="st3" d="M697.2,217.2"/>
				<path class="st3" d="M537.5,217.2"/>
				<line class="st3" x1="709.6" y1="199.4" x2="697.2" y2="182.6"/>
				<line class="st3" x1="697.2" y1="217.2" x2="709.6" y2="199.4"/>
				<line class="st3" x1="579" y1="120.7" x2="566.6" y2="139.5"/>
				<line class="st3" x1="603.7" y1="120.7" x2="579" y2="120.7"/>
				<line class="st3" x1="654.9" y1="120.7" x2="631.4" y2="120.7"/>
				<line class="st3" x1="641.8" y1="140.3" x2="654.9" y2="120.7"/>
				<line class="st3" x1="668.6" y1="139.8" x2="654.9" y2="120.7"/>
				<line class="st3" x1="654.9" y1="278.3" x2="627.2" y2="278.3"/>
				<line class="st3" x1="641.3" y1="258" x2="654.9" y2="278.3"/>
				<line class="st3" x1="670" y1="257.3" x2="654.9" y2="278.3"/>
				<line class="st3" x1="579" y1="278.3" x2="566.9" y2="259.5"/>
				<line class="st3" x1="601.5" y1="278.3" x2="579" y2="278.3"/>
				<line class="st3" x1="600.8" y1="356.7" x2="612.9" y2="339.9"/>
				<line class="st3" x1="600.8" y1="356.7" x2="613.1" y2="373.8"/>
				<line class="st3" x1="525.1" y1="356.7" x2="537.2" y2="339.9"/>
				<line class="st3" x1="525.1" y1="356.7" x2="537.5" y2="374.5"/>
				<path class="st3" d="M537.5,374.5"/>
				<path class="st3" d="M613.4,374.5"/>
				<path class="st3" d="M537.5,374.5"/>
				<path class="st3" d="M613.4,374.5"/>
				<path class="st3" d="M697.2,339.9"/>
				<path class="st3" d="M537.2,339.9"/>
				<path class="st3" d="M697.2,374.5"/>
				<path class="st3" d="M537.5,374.5"/>
				<line class="st3" x1="709.6" y1="356.7" x2="697.2" y2="339.9"/>
				<line class="st3" x1="697.2" y1="374.5" x2="709.6" y2="356.7"/>
				<line class="st3" x1="579" y1="278.3" x2="566.6" y2="296.8"/>
				<line class="st3" x1="603.7" y1="278.3" x2="579" y2="278.3"/>
				<line class="st3" x1="654.9" y1="278.3" x2="631.4" y2="278.3"/>
				<line class="st3" x1="641.8" y1="297.6" x2="654.9" y2="278.3"/>
				<line class="st3" x1="668.6" y1="297.1" x2="654.9" y2="278.3"/>
				<line class="st3" x1="654.9" y1="435.6" x2="627.2" y2="435.6"/>
				<line class="st3" x1="641.3" y1="415.3" x2="654.9" y2="435.6"/>
				<line class="st3" x1="670" y1="414.6" x2="654.9" y2="435.6"/>
				<line class="st3" x1="579" y1="435.6" x2="566.9" y2="416.8"/>
				<line class="st3" x1="601.5" y1="435.6" x2="579" y2="435.6"/>
				<line class="st3" x1="470.4" y1="120.7" x2="482.3" y2="103.9"/>
				<line class="st3" x1="470.4" y1="120.7" x2="482.5" y2="137.8"/>
				<line class="st3" x1="394.5" y1="120.7" x2="406.6" y2="103.9"/>
				<line class="st3" x1="394.5" y1="120.7" x2="406.9" y2="138.5"/>
				<path class="st3" d="M406.9,138.5"/>
				<path class="st3" d="M482.8,138.5"/>
				<path class="st3" d="M406.9,138.5"/>
				<path class="st3" d="M482.8,138.5"/>
				<path class="st3" d="M566.9,103.9"/>
				<path class="st3" d="M406.6,103.9"/>
				<path class="st3" d="M566.9,138.5"/>
				<path class="st3" d="M406.9,138.5"/>
				<line class="st3" x1="579" y1="120.7" x2="566.9" y2="103.9"/>
				<line class="st3" x1="566.9" y1="138.5" x2="579" y2="120.7"/>
				<line class="st3" x1="448.4" y1="42.1" x2="436" y2="60.6"/>
				<line class="st3" x1="473.1" y1="42.1" x2="448.4" y2="42.1"/>
				<line class="st3" x1="524.3" y1="42.1" x2="501.1" y2="42.1"/>
				<line class="st3" x1="511.5" y1="61.6" x2="524.3" y2="42.1"/>
				<line class="st3" x1="538" y1="61.1" x2="524.3" y2="42.1"/>
				<line class="st3" x1="524.3" y1="199.6" x2="496.6" y2="199.6"/>
				<line class="st3" x1="510.7" y1="179.1" x2="524.3" y2="199.6"/>
				<line class="st3" x1="539.7" y1="178.4" x2="524.3" y2="199.6"/>
				<line class="st3" x1="448.4" y1="199.6" x2="436.3" y2="180.8"/>
				<line class="st3" x1="470.9" y1="199.6" x2="448.4" y2="199.6"/>
				<line class="st3" x1="470.4" y1="435.6" x2="482.3" y2="418.8"/>
				<line class="st3" x1="470.4" y1="435.6" x2="482.5" y2="452.7"/>
				<line class="st3" x1="394.5" y1="435.6" x2="406.6" y2="418.8"/>
				<line class="st3" x1="394.5" y1="435.6" x2="406.9" y2="453.4"/>
				<path class="st3" d="M406.9,453.4"/>
				<path class="st3" d="M482.8,453.4"/>
				<path class="st3" d="M406.9,453.4"/>
				<path class="st3" d="M482.8,453.4"/>
				<path class="st3" d="M566.9,418.8"/>
				<path class="st3" d="M406.6,418.8"/>
				<path class="st3" d="M566.9,453.4"/>
				<path class="st3" d="M406.9,453.4"/>
				<line class="st3" x1="579" y1="435.6" x2="566.9" y2="418.8"/>
				<line class="st3" x1="566.9" y1="453.4" x2="579" y2="435.6"/>
				<line class="st3" x1="448.4" y1="356.9" x2="436" y2="375.5"/>
				<line class="st3" x1="473.1" y1="356.9" x2="448.4" y2="356.9"/>
				<line class="st3" x1="524.3" y1="356.9" x2="501.1" y2="356.9"/>
				<line class="st3" x1="511.5" y1="376.5" x2="524.3" y2="356.9"/>
				<line class="st3" x1="538" y1="376" x2="524.3" y2="356.9"/>
				<line class="st3" x1="524.3" y1="514.5" x2="496.6" y2="514.5"/>
				<line class="st3" x1="510.7" y1="494" x2="524.3" y2="514.5"/>
				<line class="st3" x1="539.7" y1="493.5" x2="524.3" y2="514.5"/>
				<line class="st3" x1="448.4" y1="514.5" x2="436.3" y2="495.7"/>
				<line class="st3" x1="470.9" y1="514.5" x2="448.4" y2="514.5"/>
			</g>
		</g>
	</g>
</g>
<rect x="-5.9" y="567" class="st0" width="969.9" height="118"/>
<text transform="matrix(1 0 0 1 12.3226 634.8599)" class="st4 st5 st6">BioThings</text>
<text transform="matrix(1 0 0 1 558.4225 634.8599)" class="st4 st5 st6"> Studio</text>
</svg>
