<?xml version="1.0" encoding="utf-8"?>
<!-- Generator: Adobe Illustrator 22.1.0, SVG Export Plug-In . SVG Version: 6.00 Build 0)  -->
<svg version="1.1" id="Layer_1" xmlns="http://www.w3.org/2000/svg" xmlns:xlink="http://www.w3.org/1999/xlink" x="0px" y="0px"
	 viewBox="0 0 964 745" style="enable-background:new 0 0 964 745;" xml:space="preserve">
<style type="text/css">
	.st0{fill:#5ECAEF;}
	.st1{fill:#9EDAEF;}
	.st2{fill:#208CBC;}
	.st3{fill:none;stroke:#9EDAEF;stroke-miterlimit:10;}
	.st4{fill:none;stroke:#2EB5E5;stroke-width:4;stroke-linecap:round;stroke-linejoin:round;stroke-miterlimit:10;}
	.st5{enable-background:new    ;}
	.st6{fill:#3D3D3D;}
</style>
<g>
	<g>
		<g>
			<g>
				<g>
					<g>
						<polygon class="st0" points="524.3,199.6 470.4,278.3 394.5,278.3 448.4,199.6 						"/>
					</g>
					<g>
						<polygon class="st1" points="524.3,199.6 579,278.3 524.3,356.9 470.4,278.3 						"/>
					</g>
					<g>
						<polygon class="st2" points="470.4,278.3 524.3,356.9 448.4,356.9 394.5,278.3 						"/>
					</g>
				</g>
				<g>
					<g>
						<g>
							<polygon class="st3" points="393.7,120.7 339.8,199.4 263.9,199.4 318.1,120.7 							"/>
						</g>
						<g>
							<polygon class="st3" points="393.7,120.7 448.4,199.4 393.7,278.3 339.8,199.4 							"/>
						</g>
						<g>
							<polygon class="st3" points="339.8,199.4 393.7,278.3 318.1,278.3 263.9,199.4 							"/>
						</g>
					</g>
					<g>
						<g>
							<polygon class="st3" points="393.7,278.3 339.8,356.7 263.9,356.7 318.1,278.3 							"/>
						</g>
						<g>
							<polygon class="st3" points="393.7,278.3 448.4,356.7 393.7,435.6 339.8,356.7 							"/>
						</g>
						<g>
							<polygon class="st3" points="339.8,356.7 393.7,435.6 318.1,435.6 263.9,356.7 							"/>
						</g>
					</g>
					<g>
						<g>
							<polygon class="st3" points="654.9,120.7 600.8,199.4 525.1,199.4 579,120.7 							"/>
						</g>
						<g>
							<polygon class="st3" points="654.9,120.7 709.6,199.4 654.9,278.3 600.8,199.4 							"/>
						</g>
						<g>
							<polygon class="st3" points="600.8,199.4 654.9,278.3 579,278.3 525.1,199.4 							"/>
						</g>
					</g>
					<g>
						<g>
							<polygon class="st3" points="654.9,278.3 600.8,356.7 525.1,356.7 579,278.3 							"/>
						</g>
						<g>
							<polygon class="st3" points="654.9,278.3 709.6,356.7 654.9,435.6 600.8,356.7 							"/>
						</g>
						<g>
							<polygon class="st3" points="600.8,356.7 654.9,435.6 579,435.6 525.1,356.7 							"/>
						</g>
					</g>
					<g>
						<g>
							<polygon class="st3" points="524.3,42.1 470.4,120.7 394.5,120.7 448.4,42.1 							"/>
						</g>
						<g>
							<polygon class="st3" points="524.3,42.1 579,120.7 524.3,199.6 470.4,120.7 							"/>
						</g>
						<g>
							<polygon class="st3" points="470.4,120.7 524.3,199.6 448.4,199.6 394.5,120.7 							"/>
						</g>
					</g>
					<g>
						<g>
							<polygon class="st3" points="524.3,356.9 470.4,435.6 394.5,435.6 448.4,356.9 							"/>
						</g>
						<g>
							<polygon class="st3" points="524.3,356.9 579,435.6 524.3,514.5 470.4,435.6 							"/>
						</g>
						<g>
							<polygon class="st3" points="470.4,435.6 524.3,514.5 448.4,514.5 394.5,435.6 							"/>
						</g>
					</g>
				</g>
				<g>
					<g>
						<g>
							<line class="st4" x1="339.8" y1="199.4" x2="320" y2="199.4"/>
						</g>
					</g>
					<g>
						<g>
							<line class="st4" x1="339.8" y1="356.7" x2="320" y2="356.7"/>
						</g>
					</g>
					<g>
						<g>
							<line class="st4" x1="600.8" y1="199.4" x2="581" y2="199.4"/>
						</g>
					</g>
					<g>
						<g>
							<line class="st4" x1="600.8" y1="356.7" x2="581" y2="356.7"/>
						</g>
					</g>
					<g>
						<g>
							<line class="st4" x1="470.4" y1="120.7" x2="450.4" y2="120.7"/>
						</g>
					</g>
					<g>
						<g>
							<line class="st4" x1="470.4" y1="435.6" x2="450.4" y2="435.6"/>
						</g>
					</g>
					<g>
						<g>
							<g>
								<line class="st4" x1="470.4" y1="278.3" x2="450.4" y2="278.3"/>
							</g>
						</g>
						<line class="st4" x1="470.4" y1="278.3" x2="482.3" y2="261.2"/>
						<line class="st4" x1="470.4" y1="278.3" x2="482.5" y2="295.1"/>
						<line class="st4" x1="394.5" y1="278.3" x2="406.6" y2="261.2"/>
						<line class="st4" x1="394.5" y1="278.3" x2="406.9" y2="295.8"/>
						<path class="st4" d="M406.9,295.8"/>
						<path class="st4" d="M482.8,295.8"/>
						<path class="st4" d="M406.9,295.8"/>
						<path class="st4" d="M482.8,295.8"/>
						<path class="st4" d="M566.9,261.2"/>
						<path class="st4" d="M406.6,261.2"/>
						<path class="st4" d="M566.9,295.8"/>
						<path class="st4" d="M406.9,295.8"/>
						<line class="st4" x1="579" y1="278.3" x2="566.9" y2="261.2"/>
						<line class="st4" x1="566.9" y1="295.8" x2="579" y2="278.3"/>
						<line class="st4" x1="448.4" y1="199.6" x2="436" y2="218.2"/>
						<line class="st4" x1="473.1" y1="199.6" x2="448.4" y2="199.6"/>
						<line class="st4" x1="524.3" y1="199.6" x2="501.1" y2="199.6"/>
						<line class="st4" x1="511.5" y1="219.2" x2="524.3" y2="199.6"/>
						<line class="st4" x1="538" y1="218.4" x2="524.3" y2="199.6"/>
						<line class="st4" x1="524.3" y1="356.9" x2="496.6" y2="356.9"/>
						<line class="st4" x1="510.7" y1="336.7" x2="524.3" y2="356.9"/>
						<line class="st4" x1="539.7" y1="335.9" x2="524.3" y2="356.9"/>
						<line class="st4" x1="448.4" y1="356.9" x2="436.3" y2="338.4"/>
						<line class="st4" x1="470.9" y1="356.9" x2="448.4" y2="356.9"/>
						<line class="st4" x1="339.8" y1="199.4" x2="351.9" y2="182.6"/>
						<line class="st4" x1="339.8" y1="199.4" x2="352.2" y2="216.4"/>
						<line class="st4" x1="263.9" y1="199.4" x2="276" y2="182.6"/>
						<line class="st4" x1="263.9" y1="199.4" x2="276.5" y2="217.2"/>
						<path class="st4" d="M276.5,217.2"/>
						<path class="st4" d="M352.2,217.2"/>
						<path class="st4" d="M276.5,217.2"/>
						<path class="st4" d="M352.2,217.2"/>
						<path class="st4" d="M436.3,182.6"/>
						<path class="st4" d="M276,182.6"/>
						<path class="st4" d="M436.3,217.2"/>
						<path class="st4" d="M276.5,217.2"/>
						<line class="st4" x1="448.4" y1="199.4" x2="436.3" y2="182.6"/>
						<line class="st4" x1="436.3" y1="217.2" x2="448.4" y2="199.4"/>
						<line class="st4" x1="318.1" y1="120.7" x2="305.7" y2="139.5"/>
						<line class="st4" x1="342.8" y1="120.7" x2="318.1" y2="120.7"/>
						<line class="st4" x1="393.7" y1="120.7" x2="370.5" y2="120.7"/>
						<line class="st4" x1="380.9" y1="140.3" x2="393.7" y2="120.7"/>
						<line class="st4" x1="407.6" y1="139.8" x2="393.7" y2="120.7"/>
						<line class="st4" x1="393.7" y1="278.3" x2="366.3" y2="278.3"/>
						<line class="st4" x1="380.4" y1="258" x2="393.7" y2="278.3"/>
						<line class="st4" x1="409.1" y1="257.3" x2="393.7" y2="278.3"/>
						<line class="st4" x1="318.1" y1="278.3" x2="305.9" y2="259.5"/>
						<line class="st4" x1="340.3" y1="278.3" x2="318.1" y2="278.3"/>
						<line class="st4" x1="339.8" y1="356.7" x2="351.9" y2="339.9"/>
						<line class="st4" x1="339.8" y1="356.7" x2="352.2" y2="373.8"/>
						<line class="st4" x1="263.9" y1="356.7" x2="276" y2="339.9"/>
						<line class="st4" x1="263.9" y1="356.7" x2="276.5" y2="374.5"/>
						<path class="st4" d="M276.5,374.5"/>
						<path class="st4" d="M352.2,374.5"/>
						<path class="st4" d="M276.5,374.5"/>
						<path class="st4" d="M352.2,374.5"/>
						<path class="st4" d="M436.3,339.9"/>
						<path class="st4" d="M276,339.9"/>
						<path class="st4" d="M436.3,374.5"/>
						<path class="st4" d="M276.5,374.5"/>
						<line class="st4" x1="448.4" y1="356.7" x2="436.3" y2="339.9"/>
						<line class="st4" x1="436.3" y1="374.5" x2="448.4" y2="356.7"/>
						<line class="st4" x1="318.1" y1="278.3" x2="305.7" y2="296.8"/>
						<line class="st4" x1="342.8" y1="278.3" x2="318.1" y2="278.3"/>
						<line class="st4" x1="393.7" y1="278.3" x2="370.5" y2="278.3"/>
						<line class="st4" x1="380.9" y1="297.6" x2="393.7" y2="278.3"/>
						<line class="st4" x1="407.6" y1="297.1" x2="393.7" y2="278.3"/>
						<line class="st4" x1="393.7" y1="435.6" x2="366.3" y2="435.6"/>
						<line class="st4" x1="380.4" y1="415.3" x2="393.7" y2="435.6"/>
						<line class="st4" x1="409.1" y1="414.6" x2="393.7" y2="435.6"/>
						<line class="st4" x1="318.1" y1="435.6" x2="305.9" y2="416.8"/>
						<line class="st4" x1="340.3" y1="435.6" x2="318.1" y2="435.6"/>
						<line class="st4" x1="600.8" y1="199.4" x2="612.9" y2="182.6"/>
						<line class="st4" x1="600.8" y1="199.4" x2="613.1" y2="216.4"/>
						<line class="st4" x1="525.1" y1="199.4" x2="537.2" y2="182.6"/>
						<line class="st4" x1="525.1" y1="199.4" x2="537.5" y2="217.2"/>
						<path class="st4" d="M537.5,217.2"/>
						<path class="st4" d="M613.4,217.2"/>
						<path class="st4" d="M537.5,217.2"/>
						<path class="st4" d="M613.4,217.2"/>
						<path class="st4" d="M697.2,182.6"/>
						<path class="st4" d="M537.2,182.6"/>
						<path class="st4" d="M697.2,217.2"/>
						<path class="st4" d="M537.5,217.2"/>
						<line class="st4" x1="709.6" y1="199.4" x2="697.2" y2="182.6"/>
						<line class="st4" x1="697.2" y1="217.2" x2="709.6" y2="199.4"/>
						<line class="st4" x1="579" y1="120.7" x2="566.6" y2="139.5"/>
						<line class="st4" x1="603.7" y1="120.7" x2="579" y2="120.7"/>
						<line class="st4" x1="654.9" y1="120.7" x2="631.4" y2="120.7"/>
						<line class="st4" x1="641.8" y1="140.3" x2="654.9" y2="120.7"/>
						<line class="st4" x1="668.6" y1="139.8" x2="654.9" y2="120.7"/>
						<line class="st4" x1="654.9" y1="278.3" x2="627.2" y2="278.3"/>
						<line class="st4" x1="641.3" y1="258" x2="654.9" y2="278.3"/>
						<line class="st4" x1="670" y1="257.3" x2="654.9" y2="278.3"/>
						<line class="st4" x1="579" y1="278.3" x2="566.9" y2="259.5"/>
						<line class="st4" x1="601.5" y1="278.3" x2="579" y2="278.3"/>
						<line class="st4" x1="600.8" y1="356.7" x2="612.9" y2="339.9"/>
						<line class="st4" x1="600.8" y1="356.7" x2="613.1" y2="373.8"/>
						<line class="st4" x1="525.1" y1="356.7" x2="537.2" y2="339.9"/>
						<line class="st4" x1="525.1" y1="356.7" x2="537.5" y2="374.5"/>
						<path class="st4" d="M537.5,374.5"/>
						<path class="st4" d="M613.4,374.5"/>
						<path class="st4" d="M537.5,374.5"/>
						<path class="st4" d="M613.4,374.5"/>
						<path class="st4" d="M697.2,339.9"/>
						<path class="st4" d="M537.2,339.9"/>
						<path class="st4" d="M697.2,374.5"/>
						<path class="st4" d="M537.5,374.5"/>
						<line class="st4" x1="709.6" y1="356.7" x2="697.2" y2="339.9"/>
						<line class="st4" x1="697.2" y1="374.5" x2="709.6" y2="356.7"/>
						<line class="st4" x1="579" y1="278.3" x2="566.6" y2="296.8"/>
						<line class="st4" x1="603.7" y1="278.3" x2="579" y2="278.3"/>
						<line class="st4" x1="654.9" y1="278.3" x2="631.4" y2="278.3"/>
						<line class="st4" x1="641.8" y1="297.6" x2="654.9" y2="278.3"/>
						<line class="st4" x1="668.6" y1="297.1" x2="654.9" y2="278.3"/>
						<line class="st4" x1="654.9" y1="435.6" x2="627.2" y2="435.6"/>
						<line class="st4" x1="641.3" y1="415.3" x2="654.9" y2="435.6"/>
						<line class="st4" x1="670" y1="414.6" x2="654.9" y2="435.6"/>
						<line class="st4" x1="579" y1="435.6" x2="566.9" y2="416.8"/>
						<line class="st4" x1="601.5" y1="435.6" x2="579" y2="435.6"/>
						<line class="st4" x1="470.4" y1="120.7" x2="482.3" y2="103.9"/>
						<line class="st4" x1="470.4" y1="120.7" x2="482.5" y2="137.8"/>
						<line class="st4" x1="394.5" y1="120.7" x2="406.6" y2="103.9"/>
						<line class="st4" x1="394.5" y1="120.7" x2="406.9" y2="138.5"/>
						<path class="st4" d="M406.9,138.5"/>
						<path class="st4" d="M482.8,138.5"/>
						<path class="st4" d="M406.9,138.5"/>
						<path class="st4" d="M482.8,138.5"/>
						<path class="st4" d="M566.9,103.9"/>
						<path class="st4" d="M406.6,103.9"/>
						<path class="st4" d="M566.9,138.5"/>
						<path class="st4" d="M406.9,138.5"/>
						<line class="st4" x1="579" y1="120.7" x2="566.9" y2="103.9"/>
						<line class="st4" x1="566.9" y1="138.5" x2="579" y2="120.7"/>
						<line class="st4" x1="448.4" y1="42.1" x2="436" y2="60.6"/>
						<line class="st4" x1="473.1" y1="42.1" x2="448.4" y2="42.1"/>
						<line class="st4" x1="524.3" y1="42.1" x2="501.1" y2="42.1"/>
						<line class="st4" x1="511.5" y1="61.6" x2="524.3" y2="42.1"/>
						<line class="st4" x1="538" y1="61.1" x2="524.3" y2="42.1"/>
						<line class="st4" x1="524.3" y1="199.6" x2="496.6" y2="199.6"/>
						<line class="st4" x1="510.7" y1="179.1" x2="524.3" y2="199.6"/>
						<line class="st4" x1="539.7" y1="178.4" x2="524.3" y2="199.6"/>
						<line class="st4" x1="448.4" y1="199.6" x2="436.3" y2="180.8"/>
						<line class="st4" x1="470.9" y1="199.6" x2="448.4" y2="199.6"/>
						<line class="st4" x1="470.4" y1="435.6" x2="482.3" y2="418.8"/>
						<line class="st4" x1="470.4" y1="435.6" x2="482.5" y2="452.7"/>
						<line class="st4" x1="394.5" y1="435.6" x2="406.6" y2="418.8"/>
						<line class="st4" x1="394.5" y1="435.6" x2="406.9" y2="453.4"/>
						<path class="st4" d="M406.9,453.4"/>
						<path class="st4" d="M482.8,453.4"/>
						<path class="st4" d="M406.9,453.4"/>
						<path class="st4" d="M482.8,453.4"/>
						<path class="st4" d="M566.9,418.8"/>
						<path class="st4" d="M406.6,418.8"/>
						<path class="st4" d="M566.9,453.4"/>
						<path class="st4" d="M406.9,453.4"/>
						<line class="st4" x1="579" y1="435.6" x2="566.9" y2="418.8"/>
						<line class="st4" x1="566.9" y1="453.4" x2="579" y2="435.6"/>
						<line class="st4" x1="448.4" y1="356.9" x2="436" y2="375.5"/>
						<line class="st4" x1="473.1" y1="356.9" x2="448.4" y2="356.9"/>
						<line class="st4" x1="524.3" y1="356.9" x2="501.1" y2="356.9"/>
						<line class="st4" x1="511.5" y1="376.5" x2="524.3" y2="356.9"/>
						<line class="st4" x1="538" y1="376" x2="524.3" y2="356.9"/>
						<line class="st4" x1="524.3" y1="514.5" x2="496.6" y2="514.5"/>
						<line class="st4" x1="510.7" y1="494" x2="524.3" y2="514.5"/>
						<line class="st4" x1="539.7" y1="493.5" x2="524.3" y2="514.5"/>
						<line class="st4" x1="448.4" y1="514.5" x2="436.3" y2="495.7"/>
						<line class="st4" x1="470.9" y1="514.5" x2="448.4" y2="514.5"/>
					</g>
				</g>
			</g>
		</g>
	</g>
	<g class="st5">
		<g>
			<g>
				<path class="st6" d="M71.9,640.1H36.4l-0.1-0.2h-25v-65.7c0-4.5,3.1-7.6,7.5-7.6h52c7.3,0,12.9,1.9,16.4,5.5
					c3.5,3.5,5.3,8.5,5.3,14.7v5.6c0,3.6-0.8,6.5-2.4,8.9c-0.1,0.2-0.2,0.4-0.3,0.5c0.5,0.5,0.9,1.1,1.3,1.8
					c1.8,2.6,2.6,5.8,2.6,9.5v5.6c0,6.5-1.7,11.8-5.1,15.5C85.2,638.1,79.5,640.1,71.9,640.1z M43.2,630.1h28.7
					c4.5,0,7.8-0.9,9.3-2.5c1.7-1.9,2.5-4.9,2.5-8.9v-5.6c0-1.7-0.3-3-1-3.9c-0.7-1.1-1.6-1.9-2.6-2.4L72,603l7.6-4.9
					c0.8-0.5,1.5-1.2,2.1-2.1l0.1-0.2c0.2-0.3,0.7-1,0.7-3.4v-5.6c0-3.5-0.8-6-2.4-7.7c-1.6-1.7-4.8-2.5-9.3-2.5H21.3v53.3h7.9
					v-21.8h5v-4.9h31.1c1.2,0,4.7,0,7.2,2.7c2.1,2.2,2.3,5.2,2.3,7.3v1.8c0,3-0.8,5.4-2.3,7.2l-0.2,0.2c-1.7,1.7-4,2.6-6.9,2.6h-24
					L43.2,630.1z M39.2,615h25.6v-1.8H39.2V615z M64.7,612L64.7,612L64.7,612z M64.3,602.8H29.2v-15.7c0-3.8,2.7-6.5,6.5-6.5h0
					l28.6,0.1c3.3,0,5.8,0.9,7.6,2.6c1.8,1.7,2.8,4.3,2.8,7.6v1.9c0,3.2-0.9,5.7-2.7,7.4l-0.2,0.2C70,602,67.5,602.8,64.3,602.8z
					 M39.2,592.8h25.1c0.1,0,0.3,0,0.4,0v-1.9c0-0.1,0-0.1,0-0.2c-0.1,0-0.2,0-0.4,0l-25.1-0.1V592.8z"/>
			</g>
			<g>
				<path class="st6" d="M116,639.9H90.2V562H116V639.9z M100.2,629.9h5.8v-37.8h-5.8V629.9z M100.2,574.6h5.8V572h-5.8V574.6z"/>
			</g>
			<g>
				<path class="st6" d="M160.8,639.8h-23c-4.2,0-7.7-0.5-10.7-1.6c-3.2-1.1-5.9-2.9-8-5.1c-2.2-2.3-3.6-4.9-4.6-8
					c-0.8-2.6-1.2-5.7-1.2-9.2v-9.8c0-3.4,0.4-6.4,1.2-9.2c1-3.1,2.5-5.8,4.6-8c2.1-2.2,4.6-3.8,7.9-5.1c3-1.1,6.5-1.6,10.8-1.6h23
					c4.3,0,7.9,0.5,10.8,1.6c3,1.1,5.7,2.8,7.9,4.9l0.1,0.1c2.1,2.2,3.6,4.9,4.5,8c0.8,2.7,1.2,5.7,1.2,9.3v9.8
					c0,3.5-0.4,6.6-1.2,9.3c-0.9,3.1-2.5,5.8-4.5,8c-2.1,2.2-4.7,3.9-8,5.1C168.5,639.3,165,639.8,160.8,639.8z M137.8,592.2
					c-3,0-5.5,0.3-7.3,1c-1.8,0.7-3.1,1.5-4.1,2.5c-1,1.1-1.8,2.4-2.3,4c-0.5,1.8-0.8,3.9-0.8,6.3v9.8c0,2.5,0.3,4.6,0.8,6.3
					c0.5,1.7,1.2,2.9,2.3,4c1,1.1,2.4,1.9,4.1,2.5c1.8,0.7,4.3,1,7.3,1h23c3,0,5.5-0.3,7.3-1c1.8-0.7,3.2-1.5,4.2-2.5
					c1-1.1,1.8-2.4,2.3-4c0.5-1.7,0.8-3.8,0.8-6.3v-9.8c0-2.5-0.3-4.6-0.8-6.3c-0.5-1.6-1.2-2.9-2.2-4c-1.1-1.1-2.5-2-4.2-2.6
					c-1.3-0.5-3.5-1-7.3-1H137.8z M157.9,625.9h-17.1c-3.9,0-6.7-1-8.7-3l-0.2-0.2c-1.8-2-2.7-4.9-2.7-8.9v-6.7
					c0-2.9,0.3-6.6,2.7-9.3c2-2.2,4.9-3.2,8.9-3.2h17.1c3.8,0,6.7,1,8.7,3.1c2,2,3,5.1,3,9.4v6.7c0,2.6-0.3,6.5-3,9.1
					C164.6,624.9,161.8,625.9,157.9,625.9z M159.3,616.2L159.3,616.2L159.3,616.2z M139.4,615.8c0.3,0.1,0.8,0.1,1.4,0.1h17.1
					c0.8,0,1.3-0.1,1.5-0.1c0.1-0.3,0.2-1,0.2-2v-6.7c0-1.2-0.1-2-0.2-2.4c-0.3-0.1-0.7-0.1-1.5-0.1h-17.1c-0.7,0-1.1,0.1-1.4,0.1
					c-0.1,0.4-0.2,1.1-0.2,2.4v6.7C139.2,614.8,139.3,615.4,139.4,615.8z M159.7,604.9L159.7,604.9L159.7,604.9z M159.3,604.4
					L159.3,604.4L159.3,604.4z M139.5,604.3L139.5,604.3L139.5,604.3z"/>
			</g>
			<g>
				<path class="st6" d="M231.8,639.9h-27.9v-47.5h-24.7l-7.4-19.2v-6.6h89c4.4,0,7.5,3.1,7.5,7.6v19.9l-20.7,7.7H241v-9.4h-9.2
					V639.9z M213.9,629.9h7.9v-47.5H245c3.4,0,6,2.6,6,6v1.5l7.3-2.7v-10.5h-74.5l2.2,5.8h27.9V629.9z"/>
			</g>
			<g>
				<path class="st6" d="M332.2,639.8h-25.7V607c0-1.4-0.2-2.1-0.3-2.3c-0.1-0.1-0.6-0.2-1.4-0.2h-15.3v35.2H264V562h25.7v20.1h18.2
					c4.3,0,7.9,0.5,10.8,1.6c3.1,1.1,5.8,2.8,7.9,5.1l0.1,0.1c2.2,2.5,3.6,5.1,4.4,8c0.8,2.7,1.2,5.7,1.2,9.1V639.8z M316.5,629.8
					h5.7V606c0-2.5-0.3-4.6-0.8-6.3l-0.1-0.2c-0.3-1.3-1-2.5-2.1-3.8c-1-1-2.3-1.9-4-2.5c-1.3-0.5-3.5-1-7.3-1h-17.6l0.9,2.4h13.6
					c4.4,0,7.1,1.7,8.5,3.2c2.1,2.1,3.2,5.2,3.2,9.3V629.8z M274,629.7h5.5v-42.2h0.2V572H274V629.7z M306.2,604.6L306.2,604.6
					L306.2,604.6z"/>
			</g>
			<g>
				<path class="st6" d="M355.9,639.9h-25.7V562h25.7V639.9z M340.2,629.9h5.7v-37.8h-5.7V629.9z M340.2,574.6h5.7V572h-5.7V574.6z"
					/>
			</g>
			<g>
				<path class="st6" d="M422.3,639.8h-25.7V607c0-1.4-0.2-2.1-0.2-2.3c-0.2-0.1-0.7-0.2-1.5-0.2h-15.1v35.2H354v-57.6h44
					c4.3,0,7.9,0.5,10.8,1.6c3.1,1.1,5.8,2.8,7.9,5.1l0.1,0.1c2.2,2.5,3.6,5.1,4.4,8c0.8,2.7,1.2,5.6,1.2,9.1V639.8z M406.6,629.8
					h5.7V606c0-2.5-0.3-4.6-0.8-6.3l-0.1-0.2c-0.3-1.3-1-2.5-2.1-3.8c-1-1-2.3-1.9-4-2.5c-1.3-0.5-3.5-1-7.3-1h-17.4l0.9,2.4h13.4
					c3.7,0,6.7,1.1,8.7,3.2c2.7,2.7,3,6.6,3,9.3V629.8z M364,629.7h5.8v-37.6H364V629.7z M396.5,604.7L396.5,604.7L396.5,604.7z"/>
			</g>
			<g>
				<path class="st6" d="M463.3,659.5h-42v-23.4h39.6c0.4,0,0.7,0,0.9-0.1c0,0,0,0,0,0h-18.1c-8.7,0-14.8-1.9-18.6-5.8
					c-3.9-3.9-5.9-9.5-5.9-16.6v-7.5c0-3.5,0.4-6.6,1.2-9.3c0.9-3.1,2.5-5.8,4.5-8c2.1-2.2,4.6-3.8,7.9-5.1c3-1.1,6.6-1.6,10.9-1.6
					h34.7c5.6,0,9.4,3.7,9.4,9.3v44.4c0,3.4-0.4,6.4-1.2,9.1c-0.9,2.9-2.3,5.5-4.3,7.8l-0.1,0.1c-2.1,2.2-4.8,3.9-8,5.1
					C471.2,659,467.6,659.5,463.3,659.5z M431.3,649.5h32c3.1,0,5.7-0.3,7.5-1c1.7-0.6,3-1.4,4-2.5c1-1.2,1.8-2.5,2.2-4
					c0.5-1.7,0.8-3.7,0.8-6.1v-43.7h-34.1c-3.1,0-5.5,0.3-7.4,1c-1.8,0.7-3.1,1.5-4.1,2.5c-1,1.1-1.8,2.4-2.3,4
					c-0.5,1.7-0.8,3.8-0.8,6.3v7.5c0,4.5,1,7.6,2.9,9.6c1.8,1.8,5.9,2.8,11.6,2.8h16.1l-1.1-2.8h-12c-2.6,0-6.3-0.3-8.8-2.9
					c-2-2-3-4.9-3-8.9V607c0-4,1-7,2.9-9.2c2-2.1,4.9-3.2,8.9-3.2h18.8c3.8,0,6.5,2.7,6.5,6.5v33.1h-0.1v0.6c0,3.5-0.8,6.2-2.6,8.1
					c-1.9,2.1-4.7,3.2-8.4,3.2h-29.6V649.5z M445,613.1c0.3,0.1,0.9,0.1,1.7,0.1H462v-8.6h-15.3c-0.8,0-1.3,0.1-1.5,0.1
					c-0.1,0.3-0.3,1-0.3,2.3v4.4C444.9,612.2,445,612.8,445,613.1z"/>
			</g>
			<g>
				<path class="st6" d="M534,639.8h-48.8v-18.3h4.9v-5h2.2c-1.6-0.8-2.9-1.9-4-3.2c-2.5-3-3.8-6.7-3.8-11.1v-3.8
					c0-4.7,1.4-8.7,4.3-11.6c2.9-3,7.3-4.6,13-4.6h43.1c4.2,0,7.2,3,7.2,7.2v14.1l-5.2,1.9c0.8,0.6,1.7,1.3,2.5,2.3
					c1.4,1.7,2.2,3.5,2.7,5.6c0.4,1.9,0.6,3.9,0.6,5.9v3.6c0,5.1-1.5,9.3-4.4,12.3C545.3,638.3,540.7,639.8,534,639.8z M495.2,629.8
					H534c5.2,0,6.7-1.2,7.1-1.5c1.1-1.1,1.6-3,1.6-5.5v-3.6c0-1.4-0.1-2.6-0.4-3.9c-0.1-0.5-0.3-0.9-0.7-1.4
					c-0.1-0.2-0.5-0.4-1.2-0.8c-0.6-0.2-1.8-0.6-3.6-0.7l-3.2-0.3c0.8,0.5,1.4,1,1.8,1.8c0.8,1.1,1.1,2.5,1.1,4.2v1
					c0,1.9-0.5,3.6-1.5,4.9c-0.9,1.2-2.6,2.6-5.9,2.6h-34V629.8z M501.8,592.2c-2.8,0-4.9,0.5-5.8,1.4c-1,1.1-1.5,2.6-1.5,4.8v3.8
					c0,2,0.5,3.5,1.4,4.7c1,1.1,3.1,1.5,4.7,1.7l3.6,0.3c-0.5-0.2-1-0.5-1.4-0.8l-0.4-0.3l-0.4-0.4c-1.9-1.9-1.9-4.3-1.9-5.1V601
					c0-2.1,0.7-4,2-5.2c0.9-0.9,2.6-2,5.3-2h24.9c2.7,0,4.9,1.8,5.4,4.3l4.4-1.6v-4.3H501.8z"/>
			</g>
		</g>
		<g>
			<g>
				<path class="st0" d="M34.2,621.9v13H16.3v-60.7c0-1.7,0.8-2.6,2.5-2.6h52c5.9,0,10.2,1.3,12.8,4c2.6,2.6,3.9,6.4,3.9,11.2v5.6
					c0,2.6-0.5,4.6-1.6,6.2c-1,1.6-2.2,2.8-3.6,3.7c1.9,0.9,3.4,2.3,4.6,4.1s1.8,4,1.8,6.7v5.6c0,5.3-1.3,9.4-3.8,12.2
					s-6.9,4.2-13,4.2H39.8l-5-13h-0.6V621.9z M35.7,585.6c-1,0-1.5,0.5-1.5,1.5v10.7h30.1c2,0,3.4-0.4,4.2-1.1
					c0.8-0.8,1.2-2.1,1.2-3.9v-1.9c0-1.9-0.4-3.3-1.2-4c-0.8-0.8-2.2-1.2-4.2-1.2L35.7,585.6L35.7,585.6z M34.2,608.1V620h31.1
					c1.6,0,2.7-0.4,3.4-1.1c0.7-0.8,1.1-2.1,1.1-3.9v-1.8c0-1.9-0.3-3.2-1-3.9c-0.7-0.8-1.8-1.1-3.5-1.1H34.2V608.1z"/>
			</g>
			<g>
				<path class="st0" d="M95.2,579.6V567H111v12.6H95.2z M95.2,634.9v-47.8H111v47.8H95.2z"/>
			</g>
			<g>
				<path class="st0" d="M180.3,615.9c0,2.9-0.3,5.5-1,7.8s-1.8,4.3-3.4,6c-1.6,1.7-3.6,2.9-6.1,3.8c-2.5,0.9-5.5,1.3-9,1.3h-23
					c-3.5,0-6.5-0.4-9-1.3c-2.5-0.9-4.5-2.2-6-3.8c-1.6-1.7-2.7-3.6-3.4-6c-0.7-2.3-1-4.9-1-7.8v-9.8c0-2.8,0.3-5.4,1-7.8
					c0.7-2.3,1.8-4.3,3.4-6s3.6-2.9,6-3.8c2.5-0.9,5.5-1.3,9-1.3h23c3.5,0,6.6,0.4,9,1.3c2.5,0.9,4.5,2.2,6.1,3.8
					c1.6,1.7,2.7,3.7,3.4,6s1,4.9,1,7.8V615.9z M157.9,620.9c2.5,0,4.2-0.5,5.2-1.5s1.5-2.8,1.5-5.6v-6.7c0-2.9-0.5-4.9-1.5-5.9
					s-2.7-1.6-5.2-1.6h-17.1c-2.5,0-4.2,0.5-5.2,1.6s-1.4,3-1.4,5.9v6.7c0,2.7,0.5,4.6,1.4,5.6c1,1,2.7,1.5,5.2,1.5H157.9z"/>
			</g>
			<g>
				<path class="st0" d="M226.8,587.4v47.5h-17.9v-47.5h-26.3l-5.8-15.1v-0.7h84c1.7,0,2.5,0.9,2.5,2.6v16.4l-16.6,6.2H246v-8.4
					c0-0.6-0.3-1-1-1H226.8z"/>
			</g>
			<g>
				<path class="st0" d="M269,567h15.7v20.1h23.2c3.5,0,6.6,0.4,9,1.3c2.5,0.9,4.5,2.2,6,3.8c1.5,1.7,2.7,3.6,3.3,6
					c0.7,2.3,1,4.9,1,7.8v28.8h-15.7V607c0-2.8-0.6-4.7-1.7-5.8s-2.8-1.7-5-1.7h-17.1l-2.6-7h-0.6v42.2H269V567z"/>
			</g>
			<g>
				<path class="st0" d="M335.2,579.6V567h15.7v12.6H335.2z M335.2,634.9v-47.8h15.7v47.8H335.2z"/>
			</g>
			<g>
				<path class="st0" d="M359,587.1h39c3.5,0,6.6,0.4,9,1.3c2.5,0.9,4.5,2.2,6,3.8c1.5,1.7,2.7,3.6,3.3,6c0.7,2.3,1,4.9,1,7.8v28.8
					h-15.7V607c0-2.8-0.5-4.7-1.6-5.8c-1-1.1-2.8-1.7-5.1-1.7H378l-2.6-7h-0.6v42.2H359V587.1z"/>
			</g>
			<g>
				<path class="st0" d="M426.4,641.1h34.5c2.3,0,3.8-0.5,4.7-1.5c0.9-1,1.3-2.6,1.3-4.8V631h-23.2c-7.1,0-12.2-1.4-15.1-4.3
					s-4.4-7.2-4.4-13.1v-7.5c0-2.9,0.3-5.5,1-7.8s1.8-4.3,3.4-6s3.6-2.9,6-3.8c2.5-0.9,5.5-1.3,9.1-1.3h34.7c2.9,0,4.4,1.5,4.4,4.3
					v44.4c0,2.8-0.3,5.3-1,7.6s-1.8,4.2-3.3,5.9c-1.5,1.6-3.5,2.9-6,3.8c-2.5,0.9-5.6,1.3-9.2,1.3h-37v-13.4L426.4,641.1
					L426.4,641.1z M466.4,629.2h0.6v-28.1c0-1-0.5-1.5-1.5-1.5h-18.8c-2.4,0-4.2,0.5-5.2,1.6s-1.6,3-1.6,5.8v4.4
					c0,2.6,0.5,4.4,1.5,5.4s2.8,1.4,5.3,1.4h15.4L466.4,629.2z"/>
			</g>
			<g>
				<path class="st0" d="M490.1,621.5h39.1c0.9,0,1.6-0.2,1.9-0.6c0.3-0.4,0.5-1,0.5-1.9v-1c0-0.6-0.1-1.1-0.3-1.4
					c-0.2-0.3-0.7-0.5-1.4-0.6l-29.7-2.5c-3.7-0.3-6.4-1.4-8.1-3.4s-2.6-4.6-2.6-7.9v-3.8c0-3.5,1-6.2,2.9-8.2s5-3,9.4-3h43.1
					c1.4,0,2.2,0.7,2.2,2.2V600l-13.6,5h-0.6v-5.5c0-0.5-0.2-0.7-0.6-0.7h-24.9c-0.9,0-1.5,0.2-1.8,0.5s-0.5,0.9-0.5,1.7v1.3
					c0,0.8,0.1,1.3,0.4,1.6c0.3,0.2,0.7,0.4,1.4,0.5l30.4,3c2,0.2,3.7,0.6,5,1.1c1.3,0.6,2.4,1.3,3.2,2.3s1.4,2.1,1.7,3.5
					s0.5,3,0.5,4.9v3.6c0,3.8-1,6.8-3,8.9s-5.6,3.1-10.7,3.1h-43.8v-13.3L490.1,621.5L490.1,621.5z"/>
			</g>
		</g>
	</g>
	<g class="st5">
		<g>
			<g>
				<path class="st6" d="M654.5,639.8h-61.4v-26.4h44.2l-26.4-3.3c-2.6-0.3-5.1-0.9-7.7-1.9c-2.6-1-4.7-2.3-6.3-4
					c-1.8-1.8-3-3.9-3.8-6.4c-0.7-2.3-1-4.8-1-7.4V586c0-5.9,1.7-10.6,5.1-14.2c3.4-3.5,8.7-5.3,15.8-5.3h56.3
					c4.6,0,7.7,3.1,7.7,7.8v16.5l-11.4,4.2c0.6,0.2,1.3,0.4,1.9,0.7c2.5,1,4.6,2.5,6.2,4.2c1.7,1.8,2.8,4.1,3.4,6.5
					c0.6,2,0.9,4.5,0.9,7.5v5c0,3.2-0.4,6-1.2,8.4c-0.8,2.7-2.4,5.2-4.5,7.1c-2,1.9-4.5,3.3-7.6,4.2
					C661.9,639.4,658.6,639.8,654.5,639.8z M603.1,629.8h51.4c3.1,0,5.6-0.3,7.4-0.8c1.6-0.5,2.8-1.1,3.7-2c0.8-0.8,1.4-1.7,1.7-2.8
					l0.1-0.2c0.5-1.4,0.7-3.1,0.7-5.2v-5c0-2.1-0.2-3.7-0.5-4.8l-0.1-0.3c-0.2-0.8-0.6-1.6-1.1-2.2c-0.6-0.6-1.5-1.2-2.5-1.7
					c-1.6-0.6-3.3-1-5.1-1.3l-39.6-5.5c-1.8-0.3-3.3-0.9-4.4-1.7c-2.6-2-2.6-5.2-2.6-6.3v-1.6c0-2.3,0.7-4.2,2-5.7
					c1.4-1.6,3.6-2.4,6.2-2.4h33.4c3.5,0,6,2.5,6,6v0.1l7.3-2.7v-7.3h-54c-4.1,0-7.2,0.8-8.6,2.3c-1,1-2.3,2.9-2.3,7.2v4.4
					c0,1.7,0.2,3.2,0.6,4.6c0.3,0.9,0.7,1.6,1.2,2.2c0.7,0.7,1.6,1.2,2.8,1.7c1.8,0.7,3.5,1.1,5.4,1.3l37.9,4.8
					c2.2,0.2,3.9,1,5.2,2.2c1.4,1.4,2.1,3.3,2.1,5.8v1.7c0,1.7-0.2,4.1-1.9,6.1l-0.3,0.3c-1.5,1.5-3.7,2.3-6.5,2.3h-45.5V629.8z
					 M636.2,590.4l13.6,1.9v-1.9H636.2z M622.2,590.4L622.2,590.4L622.2,590.4z M620.3,588.1C620.3,588.1,620.3,588.1,620.3,588.1
					S620.3,588.1,620.3,588.1z"/>
			</g>
			<g>
				<path class="st6" d="M707.3,639.9h-25.7v-35.8h-4.7l-5.9-15.4v-6.6h10.6v-15.6h25.7v15.6h13.9v22h-13.9V639.9z M691.6,629.9h5.7
					v-35.8h13.9v-2h-13.9v-15.6h-5.7v15.6H683l0.8,2h7.9V629.9z"/>
			</g>
			<g>
				<path class="st6" d="M763.4,639.8h-21.7c-4.2,0-7.7-0.5-10.7-1.6c-3.2-1.1-5.9-2.9-8-5.1L723,633c-2.2-2.5-3.6-5.1-4.4-8
					c-0.8-2.7-1.2-5.7-1.2-9.1v-28.8h4.7v-5h20.7v31.7c0,0.9,0.1,1.5,0.2,1.8c0.3,0.1,1,0.2,2.2,0.2h14.4c1.3,0,2-0.1,2.3-0.2
					c0.1-0.2,0.2-0.8,0.2-1.8v-31.7h25.7v33.8c0,3.5-0.4,6.6-1.2,9.3c-0.9,3-2.4,5.6-4.3,7.9c-1.9,2.2-4.5,3.9-8,5.2
					C771.2,639.3,767.7,639.8,763.4,639.8z M730.4,626.3c1,1,2.3,1.9,4,2.5c1.8,0.7,4.3,1,7.3,1h21.7c3.1,0,5.5-0.3,7.4-1
					c1.8-0.7,3.1-1.5,3.9-2.4c1-1.2,1.8-2.5,2.3-4.1c0.5-1.7,0.8-3.8,0.8-6.3v-23.8h-5.7v21.7c0,3.8-1.1,6.8-3.2,8.9
					c-2.8,2.7-6.6,3.1-9.3,3.1h-14.4c-4,0-7-0.9-9.1-2.8c-2.2-2-3.3-5.1-3.3-9.2v-21.7h-5.4v23.8c0,2.5,0.3,4.6,0.8,6.3l0.1,0.2
					C728.6,623.8,729.2,625,730.4,626.3z M762.1,615.5L762.1,615.5L762.1,615.5z"/>
			</g>
			<g>
				<path class="st6" d="M853.4,639.9h-44c-4.2,0-7.7-0.5-10.7-1.6c-3.2-1.1-5.9-2.9-8-5.1l-0.1-0.1c-2.2-2.5-3.6-5.1-4.4-8
					c-0.8-2.7-1.2-5.7-1.2-9.1v-9.8c0-3.4,0.4-6.4,1.2-9.2c0.9-3,2.4-5.7,4.4-7.9c2-2.3,4.6-4,8.1-5.2c3-1.1,6.5-1.6,10.7-1.6h18.3
					V562h25.7V639.9z M837.7,629.9h5.7V572h-5.7v20.3h-28.3c-3,0-5.5,0.3-7.3,1c-1.8,0.7-3.1,1.4-3.9,2.4c-1,1.2-1.8,2.5-2.3,4.1
					c-0.5,1.8-0.8,3.9-0.8,6.3v9.8c0,2.5,0.3,4.6,0.8,6.3l0.1,0.2c0.3,1.3,1,2.5,2.1,3.8c1,1,2.3,1.9,4,2.5c1.9,0.7,4.3,1,7.3,1h16
					l-1.5-4h-11.6c-3.8,0-6.7-1-8.6-3c-2-2-3-5-3-9.1v-5c0-2.1,0.1-3.7,0.4-5.2c0.4-2.1,1-3.6,1.9-4.9c1.1-1.5,2.5-2.6,4.3-3.3
					l0.2-0.1c1.4-0.5,2.9-0.7,4.9-0.7h25.4V629.9z M810.9,615.8c0.3,0.1,0.7,0.1,1.4,0.1h15.4v-11.2h-15.4c-0.6,0-1,0-1.3,0.1
					c0,0.1-0.1,0.3-0.1,0.5c-0.1,0.9-0.2,2-0.2,3.5v5C810.7,614.8,810.8,615.4,810.9,615.8z"/>
			</g>
			<g>
				<path class="st6" d="M877.3,639.9h-25.7V562h25.7V639.9z M861.6,629.9h5.7v-37.8h-5.7V629.9z M861.6,574.6h5.7V572h-5.7V574.6z"
					/>
			</g>
			<g>
				<path class="st6" d="M922.2,639.8h-23c-4.2,0-7.7-0.5-10.7-1.6c-3.2-1.1-5.9-2.9-8-5.1c-2.2-2.3-3.6-4.9-4.6-8
					c-0.8-2.6-1.2-5.7-1.2-9.2v-9.8c0-3.4,0.4-6.4,1.2-9.2c1-3.1,2.5-5.8,4.6-8c2.1-2.2,4.6-3.8,7.9-5.1c3-1.1,6.5-1.6,10.8-1.6h23
					c4.3,0,7.9,0.5,10.8,1.6c3,1.1,5.7,2.8,7.9,4.9l0.1,0.1c2.1,2.2,3.6,4.9,4.5,8c0.8,2.7,1.2,5.7,1.2,9.3v9.8
					c0,3.5-0.4,6.6-1.2,9.3c-0.9,3.1-2.5,5.8-4.5,8c-2.1,2.2-4.7,3.9-8,5.1C929.9,639.3,926.4,639.8,922.2,639.8z M899.2,592.2
					c-3,0-5.5,0.3-7.3,1c-1.8,0.7-3.1,1.5-4.1,2.5c-1,1.1-1.8,2.4-2.3,4c-0.5,1.8-0.8,3.9-0.8,6.3v9.8c0,2.5,0.3,4.6,0.8,6.3
					c0.5,1.7,1.2,2.9,2.3,4c1,1.1,2.4,1.9,4.1,2.5c1.8,0.7,4.3,1,7.3,1h23c3,0,5.5-0.3,7.3-1c1.8-0.7,3.2-1.5,4.2-2.5
					c1-1.1,1.8-2.4,2.3-4c0.5-1.7,0.8-3.8,0.8-6.3v-9.8c0-2.5-0.3-4.6-0.8-6.3c-0.5-1.6-1.2-2.9-2.2-4c-1.1-1.1-2.5-2-4.2-2.6
					c-1.3-0.5-3.5-1-7.3-1H899.2z M919.2,625.9h-17.1c-3.9,0-6.7-1-8.7-3l-0.2-0.2c-1.8-2-2.7-4.9-2.7-8.9v-6.7
					c0-2.9,0.3-6.6,2.7-9.3c2-2.2,4.9-3.2,8.9-3.2h17.1c3.8,0,6.7,1,8.7,3.1c2,2,3,5.1,3,9.4v6.7c0,2.6-0.3,6.5-3,9.1
					C925.9,624.9,923.1,625.9,919.2,625.9z M900.7,615.8c0.3,0.1,0.8,0.1,1.4,0.1h17.1c0.8,0,1.3-0.1,1.5-0.1c0.1-0.3,0.2-1,0.2-2
					v-6.7c0-1.2-0.1-2-0.2-2.4c-0.3-0.1-0.7-0.1-1.5-0.1h-17.1c-0.7,0-1.1,0.1-1.4,0.1c-0.1,0.4-0.2,1.1-0.2,2.4v6.7
					C900.5,614.8,900.6,615.4,900.7,615.8z M900.2,615.7L900.2,615.7L900.2,615.7z M920.6,604.4L920.6,604.4L920.6,604.4z
					 M900.8,604.3L900.8,604.3L900.8,604.3z"/>
			</g>
		</g>
		<g>
			<g>
				<path class="st1" d="M655.5,593.4h-0.7v-7c0-0.7-0.3-1-1-1h-33.4c-1.2,0-2.1,0.3-2.5,0.8c-0.5,0.5-0.7,1.3-0.7,2.3v1.6
					c0,1.2,0.2,2,0.6,2.3c0.4,0.3,1.2,0.6,2.3,0.8l39.3,5.5c2.5,0.3,4.6,0.9,6.4,1.6c1.7,0.7,3.2,1.7,4.3,2.9s1.9,2.7,2.3,4.4
					c0.5,1.7,0.7,3.8,0.7,6.2v5c0,2.6-0.3,4.9-1,6.9c-0.6,2-1.7,3.7-3.1,5c-1.5,1.4-3.4,2.4-5.7,3.1c-2.4,0.7-5.3,1-8.8,1h-56.4
					v-16.4h50.5c1.5,0,2.5-0.3,3-0.8c0.5-0.6,0.7-1.5,0.7-2.9V613c0-1.1-0.2-1.9-0.6-2.3c-0.4-0.4-1.1-0.7-2.2-0.8l-37.9-4.8
					c-2.6-0.3-4.7-0.9-6.6-1.6c-1.8-0.7-3.3-1.6-4.5-2.8s-2-2.6-2.5-4.3s-0.8-3.7-0.8-6V586c0-4.6,1.2-8.1,3.7-10.7
					c2.4-2.5,6.5-3.8,12.2-3.8h56.3c1.8,0,2.7,0.9,2.7,2.8v13L655.5,593.4z"/>
			</g>
			<g>
				<path class="st1" d="M716.2,599.1h-13.9v35.8h-15.7v-35.8h-6.3l-4.3-11.3v-0.7h10.6v-15.6h15.7v15.6h13.9V599.1z"/>
			</g>
			<g>
				<path class="st1" d="M722.1,587.1h15.7v26.7c0,2.7,0.6,4.5,1.7,5.5c1.1,1,3,1.5,5.7,1.5h14.4c2.8,0,4.7-0.5,5.8-1.6
					s1.7-2.9,1.7-5.4v-26.7h15.7v28.8c0,2.9-0.3,5.5-1,7.8s-1.8,4.3-3.3,6s-3.6,2.9-6,3.8c-2.5,0.9-5.5,1.3-9.1,1.3h-21.7
					c-3.5,0-6.5-0.4-9-1.3c-2.5-0.9-4.5-2.2-6-3.8c-1.5-1.7-2.7-3.6-3.3-6c-0.7-2.3-1-4.9-1-7.8v-28.8H722.1z"/>
			</g>
			<g>
				<path class="st1" d="M809.4,634.9c-3.5,0-6.5-0.4-9-1.3c-2.5-0.9-4.5-2.2-6-3.8c-1.5-1.7-2.7-3.6-3.3-6c-0.7-2.3-1-4.9-1-7.8
					v-9.8c0-2.8,0.3-5.4,1-7.8c0.7-2.3,1.8-4.3,3.3-6s3.5-2.9,6-3.8c2.5-0.9,5.5-1.3,9-1.3h23.3V567h15.7v67.9H809.4z M827.3,620.9
					l4.7,12.3h0.7v-33.5h-20.4c-1.3,0-2.4,0.1-3.3,0.4c-0.8,0.3-1.5,0.8-2,1.5s-0.8,1.7-1,2.8c-0.2,1.2-0.3,2.6-0.3,4.4v5
					c0,2.7,0.5,4.6,1.5,5.6s2.7,1.5,5.1,1.5H827.3z"/>
			</g>
			<g>
				<path class="st1" d="M856.6,579.6V567h15.7v12.6H856.6z M856.6,634.9v-47.8h15.7v47.8H856.6z"/>
			</g>
			<g>
				<path class="st1" d="M941.7,615.9c0,2.9-0.3,5.5-1,7.8s-1.8,4.3-3.4,6c-1.6,1.7-3.6,2.9-6.1,3.8c-2.5,0.9-5.5,1.3-9,1.3h-23
					c-3.5,0-6.5-0.4-9-1.3c-2.5-0.9-4.5-2.2-6-3.8c-1.6-1.7-2.7-3.6-3.4-6c-0.7-2.3-1-4.9-1-7.8v-9.8c0-2.8,0.3-5.4,1-7.8
					c0.7-2.3,1.8-4.3,3.4-6c1.6-1.7,3.6-2.9,6-3.8c2.5-0.9,5.5-1.3,9-1.3h23c3.5,0,6.6,0.4,9,1.3c2.5,0.9,4.5,2.2,6.1,3.8
					c1.6,1.7,2.7,3.7,3.4,6s1,4.9,1,7.8V615.9z M919.2,620.9c2.5,0,4.2-0.5,5.2-1.5s1.5-2.8,1.5-5.6v-6.7c0-2.9-0.5-4.9-1.5-5.9
					s-2.7-1.6-5.2-1.6h-17.1c-2.5,0-4.2,0.5-5.2,1.6s-1.4,3-1.4,5.9v6.7c0,2.7,0.5,4.6,1.4,5.6c1,1,2.7,1.5,5.2,1.5H919.2z"/>
			</g>
		</g>
	</g>
</g>
</svg>
