<?xml version="1.0" encoding="utf-8"?>
<!-- Generator: Adobe Illustrator 22.1.0, SVG Export Plug-In . SVG Version: 6.00 Build 0)  -->
<svg version="1.1" id="Layer_1" xmlns="http://www.w3.org/2000/svg" xmlns:xlink="http://www.w3.org/1999/xlink" x="0px" y="0px"
	 viewBox="0 0 200 200" style="enable-background:new 0 0 200 200;" xml:space="preserve">
<style type="text/css">
	.st0{fill:#B3B3B3;}
	.st1{fill:#E6E6E6;}
	.st2{fill:#808080;}
</style>
<g>
	<g>
		<polygon class="st0" points="115.2,67.7 93,100 61.9,100 84.1,67.7 		"/>
	</g>
	<g>
		<polygon class="st1" points="115.2,67.7 137.7,100 115.2,132.3 93,100 		"/>
	</g>
	<g>
		<polygon class="st2" points="93,100 115.2,132.3 84.1,132.3 61.9,100 		"/>
	</g>
</g>
<g>
	<g>
		<polygon class="st0" points="115.2,3 93,35.3 61.9,35.3 84.1,3 		"/>
	</g>
	<g>
		<polygon class="st1" points="115.2,3 137.7,35.3 115.2,67.7 93,35.3 		"/>
	</g>
	<g>
		<polygon class="st2" points="93,35.3 115.2,67.7 84.1,67.7 61.9,35.3 		"/>
	</g>
</g>
<g>
	<g>
		<polygon class="st0" points="115.2,132.3 93,164.6 61.9,164.6 84.1,132.3 		"/>
	</g>
	<g>
		<polygon class="st1" points="115.2,132.3 137.7,164.6 115.2,197 93,164.6 		"/>
	</g>
	<g>
		<polygon class="st2" points="93,164.6 115.2,197 84.1,197 61.9,164.6 		"/>
	</g>
</g>
<g>
	<g>
		<polygon class="st0" points="168.7,100 146.5,132.3 115.3,132.3 137.5,100 		"/>
	</g>
	<g>
		<polygon class="st1" points="168.7,100 191.1,132.3 168.7,164.7 146.5,132.3 		"/>
	</g>
	<g>
		<polygon class="st2" points="146.5,132.3 168.7,164.7 137.5,164.7 115.3,132.3 		"/>
	</g>
</g>
<g>
	<g>
		<polygon class="st0" points="168.5,35.3 146.4,67.6 115.2,67.6 137.4,35.3 		"/>
	</g>
	<g>
		<polygon class="st1" points="168.5,35.3 191,67.6 168.5,100 146.4,67.6 		"/>
	</g>
	<g>
		<polygon class="st2" points="146.4,67.6 168.5,100 137.4,100 115.2,67.6 		"/>
	</g>
</g>
<g>
	<g>
		<polygon class="st0" points="62.3,100 40.2,132.3 9,132.3 31.2,100 		"/>
	</g>
	<g>
		<polygon class="st1" points="62.3,100 84.8,132.3 62.3,164.7 40.2,132.3 		"/>
	</g>
	<g>
		<polygon class="st2" points="40.2,132.3 62.3,164.7 31.2,164.7 9,132.3 		"/>
	</g>
</g>
<g>
	<g>
		<polygon class="st0" points="62.2,35.3 40,67.6 8.9,67.6 31.1,35.3 		"/>
	</g>
	<g>
		<polygon class="st1" points="62.2,35.3 84.7,67.6 62.2,100 40,67.6 		"/>
	</g>
	<g>
		<polygon class="st2" points="40,67.6 62.2,100 31.1,100 8.9,67.6 		"/>
	</g>
</g>
</svg>
