<?xml version="1.0" encoding="utf-8"?>
<!-- Generator: Adobe Illustrator 22.1.0, SVG Export Plug-In . SVG Version: 6.00 Build 0)  -->
<svg version="1.1" id="Layer_1" xmlns="http://www.w3.org/2000/svg" xmlns:xlink="http://www.w3.org/1999/xlink" x="0px" y="0px"
	 viewBox="0 0 1365 237" style="enable-background:new 0 0 1365 237;" xml:space="preserve">
<style type="text/css">
	.st0{fill:#5ECAEF;}
	.st1{fill:#9EDAEF;}
	.st2{fill:#208CBC;}
	.st3{fill:none;stroke:#9EDAEF;stroke-miterlimit:10;}
	.st4{fill:none;stroke:#2EB5E5;stroke-width:4;stroke-linecap:round;stroke-linejoin:round;stroke-miterlimit:10;}
	.st5{fill:none;}
	.st6{enable-background:new    ;}
</style>
<g>
	<g>
		<g>
			<g>
				<polygon class="st0" points="126.1,85.5 104.1,117.5 73.3,117.5 95.2,85.5 				"/>
			</g>
			<g>
				<polygon class="st1" points="126.1,85.5 148.3,117.5 126.1,149.5 104.1,117.5 				"/>
			</g>
			<g>
				<polygon class="st2" points="104.1,117.5 126.1,149.5 95.2,149.5 73.3,117.5 				"/>
			</g>
		</g>
		<g>
			<g>
				<g>
					<polygon class="st3" points="73,53.4 51,85.4 20.2,85.4 42.2,53.4 					"/>
				</g>
				<g>
					<polygon class="st3" points="73,53.4 95.2,85.4 73,117.5 51,85.4 					"/>
				</g>
				<g>
					<polygon class="st3" points="51,85.4 73,117.5 42.2,117.5 20.2,85.4 					"/>
				</g>
			</g>
			<g>
				<g>
					<polygon class="st3" points="73,117.5 51,149.4 20.2,149.4 42.2,117.5 					"/>
				</g>
				<g>
					<polygon class="st3" points="73,117.5 95.2,149.4 73,181.5 51,149.4 					"/>
				</g>
				<g>
					<polygon class="st3" points="51,149.4 73,181.5 42.2,181.5 20.2,149.4 					"/>
				</g>
			</g>
			<g>
				<g>
					<polygon class="st3" points="179.2,53.4 157.2,85.4 126.4,85.4 148.3,53.4 					"/>
				</g>
				<g>
					<polygon class="st3" points="179.2,53.4 201.4,85.4 179.2,117.5 157.2,85.4 					"/>
				</g>
				<g>
					<polygon class="st3" points="157.2,85.4 179.2,117.5 148.3,117.5 126.4,85.4 					"/>
				</g>
			</g>
			<g>
				<g>
					<polygon class="st3" points="179.2,117.5 157.2,149.4 126.4,149.4 148.3,117.5 					"/>
				</g>
				<g>
					<polygon class="st3" points="179.2,117.5 201.4,149.4 179.2,181.5 157.2,149.4 					"/>
				</g>
				<g>
					<polygon class="st3" points="157.2,149.4 179.2,181.5 148.3,181.5 126.4,149.4 					"/>
				</g>
			</g>
			<g>
				<g>
					<polygon class="st3" points="126.1,21.4 104.1,53.4 73.3,53.4 95.2,21.4 					"/>
				</g>
				<g>
					<polygon class="st3" points="126.1,21.4 148.3,53.4 126.1,85.5 104.1,53.4 					"/>
				</g>
				<g>
					<polygon class="st3" points="104.1,53.4 126.1,85.5 95.2,85.5 73.3,53.4 					"/>
				</g>
			</g>
			<g>
				<g>
					<polygon class="st3" points="126.1,149.5 104.1,181.5 73.3,181.5 95.2,149.5 					"/>
				</g>
				<g>
					<polygon class="st3" points="126.1,149.5 148.3,181.5 126.1,213.6 104.1,181.5 					"/>
				</g>
				<g>
					<polygon class="st3" points="104.1,181.5 126.1,213.6 95.2,213.6 73.3,181.5 					"/>
				</g>
			</g>
		</g>
		<g>
			<g>
				<g>
					<line class="st4" x1="51" y1="85.4" x2="43" y2="85.4"/>
				</g>
			</g>
			<g>
				<g>
					<line class="st4" x1="51" y1="149.4" x2="43" y2="149.4"/>
				</g>
			</g>
			<g>
				<g>
					<line class="st4" x1="157.2" y1="85.4" x2="149.1" y2="85.4"/>
				</g>
			</g>
			<g>
				<g>
					<line class="st4" x1="157.2" y1="149.4" x2="149.1" y2="149.4"/>
				</g>
			</g>
			<g>
				<g>
					<line class="st4" x1="104.1" y1="53.4" x2="96" y2="53.4"/>
				</g>
			</g>
			<g>
				<g>
					<line class="st4" x1="104.1" y1="181.5" x2="96" y2="181.5"/>
				</g>
			</g>
			<g>
				<g>
					<g>
						<line class="st4" x1="104.1" y1="117.5" x2="96" y2="117.5"/>
					</g>
				</g>
				<line class="st4" x1="104.1" y1="117.5" x2="109" y2="110.5"/>
				<line class="st4" x1="104.1" y1="117.5" x2="109.1" y2="124.3"/>
				<line class="st4" x1="73.3" y1="117.5" x2="78.2" y2="110.5"/>
				<line class="st4" x1="73.3" y1="117.5" x2="78.3" y2="124.6"/>
				<path class="st4" d="M78.3,124.6"/>
				<path class="st4" d="M109.2,124.6"/>
				<path class="st4" d="M78.3,124.6"/>
				<path class="st4" d="M109.2,124.6"/>
				<path class="st4" d="M143.4,110.5"/>
				<path class="st4" d="M78.2,110.5"/>
				<path class="st4" d="M143.4,124.6"/>
				<path class="st4" d="M78.3,124.6"/>
				<line class="st4" x1="148.3" y1="117.5" x2="143.4" y2="110.5"/>
				<line class="st4" x1="143.4" y1="124.6" x2="148.3" y2="117.5"/>
				<line class="st4" x1="95.2" y1="85.5" x2="90.2" y2="93.1"/>
				<line class="st4" x1="105.2" y1="85.5" x2="95.2" y2="85.5"/>
				<line class="st4" x1="126.1" y1="85.5" x2="116.6" y2="85.5"/>
				<line class="st4" x1="120.9" y1="93.5" x2="126.1" y2="85.5"/>
				<line class="st4" x1="131.6" y1="93.1" x2="126.1" y2="85.5"/>
				<line class="st4" x1="126.1" y1="149.5" x2="114.8" y2="149.5"/>
				<line class="st4" x1="120.5" y1="141.3" x2="126.1" y2="149.5"/>
				<line class="st4" x1="132.3" y1="140.9" x2="126.1" y2="149.5"/>
				<line class="st4" x1="95.2" y1="149.5" x2="90.3" y2="141.9"/>
				<line class="st4" x1="104.4" y1="149.5" x2="95.2" y2="149.5"/>
				<line class="st4" x1="51" y1="85.4" x2="55.9" y2="78.6"/>
				<line class="st4" x1="51" y1="85.4" x2="56.1" y2="92.3"/>
				<line class="st4" x1="20.2" y1="85.4" x2="25.1" y2="78.6"/>
				<line class="st4" x1="20.2" y1="85.4" x2="25.3" y2="92.6"/>
				<path class="st4" d="M25.3,92.6"/>
				<path class="st4" d="M56.1,92.6"/>
				<path class="st4" d="M25.3,92.6"/>
				<path class="st4" d="M56.1,92.6"/>
				<path class="st4" d="M90.3,78.6"/>
				<path class="st4" d="M25.1,78.6"/>
				<path class="st4" d="M90.3,92.6"/>
				<path class="st4" d="M25.3,92.6"/>
				<line class="st4" x1="95.2" y1="85.4" x2="90.3" y2="78.6"/>
				<line class="st4" x1="90.3" y1="92.6" x2="95.2" y2="85.4"/>
				<line class="st4" x1="42.2" y1="53.4" x2="37.2" y2="61"/>
				<line class="st4" x1="52.2" y1="53.4" x2="42.2" y2="53.4"/>
				<line class="st4" x1="73" y1="53.4" x2="63.5" y2="53.4"/>
				<line class="st4" x1="67.7" y1="61.4" x2="73" y2="53.4"/>
				<line class="st4" x1="78.6" y1="61.2" x2="73" y2="53.4"/>
				<line class="st4" x1="73" y1="117.5" x2="61.8" y2="117.5"/>
				<line class="st4" x1="67.5" y1="109.2" x2="73" y2="117.5"/>
				<line class="st4" x1="79.2" y1="109" x2="73" y2="117.5"/>
				<line class="st4" x1="42.2" y1="117.5" x2="37.2" y2="109.9"/>
				<line class="st4" x1="51.2" y1="117.5" x2="42.2" y2="117.5"/>
				<line class="st4" x1="51" y1="149.4" x2="55.9" y2="142.6"/>
				<line class="st4" x1="51" y1="149.4" x2="56.1" y2="156.3"/>
				<line class="st4" x1="20.2" y1="149.4" x2="25.1" y2="142.6"/>
				<line class="st4" x1="20.2" y1="149.4" x2="25.3" y2="156.6"/>
				<path class="st4" d="M25.3,156.6"/>
				<path class="st4" d="M56.1,156.6"/>
				<path class="st4" d="M25.3,156.6"/>
				<path class="st4" d="M56.1,156.6"/>
				<path class="st4" d="M90.3,142.6"/>
				<path class="st4" d="M25.1,142.6"/>
				<path class="st4" d="M90.3,156.6"/>
				<path class="st4" d="M25.3,156.6"/>
				<line class="st4" x1="95.2" y1="149.4" x2="90.3" y2="142.6"/>
				<line class="st4" x1="90.3" y1="156.6" x2="95.2" y2="149.4"/>
				<line class="st4" x1="42.2" y1="117.5" x2="37.2" y2="125"/>
				<line class="st4" x1="52.2" y1="117.5" x2="42.2" y2="117.5"/>
				<line class="st4" x1="73" y1="117.5" x2="63.5" y2="117.5"/>
				<line class="st4" x1="67.7" y1="125.4" x2="73" y2="117.5"/>
				<line class="st4" x1="78.6" y1="125.1" x2="73" y2="117.5"/>
				<line class="st4" x1="73" y1="181.5" x2="61.8" y2="181.5"/>
				<line class="st4" x1="67.5" y1="173.2" x2="73" y2="181.5"/>
				<line class="st4" x1="79.2" y1="172.9" x2="73" y2="181.5"/>
				<line class="st4" x1="42.2" y1="181.5" x2="37.2" y2="173.8"/>
				<line class="st4" x1="51.2" y1="181.5" x2="42.2" y2="181.5"/>
				<line class="st4" x1="157.2" y1="85.4" x2="162.1" y2="78.6"/>
				<line class="st4" x1="157.2" y1="85.4" x2="162.2" y2="92.3"/>
				<line class="st4" x1="126.4" y1="85.4" x2="131.3" y2="78.6"/>
				<line class="st4" x1="126.4" y1="85.4" x2="131.4" y2="92.6"/>
				<path class="st4" d="M131.4,92.6"/>
				<path class="st4" d="M162.3,92.6"/>
				<path class="st4" d="M131.4,92.6"/>
				<path class="st4" d="M162.3,92.6"/>
				<path class="st4" d="M196.4,78.6"/>
				<path class="st4" d="M131.3,78.6"/>
				<path class="st4" d="M196.4,92.6"/>
				<path class="st4" d="M131.4,92.6"/>
				<line class="st4" x1="201.4" y1="85.4" x2="196.4" y2="78.6"/>
				<line class="st4" x1="196.4" y1="92.6" x2="201.4" y2="85.4"/>
				<line class="st4" x1="148.3" y1="53.4" x2="143.3" y2="61"/>
				<line class="st4" x1="158.4" y1="53.4" x2="148.3" y2="53.4"/>
				<line class="st4" x1="179.2" y1="53.4" x2="169.6" y2="53.4"/>
				<line class="st4" x1="173.9" y1="61.4" x2="179.2" y2="53.4"/>
				<line class="st4" x1="184.8" y1="61.2" x2="179.2" y2="53.4"/>
				<line class="st4" x1="179.2" y1="117.5" x2="167.9" y2="117.5"/>
				<line class="st4" x1="173.7" y1="109.2" x2="179.2" y2="117.5"/>
				<line class="st4" x1="185.3" y1="109" x2="179.2" y2="117.5"/>
				<line class="st4" x1="148.3" y1="117.5" x2="143.4" y2="109.9"/>
				<line class="st4" x1="157.5" y1="117.5" x2="148.3" y2="117.5"/>
				<line class="st4" x1="157.2" y1="149.4" x2="162.1" y2="142.6"/>
				<line class="st4" x1="157.2" y1="149.4" x2="162.2" y2="156.3"/>
				<line class="st4" x1="126.4" y1="149.4" x2="131.3" y2="142.6"/>
				<line class="st4" x1="126.4" y1="149.4" x2="131.4" y2="156.6"/>
				<path class="st4" d="M131.4,156.6"/>
				<path class="st4" d="M162.3,156.6"/>
				<path class="st4" d="M131.4,156.6"/>
				<path class="st4" d="M162.3,156.6"/>
				<path class="st4" d="M196.4,142.6"/>
				<path class="st4" d="M131.3,142.6"/>
				<path class="st4" d="M196.4,156.6"/>
				<path class="st4" d="M131.4,156.6"/>
				<line class="st4" x1="201.4" y1="149.4" x2="196.4" y2="142.6"/>
				<line class="st4" x1="196.4" y1="156.6" x2="201.4" y2="149.4"/>
				<line class="st4" x1="148.3" y1="117.5" x2="143.3" y2="125"/>
				<line class="st4" x1="158.4" y1="117.5" x2="148.3" y2="117.5"/>
				<line class="st4" x1="179.2" y1="117.5" x2="169.6" y2="117.5"/>
				<line class="st4" x1="173.9" y1="125.4" x2="179.2" y2="117.5"/>
				<line class="st4" x1="184.8" y1="125.1" x2="179.2" y2="117.5"/>
				<line class="st4" x1="179.2" y1="181.5" x2="167.9" y2="181.5"/>
				<line class="st4" x1="173.7" y1="173.2" x2="179.2" y2="181.5"/>
				<line class="st4" x1="185.3" y1="172.9" x2="179.2" y2="181.5"/>
				<line class="st4" x1="148.3" y1="181.5" x2="143.4" y2="173.8"/>
				<line class="st4" x1="157.5" y1="181.5" x2="148.3" y2="181.5"/>
				<line class="st4" x1="104.1" y1="53.4" x2="109" y2="46.6"/>
				<line class="st4" x1="104.1" y1="53.4" x2="109.1" y2="60.4"/>
				<line class="st4" x1="73.3" y1="53.4" x2="78.2" y2="46.6"/>
				<line class="st4" x1="73.3" y1="53.4" x2="78.3" y2="60.6"/>
				<path class="st4" d="M78.3,60.6"/>
				<path class="st4" d="M109.2,60.6"/>
				<path class="st4" d="M78.3,60.6"/>
				<path class="st4" d="M109.2,60.6"/>
				<path class="st4" d="M143.4,46.6"/>
				<path class="st4" d="M78.2,46.6"/>
				<path class="st4" d="M143.4,60.6"/>
				<path class="st4" d="M78.3,60.6"/>
				<line class="st4" x1="148.3" y1="53.4" x2="143.4" y2="46.6"/>
				<line class="st4" x1="143.4" y1="60.6" x2="148.3" y2="53.4"/>
				<line class="st4" x1="95.2" y1="21.4" x2="90.2" y2="29"/>
				<line class="st4" x1="105.2" y1="21.4" x2="95.2" y2="21.4"/>
				<line class="st4" x1="126.1" y1="21.4" x2="116.6" y2="21.4"/>
				<line class="st4" x1="120.9" y1="29.4" x2="126.1" y2="21.4"/>
				<line class="st4" x1="131.6" y1="29.2" x2="126.1" y2="21.4"/>
				<line class="st4" x1="126.1" y1="85.5" x2="114.8" y2="85.5"/>
				<line class="st4" x1="120.5" y1="77.2" x2="126.1" y2="85.5"/>
				<line class="st4" x1="132.3" y1="76.9" x2="126.1" y2="85.5"/>
				<line class="st4" x1="95.2" y1="85.5" x2="90.3" y2="77.8"/>
				<line class="st4" x1="104.4" y1="85.5" x2="95.2" y2="85.5"/>
				<line class="st4" x1="104.1" y1="181.5" x2="109" y2="174.6"/>
				<line class="st4" x1="104.1" y1="181.5" x2="109.1" y2="188.4"/>
				<line class="st4" x1="73.3" y1="181.5" x2="78.2" y2="174.6"/>
				<line class="st4" x1="73.3" y1="181.5" x2="78.3" y2="188.7"/>
				<path class="st4" d="M78.3,188.7"/>
				<path class="st4" d="M109.2,188.7"/>
				<path class="st4" d="M78.3,188.7"/>
				<path class="st4" d="M109.2,188.7"/>
				<path class="st4" d="M143.4,174.6"/>
				<path class="st4" d="M78.2,174.6"/>
				<path class="st4" d="M143.4,188.7"/>
				<path class="st4" d="M78.3,188.7"/>
				<line class="st4" x1="148.3" y1="181.5" x2="143.4" y2="174.6"/>
				<line class="st4" x1="143.4" y1="188.7" x2="148.3" y2="181.5"/>
				<line class="st4" x1="95.2" y1="149.5" x2="90.2" y2="157"/>
				<line class="st4" x1="105.2" y1="149.5" x2="95.2" y2="149.5"/>
				<line class="st4" x1="126.1" y1="149.5" x2="116.6" y2="149.5"/>
				<line class="st4" x1="120.9" y1="157.4" x2="126.1" y2="149.5"/>
				<line class="st4" x1="131.6" y1="157.2" x2="126.1" y2="149.5"/>
				<line class="st4" x1="126.1" y1="213.6" x2="114.8" y2="213.6"/>
				<line class="st4" x1="120.5" y1="205.2" x2="126.1" y2="213.6"/>
				<line class="st4" x1="132.3" y1="205" x2="126.1" y2="213.6"/>
				<line class="st4" x1="95.2" y1="213.6" x2="90.3" y2="205.9"/>
				<line class="st4" x1="104.4" y1="213.6" x2="95.2" y2="213.6"/>
			</g>
		</g>
	</g>
</g>
<g>
	<rect x="288.3" y="63.3" class="st5" width="1000.1" height="141.5"/>
	<rect x="207.8" y="69.2" class="st5" width="1153.2" height="140.3"/>
	<g class="st6">
		<path class="st0" d="M255.5,134.5v15.5h-21.3V77.8c0-2,1-3.1,3-3.1H299c7,0,12.1,1.5,15.2,4.8c3.1,3.1,4.6,7.6,4.6,13.3v6.7
			c0,3.1-0.6,5.5-1.9,7.4c-1.2,1.9-2.6,3.3-4.3,4.4c2.3,1.1,4,2.7,5.5,4.9c1.4,2.1,2.1,4.8,2.1,8v6.7c0,6.3-1.5,11.2-4.5,14.5
			s-8.2,5-15.5,5h-38.2l-5.9-15.5h-0.7V134.5z M257.3,91.3c-1.2,0-1.8,0.6-1.8,1.8v12.7h35.8c2.4,0,4-0.5,5-1.3c1-1,1.4-2.5,1.4-4.6
			v-2.3c0-2.3-0.5-3.9-1.4-4.8c-1-1-2.6-1.4-5-1.4L257.3,91.3L257.3,91.3z M255.5,118.1v14.1h37c1.9,0,3.2-0.5,4-1.3
			c0.8-1,1.3-2.5,1.3-4.6v-2.1c0-2.3-0.4-3.8-1.2-4.6c-0.8-1-2.1-1.3-4.2-1.3h-37V118.1z"/>
		<path class="st0" d="M328,84.2v-15h18.8v15H328z M328,149.9V93.1h18.8v56.8H328z"/>
		<path class="st0" d="M429.2,127.3c0,3.4-0.4,6.5-1.2,9.3c-0.8,2.7-2.1,5.1-4,7.1c-1.9,2-4.3,3.4-7.3,4.5c-3,1.1-6.5,1.5-10.7,1.5
			h-27.3c-4.2,0-7.7-0.5-10.7-1.5c-3-1.1-5.4-2.6-7.1-4.5c-1.9-2-3.2-4.3-4-7.1c-0.8-2.7-1.2-5.8-1.2-9.3v-11.7
			c0-3.3,0.4-6.4,1.2-9.3c0.8-2.7,2.1-5.1,4-7.1c1.9-2,4.3-3.4,7.1-4.5c3-1.1,6.5-1.5,10.7-1.5H406c4.2,0,7.8,0.5,10.7,1.5
			c3,1.1,5.4,2.6,7.3,4.5c1.9,2,3.2,4.4,4,7.1c0.8,2.7,1.2,5.8,1.2,9.3V127.3z M402.6,133.3c3,0,5-0.6,6.2-1.8
			c1.2-1.2,1.8-3.3,1.8-6.7v-8c0-3.4-0.6-5.8-1.8-7c-1.2-1.2-3.2-1.9-6.2-1.9h-20.3c-3,0-5,0.6-6.2,1.9c-1.2,1.3-1.7,3.6-1.7,7v8
			c0,3.2,0.6,5.5,1.7,6.7c1.2,1.2,3.2,1.8,6.2,1.8H402.6z"/>
		<path class="st0" d="M484.5,93.5v56.5h-21.3V93.5H432l-6.9-18v-0.8h99.9c2,0,3,1.1,3,3.1v19.5l-19.7,7.4h-0.8v-10
			c0-0.7-0.4-1.2-1.2-1.2H484.5z"/>
		<path class="st0" d="M534.7,69.2h18.7v23.9h27.6c4.2,0,7.8,0.5,10.7,1.5c3,1.1,5.4,2.6,7.1,4.5c1.8,2,3.2,4.3,3.9,7.1
			c0.8,2.7,1.2,5.8,1.2,9.3v34.2h-18.7v-33.1c0-3.3-0.7-5.6-2-6.9c-1.3-1.3-3.3-2-5.9-2h-20.3l-3.1-8.3h-0.7v50.2h-18.4V69.2z"/>
		<path class="st0" d="M613.4,84.2v-15h18.7v15H613.4z M613.4,149.9V93.1h18.7v56.8H613.4z"/>
		<path class="st0" d="M641.7,93.1h46.4c4.2,0,7.8,0.5,10.7,1.5c3,1.1,5.4,2.6,7.1,4.5c1.8,2,3.2,4.3,3.9,7.1
			c0.8,2.7,1.2,5.8,1.2,9.3v34.2h-18.7v-33.1c0-3.3-0.6-5.6-1.9-6.9c-1.2-1.3-3.3-2-6.1-2h-20.1l-3.1-8.3h-0.7v50.2h-18.8V93.1z"/>
		<path class="st0" d="M721.8,157.3h41c2.7,0,4.5-0.6,5.6-1.8s1.5-3.1,1.5-5.7v-4.5h-27.6c-8.4,0-14.5-1.7-18-5.1
			c-3.4-3.4-5.2-8.6-5.2-15.6v-8.9c0-3.4,0.4-6.5,1.2-9.3s2.1-5.1,4-7.1c1.9-2,4.3-3.4,7.1-4.5c3-1.1,6.5-1.5,10.8-1.5h41.3
			c3.4,0,5.2,1.8,5.2,5.1v52.8c0,3.3-0.4,6.3-1.2,9c-0.8,2.7-2.1,5-3.9,7c-1.8,1.9-4.2,3.4-7.1,4.5c-3,1.1-6.7,1.5-10.9,1.5h-44
			v-15.9L721.8,157.3L721.8,157.3z M769.4,143.2h0.7v-33.4c0-1.2-0.6-1.8-1.8-1.8H746c-2.9,0-5,0.6-6.2,1.9
			c-1.2,1.3-1.9,3.6-1.9,6.9v5.2c0,3.1,0.6,5.2,1.8,6.4c1.2,1.2,3.3,1.7,6.3,1.7h18.3L769.4,143.2z"/>
		<path class="st0" d="M797.6,134H844c1.1,0,1.9-0.2,2.3-0.7c0.4-0.5,0.6-1.2,0.6-2.3v-1.2c0-0.7-0.1-1.3-0.4-1.7
			c-0.2-0.4-0.8-0.6-1.7-0.7l-35.3-3c-4.4-0.4-7.6-1.7-9.6-4s-3.1-5.5-3.1-9.4v-4.5c0-4.2,1.2-7.4,3.4-9.7c2.3-2.4,5.9-3.6,11.2-3.6
			h51.2c1.7,0,2.6,0.8,2.6,2.6v12.6l-16.2,5.9h-0.7v-6.5c0-0.6-0.2-0.8-0.7-0.8h-29.6c-1.1,0-1.8,0.2-2.1,0.6
			c-0.4,0.4-0.6,1.1-0.6,2v1.5c0,1,0.1,1.5,0.5,1.9c0.4,0.2,0.8,0.5,1.7,0.6l36.1,3.6c2.4,0.2,4.4,0.7,5.9,1.3
			c1.5,0.7,2.9,1.5,3.8,2.7c1,1.2,1.7,2.5,2,4.2s0.6,3.6,0.6,5.8v4.3c0,4.5-1.2,8.1-3.6,10.6c-2.4,2.5-6.7,3.7-12.7,3.7h-52.1V134
			L797.6,134L797.6,134z"/>
	</g>
	<g class="st6">
		<path class="st1" d="M994.2,100.6h-0.8v-8.3c0-0.8-0.4-1.2-1.2-1.2h-39.7c-1.4,0-2.5,0.4-3,1c-0.6,0.6-0.8,1.5-0.8,2.7v1.9
			c0,1.4,0.2,2.4,0.7,2.7c0.5,0.4,1.4,0.7,2.7,1l46.7,6.5c3,0.4,5.5,1.1,7.6,1.9c2,0.8,3.8,2,5.1,3.4c1.3,1.4,2.3,3.2,2.7,5.2
			c0.6,2,0.8,4.5,0.8,7.4v5.9c0,3.1-0.4,5.8-1.2,8.2c-0.7,2.4-2,4.4-3.7,5.9c-1.8,1.7-4,2.9-6.8,3.7c-2.9,0.8-6.3,1.2-10.5,1.2H926
			v-19.5h60c1.8,0,3-0.4,3.6-1c0.6-0.7,0.8-1.8,0.8-3.4v-2c0-1.3-0.2-2.3-0.7-2.7c-0.5-0.5-1.3-0.8-2.6-1l-45.1-5.7
			c-3.1-0.4-5.6-1.1-7.8-1.9c-2.1-0.8-3.9-1.9-5.4-3.3c-1.4-1.4-2.4-3.1-3-5.1c-0.6-2-1-4.4-1-7.1v-5.2c0-5.5,1.4-9.6,4.4-12.7
			c2.9-3,7.7-4.5,14.5-4.5h66.9c2.1,0,3.2,1.1,3.2,3.3v15.5L994.2,100.6z"/>
		<path class="st1" d="M1066.4,107.4h-16.5v42.6h-18.7v-42.6h-7.5l-5.1-13.4v-0.8h12.6V74.6h18.7v18.5h16.5V107.4z"/>
		<path class="st1" d="M1073.4,93.1h18.7v31.7c0,3.2,0.7,5.4,2,6.5c1.3,1.2,3.6,1.8,6.8,1.8h17.1c3.3,0,5.6-0.6,6.9-1.9
			c1.3-1.3,2-3.4,2-6.4V93.1h18.7v34.2c0,3.4-0.4,6.5-1.2,9.3c-0.8,2.7-2.1,5.1-3.9,7.1c-1.8,2-4.3,3.4-7.1,4.5
			c-3,1.1-6.5,1.5-10.8,1.5h-25.8c-4.2,0-7.7-0.5-10.7-1.5c-3-1.1-5.4-2.6-7.1-4.5c-1.8-2-3.2-4.3-3.9-7.1c-0.8-2.7-1.2-5.8-1.2-9.3
			V93.1H1073.4z"/>
		<path class="st1" d="M1177.2,149.9c-4.2,0-7.7-0.5-10.7-1.5c-3-1.1-5.4-2.6-7.1-4.5c-1.8-2-3.2-4.3-3.9-7.1
			c-0.8-2.7-1.2-5.8-1.2-9.3v-11.7c0-3.3,0.4-6.4,1.2-9.3c0.8-2.7,2.1-5.1,3.9-7.1c1.8-2,4.2-3.4,7.1-4.5c3-1.1,6.5-1.5,10.7-1.5
			h27.7V69.2h18.7v80.7H1177.2z M1198.5,133.3l5.6,14.6h0.8v-39.8h-24.3c-1.5,0-2.9,0.1-3.9,0.5c-1,0.4-1.8,1-2.4,1.8
			c-0.6,0.8-1,2-1.2,3.3c-0.2,1.4-0.4,3.1-0.4,5.2v5.9c0,3.2,0.6,5.5,1.8,6.7c1.2,1.2,3.2,1.8,6.1,1.8H1198.5z"/>
		<path class="st1" d="M1233.3,84.2v-15h18.7v15H1233.3z M1233.3,149.9V93.1h18.7v56.8H1233.3z"/>
		<path class="st1" d="M1334.5,127.3c0,3.4-0.4,6.5-1.2,9.3c-0.8,2.7-2.1,5.1-4,7.1c-1.9,2-4.3,3.4-7.3,4.5c-3,1.1-6.5,1.5-10.7,1.5
			H1284c-4.2,0-7.7-0.5-10.7-1.5c-3-1.1-5.4-2.6-7.1-4.5c-1.9-2-3.2-4.3-4-7.1c-0.8-2.7-1.2-5.8-1.2-9.3v-11.7
			c0-3.3,0.4-6.4,1.2-9.3c0.8-2.7,2.1-5.1,4-7.1c1.9-2,4.3-3.4,7.1-4.5c3-1.1,6.5-1.5,10.7-1.5h27.3c4.2,0,7.8,0.5,10.7,1.5
			c3,1.1,5.4,2.6,7.3,4.5c1.9,2,3.2,4.4,4,7.1s1.2,5.8,1.2,9.3V127.3z M1307.7,133.3c3,0,5-0.6,6.2-1.8c1.2-1.2,1.8-3.3,1.8-6.7v-8
			c0-3.4-0.6-5.8-1.8-7c-1.2-1.2-3.2-1.9-6.2-1.9h-20.3c-3,0-5,0.6-6.2,1.9c-1.2,1.3-1.7,3.6-1.7,7v8c0,3.2,0.6,5.5,1.7,6.7
			c1.2,1.2,3.2,1.8,6.2,1.8H1307.7z"/>
	</g>
</g>
</svg>
