<?xml version="1.0" encoding="utf-8"?>
<!-- Generator: Adobe Illustrator 22.1.0, SVG Export Plug-In . SVG Version: 6.00 Build 0)  -->
<svg version="1.1" id="Layer_1" xmlns="http://www.w3.org/2000/svg" xmlns:xlink="http://www.w3.org/1999/xlink" x="0px" y="0px"
	 viewBox="0 0 1645 237" style="enable-background:new 0 0 1645 237;" xml:space="preserve">
<style type="text/css">
	.st0{fill:none;}
	.st1{fill:none;stroke:#5B5B5B;stroke-width:18;stroke-linejoin:round;}
	.st2{font-family:'RechargeRg-Bold';}
	.st3{font-size:154px;}
	.st4{enable-background:new    ;}
	.st5{fill:#FCCA52;}
	.st6{fill:none;stroke:#FFFFFF;stroke-miterlimit:10;}
	.st7{fill:#FFFFFF;}
	.st8{fill:#B3B3B3;}
	.st9{fill:#E6E6E6;}
	.st10{fill:#808080;}
</style>
<rect x="216" y="45" class="st0" width="1414" height="165"/>
<g>
	<text transform="matrix(1 0 0 1 216 165.1196)" class="st1 st2 st3">BioThings</text>
	<text transform="matrix(1 0 0 1 1182.6 165.1196)" class="st1 st2 st3"> </text>
	<text transform="matrix(1 0 0 1 1246.9 165.1196)" class="st1 st2 st3">API</text>
</g>
<g>
	<g class="st4">
		<path class="st5" d="M254.8,142.2v22.9h-31.7V57.6c0-3.1,1.5-4.6,4.5-4.6h92.1c10.5,0,18,2.3,22.6,7c4.6,4.7,6.9,11.3,6.9,19.8
			v9.9c0,4.5-0.9,8.2-2.8,10.9c-1.8,2.8-4,5-6.3,6.6c3.3,1.6,6,4.1,8.2,7.2c2.2,3.2,3.2,7.1,3.2,11.9v9.9c0,9.4-2.2,16.6-6.7,21.6
			c-4.5,4.9-12.1,7.4-23,7.4h-57.1l-8.8-22.9H254.8z M257.4,78c-1.7,0-2.6,0.9-2.6,2.6v18.9h53.3c3.5,0,6-0.7,7.4-2
			c1.4-1.3,2.2-3.6,2.2-6.9v-3.4c0-3.4-0.7-5.8-2.2-7.2c-1.4-1.4-3.9-2.1-7.4-2.1H257.4z M254.8,117.7v21.1h55.1
			c2.8,0,4.8-0.7,6.1-2c1.3-1.3,1.9-3.6,1.9-6.9v-3.2c0-3.3-0.6-5.6-1.8-6.9c-1.2-1.3-3.3-2-6.2-2H254.8z"/>
		<path class="st5" d="M362.8,67.3V45h27.9v22.3H362.8z M362.8,165.1V80.6h27.9v84.5H362.8z"/>
		<path class="st5" d="M513.4,131.5c0,5.1-0.6,9.8-1.8,13.9c-1.2,4.1-3.2,7.6-6,10.5s-6.4,5.2-10.8,6.8c-4.4,1.6-9.8,2.4-16,2.4
			h-40.7c-6.3,0-11.6-0.8-15.9-2.4c-4.4-1.6-7.9-3.8-10.7-6.8c-2.8-2.9-4.8-6.4-6-10.5c-1.2-4.1-1.8-8.7-1.8-13.9v-17.4
			c0-5,0.6-9.6,1.8-13.8s3.2-7.7,6-10.6c2.8-2.9,6.3-5.2,10.7-6.8c4.4-1.6,9.7-2.4,15.9-2.4h40.7c6.3,0,11.6,0.8,16,2.4
			c4.4,1.6,8,3.9,10.8,6.8s4.8,6.5,6,10.6s1.8,8.8,1.8,13.8V131.5z M473.6,140.3c4.4,0,7.5-0.9,9.2-2.6c1.7-1.7,2.6-5,2.6-9.9V116
			c0-5.1-0.9-8.6-2.7-10.5c-1.8-1.8-4.9-2.8-9.2-2.8h-30.3c-4.4,0-7.5,1-9.2,2.8c-1.7,1.9-2.5,5.4-2.5,10.4v11.9
			c0,4.8,0.8,8.1,2.5,9.9c1.7,1.7,4.7,2.6,9.2,2.6H473.6z"/>
		<path class="st5" d="M595.6,81v84.1h-31.7V81h-46.5l-10.3-26.8V53h148.6c3,0,4.5,1.5,4.5,4.6v29.1l-29.4,10.9h-1.2V82.7
			c0-1.1-0.6-1.7-1.7-1.7H595.6z"/>
		<path class="st5" d="M670.3,45h27.9v35.6h41.1c6.3,0,11.6,0.8,16,2.4c4.4,1.6,8,3.9,10.7,6.8c2.7,2.9,4.7,6.4,5.9,10.5
			c1.2,4.1,1.8,8.7,1.8,13.9v51h-27.9V116c0-4.9-1-8.4-3-10.3c-2-1.9-5-2.9-8.9-2.9h-30.2l-4.6-12.3h-1.1v74.7h-27.9V45z"/>
		<path class="st5" d="M787.5,67.3V45h27.9v22.3H787.5z M787.5,165.1V80.6h27.9v84.5H787.5z"/>
		<path class="st5" d="M829.7,80.6h69c6.3,0,11.6,0.8,16,2.4c4.4,1.6,8,3.9,10.7,6.8c2.7,2.9,4.7,6.4,5.9,10.5
			c1.2,4.1,1.8,8.7,1.8,13.9v51h-27.9V116c0-4.9-0.9-8.4-2.8-10.3c-1.8-1.9-4.9-2.9-9.1-2.9h-30.2l-4.6-12.3h-1.1v74.7h-27.9V80.6z"
			/>
		<path class="st5" d="M948.9,176.2h61.1c4,0,6.8-0.9,8.4-2.7c1.6-1.8,2.4-4.6,2.4-8.5v-6.8h-41.1c-12.6,0-21.6-2.5-26.8-7.6
			s-7.9-12.8-7.9-23.2v-13.2c0-5.1,0.6-9.8,1.8-13.9c1.2-4.1,3.2-7.6,6-10.5c2.8-2.9,6.3-5.2,10.7-6.8c4.4-1.6,9.7-2.4,16.1-2.4
			h61.4c5.1,0,7.7,2.6,7.7,7.7v78.5c0,4.9-0.6,9.4-1.8,13.5c-1.2,4.1-3.1,7.5-5.8,10.4c-2.7,2.9-6.2,5.1-10.6,6.7
			c-4.4,1.6-9.9,2.4-16.3,2.4h-65.5V176.2z M1019.7,155.1h1.1v-49.7c0-1.7-0.9-2.6-2.6-2.6h-33.3c-4.3,0-7.4,1-9.2,2.8
			c-1.8,1.9-2.8,5.3-2.8,10.2v7.9c0,4.6,0.9,7.8,2.7,9.5c1.8,1.7,4.9,2.5,9.3,2.5h27.3L1019.7,155.1z"/>
		<path class="st5" d="M1061.8,141.4h69.1c1.6,0,2.8-0.3,3.4-1c0.6-0.7,0.9-1.8,0.9-3.3v-1.8c0-1.1-0.2-2-0.6-2.5
			c-0.4-0.6-1.2-0.9-2.5-1l-52.5-4.5c-6.5-0.5-11.2-2.5-14.3-6c-3.1-3.5-4.6-8.2-4.6-14v-6.8c0-6.2,1.7-11,5.1-14.6
			s8.9-5.3,16.6-5.3h76.2c2.6,0,3.8,1.3,3.8,3.8v18.9l-24,8.9h-1.1v-9.7c0-0.8-0.4-1.2-1.1-1.2h-44c-1.5,0-2.6,0.3-3.2,0.9
			s-0.9,1.6-0.9,3.1v2.3c0,1.4,0.2,2.4,0.7,2.8c0.5,0.4,1.3,0.7,2.5,0.9l53.7,5.2c3.6,0.3,6.6,1,8.9,2c2.4,1,4.3,2.4,5.7,4.1
			c1.4,1.7,2.4,3.8,3,6.2c0.6,2.5,0.8,5.3,0.8,8.6v6.3c0,6.8-1.8,12-5.3,15.7c-3.5,3.7-9.8,5.5-18.9,5.5h-77.6V141.4z"/>
	</g>
	<g class="st4">
		<path class="st6" d="M254.8,142.2v22.9h-31.7V57.6c0-3.1,1.5-4.6,4.5-4.6h92.1c10.5,0,18,2.3,22.6,7c4.6,4.7,6.9,11.3,6.9,19.8
			v9.9c0,4.5-0.9,8.2-2.8,10.9c-1.8,2.8-4,5-6.3,6.6c3.3,1.6,6,4.1,8.2,7.2c2.2,3.2,3.2,7.1,3.2,11.9v9.9c0,9.4-2.2,16.6-6.7,21.6
			c-4.5,4.9-12.1,7.4-23,7.4h-57.1l-8.8-22.9H254.8z M257.4,78c-1.7,0-2.6,0.9-2.6,2.6v18.9h53.3c3.5,0,6-0.7,7.4-2
			c1.4-1.3,2.2-3.6,2.2-6.9v-3.4c0-3.4-0.7-5.8-2.2-7.2c-1.4-1.4-3.9-2.1-7.4-2.1H257.4z M254.8,117.7v21.1h55.1
			c2.8,0,4.8-0.7,6.1-2c1.3-1.3,1.9-3.6,1.9-6.9v-3.2c0-3.3-0.6-5.6-1.8-6.9c-1.2-1.3-3.3-2-6.2-2H254.8z"/>
		<path class="st6" d="M362.8,67.3V45h27.9v22.3H362.8z M362.8,165.1V80.6h27.9v84.5H362.8z"/>
		<path class="st6" d="M513.4,131.5c0,5.1-0.6,9.8-1.8,13.9c-1.2,4.1-3.2,7.6-6,10.5s-6.4,5.2-10.8,6.8c-4.4,1.6-9.8,2.4-16,2.4
			h-40.7c-6.3,0-11.6-0.8-15.9-2.4c-4.4-1.6-7.9-3.8-10.7-6.8c-2.8-2.9-4.8-6.4-6-10.5c-1.2-4.1-1.8-8.7-1.8-13.9v-17.4
			c0-5,0.6-9.6,1.8-13.8s3.2-7.7,6-10.6c2.8-2.9,6.3-5.2,10.7-6.8c4.4-1.6,9.7-2.4,15.9-2.4h40.7c6.3,0,11.6,0.8,16,2.4
			c4.4,1.6,8,3.9,10.8,6.8s4.8,6.5,6,10.6s1.8,8.8,1.8,13.8V131.5z M473.6,140.3c4.4,0,7.5-0.9,9.2-2.6c1.7-1.7,2.6-5,2.6-9.9V116
			c0-5.1-0.9-8.6-2.7-10.5c-1.8-1.8-4.9-2.8-9.2-2.8h-30.3c-4.4,0-7.5,1-9.2,2.8c-1.7,1.9-2.5,5.4-2.5,10.4v11.9
			c0,4.8,0.8,8.1,2.5,9.9c1.7,1.7,4.7,2.6,9.2,2.6H473.6z"/>
		<path class="st6" d="M595.6,81v84.1h-31.7V81h-46.5l-10.3-26.8V53h148.6c3,0,4.5,1.5,4.5,4.6v29.1l-29.4,10.9h-1.2V82.7
			c0-1.1-0.6-1.7-1.7-1.7H595.6z"/>
		<path class="st6" d="M670.3,45h27.9v35.6h41.1c6.3,0,11.6,0.8,16,2.4c4.4,1.6,8,3.9,10.7,6.8c2.7,2.9,4.7,6.4,5.9,10.5
			c1.2,4.1,1.8,8.7,1.8,13.9v51h-27.9V116c0-4.9-1-8.4-3-10.3c-2-1.9-5-2.9-8.9-2.9h-30.2l-4.6-12.3h-1.1v74.7h-27.9V45z"/>
		<path class="st6" d="M787.5,67.3V45h27.9v22.3H787.5z M787.5,165.1V80.6h27.9v84.5H787.5z"/>
		<path class="st6" d="M829.7,80.6h69c6.3,0,11.6,0.8,16,2.4c4.4,1.6,8,3.9,10.7,6.8c2.7,2.9,4.7,6.4,5.9,10.5
			c1.2,4.1,1.8,8.7,1.8,13.9v51h-27.9V116c0-4.9-0.9-8.4-2.8-10.3c-1.8-1.9-4.9-2.9-9.1-2.9h-30.2l-4.6-12.3h-1.1v74.7h-27.9V80.6z"
			/>
		<path class="st6" d="M948.9,176.2h61.1c4,0,6.8-0.9,8.4-2.7c1.6-1.8,2.4-4.6,2.4-8.5v-6.8h-41.1c-12.6,0-21.6-2.5-26.8-7.6
			s-7.9-12.8-7.9-23.2v-13.2c0-5.1,0.6-9.8,1.8-13.9c1.2-4.1,3.2-7.6,6-10.5c2.8-2.9,6.3-5.2,10.7-6.8c4.4-1.6,9.7-2.4,16.1-2.4
			h61.4c5.1,0,7.7,2.6,7.7,7.7v78.5c0,4.9-0.6,9.4-1.8,13.5c-1.2,4.1-3.1,7.5-5.8,10.4c-2.7,2.9-6.2,5.1-10.6,6.7
			c-4.4,1.6-9.9,2.4-16.3,2.4h-65.5V176.2z M1019.7,155.1h1.1v-49.7c0-1.7-0.9-2.6-2.6-2.6h-33.3c-4.3,0-7.4,1-9.2,2.8
			c-1.8,1.9-2.8,5.3-2.8,10.2v7.9c0,4.6,0.9,7.8,2.7,9.5c1.8,1.7,4.9,2.5,9.3,2.5h27.3L1019.7,155.1z"/>
		<path class="st6" d="M1061.8,141.4h69.1c1.6,0,2.8-0.3,3.4-1c0.6-0.7,0.9-1.8,0.9-3.3v-1.8c0-1.1-0.2-2-0.6-2.5
			c-0.4-0.6-1.2-0.9-2.5-1l-52.5-4.5c-6.5-0.5-11.2-2.5-14.3-6c-3.1-3.5-4.6-8.2-4.6-14v-6.8c0-6.2,1.7-11,5.1-14.6
			s8.9-5.3,16.6-5.3h76.2c2.6,0,3.8,1.3,3.8,3.8v18.9l-24,8.9h-1.1v-9.7c0-0.8-0.4-1.2-1.1-1.2h-44c-1.5,0-2.6,0.3-3.2,0.9
			s-0.9,1.6-0.9,3.1v2.3c0,1.4,0.2,2.4,0.7,2.8c0.5,0.4,1.3,0.7,2.5,0.9l53.7,5.2c3.6,0.3,6.6,1,8.9,2c2.4,1,4.3,2.4,5.7,4.1
			c1.4,1.7,2.4,3.8,3,6.2c0.6,2.5,0.8,5.3,0.8,8.6v6.3c0,6.8-1.8,12-5.3,15.7c-3.5,3.7-9.8,5.5-18.9,5.5h-77.6V141.4z"/>
	</g>
	<g class="st4">
		<path class="st7" d="M1285.6,165.1h-36.7v-1.2l56.2-107.2c0.7-1.4,1.4-2.4,2.2-2.9c0.7-0.5,1.9-0.8,3.7-0.8h38.7
			c1.7,0,3,0.3,3.8,0.8c0.8,0.5,1.6,1.5,2.4,2.9l55.7,107.2v1.2h-95.9l-9.2-24.3v-3.1h31.4c3.3,0,6.1,0,8.5,0c2.4,0,4.5,0,6.4,0.1
			c1.8,0.1,3.5,0.1,4.9,0.2c1.4,0.1,2.8,0.2,4.2,0.3l0.5-1.1c-0.6-1.1-1.3-2.2-1.9-3.3c-0.7-1.1-1.4-2.4-2.2-3.9
			c-0.8-1.5-1.8-3.4-2.9-5.5c-1.1-2.2-2.5-4.9-4.2-8.2l-17.7-35.4c-0.4-0.7-1.1-1.1-2.2-1.1h-1.8c-0.9,0-1.6,0.4-2,1.1L1285.6,165.1
			z"/>
		<path class="st7" d="M1453.4,116h-1.1v49.1h-31.7V57.6c0-3.1,1.5-4.6,4.5-4.6h86.9c7.6,0,14,0.9,19.3,2.8
			c5.3,1.8,9.6,4.5,12.9,7.9c3.3,3.4,5.7,7.6,7.2,12.6c1.5,4.9,2.2,10.5,2.2,16.6v9.1c0,12.8-3.1,22.5-9.3,28.9
			c-6.2,6.4-16.5,9.6-30.7,9.6h-50.7L1453.4,116z M1454.3,81c-1.3,0-2,0.7-2,2.2v29.9h55.6c5.1,0,8.7-1,10.8-3.1
			c2.1-2.1,3.1-5.4,3.1-10v-5.5c0-5.2-1-8.8-3.1-10.6c-2.1-1.8-5.6-2.8-10.8-2.8H1454.3z"/>
		<path class="st7" d="M1564.4,165.1V53h31.7v112.1H1564.4z"/>
	</g>
	<g class="st4">
		<path class="st6" d="M1285.6,165.1h-36.7v-1.2l56.2-107.2c0.7-1.4,1.4-2.4,2.2-2.9c0.7-0.5,1.9-0.8,3.7-0.8h38.7
			c1.7,0,3,0.3,3.8,0.8c0.8,0.5,1.6,1.5,2.4,2.9l55.7,107.2v1.2h-95.9l-9.2-24.3v-3.1h31.4c3.3,0,6.1,0,8.5,0c2.4,0,4.5,0,6.4,0.1
			c1.8,0.1,3.5,0.1,4.9,0.2c1.4,0.1,2.8,0.2,4.2,0.3l0.5-1.1c-0.6-1.1-1.3-2.2-1.9-3.3c-0.7-1.1-1.4-2.4-2.2-3.9
			c-0.8-1.5-1.8-3.4-2.9-5.5c-1.1-2.2-2.5-4.9-4.2-8.2l-17.7-35.4c-0.4-0.7-1.1-1.1-2.2-1.1h-1.8c-0.9,0-1.6,0.4-2,1.1L1285.6,165.1
			z"/>
		<path class="st6" d="M1453.4,116h-1.1v49.1h-31.7V57.6c0-3.1,1.5-4.6,4.5-4.6h86.9c7.6,0,14,0.9,19.3,2.8
			c5.3,1.8,9.6,4.5,12.9,7.9c3.3,3.4,5.7,7.6,7.2,12.6c1.5,4.9,2.2,10.5,2.2,16.6v9.1c0,12.8-3.1,22.5-9.3,28.9
			c-6.2,6.4-16.5,9.6-30.7,9.6h-50.7L1453.4,116z M1454.3,81c-1.3,0-2,0.7-2,2.2v29.9h55.6c5.1,0,8.7-1,10.8-3.1
			c2.1-2.1,3.1-5.4,3.1-10v-5.5c0-5.2-1-8.8-3.1-10.6c-2.1-1.8-5.6-2.8-10.8-2.8H1454.3z"/>
		<path class="st6" d="M1564.4,165.1V53h31.7v112.1H1564.4z"/>
	</g>
</g>
<g>
	<g>
		<g>
			<g>
				<polygon class="st1" points="118.7,86 97.4,117 67.6,117 88.9,86 				"/>
			</g>
			<g>
				<polygon class="st1" points="118.6,86.2 140.2,117.1 118.6,148 97.4,117.1 				"/>
			</g>
			<g>
				<polygon class="st1" points="97.4,117 118.7,148 88.9,148 67.6,117 				"/>
			</g>
		</g>
		<g>
			<g>
				<polygon class="st1" points="118.7,24.1 97.4,55.1 67.6,55.1 88.9,24.1 				"/>
			</g>
			<g>
				<polygon class="st1" points="118.6,24.2 140.2,55.2 118.6,86.2 97.4,55.2 				"/>
			</g>
			<g>
				<polygon class="st1" points="97.4,55.1 118.6,86 88.9,86 67.7,55.1 				"/>
			</g>
		</g>
		<g>
			<g>
				<polygon class="st1" points="118.7,148 97.4,178.9 67.6,178.9 88.9,148 				"/>
			</g>
			<g>
				<polygon class="st1" points="118.6,148 140.2,179 118.6,210 97.4,179 				"/>
			</g>
			<g>
				<polygon class="st1" points="97.4,178.9 118.6,209.9 88.9,209.9 67.7,178.9 				"/>
			</g>
		</g>
		<g>
			<g>
				<polygon class="st1" points="169.9,117 148.6,148 118.7,148 140,117 				"/>
			</g>
			<g>
				<polygon class="st1" points="169.9,117.1 191.3,148 169.9,179.1 148.6,148 				"/>
			</g>
			<g>
				<polygon class="st1" points="148.6,148 169.8,178.9 140,178.9 118.8,148 				"/>
			</g>
		</g>
		<g>
			<g>
				<polygon class="st1" points="169.7,55.1 148.5,86 118.6,86 139.9,55.1 				"/>
			</g>
			<g>
				<polygon class="st1" points="169.7,55.2 191.2,86.1 169.7,117.1 148.5,86.1 				"/>
			</g>
			<g>
				<polygon class="st1" points="148.5,86 169.6,117 139.9,117 118.7,86 				"/>
			</g>
		</g>
		<g>
			<g>
				<polygon class="st1" points="68,117 46.8,148 16.9,148 38.2,117 				"/>
			</g>
			<g>
				<polygon class="st1" points="68,117.1 89.5,148 68,179.1 46.8,148 				"/>
			</g>
			<g>
				<polygon class="st1" points="46.8,148 67.9,178.9 38.2,178.9 17,148 				"/>
			</g>
		</g>
		<g>
			<g>
				<polygon class="st1" points="67.9,55.1 46.6,86 16.8,86 38.1,55.1 				"/>
			</g>
			<g>
				<polygon class="st1" points="67.9,55.2 89.4,86.1 67.9,117.1 46.6,86.1 				"/>
			</g>
			<g>
				<polygon class="st1" points="46.6,86 67.8,117 38.1,117 16.9,86 				"/>
			</g>
		</g>
	</g>
	<g>
		<g>
			<g>
				<polygon class="st8" points="118.7,86 97.4,117 67.6,117 88.9,86 				"/>
			</g>
			<g>
				<polygon class="st9" points="118.6,86.2 140.2,117.1 118.6,148 97.4,117.1 				"/>
			</g>
			<g>
				<polygon class="st10" points="97.4,117 118.7,148 88.9,148 67.6,117 				"/>
			</g>
		</g>
		<g>
			<g>
				<polygon class="st8" points="118.7,24.1 97.4,55.1 67.6,55.1 88.9,24.1 				"/>
			</g>
			<g>
				<polygon class="st9" points="118.6,24.2 140.2,55.2 118.6,86.2 97.4,55.2 				"/>
			</g>
			<g>
				<polygon class="st10" points="97.4,55.1 118.6,86 88.9,86 67.7,55.1 				"/>
			</g>
		</g>
		<g>
			<g>
				<polygon class="st8" points="118.7,148 97.4,178.9 67.6,178.9 88.9,148 				"/>
			</g>
			<g>
				<polygon class="st9" points="118.6,148 140.2,179 118.6,210 97.4,179 				"/>
			</g>
			<g>
				<polygon class="st10" points="97.4,178.9 118.6,209.9 88.9,209.9 67.7,178.9 				"/>
			</g>
		</g>
		<g>
			<g>
				<polygon class="st8" points="169.9,117 148.6,148 118.7,148 140,117 				"/>
			</g>
			<g>
				<polygon class="st9" points="169.9,117.1 191.3,148 169.9,179.1 148.6,148 				"/>
			</g>
			<g>
				<polygon class="st10" points="148.6,148 169.8,178.9 140,178.9 118.8,148 				"/>
			</g>
		</g>
		<g>
			<g>
				<polygon class="st8" points="169.7,55.1 148.5,86 118.6,86 139.9,55.1 				"/>
			</g>
			<g>
				<polygon class="st9" points="169.7,55.2 191.2,86.1 169.7,117.1 148.5,86.1 				"/>
			</g>
			<g>
				<polygon class="st10" points="148.5,86 169.6,117 139.9,117 118.7,86 				"/>
			</g>
		</g>
		<g>
			<g>
				<polygon class="st8" points="68,117 46.8,148 16.9,148 38.2,117 				"/>
			</g>
			<g>
				<polygon class="st9" points="68,117.1 89.5,148 68,179.1 46.8,148 				"/>
			</g>
			<g>
				<polygon class="st10" points="46.8,148 67.9,178.9 38.2,178.9 17,148 				"/>
			</g>
		</g>
		<g>
			<g>
				<polygon class="st8" points="67.9,55.1 46.6,86 16.8,86 38.1,55.1 				"/>
			</g>
			<g>
				<polygon class="st9" points="67.9,55.2 89.4,86.1 67.9,117.1 46.6,86.1 				"/>
			</g>
			<g>
				<polygon class="st10" points="46.6,86 67.8,117 38.1,117 16.9,86 				"/>
			</g>
		</g>
	</g>
</g>
</svg>
