<?xml version="1.0" encoding="utf-8"?>
<!-- Generator: Adobe Illustrator 22.1.0, SVG Export Plug-In . SVG Version: 6.00 Build 0)  -->
<svg version="1.1" id="Layer_1" xmlns="http://www.w3.org/2000/svg" xmlns:xlink="http://www.w3.org/1999/xlink" x="0px" y="0px"
	 viewBox="0 0 964 745" style="enable-background:new 0 0 964 745;" xml:space="preserve">
<style type="text/css">
	.st0{fill:none;}
	.st1{fill:#FCCA52;}
	.st2{font-family:'RechargeRg-Bold';}
	.st3{font-size:101px;}
	.st4{fill:#D9D9D9;}
	.st5{fill:#FFFFFF;}
	.st6{fill:#B3B3B3;}
	.st7{fill:#E6E6E6;}
	.st8{fill:#808080;}
</style>
<rect x="26.8" y="562" class="st0" width="923" height="119"/>
<text transform="matrix(1 0 0 1 26.7878 640.7798)"><tspan x="0" y="0" class="st1 st2 st3">BioThings</tspan><tspan x="634" y="0" class="st4 st2 st3"> </tspan><tspan x="676.1" y="0" class="st5 st2 st3">API</tspan></text>
<g>
	<g>
		<g>
			<polygon class="st6" points="526,199 471,278.9 394.1,278.9 449,199 			"/>
		</g>
		<g>
			<polygon class="st7" points="525.9,199.4 581.5,279.2 525.9,359.1 471,279.2 			"/>
		</g>
		<g>
			<polygon class="st8" points="471,278.9 526,358.9 449,358.9 394.1,278.9 			"/>
		</g>
	</g>
	<g>
		<g>
			<polygon class="st6" points="526,39.1 471,119.1 394.1,119.1 449,39.1 			"/>
		</g>
		<g>
			<polygon class="st7" points="525.9,39.4 581.5,119.3 525.9,199.4 471,119.3 			"/>
		</g>
		<g>
			<polygon class="st8" points="471,119.1 525.8,199 449,199 394.3,119.1 			"/>
		</g>
	</g>
	<g>
		<g>
			<polygon class="st6" points="526,358.9 471,438.8 394.1,438.8 449,358.9 			"/>
		</g>
		<g>
			<polygon class="st7" points="525.9,359.1 581.5,438.9 525.9,519 471,438.9 			"/>
		</g>
		<g>
			<polygon class="st8" points="471,438.8 525.8,518.7 449,518.7 394.3,438.8 			"/>
		</g>
	</g>
	<g>
		<g>
			<polygon class="st6" points="658.2,278.9 603.3,358.9 526.1,358.9 581,278.9 			"/>
		</g>
		<g>
			<polygon class="st7" points="658.2,279.2 713.5,359.1 658.2,439.2 603.3,359.1 			"/>
		</g>
		<g>
			<polygon class="st8" points="603.3,358.9 658,438.8 581,438.8 526.3,358.9 			"/>
		</g>
	</g>
	<g>
		<g>
			<polygon class="st6" points="657.7,119.1 603,199 525.8,199 580.8,119.1 			"/>
		</g>
		<g>
			<polygon class="st7" points="657.7,119.3 713.3,199.1 657.7,279.2 603,199.1 			"/>
		</g>
		<g>
			<polygon class="st8" points="603,199 657.5,278.9 580.8,278.9 526,199 			"/>
		</g>
	</g>
	<g>
		<g>
			<polygon class="st6" points="395.2,278.9 340.5,358.9 263.3,358.9 318.2,278.9 			"/>
		</g>
		<g>
			<polygon class="st7" points="395.1,279.2 450.7,359.1 395.1,439.2 340.5,359.1 			"/>
		</g>
		<g>
			<polygon class="st8" points="340.5,358.9 395,438.8 318.3,438.8 263.5,358.9 			"/>
		</g>
	</g>
	<g>
		<g>
			<polygon class="st6" points="395,119.1 340,199 263,199 318,119.1 			"/>
		</g>
		<g>
			<polygon class="st7" points="394.9,119.3 450.5,199.1 394.9,279.2 340,199.1 			"/>
		</g>
		<g>
			<polygon class="st8" points="340,199 394.7,278.9 318,278.9 263.3,199 			"/>
		</g>
	</g>
</g>
</svg>
