<?xml version="1.0" encoding="utf-8"?>
<!-- Generator: Adobe Illustrator 22.1.0, SVG Export Plug-In . SVG Version: 6.00 Build 0)  -->
<svg version="1.1" id="Layer_1" xmlns="http://www.w3.org/2000/svg" xmlns:xlink="http://www.w3.org/1999/xlink" x="0px" y="0px"
	 viewBox="0 0 200 200" style="enable-background:new 0 0 200 200;" xml:space="preserve">
<style type="text/css">
	.st0{fill:#F9B570;}
	.st1{fill:#FF8E39;}
	.st2{fill:none;}
	.st3{enable-background:new    ;}
	.st4{fill:#FFFFFF;}
	.st5{fill:url(#SVGID_1_);}
</style>
<circle class="st0" cx="100" cy="100" r="98"/>
<path class="st1" d="M100,191.1c-53,0-96.2-40.5-97.9-91.1c0,1.1-0.1,2.1-0.1,3.2c0,52.1,43.9,94.3,98,94.3s98-42.2,98-94.3
	c0-1.1,0-2.1-0.1-3.2C196.2,150.6,153,191.1,100,191.1z"/>
<rect x="34.5" y="33.7" class="st2" width="140.8" height="123.7"/>
<g class="st3">
	<path class="st4" d="M73.3,87.5h-1v32.7c0,1.4,0.7,2.1,2.1,2.1h92.1v28.3H45.7c-2.9,0-4.4-1.5-4.4-4.5V46c0-3,1.4-4.5,4.4-4.5H163
		c3,0,4.5,1.5,4.5,4.5v28.4L138.9,85h-1.2V70.4c0-1.1-0.5-1.6-1.5-1.6h-62c-0.8,0-1.3,0.2-1.6,0.7c-0.3,0.5-0.4,0.9-0.4,1.4v13.6h51
		v22.2H80.5L73.3,87.5z"/>
</g>
<linearGradient id="SVGID_1_" gradientUnits="userSpaceOnUse" x1="100" y1="133" x2="100" y2="194.3333" gradientTransform="matrix(1 0 0 -1 0 200)">
	<stop  offset="0" style="stop-color:#FFFFFF;stop-opacity:0"/>
	<stop  offset="1" style="stop-color:#FFFFFF"/>
</linearGradient>
<ellipse class="st5" cx="100" cy="36.3" rx="59.8" ry="30.7"/>
</svg>
