<?xml version="1.0" encoding="utf-8"?>
<!-- Generator: Adobe Illustrator 22.1.0, SVG Export Plug-In . SVG Version: 6.00 Build 0)  -->
<svg version="1.1" id="Layer_1" xmlns="http://www.w3.org/2000/svg" xmlns:xlink="http://www.w3.org/1999/xlink" x="0px" y="0px"
	 viewBox="0 0 964 745" style="enable-background:new 0 0 964 745;" xml:space="preserve">
<style type="text/css">
	.st0{fill:none;}
	.st1{fill:none;stroke:#5B5B5B;stroke-width:18;stroke-linejoin:round;}
	.st2{font-family:'RechargeRg-Bold';}
	.st3{font-size:101px;}
	.st4{enable-background:new    ;}
	.st5{fill:#FCCA52;}
	.st6{fill:#FFFFFF;}
	.st7{fill:none;stroke:#5B5B5B;stroke-width:32;stroke-linejoin:round;}
	.st8{fill:#B3B3B3;}
	.st9{fill:#E6E6E6;}
	.st10{fill:#808080;}
</style>
<rect x="26.8" y="562" class="st0" width="923" height="119"/>
<g>
	<text transform="matrix(1 0 0 1 26.7878 640.7798)" class="st1 st2 st3">BioThings</text>
	<text transform="matrix(1 0 0 1 660.7878 640.7798)" class="st1 st2 st3"> </text>
	<text transform="matrix(1 0 0 1 702.8878 640.7798)" class="st1 st2 st3">API</text>
</g>
<g>
	<g class="st4">
		<path class="st5" d="M52.2,625.7v15H31.4v-70.5c0-2,1-3,2.9-3h60.4c6.9,0,11.8,1.5,14.8,4.6c3,3.1,4.5,7.4,4.5,13v6.5
			c0,3-0.6,5.4-1.8,7.2s-2.6,3.3-4.1,4.3c2.2,1.1,3.9,2.7,5.4,4.7c1.4,2.1,2.1,4.7,2.1,7.8v6.5c0,6.2-1.5,10.9-4.4,14.1
			c-2.9,3.2-8,4.8-15.1,4.8H58.7l-5.8-15H52.2z M54,583.6c-1.1,0-1.7,0.6-1.7,1.7v12.4h34.9c2.3,0,3.9-0.4,4.8-1.3
			c0.9-0.9,1.4-2.4,1.4-4.5v-2.2c0-2.2-0.5-3.8-1.4-4.7c-0.9-0.9-2.6-1.4-4.8-1.4H54z M52.2,609.7v13.8h36.2c1.8,0,3.1-0.4,4-1.3
			c0.8-0.9,1.3-2.4,1.3-4.5v-2.1c0-2.2-0.4-3.7-1.2-4.5c-0.8-0.9-2.1-1.3-4.1-1.3H52.2z"/>
		<path class="st5" d="M123,576.6V562h18.3v14.6H123z M123,640.8v-55.4h18.3v55.4H123z"/>
		<path class="st5" d="M221.8,618.8c0,3.4-0.4,6.4-1.2,9.1c-0.8,2.7-2.1,5-3.9,6.9c-1.8,1.9-4.2,3.4-7.1,4.4
			c-2.9,1-6.4,1.6-10.5,1.6h-26.7c-4.1,0-7.6-0.5-10.5-1.6c-2.9-1-5.2-2.5-7-4.4c-1.8-1.9-3.1-4.2-3.9-6.9c-0.8-2.7-1.2-5.7-1.2-9.1
			v-11.4c0-3.3,0.4-6.3,1.2-9c0.8-2.7,2.1-5,3.9-7c1.8-1.9,4.2-3.4,7-4.4c2.9-1,6.3-1.6,10.5-1.6h26.7c4.1,0,7.6,0.5,10.5,1.6
			c2.9,1,5.3,2.5,7.1,4.4c1.8,1.9,3.1,4.2,3.9,7c0.8,2.7,1.2,5.7,1.2,9V618.8z M195.8,624.5c2.9,0,4.9-0.6,6.1-1.7
			c1.1-1.1,1.7-3.3,1.7-6.5v-7.8c0-3.4-0.6-5.7-1.8-6.9c-1.2-1.2-3.2-1.8-6-1.8h-19.9c-2.9,0-4.9,0.6-6,1.9
			c-1.1,1.2-1.7,3.5-1.7,6.8v7.8c0,3.2,0.6,5.3,1.7,6.5c1.1,1.1,3.1,1.7,6,1.7H195.8z"/>
		<path class="st5" d="M275.8,585.6v55.1h-20.8v-55.1h-30.5l-6.8-17.6v-0.8h97.5c2,0,2.9,1,2.9,3v19.1l-19.3,7.2H298v-9.8
			c0-0.7-0.4-1.1-1.1-1.1H275.8z"/>
		<path class="st5" d="M324.7,562H343v23.3h27c4.1,0,7.6,0.5,10.5,1.6c2.9,1,5.2,2.5,7,4.4c1.8,1.9,3.1,4.2,3.9,6.9
			c0.8,2.7,1.2,5.7,1.2,9.1v33.4h-18.3v-32.2c0-3.2-0.7-5.5-2-6.8c-1.3-1.3-3.2-1.9-5.8-1.9h-19.8l-3-8.1H343v49h-18.3V562z"/>
		<path class="st5" d="M401.6,576.6V562h18.3v14.6H401.6z M401.6,640.8v-55.4h18.3v55.4H401.6z"/>
		<path class="st5" d="M429.3,585.3h45.2c4.1,0,7.6,0.5,10.5,1.6c2.9,1,5.2,2.5,7,4.4c1.8,1.9,3.1,4.2,3.9,6.9
			c0.8,2.7,1.2,5.7,1.2,9.1v33.4h-18.3v-32.2c0-3.2-0.6-5.5-1.8-6.8c-1.2-1.3-3.2-1.9-6-1.9h-19.8l-3-8.1h-0.7v49h-18.3V585.3z"/>
		<path class="st5" d="M507.4,648.1h40.1c2.6,0,4.5-0.6,5.5-1.8c1-1.2,1.6-3,1.6-5.6v-4.4h-27c-8.3,0-14.1-1.7-17.6-5
			c-3.4-3.3-5.2-8.4-5.2-15.2v-8.7c0-3.4,0.4-6.4,1.2-9.1c0.8-2.7,2.1-5,3.9-6.9c1.8-1.9,4.2-3.4,7-4.4c2.9-1,6.4-1.6,10.6-1.6h40.3
			c3.4,0,5,1.7,5,5.1v51.5c0,3.2-0.4,6.2-1.2,8.8c-0.8,2.7-2,4.9-3.8,6.8s-4.1,3.3-7,4.4c-2.9,1-6.5,1.6-10.7,1.6h-42.9V648.1z
			 M553.9,634.2h0.7v-32.6c0-1.1-0.6-1.7-1.7-1.7h-21.8c-2.8,0-4.8,0.6-6.1,1.9c-1.2,1.2-1.8,3.5-1.8,6.7v5.2c0,3,0.6,5.1,1.8,6.2
			c1.2,1.1,3.2,1.7,6.1,1.7H549L553.9,634.2z"/>
		<path class="st5" d="M581.5,625.2h45.3c1.1,0,1.8-0.2,2.2-0.7c0.4-0.4,0.6-1.2,0.6-2.2v-1.2c0-0.7-0.1-1.3-0.4-1.7
			c-0.3-0.4-0.8-0.6-1.6-0.7l-34.4-2.9c-4.2-0.3-7.4-1.6-9.4-3.9c-2-2.3-3-5.4-3-9.2v-4.4c0-4,1.1-7.2,3.3-9.5
			c2.2-2.3,5.9-3.5,10.9-3.5h50c1.7,0,2.5,0.8,2.5,2.5v12.4l-15.8,5.9h-0.7v-6.4c0-0.5-0.2-0.8-0.7-0.8h-28.9c-1,0-1.7,0.2-2.1,0.6
			c-0.4,0.4-0.6,1.1-0.6,2v1.5c0,0.9,0.2,1.5,0.5,1.8c0.3,0.3,0.9,0.5,1.7,0.6l35.2,3.4c2.4,0.2,4.3,0.6,5.9,1.3
			c1.5,0.7,2.8,1.6,3.7,2.7c0.9,1.1,1.6,2.5,2,4.1c0.4,1.6,0.6,3.5,0.6,5.7v4.1c0,4.4-1.2,7.9-3.5,10.3s-6.4,3.6-12.4,3.6h-50.9
			V625.2z"/>
	</g>
	<g class="st4">
		<path class="st6" d="M728.2,640.8h-24V640l36.9-70.3c0.5-0.9,0.9-1.6,1.4-1.9c0.5-0.3,1.3-0.5,2.4-0.5h25.4c1.1,0,2,0.2,2.5,0.5
			c0.5,0.3,1,1,1.6,1.9l36.6,70.3v0.8h-62.9l-6.1-16v-2h20.6c2.2,0,4,0,5.6,0s3,0,4.2,0c1.2,0,2.3,0.1,3.2,0.2
			c0.9,0.1,1.9,0.1,2.7,0.2l0.3-0.7c-0.4-0.7-0.8-1.5-1.3-2.2c-0.4-0.7-0.9-1.6-1.5-2.6c-0.5-1-1.2-2.2-1.9-3.6
			c-0.7-1.4-1.7-3.2-2.7-5.4l-11.6-23.2c-0.3-0.5-0.7-0.7-1.4-0.7h-1.2c-0.6,0-1,0.2-1.3,0.7L728.2,640.8z"/>
		<path class="st6" d="M838.3,608.6h-0.7v32.2h-20.8v-70.5c0-2,1-3,2.9-3h57c5,0,9.2,0.6,12.7,1.8c3.5,1.2,6.3,2.9,8.4,5.2
			c2.2,2.3,3.7,5,4.7,8.2c1,3.2,1.5,6.9,1.5,10.9v6c0,8.4-2,14.7-6.1,18.9c-4.1,4.2-10.8,6.3-20.1,6.3h-33.2L838.3,608.6z
			 M838.9,585.6c-0.9,0-1.3,0.5-1.3,1.4v19.6h36.5c3.4,0,5.7-0.7,7.1-2c1.3-1.3,2-3.5,2-6.6v-3.6c0-3.4-0.7-5.8-2-7
			c-1.3-1.2-3.7-1.8-7.1-1.8H838.9z"/>
		<path class="st6" d="M911.1,640.8v-73.5H932v73.5H911.1z"/>
	</g>
</g>
<g>
	<g>
		<g>
			<g>
				<polygon class="st7" points="526,199 471,278.9 394.1,278.9 449,199 				"/>
			</g>
			<g>
				<polygon class="st7" points="525.9,199.4 581.5,279.2 525.9,359.1 471,279.2 				"/>
			</g>
			<g>
				<polygon class="st7" points="471,278.9 526,358.9 449,358.9 394.1,278.9 				"/>
			</g>
		</g>
		<g>
			<g>
				<polygon class="st7" points="526,39.1 471,119.1 394.1,119.1 449,39.1 				"/>
			</g>
			<g>
				<polygon class="st7" points="525.9,39.4 581.5,119.3 525.9,199.4 471,119.3 				"/>
			</g>
			<g>
				<polygon class="st7" points="471,119.1 525.8,199 449,199 394.3,119.1 				"/>
			</g>
		</g>
		<g>
			<g>
				<polygon class="st7" points="526,358.9 471,438.8 394.1,438.8 449,358.9 				"/>
			</g>
			<g>
				<polygon class="st7" points="525.9,359.1 581.5,438.9 525.9,519 471,438.9 				"/>
			</g>
			<g>
				<polygon class="st7" points="471,438.8 525.8,518.7 449,518.7 394.3,438.8 				"/>
			</g>
		</g>
		<g>
			<g>
				<polygon class="st7" points="658.2,278.9 603.3,358.9 526.1,358.9 581,278.9 				"/>
			</g>
			<g>
				<polygon class="st7" points="658.2,279.2 713.5,359.1 658.2,439.2 603.3,359.1 				"/>
			</g>
			<g>
				<polygon class="st7" points="603.3,358.9 658,438.8 581,438.8 526.3,358.9 				"/>
			</g>
		</g>
		<g>
			<g>
				<polygon class="st7" points="657.7,119.1 603,199 525.8,199 580.8,119.1 				"/>
			</g>
			<g>
				<polygon class="st7" points="657.7,119.3 713.3,199.1 657.7,279.2 603,199.1 				"/>
			</g>
			<g>
				<polygon class="st7" points="603,199 657.5,278.9 580.8,278.9 526,199 				"/>
			</g>
		</g>
		<g>
			<g>
				<polygon class="st7" points="395.2,278.9 340.5,358.9 263.3,358.9 318.2,278.9 				"/>
			</g>
			<g>
				<polygon class="st7" points="395.1,279.2 450.7,359.1 395.1,439.2 340.5,359.1 				"/>
			</g>
			<g>
				<polygon class="st7" points="340.5,358.9 395,438.8 318.3,438.8 263.5,358.9 				"/>
			</g>
		</g>
		<g>
			<g>
				<polygon class="st7" points="395,119.1 340,199 263,199 318,119.1 				"/>
			</g>
			<g>
				<polygon class="st7" points="394.9,119.3 450.5,199.1 394.9,279.2 340,199.1 				"/>
			</g>
			<g>
				<polygon class="st7" points="340,199 394.7,278.9 318,278.9 263.3,199 				"/>
			</g>
		</g>
	</g>
	<g>
		<g>
			<g>
				<polygon class="st8" points="526,199 471,278.9 394.1,278.9 449,199 				"/>
			</g>
			<g>
				<polygon class="st9" points="525.9,199.4 581.5,279.2 525.9,359.1 471,279.2 				"/>
			</g>
			<g>
				<polygon class="st10" points="471,278.9 526,358.9 449,358.9 394.1,278.9 				"/>
			</g>
		</g>
		<g>
			<g>
				<polygon class="st8" points="526,39.1 471,119.1 394.1,119.1 449,39.1 				"/>
			</g>
			<g>
				<polygon class="st9" points="525.9,39.4 581.5,119.3 525.9,199.4 471,119.3 				"/>
			</g>
			<g>
				<polygon class="st10" points="471,119.1 525.8,199 449,199 394.3,119.1 				"/>
			</g>
		</g>
		<g>
			<g>
				<polygon class="st8" points="526,358.9 471,438.8 394.1,438.8 449,358.9 				"/>
			</g>
			<g>
				<polygon class="st9" points="525.9,359.1 581.5,438.9 525.9,519 471,438.9 				"/>
			</g>
			<g>
				<polygon class="st10" points="471,438.8 525.8,518.7 449,518.7 394.3,438.8 				"/>
			</g>
		</g>
		<g>
			<g>
				<polygon class="st8" points="658.2,278.9 603.3,358.9 526.1,358.9 581,278.9 				"/>
			</g>
			<g>
				<polygon class="st9" points="658.2,279.2 713.5,359.1 658.2,439.2 603.3,359.1 				"/>
			</g>
			<g>
				<polygon class="st10" points="603.3,358.9 658,438.8 581,438.8 526.3,358.9 				"/>
			</g>
		</g>
		<g>
			<g>
				<polygon class="st8" points="657.7,119.1 603,199 525.8,199 580.8,119.1 				"/>
			</g>
			<g>
				<polygon class="st9" points="657.7,119.3 713.3,199.1 657.7,279.2 603,199.1 				"/>
			</g>
			<g>
				<polygon class="st10" points="603,199 657.5,278.9 580.8,278.9 526,199 				"/>
			</g>
		</g>
		<g>
			<g>
				<polygon class="st8" points="395.2,278.9 340.5,358.9 263.3,358.9 318.2,278.9 				"/>
			</g>
			<g>
				<polygon class="st9" points="395.1,279.2 450.7,359.1 395.1,439.2 340.5,359.1 				"/>
			</g>
			<g>
				<polygon class="st10" points="340.5,358.9 395,438.8 318.3,438.8 263.5,358.9 				"/>
			</g>
		</g>
		<g>
			<g>
				<polygon class="st8" points="395,119.1 340,199 263,199 318,119.1 				"/>
			</g>
			<g>
				<polygon class="st9" points="394.9,119.3 450.5,199.1 394.9,279.2 340,199.1 				"/>
			</g>
			<g>
				<polygon class="st10" points="340,199 394.7,278.9 318,278.9 263.3,199 				"/>
			</g>
		</g>
	</g>
</g>
</svg>
