<?xml version="1.0" encoding="utf-8"?>
<!-- Generator: Adobe Illustrator 22.1.0, SVG Export Plug-In . SVG Version: 6.00 Build 0)  -->
<svg version="1.1" id="Layer_1" xmlns="http://www.w3.org/2000/svg" xmlns:xlink="http://www.w3.org/1999/xlink" x="0px" y="0px"
	 viewBox="0 0 200 200" style="enable-background:new 0 0 200 200;" xml:space="preserve">
<style type="text/css">
	.st0{fill:#333333;}
	.st1{enable-background:new    ;}
	.st2{fill:#B3B3B3;}
	.st3{fill:#E6E6E6;}
	.st4{fill:#808080;}
	.st5{fill:url(#SVGID_1_);}
	.st6{fill:url(#SVGID_2_);}
	.st7{fill:url(#SVGID_3_);}
	.st8{fill:url(#SVGID_4_);}
</style>
<circle class="st0" cx="100" cy="100" r="98"/>
<g>
	<g class="st1">
		<g>
			<polygon class="st2" points="114.6,12.6 94.1,41.7 64.9,41.7 85.6,12.6 			"/>
		</g>
		<g>
			<polygon class="st3" points="114.9,12.6 135.7,42 114.9,71.4 94.1,42 			"/>
		</g>
		<g>
			<polygon class="st4" points="94.1,41.7 114.6,70.9 85.6,70.9 64.9,41.7 			"/>
		</g>
	</g>
	<g class="st1">
		<g>
			<polygon class="st2" points="114.6,70.9 94.1,100 64.9,100 85.6,70.9 			"/>
		</g>
		<g>
			<polygon class="st3" points="114.9,70.6 135.7,100 114.9,129.4 94.1,100 			"/>
		</g>
		<g>
			<polygon class="st4" points="94.1,100 114.6,129.1 85.6,129.1 64.9,100 			"/>
		</g>
	</g>
	<g>
		<polygon class="st2" points="164.9,41.7 144.3,70.9 115.2,70.9 135.8,41.7 		"/>
	</g>
	<g>
		<polygon class="st3" points="165.1,41.1 186,70.6 165.1,100 144.4,70.6 		"/>
	</g>
	<g>
		<polygon class="st4" points="144.3,70.9 164.9,100 135.8,100 115.2,70.9 		"/>
	</g>
	<g class="st1">
		<g>
			<polygon class="st2" points="164.9,100 144.3,129.1 115.2,129.1 135.8,100 			"/>
		</g>
		<g>
			<polygon class="st3" points="165.1,100 186,129.4 165.1,158.9 144.4,129.4 			"/>
		</g>
		<g>
			<polygon class="st4" points="144.3,129.1 164.9,158.3 135.8,158.3 115.2,129.1 			"/>
		</g>
	</g>
	<g>
		<polygon class="st2" points="64.4,41.7 43.8,70.9 14.6,70.9 35.3,41.7 		"/>
	</g>
	<g>
		<polygon class="st3" points="64.7,41.1 85.4,70.6 64.7,100 43.8,70.6 		"/>
	</g>
	<g>
		<polygon class="st4" points="43.8,70.9 64.4,100 35.3,100 14.6,70.9 		"/>
	</g>
	<g class="st1">
		<g>
			<polygon class="st2" points="64.4,100 43.8,129.1 14.6,129.1 35.3,100 			"/>
		</g>
		<g>
			<polygon class="st3" points="64.7,100 85.4,129.4 64.7,158.9 43.8,129.4 			"/>
		</g>
		<g>
			<polygon class="st4" points="43.8,129.1 64.4,158.3 35.3,158.3 14.6,129.1 			"/>
		</g>
	</g>
	<g>
		<polygon class="st2" points="114.6,129.1 94.1,158.3 64.9,158.3 85.6,129.1 		"/>
	</g>
	<g>
		<polygon class="st3" points="114.9,128.5 135.7,158 114.9,187.4 94.1,158 		"/>
	</g>
	<g>
		<polygon class="st4" points="94.1,158.3 114.6,187.4 85.6,187.4 64.9,158.3 		"/>
	</g>
</g>
<linearGradient id="SVGID_1_" gradientUnits="userSpaceOnUse" x1="100" y1="198" x2="100" y2="2">
	<stop  offset="0" style="stop-color:#FFC217"/>
	<stop  offset="2.000153e-02" style="stop-color:#FABE17;stop-opacity:0.98"/>
	<stop  offset="0.5098" style="stop-color:#836719;stop-opacity:0.4902"/>
	<stop  offset="0.8458" style="stop-color:#37301A;stop-opacity:0.1542"/>
	<stop  offset="1" style="stop-color:#1A1A1A;stop-opacity:0"/>
</linearGradient>
<circle class="st5" cx="100" cy="100" r="98"/>
<linearGradient id="SVGID_2_" gradientUnits="userSpaceOnUse" x1="100" y1="69" x2="100" y2="8.5">
	<stop  offset="0.4128" style="stop-color:#FFFFFF;stop-opacity:0"/>
	<stop  offset="0.9414" style="stop-color:#FFFFFF;stop-opacity:0.9002"/>
	<stop  offset="1" style="stop-color:#FFFFFF"/>
</linearGradient>
<ellipse class="st6" cx="100" cy="38.8" rx="60" ry="30.2"/>
<linearGradient id="SVGID_3_" gradientUnits="userSpaceOnUse" x1="100" y1="128.6691" x2="100" y2="64.6103" gradientTransform="matrix(1 0 0 -1.124 0 267.6198)">
	<stop  offset="0.4128" style="stop-color:#FFFFFF;stop-opacity:0"/>
	<stop  offset="0.9414" style="stop-color:#FFFFFF;stop-opacity:0.9002"/>
	<stop  offset="1" style="stop-color:#FFFFFF"/>
</linearGradient>
<path class="st7" d="M169,157c0-18.8-30.9-34-69-34s-69,15.2-69,34s30.9,38,69,38S169,175.8,169,157z"/>
<linearGradient id="SVGID_4_" gradientUnits="userSpaceOnUse" x1="1.75" y1="238" x2="197.75" y2="238" gradientTransform="matrix(1 0 0 1 3.092789e-05 -92)">
	<stop  offset="0" style="stop-color:#FFC217"/>
	<stop  offset="1" style="stop-color:#FFC217;stop-opacity:0"/>
</linearGradient>
<path class="st8" d="M197.8,100.2c0-2.2-0.1-4.4-0.2-6.5c-3.3,51.1-45.8,91.5-97.8,91.5S5.3,144.8,2,93.8c-0.1,2.1-0.2,4.3-0.2,6.5
	c0,54.1,43.9,98,98,98S197.8,154.4,197.8,100.2z"/>
</svg>
