<?xml version="1.0" encoding="utf-8"?>
<!-- Generator: Adobe Illustrator 22.1.0, SVG Export Plug-In . SVG Version: 6.00 Build 0)  -->
<svg version="1.1" id="Layer_1" xmlns="http://www.w3.org/2000/svg" xmlns:xlink="http://www.w3.org/1999/xlink" x="0px" y="0px"
	 viewBox="0 0 1340 237" style="enable-background:new 0 0 1340 237;" xml:space="preserve">
<style type="text/css">
	.st0{fill:none;}
	.st1{enable-background:new    ;}
	.st2{fill:#FCCA52;}
	.st3{fill:#FFFFFF;}
	.st4{fill:#B3B3B3;}
	.st5{fill:#E6E6E6;}
	.st6{fill:#808080;}
</style>
<rect x="228.1" y="63.8" class="st0" width="1091.6" height="127.4"/>
<g class="st1">
	<path class="st2" d="M258,138.8v17.7h-24.5v-83c0-2.4,1.2-3.6,3.5-3.6h71.1c8.1,0,13.9,1.8,17.4,5.4s5.3,8.7,5.3,15.3v7.6
		c0,3.5-0.7,6.3-2.2,8.4c-1.4,2.2-3.1,3.9-4.9,5.1c2.5,1.2,4.6,3.2,6.3,5.6c1.7,2.5,2.5,5.5,2.5,9.2v7.6c0,7.3-1.7,12.8-5.2,16.7
		c-3.5,3.8-9.3,5.7-17.8,5.7h-44.1l-6.8-17.7H258L258,138.8z M260,89.3c-1.3,0-2,0.7-2,2v14.6h41.1c2.7,0,4.6-0.5,5.7-1.5
		s1.7-2.8,1.7-5.3v-2.6c0-2.6-0.5-4.5-1.7-5.6c-1.1-1.1-3-1.6-5.7-1.6H260L260,89.3z M258,119.9v16.3h42.5c2.2,0,3.7-0.5,4.7-1.5
		s1.5-2.8,1.5-5.3v-2.5c0-2.5-0.5-4.3-1.4-5.3s-2.5-1.5-4.8-1.5L258,119.9L258,119.9z"/>
	<path class="st2" d="M341.4,81V63.8H363V81H341.4z M341.4,156.5V91.3H363v65.2H341.4z"/>
	<path class="st2" d="M457.7,130.6c0,3.9-0.5,7.6-1.4,10.7c-0.9,3.2-2.5,5.9-4.6,8.1s-4.9,4-8.3,5.2s-7.6,1.9-12.4,1.9h-31.4
		c-4.9,0-9-0.6-12.3-1.9c-3.4-1.2-6.1-2.9-8.3-5.2c-2.2-2.2-3.7-4.9-4.6-8.1s-1.4-6.7-1.4-10.7v-13.4c0-3.9,0.5-7.4,1.4-10.7
		s2.5-5.9,4.6-8.2c2.2-2.2,4.9-4,8.3-5.2s7.5-1.9,12.3-1.9H431c4.9,0,9,0.6,12.4,1.9c3.4,1.2,6.2,3,8.3,5.2s3.7,5,4.6,8.2
		s1.4,6.8,1.4,10.7L457.7,130.6L457.7,130.6z M427,137.4c3.4,0,5.8-0.7,7.1-2c1.3-1.3,2-3.9,2-7.6v-9.1c0-3.9-0.7-6.6-2.1-8.1
		c-1.4-1.4-3.8-2.2-7.1-2.2h-23.4c-3.4,0-5.8,0.8-7.1,2.2c-1.3,1.5-1.9,4.2-1.9,8v9.2c0,3.7,0.6,6.3,1.9,7.6s3.6,2,7.1,2H427z"/>
	<path class="st2" d="M521.1,91.6v64.9h-24.5V91.6h-35.9l-8-20.7V70h114.7c2.3,0,3.5,1.2,3.5,3.6V96l-22.7,8.4h-0.9V92.9
		c0-0.8-0.5-1.3-1.3-1.3H521.1z"/>
	<path class="st2" d="M578.8,63.8h21.5v27.5H632c4.9,0,9,0.6,12.4,1.9c3.4,1.2,6.2,3,8.3,5.2s3.6,4.9,4.6,8.1s1.4,6.7,1.4,10.7v39.4
		h-21.5v-38c0-3.8-0.8-6.5-2.3-8s-3.9-2.2-6.9-2.2h-23.3l-3.6-9.5h-0.8v57.7h-21.5L578.8,63.8L578.8,63.8z"/>
	<path class="st2" d="M669.3,81V63.8h21.5V81H669.3z M669.3,156.5V91.3h21.5v65.2H669.3z"/>
	<path class="st2" d="M701.9,91.3h53.3c4.9,0,9,0.6,12.4,1.9c3.4,1.2,6.2,3,8.3,5.2s3.6,4.9,4.6,8.1s1.4,6.7,1.4,10.7v39.4h-21.5
		v-38c0-3.8-0.7-6.5-2.2-8c-1.4-1.5-3.8-2.2-7-2.2h-23.3l-3.6-9.5h-0.8v57.7H702V91.3H701.9z"/>
	<path class="st2" d="M793.9,165.1h47.2c3.1,0,5.2-0.7,6.5-2.1s1.9-3.6,1.9-6.6v-5.2h-31.7c-9.7,0-16.7-1.9-20.7-5.9
		c-4-3.9-6.1-9.9-6.1-17.9v-10.2c0-3.9,0.5-7.6,1.4-10.7c0.9-3.2,2.5-5.9,4.6-8.1s4.9-4,8.3-5.2c3.4-1.2,7.5-1.9,12.4-1.9H865
		c3.9,0,5.9,2,5.9,5.9v60.6c0,3.8-0.5,7.3-1.4,10.4c-0.9,3.2-2.4,5.8-4.5,8s-4.8,3.9-8.2,5.2c-3.4,1.2-7.6,1.9-12.6,1.9h-50.6v-18.2
		H793.9z M848.6,148.8h0.8v-38.4c0-1.3-0.7-2-2-2h-25.7c-3.3,0-5.7,0.8-7.1,2.2c-1.4,1.5-2.2,4.1-2.2,7.9v6.1c0,3.6,0.7,6,2.1,7.3
		s3.8,1.9,7.2,1.9h21.1L848.6,148.8z"/>
	<path class="st2" d="M881.1,138.2h53.3c1.2,0,2.2-0.2,2.6-0.8s0.7-1.4,0.7-2.5v-1.4c0-0.8-0.2-1.5-0.5-1.9
		c-0.3-0.5-0.9-0.7-1.9-0.8l-40.5-3.5c-5-0.4-8.6-1.9-11-4.6s-3.6-6.3-3.6-10.8v-5.2c0-4.8,1.3-8.5,3.9-11.3
		c2.6-2.8,6.9-4.1,12.8-4.1h58.8c2,0,2.9,1,2.9,2.9v14.6l-18.5,6.9h-0.8v-7.5c0-0.6-0.3-0.9-0.8-0.9h-34c-1.2,0-2,0.2-2.5,0.7
		s-0.7,1.2-0.7,2.4v1.8c0,1.1,0.2,1.9,0.5,2.2c0.4,0.3,1,0.5,1.9,0.7l41.5,4c2.8,0.2,5.1,0.8,6.9,1.5c1.9,0.8,3.3,1.9,4.4,3.2
		c1.1,1.3,1.9,2.9,2.3,4.8c0.5,1.9,0.6,4.1,0.6,6.6v4.9c0,5.2-1.4,9.3-4.1,12.1s-7.6,4.2-14.6,4.2h-59.9v-18.1L881.1,138.2
		L881.1,138.2z"/>
</g>
<g class="st1">
	<path class="st3" d="M1053.8,156.5h-28.3v-0.9l43.4-82.8c0.5-1.1,1.1-1.9,1.7-2.2c0.5-0.4,1.5-0.6,2.9-0.6h29.9
		c1.3,0,2.3,0.2,2.9,0.6s1.2,1.2,1.9,2.2l43,82.8v0.9h-74l-7.1-18.8v-2.4h24.2c2.5,0,4.7,0,6.6,0s3.5,0,4.9,0.1s2.7,0.1,3.8,0.2
		c1.1,0.1,2.2,0.2,3.2,0.2l0.4-0.8c-0.5-0.8-1-1.7-1.5-2.5s-1.1-1.9-1.7-3c-0.6-1.2-1.4-2.6-2.2-4.2c-0.8-1.7-1.9-3.8-3.2-6.3
		l-13.7-27.3c-0.3-0.5-0.8-0.8-1.7-0.8h-1.4c-0.7,0-1.2,0.3-1.5,0.8L1053.8,156.5z"/>
	<path class="st3" d="M1183.4,118.6h-0.8v37.9h-24.5v-83c0-2.4,1.2-3.6,3.5-3.6h67.1c5.9,0,10.8,0.7,14.9,2.2
		c4.1,1.4,7.4,3.5,10,6.1c2.5,2.6,4.4,5.9,5.6,9.7c1.2,3.8,1.7,8.1,1.7,12.8v7c0,9.9-2.4,17.4-7.2,22.3c-4.8,4.9-12.7,7.4-23.7,7.4
		h-39.1L1183.4,118.6z M1184.1,91.6c-1,0-1.5,0.5-1.5,1.7v23.1h42.9c3.9,0,6.7-0.8,8.3-2.4c1.6-1.6,2.4-4.2,2.4-7.7V102
		c0-4-0.8-6.8-2.4-8.2s-4.3-2.2-8.3-2.2L1184.1,91.6L1184.1,91.6z"/>
	<path class="st3" d="M1269.1,156.5V70h24.5v86.5H1269.1z"/>
</g>
<g>
	<g>
		<g>
			<polygon class="st4" points="118.7,86 97.4,117 67.6,117 88.9,86 			"/>
		</g>
		<g>
			<polygon class="st5" points="118.6,86.2 140.2,117.1 118.6,148 97.4,117.1 			"/>
		</g>
		<g>
			<polygon class="st6" points="97.4,117 118.7,148 88.9,148 67.6,117 			"/>
		</g>
	</g>
	<g>
		<g>
			<polygon class="st4" points="118.7,24.1 97.4,55.1 67.6,55.1 88.9,24.1 			"/>
		</g>
		<g>
			<polygon class="st5" points="118.6,24.2 140.2,55.2 118.6,86.2 97.4,55.2 			"/>
		</g>
		<g>
			<polygon class="st6" points="97.4,55.1 118.6,86 88.9,86 67.7,55.1 			"/>
		</g>
	</g>
	<g>
		<g>
			<polygon class="st4" points="118.7,148 97.4,178.9 67.6,178.9 88.9,148 			"/>
		</g>
		<g>
			<polygon class="st5" points="118.6,148 140.2,179 118.6,210 97.4,179 			"/>
		</g>
		<g>
			<polygon class="st6" points="97.4,178.9 118.6,209.9 88.9,209.9 67.7,178.9 			"/>
		</g>
	</g>
	<g>
		<g>
			<polygon class="st4" points="169.9,117 148.6,148 118.7,148 140,117 			"/>
		</g>
		<g>
			<polygon class="st5" points="169.9,117.1 191.3,148 169.9,179.1 148.6,148 			"/>
		</g>
		<g>
			<polygon class="st6" points="148.6,148 169.8,178.9 140,178.9 118.8,148 			"/>
		</g>
	</g>
	<g>
		<g>
			<polygon class="st4" points="169.7,55.1 148.5,86 118.6,86 139.9,55.1 			"/>
		</g>
		<g>
			<polygon class="st5" points="169.7,55.2 191.2,86.1 169.7,117.1 148.5,86.1 			"/>
		</g>
		<g>
			<polygon class="st6" points="148.5,86 169.6,117 139.9,117 118.7,86 			"/>
		</g>
	</g>
	<g>
		<g>
			<polygon class="st4" points="68,117 46.8,148 16.9,148 38.2,117 			"/>
		</g>
		<g>
			<polygon class="st5" points="68,117.1 89.5,148 68,179.1 46.8,148 			"/>
		</g>
		<g>
			<polygon class="st6" points="46.8,148 67.9,178.9 38.2,178.9 17,148 			"/>
		</g>
	</g>
	<g>
		<g>
			<polygon class="st4" points="67.9,55.1 46.6,86 16.8,86 38.1,55.1 			"/>
		</g>
		<g>
			<polygon class="st5" points="67.9,55.2 89.4,86.1 67.9,117.1 46.6,86.1 			"/>
		</g>
		<g>
			<polygon class="st6" points="46.6,86 67.8,117 38.1,117 16.9,86 			"/>
		</g>
	</g>
</g>
</svg>
