<?xml version="1.0" encoding="utf-8"?>
<!-- Generator: Adobe Illustrator 22.1.0, SVG Export Plug-In . SVG Version: 6.00 Build 0)  -->
<svg version="1.1" id="Layer_1" xmlns="http://www.w3.org/2000/svg" xmlns:xlink="http://www.w3.org/1999/xlink" x="0px" y="0px"
	 viewBox="0 0 279.7 29.3" style="enable-background:new 0 0 279.7 29.3;" xml:space="preserve">
<style type="text/css">
	.st0{fill:#FCCA52;}
	.st1{fill:#F2F2F2;}
</style>
<g>
	<path class="st0" d="M35.4,23.6h-26V4.8h20.1l5.8,2.9V12l-5.7,2.3l5.8,2V23.6z M26.7,12.3V9.1H16.7v3.2H26.7z M26.7,19.3v-3.2H16.7
		v3.2H26.7z"/>
	<path class="st0" d="M45.2,7.1h-6.1V4.2h6.1V7.1z M45.2,23.6h-6.1V9.1h6.1V23.6z"/>
	<path class="st0" d="M67.6,23.6H49V12l3.5-2.9h11.3l3.8,2.9L67.6,23.6z M61.7,19.3v-6.1h-7v6.1H61.7z"/>
	<path class="st0" d="M96.6,9.1h-8.8v14.5h-8.7V9.1h-8.7V4.8h26.2V9.1z"/>
	<path class="st0" d="M116,23.6h-5.8V13.2h-4.6v10.4h-6.1V3.3h6.1v5.8h6.9L116,12V23.6z"/>
	<path class="st0" d="M125,7.1h-6.1V4.2h6.1V7.1z M125,23.6h-6.1V9.1h6.1V23.6z"/>
	<path class="st0" d="M147.3,23.6h-5.8V13.2h-7v10.4h-5.8V12l3.5-2.9h11.6l3.5,2.9V23.6z"/>
	<path class="st0" d="M168,27.4h-16.8v-3.8H162v-2.2h-7.5l-3.5-2.9V12l3.5-2.9H168V27.4z M162,17.7v-4.5h-4.6v4.5H162z"/>
	<path class="st0" d="M190.5,21.5l-3.5,2.1h-15.1v-4.3h11.6v-1.9H172V12l3.5-2.9h14.8v4.1h-11.4v1.7h11.6V21.5z"/>
	<path class="st1" d="M231.4,23.6h-7.2v-5.8h-9.6v5.8h-7.2v-16l4.3-2.9H227l4.3,2.9V23.6z M224.1,13.5V9.1h-9.6v4.4H224.1z"/>
	<path class="st1" d="M261.3,15.6l-5.8,2.9h-11.6v5.1h-8.7V4.8h20.3l5.8,2.9V15.6z M252.6,14.2v-5h-8.7v5H252.6z"/>
	<path class="st1" d="M271.2,23.6H264V4.8h7.2V23.6z"/>
</g>
</svg>
