<?xml version="1.0" encoding="utf-8"?>
<!-- Generator: Adobe Illustrator 22.1.0, SVG Export Plug-In . SVG Version: 6.00 Build 0)  -->
<svg version="1.1" id="Layer_1" xmlns="http://www.w3.org/2000/svg" xmlns:xlink="http://www.w3.org/1999/xlink" x="0px" y="0px"
	 viewBox="0 0 1645 237" style="enable-background:new 0 0 1645 237;" xml:space="preserve">
<style type="text/css">
	.st0{fill:none;}
	.st1{fill:#FCCA52;}
	.st2{font-family:'RechargeRg-Bold';}
	.st3{font-size:154px;}
	.st4{fill:#D9D9D9;}
	.st5{fill:#FFFFFF;}
	.st6{fill:#B3B3B3;}
	.st7{fill:#E6E6E6;}
	.st8{fill:#808080;}
</style>
<rect x="216" y="45" class="st0" width="1414" height="165"/>
<text transform="matrix(1 0 0 1 216 165.1196)"><tspan x="0" y="0" class="st1 st2 st3">BioThings</tspan><tspan x="966.6" y="0" class="st4 st2 st3"> </tspan><tspan x="1030.9" y="0" class="st5 st2 st3">API</tspan></text>
<g>
	<g>
		<g>
			<polygon class="st6" points="118.7,86 97.4,117 67.6,117 88.9,86 			"/>
		</g>
		<g>
			<polygon class="st7" points="118.6,86.2 140.2,117.1 118.6,148 97.4,117.1 			"/>
		</g>
		<g>
			<polygon class="st8" points="97.4,117 118.7,148 88.9,148 67.6,117 			"/>
		</g>
	</g>
	<g>
		<g>
			<polygon class="st6" points="118.7,24.1 97.4,55.1 67.6,55.1 88.9,24.1 			"/>
		</g>
		<g>
			<polygon class="st7" points="118.6,24.2 140.2,55.2 118.6,86.2 97.4,55.2 			"/>
		</g>
		<g>
			<polygon class="st8" points="97.4,55.1 118.6,86 88.9,86 67.7,55.1 			"/>
		</g>
	</g>
	<g>
		<g>
			<polygon class="st6" points="118.7,148 97.4,178.9 67.6,178.9 88.9,148 			"/>
		</g>
		<g>
			<polygon class="st7" points="118.6,148 140.2,179 118.6,210 97.4,179 			"/>
		</g>
		<g>
			<polygon class="st8" points="97.4,178.9 118.6,209.9 88.9,209.9 67.7,178.9 			"/>
		</g>
	</g>
	<g>
		<g>
			<polygon class="st6" points="169.9,117 148.6,148 118.7,148 140,117 			"/>
		</g>
		<g>
			<polygon class="st7" points="169.9,117.1 191.3,148 169.9,179.1 148.6,148 			"/>
		</g>
		<g>
			<polygon class="st8" points="148.6,148 169.8,178.9 140,178.9 118.8,148 			"/>
		</g>
	</g>
	<g>
		<g>
			<polygon class="st6" points="169.7,55.1 148.5,86 118.6,86 139.9,55.1 			"/>
		</g>
		<g>
			<polygon class="st7" points="169.7,55.2 191.2,86.1 169.7,117.1 148.5,86.1 			"/>
		</g>
		<g>
			<polygon class="st8" points="148.5,86 169.6,117 139.9,117 118.7,86 			"/>
		</g>
	</g>
	<g>
		<g>
			<polygon class="st6" points="68,117 46.8,148 16.9,148 38.2,117 			"/>
		</g>
		<g>
			<polygon class="st7" points="68,117.1 89.5,148 68,179.1 46.8,148 			"/>
		</g>
		<g>
			<polygon class="st8" points="46.8,148 67.9,178.9 38.2,178.9 17,148 			"/>
		</g>
	</g>
	<g>
		<g>
			<polygon class="st6" points="67.9,55.1 46.6,86 16.8,86 38.1,55.1 			"/>
		</g>
		<g>
			<polygon class="st7" points="67.9,55.2 89.4,86.1 67.9,117.1 46.6,86.1 			"/>
		</g>
		<g>
			<polygon class="st8" points="46.6,86 67.8,117 38.1,117 16.9,86 			"/>
		</g>
	</g>
</g>
</svg>
