<?xml version="1.0" encoding="utf-8"?>
<!-- Generator: Adobe Illustrator 22.1.0, SVG Export Plug-In . SVG Version: 6.00 Build 0)  -->
<svg version="1.1" id="Layer_1" xmlns="http://www.w3.org/2000/svg" xmlns:xlink="http://www.w3.org/1999/xlink" x="0px" y="0px"
	 viewBox="0 0 1024 249" style="enable-background:new 0 0 1024 249;" xml:space="preserve">
<style type="text/css">
	.st0{fill:none;stroke:#F7C219;stroke-width:0.25;stroke-miterlimit:10;}
	.st1{fill:none;stroke:#F2BF1C;stroke-width:0.25;stroke-miterlimit:10;}
	.st2{fill:none;stroke:#EDBC1E;stroke-width:0.25;stroke-miterlimit:10;}
	.st3{fill:none;stroke:#E8B921;stroke-width:0.25;stroke-miterlimit:10;}
	.st4{fill:none;stroke:#E4B623;stroke-width:0.25;stroke-miterlimit:10;}
	.st5{fill:none;stroke:#DFB326;stroke-width:0.25;stroke-miterlimit:10;}
	.st6{fill:none;stroke:#DAB028;stroke-width:0.25;stroke-miterlimit:10;}
	.st7{fill:none;stroke:#D5AD2B;stroke-width:0.25;stroke-miterlimit:10;}
	.st8{fill:none;stroke:#D0A92E;stroke-width:0.25;stroke-miterlimit:10;}
	.st9{fill:none;stroke:#CBA630;stroke-width:0.25;stroke-miterlimit:10;}
	.st10{fill:none;stroke:#C7A333;stroke-width:0.25;stroke-miterlimit:10;}
	.st11{fill:none;stroke:#C2A035;stroke-width:0.25;stroke-miterlimit:10;}
	.st12{fill:none;stroke:#BD9D38;stroke-width:0.25;stroke-miterlimit:10;}
	.st13{fill:none;stroke:#B89A3A;stroke-width:0.25;stroke-miterlimit:10;}
	.st14{fill:none;stroke:#B3973D;stroke-width:0.25;stroke-miterlimit:10;}
	.st15{fill:none;stroke:#AF9440;stroke-width:0.25;stroke-miterlimit:10;}
	.st16{fill:none;stroke:#AA9142;stroke-width:0.25;stroke-miterlimit:10;}
	.st17{fill:none;stroke:#A58E45;stroke-width:0.25;stroke-miterlimit:10;}
	.st18{fill:none;stroke:#A08B47;stroke-width:0.25;stroke-miterlimit:10;}
	.st19{fill:none;stroke:#9B884A;stroke-width:0.25;stroke-miterlimit:10;}
	.st20{fill:none;stroke:#96854C;stroke-width:0.25;stroke-miterlimit:10;}
	.st21{fill:none;stroke:#92824F;stroke-width:0.25;stroke-miterlimit:10;}
	.st22{fill:none;stroke:#8D7F51;stroke-width:0.25;stroke-miterlimit:10;}
	.st23{fill:none;stroke:#887B54;stroke-width:0.25;stroke-miterlimit:10;}
	.st24{fill:none;stroke:#837857;stroke-width:0.25;stroke-miterlimit:10;}
	.st25{fill:none;stroke:#7E7559;stroke-width:0.25;stroke-miterlimit:10;}
	.st26{fill:none;stroke:#79725C;stroke-width:0.25;stroke-miterlimit:10;}
	.st27{fill:none;stroke:#756F5E;stroke-width:0.25;stroke-miterlimit:10;}
	.st28{fill:none;stroke:#706C61;stroke-width:0.25;stroke-miterlimit:10;}
	.st29{fill:none;stroke:#6B6963;stroke-width:0.25;stroke-miterlimit:10;}
	.st30{fill:none;stroke:#666666;stroke-width:0.25;stroke-miterlimit:10;}
	.st31{fill:none;stroke:#666666;stroke-width:0.2417;stroke-miterlimit:10;}
	.st32{fill:none;stroke:#666666;stroke-width:0.2333;stroke-miterlimit:10;}
	.st33{fill:none;stroke:#666666;stroke-width:0.225;stroke-miterlimit:10;}
	.st34{fill:none;stroke:#666666;stroke-width:0.2167;stroke-miterlimit:10;}
	.st35{fill:none;stroke:#666666;stroke-width:0.2083;stroke-miterlimit:10;}
	.st36{fill:none;stroke:#666666;stroke-width:0.2;stroke-miterlimit:10;}
	.st37{fill:none;stroke:#666666;stroke-width:0.1917;stroke-miterlimit:10;}
	.st38{fill:none;stroke:#666666;stroke-width:0.1833;stroke-miterlimit:10;}
	.st39{fill:none;stroke:#666666;stroke-width:0.175;stroke-miterlimit:10;}
	.st40{fill:none;stroke:#666666;stroke-width:0.1667;stroke-miterlimit:10;}
	.st41{fill:none;stroke:#666666;stroke-width:0.1583;stroke-miterlimit:10;}
	.st42{fill:none;stroke:#666666;stroke-width:0.15;stroke-miterlimit:10;}
	.st43{fill:none;stroke:#666666;stroke-width:0.1417;stroke-miterlimit:10;}
	.st44{fill:none;stroke:#666666;stroke-width:0.1333;stroke-miterlimit:10;}
	.st45{fill:none;stroke:#666666;stroke-width:0.125;stroke-miterlimit:10;}
	.st46{fill:none;stroke:#666666;stroke-width:0.1167;stroke-miterlimit:10;}
	.st47{fill:none;stroke:#666666;stroke-width:0.1083;stroke-miterlimit:10;}
	.st48{fill:none;stroke:#666666;stroke-width:0.1;stroke-miterlimit:10;}
	.st49{fill:none;stroke:#666666;stroke-width:9.166667e-02;stroke-miterlimit:10;}
	.st50{fill:none;stroke:#666666;stroke-width:8.333334e-02;stroke-miterlimit:10;}
	.st51{fill:none;stroke:#666666;stroke-width:7.500000e-02;stroke-miterlimit:10;}
	.st52{fill:none;stroke:#666666;stroke-width:6.666667e-02;stroke-miterlimit:10;}
	.st53{fill:none;stroke:#666666;stroke-width:5.833333e-02;stroke-miterlimit:10;}
	.st54{fill:none;stroke:#666666;stroke-width:5.000000e-02;stroke-miterlimit:10;}
	.st55{fill:none;stroke:#666666;stroke-width:4.166667e-02;stroke-miterlimit:10;}
	.st56{fill:none;stroke:#666666;stroke-width:3.333334e-02;stroke-miterlimit:10;}
	.st57{fill:none;stroke:#666666;stroke-width:2.500000e-02;stroke-miterlimit:10;}
	.st58{fill:none;stroke:#666666;stroke-width:1.666667e-02;stroke-miterlimit:10;}
	.st59{fill:none;stroke:#666666;stroke-width:8.333334e-03;stroke-miterlimit:10;}
	.st60{fill:none;}
</style>
<g>
	<path class="st0" d="M0.5,218.3c0,0,113.6-133.2,308.5-149.3c193-16,339,230,713,27"/>
	<path class="st1" d="M0.2,215.7c0,0,113.4-128.2,309.2-145.4C507.2,52.4,651,295.7,1022.1,99.1"/>
	<path class="st2" d="M-0.1,213c0,0,113.3-122.8,309.9-141.5c202.5-19.3,344.2,220.8,712.4,30.7"/>
	<path class="st3" d="M-0.4,210.3c0,0,113.2-117.7,310.6-137.6c207.3-20.9,346.8,216.3,712.1,32.5"/>
	<path class="st4" d="M-0.6,207.6c0,0,113.1-112.6,311.4-133.7c212-22.6,349.5,211.7,711.8,34.3"/>
	<path class="st5" d="M-0.9,205c0,0,113-107.5,312.1-129.8c216.8-24.3,352.1,207.1,711.5,36.2"/>
	<path class="st6" d="M-1.2,202.3c0,0,112.8-102.4,312.8-125.9c221.5-26,354.7,202.5,711.2,38"/>
	<path class="st7" d="M-1.5,199.6c0,0,112.7-97.3,313.5-122c226.3-27.8,357.3,197.9,710.9,39.8"/>
	<path class="st8" d="M-1.8,196.9c0,0,112.6-92.3,314.2-118.1c231.1-29.5,359.9,193.4,710.6,41.7"/>
	<path class="st9" d="M-2,194.2c0,0,112.5-87.3,314.9-114.1c235.8-31.3,362.5,188.8,710.3,43.5"/>
	<path class="st10" d="M-2.3,191.6c0,0,112.3-82.3,315.7-110.2c240.6-33.1,365.1,184.2,710,45.3"/>
	<path class="st11" d="M-2.6,188.9c0,0,112.2-77.3,316.4-106.3c245.3-34.9,367.8,179.6,709.7,47.2"/>
	<path class="st12" d="M-2.9,186.2c0,0,112.1-72.3,317.1-102.4c250.1-36.7,370.4,175,709.4,49"/>
	<path class="st13" d="M-3.2,183.5c0,0,111.9-67.4,317.8-98.5c254.8-38.5,373,170.5,709.1,50.8"/>
	<path class="st14" d="M-3.5,180.9c0,0,111.8-62.4,318.5-94.6c259.5-40.4,375.6,165.9,708.8,52.7"/>
	<path class="st15" d="M-3.8,178.2c0,0,111.7-57.5,319.2-90.7C579.8,45.3,693.7,248.8,1024,142"/>
	<path class="st16" d="M-4,175.5c0,0,111.5-52.6,320-86.8c269-44.1,380.8,156.7,708.2,56.3"/>
	<path class="st17" d="M-4.3,172.8c0,0,111.4-47.7,320.7-82.9c273.8-46,383.4,152.2,707.9,58.2"/>
	<path class="st18" d="M-4.6,170.1c0,0,111.2-42.8,321.4-78.9c278.5-47.9,386.1,147.6,707.6,60"/>
	<path class="st19" d="M-4.9,167.5c0,0,111.1-37.9,322.1-75c283.2-49.9,388.7,143,707.3,61.8"/>
	<path class="st20" d="M-5.2,164.8c0,0,110.9-33,322.8-71.1c287.9-51.8,391.3,138.4,707,63.7"/>
	<path class="st21" d="M-5.4,162.1c0,0,110.8-28.1,323.6-67.2c292.7-53.8,393.9,133.8,706.7,65.5"/>
	<path class="st22" d="M-5.7,159.4c0,0,110.6-23.3,324.3-63.3c297.4-55.7,396.5,129.3,706.4,67.3"/>
	<path class="st23" d="M-6,156.7c0,0,110.5-18.4,325-59.4c302.1-57.7,399.1,124.7,706.1,69.2"/>
	<path class="st24" d="M-6.3,154.1c0,0,110.3-13.5,325.7-55.5c306.8-59.7,401.8,120.1,705.8,71"/>
	<path class="st25" d="M-6.6,151.4c0,0,110.2-8.7,326.4-51.6c311.5-61.7,404.4,115.5,705.5,72.8"/>
	<path class="st26" d="M-6.9,148.7c0,0,110-3.9,327.1-47.6c316.2-63.8,407,110.9,705.2,74.7"/>
	<path class="st27" d="M-7.2,146c0,0,109.8,0.6,327.9-43.7c320.8-66.4,409.6,106.4,704.9,76.5"/>
	<path class="st28" d="M-7.4,143.4c0,0,109.6,5.5,328.6-39.8c325.5-68.3,412.2,101.8,704.6,78.3"/>
	<path class="st29" d="M-7.7,140.7c0,0,109.5,10.5,329.3-35.9c330.3-70.1,414.8,97.2,704.3,80.2"/>
	<path class="st30" d="M-8,138c0,0,109.3,15.4,330-32c335-72,417.4,92.6,704,82"/>
	<path class="st30" d="M-7.8,136.4c0,0,112.7,17.6,330.4-28.2c329.9-69.6,412.1,84.4,703.3,77.7"/>
	<path class="st30" d="M-7.6,134.7c0,0,116.2,19.8,330.8-24.4C648,43.2,730,186.6,1026,183.8"/>
	<path class="st30" d="M-7.3,133.1c0,0,119.6,22.1,331.3-20.6c319.6-64.7,401.3,68,702,69.1"/>
	<path class="st30" d="M-7.1,131.5c0,0,123,24.3,331.7-16.7c314.5-62.3,396,59.8,701.3,64.8"/>
	<path class="st30" d="M-6.9,129.8c0,0,126.4,26.5,332.1-12.9c309.3-59.8,390.6,51.6,700.7,60.5"/>
	<path class="st30" d="M-6.7,128.2c0,0,129.8,28.7,332.5-9.1c304.2-57.4,385.3,43.4,700,56.2"/>
	<path class="st30" d="M-6.4,126.6c0,0,133.2,30.9,333-5.3c299.1-55,379.9,35.2,699.3,51.9"/>
	<path class="st30" d="M-6.2,124.9c0,0,136.6,33.1,333.4-1.5c293.9-52.5,374.5,27,698.7,47.6"/>
	<path class="st30" d="M-6,123.3c0,0,140,35.3,333.8,2.3c288.8-50.1,369.2,18.7,698,43.3"/>
	<path class="st30" d="M-5.8,121.7c0,0,143.4,37.5,334.2,6.2c283.7-47.7,363.8,10.5,697.3,39"/>
	<path class="st30" d="M-5.5,120c0,0,146.8,39.7,334.7,10c278.5-45.2,358.4,2.3,696.7,34.7"/>
	<path class="st30" d="M-5.3,118.4c0,0,150.3,42.3,335.1,13.8c273.5-42.2,353.1-5.9,696,30.4"/>
	<path class="st30" d="M-5.1,116.8c0,0,153.7,44.6,335.5,17.6c268.4-39.8,347.7-14.1,695.3,26.1"/>
	<path class="st30" d="M-4.8,115.1c0,0,157.1,46.8,336,21.4c263.2-37.3,342.3-22.3,694.7,21.8"/>
	<path class="st30" d="M-4.6,113.5c0,0,160.5,49,336.4,25.2c258.1-34.9,337-30.5,694,17.5"/>
	<path class="st30" d="M-4.4,111.9c0,0,163.9,51.2,336.8,29.1c252.9-32.4,331.6-38.7,693.3,13.2"/>
	<path class="st30" d="M-4.2,110.2c0,0,167.3,53.4,337.2,32.9c247.8-30,326.2-46.9,692.7,8.9"/>
	<path class="st30" d="M-4,108.6c0,0,170.7,55.6,337.7,36.7c242.7-27.6,320.9-55.1,692,4.6"/>
	<path class="st30" d="M-3.7,107c0,0,174.2,57.9,338.1,40.5c237.5-25.1,315.5-63.3,691.3,0.3"/>
	<path class="st30" d="M-3.5,105.4c0,0,177.6,60.1,338.5,44.3c232.4-22.7,310.1-71.5,690.7-4"/>
	<path class="st30" d="M-3.3,103.7c0,0,181,62.3,338.9,48.1c227.3-20.3,304.8-79.7,690-8.3"/>
	<path class="st30" d="M-3,102.1c0,0,184.4,64.4,339.3,51.9c222.1-17.9,299.4-88,689.3-12.6"/>
	<path class="st30" d="M-2.8,100.5c0,0,187.8,66.6,339.8,55.8c217-15.5,294.1-96.2,688.7-16.9"/>
	<path class="st30" d="M-2.6,98.8c0,0,191.2,68.8,340.2,59.6c211.8-13.1,288.7-104.4,688-21.2"/>
	<path class="st30" d="M-2.4,97.2c0,0,194.6,71,340.6,63.4c206.7-10.7,283.3-112.6,687.3-25.5"/>
	<path class="st30" d="M-2.2,95.6c0,0,198,72.9,341,67.2C540.4,154,616.9,42,1025.6,133"/>
	<path class="st30" d="M-1.9,93.9c0,0,201.4,75.1,341.5,71c196.4-6.3,272.6-129,686-34.1"/>
	<path class="st30" d="M-1.7,92.3c0,0,204.8,77.3,341.9,74.8c191.3-3.9,267.2-137.2,685.3-38.4"/>
	<path class="st30" d="M-1.5,90.7c0,0,208.2,79.5,342.3,78.7c186.1-1.4,261.9-145.4,684.7-42.7"/>
	<path class="st30" d="M-1.2,89c0,0,211.6,81.7,342.8,82.5c181,1,256.5-153.6,684-47"/>
	<path class="st31" d="M-1.2,86.6c0,0,208.8,85.9,344.5,86.1c183.9,0.5,255.8-155.4,682.1-50.6"/>
	<path class="st32" d="M-1.2,84.1c0,0,206,90,346.3,89.7c186.8,0,255.1-157.1,680.2-54.2"/>
	<path class="st33" d="M-1.1,81.7c0,0,203.2,94.1,348,93.3c189.7-0.5,254.4-158.9,678.3-57.8"/>
	<path class="st34" d="M-1.1,79.2c0,0,200.4,98.2,349.8,97c192.6-1,253.8-160.6,676.4-61.4"/>
	<path class="st35" d="M-1.1,76.7c0,0,197.6,102.4,351.6,100.6C546,175.8,603.6,15,1025,112.3"/>
	<path class="st36" d="M-1,74.3c0,0,194.8,106.2,353.3,104.2c198.4-2.5,252.4-164.1,672.6-68.6"/>
	<path class="st37" d="M-1,71.8c0,0,192,110.3,355.1,107.8c201.3-3,251.7-165.8,670.7-72.2"/>
	<path class="st38" d="M-0.9,69.4c0,0,189.2,114.4,356.9,111.5c204.2-3.5,251-167.6,668.8-75.8"/>
	<path class="st39" d="M-0.9,66.9c0,0,186.4,118.5,358.6,115.1c207.1-4.1,250.3-169.3,666.9-79.4"/>
	<path class="st40" d="M-0.9,64.5c0,0,183.6,122.6,360.4,118.7c210-4.6,249.7-171.1,665-83"/>
	<path class="st41" d="M-0.8,62c0,0,180.8,126.7,362.1,122.3c212.9-5.1,249-172.8,663.1-86.6"/>
	<path class="st42" d="M-0.8,59.5c0,0,178,130.8,363.9,126c215.8-5.6,248.3-174.6,661.2-90.2"/>
	<path class="st43" d="M-0.8,57.1c0,0,175.2,134.9,365.7,129.6c218.7-6.1,247.6-176.3,659.3-93.8"/>
	<path class="st44" d="M-0.7,54.6c0,0,172.4,139,367.4,133.2c221.6-6.6,246.9-178.1,657.4-97.4"/>
	<path class="st45" d="M-0.7,52.2c0,0,169.6,143.2,369.2,136.8C593,181.9,614.8,9.2,1024,88"/>
	<path class="st46" d="M-0.6,49.7c0,0,166.8,147.3,370.9,140.5c227.4-7.6,245.6-181.6,653.6-104.6"/>
	<path class="st47" d="M-0.6,47.3c0,0,164,151.4,372.7,144.1C602.4,183.2,617,8,1023.8,83.1"/>
	<path class="st48" d="M-0.6,44.8c0,0,161.2,156,374.5,147.7c233.2-8.2,244.2-185,649.8-111.8"/>
	<path class="st49" d="M-0.5,42.3c0,0,158.4,160.1,376.2,151.3C611.8,185,619.2,6.9,1023.6,78.3"/>
	<path class="st50" d="M-0.5,39.9c0,0,155.6,164.2,378,154.9c239-9.2,242.8-188.5,646-119"/>
	<path class="st51" d="M-0.5,37.4c0,0,152.8,168.4,379.8,158.6c241.9-9.7,242.2-190.3,644.1-122.6"/>
	<path class="st52" d="M-0.4,35c0,0,150,172.5,381.5,162.2C625.9,186.9,622.6,5.1,1023.3,71"/>
	<path class="st53" d="M-0.4,32.5c0,0,147.2,176.6,383.3,165.8C630.6,187.6,623.7,4.6,1023.2,68.5"/>
	<path class="st54" d="M-0.3,30.1c0,0,144.4,180.7,385.1,169.4C635.3,188.3,624.8,4,1023.1,66.1"/>
	<path class="st55" d="M-0.3,27.6c0,0,141.6,184.9,386.8,173.1C640,188.9,625.9,3.4,1023,63.7"/>
	<path class="st56" d="M-0.3,25.1c0,0,138.8,189,388.6,176.7C644.7,189.6,627,2.8,1022.9,61.2"/>
	<path class="st57" d="M-0.2,22.7c0,0,136,193.1,390.3,180.3C649.4,190.2,628.2,2.2,1022.8,58.8"/>
	<path class="st58" d="M-0.2,20.2c0,0,133.2,197.2,392.1,183.9C654.1,190.9,629.3,1.7,1022.7,56.4"/>
	<path class="st59" d="M-0.2,17.8c0,0,130.4,201.4,393.9,187.6C658.8,191.5,630.4,1.1,1022.6,53.9"/>
	<path class="st60" d="M-0.1,15.3c0,0,127.6,205.5,395.6,191.2s236-206,627-155"/>
</g>
</svg>
