<?xml version="1.0" encoding="utf-8"?>
<!-- Generator: Adobe Illustrator 22.1.0, SVG Export Plug-In . SVG Version: 6.00 Build 0)  -->
<svg version="1.1" id="Layer_1" xmlns="http://www.w3.org/2000/svg" xmlns:xlink="http://www.w3.org/1999/xlink" x="0px" y="0px"
	 viewBox="0 0 6004 2054" style="enable-background:new 0 0 6004 2054;" xml:space="preserve">
<style type="text/css">
	.st0{enable-background:new    ;}
	.st1{fill:none;stroke:#5CD1FF;stroke-width:6;stroke-linejoin:round;}
	.st2{fill:none;stroke:#5CD1FF;stroke-width:6;stroke-linejoin:round;stroke-dasharray:36.2228,36.2228;}
	.st3{fill:none;stroke:#5CD1FF;stroke-width:6;stroke-linejoin:round;stroke-dasharray:40.0481,40.0481;}
	.st4{fill:none;stroke:#5CD1FF;stroke-width:6;stroke-linejoin:round;stroke-dasharray:36.2222,36.2222;}
	.st5{fill:none;stroke:#5CD1FF;stroke-width:6;stroke-linejoin:round;stroke-miterlimit:10;}
</style>
<g>
	<g class="st0">
		<g>
			<g>
				<g>
					<polyline class="st1" points="4568.7,605 4581.6,605.2 4574,615.6 					"/>
					<line class="st2" x1="4559.2" y1="635.9" x2="4477.6" y2="747.7"/>
					<polyline class="st1" points="4470.1,757.8 4462.6,768.2 4449.8,768 					"/>
					<line class="st3" x1="4421.9" y1="767.6" x2="4324.5" y2="766.2"/>
					<polyline class="st1" points="4310.6,766 4297.7,765.8 4305.3,755.4 					"/>
					<line class="st2" x1="4320.2" y1="735.1" x2="4401.7" y2="623.3"/>
					<polyline class="st1" points="4409.2,613.1 4416.8,602.7 4429.6,602.9 					"/>
					<line class="st3" x1="4457.4" y1="603.3" x2="4554.8" y2="604.8"/>
				</g>
			</g>
		</g>
		<g>
			<g>
				<g>
					<polyline class="st1" points="4574,615.6 4581.6,605.2 4588.9,615.8 					"/>
					<line class="st4" x1="4603.1" y1="636.6" x2="4681.3" y2="750.7"/>
					<polyline class="st1" points="4688.4,761.1 4695.7,771.7 4688.1,782.1 					"/>
					<line class="st2" x1="4673.3" y1="802.4" x2="4591.7" y2="914.3"/>
					<polyline class="st1" points="4584.2,924.4 4576.6,934.8 4569.4,924.2 					"/>
					<line class="st4" x1="4555.2" y1="903.4" x2="4477" y2="789.2"/>
					<polyline class="st1" points="4469.8,778.8 4462.6,768.2 4470.1,757.8 					"/>
					<line class="st2" x1="4485" y1="737.6" x2="4566.6" y2="625.7"/>
				</g>
			</g>
		</g>
		<g>
			<g>
				<g>
					<polyline class="st1" points="4449.8,768 4462.6,768.2 4469.8,778.8 					"/>
					<line class="st4" x1="4484.1" y1="799.6" x2="4562.3" y2="913.8"/>
					<polyline class="st1" points="4569.4,924.2 4576.6,934.8 4563.8,934.6 					"/>
					<line class="st3" x1="4536" y1="934.2" x2="4438.6" y2="932.8"/>
					<polyline class="st1" points="4424.7,932.6 4411.9,932.4 4404.6,921.8 					"/>
					<line class="st4" x1="4390.4" y1="901" x2="4312.2" y2="786.8"/>
					<polyline class="st1" points="4305,776.4 4297.7,765.8 4310.6,766 					"/>
					<line class="st3" x1="4338.5" y1="766.4" x2="4435.8" y2="767.8"/>
				</g>
			</g>
		</g>
	</g>
</g>
<g>
	<g class="st0">
		<g>
			<g>
				<g>
					<polyline class="st1" points="4847.9,768.8 4860.8,768.8 4853.4,779.3 					"/>
					<line class="st2" x1="4838.8" y1="799.9" x2="4758.9" y2="912.8"/>
					<polyline class="st1" points="4751.6,923.1 4744.2,933.6 4731.4,933.6 					"/>
					<line class="st3" x1="4703.6" y1="933.6" x2="4606.1" y2="933.6"/>
					<polyline class="st1" points="4592.3,933.6 4579.4,933.6 4586.8,923.1 					"/>
					<line class="st2" x1="4601.4" y1="902.6" x2="4681.3" y2="789.6"/>
					<polyline class="st1" points="4688.5,779.3 4695.9,768.8 4708.8,768.8 					"/>
					<line class="st3" x1="4736.6" y1="768.8" x2="4834" y2="768.8"/>
				</g>
			</g>
		</g>
		<g>
			<g>
				<g>
					<polyline class="st1" points="4853.4,779.3 4860.8,768.8 4868.2,779.3 					"/>
					<line class="st4" x1="4882.8" y1="799.9" x2="4962.7" y2="912.8"/>
					<polyline class="st1" points="4969.9,923.1 4977.3,933.6 4969.9,944.1 					"/>
					<line class="st2" x1="4955.4" y1="964.7" x2="4875.5" y2="1077.7"/>
					<polyline class="st1" points="4868.2,1087.9 4860.8,1098.4 4853.4,1087.9 					"/>
					<line class="st4" x1="4838.8" y1="1067.4" x2="4758.9" y2="954.4"/>
					<polyline class="st1" points="4751.6,944.1 4744.2,933.6 4751.6,923.1 					"/>
					<line class="st2" x1="4766.2" y1="902.6" x2="4846.1" y2="789.6"/>
				</g>
			</g>
		</g>
		<g>
			<g>
				<g>
					<polyline class="st1" points="4731.4,933.6 4744.2,933.6 4751.6,944.1 					"/>
					<line class="st4" x1="4766.2" y1="964.7" x2="4846.1" y2="1077.7"/>
					<polyline class="st1" points="4853.4,1087.9 4860.8,1098.4 4847.9,1098.4 					"/>
					<line class="st3" x1="4820.1" y1="1098.4" x2="4722.7" y2="1098.4"/>
					<polyline class="st1" points="4708.8,1098.4 4695.9,1098.4 4688.5,1087.9 					"/>
					<line class="st4" x1="4674" y1="1067.4" x2="4594.1" y2="954.4"/>
					<polyline class="st1" points="4586.8,944.1 4579.4,933.6 4592.3,933.6 					"/>
					<line class="st3" x1="4620" y1="933.6" x2="4717.5" y2="933.6"/>
				</g>
			</g>
		</g>
	</g>
</g>
<g>
	<g class="st0">
		<g>
			<g>
				<g>
					<polyline class="st1" points="4847.9,1432.6 4860.8,1432.6 4853.4,1443.1 					"/>
					<line class="st2" x1="4838.8" y1="1463.6" x2="4758.9" y2="1576.7"/>
					<polyline class="st1" points="4751.6,1586.9 4744.2,1597.4 4731.4,1597.4 					"/>
					<line class="st3" x1="4703.6" y1="1597.4" x2="4606.1" y2="1597.4"/>
					<polyline class="st1" points="4592.3,1597.4 4579.4,1597.4 4586.8,1586.9 					"/>
					<line class="st2" x1="4601.4" y1="1566.4" x2="4681.3" y2="1453.4"/>
					<polyline class="st1" points="4688.5,1443.1 4695.9,1432.6 4708.8,1432.6 					"/>
					<line class="st3" x1="4736.6" y1="1432.6" x2="4834" y2="1432.6"/>
				</g>
			</g>
		</g>
		<g>
			<g>
				<g>
					<polyline class="st1" points="4853.4,1443.1 4860.8,1432.6 4868.2,1443.1 					"/>
					<line class="st4" x1="4882.8" y1="1463.6" x2="4962.7" y2="1576.7"/>
					<polyline class="st1" points="4969.9,1586.9 4977.3,1597.4 4969.9,1607.9 					"/>
					<line class="st2" x1="4955.4" y1="1628.5" x2="4875.5" y2="1741.5"/>
					<polyline class="st1" points="4868.2,1751.8 4860.8,1762.2 4853.4,1751.8 					"/>
					<line class="st4" x1="4838.8" y1="1731.3" x2="4758.9" y2="1618.2"/>
					<polyline class="st1" points="4751.6,1607.9 4744.2,1597.4 4751.6,1586.9 					"/>
					<line class="st2" x1="4766.2" y1="1566.4" x2="4846.1" y2="1453.4"/>
				</g>
			</g>
		</g>
		<g>
			<g>
				<g>
					<polyline class="st1" points="4731.4,1597.4 4744.2,1597.4 4751.6,1607.9 					"/>
					<line class="st4" x1="4766.2" y1="1628.5" x2="4846.1" y2="1741.5"/>
					<polyline class="st1" points="4853.4,1751.8 4860.8,1762.2 4847.9,1762.2 					"/>
					<line class="st3" x1="4820.1" y1="1762.2" x2="4722.7" y2="1762.2"/>
					<polyline class="st1" points="4708.8,1762.2 4695.9,1762.2 4688.5,1751.8 					"/>
					<line class="st4" x1="4674" y1="1731.3" x2="4594.1" y2="1618.2"/>
					<polyline class="st1" points="4586.8,1607.9 4579.4,1597.4 4592.3,1597.4 					"/>
					<line class="st3" x1="4620" y1="1597.4" x2="4717.5" y2="1597.4"/>
				</g>
			</g>
		</g>
	</g>
</g>
<g>
	<g class="st0">
		<g>
			<g>
				<g>
					<polyline class="st1" points="4281.8,1432.6 4294.7,1432.6 4287.2,1443.1 					"/>
					<line class="st2" x1="4272.7" y1="1463.6" x2="4192.8" y2="1576.7"/>
					<polyline class="st1" points="4185.5,1586.9 4178.1,1597.4 4165.2,1597.4 					"/>
					<line class="st3" x1="4137.4" y1="1597.4" x2="4040" y2="1597.4"/>
					<polyline class="st1" points="4026.1,1597.4 4013.3,1597.4 4020.7,1586.9 					"/>
					<line class="st2" x1="4035.2" y1="1566.4" x2="4115.1" y2="1453.4"/>
					<polyline class="st1" points="4122.4,1443.1 4129.9,1432.6 4142.7,1432.6 					"/>
					<line class="st3" x1="4170.5" y1="1432.6" x2="4267.9" y2="1432.6"/>
				</g>
			</g>
		</g>
		<g>
			<g>
				<g>
					<polyline class="st1" points="4287.2,1443.1 4294.7,1432.6 4302.1,1443.1 					"/>
					<line class="st4" x1="4316.6" y1="1463.6" x2="4396.5" y2="1576.7"/>
					<polyline class="st1" points="4403.8,1586.9 4411.2,1597.4 4403.8,1607.9 					"/>
					<line class="st2" x1="4389.3" y1="1628.5" x2="4309.3" y2="1741.5"/>
					<polyline class="st1" points="4302.1,1751.8 4294.7,1762.2 4287.2,1751.8 					"/>
					<line class="st4" x1="4272.7" y1="1731.3" x2="4192.8" y2="1618.2"/>
					<polyline class="st1" points="4185.5,1607.9 4178.1,1597.4 4185.5,1586.9 					"/>
					<line class="st2" x1="4200" y1="1566.4" x2="4280" y2="1453.4"/>
				</g>
			</g>
		</g>
		<g>
			<g>
				<g>
					<polyline class="st1" points="4165.2,1597.4 4178.1,1597.4 4185.5,1607.9 					"/>
					<line class="st4" x1="4200" y1="1628.5" x2="4280" y2="1741.5"/>
					<polyline class="st1" points="4287.2,1751.8 4294.7,1762.2 4281.8,1762.2 					"/>
					<line class="st3" x1="4253.9" y1="1762.2" x2="4156.6" y2="1762.2"/>
					<polyline class="st1" points="4142.7,1762.2 4129.9,1762.2 4122.4,1751.8 					"/>
					<line class="st4" x1="4107.9" y1="1731.3" x2="4027.9" y2="1618.2"/>
					<polyline class="st1" points="4020.7,1607.9 4013.3,1597.4 4026.1,1597.4 					"/>
					<line class="st3" x1="4053.9" y1="1597.4" x2="4151.3" y2="1597.4"/>
				</g>
			</g>
		</g>
	</g>
</g>
<g>
	<g class="st0">
		<g>
			<g>
				<g>
					<polyline class="st1" points="3964.3,698.6 3977.2,698.6 3969.8,709.1 					"/>
					<line class="st2" x1="3955.2" y1="729.7" x2="3875.3" y2="842.7"/>
					<polyline class="st1" points="3868,852.9 3860.6,863.4 3847.8,863.4 					"/>
					<line class="st3" x1="3820" y1="863.4" x2="3722.6" y2="863.4"/>
					<polyline class="st1" points="3708.7,863.4 3695.8,863.4 3703.2,852.9 					"/>
					<line class="st2" x1="3717.8" y1="832.4" x2="3797.7" y2="719.4"/>
					<polyline class="st1" points="3805,709.1 3812.3,698.6 3825.2,698.6 					"/>
					<line class="st3" x1="3853" y1="698.6" x2="3950.5" y2="698.6"/>
				</g>
			</g>
		</g>
		<g>
			<g>
				<g>
					<polyline class="st1" points="3969.8,709.1 3977.2,698.6 3984.6,709.1 					"/>
					<line class="st4" x1="3999.2" y1="729.7" x2="4079.1" y2="842.7"/>
					<polyline class="st1" points="4086.3,852.9 4093.7,863.4 4086.3,873.9 					"/>
					<line class="st2" x1="4071.8" y1="894.5" x2="3991.9" y2="1007.5"/>
					<polyline class="st1" points="3984.6,1017.8 3977.2,1028.2 3969.8,1017.8 					"/>
					<line class="st4" x1="3955.2" y1="997.3" x2="3875.3" y2="884.2"/>
					<polyline class="st1" points="3868,873.9 3860.6,863.4 3868,852.9 					"/>
					<line class="st2" x1="3882.6" y1="832.4" x2="3962.5" y2="719.4"/>
				</g>
			</g>
		</g>
		<g>
			<g>
				<g>
					<polyline class="st1" points="3847.8,863.4 3860.6,863.4 3868,873.9 					"/>
					<line class="st4" x1="3882.6" y1="894.5" x2="3962.5" y2="1007.5"/>
					<polyline class="st1" points="3969.8,1017.8 3977.2,1028.2 3964.3,1028.2 					"/>
					<line class="st3" x1="3936.5" y1="1028.2" x2="3839.1" y2="1028.2"/>
					<polyline class="st1" points="3825.2,1028.2 3812.3,1028.2 3805,1017.8 					"/>
					<line class="st4" x1="3790.4" y1="997.3" x2="3710.5" y2="884.2"/>
					<polyline class="st1" points="3703.2,873.9 3695.8,863.4 3708.7,863.4 					"/>
					<line class="st3" x1="3736.5" y1="863.4" x2="3833.9" y2="863.4"/>
				</g>
			</g>
		</g>
	</g>
</g>
<g>
	<g class="st0">
		<g>
			<g>
				<g>
					<polyline class="st1" points="4284.7,1098.5 4297.5,1098.5 4290.1,1109 					"/>
					<line class="st2" x1="4275.6" y1="1129.6" x2="4195.7" y2="1242.6"/>
					<polyline class="st1" points="4188.4,1252.9 4180.9,1263.4 4168.1,1263.4 					"/>
					<line class="st3" x1="4140.3" y1="1263.4" x2="4042.9" y2="1263.4"/>
					<polyline class="st1" points="4029,1263.4 4016.1,1263.4 4023.5,1252.9 					"/>
					<line class="st2" x1="4038.1" y1="1232.3" x2="4118" y2="1119.3"/>
					<polyline class="st1" points="4125.3,1109 4132.6,1098.5 4145.5,1098.5 					"/>
					<line class="st3" x1="4173.3" y1="1098.5" x2="4270.8" y2="1098.5"/>
				</g>
			</g>
		</g>
		<g>
			<g>
				<g>
					<polyline class="st1" points="4290.1,1109 4297.5,1098.5 4304.9,1109 					"/>
					<line class="st4" x1="4319.5" y1="1129.6" x2="4399.4" y2="1242.6"/>
					<polyline class="st1" points="4406.6,1252.9 4414,1263.4 4406.6,1273.9 					"/>
					<line class="st2" x1="4392.1" y1="1294.4" x2="4312.2" y2="1407.4"/>
					<polyline class="st1" points="4304.9,1417.7 4297.5,1428.2 4290.1,1417.7 					"/>
					<line class="st4" x1="4275.6" y1="1397.1" x2="4195.7" y2="1284.1"/>
					<polyline class="st1" points="4188.4,1273.9 4180.9,1263.4 4188.4,1252.9 					"/>
					<line class="st2" x1="4202.9" y1="1232.3" x2="4282.8" y2="1119.3"/>
				</g>
			</g>
		</g>
		<g>
			<g>
				<g>
					<polyline class="st1" points="4168.1,1263.4 4180.9,1263.4 4188.4,1273.9 					"/>
					<line class="st4" x1="4202.9" y1="1294.4" x2="4282.8" y2="1407.4"/>
					<polyline class="st1" points="4290.1,1417.7 4297.5,1428.2 4284.7,1428.2 					"/>
					<line class="st3" x1="4256.8" y1="1428.2" x2="4159.5" y2="1428.2"/>
					<polyline class="st1" points="4145.5,1428.2 4132.6,1428.2 4125.3,1417.7 					"/>
					<line class="st4" x1="4110.7" y1="1397.1" x2="4030.8" y2="1284.1"/>
					<polyline class="st1" points="4023.5,1273.9 4016.1,1263.4 4029,1263.4 					"/>
					<line class="st3" x1="4056.8" y1="1263.4" x2="4154.2" y2="1263.4"/>
				</g>
			</g>
		</g>
	</g>
</g>
<g>
	<g class="st0">
		<g>
			<g>
				<g>
					<polyline class="st1" points="4566.3,1263.4 4579.1,1263.4 4571.7,1273.9 					"/>
					<line class="st2" x1="4557.2" y1="1294.4" x2="4477.3" y2="1407.4"/>
					<polyline class="st1" points="4470,1417.7 4462.6,1428.2 4449.7,1428.2 					"/>
					<line class="st3" x1="4421.9" y1="1428.2" x2="4324.5" y2="1428.2"/>
					<polyline class="st1" points="4310.6,1428.2 4297.7,1428.2 4305.2,1417.7 					"/>
					<line class="st2" x1="4319.7" y1="1397.2" x2="4399.6" y2="1284.1"/>
					<polyline class="st1" points="4406.9,1273.9 4414.3,1263.4 4427.2,1263.4 					"/>
					<line class="st3" x1="4455" y1="1263.4" x2="4552.4" y2="1263.4"/>
				</g>
			</g>
		</g>
		<g>
			<g>
				<g>
					<polyline class="st1" points="4571.7,1273.9 4579.1,1263.4 4586.6,1273.9 					"/>
					<line class="st4" x1="4601.1" y1="1294.4" x2="4681" y2="1407.4"/>
					<polyline class="st1" points="4688.3,1417.7 4695.7,1428.2 4688.3,1438.7 					"/>
					<line class="st2" x1="4673.8" y1="1459.2" x2="4593.9" y2="1572.3"/>
					<polyline class="st1" points="4586.6,1582.6 4579.1,1593.1 4571.7,1582.6 					"/>
					<line class="st4" x1="4557.2" y1="1562" x2="4477.3" y2="1449"/>
					<polyline class="st1" points="4470,1438.7 4462.6,1428.2 4470,1417.7 					"/>
					<line class="st2" x1="4484.6" y1="1397.2" x2="4564.5" y2="1284.1"/>
				</g>
			</g>
		</g>
		<g>
			<g>
				<g>
					<polyline class="st1" points="4449.7,1428.2 4462.6,1428.2 4470,1438.7 					"/>
					<line class="st4" x1="4484.6" y1="1459.2" x2="4564.5" y2="1572.3"/>
					<polyline class="st1" points="4571.7,1582.6 4579.1,1593.1 4566.3,1593.1 					"/>
					<line class="st3" x1="4538.5" y1="1593.1" x2="4441.1" y2="1593.1"/>
					<polyline class="st1" points="4427.2,1593.1 4414.3,1593.1 4406.9,1582.6 					"/>
					<line class="st4" x1="4392.4" y1="1562" x2="4312.5" y2="1449"/>
					<polyline class="st1" points="4305.2,1438.7 4297.7,1428.2 4310.6,1428.2 					"/>
					<line class="st3" x1="4338.4" y1="1428.2" x2="4435.8" y2="1428.2"/>
				</g>
			</g>
		</g>
	</g>
</g>
<g>
	<g class="st0">
		<g>
			<g>
				<g>
					<polyline class="st1" points="4566.3,933.6 4579.1,933.6 4571.7,944.2 					"/>
					<line class="st2" x1="4557.2" y1="964.7" x2="4477.3" y2="1077.7"/>
					<polyline class="st1" points="4470,1088 4462.6,1098.5 4449.7,1098.5 					"/>
					<line class="st3" x1="4421.9" y1="1098.5" x2="4324.5" y2="1098.5"/>
					<polyline class="st1" points="4310.6,1098.5 4297.7,1098.5 4305.2,1088 					"/>
					<line class="st2" x1="4319.7" y1="1067.4" x2="4399.6" y2="954.4"/>
					<polyline class="st1" points="4406.9,944.2 4414.3,933.6 4427.2,933.6 					"/>
					<line class="st3" x1="4455" y1="933.6" x2="4552.4" y2="933.6"/>
				</g>
			</g>
		</g>
		<g>
			<g>
				<g>
					<polyline class="st1" points="4571.7,944.2 4579.1,933.6 4586.6,944.2 					"/>
					<line class="st4" x1="4601.1" y1="964.7" x2="4681" y2="1077.7"/>
					<polyline class="st1" points="4688.3,1088 4695.7,1098.5 4688.3,1109 					"/>
					<line class="st2" x1="4673.8" y1="1129.6" x2="4593.9" y2="1242.5"/>
					<polyline class="st1" points="4586.6,1252.8 4579.1,1263.3 4571.7,1252.8 					"/>
					<line class="st4" x1="4557.2" y1="1232.2" x2="4477.3" y2="1119.3"/>
					<polyline class="st1" points="4470,1109 4462.6,1098.5 4470,1088 					"/>
					<line class="st2" x1="4484.6" y1="1067.4" x2="4564.5" y2="954.4"/>
				</g>
			</g>
		</g>
		<g>
			<g>
				<g>
					<polyline class="st1" points="4449.7,1098.5 4462.6,1098.5 4470,1109 					"/>
					<line class="st4" x1="4484.6" y1="1129.6" x2="4564.5" y2="1242.5"/>
					<polyline class="st1" points="4571.7,1252.8 4579.1,1263.3 4566.3,1263.3 					"/>
					<line class="st3" x1="4538.5" y1="1263.3" x2="4441.1" y2="1263.3"/>
					<polyline class="st1" points="4427.2,1263.3 4414.3,1263.3 4406.9,1252.8 					"/>
					<line class="st4" x1="4392.4" y1="1232.2" x2="4312.5" y2="1119.3"/>
					<polyline class="st1" points="4305.2,1109 4297.7,1098.5 4310.6,1098.5 					"/>
					<line class="st3" x1="4338.4" y1="1098.5" x2="4435.8" y2="1098.5"/>
				</g>
			</g>
		</g>
	</g>
</g>
<g>
	<g class="st0">
		<g>
			<g>
				<g>
					<polyline class="st1" points="5123.1,599.6 5135.9,599.6 5128.5,610 					"/>
					<line class="st2" x1="5114" y1="630.6" x2="5034.1" y2="743.6"/>
					<polyline class="st1" points="5026.9,753.9 5019.4,764.4 5006.6,764.4 					"/>
					<line class="st3" x1="4978.7" y1="764.4" x2="4881.4" y2="764.4"/>
					<polyline class="st1" points="4867.4,764.4 4854.5,764.4 4862,753.9 					"/>
					<line class="st2" x1="4876.5" y1="733.4" x2="4956.4" y2="620.3"/>
					<polyline class="st1" points="4963.7,610 4971.1,599.6 4984,599.6 					"/>
					<line class="st3" x1="5011.8" y1="599.6" x2="5109.2" y2="599.6"/>
				</g>
			</g>
		</g>
		<g>
			<g>
				<g>
					<polyline class="st1" points="5128.5,610 5135.9,599.6 5143.4,610 					"/>
					<line class="st4" x1="5157.9" y1="630.6" x2="5237.8" y2="743.6"/>
					<polyline class="st1" points="5245.1,753.9 5252.5,764.4 5245.1,774.9 					"/>
					<line class="st2" x1="5230.6" y1="795.4" x2="5150.7" y2="908.5"/>
					<polyline class="st1" points="5143.4,918.7 5135.9,929.2 5128.5,918.7 					"/>
					<line class="st4" x1="5114" y1="898.2" x2="5034.1" y2="785.1"/>
					<polyline class="st1" points="5026.9,774.9 5019.4,764.4 5026.9,753.9 					"/>
					<line class="st2" x1="5041.4" y1="733.4" x2="5121.3" y2="620.3"/>
				</g>
			</g>
		</g>
		<g>
			<g>
				<g>
					<polyline class="st1" points="5006.6,764.4 5019.4,764.4 5026.9,774.9 					"/>
					<line class="st4" x1="5041.4" y1="795.4" x2="5121.3" y2="908.5"/>
					<polyline class="st1" points="5128.5,918.7 5135.9,929.2 5123.1,929.2 					"/>
					<line class="st3" x1="5095.3" y1="929.2" x2="4997.9" y2="929.2"/>
					<polyline class="st1" points="4984,929.2 4971.1,929.2 4963.7,918.7 					"/>
					<line class="st4" x1="4949.2" y1="898.2" x2="4869.3" y2="785.1"/>
					<polyline class="st1" points="4862,774.9 4854.5,764.4 4867.4,764.4 					"/>
					<line class="st3" x1="4895.3" y1="764.4" x2="4992.6" y2="764.4"/>
				</g>
			</g>
		</g>
	</g>
</g>
<g>
	<g class="st0">
		<g>
			<g>
				<g>
					<polyline class="st1" points="5484.8,1169.2 5497.7,1169.2 5490.2,1179.7 					"/>
					<line class="st2" x1="5475.7" y1="1200.3" x2="5395.8" y2="1313.3"/>
					<polyline class="st1" points="5388.5,1323.5 5381.1,1334 5368.3,1334 					"/>
					<line class="st3" x1="5340.4" y1="1334" x2="5243" y2="1334"/>
					<polyline class="st1" points="5229.1,1334 5216.3,1334 5223.7,1323.5 					"/>
					<line class="st2" x1="5238.2" y1="1303" x2="5318.1" y2="1190"/>
					<polyline class="st1" points="5325.4,1179.7 5332.9,1169.2 5345.7,1169.2 					"/>
					<line class="st3" x1="5373.5" y1="1169.2" x2="5470.9" y2="1169.2"/>
				</g>
			</g>
		</g>
		<g>
			<g>
				<g>
					<polyline class="st1" points="5490.2,1179.7 5497.7,1169.2 5505.1,1179.7 					"/>
					<line class="st4" x1="5519.6" y1="1200.3" x2="5599.5" y2="1313.3"/>
					<polyline class="st1" points="5606.8,1323.5 5614.3,1334 5606.8,1344.5 					"/>
					<line class="st2" x1="5592.3" y1="1365.1" x2="5512.3" y2="1478.1"/>
					<polyline class="st1" points="5505.1,1488.4 5497.7,1498.9 5490.2,1488.4 					"/>
					<line class="st4" x1="5475.7" y1="1467.9" x2="5395.8" y2="1354.8"/>
					<polyline class="st1" points="5388.5,1344.5 5381.1,1334 5388.5,1323.5 					"/>
					<line class="st2" x1="5403.1" y1="1303" x2="5483" y2="1190"/>
				</g>
			</g>
		</g>
		<g>
			<g>
				<g>
					<polyline class="st1" points="5368.3,1334 5381.1,1334 5388.5,1344.5 					"/>
					<line class="st4" x1="5403" y1="1365.1" x2="5483" y2="1478.1"/>
					<polyline class="st1" points="5490.2,1488.4 5497.7,1498.9 5484.8,1498.9 					"/>
					<line class="st3" x1="5457" y1="1498.9" x2="5359.6" y2="1498.9"/>
					<polyline class="st1" points="5345.7,1498.9 5332.9,1498.9 5325.4,1488.4 					"/>
					<line class="st4" x1="5310.9" y1="1467.9" x2="5231" y2="1354.8"/>
					<polyline class="st1" points="5223.7,1344.5 5216.3,1334 5229.1,1334 					"/>
					<line class="st3" x1="5257" y1="1334" x2="5354.3" y2="1334"/>
				</g>
			</g>
		</g>
	</g>
</g>
<g>
	<g class="st0">
		<g>
			<polygon class="st5" points="641.5,1180.9 523,1348.5 355.4,1348.5 473.9,1180.9 			"/>
		</g>
		<g>
			<polygon class="st5" points="641.5,1180.9 760,1348.5 641.5,1516.1 523,1348.5 			"/>
		</g>
		<g>
			<polygon class="st5" points="523,1348.5 641.5,1516.1 473.9,1516.1 355.4,1348.5 			"/>
		</g>
	</g>
</g>
<g>
	<g class="st0">
		<g>
			<polygon class="st5" points="5270.1,199.9 5186.1,318.6 5067.4,318.6 5151.4,199.9 			"/>
		</g>
		<g>
			<polygon class="st5" points="5270.1,199.9 5354,318.6 5270.1,437.3 5186.1,318.6 			"/>
		</g>
		<g>
			<polygon class="st5" points="5186.1,318.6 5270.1,437.3 5151.4,437.3 5067.4,318.6 			"/>
		</g>
	</g>
</g>
</svg>
