<?xml version="1.0" encoding="utf-8"?>
<!-- Generator: Adobe Illustrator 22.1.0, SVG Export Plug-In . SVG Version: 6.00 Build 0)  -->
<svg version="1.1" id="Layer_1" xmlns="http://www.w3.org/2000/svg" xmlns:xlink="http://www.w3.org/1999/xlink" x="0px" y="0px"
	 viewBox="0 0 1854 2054" style="enable-background:new 0 0 1854 2054;" xml:space="preserve">
<style type="text/css">
	.st0{fill:none;stroke:#FFECB6;stroke-width:4;stroke-miterlimit:10;}
</style>
<path class="st0" d="M1628,577.9c-0.2-1-0.7-1.8-1.1-2.7c-0.1-0.1-0.1-0.2-0.1-0.2c-0.7-1.4-1.7-2.3-3-3.3c-0.2-0.2-0.5-0.4-0.9-0.6
	c-0.2-0.2-0.5-0.5-0.7-0.6L931.4,171.5c-0.2-0.1-0.6-0.2-0.9-0.4c-0.4-0.1-0.7-0.2-1.1-0.4c-2.7-1-5.7-1-8.4,0
	c-0.4,0.1-0.7,0.2-1.1,0.4c-0.2,0.1-0.6,0.2-0.9,0.4L228.2,570.4c-0.2,0.1-0.5,0.4-0.7,0.6c-0.4,0.2-0.6,0.4-1,0.6
	c-1.1,1-2.1,2.1-2.8,3.3c-0.7,1.2-1.1,2.6-1.4,4.1c0,0.4-0.1,0.7-0.1,1.1c0,0.2-0.1,0.6-0.1,1v797.7c0,0.4,0.1,0.6,0.1,1
	c0,0.4,0.1,0.7,0.1,1.1c0.2,1.4,0.6,2.8,1.4,4.1h0.1c0.5,1,1.1,1.8,1.8,2.6c0.5,0.4,1,0.7,1.5,1.1c0.4,0.2,0.7,0.6,1.1,0.9
	l690.8,398.8c0.2,0.2,0.6,0.2,0.9,0.4c0.4,0.2,0.7,0.4,1.1,0.5c1.4,0.5,2.7,0.9,4.2,0.9c1.5,0,2.8-0.4,4.2-0.9
	c0.4-0.1,0.7-0.2,1.1-0.5c0.2-0.1,0.6-0.1,0.9-0.4l690.8-398.8c0.4-0.2,0.7-0.6,1.1-0.9c0.5-0.4,1-0.7,1.5-1.1
	c0.7-0.7,1.4-1.6,1.8-2.6h0.1c0.7-1.2,1.1-2.7,1.4-4.1c0-0.4,0.1-0.7,0.1-1.1c0-0.4,0.1-0.6,0.1-1V581.1c0-0.1,0-0.1,0-0.2
	C1628.4,579.9,1628.2,578.9,1628,577.9z M937.5,203.5l653.9,377.6l-165.6,95.5L937.5,394.8V203.5z M1270.1,1164.8V795l143.3-82.8
	v535.3L1270.1,1164.8z M1401.1,1269l-463.6,267.7v-165.5l320.3-185L1401.1,1269z M937.5,423.2l463.6,267.7l-143.3,82.8l-320.3-185
	V423.2z M912.9,203.5v191.3L424.6,676.6L259,581.1L912.9,203.5z M449.3,690.9l463.6-267.7v165.5l-320.3,185L449.3,690.9z M580.3,795
	v369.8L437,1247.5V712.2L580.3,795z M246.7,602.4L412.3,698v563.8l-165.6,95.6V602.4z M912.9,1756.2L259,1378.8l165.6-95.6
	l488.2,282V1756.2z M912.9,1536.6L449.3,1269l143.3-82.8l320.3,185V1536.6z M928.9,1346.6l-317.5-183.3V796.7l317.5-183.3
	l317.5,183.3v366.6L928.9,1346.6z M937.5,1756.2v-191.1l488.2-282l165.6,95.6L937.5,1756.2z M1603.7,1357.5l-165.6-95.6V698
	l165.6-95.6V1357.5z"/>
</svg>
