<?xml version="1.0" encoding="utf-8"?>
<!-- Generator: Adobe Illustrator 22.1.0, SVG Export Plug-In . SVG Version: 6.00 Build 0)  -->
<svg version="1.1" id="Layer_1" xmlns="http://www.w3.org/2000/svg" xmlns:xlink="http://www.w3.org/1999/xlink" x="0px" y="0px"
	 viewBox="0 0 6004 2054" style="enable-background:new 0 0 6004 2054;" xml:space="preserve">
<style type="text/css">
	.st0{fill:#FFECB6;}
	.st1{fill:none;stroke:#FFECB6;stroke-width:5;stroke-miterlimit:10;}
	.st2{enable-background:new    ;}
	.st3{fill:none;stroke:#FFECB6;stroke-width:6;stroke-miterlimit:10;}
</style>
<path class="st0" d="M1438.9,777.1c-0.2-0.7-0.5-1.4-0.8-2c-0.1-0.1-0.1-0.2-0.1-0.2c-0.5-1-1.3-1.7-2.2-2.4
	c-0.2-0.2-0.4-0.3-0.6-0.5s-0.4-0.4-0.5-0.5l-505-291.4c-0.2-0.1-0.5-0.2-0.6-0.3c-0.3-0.1-0.5-0.2-0.8-0.3c-2-0.7-4.1-0.7-6.1,0
	c-0.3,0.1-0.5,0.2-0.8,0.3c-0.2,0.1-0.5,0.2-0.6,0.3l-505,291.5c-0.2,0.1-0.4,0.3-0.5,0.5c-0.3,0.2-0.5,0.3-0.7,0.5
	c-0.8,0.7-1.5,1.5-2.1,2.4c-0.5,0.9-0.8,1.9-1,3c0,0.3-0.1,0.5-0.1,0.8c0,0.2-0.1,0.5-0.1,0.7v583c0,0.3,0.1,0.5,0.1,0.7
	c0,0.3,0.1,0.5,0.1,0.8c0.2,1,0.5,2.1,1,3h0.1c0.4,0.7,0.8,1.4,1.4,1.9c0.4,0.3,0.7,0.5,1.1,0.8c0.3,0.2,0.5,0.5,0.8,0.6
	l504.9,291.5c0.2,0.2,0.5,0.2,0.6,0.3c0.3,0.2,0.5,0.3,0.8,0.4c1,0.4,2,0.6,3.1,0.6s2.1-0.3,3.1-0.6c0.3-0.1,0.5-0.2,0.8-0.4
	c0.2-0.1,0.5-0.1,0.6-0.3l504.9-291.5c0.3-0.2,0.5-0.5,0.8-0.6c0.4-0.3,0.7-0.5,1.1-0.8c0.5-0.5,1-1.2,1.4-1.9h0.1
	c0.5-0.9,0.8-2,1-3c0-0.3,0.1-0.5,0.1-0.8s0.1-0.5,0.1-0.7v-583c0-0.1,0-0.1,0-0.2C1439.1,778.6,1439,777.8,1438.9,777.1z
	 M934.2,503.5l477.9,276l-121,69.8l-356.8-206L934.2,503.5L934.2,503.5z M1177.3,1206.1V935.8l104.7-60.5v391.2L1177.3,1206.1z
	 M1273,1282.2l-338.8,195.6v-121l234.1-135.2L1273,1282.2z M934.2,664.1L1273,859.7l-104.7,60.5L934.2,785V664.1z M916.2,503.5
	v139.8l-356.8,206l-121-69.8L916.2,503.5z M577.4,859.7l338.8-195.6v121L682.1,920.2L577.4,859.7z M673.1,935.8v270.3l-104.7,60.4
	V875.3L673.1,935.8z M429.3,795l121,69.9v412l-121,69.9V795z M916.2,1638.3l-477.9-275.9l121-69.9l356.8,206.1L916.2,1638.3
	L916.2,1638.3z M916.2,1477.8l-338.8-195.6l104.7-60.5l234.1,135.2L916.2,1477.8L916.2,1477.8z M927.9,1338.9l-232-134V937l232-134
	l232,134v268L927.9,1338.9z M934.2,1638.3v-139.7l356.8-206.1l121,69.9L934.2,1638.3z M1421.1,1346.9l-121-69.9V865l121-69.9V1346.9
	z"/>
<line class="st1" x1="939" y1="1071" x2="2024" y2="449"/>
<line class="st1" x1="939.5" y1="1071.5" x2="925.5" y2="2023.5"/>
<line class="st1" x1="42.5" y1="569.5" x2="939.5" y2="1071.5"/>
<path class="st0" d="M4571.9,612.1c-0.2-0.7-0.5-1.4-0.8-2c-0.1-0.1-0.1-0.2-0.1-0.2c-0.5-1-1.3-1.7-2.2-2.4
	c-0.2-0.2-0.4-0.3-0.6-0.5s-0.4-0.4-0.5-0.5L4062.8,315c-0.2-0.1-0.5-0.2-0.6-0.3c-0.3-0.1-0.5-0.2-0.8-0.3c-2-0.7-4.1-0.7-6.1,0
	c-0.3,0.1-0.5,0.2-0.8,0.3c-0.2,0.1-0.5,0.2-0.6,0.3L3549,606.5c-0.2,0.1-0.4,0.3-0.5,0.5c-0.3,0.2-0.5,0.3-0.7,0.5
	c-0.8,0.7-1.5,1.5-2.1,2.4c-0.5,0.9-0.8,1.9-1,3c0,0.3-0.1,0.5-0.1,0.8c0,0.2-0.1,0.5-0.1,0.7v583c0,0.3,0.1,0.5,0.1,0.7
	c0,0.3,0.1,0.5,0.1,0.8c0.2,1,0.5,2.1,1,3h0.1c0.4,0.7,0.8,1.4,1.4,1.9c0.4,0.3,0.7,0.5,1.1,0.8c0.3,0.2,0.5,0.5,0.8,0.6
	l504.9,291.5c0.2,0.2,0.5,0.2,0.6,0.3c0.3,0.2,0.5,0.3,0.8,0.4c1,0.4,2,0.6,3.1,0.6s2.1-0.3,3.1-0.6c0.3-0.1,0.5-0.2,0.8-0.4
	c0.2-0.1,0.5-0.1,0.6-0.3l504.9-291.5c0.3-0.2,0.5-0.5,0.8-0.6c0.4-0.3,0.7-0.5,1.1-0.8c0.5-0.5,1-1.2,1.4-1.9h0.1
	c0.5-0.9,0.8-2,1-3c0-0.3,0.1-0.5,0.1-0.8s0.1-0.5,0.1-0.7v-583c0-0.1,0-0.1,0-0.2C4572.1,613.6,4572,612.8,4571.9,612.1z
	 M4067.2,338.5l477.9,276l-121,69.8l-356.8-206V338.5H4067.2z M4310.3,1041.1V770.8l104.7-60.5v391.2L4310.3,1041.1z M4406,1117.2
	l-338.8,195.6v-121l234.1-135.2L4406,1117.2z M4067.2,499.1L4406,694.7l-104.7,60.5L4067.2,620V499.1z M4049.2,338.5v139.8
	l-356.8,206l-121-69.8L4049.2,338.5z M3710.4,694.7l338.8-195.6v121l-234.1,135.2L3710.4,694.7z M3806.1,770.8v270.3l-104.7,60.4
	V710.3L3806.1,770.8z M3562.3,630l121,69.9v412l-121,69.9V630z M4049.2,1473.3l-477.9-275.9l121-69.9l356.8,206.1L4049.2,1473.3
	L4049.2,1473.3z M4049.2,1312.8l-338.8-195.6l104.7-60.5l234.1,135.2V1312.8z M4060.9,1173.9l-232-134V772l232-134l232,134v268
	L4060.9,1173.9z M4067.2,1473.3v-139.7l356.8-206.1l121,69.9L4067.2,1473.3z M4554.1,1181.9l-121-69.9V700l121-69.9V1181.9z"/>
<g>
	<line class="st1" x1="4072" y1="906" x2="5157" y2="284"/>
	<line class="st1" x1="4072.5" y1="906.5" x2="4058.5" y2="1858.5"/>
	<line class="st1" x1="3175.5" y1="404.5" x2="4072.5" y2="906.5"/>
</g>
<line class="st1" x1="4752" y1="516" x2="5839" y2="577"/>
<line class="st1" x1="5777" y1="272" x2="5466" y2="556"/>
<g>
	<g class="st2">
		<g>
			<polygon class="st3" points="3124.1,223.9 2971,333 2826.1,282.4 2979.2,173.3 			"/>
		</g>
		<g>
			<polygon class="st3" points="3124.1,223.9 3175.9,404.6 3022.8,513.7 2971,333 			"/>
		</g>
		<g>
			<polygon class="st3" points="2971,333 3022.8,513.7 2877.9,463.1 2826.1,282.4 			"/>
		</g>
	</g>
</g>
<g>
	<g class="st2">
		<g>
			<polygon class="st3" points="5224.3,1068.3 5115.8,1221.8 4962.3,1221.8 5070.8,1068.3 			"/>
		</g>
		<g>
			<polygon class="st3" points="5224.3,1068.3 5332.8,1221.8 5224.3,1375.3 5115.8,1221.8 			"/>
		</g>
		<g>
			<polygon class="st3" points="5115.8,1221.8 5224.3,1375.3 5070.8,1375.3 4962.3,1221.8 			"/>
		</g>
	</g>
</g>
<g>
	<g class="st2">
		<g>
			<polygon class="st3" points="5674.6,1344.3 5456.2,1653.2 5147.3,1653.2 5365.7,1344.3 			"/>
		</g>
		<g>
			<polygon class="st3" points="5674.6,1344.3 5893,1653.2 5674.6,1962.1 5456.2,1653.2 			"/>
		</g>
		<g>
			<polygon class="st3" points="5456.2,1653.2 5674.6,1962.1 5365.7,1962.1 5147.3,1653.2 			"/>
		</g>
	</g>
</g>
<path class="st3" d="M1439.2,1363.2"/>
</svg>
