<?xml version="1.0" encoding="utf-8"?>
<!-- Generator: Adobe Illustrator 22.1.0, SVG Export Plug-In . SVG Version: 6.00 Build 0)  -->
<svg version="1.1" id="Layer_1" xmlns="http://www.w3.org/2000/svg" xmlns:xlink="http://www.w3.org/1999/xlink" x="0px" y="0px"
	 viewBox="0 0 317 395" style="enable-background:new 0 0 317 395;" xml:space="preserve">
<style type="text/css">
	.st0{fill:url(#SVGID_1_);}
	.st1{fill:#B3B3B3;}
	.st2{fill:#E6E6E6;}
	.st3{fill:#808080;}
</style>
<linearGradient id="SVGID_1_" gradientUnits="userSpaceOnUse" x1="161.3267" y1="385" x2="161.3267" y2="74.2891">
	<stop  offset="0" style="stop-color:#CE952B"/>
	<stop  offset="0.4453" style="stop-color:#FCCA52"/>
	<stop  offset="0.9975" style="stop-color:#BDBDBD"/>
</linearGradient>
<path class="st0" d="M270.7,176.5c0-56.4-49-102.2-109.3-102.2C101,74.3,52,120.1,52,176.5c0,29.9,14.2,58.4,38.3,77.7v120.1h-9.5
	V385h158v-10.7h-9.5V256.6C255.3,237.3,270.7,207.7,270.7,176.5z M62,176.5c0-50.9,44.6-92.2,99.3-92.2c54.8,0,99.3,41.4,99.3,92.2
	c0,25.6-11.5,49.9-31.4,67.3v-46.3h-139V241C72.4,223.9,62,200.7,62,176.5z M110.1,244v-29.7h29.7V244H110.1z M139.7,258.9v29.7
	h-29.7v-29.7H139.7z M110.1,299.6h29.7v29.7h-29.7V299.6z M179.8,374.3h-40.1v-34.7h40.1V374.3z M209.5,329.2h-29.7v-29.7h29.7
	V329.2z M209.5,288.6h-29.7v-29.7h29.7V288.6z M209.5,244h-29.7v-29.7h29.7V244z"/>
<g>
	<g>
		<g>
			<polygon class="st1" points="174.9,72.7 159.3,95.4 137.4,95.4 153,72.7 			"/>
		</g>
		<g>
			<polygon class="st2" points="174.9,72.7 190.8,95.4 174.9,118.1 159.3,95.4 			"/>
		</g>
		<g>
			<polygon class="st3" points="159.3,95.4 174.9,118.1 153,118.1 137.4,95.4 			"/>
		</g>
	</g>
	<g>
		<g>
			<polygon class="st1" points="174.9,27.2 159.3,49.9 137.4,49.9 153,27.2 			"/>
		</g>
		<g>
			<polygon class="st2" points="174.9,27.2 190.8,49.9 174.9,72.7 159.3,49.9 			"/>
		</g>
		<g>
			<polygon class="st3" points="159.3,49.9 174.9,72.7 153,72.7 137.4,49.9 			"/>
		</g>
	</g>
	<g>
		<g>
			<polygon class="st1" points="174.9,118.1 159.3,140.9 137.4,140.9 153,118.1 			"/>
		</g>
		<g>
			<polygon class="st2" points="174.9,118.1 190.8,140.9 174.9,163.7 159.3,140.9 			"/>
		</g>
		<g>
			<polygon class="st3" points="159.3,140.9 174.9,163.7 153,163.7 137.4,140.9 			"/>
		</g>
	</g>
	<g>
		<g>
			<polygon class="st1" points="212.6,95.4 197,118.1 175,118.1 190.6,95.4 			"/>
		</g>
		<g>
			<polygon class="st2" points="212.6,95.4 228.3,118.1 212.6,140.9 197,118.1 			"/>
		</g>
		<g>
			<polygon class="st3" points="197,118.1 212.6,140.9 190.6,140.9 175,118.1 			"/>
		</g>
	</g>
	<g>
		<g>
			<polygon class="st1" points="212.4,49.9 196.9,72.6 174.9,72.6 190.5,49.9 			"/>
		</g>
		<g>
			<polygon class="st2" points="212.4,49.9 228.3,72.6 212.4,95.4 196.9,72.6 			"/>
		</g>
		<g>
			<polygon class="st3" points="196.9,72.6 212.4,95.4 190.5,95.4 174.9,72.6 			"/>
		</g>
	</g>
	<g>
		<g>
			<polygon class="st1" points="137.7,95.4 122.1,118.1 100.2,118.1 115.8,95.4 			"/>
		</g>
		<g>
			<polygon class="st2" points="137.7,95.4 153.5,118.1 137.7,140.9 122.1,118.1 			"/>
		</g>
		<g>
			<polygon class="st3" points="122.1,118.1 137.7,140.9 115.8,140.9 100.2,118.1 			"/>
		</g>
	</g>
	<g>
		<g>
			<polygon class="st1" points="137.6,49.9 122,72.6 100.1,72.6 115.7,49.9 			"/>
		</g>
		<g>
			<polygon class="st2" points="137.6,49.9 153.5,72.6 137.6,95.4 122,72.6 			"/>
		</g>
		<g>
			<polygon class="st3" points="122,72.6 137.6,95.4 115.7,95.4 100.1,72.6 			"/>
		</g>
	</g>
</g>
</svg>
