<?xml version="1.0" encoding="utf-8"?>
<!-- Generator: Adobe Illustrator 22.1.0, SVG Export Plug-In . SVG Version: 6.00 Build 0)  -->
<svg version="1.1" id="Layer_1" xmlns="http://www.w3.org/2000/svg" xmlns:xlink="http://www.w3.org/1999/xlink" x="0px" y="0px"
	 viewBox="0 0 200 200" style="enable-background:new 0 0 200 200;" xml:space="preserve">
<style type="text/css">
	.st0{enable-background:new    ;}
	.st1{fill:#B3B3B3;}
	.st2{fill:#E6E6E6;}
	.st3{fill:#808080;}
	.st4{fill:#2A7FE2;}
	.st5{fill:none;stroke:url(#SVGID_1_);stroke-width:2;stroke-linejoin:round;}
	.st6{fill:url(#SVGID_2_);}
	.st7{fill:url(#SVGID_3_);}
	.st8{fill:#669BE8;}
	.st9{fill:none;stroke:url(#SVGID_4_);stroke-width:2;stroke-linejoin:round;}
	.st10{fill:#FF8E39;}
	.st11{fill:url(#SVGID_5_);}
	.st12{fill:#3366CC;}
	.st13{fill:none;stroke:url(#SVGID_6_);stroke-width:2;stroke-linejoin:round;}
	.st14{fill:url(#SVGID_7_);}
	.st15{fill:none;stroke:url(#SVGID_8_);stroke-width:2;stroke-linejoin:round;}
	.st16{fill:url(#SVGID_9_);}
	.st17{fill:url(#SVGID_10_);}
	.st18{fill:none;stroke:url(#SVGID_11_);stroke-width:2;stroke-linejoin:round;}
	.st19{fill:url(#SVGID_12_);}
	.st20{fill:none;stroke:url(#SVGID_13_);stroke-width:2;stroke-linejoin:round;}
	.st21{fill:url(#SVGID_14_);}
	.st22{fill:none;stroke:url(#SVGID_15_);stroke-width:2;stroke-linejoin:round;}
	.st23{fill:url(#SVGID_16_);}
	.st24{fill:url(#SVGID_17_);}
	.st25{fill:none;stroke:url(#SVGID_18_);stroke-width:2;stroke-linejoin:round;}
	.st26{fill:url(#SVGID_19_);}
	.st27{fill:none;stroke:url(#SVGID_20_);stroke-width:2;stroke-linejoin:round;}
	.st28{fill:url(#SVGID_21_);}
</style>
<g>
	<g class="st0">
		<g>
			<polygon class="st1" points="113.9,5.4 91.4,37.3 59.5,37.3 82.1,5.4 			"/>
		</g>
		<g>
			<polygon class="st2" points="113.9,5.4 136.5,37.3 113.9,69.2 91.4,37.3 			"/>
		</g>
		<g>
			<polygon class="st3" points="91.4,37.3 113.9,69.2 82.1,69.2 59.5,37.3 			"/>
		</g>
	</g>
</g>
<g>
	<g class="st0">
		<g>
			<polygon class="st1" points="168.4,37.3 145.9,69.2 114,69.2 136.5,37.3 			"/>
		</g>
		<g>
			<polygon class="st2" points="168.4,37.3 191,69.2 168.4,101.1 145.9,69.2 			"/>
		</g>
		<g>
			<polygon class="st3" points="145.9,69.2 168.4,101.1 136.5,101.1 114,69.2 			"/>
		</g>
	</g>
</g>
<g>
	<g class="st0">
		<g>
			<polygon class="st1" points="168.4,101.1 145.9,133 114,133 136.5,101.1 			"/>
		</g>
		<g>
			<polygon class="st2" points="168.4,101.1 191,133 168.4,164.9 145.9,133 			"/>
		</g>
		<g>
			<polygon class="st3" points="145.9,133 168.4,164.9 136.5,164.9 114,133 			"/>
		</g>
	</g>
</g>
<g>
	<g class="st0">
		<g>
			<polygon class="st1" points="113.9,133 91.4,164.9 59.5,164.9 82.1,133 			"/>
		</g>
		<g>
			<polygon class="st2" points="113.9,133 136.5,164.9 113.9,196.8 91.4,164.9 			"/>
		</g>
		<g>
			<polygon class="st3" points="91.4,164.9 113.9,196.8 82.1,196.8 59.5,164.9 			"/>
		</g>
	</g>
</g>
<g>
	<g>
		<g>
			<polygon class="st4" points="113.9,69.2 91.4,101.1 59.5,101.1 82,69.2 			"/>
		</g>
		<g>
			
				<linearGradient id="SVGID_1_" gradientUnits="userSpaceOnUse" x1="261.7" y1="113.2" x2="261.7" y2="81.3" gradientTransform="matrix(1 0 0 1 -175 -12.1)">
				<stop  offset="0" style="stop-color:#FFDEC6"/>
				<stop  offset="1" style="stop-color:#FF8E39"/>
			</linearGradient>
			<polygon class="st5" points="113.9,69.2 91.4,101.1 59.5,101.1 82,69.2 			"/>
		</g>
		<g>
			
				<linearGradient id="SVGID_2_" gradientUnits="userSpaceOnUse" x1="234.5" y1="97.25" x2="288.9" y2="97.25" gradientTransform="matrix(1 0 0 1 -175 -12.1)">
				<stop  offset="0" style="stop-color:#FD7400"/>
				<stop  offset="1" style="stop-color:#FF8E39"/>
			</linearGradient>
			<polygon class="st6" points="113.9,69.2 91.4,101.1 59.5,101.1 82,69.2 			"/>
		</g>
		<g>
			
				<linearGradient id="SVGID_3_" gradientUnits="userSpaceOnUse" x1="247.9934" y1="120.9904" x2="275.4066" y2="73.5096" gradientTransform="matrix(1 0 0 1 -175 -12.1)">
				<stop  offset="0" style="stop-color:#FFEA6A;stop-opacity:0"/>
				<stop  offset="3.431002e-02" style="stop-color:#FFEC77;stop-opacity:2.690792e-02"/>
				<stop  offset="0.1971" style="stop-color:#FFF4B1;stop-opacity:0.1546"/>
				<stop  offset="0.3364" style="stop-color:#FFFADB;stop-opacity:0.2638"/>
				<stop  offset="0.4452" style="stop-color:#FFFEF5;stop-opacity:0.3491"/>
				<stop  offset="0.51" style="stop-color:#FFFFFF;stop-opacity:0.4"/>
				<stop  offset="0.5152" style="stop-color:#FFFFFF;stop-opacity:0"/>
			</linearGradient>
			<polygon class="st7" points="113.9,69.2 91.4,101.1 59.5,101.1 82,69.2 			"/>
		</g>
	</g>
	<g>
		<g>
			<polygon class="st8" points="113.9,69.2 136.5,101.1 113.9,133 91.4,101.1 			"/>
		</g>
		<g>
			
				<linearGradient id="SVGID_4_" gradientUnits="userSpaceOnUse" x1="266.4" y1="113.2" x2="311.5" y2="113.2" gradientTransform="matrix(1 0 0 1 -175 -12.1)">
				<stop  offset="0" style="stop-color:#FFEDDF"/>
				<stop  offset="1" style="stop-color:#FF8E39"/>
			</linearGradient>
			<polygon class="st9" points="113.9,69.2 136.5,101.1 113.9,133 91.4,101.1 			"/>
		</g>
		<g>
			<polygon class="st10" points="113.9,69.2 136.5,101.1 113.9,133 91.4,101.1 			"/>
		</g>
		<g>
			
				<linearGradient id="SVGID_5_" gradientUnits="userSpaceOnUse" x1="275.1244" y1="137.1467" x2="302.7506" y2="89.2966" gradientTransform="matrix(1 0 0 1 -175 -12.1)">
				<stop  offset="0" style="stop-color:#FF8E39;stop-opacity:0"/>
				<stop  offset="0.1239" style="stop-color:#FF913E;stop-opacity:0.1239"/>
				<stop  offset="0.2664" style="stop-color:#FF994C;stop-opacity:0.2664"/>
				<stop  offset="0.4183" style="stop-color:#FFA663;stop-opacity:0.4183"/>
				<stop  offset="0.5766" style="stop-color:#FFB883;stop-opacity:0.5766"/>
				<stop  offset="0.7399" style="stop-color:#FFD0AD;stop-opacity:0.7399"/>
				<stop  offset="0.9051" style="stop-color:#FFEDDF;stop-opacity:0.9051"/>
				<stop  offset="1" style="stop-color:#FFFFFF"/>
			</linearGradient>
			<polygon class="st11" points="113.9,69.2 136.5,101.1 113.9,133 91.4,101.1 			"/>
		</g>
	</g>
	<g>
		<g>
			<polygon class="st12" points="91.4,101.1 113.9,133 82,133 59.5,101.1 			"/>
		</g>
		<g>
			
				<linearGradient id="SVGID_6_" gradientUnits="userSpaceOnUse" x1="261.7" y1="145.1" x2="261.7" y2="113.2" gradientTransform="matrix(1 0 0 1 -175 -12.1)">
				<stop  offset="0" style="stop-color:#FF8E39"/>
				<stop  offset="1" style="stop-color:#FFD6B8"/>
			</linearGradient>
			<polygon class="st13" points="91.4,101.1 113.9,133 82,133 59.5,101.1 			"/>
		</g>
		<g>
			
				<linearGradient id="SVGID_7_" gradientUnits="userSpaceOnUse" x1="234.5" y1="129.15" x2="288.9" y2="129.15" gradientTransform="matrix(1 0 0 1 -175 -12.1)">
				<stop  offset="0" style="stop-color:#FD7400"/>
				<stop  offset="1" style="stop-color:#CC4933"/>
			</linearGradient>
			<polygon class="st14" points="91.4,101.1 113.9,133 82,133 59.5,101.1 			"/>
		</g>
	</g>
</g>
<g>
	<g>
		<g>
			<polygon class="st4" points="59.4,37.3 36.9,69.2 5,69.2 27.5,37.3 			"/>
		</g>
		<g>
			
				<linearGradient id="SVGID_8_" gradientUnits="userSpaceOnUse" x1="261.7" y1="113.2" x2="261.7" y2="81.3" gradientTransform="matrix(1 0 0 1 -229.5 -44)">
				<stop  offset="0" style="stop-color:#FFDEC6"/>
				<stop  offset="1" style="stop-color:#FF8E39"/>
			</linearGradient>
			<polygon class="st15" points="59.4,37.3 36.9,69.2 5,69.2 27.5,37.3 			"/>
		</g>
		<g>
			
				<linearGradient id="SVGID_9_" gradientUnits="userSpaceOnUse" x1="234.5" y1="97.25" x2="288.9" y2="97.25" gradientTransform="matrix(1 0 0 1 -229.5 -44)">
				<stop  offset="0" style="stop-color:#FD7400"/>
				<stop  offset="1" style="stop-color:#FF8E39"/>
			</linearGradient>
			<polygon class="st16" points="59.4,37.3 36.9,69.2 5,69.2 27.5,37.3 			"/>
		</g>
		<g>
			
				<linearGradient id="SVGID_10_" gradientUnits="userSpaceOnUse" x1="247.9934" y1="120.9904" x2="275.4066" y2="73.5096" gradientTransform="matrix(1 0 0 1 -229.5 -44)">
				<stop  offset="0" style="stop-color:#FFEA6A;stop-opacity:0"/>
				<stop  offset="3.431002e-02" style="stop-color:#FFEC77;stop-opacity:2.690792e-02"/>
				<stop  offset="0.1971" style="stop-color:#FFF4B1;stop-opacity:0.1546"/>
				<stop  offset="0.3364" style="stop-color:#FFFADB;stop-opacity:0.2638"/>
				<stop  offset="0.4452" style="stop-color:#FFFEF5;stop-opacity:0.3491"/>
				<stop  offset="0.51" style="stop-color:#FFFFFF;stop-opacity:0.4"/>
				<stop  offset="0.5152" style="stop-color:#FFFFFF;stop-opacity:0"/>
			</linearGradient>
			<polygon class="st17" points="59.4,37.3 36.9,69.2 5,69.2 27.5,37.3 			"/>
		</g>
	</g>
	<g>
		<g>
			<polygon class="st8" points="59.4,37.3 82,69.2 59.4,101.1 36.9,69.2 			"/>
		</g>
		<g>
			
				<linearGradient id="SVGID_11_" gradientUnits="userSpaceOnUse" x1="266.4" y1="113.2" x2="311.5" y2="113.2" gradientTransform="matrix(1 0 0 1 -229.5 -44)">
				<stop  offset="0" style="stop-color:#FFEDDF"/>
				<stop  offset="1" style="stop-color:#FF8E39"/>
			</linearGradient>
			<polygon class="st18" points="59.4,37.3 82,69.2 59.4,101.1 36.9,69.2 			"/>
		</g>
		<g>
			<polygon class="st10" points="59.4,37.3 82,69.2 59.4,101.1 36.9,69.2 			"/>
		</g>
		<g>
			
				<linearGradient id="SVGID_12_" gradientUnits="userSpaceOnUse" x1="275.1244" y1="137.1467" x2="302.7506" y2="89.2966" gradientTransform="matrix(1 0 0 1 -229.5 -44)">
				<stop  offset="0" style="stop-color:#FF8E39;stop-opacity:0"/>
				<stop  offset="0.1239" style="stop-color:#FF913E;stop-opacity:0.1239"/>
				<stop  offset="0.2664" style="stop-color:#FF994C;stop-opacity:0.2664"/>
				<stop  offset="0.4183" style="stop-color:#FFA663;stop-opacity:0.4183"/>
				<stop  offset="0.5766" style="stop-color:#FFB883;stop-opacity:0.5766"/>
				<stop  offset="0.7399" style="stop-color:#FFD0AD;stop-opacity:0.7399"/>
				<stop  offset="0.9051" style="stop-color:#FFEDDF;stop-opacity:0.9051"/>
				<stop  offset="1" style="stop-color:#FFFFFF"/>
			</linearGradient>
			<polygon class="st19" points="59.4,37.3 82,69.2 59.4,101.1 36.9,69.2 			"/>
		</g>
	</g>
	<g>
		<g>
			<polygon class="st12" points="36.9,69.2 59.4,101.1 27.5,101.1 5,69.2 			"/>
		</g>
		<g>
			
				<linearGradient id="SVGID_13_" gradientUnits="userSpaceOnUse" x1="261.7" y1="145.1" x2="261.7" y2="113.2" gradientTransform="matrix(1 0 0 1 -229.5 -44)">
				<stop  offset="0" style="stop-color:#FF8E39"/>
				<stop  offset="1" style="stop-color:#FFD6B8"/>
			</linearGradient>
			<polygon class="st20" points="36.9,69.2 59.4,101.1 27.5,101.1 5,69.2 			"/>
		</g>
		<g>
			
				<linearGradient id="SVGID_14_" gradientUnits="userSpaceOnUse" x1="234.5" y1="129.15" x2="288.9" y2="129.15" gradientTransform="matrix(1 0 0 1 -229.5 -44)">
				<stop  offset="0" style="stop-color:#FD7400"/>
				<stop  offset="1" style="stop-color:#CC4933"/>
			</linearGradient>
			<polygon class="st21" points="36.9,69.2 59.4,101.1 27.5,101.1 5,69.2 			"/>
		</g>
	</g>
</g>
<g>
	<g>
		<g>
			<polygon class="st4" points="59.4,101.1 36.9,133 5,133 27.5,101.1 			"/>
		</g>
		<g>
			
				<linearGradient id="SVGID_15_" gradientUnits="userSpaceOnUse" x1="261.7" y1="113.2" x2="261.7" y2="81.3" gradientTransform="matrix(1 0 0 1 -229.5 19.8)">
				<stop  offset="0" style="stop-color:#FFDEC6"/>
				<stop  offset="1" style="stop-color:#FF8E39"/>
			</linearGradient>
			<polygon class="st22" points="59.4,101.1 36.9,133 5,133 27.5,101.1 			"/>
		</g>
		<g>
			
				<linearGradient id="SVGID_16_" gradientUnits="userSpaceOnUse" x1="234.5" y1="97.25" x2="288.9" y2="97.25" gradientTransform="matrix(1 0 0 1 -229.5 19.8)">
				<stop  offset="0" style="stop-color:#FD7400"/>
				<stop  offset="1" style="stop-color:#FF8E39"/>
			</linearGradient>
			<polygon class="st23" points="59.4,101.1 36.9,133 5,133 27.5,101.1 			"/>
		</g>
		<g>
			
				<linearGradient id="SVGID_17_" gradientUnits="userSpaceOnUse" x1="247.9934" y1="120.9904" x2="275.4066" y2="73.5096" gradientTransform="matrix(1 0 0 1 -229.5 19.8)">
				<stop  offset="0" style="stop-color:#FFEA6A;stop-opacity:0"/>
				<stop  offset="3.431002e-02" style="stop-color:#FFEC77;stop-opacity:2.690792e-02"/>
				<stop  offset="0.1971" style="stop-color:#FFF4B1;stop-opacity:0.1546"/>
				<stop  offset="0.3364" style="stop-color:#FFFADB;stop-opacity:0.2638"/>
				<stop  offset="0.4452" style="stop-color:#FFFEF5;stop-opacity:0.3491"/>
				<stop  offset="0.51" style="stop-color:#FFFFFF;stop-opacity:0.4"/>
				<stop  offset="0.5152" style="stop-color:#FFFFFF;stop-opacity:0"/>
			</linearGradient>
			<polygon class="st24" points="59.4,101.1 36.9,133 5,133 27.5,101.1 			"/>
		</g>
	</g>
	<g>
		<g>
			<polygon class="st8" points="59.4,101.1 82,133 59.4,164.9 36.9,133 			"/>
		</g>
		<g>
			
				<linearGradient id="SVGID_18_" gradientUnits="userSpaceOnUse" x1="266.4" y1="113.2" x2="311.5" y2="113.2" gradientTransform="matrix(1 0 0 1 -229.5 19.8)">
				<stop  offset="0" style="stop-color:#FFEDDF"/>
				<stop  offset="1" style="stop-color:#FF8E39"/>
			</linearGradient>
			<polygon class="st25" points="59.4,101.1 82,133 59.4,164.9 36.9,133 			"/>
		</g>
		<g>
			<polygon class="st10" points="59.4,101.1 82,133 59.4,164.9 36.9,133 			"/>
		</g>
		<g>
			
				<linearGradient id="SVGID_19_" gradientUnits="userSpaceOnUse" x1="275.1244" y1="137.1467" x2="302.7506" y2="89.2966" gradientTransform="matrix(1 0 0 1 -229.5 19.8)">
				<stop  offset="0" style="stop-color:#FF8E39;stop-opacity:0"/>
				<stop  offset="0.1239" style="stop-color:#FF913E;stop-opacity:0.1239"/>
				<stop  offset="0.2664" style="stop-color:#FF994C;stop-opacity:0.2664"/>
				<stop  offset="0.4183" style="stop-color:#FFA663;stop-opacity:0.4183"/>
				<stop  offset="0.5766" style="stop-color:#FFB883;stop-opacity:0.5766"/>
				<stop  offset="0.7399" style="stop-color:#FFD0AD;stop-opacity:0.7399"/>
				<stop  offset="0.9051" style="stop-color:#FFEDDF;stop-opacity:0.9051"/>
				<stop  offset="1" style="stop-color:#FFFFFF"/>
			</linearGradient>
			<polygon class="st26" points="59.4,101.1 82,133 59.4,164.9 36.9,133 			"/>
		</g>
	</g>
	<g>
		<g>
			<polygon class="st12" points="36.9,133 59.4,164.9 27.5,164.9 5,133 			"/>
		</g>
		<g>
			
				<linearGradient id="SVGID_20_" gradientUnits="userSpaceOnUse" x1="261.7" y1="145.1" x2="261.7" y2="113.2" gradientTransform="matrix(1 0 0 1 -229.5 19.8)">
				<stop  offset="0" style="stop-color:#FF8E39"/>
				<stop  offset="1" style="stop-color:#FFD6B8"/>
			</linearGradient>
			<polygon class="st27" points="36.9,133 59.4,164.9 27.5,164.9 5,133 			"/>
		</g>
		<g>
			
				<linearGradient id="SVGID_21_" gradientUnits="userSpaceOnUse" x1="234.5" y1="129.15" x2="288.9" y2="129.15" gradientTransform="matrix(1 0 0 1 -229.5 19.8)">
				<stop  offset="0" style="stop-color:#FD7400"/>
				<stop  offset="1" style="stop-color:#CC4933"/>
			</linearGradient>
			<polygon class="st28" points="36.9,133 59.4,164.9 27.5,164.9 5,133 			"/>
		</g>
	</g>
</g>
</svg>
