<?xml version="1.0" encoding="utf-8"?>
<!-- Generator: Adobe Illustrator 22.1.0, SVG Export Plug-In . SVG Version: 6.00 Build 0)  -->
<svg version="1.1" id="Layer_1" xmlns="http://www.w3.org/2000/svg" xmlns:xlink="http://www.w3.org/1999/xlink" x="0px" y="0px"
	 viewBox="0 0 1075 237" style="enable-background:new 0 0 1075 237;" xml:space="preserve">
<style type="text/css">
	.st0{enable-background:new    ;}
	.st1{fill:#5B5B5B;}
	.st2{fill:#FFFFFF;}
	.st3{fill:#FF8E39;}
	.st4{fill:#5C5C5C;}
	.st5{fill:#F58C3E;}
	.st6{fill:#F37421;}
	.st7{fill:#CC6632;}
	.st8{fill:#E5E5E4;}
	.st9{fill:#B3B2B3;}
	.st10{fill:#808080;}
</style>
<g>
	<g>
		<g class="st0">
			<g>
				<path class="st1" d="M350.6,154.4h-19.5c-2.5,0-4.5-2-4.5-4.5v-42.5l-15.8,41.7c-0.9,2.5-2.5,3.7-3.6,4.3
					c-1.2,0.6-2.7,0.9-4.5,0.9h-23.9c-1.9,0-3.4-0.3-4.7-1c-1.6-0.8-2.8-2.3-3.5-4.3l-15.7-41.9v42.7c0,2.5-2,4.5-4.5,4.5H231
					c-2.5,0-4.5-2-4.5-4.5V79.6c0-4.5,2.9-7.5,7.3-7.5h33.1c4,0,7.1,2.1,8.4,5.7v0.1l15.6,45.3l15.7-45.3c0,0,0-0.1,0.1-0.1
					c0.6-1.7,1.7-3,3-4c1.4-1.1,3.2-1.6,5.3-1.6h32.7c4.4,0,7.3,3,7.3,7.5V150C355.1,152.3,353.1,154.4,350.6,154.4z M335.6,145.4
					h10.5V81.1h-31l-18,52c-0.7,2.2-2.7,3.6-5.1,3.6h-1.8c-3,0-4.8-1.8-5.3-3.8L267,81.1h-0.1h-31.4v64.3h10.4V94.8
					c0-3.5,2.6-6.1,6.1-6.1h1c2.8,0,5.1,1.6,6.1,4.2l19.7,52.5h23.7l19.8-52.5c1-2.7,3.3-4.2,6-4.2h1.1c3.5,0,6,2.6,6,6.1v50.6
					H335.6z M303.4,145.3L303.4,145.3L303.4,145.3z M288.6,130.1C288.6,130.2,288.6,130.2,288.6,130.1L288.6,130.1z"/>
			</g>
			<g>
				<path class="st1" d="M403.8,177h-42c-2.5,0-4.5-2-4.5-4.5v-15.4c0-2.5,2-4.5,4.5-4.5H401c1.4,0,2-0.2,2.2-0.3
					c0.1-0.2,0.4-0.8,0.4-2.5H382c-9.6,0-16.3-2-20.7-6.3c-4.3-4.2-6.5-10.4-6.5-18.4V94.6c0-2.5,2-4.5,4.5-4.5h18.3
					c2.5,0,4.5,2,4.5,4.5v28.2c0,1.9,0.3,2.7,0.4,3c0.2,0.1,1,0.4,2.9,0.4h17c0.4,0,0.8,0.1,1.1,0.1V94.6c0-2.5,2-4.5,4.5-4.5h18.3
					c2.5,0,4.5,2,4.5,4.5V151c0,3.6-0.4,7-1.3,10.1c-1,3.3-2.6,6.2-4.8,8.6c-2.2,2.4-5.2,4.3-8.7,5.6
					C412.6,176.4,408.5,177,403.8,177z M366.3,168h37.5c3.7,0,6.8-0.4,9.1-1.3c2.2-0.8,3.9-1.9,5.2-3.2c1.3-1.4,2.2-3,2.8-5
					c0.6-2.2,1-4.8,1-7.6V99.1h-9.3v44.2c0,0.3,0,0.7-0.1,1c0.1,0.3,0.1,0.7,0.1,1v4.4c0,3.7-0.9,6.6-2.7,8.6
					c-1.9,2.2-4.9,3.3-8.9,3.3h-34.7V168z M363.8,99.1v26.1c0,5.5,1.3,9.5,3.8,11.9s7.5,3.7,14.4,3.7h19.6l-2.2-5.7h-13.9
					c-4.1,0-7.1-1-9.2-2.9c-2.1-2-3.1-5.1-3.1-9.4V99.1H363.8z"/>
			</g>
		</g>
		<g class="st0">
			<g>
				<path class="st1" d="M521.4,154.4h-56.7c-5.9,0-11.1-0.8-15.4-2.3c-4.5-1.6-8.2-4-11-7s-4.9-6.7-6.2-10.9
					c-1.2-4-1.8-8.5-1.8-13.3v-15.1c0-4.8,0.6-9.3,1.8-13.3c1.3-4.2,3.3-7.9,6.2-10.9c2.8-3,6.5-5.4,11-7c4.3-1.5,9.5-2.3,15.4-2.3
					h54.9c4.4,0,7.4,3,7.4,7.5v19c0,1.9-1.2,3.6-2.9,4.2l-19.2,7.1c-0.5,0.2-1,0.3-1.6,0.3h-0.8c-2.5,0-4.5-2-4.5-4.5v-6.4h-31.4
					c-3.9,0-5,0.9-5.3,1.2c-0.1,0.1-1.2,1.3-1.2,6.1v12.3c0,4.5,1,5.9,1.3,6.2c0.3,0.3,1.4,1.2,5.2,1.2h54.9c2.5,0,4.5,2,4.5,4.5v19
					C525.9,152.3,523.9,154.4,521.4,154.4z M464.8,81.1c-4.9,0-9.1,0.6-12.4,1.8c-3.1,1.1-5.7,2.7-7.5,4.7c-1.9,2-3.2,4.4-4.1,7.4
					c-0.9,3.2-1.4,6.8-1.4,10.7v15.1c0,4,0.5,7.6,1.4,10.7c0.9,2.9,2.2,5.4,4.1,7.4c1.8,2,4.4,3.6,7.5,4.7c3.3,1.2,7.5,1.8,12.4,1.8
					H517v-10h-50.4c-5.4,0-9.4-1.4-11.9-4.1c-2.4-2.7-3.6-6.7-3.6-12.2v-12.3c0-5.8,1.2-9.8,3.8-12.4c2.6-2.6,6.4-3.9,11.7-3.9h35
					c3.1,0,5.4,2.4,5.4,5.5v3.7l11-4.1V81.1H464.8z"/>
			</g>
			<g>
				<path class="st1" d="M598.4,154.4h-18.2c-2.5,0-4.5-2-4.5-4.5v-32.1c0-2.8-0.6-3.5-0.6-3.5c-0.4-0.4-1.4-0.6-2.6-0.6h-19V150
					c0,2.5-2,4.5-4.5,4.5h-18.2c-2.5,0-4.5-2-4.5-4.5V71.3c0-2.5,2-4.5,4.5-4.5H549c2.5,0,4.5,2,4.5,4.5v18.8h22.4
					c4.6,0,8.6,0.6,12,1.8c3.6,1.3,6.5,3.2,8.8,5.6c2.2,2.4,3.9,5.3,4.9,8.7c0.9,3.1,1.4,6.6,1.4,10.4v33.3
					C602.9,152.3,600.9,154.4,598.4,154.4z M584.6,145.4h9.2v-28.8c0-2.9-0.3-5.5-1-7.8c-0.6-2-1.5-3.7-2.9-5.1
					c-1.3-1.4-3-2.5-5.2-3.3c-2.4-0.9-5.4-1.3-8.9-1.3h-22.1c0.1,0.1,0.1,0.2,0.2,0.4l1.9,5.1h16.6c3.7,0,6.8,1.1,8.9,3.2
					c2.2,2.2,3.3,5.4,3.3,10V145.4z M535.2,145.4h9.2V101c0-1.3,0.5-2.4,1.4-3.2c-0.8-0.8-1.4-2-1.4-3.2V75.8h-9.2V145.4z"/>
			</g>
			<g>
				<path class="st1" d="M671.8,154.4H629c-4.6,0-8.6-0.6-12-1.8c-3.5-1.3-6.4-3.1-8.7-5.6c-2.3-2.4-4-5.3-5-8.7
					c-0.9-3.1-1.4-6.6-1.4-10.4v-11.4c0-3.8,0.5-7.3,1.4-10.4c1-3.4,2.7-6.3,5-8.7c2.3-2.4,5.2-4.3,8.7-5.6c3.3-1.2,7.4-1.8,12-1.8
					h31.9c5.6,0,9.8,1.6,12.5,4.9c2.5,3,3.8,7.3,3.8,13.1v5.3c0,5.1-1.2,9.3-3.6,12.5c-1.8,2.4-4.2,4-7.3,4.8h5.5
					c2.5,0,4.5,2,4.5,4.5v14.7C676.3,152.3,674.3,154.4,671.8,154.4z M629,99.1c-3.5,0-6.5,0.4-8.9,1.3c-2.2,0.8-3.9,1.9-5.3,3.3
					c-1.3,1.4-2.3,3.1-2.9,5.1c-0.7,2.3-1,4.9-1,7.8V128c0,2.9,0.3,5.5,1,7.8c0.6,2,1.5,3.7,2.9,5.1c1.3,1.4,3.1,2.5,5.3,3.3
					c2.3,0.9,5.3,1.3,8.9,1.3h38.3v-5.7h-34.9c-4.3,0-7.4-1.1-9.4-3.2c-1.9-2-2.8-5.2-2.8-9.5v-8.6c0-0.5,0.1-0.9,0.2-1.4
					c-0.1-0.4-0.2-0.9-0.2-1.4v-0.3c0-4.3,1-7.4,3-9.4c2-2.1,5.1-3.1,9.2-3.1h20.1c2.2,0,4.1,0.6,5.4,1.9c1.5,1.4,2.2,3.3,2.2,5.7v2
					c0,4.6-3.1,7.7-7.6,7.7h-21.6l0.8,2.2h29.2c2.7,0,4.6-0.6,5.5-1.8c1.2-1.6,1.8-4,1.8-7.1v-5.3c0-4.4-0.9-6.4-1.7-7.3
					c-1.1-1.4-3.7-1.6-5.6-1.6H629V99.1z"/>
			</g>
			<g>
				<path class="st1" d="M787.8,154.4h-18.2c-2.5,0-4.5-2-4.5-4.5v-32.2c0-2.8-0.6-3.6-0.6-3.6c-0.1-0.1-0.8-0.5-2.6-0.5h-11.7
					c0.1,0.9,0.1,1.9,0.1,3v33.3c0,2.5-2,4.5-4.5,4.5h-18.2c-2.5,0-4.5-2-4.5-4.5v-32.2c0-2.8-0.6-3.6-0.6-3.6
					c-0.1-0.1-0.8-0.5-2.6-0.5h-16.7v36.3c0,2.5-2,4.5-4.5,4.5h-18.2c-2.5,0-4.5-2-4.5-4.5V94.6c0-2.5,2-4.5,4.5-4.5h42.8
					c3.9,0,7.3,0.5,10.2,1.4c0.8-0.9,2-1.4,3.3-1.4h28.5c4.6,0,8.6,0.6,12,1.8c3.6,1.3,6.5,3.2,8.8,5.6c2.2,2.4,3.9,5.3,4.9,8.7
					c0.9,3.1,1.4,6.6,1.4,10.4v33.3C792.3,152.3,790.2,154.4,787.8,154.4z M774,145.4h9.2v-28.8c0-2.9-0.3-5.5-1-7.8
					c-0.6-2-1.5-3.7-2.9-5.1c-1.3-1.4-3-2.5-5.2-3.3c-2.4-0.9-5.4-1.3-8.9-1.3h-20.6c0.1,0.5,0.2,1,0.1,1.6
					c-0.1,1.2-0.8,2.3-1.8,3.1l-0.4,0.3c-1.8,1.3-4.2,1.2-5.8-0.4c-1.4-1.4-3.2-2.5-5.3-3.3s-4.8-1.2-8.2-1.2h-19.8
					c0.1,0.1,0.1,0.2,0.2,0.4l1.9,5.1h14.4c3.9,0,7,1.1,9.1,3.2s3.1,5.4,3.1,9.8v27.7h9.2v-28.8c0-2.4-0.3-4.4-0.8-6.1
					c-0.4-1.4-0.2-2.9,0.6-4c0.8-1.2,2.2-1.9,3.6-1.9h17.1c3.9,0,7,1.1,9.1,3.2s3.1,5.4,3.1,9.8L774,145.4L774,145.4z M684.9,145.4
					h9.2V101c0-0.7,0.2-1.4,0.4-1.9h-9.7L684.9,145.4L684.9,145.4z"/>
			</g>
		</g>
		<g class="st0">
			<g>
				<path class="st1" d="M814.9,154.4h-18.2c-2.5,0-4.5-2-4.5-4.5v-16.7c0-2.5,2-4.5,4.5-4.5h18.2c2.5,0,4.5,2,4.5,4.5v16.7
					C819.4,152.3,817.4,154.4,814.9,154.4z M801.2,145.4h9.2v-7.7h-9.2V145.4z"/>
			</g>
			<g>
				<path class="st1" d="M842.5,154.4h-18.2c-2.5,0-4.5-2-4.5-4.5V94.6c0-2.1,1.4-3.8,3.3-4.3c-1.9-0.5-3.3-2.3-3.3-4.3V71.3
					c0-2.5,2-4.5,4.5-4.5h18.2c2.5,0,4.5,2,4.5,4.5v14.6c0,2.1-1.4,3.8-3.3,4.3c1.9,0.5,3.3,2.3,3.3,4.3v55.3
					C847,152.3,845,154.4,842.5,154.4z M828.8,145.4h9.2V99.1h-9.2V145.4z M828.8,81.4h9.2v-5.6h-9.2V81.4z"/>
			</g>
			<g>
				<path class="st1" d="M919.5,154.4h-18.2c-2.5,0-4.5-2-4.5-4.5v-32.1c0-2.9-0.6-3.7-0.6-3.7c-0.1-0.1-0.9-0.5-2.7-0.5h-19v36.3
					c0,2.5-2,4.5-4.5,4.5h-18.2c-2.5,0-4.5-2-4.5-4.5V94.6c0-2.5,2-4.5,4.5-4.5h45.1c4.6,0,8.6,0.6,12,1.8c3.6,1.3,6.5,3.2,8.8,5.6
					c2.2,2.4,3.9,5.3,4.9,8.7c0.9,3.1,1.4,6.6,1.4,10.4v33.3C924,152.3,922,154.4,919.5,154.4z M905.8,145.4h9.2v-28.8
					c0-2.9-0.3-5.5-1-7.8c-0.6-2-1.5-3.7-2.9-5.1c-1.3-1.4-3-2.5-5.2-3.3c-2.4-0.9-5.4-1.3-8.9-1.3h-22.1c0.1,0.1,0.1,0.2,0.2,0.4
					l1.9,5.1h16.6c4,0,7.1,1.1,9.2,3.3c2.1,2.2,3,5.4,3,9.8V145.4z M856.3,145.4h9.2V101c0-0.7,0.2-1.4,0.4-1.9h-9.7L856.3,145.4
					L856.3,145.4z"/>
			</g>
			<g>
				<path class="st1" d="M951.6,154.4h-18.2c-2.5,0-4.5-2-4.5-4.5V113h-3c-1.9,0-3.6-1.2-4.2-2.9L916.9,97c-0.2-0.5-0.3-1-0.3-1.6
					v-0.8c0-2.5,2-4.5,4.5-4.5h7.8V88c0-3.8,0.4-6.9,1.2-9.5c0.9-3,2.6-5.4,4.8-7.2c2.1-1.7,4.9-2.9,8.2-3.6
					c2.9-0.6,6.4-0.8,10.5-0.8h8.2c1.8,0,3.5,1.1,4.2,2.8l4.9,12.4c0.2,0.5,0.3,1.1,0.3,1.7v0.9c0,2.5-2,4.5-4.5,4.5h-10.6
					c0,0.2,0,0.3,0,0.5v0.4h11.6c2.5,0,4.5,2,4.5,4.5v13.9c0,2.5-2,4.5-4.5,4.5h-11.6v36.9C956.1,152.3,954.1,154.4,951.6,154.4z
					 M937.9,145.4h9.2v-36.9c0-2.5,2-4.5,4.5-4.5h11.6v-4.9h-11.6c-2.5,0-4.5-2-4.5-4.5v-4.9c0-2.9,0.6-5,1.9-6.6
					c1.5-1.9,3.9-2.9,7.1-2.9h4.4l-1.7-4.3h-5.1c-3.5,0-6.5,0.2-8.8,0.7c-1.8,0.4-3.3,0.9-4.3,1.8c-0.9,0.7-1.5,1.7-1.9,2.9
					c-0.5,1.7-0.8,3.9-0.8,6.7v6.6c0,2.5-2,4.5-4.5,4.5h-6.1l1.8,4.9h4.3c2.5,0,4.5,2,4.5,4.5L937.9,145.4L937.9,145.4z"/>
			</g>
			<g>
				<path class="st1" d="M1020.9,154.4h-26.6c-4.6,0-8.6-0.6-12-1.8c-3.5-1.3-6.4-3.1-8.7-5.6c-2.3-2.4-4-5.3-5-8.7
					c-0.9-3.1-1.4-6.6-1.4-10.4v-11.4c0-3.7,0.5-7.2,1.4-10.3c1-3.4,2.7-6.3,5-8.8c2.3-2.4,5.2-4.3,8.7-5.6c3.3-1.2,7.4-1.8,12-1.8
					h26.6c4.6,0,8.6,0.6,12,1.8c3.5,1.3,6.5,3.2,8.8,5.6s4,5.4,5,8.8c0.9,3.1,1.4,6.6,1.4,10.3v11.4c0,3.8-0.5,7.3-1.4,10.4
					c-1,3.4-2.7,6.3-5,8.7s-5.2,4.3-8.8,5.6C1029.5,153.7,1025.5,154.4,1020.9,154.4z M994.3,99.1c-3.5,0-6.5,0.4-8.9,1.3
					c-2.2,0.8-3.9,1.9-5.3,3.3c-1.3,1.4-2.3,3.1-2.9,5.1c-0.7,2.3-1,4.9-1,7.7v11.4c0,2.9,0.3,5.5,1,7.8c0.6,2,1.5,3.7,2.9,5.1
					c1.3,1.4,3.1,2.5,5.3,3.3c2.3,0.9,5.3,1.3,8.9,1.3h26.6c3.6,0,6.6-0.4,8.9-1.3c2.2-0.8,4-1.9,5.3-3.3c1.3-1.4,2.3-3.1,2.9-5.1
					c0.7-2.3,1-4.9,1-7.8v-11.4c0-2.8-0.3-5.4-1-7.7c-0.6-2-1.5-3.7-2.9-5.1c-1.3-1.4-3.1-2.5-5.3-3.3c-2.4-0.9-5.4-1.3-8.9-1.3
					C1020.9,99.1,994.3,99.1,994.3,99.1z M1017.6,138.1h-19.8c-4.2,0-7.2-1-9.2-3.1c-2-2-2.9-5.2-2.9-9.6v-7.8
					c0-4.5,0.9-7.7,2.8-9.8c2-2.2,5.1-3.4,9.3-3.4h19.8c4.1,0,7.2,1.1,9.2,3.2s3,5.4,3,10v7.8c0,4.4-1,7.6-3,9.6
					C1024.8,137.2,1021.7,138.1,1017.6,138.1z M995,128.8c0.3,0.1,1,0.4,2.7,0.4h19.8c1.8,0,2.6-0.3,2.8-0.4
					c0.1-0.3,0.4-1.2,0.4-3.3v-7.8c0-2.5-0.4-3.5-0.5-3.7c-0.2-0.1-0.9-0.4-2.7-0.4h-19.8c-1.7,0-2.4,0.3-2.6,0.4
					c-0.1,0.2-0.5,1.2-0.5,3.8v7.8C994.6,127.6,994.9,128.5,995,128.8z M995.1,128.9L995.1,128.9L995.1,128.9z M1020.3,128.8
					L1020.3,128.8L1020.3,128.8z M994.9,128.7L994.9,128.7L994.9,128.7z"/>
			</g>
		</g>
	</g>
	<g>
		<g class="st0">
			<path class="st2" d="M331.1,149.9V94.8c0-1.1-0.5-1.6-1.5-1.6h-1.1c-0.9,0-1.5,0.4-1.8,1.3l-20,53.1c-0.3,0.9-0.8,1.6-1.4,1.9
				s-1.4,0.5-2.5,0.5h-23.9c-1.1,0-2-0.2-2.6-0.5s-1-0.9-1.4-1.9L255,94.5c-0.3-0.9-1-1.3-1.9-1.3h-1c-1.1,0-1.6,0.5-1.6,1.6v55.1
				H231V79.6c0-2,0.9-3,2.8-3h33.1c2.1,0,3.6,0.9,4.2,2.7l18,52.4c0.1,0.4,0.4,0.6,1,0.6h1.8c0.4,0,0.7-0.2,0.8-0.6l18.1-52.4
				c0.3-0.9,0.8-1.5,1.5-2c0.6-0.5,1.5-0.7,2.7-0.7h32.7c1.9,0,2.8,1,2.8,3v70.3H331.1z"/>
			<path class="st2" d="M407.3,143.3h0.7V94.6h18.3V151c0,3.2-0.4,6.2-1.2,8.8c-0.8,2.7-2,4.9-3.8,6.8c-1.7,1.9-4.1,3.3-6.9,4.4
				c-2.9,1-6.4,1.6-10.7,1.6h-42v-15.4h39.2c2.6,0,4.4-0.6,5.5-1.8c1-1.2,1.6-3,1.6-5.6v-4.4h-26.1c-8.3,0-14.1-1.7-17.5-5
				s-5.1-8.4-5.1-15.2V94.6h18.3v28.2c0,3,0.6,5.1,1.7,6.2c1.1,1.1,3.2,1.7,6,1.7h17L407.3,143.3z"/>
		</g>
		<g class="st0">
			<path class="st3" d="M503.3,105.8h-0.8v-9.9c0-0.7-0.3-1-0.9-1h-35c-4,0-6.9,0.8-8.5,2.5s-2.5,4.8-2.5,9.3V119
				c0,4.4,0.8,7.4,2.4,9.2c1.6,1.8,4.5,2.7,8.6,2.7h54.9v19h-56.7c-5.4,0-10.1-0.7-13.9-2.1c-3.8-1.4-6.9-3.3-9.3-5.8
				s-4.1-5.6-5.1-9.2c-1.1-3.6-1.6-7.6-1.6-12v-15.1c0-4.4,0.5-8.4,1.6-12s2.8-6.6,5.1-9.2c2.3-2.5,5.4-4.5,9.3-5.8
				c3.8-1.4,8.5-2.1,13.9-2.1h54.9c1.9,0,2.9,1,2.9,3v19L503.3,105.8z"/>
			<path class="st3" d="M530.7,71.3h18.2v23.3h26.9c4.1,0,7.6,0.5,10.5,1.6c2.9,1,5.2,2.5,7,4.4s3.1,4.2,3.9,6.9
				c0.8,2.7,1.2,5.7,1.2,9.1v33.3h-18.2v-32.1c0-3.2-0.7-5.5-2-6.7c-1.3-1.3-3.2-1.9-5.8-1.9h-19.7l-3-8.1H549v48.8h-18.2
				L530.7,71.3L530.7,71.3z"/>
			<path class="st3" d="M625.5,118.3h-0.7v8.6c0,3.2,0.5,5.3,1.6,6.5s3.1,1.8,6,1.8h39.4v14.7H629c-4.1,0-7.6-0.5-10.4-1.6
				c-2.9-1-5.2-2.5-7-4.4s-3.1-4.2-3.9-6.9c-0.8-2.7-1.2-5.7-1.2-9.1v-11.4c0-3.4,0.4-6.4,1.2-9.1s2.1-5,3.9-6.9s4.1-3.4,7-4.4
				s6.3-1.6,10.4-1.6h31.9c4.2,0,7.2,1.1,9.1,3.3c1.8,2.2,2.7,5.6,2.7,10.2v5.3c0,4.1-0.9,7.3-2.7,9.8c-1.8,2.4-4.8,3.6-9.1,3.6
				h-32.3L625.5,118.3z M624.7,115.6h27.8c2.1,0,3.1-1.1,3.1-3.2v-2c0-1.1-0.3-1.9-0.8-2.4s-1.3-0.7-2.4-0.7h-20.1
				c-2.8,0-4.8,0.6-5.9,1.8c-1.1,1.2-1.7,3.3-1.7,6.3L624.7,115.6L624.7,115.6z"/>
			<path class="st3" d="M736.7,94.6h28.5c4.1,0,7.6,0.5,10.5,1.6c2.9,1,5.2,2.5,7,4.4s3.1,4.2,3.9,6.9c0.8,2.7,1.2,5.7,1.2,9.1v33.3
				h-18.2v-32.2c0-3.2-0.6-5.5-1.8-6.7s-3.2-1.9-5.8-1.9h-17.1c0.7,2.1,1,4.6,1,7.5v33.3h-18.2v-32.2c0-3.2-0.6-5.5-1.8-6.7
				s-3.2-1.9-5.8-1.9h-17.5l-3-8.1h-0.7v48.8h-18.2V94.6h42.8c4,0,7.2,0.5,9.9,1.6c2.6,1,4.9,2.5,6.7,4.3l0.4-0.3
				c-0.6-0.7-1.2-1.5-1.8-2.3s-1.2-1.6-1.7-2.5v-0.8C737,94.6,736.7,94.6,736.7,94.6z"/>
		</g>
		<g class="st0">
			<path class="st2" d="M796.7,149.9v-16.7h18.2v16.7H796.7z"/>
			<path class="st2" d="M824.3,85.9V71.3h18.2v14.6H824.3z M824.3,149.9V94.6h18.2v55.3H824.3z"/>
			<path class="st2" d="M851.8,94.6h45.1c4.1,0,7.6,0.5,10.5,1.6c2.9,1,5.2,2.5,7,4.4s3.1,4.2,3.9,6.9c0.8,2.7,1.2,5.7,1.2,9.1v33.3
				h-18.2v-32.1c0-3.2-0.6-5.5-1.8-6.7c-1.2-1.3-3.2-1.9-5.9-1.9h-19.7l-3-8.1h-0.7v48.8H852V94.6H851.8z"/>
			<path class="st2" d="M967.7,108.5h-16.1v41.4h-18.2v-41.4h-7.5l-4.8-13.1v-0.8h12.3V88c0-3.3,0.3-6,1-8.1s1.8-3.8,3.4-5.1
				c1.6-1.3,3.7-2.2,6.2-2.7c2.6-0.5,5.8-0.8,9.6-0.8h8.2l4.9,12.4v0.9H956c-1.7,0-2.9,0.4-3.5,1.2c-0.6,0.8-0.9,2.1-0.9,3.9v4.9
				h16.1L967.7,108.5L967.7,108.5z"/>
			<path class="st2" d="M1043.5,127.9c0,3.4-0.4,6.4-1.2,9.1c-0.8,2.7-2.1,5-3.9,6.9s-4.2,3.4-7,4.4c-2.9,1-6.4,1.6-10.5,1.6h-26.6
				c-4.1,0-7.6-0.5-10.4-1.6c-2.9-1-5.2-2.5-7-4.4s-3.1-4.2-3.9-6.9c-0.8-2.7-1.2-5.7-1.2-9.1v-11.4c0-3.3,0.4-6.3,1.2-9
				s2.1-5,3.9-6.9s4.1-3.4,7-4.4s6.3-1.6,10.4-1.6h26.6c4.1,0,7.6,0.5,10.5,1.6c2.9,1,5.2,2.5,7,4.4s3.1,4.2,3.9,6.9s1.2,5.7,1.2,9
				V127.9z M1017.6,133.6c2.9,0,4.9-0.6,6-1.7c1.1-1.1,1.7-3.3,1.7-6.4v-7.8c0-3.4-0.6-5.6-1.8-6.8c-1.2-1.2-3.2-1.8-6-1.8h-19.8
				c-2.9,0-4.9,0.6-6,1.9c-1.1,1.2-1.7,3.5-1.7,6.8v7.8c0,3.2,0.6,5.3,1.7,6.4c1.1,1.1,3.1,1.7,6,1.7L1017.6,133.6L1017.6,133.6z"/>
		</g>
	</g>
</g>
<g>
	<g>
		<g>
			<g>
				<g>
					<path class="st4" d="M128.7,151.9c-1.4,0-2.6-0.7-3.3-1.9l-18-31.2c-0.7-1.2-0.7-2.6,0-3.8l18-31.2c1.4-2.4,5.2-2.4,6.6,0
						l18,31.2c0.7,1.2,0.7,2.6,0,3.8L132,150C131.3,151.2,130,151.9,128.7,151.9z M115,116.9l13.6,23.6l13.6-23.6l-13.6-23.6
						L115,116.9z"/>
				</g>
				<g>
					<path class="st4" d="M110.6,120.7h-36c-1.4,0-2.6-0.7-3.3-1.9c-0.7-1.2-0.7-2.6,0-3.8l18-31.2c0.7-1.2,1.9-1.9,3.3-1.9h36.1
						c1.4,0,2.6,0.7,3.3,1.9c0.7,1.2,0.7,2.6,0,3.8l-18,31.2C113.3,120,112,120.7,110.6,120.7z M81.2,113.1h27.2L122,89.5H94.8
						L81.2,113.1z"/>
				</g>
				<g>
					<path class="st4" d="M128.7,151.9H92.6c-1.4,0-2.6-0.7-3.3-1.9l-18-31.2c-0.7-1.2-0.7-2.6,0-3.8c0.7-1.2,1.9-1.9,3.3-1.9h36.1
						c1.4,0,2.6,0.7,3.3,1.9l18,31.2c0.7,1.2,0.7,2.6,0,3.8S130,151.9,128.7,151.9z M94.8,144.3H122l-13.6-23.6H81.2L94.8,144.3z"/>
				</g>
			</g>
			<g>
				<g>
					<path class="st4" d="M128.7,89.5c-1.4,0-2.6-0.7-3.3-1.9l-18-31.2c-0.7-1.2-0.7-2.6,0-3.8l18-31.2c1.4-2.4,5.2-2.4,6.6,0
						l18,31.2c0.7,1.2,0.7,2.6,0,3.8l-18,31.2C131.3,88.8,130,89.5,128.7,89.5z M115,54.4L128.7,78l13.6-23.6l-13.6-23.6L115,54.4z"
						/>
				</g>
				<g>
					<path class="st4" d="M110.6,58.3h-36c-1.4,0-2.6-0.7-3.3-1.9c-0.7-1.2-0.7-2.6,0-3.8l18-31.2c0.7-1.2,1.9-1.9,3.3-1.9h36.1
						c1.4,0,2.6,0.7,3.3,1.9c0.7,1.2,0.7,2.6,0,3.8l-18,31.2C113.3,57.5,112,58.3,110.6,58.3z M81.2,50.6h27.2L122.1,27H94.8
						L81.2,50.6z"/>
				</g>
				<g>
					<path class="st4" d="M128.7,89.5H92.6c-1.4,0-2.6-0.7-3.3-1.9l-18-31.2c-0.7-1.2-0.7-2.6,0-3.8s1.9-1.9,3.3-1.9h36.1
						c1.4,0,2.6,0.7,3.3,1.9l18,31.2c0.7,1.2,0.7,2.6,0,3.8C131.3,88.8,130,89.5,128.7,89.5z M94.8,81.9H122l-13.6-23.6H81.2
						L94.8,81.9z"/>
				</g>
			</g>
			<g>
				<g>
					<path class="st4" d="M182.8,183.2L182.8,183.2c-1.4,0-2.6-0.7-3.3-1.9l-18-31.2c-0.7-1.2-0.7-2.6,0-3.8l18-31.2
						c1.4-2.4,5.2-2.4,6.6,0l18,31.2c0.7,1.2,0.7,2.6,0,3.8l-18,31.2C185.4,182.4,184.1,183.2,182.8,183.2z M169.1,148.1l13.6,23.6
						l13.6-23.6l-13.6-23.6L169.1,148.1z"/>
				</g>
				<g>
					<path class="st4" d="M164.7,151.9h-36.1c-1.4,0-2.6-0.7-3.3-1.9c-0.7-1.2-0.7-2.6,0-3.8l18-31.2c0.7-1.2,1.9-1.9,3.3-1.9h36.1
						c1.4,0,2.6,0.7,3.3,1.9c0.7,1.2,0.7,2.6,0,3.8L168,150C167.3,151.2,166.1,151.9,164.7,151.9z M135.3,144.3h27.2l13.6-23.6
						h-27.2L135.3,144.3z"/>
				</g>
				<g>
					<path class="st4" d="M182.8,183.2h-36.1c-1.4,0-2.6-0.7-3.3-1.9l-18-31.2c-0.7-1.2-0.7-2.6,0-3.8s1.9-1.9,3.3-1.9h36.1
						c1.4,0,2.6,0.7,3.3,1.9l18,31.2c0.7,1.2,0.7,2.6,0,3.8C185.4,182.4,184.1,183.2,182.8,183.2z M148.9,175.5h27.2l-13.6-23.6
						h-27.2L148.9,175.5z"/>
				</g>
			</g>
			<g>
				<g>
					<path class="st4" d="M182.8,120.7c-1.4,0-2.6-0.7-3.3-1.9l-18-31.2c-0.7-1.2-0.7-2.6,0-3.8l18-31.2c1.4-2.4,5.2-2.4,6.6,0
						l18,31.2c0.7,1.2,0.7,2.6,0,3.8l-18,31.2C185.4,120,184.1,120.7,182.8,120.7z M169.1,85.7l13.6,23.6l13.6-23.6l-13.6-23.6
						L169.1,85.7z"/>
				</g>
				<g>
					<path class="st4" d="M164.7,89.5h-36.1c-1.4,0-2.6-0.7-3.3-1.9c-0.7-1.2-0.7-2.6,0-3.8l18-31.2c0.7-1.2,1.9-1.9,3.3-1.9h36.1
						c1.4,0,2.6,0.7,3.3,1.9s0.7,2.6,0,3.8l-18,31.2C167.3,88.8,166.1,89.5,164.7,89.5z M135.3,81.9h27.2l13.6-23.6h-27.2
						L135.3,81.9z"/>
				</g>
				<g>
					<path class="st4" d="M182.8,120.7h-36.1c-1.4,0-2.6-0.7-3.3-1.9l-18-31.2c-0.7-1.2-0.7-2.6,0-3.8c0.7-1.2,1.9-1.9,3.3-1.9h36.1
						c1.4,0,2.6,0.7,3.3,1.9l18,31.2c0.7,1.2,0.7,2.6,0,3.8C185.4,120,184.1,120.7,182.8,120.7z M148.9,113.1h27.2l-13.6-23.6h-27.2
						L148.9,113.1z"/>
				</g>
			</g>
			<g>
				<g>
					<path class="st4" d="M74.7,183.2L74.7,183.2c-1.4,0-2.6-0.7-3.3-1.9l-18-31.2c-0.7-1.2-0.7-2.6,0-3.8l18-31.2
						c1.4-2.4,5.2-2.4,6.6,0l18,31.2c0.7,1.2,0.7,2.6,0,3.8l-18,31.2C77.3,182.4,76.1,183.2,74.7,183.2z M61.1,148.1l13.6,23.6
						l13.6-23.6l-13.6-23.6L61.1,148.1z"/>
				</g>
				<g>
					<path class="st4" d="M56.7,151.9H20.6c-1.4,0-2.6-0.7-3.3-1.9c-0.7-1.2-0.7-2.6,0-3.8l18-31.2c0.7-1.2,1.9-1.9,3.3-1.9h36.1
						c1.4,0,2.6,0.7,3.3,1.9c0.7,1.2,0.7,2.6,0,3.8L60,150C59.3,151.2,58,151.9,56.7,151.9z M27.2,144.3h27.2L68,120.7H40.9
						L27.2,144.3z"/>
				</g>
				<g>
					<path class="st4" d="M74.7,183.2h-36c-1.4,0-2.6-0.7-3.3-1.9l-18-31.2c-0.7-1.2-0.7-2.6,0-3.8s1.9-1.9,3.3-1.9h36.1
						c1.4,0,2.6,0.7,3.3,1.9l18,31.2c0.7,1.2,0.7,2.6,0,3.8C77.3,182.4,76.1,183.2,74.7,183.2z M40.9,175.5h27.2l-13.6-23.6H27.2
						L40.9,175.5z"/>
				</g>
			</g>
			<g>
				<g>
					<path class="st4" d="M74.7,120.7c-1.4,0-2.6-0.7-3.3-1.9l-18-31.2c-0.7-1.2-0.7-2.6,0-3.8l18-31.2c1.4-2.4,5.2-2.4,6.6,0
						l18,31.2c0.7,1.2,0.7,2.6,0,3.8l-18,31.2C77.3,120,76.1,120.7,74.7,120.7z M61.1,85.7l13.6,23.6l13.6-23.6L74.7,62.1L61.1,85.7
						z"/>
				</g>
				<g>
					<path class="st4" d="M56.7,89.5H20.6c-1.4,0-2.6-0.7-3.3-1.9c-0.7-1.2-0.7-2.6,0-3.8l18-31.2c0.7-1.2,1.9-1.9,3.3-1.9h36.1
						c1.4,0,2.6,0.7,3.3,1.9c0.7,1.2,0.7,2.6,0,3.8L60,87.6C59.3,88.8,58,89.5,56.7,89.5z M27.2,81.9h27.2L68,58.3H40.9L27.2,81.9z"
						/>
				</g>
				<g>
					<path class="st4" d="M74.7,120.7h-36c-1.4,0-2.6-0.7-3.3-1.9l-18-31.2c-0.7-1.2-0.7-2.6,0-3.8c0.7-1.2,1.9-1.9,3.3-1.9h36.1
						c1.4,0,2.6,0.7,3.3,1.9L78,115c0.7,1.2,0.7,2.6,0,3.8C77.3,120,76.1,120.7,74.7,120.7z M40.9,113.1h27.2L54.5,89.5H27.2
						L40.9,113.1z"/>
				</g>
			</g>
			<g>
				<g>
					<path class="st4" d="M128.7,214.4c-1.4,0-2.6-0.7-3.3-1.9l-18-31.2c-0.7-1.2-0.7-2.6,0-3.8l18-31.2c1.4-2.4,5.2-2.4,6.6,0
						l18,31.2c0.7,1.2,0.7,2.6,0,3.8l-18,31.2C131.3,213.7,130,214.4,128.7,214.4z M115,179.4l13.6,23.6l13.6-23.6l-13.6-23.6
						L115,179.4z"/>
				</g>
				<g>
					<path class="st4" d="M110.6,183.2h-36c-1.4,0-2.6-0.7-3.3-1.9c-0.7-1.2-0.7-2.6,0-3.8l18-31.2c0.7-1.2,1.9-1.9,3.3-1.9h36.1
						c1.4,0,2.6,0.7,3.3,1.9s0.7,2.6,0,3.8l-18,31.2C113.3,182.4,112,183.2,110.6,183.2z M81.2,175.5h27.2l13.6-23.6H94.8
						L81.2,175.5z"/>
				</g>
				<g>
					<path class="st4" d="M128.7,214.4H92.6c-1.4,0-2.6-0.7-3.3-1.9l-18-31.2c-0.7-1.2-0.7-2.6,0-3.8s1.9-1.9,3.3-1.9h36.1
						c1.4,0,2.6,0.7,3.3,1.9l18,31.2c0.7,1.2,0.7,2.6,0,3.8S130,214.4,128.7,214.4z M94.8,206.8H122l-13.6-23.6H81.2L94.8,206.8z"/>
				</g>
			</g>
		</g>
		<g>
			<g>
				<g>
					<polygon class="st5" points="128.7,85.7 110.6,116.9 128.7,148.1 146.7,116.9 					"/>
				</g>
				<g>
					<polygon class="st6" points="92.6,85.7 74.6,116.9 110.6,116.9 128.7,85.7 					"/>
				</g>
				<g>
					<polygon class="st7" points="74.6,116.9 110.6,116.9 128.7,148.1 92.6,148.1 					"/>
				</g>
			</g>
			<g>
				<g>
					<polygon class="st8" points="128.7,23.2 110.6,54.4 128.7,85.7 146.7,54.4 					"/>
				</g>
				<g>
					<polygon class="st9" points="92.6,23.2 74.6,54.4 110.6,54.4 128.7,23.2 					"/>
				</g>
				<g>
					<polygon class="st10" points="74.6,54.4 110.6,54.4 128.7,85.7 92.6,85.7 					"/>
				</g>
			</g>
			<g>
				<g>
					<polygon class="st8" points="182.8,116.9 164.7,148.1 182.8,179.4 200.8,148.1 					"/>
				</g>
				<g>
					<polygon class="st9" points="146.7,116.9 128.7,148.1 164.7,148.1 182.8,116.9 					"/>
				</g>
				<g>
					<polygon class="st10" points="128.7,148.1 164.7,148.1 182.8,179.4 146.7,179.4 					"/>
				</g>
			</g>
			<g>
				<g>
					<polygon class="st8" points="182.8,54.4 164.7,85.7 182.8,116.9 200.8,85.7 					"/>
				</g>
				<g>
					<polygon class="st9" points="146.7,54.4 128.7,85.7 164.7,85.7 182.8,54.4 					"/>
				</g>
				<g>
					<polygon class="st10" points="128.7,85.7 164.7,85.7 182.8,116.9 146.7,116.9 					"/>
				</g>
			</g>
			<g>
				<g>
					<polygon class="st5" points="74.7,116.9 56.7,148.1 74.7,179.4 92.7,148.1 					"/>
				</g>
				<g>
					<polygon class="st6" points="38.7,116.9 20.6,148.1 56.7,148.1 74.7,116.9 					"/>
				</g>
				<g>
					<polygon class="st7" points="20.6,148.1 56.7,148.1 74.7,179.4 38.7,179.4 					"/>
				</g>
			</g>
			<g>
				<g>
					<polygon class="st5" points="74.7,54.4 56.7,85.7 74.7,116.9 92.7,85.7 					"/>
				</g>
				<g>
					<polygon class="st6" points="38.7,54.4 20.6,85.7 56.7,85.7 74.7,54.4 					"/>
				</g>
				<g>
					<polygon class="st7" points="20.6,85.7 56.7,85.7 74.7,116.9 38.7,116.9 					"/>
				</g>
			</g>
			<g>
				<g>
					<polygon class="st8" points="128.7,148.1 110.6,179.4 128.7,210.6 146.7,179.4 					"/>
				</g>
				<g>
					<polygon class="st9" points="92.6,148.1 74.6,179.4 110.6,179.4 128.7,148.1 					"/>
				</g>
				<g>
					<polygon class="st10" points="74.6,179.4 110.6,179.4 128.7,210.6 92.6,210.6 					"/>
				</g>
			</g>
		</g>
	</g>
</g>
</svg>
