<?xml version="1.0" encoding="utf-8"?>
<!-- Generator: Adobe Illustrator 22.1.0, SVG Export Plug-In . SVG Version: 6.00 Build 0)  -->
<svg version="1.1" id="Layer_1" xmlns="http://www.w3.org/2000/svg" xmlns:xlink="http://www.w3.org/1999/xlink" x="0px" y="0px"
	 viewBox="0 0 964 745" style="enable-background:new 0 0 964 745;" xml:space="preserve">
<style type="text/css">
	.st0{fill:none;}
	.st1{fill:#FFFFFF;}
	.st2{font-family:'RechargeRg-Bold';}
	.st3{font-size:101px;}
	.st4{fill:#FF8E39;}
	.st5{fill:url(#SVGID_1_);}
	.st6{fill:url(#SVGID_2_);}
	.st7{fill:#FD7400;}
	.st8{fill:url(#SVGID_3_);}
	.st9{fill:#CC6633;}
	.st10{fill:#B3B3B3;}
	.st11{fill:#E6E6E6;}
	.st12{fill:#808080;}
	.st13{fill:url(#SVGID_4_);}
	.st14{fill:url(#SVGID_5_);}
	.st15{fill:url(#SVGID_6_);}
	.st16{fill:url(#SVGID_7_);}
	.st17{fill:url(#SVGID_8_);}
	.st18{fill:url(#SVGID_9_);}
</style>
<rect x="61.8" y="562" class="st0" width="841.2" height="119"/>
<g>
	<text transform="matrix(1 0 0 1 61.7878 640.7798)" class="st1 st2 st3">My</text>
	<text transform="matrix(1 0 0 1 267.1878 640.7798)" class="st4 st2 st3">Chem</text>
	<text transform="matrix(1 0 0 1 629.1878 640.7798)" class="st1 st2 st3">.info</text>
</g>
<g>
	<g>
		<g>
			<g>
				<g>
					<polygon class="st0" points="525.5,198.9 471.4,277.5 395.6,277.5 449.7,198.9 					"/>
				</g>
				<g>
					<polygon class="st0" points="525.5,198.9 471.4,277.5 395.6,277.5 449.7,198.9 					"/>
				</g>
				<g>
					<polygon class="st0" points="526,199 471.4,279.5 395.6,279.5 451,199 					"/>
				</g>
			</g>
			<g>
				<g>
					<polygon class="st0" points="526.2,199.2 581.5,278.7 526.2,358.2 471.5,278.7 					"/>
				</g>
				<g>
					<polygon class="st0" points="526.2,199.2 581.5,278.7 526.2,358.2 471.5,278.7 					"/>
				</g>
				<g>
					<polygon class="st0" points="526,199 581.5,279.7 526.2,359.2 471.5,279.7 					"/>
				</g>
			</g>
			<g>
				<polygon class="st0" points="471.4,279.4 525.5,358 449.7,358 395.6,279.4 				"/>
			</g>
		</g>
		<g>
			<g>
				<polygon class="st0" points="525.5,39.7 471.4,118.3 395.6,118.3 449.7,39.7 				"/>
			</g>
			<g>
				<polygon class="st0" points="526.2,39.9 581.5,119.4 526.2,199.2 471.5,119.4 				"/>
			</g>
			<g>
				<polygon class="st0" points="471.6,118.3 526.8,198.9 449.5,198.9 394.3,118.3 				"/>
			</g>
		</g>
		<g>
			<g>
				<polygon class="st0" points="525.5,358 471.4,436.7 395.6,436.7 449.7,358 				"/>
			</g>
			<g>
				<polygon class="st0" points="526.2,358.2 581.5,437.7 526.2,517.5 471.5,437.7 				"/>
			</g>
			<g>
				<polygon class="st0" points="471.6,436.7 526.8,517.2 449.5,517.2 394.3,436.7 				"/>
			</g>
		</g>
		<g>
			<g>
				<polygon class="st0" points="657.2,279.4 603.1,358 527.1,358 581.2,279.4 				"/>
			</g>
			<g>
				<polygon class="st0" points="657.9,278.7 713,358.2 657.9,437.9 603.2,358.2 				"/>
			</g>
			<g>
				<polygon class="st0" points="603.3,358 658.5,438.6 581,438.6 525.8,358 				"/>
			</g>
		</g>
		<g>
			<g>
				<polygon class="st0" points="656.7,120.2 602.8,198.9 526.8,198.9 580.9,120.2 				"/>
			</g>
			<g>
				<polygon class="st0" points="657.4,119.4 712.8,198.9 657.4,278.7 603,198.9 				"/>
			</g>
			<g>
				<polygon class="st0" points="603.1,198.9 658,279.4 580.7,279.4 525.5,198.9 				"/>
			</g>
		</g>
		<g>
			<g>
				<g>
					<polygon class="st0" points="395.3,279.4 341.4,358 265.4,358 319.5,279.4 					"/>
				</g>
				<g>
					<polygon class="st0" points="395.3,279.4 341.4,358 265.4,358 319.5,279.4 					"/>
				</g>
				<g>
					<polygon class="st0" points="395.3,279.4 341.4,358 265.4,358 319.5,279.4 					"/>
				</g>
			</g>
			<g>
				<g>
					<polygon class="st0" points="395.9,278.7 451.3,358.2 395.9,437.9 341.5,358.2 					"/>
				</g>
				<g>
					<polygon class="st0" points="395.9,278.7 451.3,358.2 395.9,437.9 341.5,358.2 					"/>
				</g>
				<g>
					<polygon class="st0" points="395.9,278.7 451.3,358.2 395.9,437.9 341.5,358.2 					"/>
				</g>
			</g>
			<g>
				<polygon class="st0" points="341.6,358 396.6,438.6 319.3,438.6 264.1,358 				"/>
			</g>
		</g>
		<g>
			<g>
				<g>
					<polygon class="st0" points="395,120.2 340.9,198.9 265.2,198.9 319.3,120.2 					"/>
				</g>
				<g>
					<polygon class="st0" points="395,120.2 340.9,198.9 265.2,198.9 319.3,120.2 					"/>
				</g>
				<g>
					<polygon class="st0" points="395,120.2 340.9,198.9 265.2,198.9 319.3,120.2 					"/>
				</g>
			</g>
			<g>
				<g>
					<polygon class="st0" points="395.7,119.4 451.1,198.9 395.7,278.7 341,198.9 					"/>
				</g>
				<g>
					<polygon class="st0" points="395.7,119.4 451.1,198.9 395.7,278.7 341,198.9 					"/>
				</g>
				<g>
					<polygon class="st0" points="395.7,119.4 451.1,198.9 395.7,278.7 341,198.9 					"/>
				</g>
			</g>
			<g>
				<polygon class="st0" points="341.2,198.9 396.3,279.4 319,279.4 263.9,198.9 				"/>
			</g>
		</g>
	</g>
	<g>
		<g>
			<g>
				<g>
					
						<linearGradient id="SVGID_1_" gradientUnits="userSpaceOnUse" x1="-24.4" y1="788.3" x2="105.5" y2="788.3" gradientTransform="matrix(1 0 0 -1 420 1026.5)">
						<stop  offset="0" style="stop-color:#FD7400"/>
						<stop  offset="1" style="stop-color:#FF8E39"/>
					</linearGradient>
					<polygon class="st5" points="525.5,198.9 471.4,277.5 395.6,277.5 449.7,198.9 					"/>
				</g>
				<g>
					
						<linearGradient id="SVGID_2_" gradientUnits="userSpaceOnUse" x1="173.6" y1="792.6787" x2="303.5" y2="792.6787" gradientTransform="matrix(1 0 0 -1 222 1030.8787)">
						<stop  offset="0" style="stop-color:#FD7400"/>
						<stop  offset="1" style="stop-color:#FF8E39"/>
					</linearGradient>
					<polygon class="st6" points="525.5,198.9 471.4,277.5 395.6,277.5 449.7,198.9 					"/>
				</g>
				<g>
					<polygon class="st7" points="526,199 471.4,279.5 395.6,279.5 451,199 					"/>
				</g>
			</g>
			<g>
				<g>
					
						<linearGradient id="SVGID_3_" gradientUnits="userSpaceOnUse" x1="51.5" y1="747.8" x2="161.3581" y2="747.8" gradientTransform="matrix(1 0 0 -1 420 1026.5)">
						<stop  offset="0" style="stop-color:#FF8E39;stop-opacity:0"/>
						<stop  offset="0.1239" style="stop-color:#FF913E;stop-opacity:0.1239"/>
						<stop  offset="0.2664" style="stop-color:#FF994C;stop-opacity:0.2664"/>
						<stop  offset="0.4183" style="stop-color:#FFA663;stop-opacity:0.4183"/>
						<stop  offset="0.5766" style="stop-color:#FFB883;stop-opacity:0.5766"/>
						<stop  offset="0.7399" style="stop-color:#FFD0AD;stop-opacity:0.7399"/>
						<stop  offset="0.9051" style="stop-color:#FFEDDF;stop-opacity:0.9051"/>
						<stop  offset="1" style="stop-color:#FFFFFF"/>
					</linearGradient>
					<polygon class="st8" points="526.2,199.2 581.5,278.7 526.2,358.2 471.5,278.7 					"/>
				</g>
				<g>
					<polygon class="st4" points="526.2,199.2 581.5,278.7 526.2,358.2 471.5,278.7 					"/>
				</g>
				<g>
					<polygon class="st4" points="526,199 581.5,279.7 526.2,359.2 471.5,279.7 					"/>
				</g>
			</g>
			<g>
				<polygon class="st9" points="471.4,279.4 525.5,358 449.7,358 395.6,279.4 				"/>
			</g>
		</g>
		<g>
			<g>
				<polygon class="st10" points="525.5,39.7 471.4,118.3 395.6,118.3 449.7,39.7 				"/>
			</g>
			<g>
				<polygon class="st11" points="526.2,39.9 581.5,119.4 526.2,199.2 471.5,119.4 				"/>
			</g>
			<g>
				<polygon class="st12" points="471.6,118.3 526.8,198.9 449.5,198.9 394.3,118.3 				"/>
			</g>
		</g>
		<g>
			<g>
				<polygon class="st10" points="525.5,358 471.4,436.7 395.6,436.7 449.7,358 				"/>
			</g>
			<g>
				<polygon class="st11" points="526.2,358.2 581.5,437.7 526.2,517.5 471.5,437.7 				"/>
			</g>
			<g>
				<polygon class="st12" points="471.6,436.7 526.8,517.2 449.5,517.2 394.3,436.7 				"/>
			</g>
		</g>
		<g>
			<g>
				<polygon class="st10" points="657.2,279.4 603.1,358 527.1,358 581.2,279.4 				"/>
			</g>
			<g>
				<polygon class="st11" points="657.9,278.7 713,358.2 657.9,437.9 603.2,358.2 				"/>
			</g>
			<g>
				<polygon class="st12" points="603.3,358 658.5,438.6 581,438.6 525.8,358 				"/>
			</g>
		</g>
		<g>
			<g>
				<polygon class="st10" points="656.7,120.2 602.8,198.9 526.8,198.9 580.9,120.2 				"/>
			</g>
			<g>
				<polygon class="st11" points="657.4,119.4 712.8,198.9 657.4,278.7 603,198.9 				"/>
			</g>
			<g>
				<polygon class="st12" points="603.1,198.9 658,279.4 580.7,279.4 525.5,198.9 				"/>
			</g>
		</g>
		<g>
			<g>
				<g>
					
						<linearGradient id="SVGID_4_" gradientUnits="userSpaceOnUse" x1="-154.6" y1="707.8" x2="-24.7" y2="707.8" gradientTransform="matrix(1 0 0 -1 420 1026.5)">
						<stop  offset="0" style="stop-color:#FD7400"/>
						<stop  offset="1" style="stop-color:#FF8E39"/>
					</linearGradient>
					<polygon class="st13" points="395.3,279.4 341.4,358 265.4,358 319.5,279.4 					"/>
				</g>
				<g>
					
						<linearGradient id="SVGID_5_" gradientUnits="userSpaceOnUse" x1="43.4" y1="712.1787" x2="173.3" y2="712.1787" gradientTransform="matrix(1 0 0 -1 222 1030.8787)">
						<stop  offset="0" style="stop-color:#FD7400"/>
						<stop  offset="1" style="stop-color:#FF8E39"/>
					</linearGradient>
					<polygon class="st14" points="395.3,279.4 341.4,358 265.4,358 319.5,279.4 					"/>
				</g>
				<g>
					<polygon class="st7" points="395.3,279.4 341.4,358 265.4,358 319.5,279.4 					"/>
				</g>
			</g>
			<g>
				<g>
					
						<linearGradient id="SVGID_6_" gradientUnits="userSpaceOnUse" x1="-78.5" y1="668.2" x2="31.3" y2="668.2" gradientTransform="matrix(1 0 0 -1 420 1026.5)">
						<stop  offset="0" style="stop-color:#FF8E39;stop-opacity:0"/>
						<stop  offset="0.1239" style="stop-color:#FF913E;stop-opacity:0.1239"/>
						<stop  offset="0.2664" style="stop-color:#FF994C;stop-opacity:0.2664"/>
						<stop  offset="0.4183" style="stop-color:#FFA663;stop-opacity:0.4183"/>
						<stop  offset="0.5766" style="stop-color:#FFB883;stop-opacity:0.5766"/>
						<stop  offset="0.7399" style="stop-color:#FFD0AD;stop-opacity:0.7399"/>
						<stop  offset="0.9051" style="stop-color:#FFEDDF;stop-opacity:0.9051"/>
						<stop  offset="1" style="stop-color:#FFFFFF"/>
					</linearGradient>
					<polygon class="st15" points="395.9,278.7 451.3,358.2 395.9,437.9 341.5,358.2 					"/>
				</g>
				<g>
					<polygon class="st4" points="395.9,278.7 451.3,358.2 395.9,437.9 341.5,358.2 					"/>
				</g>
				<g>
					<polygon class="st4" points="395.9,278.7 451.3,358.2 395.9,437.9 341.5,358.2 					"/>
				</g>
			</g>
			<g>
				<polygon class="st9" points="341.6,358 396.6,438.6 319.3,438.6 264.1,358 				"/>
			</g>
		</g>
		<g>
			<g>
				<g>
					
						<linearGradient id="SVGID_7_" gradientUnits="userSpaceOnUse" x1="-154.8" y1="866.95" x2="-25" y2="866.95" gradientTransform="matrix(1 0 0 -1 420 1026.5)">
						<stop  offset="0" style="stop-color:#FD7400"/>
						<stop  offset="1" style="stop-color:#FF8E39"/>
					</linearGradient>
					<polygon class="st16" points="395,120.2 340.9,198.9 265.2,198.9 319.3,120.2 					"/>
				</g>
				<g>
					
						<linearGradient id="SVGID_8_" gradientUnits="userSpaceOnUse" x1="43.2" y1="871.3287" x2="173" y2="871.3287" gradientTransform="matrix(1 0 0 -1 222 1030.8787)">
						<stop  offset="0" style="stop-color:#FD7400"/>
						<stop  offset="1" style="stop-color:#FF8E39"/>
					</linearGradient>
					<polygon class="st17" points="395,120.2 340.9,198.9 265.2,198.9 319.3,120.2 					"/>
				</g>
				<g>
					<polygon class="st7" points="395,120.2 340.9,198.9 265.2,198.9 319.3,120.2 					"/>
				</g>
			</g>
			<g>
				<g>
					
						<linearGradient id="SVGID_9_" gradientUnits="userSpaceOnUse" x1="-79" y1="827.45" x2="30.8578" y2="827.45" gradientTransform="matrix(1 0 0 -1 420 1026.5)">
						<stop  offset="0" style="stop-color:#FF8E39;stop-opacity:0"/>
						<stop  offset="0.1239" style="stop-color:#FF913E;stop-opacity:0.1239"/>
						<stop  offset="0.2664" style="stop-color:#FF994C;stop-opacity:0.2664"/>
						<stop  offset="0.4183" style="stop-color:#FFA663;stop-opacity:0.4183"/>
						<stop  offset="0.5766" style="stop-color:#FFB883;stop-opacity:0.5766"/>
						<stop  offset="0.7399" style="stop-color:#FFD0AD;stop-opacity:0.7399"/>
						<stop  offset="0.9051" style="stop-color:#FFEDDF;stop-opacity:0.9051"/>
						<stop  offset="1" style="stop-color:#FFFFFF"/>
					</linearGradient>
					<polygon class="st18" points="395.7,119.4 451.1,198.9 395.7,278.7 341,198.9 					"/>
				</g>
				<g>
					<polygon class="st4" points="395.7,119.4 451.1,198.9 395.7,278.7 341,198.9 					"/>
				</g>
				<g>
					<polygon class="st4" points="395.7,119.4 451.1,198.9 395.7,278.7 341,198.9 					"/>
				</g>
			</g>
			<g>
				<polygon class="st9" points="341.2,198.9 396.3,279.4 319,279.4 263.9,198.9 				"/>
			</g>
		</g>
	</g>
</g>
</svg>
