<?xml version="1.0" encoding="utf-8"?>
<!-- Generator: Adobe Illustrator 22.1.0, SVG Export Plug-In . SVG Version: 6.00 Build 0)  -->
<svg version="1.1" id="Layer_1" xmlns="http://www.w3.org/2000/svg" xmlns:xlink="http://www.w3.org/1999/xlink" x="0px" y="0px"
	 viewBox="0 0 1480 237" style="enable-background:new 0 0 1480 237;" xml:space="preserve">
<style type="text/css">
	.st0{fill:none;}
	.st1{fill:none;stroke:#5B5B5B;stroke-width:10;stroke-linejoin:round;}
	.st2{font-family:'RechargeRg-Bold';}
	.st3{font-size:100.1672px;}
	.st4{fill:#FFFFFF;}
	.st5{fill:#669BE8;}
	.st6{enable-background:new    ;}
	.st7{fill:url(#SVGID_1_);}
	.st8{fill:#2A7FE2;}
	.st9{fill:url(#SVGID_2_);}
	.st10{fill:#3366CC;}
	.st11{fill:#B3B3B3;}
	.st12{fill:#E6E6E6;}
	.st13{fill:#808080;}
	.st14{fill:url(#SVGID_3_);}
	.st15{fill:url(#SVGID_4_);}
	.st16{fill:url(#SVGID_5_);}
	.st17{fill:url(#SVGID_6_);}
</style>
<rect x="229.6" y="71.6" class="st0" width="822.2" height="107.3"/>
<g>
	<text transform="matrix(1 0 0 1 229.5654 149.709)" class="st1 st2 st3">My</text>
	<text transform="matrix(1 0 0 1 433.2822 149.709)" class="st1 st2 st3">Gene</text>
	<text transform="matrix(1 0 0 1 750.3052 149.709)" class="st1 st2 st3">.info</text>
</g>
<g>
	<text transform="matrix(1 0 0 1 229.5654 149.709)" class="st4 st2 st3">My</text>
	<text transform="matrix(1 0 0 1 433.2822 149.709)" class="st5 st2 st3">Gene</text>
	<text transform="matrix(1 0 0 1 750.3052 149.709)" class="st4 st2 st3">.info</text>
</g>
<g class="st6">
	<g>
		<g>
			<g>
				<g>
					<polygon class="st1" points="176.7,55.5 155.6,86.3 126,86.3 147,55.5 					"/>
				</g>
				<g>
					<polygon class="st1" points="176.7,55.5 155.6,86.3 126,86.3 147,55.5 					"/>
				</g>
			</g>
			<g>
				<g>
					<polygon class="st1" points="176.9,55 198.5,86.1 176.9,117.2 155.6,86.1 					"/>
				</g>
				<g>
					<polygon class="st1" points="176.9,55 198.5,86.1 176.9,117.2 155.6,86.1 					"/>
				</g>
			</g>
			<g>
				<polygon class="st1" points="155.6,86.3 176.6,117 147,117 126.1,86.3 				"/>
			</g>
		</g>
		<g>
			<g>
				<polygon class="st1" points="74.4,116.2 53.4,147 23.7,147 44.8,116.2 				"/>
			</g>
			<g>
				<polygon class="st1" points="74.6,116.3 96.2,147.4 74.6,178.5 53.4,147.4 				"/>
			</g>
			<g>
				<polygon class="st1" points="53.3,147.7 74.3,178.5 44.8,178.5 23.7,147.7 				"/>
			</g>
		</g>
		<g>
			<g>
				<polygon class="st1" points="125.5,147.7 104.4,178.5 74.8,178.5 95.8,147.7 				"/>
			</g>
			<g>
				<polygon class="st1" points="125.7,147.8 147.3,178.9 125.7,210 104.4,178.9 				"/>
			</g>
			<g>
				<polygon class="st1" points="104.5,178.5 126.1,210 95.7,210 74.2,178.5 				"/>
			</g>
		</g>
		<g>
			<g>
				<polygon class="st1" points="176.8,117 155.8,147.7 126.1,147.7 147.2,117 				"/>
			</g>
			<g>
				<polygon class="st1" points="177,116.8 198.7,147.8 177,178.9 155.8,147.8 				"/>
			</g>
			<g>
				<polygon class="st1" points="155.8,147.7 176.8,178.5 147.2,178.5 126.1,147.7 				"/>
			</g>
		</g>
		<g>
			<g>
				<polygon class="st1" points="74.4,54.7 53.4,85.5 23.7,85.5 44.8,54.7 				"/>
			</g>
			<g>
				<polygon class="st1" points="74.6,54.6 96.2,85.6 74.6,116.7 53.4,85.6 				"/>
			</g>
			<g>
				<polygon class="st1" points="53.3,85.5 74.3,116.2 44.8,116.2 23.7,85.5 				"/>
			</g>
		</g>
		<g>
			<g>
				<g>
					<polygon class="st1" points="125.9,86.3 104.8,117 75.1,117 96.3,86.3 					"/>
				</g>
				<g>
					<polygon class="st1" points="125.9,86.3 104.8,117 75.1,117 96.3,86.3 					"/>
				</g>
			</g>
			<g>
				<g>
					<polygon class="st1" points="126.1,86.2 147.7,117.2 126.1,148.3 104.8,117.2 					"/>
				</g>
				<g>
					<polygon class="st1" points="126.1,86.2 147.7,117.2 126.1,148.3 104.8,117.2 					"/>
				</g>
			</g>
			<g>
				<polygon class="st1" points="104.8,117 126.4,148.5 96.2,148.5 74.6,117 				"/>
			</g>
		</g>
		<g>
			<g>
				<g>
					<polygon class="st1" points="125.8,24 104.7,54.7 75.1,54.7 96.1,24 					"/>
				</g>
				<g>
					<polygon class="st1" points="125.8,24 104.7,54.7 75.1,54.7 96.1,24 					"/>
				</g>
			</g>
			<g>
				<g>
					<polygon class="st1" points="126,24 147.5,55 126,86.2 104.7,55 					"/>
				</g>
				<g>
					<polygon class="st1" points="126,24 147.5,55 126,86.2 104.7,55 					"/>
				</g>
			</g>
			<g>
				<polygon class="st1" points="104.7,54.7 126.3,86.3 96,86.3 74.5,54.7 				"/>
			</g>
		</g>
	</g>
	<g>
		<g>
			<g>
				<g>
					
						<linearGradient id="SVGID_1_" gradientUnits="userSpaceOnUse" x1="10" y1="-314.4" x2="60.7" y2="-314.4" gradientTransform="matrix(1 0 0 -1 116 -243.5)">
						<stop  offset="0" style="stop-color:#FD7400"/>
						<stop  offset="1" style="stop-color:#FF8E39"/>
					</linearGradient>
					<polygon class="st7" points="176.7,55.5 155.6,86.3 126,86.3 147,55.5 					"/>
				</g>
				<g>
					<polygon class="st8" points="176.7,55.5 155.6,86.3 126,86.3 147,55.5 					"/>
				</g>
			</g>
			<g>
				<g>
					
						<linearGradient id="SVGID_2_" gradientUnits="userSpaceOnUse" x1="39.6" y1="-329.6" x2="82.4492" y2="-329.6" gradientTransform="matrix(1 0 0 -1 116 -243.5)">
						<stop  offset="0" style="stop-color:#FF8E39;stop-opacity:0"/>
						<stop  offset="0.1239" style="stop-color:#FF913E;stop-opacity:0.1239"/>
						<stop  offset="0.2664" style="stop-color:#FF994C;stop-opacity:0.2664"/>
						<stop  offset="0.4183" style="stop-color:#FFA663;stop-opacity:0.4183"/>
						<stop  offset="0.5766" style="stop-color:#FFB883;stop-opacity:0.5766"/>
						<stop  offset="0.7399" style="stop-color:#FFD0AD;stop-opacity:0.7399"/>
						<stop  offset="0.9051" style="stop-color:#FFEDDF;stop-opacity:0.9051"/>
						<stop  offset="1" style="stop-color:#FFFFFF"/>
					</linearGradient>
					<polygon class="st9" points="176.9,55 198.5,86.1 176.9,117.2 155.6,86.1 					"/>
				</g>
				<g>
					<polygon class="st5" points="176.9,55 198.5,86.1 176.9,117.2 155.6,86.1 					"/>
				</g>
			</g>
			<g>
				<polygon class="st10" points="155.6,86.3 176.6,117 147,117 126.1,86.3 				"/>
			</g>
		</g>
		<g>
			<g>
				<polygon class="st11" points="74.4,116.2 53.4,147 23.7,147 44.8,116.2 				"/>
			</g>
			<g>
				<polygon class="st12" points="74.6,116.3 96.2,147.4 74.6,178.5 53.4,147.4 				"/>
			</g>
			<g>
				<polygon class="st13" points="53.3,147.7 74.3,178.5 44.8,178.5 23.7,147.7 				"/>
			</g>
		</g>
		<g>
			<g>
				<polygon class="st11" points="125.5,147.7 104.4,178.5 74.8,178.5 95.8,147.7 				"/>
			</g>
			<g>
				<polygon class="st12" points="125.7,147.8 147.3,178.9 125.7,210 104.4,178.9 				"/>
			</g>
			<g>
				<polygon class="st13" points="104.5,178.5 126.1,210 95.7,210 74.2,178.5 				"/>
			</g>
		</g>
		<g>
			<g>
				<polygon class="st11" points="176.8,117 155.8,147.7 126.1,147.7 147.2,117 				"/>
			</g>
			<g>
				<polygon class="st12" points="177,116.8 198.7,147.8 177,178.9 155.8,147.8 				"/>
			</g>
			<g>
				<polygon class="st13" points="155.8,147.7 176.8,178.5 147.2,178.5 126.1,147.7 				"/>
			</g>
		</g>
		<g>
			<g>
				<polygon class="st11" points="74.4,54.7 53.4,85.5 23.7,85.5 44.8,54.7 				"/>
			</g>
			<g>
				<polygon class="st12" points="74.6,54.6 96.2,85.6 74.6,116.7 53.4,85.6 				"/>
			</g>
			<g>
				<polygon class="st13" points="53.3,85.5 74.3,116.2 44.8,116.2 23.7,85.5 				"/>
			</g>
		</g>
		<g>
			<g>
				<g>
					
						<linearGradient id="SVGID_3_" gradientUnits="userSpaceOnUse" x1="-40.9" y1="-345.15" x2="9.8321" y2="-345.15" gradientTransform="matrix(1 0 0 -1 116 -243.5)">
						<stop  offset="0" style="stop-color:#FD7400"/>
						<stop  offset="1" style="stop-color:#FF8E39"/>
					</linearGradient>
					<polygon class="st14" points="125.9,86.3 104.8,117 75.1,117 96.3,86.3 					"/>
				</g>
				<g>
					<polygon class="st8" points="125.9,86.3 104.8,117 75.1,117 96.3,86.3 					"/>
				</g>
			</g>
			<g>
				<g>
					
						<linearGradient id="SVGID_4_" gradientUnits="userSpaceOnUse" x1="-11.2" y1="-360.75" x2="31.7" y2="-360.75" gradientTransform="matrix(1 0 0 -1 116 -243.5)">
						<stop  offset="0" style="stop-color:#FF8E39;stop-opacity:0"/>
						<stop  offset="0.1239" style="stop-color:#FF913E;stop-opacity:0.1239"/>
						<stop  offset="0.2664" style="stop-color:#FF994C;stop-opacity:0.2664"/>
						<stop  offset="0.4183" style="stop-color:#FFA663;stop-opacity:0.4183"/>
						<stop  offset="0.5766" style="stop-color:#FFB883;stop-opacity:0.5766"/>
						<stop  offset="0.7399" style="stop-color:#FFD0AD;stop-opacity:0.7399"/>
						<stop  offset="0.9051" style="stop-color:#FFEDDF;stop-opacity:0.9051"/>
						<stop  offset="1" style="stop-color:#FFFFFF"/>
					</linearGradient>
					<polygon class="st15" points="126.1,86.2 147.7,117.2 126.1,148.3 104.8,117.2 					"/>
				</g>
				<g>
					<polygon class="st5" points="126.1,86.2 147.7,117.2 126.1,148.3 104.8,117.2 					"/>
				</g>
			</g>
			<g>
				<polygon class="st10" points="104.8,117 126.4,148.5 96.2,148.5 74.6,117 				"/>
			</g>
		</g>
		<g>
			<g>
				<g>
					
						<linearGradient id="SVGID_5_" gradientUnits="userSpaceOnUse" x1="-40.9" y1="-282.85" x2="9.8" y2="-282.85" gradientTransform="matrix(1 0 0 -1 116 -243.5)">
						<stop  offset="0" style="stop-color:#FD7400"/>
						<stop  offset="1" style="stop-color:#FF8E39"/>
					</linearGradient>
					<polygon class="st16" points="125.8,24 104.7,54.7 75.1,54.7 96.1,24 					"/>
				</g>
				<g>
					<polygon class="st8" points="125.8,24 104.7,54.7 75.1,54.7 96.1,24 					"/>
				</g>
			</g>
			<g>
				<g>
					
						<linearGradient id="SVGID_6_" gradientUnits="userSpaceOnUse" x1="-11.3" y1="-298.6" x2="31.5492" y2="-298.6" gradientTransform="matrix(1 0 0 -1 116 -243.5)">
						<stop  offset="0" style="stop-color:#FF8E39;stop-opacity:0"/>
						<stop  offset="0.1239" style="stop-color:#FF913E;stop-opacity:0.1239"/>
						<stop  offset="0.2664" style="stop-color:#FF994C;stop-opacity:0.2664"/>
						<stop  offset="0.4183" style="stop-color:#FFA663;stop-opacity:0.4183"/>
						<stop  offset="0.5766" style="stop-color:#FFB883;stop-opacity:0.5766"/>
						<stop  offset="0.7399" style="stop-color:#FFD0AD;stop-opacity:0.7399"/>
						<stop  offset="0.9051" style="stop-color:#FFEDDF;stop-opacity:0.9051"/>
						<stop  offset="1" style="stop-color:#FFFFFF"/>
					</linearGradient>
					<polygon class="st17" points="126,24 147.5,55 126,86.2 104.7,55 					"/>
				</g>
				<g>
					<polygon class="st5" points="126,24 147.5,55 126,86.2 104.7,55 					"/>
				</g>
			</g>
			<g>
				<polygon class="st10" points="104.7,54.7 126.3,86.3 96,86.3 74.5,54.7 				"/>
			</g>
		</g>
	</g>
</g>
</svg>
