<?xml version="1.0" encoding="utf-8"?>
<!-- Generator: Adobe Illustrator 22.1.0, SVG Export Plug-In . SVG Version: 6.00 Build 0)  -->
<svg version="1.1" id="Layer_1" xmlns="http://www.w3.org/2000/svg" xmlns:xlink="http://www.w3.org/1999/xlink" x="0px" y="0px"
	 viewBox="0 0 200 200" style="enable-background:new 0 0 200 200;" xml:space="preserve">
<style type="text/css">
	.st0{enable-background:new    ;}
	.st1{fill:#B3B3B3;}
	.st2{fill:#E6E6E6;}
	.st3{fill:#808080;}
	.st4{fill:#2A7FE2;}
	.st5{fill:none;stroke:url(#SVGID_1_);stroke-width:2;stroke-linejoin:round;}
	.st6{fill:url(#SVGID_2_);}
	.st7{fill:url(#SVGID_3_);}
	.st8{fill:#669BE8;}
	.st9{fill:none;stroke:url(#SVGID_4_);stroke-width:2;stroke-linejoin:round;}
	.st10{fill:#85D958;}
	.st11{fill:url(#SVGID_5_);}
	.st12{fill:#3366CC;}
	.st13{fill:none;stroke:url(#SVGID_6_);stroke-width:2;stroke-linejoin:round;}
	.st14{fill:url(#SVGID_7_);}
	.st15{fill:none;stroke:url(#SVGID_8_);stroke-width:2;stroke-linejoin:round;}
	.st16{fill:url(#SVGID_9_);}
	.st17{fill:url(#SVGID_10_);}
	.st18{fill:none;stroke:url(#SVGID_11_);stroke-width:2;stroke-linejoin:round;}
	.st19{fill:url(#SVGID_12_);}
	.st20{fill:none;stroke:url(#SVGID_13_);stroke-width:2;stroke-linejoin:round;}
	.st21{fill:url(#SVGID_14_);}
	.st22{fill:none;stroke:url(#SVGID_15_);stroke-width:2;stroke-linejoin:round;}
	.st23{fill:url(#SVGID_16_);}
	.st24{fill:url(#SVGID_17_);}
	.st25{fill:none;stroke:url(#SVGID_18_);stroke-width:2;stroke-linejoin:round;}
	.st26{fill:url(#SVGID_19_);}
	.st27{fill:none;stroke:url(#SVGID_20_);stroke-width:2;stroke-linejoin:round;}
	.st28{fill:url(#SVGID_21_);}
</style>
<g>
	<g class="st0">
		<g>
			<polygon class="st1" points="113.9,5.4 91.4,37.3 59.5,37.3 82.1,5.4 			"/>
		</g>
		<g>
			<polygon class="st2" points="113.9,5.4 136.5,37.3 113.9,69.2 91.4,37.3 			"/>
		</g>
		<g>
			<polygon class="st3" points="91.4,37.3 113.9,69.2 82.1,69.2 59.5,37.3 			"/>
		</g>
	</g>
</g>
<g>
	<g class="st0">
		<g>
			<polygon class="st1" points="168.4,37.3 145.9,69.2 114,69.2 136.5,37.3 			"/>
		</g>
		<g>
			<polygon class="st2" points="168.4,37.3 191,69.2 168.4,101.1 145.9,69.2 			"/>
		</g>
		<g>
			<polygon class="st3" points="145.9,69.2 168.4,101.1 136.5,101.1 114,69.2 			"/>
		</g>
	</g>
</g>
<g>
	<g class="st0">
		<g>
			<polygon class="st1" points="59.5,37.3 36.9,69.2 5,69.2 27.6,37.3 			"/>
		</g>
		<g>
			<polygon class="st2" points="59.5,37.3 82,69.2 59.5,101.1 36.9,69.2 			"/>
		</g>
		<g>
			<polygon class="st3" points="36.9,69.2 59.5,101.1 27.6,101.1 5,69.2 			"/>
		</g>
	</g>
</g>
<g>
	<g class="st0">
		<g>
			<polygon class="st1" points="59.5,101.1 36.9,133 5,133 27.6,101.1 			"/>
		</g>
		<g>
			<polygon class="st2" points="59.5,101.1 82,133 59.5,164.9 36.9,133 			"/>
		</g>
		<g>
			<polygon class="st3" points="36.9,133 59.5,164.9 27.6,164.9 5,133 			"/>
		</g>
	</g>
</g>
<g>
	<g>
		<g>
			<polygon class="st4" points="113.8,69.2 91.3,101.1 59.5,101.1 81.9,69.2 			"/>
		</g>
		<g>
			
				<linearGradient id="SVGID_1_" gradientUnits="userSpaceOnUse" x1="312.7" y1="108.6" x2="312.7" y2="76.7" gradientTransform="matrix(1 0 0 1 -226.05 -7.5)">
				<stop  offset="0" style="stop-color:#D2F1C1"/>
				<stop  offset="1" style="stop-color:#85D958"/>
			</linearGradient>
			<polygon class="st5" points="113.8,69.2 91.3,101.1 59.5,101.1 81.9,69.2 			"/>
		</g>
		<g>
			
				<linearGradient id="SVGID_2_" gradientUnits="userSpaceOnUse" x1="285.5" y1="92.65" x2="339.9" y2="92.65" gradientTransform="matrix(1 0 0 1 -226.05 -7.5)">
				<stop  offset="0" style="stop-color:#67CF2E"/>
				<stop  offset="1" style="stop-color:#85D958"/>
			</linearGradient>
			<polygon class="st6" points="113.8,69.2 91.3,101.1 59.5,101.1 81.9,69.2 			"/>
		</g>
		<g>
			
				<linearGradient id="SVGID_3_" gradientUnits="userSpaceOnUse" x1="298.9934" y1="116.3904" x2="326.4066" y2="68.9096" gradientTransform="matrix(1 0 0 1 -226.05 -7.5)">
				<stop  offset="0" style="stop-color:#B3E797;stop-opacity:0"/>
				<stop  offset="0.1" style="stop-color:#C6EDB2;stop-opacity:7.844370e-02"/>
				<stop  offset="0.2819" style="stop-color:#E5F7DB;stop-opacity:0.2211"/>
				<stop  offset="0.4248" style="stop-color:#F8FDF5;stop-opacity:0.3331"/>
				<stop  offset="0.51" style="stop-color:#FFFFFF;stop-opacity:0.4"/>
				<stop  offset="0.5152" style="stop-color:#FFFFFF;stop-opacity:0"/>
			</linearGradient>
			<polygon class="st7" points="113.8,69.2 91.3,101.1 59.5,101.1 81.9,69.2 			"/>
		</g>
	</g>
	<g>
		<g>
			<polygon class="st8" points="113.8,69.2 136.4,101.1 113.8,133 91.3,101.1 			"/>
		</g>
		<g>
			
				<linearGradient id="SVGID_4_" gradientUnits="userSpaceOnUse" x1="317.4" y1="108.6" x2="362.5" y2="108.6" gradientTransform="matrix(1 0 0 1 -226.05 -7.5)">
				<stop  offset="0" style="stop-color:#DFF5D4"/>
				<stop  offset="1" style="stop-color:#85D958"/>
			</linearGradient>
			<polygon class="st9" points="113.8,69.2 136.4,101.1 113.8,133 91.3,101.1 			"/>
		</g>
		<g>
			<polygon class="st10" points="113.8,69.2 136.4,101.1 113.8,133 91.3,101.1 			"/>
		</g>
		<g>
			
				<linearGradient id="SVGID_5_" gradientUnits="userSpaceOnUse" x1="326.1244" y1="132.5466" x2="353.7506" y2="84.6966" gradientTransform="matrix(1 0 0 1 -226.05 -7.5)">
				<stop  offset="0" style="stop-color:#85D958;stop-opacity:0"/>
				<stop  offset="0.1362" style="stop-color:#88DA5D;stop-opacity:0.1362"/>
				<stop  offset="0.293" style="stop-color:#93DD6B;stop-opacity:0.293"/>
				<stop  offset="0.46" style="stop-color:#A4E382;stop-opacity:0.46"/>
				<stop  offset="0.6341" style="stop-color:#BBEAA2;stop-opacity:0.6341"/>
				<stop  offset="0.8137" style="stop-color:#D9F3CC;stop-opacity:0.8137"/>
				<stop  offset="0.9955" style="stop-color:#FEFFFE;stop-opacity:0.9955"/>
				<stop  offset="1" style="stop-color:#FFFFFF"/>
			</linearGradient>
			<polygon class="st11" points="113.8,69.2 136.4,101.1 113.8,133 91.3,101.1 			"/>
		</g>
	</g>
	<g>
		<g>
			<polygon class="st12" points="91.3,101.1 113.8,133 81.9,133 59.5,101.1 			"/>
		</g>
		<g>
			
				<linearGradient id="SVGID_6_" gradientUnits="userSpaceOnUse" x1="312.7" y1="140.5" x2="312.7" y2="108.6" gradientTransform="matrix(1 0 0 1 -226.05 -7.5)">
				<stop  offset="0" style="stop-color:#85D958"/>
				<stop  offset="1" style="stop-color:#E0F5D5"/>
			</linearGradient>
			<polygon class="st13" points="91.3,101.1 113.8,133 81.9,133 59.5,101.1 			"/>
		</g>
		<g>
			
				<linearGradient id="SVGID_7_" gradientUnits="userSpaceOnUse" x1="285.5" y1="124.55" x2="339.9" y2="124.55" gradientTransform="matrix(1 0 0 1 -226.05 -7.5)">
				<stop  offset="0" style="stop-color:#67CF2E"/>
				<stop  offset="1" style="stop-color:#1A9A07"/>
			</linearGradient>
			<polygon class="st14" points="91.3,101.1 113.8,133 81.9,133 59.5,101.1 			"/>
		</g>
	</g>
</g>
<g>
	<g>
		<g>
			<polygon class="st4" points="113.9,133 91.4,164.9 59.5,164.9 82,133 			"/>
		</g>
		<g>
			
				<linearGradient id="SVGID_8_" gradientUnits="userSpaceOnUse" x1="312.7" y1="108.6" x2="312.7" y2="76.7" gradientTransform="matrix(1 0 0 1 -226 56.3)">
				<stop  offset="0" style="stop-color:#D2F1C1"/>
				<stop  offset="1" style="stop-color:#85D958"/>
			</linearGradient>
			<polygon class="st15" points="113.9,133 91.4,164.9 59.5,164.9 82,133 			"/>
		</g>
		<g>
			
				<linearGradient id="SVGID_9_" gradientUnits="userSpaceOnUse" x1="285.5" y1="92.65" x2="339.9" y2="92.65" gradientTransform="matrix(1 0 0 1 -226 56.3)">
				<stop  offset="0" style="stop-color:#67CF2E"/>
				<stop  offset="1" style="stop-color:#85D958"/>
			</linearGradient>
			<polygon class="st16" points="113.9,133 91.4,164.9 59.5,164.9 82,133 			"/>
		</g>
		<g>
			
				<linearGradient id="SVGID_10_" gradientUnits="userSpaceOnUse" x1="298.9934" y1="116.3904" x2="326.4066" y2="68.9096" gradientTransform="matrix(1 0 0 1 -226 56.3)">
				<stop  offset="0" style="stop-color:#B3E797;stop-opacity:0"/>
				<stop  offset="0.1" style="stop-color:#C6EDB2;stop-opacity:7.844370e-02"/>
				<stop  offset="0.2819" style="stop-color:#E5F7DB;stop-opacity:0.2211"/>
				<stop  offset="0.4248" style="stop-color:#F8FDF5;stop-opacity:0.3331"/>
				<stop  offset="0.51" style="stop-color:#FFFFFF;stop-opacity:0.4"/>
				<stop  offset="0.5152" style="stop-color:#FFFFFF;stop-opacity:0"/>
			</linearGradient>
			<polygon class="st17" points="113.9,133 91.4,164.9 59.5,164.9 82,133 			"/>
		</g>
	</g>
	<g>
		<g>
			<polygon class="st8" points="113.9,133 136.5,164.9 113.9,196.8 91.4,164.9 			"/>
		</g>
		<g>
			
				<linearGradient id="SVGID_11_" gradientUnits="userSpaceOnUse" x1="317.4" y1="108.6" x2="362.5" y2="108.6" gradientTransform="matrix(1 0 0 1 -226 56.3)">
				<stop  offset="0" style="stop-color:#DFF5D4"/>
				<stop  offset="1" style="stop-color:#85D958"/>
			</linearGradient>
			<polygon class="st18" points="113.9,133 136.5,164.9 113.9,196.8 91.4,164.9 			"/>
		</g>
		<g>
			<polygon class="st10" points="113.9,133 136.5,164.9 113.9,196.8 91.4,164.9 			"/>
		</g>
		<g>
			
				<linearGradient id="SVGID_12_" gradientUnits="userSpaceOnUse" x1="326.1244" y1="132.5466" x2="353.7506" y2="84.6966" gradientTransform="matrix(1 0 0 1 -226 56.3)">
				<stop  offset="0" style="stop-color:#85D958;stop-opacity:0"/>
				<stop  offset="0.1362" style="stop-color:#88DA5D;stop-opacity:0.1362"/>
				<stop  offset="0.293" style="stop-color:#93DD6B;stop-opacity:0.293"/>
				<stop  offset="0.46" style="stop-color:#A4E382;stop-opacity:0.46"/>
				<stop  offset="0.6341" style="stop-color:#BBEAA2;stop-opacity:0.6341"/>
				<stop  offset="0.8137" style="stop-color:#D9F3CC;stop-opacity:0.8137"/>
				<stop  offset="0.9955" style="stop-color:#FEFFFE;stop-opacity:0.9955"/>
				<stop  offset="1" style="stop-color:#FFFFFF"/>
			</linearGradient>
			<polygon class="st19" points="113.9,133 136.5,164.9 113.9,196.8 91.4,164.9 			"/>
		</g>
	</g>
	<g>
		<g>
			<polygon class="st12" points="91.4,164.9 113.9,196.8 82,196.8 59.5,164.9 			"/>
		</g>
		<g>
			
				<linearGradient id="SVGID_13_" gradientUnits="userSpaceOnUse" x1="312.7" y1="140.5" x2="312.7" y2="108.6" gradientTransform="matrix(1 0 0 1 -226 56.3)">
				<stop  offset="0" style="stop-color:#85D958"/>
				<stop  offset="1" style="stop-color:#E0F5D5"/>
			</linearGradient>
			<polygon class="st20" points="91.4,164.9 113.9,196.8 82,196.8 59.5,164.9 			"/>
		</g>
		<g>
			
				<linearGradient id="SVGID_14_" gradientUnits="userSpaceOnUse" x1="285.5" y1="124.55" x2="339.9" y2="124.55" gradientTransform="matrix(1 0 0 1 -226 56.3)">
				<stop  offset="0" style="stop-color:#67CF2E"/>
				<stop  offset="1" style="stop-color:#1A9A07"/>
			</linearGradient>
			<polygon class="st21" points="91.4,164.9 113.9,196.8 82,196.8 59.5,164.9 			"/>
		</g>
	</g>
</g>
<g>
	<g>
		<g>
			<polygon class="st4" points="168.4,101.1 145.9,133 114,133 136.5,101.1 			"/>
		</g>
		<g>
			
				<linearGradient id="SVGID_15_" gradientUnits="userSpaceOnUse" x1="312.7" y1="108.6" x2="312.7" y2="76.7" gradientTransform="matrix(1 0 0 1 -171.5 24.4)">
				<stop  offset="0" style="stop-color:#D2F1C1"/>
				<stop  offset="1" style="stop-color:#85D958"/>
			</linearGradient>
			<polygon class="st22" points="168.4,101.1 145.9,133 114,133 136.5,101.1 			"/>
		</g>
		<g>
			
				<linearGradient id="SVGID_16_" gradientUnits="userSpaceOnUse" x1="285.5" y1="92.65" x2="339.9" y2="92.65" gradientTransform="matrix(1 0 0 1 -171.5 24.4)">
				<stop  offset="0" style="stop-color:#67CF2E"/>
				<stop  offset="1" style="stop-color:#85D958"/>
			</linearGradient>
			<polygon class="st23" points="168.4,101.1 145.9,133 114,133 136.5,101.1 			"/>
		</g>
		<g>
			
				<linearGradient id="SVGID_17_" gradientUnits="userSpaceOnUse" x1="298.9934" y1="116.3904" x2="326.4066" y2="68.9096" gradientTransform="matrix(1 0 0 1 -171.5 24.4)">
				<stop  offset="0" style="stop-color:#B3E797;stop-opacity:0"/>
				<stop  offset="0.1" style="stop-color:#C6EDB2;stop-opacity:7.844370e-02"/>
				<stop  offset="0.2819" style="stop-color:#E5F7DB;stop-opacity:0.2211"/>
				<stop  offset="0.4248" style="stop-color:#F8FDF5;stop-opacity:0.3331"/>
				<stop  offset="0.51" style="stop-color:#FFFFFF;stop-opacity:0.4"/>
				<stop  offset="0.5152" style="stop-color:#FFFFFF;stop-opacity:0"/>
			</linearGradient>
			<polygon class="st24" points="168.4,101.1 145.9,133 114,133 136.5,101.1 			"/>
		</g>
	</g>
	<g>
		<g>
			<polygon class="st8" points="168.4,101.1 191,133 168.4,164.9 145.9,133 			"/>
		</g>
		<g>
			
				<linearGradient id="SVGID_18_" gradientUnits="userSpaceOnUse" x1="317.4" y1="108.6" x2="362.5" y2="108.6" gradientTransform="matrix(1 0 0 1 -171.5 24.4)">
				<stop  offset="0" style="stop-color:#DFF5D4"/>
				<stop  offset="1" style="stop-color:#85D958"/>
			</linearGradient>
			<polygon class="st25" points="168.4,101.1 191,133 168.4,164.9 145.9,133 			"/>
		</g>
		<g>
			<polygon class="st10" points="168.4,101.1 191,133 168.4,164.9 145.9,133 			"/>
		</g>
		<g>
			
				<linearGradient id="SVGID_19_" gradientUnits="userSpaceOnUse" x1="326.1244" y1="132.5466" x2="353.7506" y2="84.6966" gradientTransform="matrix(1 0 0 1 -171.5 24.4)">
				<stop  offset="0" style="stop-color:#85D958;stop-opacity:0"/>
				<stop  offset="0.1362" style="stop-color:#88DA5D;stop-opacity:0.1362"/>
				<stop  offset="0.293" style="stop-color:#93DD6B;stop-opacity:0.293"/>
				<stop  offset="0.46" style="stop-color:#A4E382;stop-opacity:0.46"/>
				<stop  offset="0.6341" style="stop-color:#BBEAA2;stop-opacity:0.6341"/>
				<stop  offset="0.8137" style="stop-color:#D9F3CC;stop-opacity:0.8137"/>
				<stop  offset="0.9955" style="stop-color:#FEFFFE;stop-opacity:0.9955"/>
				<stop  offset="1" style="stop-color:#FFFFFF"/>
			</linearGradient>
			<polygon class="st26" points="168.4,101.1 191,133 168.4,164.9 145.9,133 			"/>
		</g>
	</g>
	<g>
		<g>
			<polygon class="st12" points="145.9,133 168.4,164.9 136.5,164.9 114,133 			"/>
		</g>
		<g>
			
				<linearGradient id="SVGID_20_" gradientUnits="userSpaceOnUse" x1="312.7" y1="140.5" x2="312.7" y2="108.6" gradientTransform="matrix(1 0 0 1 -171.5 24.4)">
				<stop  offset="0" style="stop-color:#85D958"/>
				<stop  offset="1" style="stop-color:#E0F5D5"/>
			</linearGradient>
			<polygon class="st27" points="145.9,133 168.4,164.9 136.5,164.9 114,133 			"/>
		</g>
		<g>
			
				<linearGradient id="SVGID_21_" gradientUnits="userSpaceOnUse" x1="285.5" y1="124.55" x2="339.9" y2="124.55" gradientTransform="matrix(1 0 0 1 -171.5 24.4)">
				<stop  offset="0" style="stop-color:#67CF2E"/>
				<stop  offset="1" style="stop-color:#1A9A07"/>
			</linearGradient>
			<polygon class="st28" points="145.9,133 168.4,164.9 136.5,164.9 114,133 			"/>
		</g>
	</g>
</g>
</svg>
