<?xml version="1.0" encoding="utf-8"?>
<!-- Generator: Adobe Illustrator 22.1.0, SVG Export Plug-In . SVG Version: 6.00 Build 0)  -->
<svg version="1.1" id="Layer_1" xmlns="http://www.w3.org/2000/svg" xmlns:xlink="http://www.w3.org/1999/xlink" x="0px" y="0px"
	 viewBox="0 0 1288.6 237" style="enable-background:new 0 0 1288.6 237;" xml:space="preserve">
<style type="text/css">
	.st0{fill:#494949;}
	.st1{fill:#FFFFFF;}
	.st2{fill:#85D958;}
	.st3{fill:#67CF2E;}
	.st4{fill:#40B307;}
	.st5{fill:#E5E5E4;}
	.st6{fill:#B3B2B3;}
	.st7{fill:#808080;}
</style>
<g>
	<g>
		<g>
			<g>
				<g>
					<path d="M350.4,152.2V88.5c0-1.2-0.6-1.8-1.8-1.8h-1.2c-1,0-1.7,0.5-2.1,1.5l-22.7,61.3c-0.4,1.1-0.9,1.8-1.6,2.1
						c-0.7,0.4-1.7,0.5-2.8,0.5h-27c-1.3,0-2.2-0.2-2.9-0.5c-0.7-0.3-1.2-1.1-1.6-2.1l-22.5-61.3c-0.4-1-1.1-1.5-2.2-1.5h-1.1
						c-1.2,0-1.8,0.6-1.8,1.8v63.7h-22V71c0-2.4,1.1-3.5,3.2-3.5h37.4c2.4,0,4,1.1,4.8,3.1l20.3,60.5c0.1,0.5,0.5,0.7,1.1,0.7h2.1
						c0.5,0,0.8-0.2,0.9-0.7l20.4-60.5c0.4-1,0.9-1.8,1.7-2.4c0.8-0.5,1.8-0.8,2.9-0.8h37c2.2,0,3.2,1.1,3.2,3.5v81.2L350.4,152.2
						L350.4,152.2z"/>
				</g>
				<g>
					<path d="M436.5,144.7h0.8V88.3H458v65.2c0,3.7-0.5,7.1-1.4,10.2c-0.9,3-2.3,5.7-4.2,7.8c-2,2.2-4.6,3.9-7.8,5
						c-3.3,1.2-7.3,1.8-12,1.8h-47.4v-17.8h44.2c2.9,0,5-0.7,6.2-2.1c1.2-1.4,1.8-3.5,1.8-6.5v-5.1h-29.5c-9.3,0-15.9-1.9-19.8-5.8
						c-3.9-3.9-5.8-9.7-5.8-17.5V88.3H403v32.6c0,3.5,0.7,5.9,2,7.2s3.6,1.9,6.8,1.9h19.3L436.5,144.7z"/>
				</g>
				<g>
					<path d="M558.1,67.5h27.2v0.9l-41.5,81.1c-0.5,1.1-1.1,1.8-1.8,2.1c-0.6,0.4-1.5,0.5-2.7,0.5h-28.8c-1.3,0-2.2-0.2-2.8-0.6
						c-0.6-0.4-1.2-1.1-1.8-2.1l-41-81v-0.9h27.7l30.5,63.7c0.3,0.6,0.8,0.9,1.6,0.9h1.3c0.8,0,1.3-0.3,1.6-0.9L558.1,67.5z"/>
				</g>
				<g>
					<path d="M583,104.1V88.3h58c4.1,0,7,1.1,9,3.5s2.9,5.7,2.9,10.1v47.5c0,1.8-0.9,2.8-2.6,2.8h-54.5c-2.3,0-4.3-0.3-6.1-0.8
						c-1.8-0.6-3.3-1.6-4.5-3s-2.2-3.3-2.8-5.6c-0.7-2.3-1-5.1-1-8.5v-4.8c0-6,1.3-10.4,3.8-12.9c2.5-2.6,6.1-3.9,10.7-3.9h31.7
						l3.9,9.4h0.8v-12.9c0-1.8-0.4-3-1.1-3.8c-0.7-0.8-1.8-1.1-3.3-1.1L583,104.1L583,104.1z M631,136.4c0.8,0,1.3-0.5,1.3-1.4v-9.8
						h-27.1c-1.4,0-2.3,0.4-2.9,1.1s-0.8,1.8-0.8,3.1v2.8c0,1.3,0.3,2.4,0.8,3c0.6,0.8,1.6,1.1,2.9,1.1L631,136.4L631,136.4z"/>
				</g>
				<g>
					<path d="M715.4,115.1h-0.9v-8.8c0-0.8-0.4-1.3-1.1-1.3h-25.1c-1.8,0-3.1,0.5-3.9,1.3c-0.8,0.8-1.1,2.4-1.1,4.4v41.4h-20.6
						v-45.9c0-5.4,1.4-9.8,4.2-13c2.7-3.3,7.1-4.9,13.3-4.9h50.6c2,0,2.9,1.1,2.9,3.1V108L715.4,115.1z"/>
				</g>
				<g>
					<path d="M741.3,78.3V61.4h20.6v16.9H741.3z M741.3,152.2V88.3h20.6v63.9L741.3,152.2L741.3,152.2z"/>
				</g>
				<g>
					<path d="M772.3,104.1V88.3h58c4.1,0,7,1.1,9,3.5s2.9,5.7,2.9,10.1v47.5c0,1.8-0.9,2.8-2.6,2.8H785c-2.3,0-4.3-0.3-6.1-0.8
						c-1.8-0.6-3.3-1.6-4.5-3s-2.2-3.3-2.8-5.6c-0.7-2.3-1-5.1-1-8.5v-4.8c0-6,1.3-10.4,3.8-12.9c2.5-2.6,6.1-3.9,10.7-3.9h31.7
						l3.9,9.4h0.8v-12.9c0-1.8-0.4-3-1.1-3.8c-0.7-0.8-1.8-1.1-3.3-1.1L772.3,104.1L772.3,104.1z M820.3,136.4
						c0.8,0,1.3-0.5,1.3-1.4v-9.8h-27.1c-1.4,0-2.3,0.4-2.9,1.1c-0.6,0.7-0.8,1.8-0.8,3.1v2.8c0,1.3,0.3,2.4,0.8,3
						c0.6,0.8,1.6,1.1,2.9,1.1L820.3,136.4L820.3,136.4z"/>
				</g>
				<g>
					<path d="M852.2,88.3h50.9c4.6,0,8.6,0.6,11.8,1.8s5.9,2.9,7.9,5.1s3.5,4.9,4.4,8s1.4,6.6,1.4,10.4v38.5H908V115
						c0-3.7-0.7-6.3-2.1-7.8c-1.4-1.4-3.6-2.2-6.7-2.2h-22.3l-3.4-9.3h-0.8v56.4h-20.6v-64h0.1V88.3z"/>
				</g>
				<g>
					<path d="M983.1,104.4h-18.2v47.8h-20.6v-47.8h-8.2l-5.7-15.2v-0.9h13.9V67.5h20.6v20.8h18.2V104.4z"/>
				</g>
				<g>
					<path d="M979.2,152.2v-19.3h20.6v19.3H979.2z"/>
				</g>
				<g>
					<path d="M1010.3,78.3V61.4h20.6v16.9H1010.3z M1010.3,152.2V88.3h20.6v63.9L1010.3,152.2L1010.3,152.2z"/>
				</g>
				<g>
					<path d="M1041.4,88.3h50.9c4.6,0,8.6,0.6,11.8,1.8c3.2,1.2,5.9,2.9,7.9,5.1s3.5,4.9,4.4,8s1.4,6.6,1.4,10.4v38.5h-20.6V115
						c0-3.7-0.7-6.3-2.1-7.8c-1.4-1.4-3.6-2.2-6.7-2.2h-22.3l-3.4-9.3h-0.8v56.4h-20.6v-64h0.1L1041.4,88.3L1041.4,88.3z"/>
				</g>
				<g>
					<path d="M1172.4,104.4h-18.2v47.8h-20.6v-47.8h-8.4l-5.5-15.2v-0.9h13.9v-7.7c0-3.8,0.4-6.9,1.1-9.4c0.8-2.4,2.1-4.4,3.8-5.9
						c1.8-1.4,4.1-2.5,7-3c2.9-0.6,6.5-0.8,10.8-0.8h9.2l5.6,14.3v1.1h-12c-2,0-3.3,0.5-3.9,1.4c-0.7,0.9-1.1,2.4-1.1,4.5v5.7h18.2
						L1172.4,104.4L1172.4,104.4z"/>
				</g>
				<g>
					<path d="M1258,126.8c0,3.9-0.5,7.4-1.4,10.4c-0.9,3.1-2.3,5.8-4.5,8c-2.1,2.2-4.7,3.9-8,5.1c-3.3,1.2-7.2,1.8-11.8,1.8h-30
						c-4.6,0-8.6-0.6-11.7-1.8c-3.2-1.2-5.9-2.9-7.9-5.1c-2.1-2.2-3.5-4.9-4.5-8c-0.9-3.1-1.4-6.6-1.4-10.4v-13.2
						c0-3.8,0.5-7.2,1.4-10.4c0.9-3.1,2.3-5.8,4.5-8c2.1-2.2,4.7-3.9,7.9-5.1c3.2-1.2,7.1-1.8,11.7-1.8h30c4.6,0,8.6,0.6,11.8,1.8
						c3.2,1.2,5.9,2.9,8,5.1s3.5,4.9,4.5,8c0.9,3.1,1.4,6.6,1.4,10.4V126.8z M1228.7,133.5c3.3,0,5.5-0.7,6.8-2s2-3.8,2-7.5v-9
						c0-3.9-0.7-6.6-2.1-7.9c-1.4-1.4-3.6-2.1-6.7-2.1h-22.4c-3.3,0-5.5,0.7-6.7,2.1c-1.3,1.4-1.9,4-1.9,7.8v9
						c0,3.7,0.6,6.1,1.9,7.5c1.3,1.3,3.5,2,6.7,2h22.4L1228.7,133.5L1228.7,133.5z"/>
				</g>
			</g>
			<g>
				<g>
					<path d="M350.4,152.2V88.5c0-1.2-0.6-1.8-1.8-1.8h-1.2c-1,0-1.7,0.5-2.1,1.5l-22.7,61.3c-0.4,1.1-0.9,1.8-1.6,2.1
						c-0.7,0.4-1.7,0.5-2.8,0.5h-27c-1.3,0-2.2-0.2-2.9-0.5c-0.7-0.3-1.2-1.1-1.6-2.1l-22.5-61.3c-0.4-1-1.1-1.5-2.2-1.5h-1.1
						c-1.2,0-1.8,0.6-1.8,1.8v63.7h-22V71c0-2.4,1.1-3.5,3.2-3.5h37.4c2.4,0,4,1.1,4.8,3.1l20.3,60.5c0.1,0.5,0.5,0.7,1.1,0.7h2.1
						c0.5,0,0.8-0.2,0.9-0.7l20.4-60.5c0.4-1,0.9-1.8,1.7-2.4c0.8-0.5,1.8-0.8,2.9-0.8h37c2.2,0,3.2,1.1,3.2,3.5v81.2L350.4,152.2
						L350.4,152.2z"/>
				</g>
				<g>
					<path d="M436.5,144.7h0.8V88.3H458v65.2c0,3.7-0.5,7.1-1.4,10.2c-0.9,3-2.3,5.7-4.2,7.8c-2,2.2-4.6,3.9-7.8,5
						c-3.3,1.2-7.3,1.8-12,1.8h-47.4v-17.8h44.2c2.9,0,5-0.7,6.2-2.1c1.2-1.4,1.8-3.5,1.8-6.5v-5.1h-29.5c-9.3,0-15.9-1.9-19.8-5.8
						c-3.9-3.9-5.8-9.7-5.8-17.5V88.3H403v32.6c0,3.5,0.7,5.9,2,7.2s3.6,1.9,6.8,1.9h19.3L436.5,144.7z"/>
				</g>
				<g>
					<path d="M558.1,67.5h27.2v0.9l-41.5,81.1c-0.5,1.1-1.1,1.8-1.8,2.1c-0.6,0.4-1.5,0.5-2.7,0.5h-28.8c-1.3,0-2.2-0.2-2.8-0.6
						c-0.6-0.4-1.2-1.1-1.8-2.1l-41-81v-0.9h27.7l30.5,63.7c0.3,0.6,0.8,0.9,1.6,0.9h1.3c0.8,0,1.3-0.3,1.6-0.9L558.1,67.5z"/>
				</g>
				<g>
					<path d="M583,104.1V88.3h58c4.1,0,7,1.1,9,3.5s2.9,5.7,2.9,10.1v47.5c0,1.8-0.9,2.8-2.6,2.8h-54.5c-2.3,0-4.3-0.3-6.1-0.8
						c-1.8-0.6-3.3-1.6-4.5-3s-2.2-3.3-2.8-5.6c-0.7-2.3-1-5.1-1-8.5v-4.8c0-6,1.3-10.4,3.8-12.9c2.5-2.6,6.1-3.9,10.7-3.9h31.7
						l3.9,9.4h0.8v-12.9c0-1.8-0.4-3-1.1-3.8c-0.7-0.8-1.8-1.1-3.3-1.1L583,104.1L583,104.1z M631,136.4c0.8,0,1.3-0.5,1.3-1.4v-9.8
						h-27.1c-1.4,0-2.3,0.4-2.9,1.1s-0.8,1.8-0.8,3.1v2.8c0,1.3,0.3,2.4,0.8,3c0.6,0.8,1.6,1.1,2.9,1.1L631,136.4L631,136.4z"/>
				</g>
				<g>
					<path d="M715.4,115.1h-0.9v-8.8c0-0.8-0.4-1.3-1.1-1.3h-25.1c-1.8,0-3.1,0.5-3.9,1.3c-0.8,0.8-1.1,2.4-1.1,4.4v41.4h-20.6
						v-45.9c0-5.4,1.4-9.8,4.2-13c2.7-3.3,7.1-4.9,13.3-4.9h50.6c2,0,2.9,1.1,2.9,3.1V108L715.4,115.1z"/>
				</g>
				<g>
					<path d="M741.3,78.3V61.4h20.6v16.9H741.3z M741.3,152.2V88.3h20.6v63.9L741.3,152.2L741.3,152.2z"/>
				</g>
				<g>
					<path d="M772.3,104.1V88.3h58c4.1,0,7,1.1,9,3.5s2.9,5.7,2.9,10.1v47.5c0,1.8-0.9,2.8-2.6,2.8H785c-2.3,0-4.3-0.3-6.1-0.8
						c-1.8-0.6-3.3-1.6-4.5-3s-2.2-3.3-2.8-5.6c-0.7-2.3-1-5.1-1-8.5v-4.8c0-6,1.3-10.4,3.8-12.9c2.5-2.6,6.1-3.9,10.7-3.9h31.7
						l3.9,9.4h0.8v-12.9c0-1.8-0.4-3-1.1-3.8c-0.7-0.8-1.8-1.1-3.3-1.1L772.3,104.1L772.3,104.1z M820.3,136.4
						c0.8,0,1.3-0.5,1.3-1.4v-9.8h-27.1c-1.4,0-2.3,0.4-2.9,1.1c-0.6,0.7-0.8,1.8-0.8,3.1v2.8c0,1.3,0.3,2.4,0.8,3
						c0.6,0.8,1.6,1.1,2.9,1.1L820.3,136.4L820.3,136.4z"/>
				</g>
				<g>
					<path d="M852.2,88.3h50.9c4.6,0,8.6,0.6,11.8,1.8s5.9,2.9,7.9,5.1s3.5,4.9,4.4,8s1.4,6.6,1.4,10.4v38.5H908V115
						c0-3.7-0.7-6.3-2.1-7.8c-1.4-1.4-3.6-2.2-6.7-2.2h-22.3l-3.4-9.3h-0.8v56.4h-20.6v-64h0.1V88.3z"/>
				</g>
				<g>
					<path d="M983.1,104.4h-18.2v47.8h-20.6v-47.8h-8.2l-5.7-15.2v-0.9h13.9V67.5h20.6v20.8h18.2V104.4z"/>
				</g>
				<g>
					<path d="M979.2,152.2v-19.3h20.6v19.3H979.2z"/>
				</g>
				<g>
					<path d="M1010.3,78.3V61.4h20.6v16.9H1010.3z M1010.3,152.2V88.3h20.6v63.9L1010.3,152.2L1010.3,152.2z"/>
				</g>
				<g>
					<path d="M1041.4,88.3h50.9c4.6,0,8.6,0.6,11.8,1.8c3.2,1.2,5.9,2.9,7.9,5.1s3.5,4.9,4.4,8s1.4,6.6,1.4,10.4v38.5h-20.6V115
						c0-3.7-0.7-6.3-2.1-7.8c-1.4-1.4-3.6-2.2-6.7-2.2h-22.3l-3.4-9.3h-0.8v56.4h-20.6v-64h0.1L1041.4,88.3L1041.4,88.3z"/>
				</g>
				<g>
					<path d="M1172.4,104.4h-18.2v47.8h-20.6v-47.8h-8.4l-5.5-15.2v-0.9h13.9v-7.7c0-3.8,0.4-6.9,1.1-9.4c0.8-2.4,2.1-4.4,3.8-5.9
						c1.8-1.4,4.1-2.5,7-3c2.9-0.6,6.5-0.8,10.8-0.8h9.2l5.6,14.3v1.1h-12c-2,0-3.3,0.5-3.9,1.4c-0.7,0.9-1.1,2.4-1.1,4.5v5.7h18.2
						L1172.4,104.4L1172.4,104.4z"/>
				</g>
				<g>
					<path d="M1258,126.8c0,3.9-0.5,7.4-1.4,10.4c-0.9,3.1-2.3,5.8-4.5,8c-2.1,2.2-4.7,3.9-8,5.1c-3.3,1.2-7.2,1.8-11.8,1.8h-30
						c-4.6,0-8.6-0.6-11.7-1.8c-3.2-1.2-5.9-2.9-7.9-5.1c-2.1-2.2-3.5-4.9-4.5-8c-0.9-3.1-1.4-6.6-1.4-10.4v-13.2
						c0-3.8,0.5-7.2,1.4-10.4c0.9-3.1,2.3-5.8,4.5-8c2.1-2.2,4.7-3.9,7.9-5.1c3.2-1.2,7.1-1.8,11.7-1.8h30c4.6,0,8.6,0.6,11.8,1.8
						c3.2,1.2,5.9,2.9,8,5.1s3.5,4.9,4.5,8c0.9,3.1,1.4,6.6,1.4,10.4V126.8z M1228.7,133.5c3.3,0,5.5-0.7,6.8-2s2-3.8,2-7.5v-9
						c0-3.9-0.7-6.6-2.1-7.9c-1.4-1.4-3.6-2.1-6.7-2.1h-22.4c-3.3,0-5.5,0.7-6.7,2.1c-1.3,1.4-1.9,4-1.9,7.8v9
						c0,3.7,0.6,6.1,1.9,7.5c1.3,1.3,3.5,2,6.7,2h22.4L1228.7,133.5L1228.7,133.5z"/>
				</g>
			</g>
		</g>
		<g>
			<g>
				<g>
					<path class="st0" d="M344.9,157.7v-52.3l-17,46c-0.9,2.4-2.3,4.1-4.2,5.1c-1.8,1-3.8,1.1-5.3,1.1h-27c-2,0-3.7-0.3-5.1-1
						c-3-1.3-4.1-4.2-4.5-5.1v-0.1L265,105.6v52.1h-33V71c0-5.4,3.5-9,8.7-9h37.4c4.7,0,8.3,2.4,9.9,6.6l0.1,0.3l17.1,51l17.3-51.2
						c0.8-2,1.9-3.6,3.4-4.8l0.4-0.3c1.7-1.1,3.7-1.7,5.9-1.7h37c5.2,0,8.7,3.6,8.7,9v86.7L344.9,157.7z M242.9,146.7h11V88.5
						c0-4.2,3.1-7.3,7.3-7.3h1.1c3.3,0,6.1,1.9,7.3,5v0.1l22.1,60.3H318l22.3-60.4c1.2-3.1,3.9-5,7.2-5h1.2c4.2,0,7.3,3.1,7.3,7.3
						v58.2h11.1V72.9h-34.3l-20.2,59.7c-0.8,2.8-3.2,4.7-6.2,4.7h-2.1c-3.1,0-5.6-1.9-6.4-4.7l-20-59.6H243L242.9,146.7L242.9,146.7
						z M319.1,146.6L319.1,146.6L319.1,146.6z M278.3,73L278.3,73L278.3,73z M332.1,72.9L332.1,72.9L332.1,72.9z M332.9,72.3
						L332.9,72.3L332.9,72.3z"/>
				</g>
				<g>
					<path class="st0" d="M432.6,183.8h-52.9V155h49.7c1.2,0,1.8-0.2,2-0.2c0.1-0.2,0.4-0.9,0.4-2.5h-24c-11,0-18.7-2.4-23.7-7.4
						s-7.4-12-7.4-21.4V82.8h31.7v38.1c0,1.9,0.3,2.9,0.4,3.3c0.4,0.1,1.2,0.3,2.9,0.3h20.1V82.8h31.7v70.7c0,4.1-0.5,8-1.6,11.7
						c-1.1,3.8-3,7.2-5.4,9.9c-2.6,3-6,5.2-10.2,6.6C442.6,183.1,437.9,183.8,432.6,183.8z M390.7,172.8h41.9c4,0,7.4-0.5,10.2-1.5
						c2.4-0.8,4.2-2,5.6-3.5c1.3-1.5,2.4-3.5,3-5.7c0.8-2.7,1.1-5.6,1.1-8.7V93.8h-9.7v58.1c0,4.3-1,7.6-3,10
						c-2.3,2.7-5.8,4.1-10.4,4.1h-38.7V172.8z M387.6,93.8v29.7c0,6.4,1.4,10.8,4.2,13.6c2.8,2.7,8.3,4.2,16,4.2h21.6l-2.2-5.8
						h-15.5c-4.9,0-8.4-1.2-10.8-3.6c-2.4-2.4-3.5-6-3.5-11V93.8H387.6z M408.9,124.4L408.9,124.4L408.9,124.4z"/>
				</g>
				<g>
					<path class="st0" d="M539.2,157.6h-28.8c-2.5,0-4.4-0.5-5.9-1.6c-1.3-0.9-2.4-2.1-3.4-3.9l-0.2-0.3l-41.6-82.2V62h36.6
						l29.2,61.1L554.6,62h36.1v7.7l-42.1,82.2c-1,2.1-2.3,3.6-4,4.5C542.8,157.4,541,157.6,539.2,157.6z M510.5,146.6H539L576.7,73
						h-15.2l-29.3,60.6c-1.2,2.5-3.7,4-6.5,4h-1.3c-2.9,0-5.3-1.5-6.5-4l-29-60.6h-15.7L510.5,146.6z"/>
				</g>
				<g>
					<path class="st0" d="M650.2,157.7h-54.5c-2.7,0-5.2-0.3-7.6-1l-0.3-0.1c-2.8-0.9-5.2-2.6-6.9-4.7c-1.8-2.2-3.2-4.8-3.9-7.7
						c-0.8-2.7-1.2-5.9-1.2-10v-4.8c0-7.6,1.8-13.2,5.4-16.8c1.2-1.2,2.6-2.3,4.1-3.1h-7.9V82.8h63.5c5.8,0,10.3,1.9,13.3,5.5
						c2.8,3.4,4.2,7.9,4.2,13.6v47.5C658.4,154.3,655,157.7,650.2,157.7z M591.3,146.2c1.4,0.4,2.8,0.5,4.4,0.5h51.7v-44.8
						c0-3.1-0.6-5.2-1.7-6.6c-0.3-0.4-1.2-1.5-4.7-1.5h-52.5v4.8l39.3,0.2l0,0c1.2,0,4.9,0,7.5,3c1.6,1.9,2.4,4.3,2.4,7.4v10.5h0.1
						V135c0,3.9-2.9,6.9-6.8,6.9l0,0l-25.8-0.1c-3.9,0-6.1-1.7-7.3-3.2c-1.6-2-1.9-4.6-1.9-6.4v-2.8c0-2.8,0.7-5,2.1-6.6
						c1.7-2,4.2-3.1,7.1-3.1h19.2l-0.6-1.5h-28c-4.1,0-5.8,1.3-6.7,2.2l-0.1,0.1c-0.7,0.6-2.2,2.8-2.2,9v4.8c0,3,0.2,5.2,0.7,6.9
						l0.1,0.2c0.3,1.3,0.9,2.5,1.7,3.4C589.9,145.5,590.7,145.9,591.3,146.2z M606.9,130.8l19.8,0.1v-0.2L606.9,130.8L606.9,130.8z
						 M607,128.9L607,128.9L607,128.9z"/>
				</g>
				<g>
					<path class="st0" d="M688.8,157.6h-31.6v-51.4c0-6.8,1.9-12.4,5.5-16.6c3.8-4.5,9.7-6.8,17.5-6.8h50.6c5,0,8.4,3.5,8.4,8.6
						v20.4l-22.8,8.8H709v-10.1h-20.2c0,0.1,0,0.1,0,0.2V157.6z M668.2,146.6h9.6v-35.9c0-2.4,0.3-5.8,2.6-8.2c1.9-1.9,4.6-3,7.8-3
						h25.1c3.7,0,6.6,2.9,6.6,6.8v1.1l8.3-3.2V93.8h-48.1c-6.6,0-8.5,2.2-9.1,2.9l-0.1,0.1c-1.9,2.1-2.8,5.3-2.8,9.4v40.4H668.2z"/>
				</g>
				<g>
					<path class="st0" d="M767.4,157.7h-31.6V55.9h31.6V157.7z M746.8,146.7h9.6V93.8h-9.6V146.7z M746.8,72.8h9.6v-5.9h-9.6V72.8z"
						/>
				</g>
				<g>
					<path class="st0" d="M839.5,157.7H785c-2.7,0-5.2-0.3-7.6-1l-0.3-0.1c-2.8-0.9-5.2-2.6-6.9-4.7c-1.8-2.2-3.2-4.8-3.9-7.7
						c-0.8-2.7-1.2-5.9-1.2-10v-4.8c0-7.6,1.8-13.2,5.4-16.8c1.2-1.2,2.6-2.3,4.1-3.1h-7.9V82.8h63.5c5.8,0,10.3,1.9,13.3,5.5
						c2.8,3.4,4.2,7.9,4.2,13.6v47.5C847.7,154.3,844.3,157.7,839.5,157.7z M780.6,146.2c1.4,0.4,2.8,0.5,4.4,0.5h51.7v-44.8
						c0-3.1-0.6-5.2-1.7-6.6c-0.3-0.4-1.2-1.5-4.7-1.5h-52.5v4.8l39.3,0.2l0,0c1.2,0,4.9,0,7.5,3c1.6,1.9,2.4,4.3,2.4,7.4v10.5h0.1
						V135c0,3.9-2.9,6.9-6.8,6.9l0,0l-25.8-0.1c-3.9,0-6.1-1.7-7.3-3.2c-1.6-2-1.9-4.6-1.9-6.4v-2.8c0-2.8,0.7-5,2.1-6.6
						c1.7-2,4.2-3.1,7.1-3.1h19.2l-0.6-1.5h-28c-4.1,0-5.8,1.3-6.7,2.2l-0.1,0.1c-0.7,0.6-2.2,2.8-2.2,9v4.8c0,3,0.2,5.2,0.7,6.9
						l0.1,0.2c0.3,1.3,0.9,2.5,1.7,3.4C779.2,145.5,780,145.9,780.6,146.2z M796.3,130.8l19.8,0.1v-0.2L796.3,130.8L796.3,130.8z"/>
				</g>
				<g>
					<path class="st0" d="M934.1,157.6h-31.6V115c0-2.7-0.4-3.7-0.6-4c-0.3-0.2-1.1-0.5-2.7-0.5h-21v47.1h-31.6v-75h11v0.2h45.5
						c5.3,0,9.9,0.7,13.7,2.1c4,1.5,7.4,3.7,10,6.5s4.5,6.3,5.7,10.2c1,3.7,1.6,7.7,1.6,11.9L934.1,157.6L934.1,157.6z M913.5,146.6
						h9.6v-33c0-3.2-0.4-6.2-1.2-8.9c-0.6-2.3-1.7-4.2-3.1-5.7c-1.5-1.6-3.4-2.8-5.8-3.7c-2.6-1-6-1.5-9.9-1.5h-24.5l0,0l2.1,5.7
						h18.4c5.7,0,9,2.1,10.7,3.9l0.1,0.1c2.3,2.6,3.5,6.3,3.5,11.5v31.6H913.5z M857.6,146.6h9.6V93.8h-9.6V146.6z"/>
				</g>
				<g>
					<path class="st0" d="M970.4,157.7h-31.6v-47.8h-6.5l-7.4-19.7v-7.4h13.9V62h31.6v20.8h18.2v27.1h-18.2V157.7z M949.8,146.7h9.6
						V98.9h18.2v-5.1h-18.2V73h-9.6v20.8H938l1.9,5.1h9.9L949.8,146.7L949.8,146.7z"/>
				</g>
				<g>
					<path class="st0" d="M1005.3,157.7h-31.6v-30.3h31.6V157.7z M984.7,146.7h9.6v-8.3h-9.6V146.7z"/>
				</g>
				<g>
					<path class="st0" d="M1036.4,157.7h-31.6V55.9h31.6V157.7z M1015.8,146.7h9.6V93.8h-9.6L1015.8,146.7L1015.8,146.7z
						 M1015.8,72.8h9.6v-5.9h-9.6L1015.8,72.8L1015.8,72.8z"/>
				</g>
				<g>
					<path class="st0" d="M1123.4,157.6h-31.6V115c0-2.7-0.4-3.7-0.6-4c-0.3-0.2-1.1-0.5-2.7-0.5h-21v47.1h-31.6v-75h11v0.2h45.5
						c5.3,0,9.9,0.7,13.7,2.1c4,1.5,7.4,3.7,10,6.5s4.5,6.3,5.7,10.2c1,3.7,1.6,7.7,1.6,11.9V157.6z M1102.7,146.6h9.6v-33
						c0-3.2-0.4-6.2-1.2-8.9c-0.6-2.3-1.7-4.2-3.1-5.7c-1.5-1.6-3.4-2.8-5.8-3.7c-2.6-1-6-1.5-9.9-1.5h-24.5l0,0l2.1,5.7h18.4
						c5.7,0,9,2.1,10.7,3.9l0.1,0.1c2.3,2.6,3.5,6.3,3.5,11.5v31.6H1102.7z M1046.8,146.6h9.6V93.8h-9.6V146.6z"/>
				</g>
				<g>
					<path class="st0" d="M1159.7,157.7h-31.6v-47.8h-6.8l-7.1-19.7v-7.4h13.9v-2.2c0-4.1,0.4-7.8,1.3-10.9l0.1-0.3
						c1.1-3.4,3-6.2,5.5-8.4l0.1-0.1c2.6-2.1,5.8-3.5,9.4-4.1c3.1-0.6,6.7-0.9,11.9-0.9h12.9l7.3,18.8v7.6h-17c0,0.1,0,0.3,0,0.4V83
						h18.1l0.2,26.9h-18.2L1159.7,157.7L1159.7,157.7z M1139.1,146.7h9.6V98.9h18.1V94h-18.2V82.8c0-3.2,0.7-5.8,2.1-7.7
						c1-1.5,3.4-3.7,8.4-3.7h4.4l-1.7-4.4h-5.4c-4.4,0-7.5,0.2-9.7,0.7h-0.2c-1.8,0.3-3.3,0.9-4.5,1.8c-0.9,0.8-1.6,1.9-2,3.2
						c-0.6,2.1-0.8,4.7-0.8,7.8v13.2h-11.9l1.8,5.1h10L1139.1,146.7L1139.1,146.7z"/>
				</g>
				<g>
					<path class="st0" d="M1232.3,157.6h-30c-5.3,0-10-0.7-13.7-2.2c-4-1.5-7.3-3.7-10-6.5c-2.5-2.7-4.5-6.1-5.7-10.1v-0.2
						c-1-3.7-1.6-7.7-1.6-11.9v-13.2c0-4.1,0.5-8,1.6-11.9c1.2-4.1,3.1-7.6,5.8-10.3c2.6-2.8,6-5,10-6.5c3.8-1.4,8.4-2.1,13.6-2.1
						h30c5.3,0,9.9,0.7,13.7,2.1c3.9,1.5,7.3,3.6,10,6.4l0.1,0.1c2.5,2.7,4.5,6.1,5.7,10.1v0.2c1,3.7,1.6,7.7,1.6,11.9v13.2
						c0,4.3-0.5,8.3-1.6,11.9c-1.1,4-3.1,7.5-5.8,10.2c-2.7,2.8-6.1,5-10.1,6.5C1242,156.9,1237.5,157.6,1232.3,157.6z
						 M1183.4,135.6c0.8,2.4,1.8,4.3,3.2,5.8c1.5,1.6,3.4,2.8,5.8,3.7c2.5,1,5.9,1.5,9.8,1.5h30c3.9,0,7.3-0.5,10-1.5
						c2.5-0.9,4.4-2.1,5.9-3.7l0.1-0.1c1.5-1.5,2.5-3.3,3.1-5.7c0.8-2.6,1.2-5.6,1.2-8.9v-13.2c0-3.2-0.4-6.1-1.1-8.8
						c-0.8-2.4-1.8-4.3-3.2-5.8c-1.6-1.6-3.5-2.8-6-3.7c-2.6-1-6-1.5-9.9-1.5h-30c-3.9,0-7.2,0.5-9.8,1.5c-2.4,0.9-4.3,2.1-5.8,3.7
						l-0.1,0.1c-1.5,1.5-2.5,3.3-3.1,5.7c-0.8,2.8-1.2,5.7-1.2,8.9v13.2C1182.3,130,1182.7,132.9,1183.4,135.6z M1228.7,139h-5.5
						v-0.1h-16.9c-4.7,0-8.3-1.2-10.7-3.7l-0.1-0.1c-2.9-3.2-3.3-7.9-3.3-11.2v-9c0-5.4,1-9,3.3-11.5c2.4-2.6,5.9-3.9,10.8-3.9h22.4
						c4.6,0,8.2,1.2,10.6,3.7c2.5,2.4,3.7,6.3,3.7,11.8v9c0,5.2-1.2,8.9-3.5,11.3l-0.1,0.1C1236.8,137.9,1233.3,139,1228.7,139z
						 M1203.6,127.6c0.3,0.1,1.1,0.3,2.7,0.3h24.1c0.6-0.1,1-0.2,1.2-0.3c0.1-0.4,0.4-1.5,0.4-3.6v-9c0-2.7-0.4-3.8-0.5-4.1
						c-0.1-0.1-0.9-0.4-2.8-0.4h-22.4c-1.6,0-2.4,0.2-2.6,0.3c-0.1,0.4-0.5,1.5-0.5,4.1v9C1203.2,126.1,1203.5,127.2,1203.6,127.6z
						 M1231.5,127.8L1231.5,127.8L1231.5,127.8z M1203.7,110.7L1203.7,110.7L1203.7,110.7z"/>
				</g>
			</g>
			<g>
				<g>
					<path class="st1" d="M350.4,152.2V88.5c0-1.2-0.6-1.8-1.8-1.8h-1.2c-1,0-1.7,0.5-2.1,1.5l-22.7,61.3c-0.4,1.1-0.9,1.8-1.6,2.1
						c-0.7,0.4-1.7,0.5-2.8,0.5h-27c-1.3,0-2.2-0.2-2.9-0.5c-0.7-0.3-1.2-1.1-1.6-2.1l-22.5-61.3c-0.4-1-1.1-1.5-2.2-1.5h-1.1
						c-1.2,0-1.8,0.6-1.8,1.8v63.7h-22V71c0-2.4,1.1-3.5,3.2-3.5h37.4c2.4,0,4,1.1,4.8,3.1l20.3,60.5c0.1,0.5,0.5,0.7,1.1,0.7h2.1
						c0.5,0,0.8-0.2,0.9-0.7l20.4-60.5c0.4-1,0.9-1.8,1.7-2.4c0.8-0.5,1.8-0.8,2.9-0.8h37c2.2,0,3.2,1.1,3.2,3.5v81.2L350.4,152.2
						L350.4,152.2z"/>
				</g>
				<g>
					<path class="st1" d="M436.5,144.7h0.8V88.3H458v65.2c0,3.7-0.5,7.1-1.4,10.2c-0.9,3-2.3,5.7-4.2,7.8c-2,2.2-4.6,3.9-7.8,5
						c-3.3,1.2-7.3,1.8-12,1.8h-47.4v-17.8h44.2c2.9,0,5-0.7,6.2-2.1c1.2-1.4,1.8-3.5,1.8-6.5v-5.1h-29.5c-9.3,0-15.9-1.9-19.8-5.8
						c-3.9-3.9-5.8-9.7-5.8-17.5V88.3H403v32.6c0,3.5,0.7,5.9,2,7.2s3.6,1.9,6.8,1.9h19.3L436.5,144.7z"/>
				</g>
				<g>
					<path class="st2" d="M558.1,67.5h27.2v0.9l-41.5,81.1c-0.5,1.1-1.1,1.8-1.8,2.1c-0.6,0.4-1.5,0.5-2.7,0.5h-28.8
						c-1.3,0-2.2-0.2-2.8-0.6c-0.6-0.4-1.2-1.1-1.8-2.1l-41-81v-0.9h27.7l30.5,63.7c0.3,0.6,0.8,0.9,1.6,0.9h1.3
						c0.8,0,1.3-0.3,1.6-0.9L558.1,67.5z"/>
				</g>
				<g>
					<path class="st2" d="M583,104.1V88.3h58c4.1,0,7,1.1,9,3.5s2.9,5.7,2.9,10.1v47.5c0,1.8-0.9,2.8-2.6,2.8h-54.5
						c-2.3,0-4.3-0.3-6.1-0.8c-1.8-0.6-3.3-1.6-4.5-3s-2.2-3.3-2.8-5.6c-0.7-2.3-1-5.1-1-8.5v-4.8c0-6,1.3-10.4,3.8-12.9
						c2.5-2.6,6.1-3.9,10.7-3.9h31.7l3.9,9.4h0.8v-12.9c0-1.8-0.4-3-1.1-3.8c-0.7-0.8-1.8-1.1-3.3-1.1L583,104.1L583,104.1z
						 M631,136.4c0.8,0,1.3-0.5,1.3-1.4v-9.8h-27.1c-1.4,0-2.3,0.4-2.9,1.1s-0.8,1.8-0.8,3.1v2.8c0,1.3,0.3,2.4,0.8,3
						c0.6,0.8,1.6,1.1,2.9,1.1L631,136.4L631,136.4z"/>
				</g>
				<g>
					<path class="st2" d="M715.4,115.1h-0.9v-8.8c0-0.8-0.4-1.3-1.1-1.3h-25.1c-1.8,0-3.1,0.5-3.9,1.3c-0.8,0.8-1.1,2.4-1.1,4.4
						v41.4h-20.6v-45.9c0-5.4,1.4-9.8,4.2-13c2.7-3.3,7.1-4.9,13.3-4.9h50.6c2,0,2.9,1.1,2.9,3.1V108L715.4,115.1z"/>
				</g>
				<g>
					<path class="st2" d="M741.3,78.3V61.4h20.6v16.9H741.3z M741.3,152.2V88.3h20.6v63.9L741.3,152.2L741.3,152.2z"/>
				</g>
				<g>
					<path class="st2" d="M772.3,104.1V88.3h58c4.1,0,7,1.1,9,3.5s2.9,5.7,2.9,10.1v47.5c0,1.8-0.9,2.8-2.6,2.8H785
						c-2.3,0-4.3-0.3-6.1-0.8c-1.8-0.6-3.3-1.6-4.5-3s-2.2-3.3-2.8-5.6c-0.7-2.3-1-5.1-1-8.5v-4.8c0-6,1.3-10.4,3.8-12.9
						c2.5-2.6,6.1-3.9,10.7-3.9h31.7l3.9,9.4h0.8v-12.9c0-1.8-0.4-3-1.1-3.8c-0.7-0.8-1.8-1.1-3.3-1.1L772.3,104.1L772.3,104.1z
						 M820.3,136.4c0.8,0,1.3-0.5,1.3-1.4v-9.8h-27.1c-1.4,0-2.3,0.4-2.9,1.1c-0.6,0.7-0.8,1.8-0.8,3.1v2.8c0,1.3,0.3,2.4,0.8,3
						c0.6,0.8,1.6,1.1,2.9,1.1L820.3,136.4L820.3,136.4z"/>
				</g>
				<g>
					<path class="st2" d="M852.2,88.3h50.9c4.6,0,8.6,0.6,11.8,1.8s5.9,2.9,7.9,5.1s3.5,4.9,4.4,8s1.4,6.6,1.4,10.4v38.5H908V115
						c0-3.7-0.7-6.3-2.1-7.8c-1.4-1.4-3.6-2.2-6.7-2.2h-22.3l-3.4-9.3h-0.8v56.4h-20.6v-64h0.1V88.3z"/>
				</g>
				<g>
					<path class="st2" d="M983.1,104.4h-18.2v47.8h-20.6v-47.8h-8.2l-5.7-15.2v-0.9h13.9V67.5h20.6v20.8h18.2V104.4z"/>
				</g>
				<g>
					<path class="st1" d="M979.2,152.2v-19.3h20.6v19.3H979.2z"/>
				</g>
				<g>
					<path class="st1" d="M1010.3,78.3V61.4h20.6v16.9H1010.3z M1010.3,152.2V88.3h20.6v63.9L1010.3,152.2L1010.3,152.2z"/>
				</g>
				<g>
					<path class="st1" d="M1041.4,88.3h50.9c4.6,0,8.6,0.6,11.8,1.8c3.2,1.2,5.9,2.9,7.9,5.1s3.5,4.9,4.4,8s1.4,6.6,1.4,10.4v38.5
						h-20.6V115c0-3.7-0.7-6.3-2.1-7.8c-1.4-1.4-3.6-2.2-6.7-2.2h-22.3l-3.4-9.3h-0.8v56.4h-20.6v-64h0.1L1041.4,88.3L1041.4,88.3z"
						/>
				</g>
				<g>
					<path class="st1" d="M1172.4,104.4h-18.2v47.8h-20.6v-47.8h-8.4l-5.5-15.2v-0.9h13.9v-7.7c0-3.8,0.4-6.9,1.1-9.4
						c0.8-2.4,2.1-4.4,3.8-5.9c1.8-1.4,4.1-2.5,7-3c2.9-0.6,6.5-0.8,10.8-0.8h9.2l5.6,14.3v1.1h-12c-2,0-3.3,0.5-3.9,1.4
						c-0.7,0.9-1.1,2.4-1.1,4.5v5.7h18.2L1172.4,104.4L1172.4,104.4z"/>
				</g>
				<g>
					<path class="st1" d="M1258,126.8c0,3.9-0.5,7.4-1.4,10.4c-0.9,3.1-2.3,5.8-4.5,8c-2.1,2.2-4.7,3.9-8,5.1
						c-3.3,1.2-7.2,1.8-11.8,1.8h-30c-4.6,0-8.6-0.6-11.7-1.8c-3.2-1.2-5.9-2.9-7.9-5.1c-2.1-2.2-3.5-4.9-4.5-8
						c-0.9-3.1-1.4-6.6-1.4-10.4v-13.2c0-3.8,0.5-7.2,1.4-10.4c0.9-3.1,2.3-5.8,4.5-8c2.1-2.2,4.7-3.9,7.9-5.1
						c3.2-1.2,7.1-1.8,11.7-1.8h30c4.6,0,8.6,0.6,11.8,1.8c3.2,1.2,5.9,2.9,8,5.1s3.5,4.9,4.5,8c0.9,3.1,1.4,6.6,1.4,10.4V126.8z
						 M1228.7,133.5c3.3,0,5.5-0.7,6.8-2s2-3.8,2-7.5v-9c0-3.9-0.7-6.6-2.1-7.9c-1.4-1.4-3.6-2.1-6.7-2.1h-22.4
						c-3.3,0-5.5,0.7-6.7,2.1c-1.3,1.4-1.9,4-1.9,7.8v9c0,3.7,0.6,6.1,1.9,7.5c1.3,1.3,3.5,2,6.7,2h22.4L1228.7,133.5L1228.7,133.5z
						"/>
				</g>
			</g>
		</g>
	</g>
</g>
<g>
	<g>
		<g>
			<g>
				<g>
					<path class="st0" d="M131.1,152.3c-1.4,0-2.7-0.7-3.3-1.9l-18.2-31.6c-0.7-1.2-0.7-2.7,0-3.9l18.2-31.6c1.4-2.4,5.3-2.4,6.7,0
						l18.2,31.6c0.7,1.2,0.7,2.7,0,3.9l-18.2,31.6C133.8,151.5,132.5,152.3,131.1,152.3z M117.4,116.9l13.8,23.9l13.8-23.9L131.1,93
						L117.4,116.9z"/>
				</g>
				<g>
					<path class="st0" d="M112.9,120.7H76.5c-1.4,0-2.7-0.7-3.3-1.9c-0.7-1.2-0.7-2.7,0-3.9l18.2-31.6c0.7-1.2,2-1.9,3.3-1.9h36.4
						c1.4,0,2.7,0.7,3.3,1.9c0.7,1.2,0.7,2.7,0,3.9l-18.2,31.6C115.6,120,114.3,120.7,112.9,120.7z M83.1,113h27.5l13.8-23.8H96.9
						L83.1,113z"/>
				</g>
				<g>
					<path class="st0" d="M131.1,152.3H94.7c-1.4,0-2.7-0.7-3.3-1.9l-18.2-31.6c-0.7-1.2-0.7-2.7,0-3.9c0.7-1.2,2-1.9,3.3-1.9h36.4
						c1.4,0,2.7,0.7,3.3,1.9l18.2,31.6c0.7,1.2,0.7,2.7,0,3.9C133.8,151.5,132.5,152.3,131.1,152.3z M96.9,144.6h27.5l-13.8-23.9
						H83.1L96.9,144.6z"/>
				</g>
			</g>
			<g>
				<g>
					<path class="st0" d="M131.1,89.1c-1.4,0-2.7-0.7-3.3-1.9l-18.2-31.6c-0.7-1.2-0.7-2.7,0-3.9l18.2-31.6c1.4-2.4,5.3-2.4,6.7,0
						l18.2,31.6c0.7,1.2,0.7,2.7,0,3.9l-18.2,31.6C133.8,88.4,132.5,89.1,131.1,89.1z M117.4,53.7l13.8,23.9L145,53.7l-13.8-23.9
						L117.4,53.7z"/>
				</g>
				<g>
					<path class="st0" d="M112.9,57.6H76.5c-1.4,0-2.7-0.7-3.3-1.9c-0.7-1.2-0.7-2.7,0-3.9l18.2-31.6c0.7-1.2,2-1.9,3.3-1.9h36.4
						c1.4,0,2.7,0.7,3.3,1.9c0.7,1.2,0.7,2.7,0,3.9l-18.2,31.6C115.6,56.8,114.3,57.6,112.9,57.6z M83.1,49.9h27.5L124.4,26H96.9
						L83.1,49.9z"/>
				</g>
				<g>
					<path class="st0" d="M131.1,89.1H94.7c-1.4,0-2.7-0.7-3.3-1.9L73.1,55.7c-0.7-1.2-0.7-2.7,0-3.9s2-1.9,3.3-1.9h36.4
						c1.4,0,2.7,0.7,3.3,1.9l18.2,31.6c0.7,1.2,0.7,2.7,0,3.9C133.8,88.4,132.5,89.1,131.1,89.1z M96.9,81.4h27.5l-13.8-23.9H83.1
						L96.9,81.4z"/>
				</g>
			</g>
			<g>
				<g>
					<path class="st0" d="M185.8,183.8L185.8,183.8c-1.4,0-2.7-0.7-3.3-1.9l-18.2-31.6c-0.7-1.2-0.7-2.7,0-3.9l18.2-31.6
						c1.4-2.4,5.3-2.4,6.7,0l18.2,31.6c0.7,1.2,0.7,2.7,0,3.9l-18.2,31.6C188.5,183.1,187.2,183.8,185.8,183.8z M172,148.4
						l13.8,23.8l13.8-23.8l-13.8-23.9L172,148.4z"/>
				</g>
				<g>
					<path class="st0" d="M167.6,152.3h-36.4c-1.4,0-2.7-0.7-3.3-1.9c-0.7-1.2-0.7-2.7,0-3.9l18.2-31.6c0.7-1.2,2-1.9,3.3-1.9h36.4
						c1.4,0,2.7,0.7,3.3,1.9c0.7,1.2,0.7,2.7,0,3.9l-18.2,31.6C170.2,151.5,169,152.3,167.6,152.3z M137.8,144.6h27.5l13.8-23.9
						h-27.5L137.8,144.6z"/>
				</g>
				<g>
					<path class="st0" d="M185.8,183.8h-36.4c-1.4,0-2.7-0.7-3.3-1.9l-18.2-31.6c-0.7-1.2-0.7-2.7,0-3.9s2-1.9,3.3-1.9h36.4
						c1.4,0,2.7,0.7,3.3,1.9l18.2,31.6c0.7,1.2,0.7,2.7,0,3.9C188.5,183.1,187.2,183.8,185.8,183.8z M151.6,176.1h27.5l-13.8-23.8
						h-27.5L151.6,176.1z"/>
				</g>
			</g>
			<g>
				<g>
					<path class="st0" d="M185.8,120.7c-1.4,0-2.7-0.7-3.3-1.9l-18.2-31.6c-0.7-1.2-0.7-2.7,0-3.9l18.2-31.6c1.4-2.4,5.3-2.4,6.7,0
						l18.2,31.6c0.7,1.2,0.7,2.7,0,3.9l-18.2,31.6C188.5,120,187.2,120.7,185.8,120.7z M172,85.3l13.8,23.8l13.8-23.8l-13.8-23.9
						L172,85.3z"/>
				</g>
				<g>
					<path class="st0" d="M167.6,89.1h-36.4c-1.4,0-2.7-0.7-3.3-1.9c-0.7-1.2-0.7-2.7,0-3.9L146,51.8c0.7-1.2,2-1.9,3.3-1.9h36.4
						c1.4,0,2.7,0.7,3.3,1.9c0.7,1.2,0.7,2.7,0,3.9l-18.2,31.6C170.2,88.4,169,89.1,167.6,89.1z M137.8,81.4h27.5l13.8-23.9h-27.5
						L137.8,81.4z"/>
				</g>
				<g>
					<path class="st0" d="M185.8,120.7h-36.4c-1.4,0-2.7-0.7-3.3-1.9l-18.2-31.6c-0.7-1.2-0.7-2.7,0-3.9c0.7-1.2,2-1.9,3.3-1.9h36.4
						c1.4,0,2.7,0.7,3.3,1.9l18.2,31.6c0.7,1.2,0.7,2.7,0,3.9C188.5,120,187.2,120.7,185.8,120.7z M151.6,113h27.5l-13.8-23.8h-27.5
						L151.6,113z"/>
				</g>
			</g>
			<g>
				<g>
					<path class="st0" d="M76.6,183.8L76.6,183.8c-1.4,0-2.7-0.7-3.3-1.9L55,150.3c-0.7-1.2-0.7-2.7,0-3.9l18.2-31.6
						c1.4-2.4,5.3-2.4,6.7,0l18.2,31.6c0.7,1.2,0.7,2.7,0,3.9l-18.2,31.6C79.2,183.1,78,183.8,76.6,183.8z M62.8,148.4l13.8,23.8
						l13.8-23.8l-13.8-23.9L62.8,148.4z"/>
				</g>
				<g>
					<path class="st0" d="M58.4,152.3H21.9c-1.4,0-2.7-0.7-3.3-1.9c-0.7-1.2-0.7-2.7,0-3.9l18.2-31.6c0.7-1.2,2-1.9,3.3-1.9h36.4
						c1.4,0,2.7,0.7,3.3,1.9c0.7,1.2,0.7,2.7,0,3.9l-18.2,31.6C61,151.5,59.8,152.3,58.4,152.3z M28.6,144.6h27.5l13.8-23.9H42.4
						L28.6,144.6z"/>
				</g>
				<g>
					<path class="st0" d="M76.6,183.8H40.1c-1.4,0-2.7-0.7-3.3-1.9l-18.2-31.6c-0.7-1.2-0.7-2.7,0-3.9s2-1.9,3.3-1.9h36.4
						c1.4,0,2.7,0.7,3.3,1.9L79.9,178c0.7,1.2,0.7,2.7,0,3.9C79.2,183.1,78,183.8,76.6,183.8z M42.4,176.1h27.5l-13.8-23.8H28.6
						L42.4,176.1z"/>
				</g>
			</g>
			<g>
				<g>
					<path class="st0" d="M76.6,120.7c-1.4,0-2.7-0.7-3.3-1.9L55,87.2c-0.7-1.2-0.7-2.7,0-3.9l18.2-31.6c1.4-2.4,5.3-2.4,6.7,0
						l18.2,31.6c0.7,1.2,0.7,2.7,0,3.9l-18.2,31.6C79.2,120,78,120.7,76.6,120.7z M62.8,85.3l13.8,23.8l13.8-23.8L76.6,61.4
						L62.8,85.3z"/>
				</g>
				<g>
					<path class="st0" d="M58.4,89.1H21.9c-1.4,0-2.7-0.7-3.3-1.9c-0.7-1.2-0.7-2.7,0-3.9l18.2-31.6c0.7-1.2,2-1.9,3.3-1.9h36.4
						c1.4,0,2.7,0.7,3.3,1.9c0.7,1.2,0.7,2.7,0,3.9L61.7,87.2C61,88.4,59.8,89.1,58.4,89.1z M28.6,81.4h27.5l13.8-23.9H42.4
						L28.6,81.4z"/>
				</g>
				<g>
					<path class="st0" d="M76.6,120.7H40.1c-1.4,0-2.7-0.7-3.3-1.9L18.6,87.2c-0.7-1.2-0.7-2.7,0-3.9c0.7-1.2,2-1.9,3.3-1.9h36.4
						c1.4,0,2.7,0.7,3.3,1.9l18.2,31.6c0.7,1.2,0.7,2.7,0,3.9C79.2,120,78,120.7,76.6,120.7z M42.4,113h27.5L56.1,89.1H28.6
						L42.4,113z"/>
				</g>
			</g>
			<g>
				<g>
					<path class="st0" d="M131.1,215.4c-1.4,0-2.7-0.7-3.3-1.9l-18.2-31.6c-0.7-1.2-0.7-2.7,0-3.9l18.2-31.6c1.4-2.4,5.3-2.4,6.7,0
						l18.2,31.6c0.7,1.2,0.7,2.7,0,3.9l-18.2,31.6C133.8,214.7,132.5,215.4,131.1,215.4z M117.4,180l13.8,23.9L145,180l-13.8-23.8
						L117.4,180z"/>
				</g>
				<g>
					<path class="st0" d="M112.9,183.8H76.5c-1.4,0-2.7-0.7-3.3-1.9c-0.7-1.2-0.7-2.7,0-3.9l18.2-31.6c0.7-1.2,2-1.9,3.3-1.9h36.4
						c1.4,0,2.7,0.7,3.3,1.9c0.7,1.2,0.7,2.7,0,3.9l-18.2,31.6C115.6,183.1,114.3,183.8,112.9,183.8z M83.1,176.1h27.5l13.8-23.8
						H96.9L83.1,176.1z"/>
				</g>
				<g>
					<path class="st0" d="M131.1,215.4H94.7c-1.4,0-2.7-0.7-3.3-1.9l-18.2-31.6c-0.7-1.2-0.7-2.7,0-3.9s2-1.9,3.3-1.9h36.4
						c1.4,0,2.7,0.7,3.3,1.9l18.2,31.6c0.7,1.2,0.7,2.7,0,3.9C133.8,214.7,132.5,215.4,131.1,215.4z M96.9,207.7h27.5l-13.8-23.9
						H83.1L96.9,207.7z"/>
				</g>
			</g>
		</g>
		<g>
			<g>
				<g>
					<polygon class="st2" points="131.1,85.3 112.9,116.9 131.1,148.4 149.4,116.9 					"/>
				</g>
				<g>
					<polygon class="st3" points="94.7,85.3 76.5,116.9 112.9,116.9 131.1,85.3 					"/>
				</g>
				<g>
					<polygon class="st4" points="76.5,116.9 112.9,116.9 131.1,148.4 94.7,148.4 					"/>
				</g>
			</g>
			<g>
				<g>
					<polygon class="st5" points="131.1,22.2 112.9,53.7 131.1,85.3 149.4,53.7 					"/>
				</g>
				<g>
					<polygon class="st6" points="94.7,22.2 76.5,53.7 112.9,53.7 131.1,22.2 					"/>
				</g>
				<g>
					<polygon class="st7" points="76.5,53.7 112.9,53.7 131.1,85.3 94.7,85.3 					"/>
				</g>
			</g>
			<g>
				<g>
					<polygon class="st2" points="185.8,116.9 167.6,148.4 185.8,180 204,148.4 					"/>
				</g>
				<g>
					<polygon class="st3" points="149.4,116.9 131.1,148.4 167.6,148.4 185.8,116.9 					"/>
				</g>
				<g>
					<polygon class="st4" points="131.1,148.4 167.6,148.4 185.8,180 149.4,180 					"/>
				</g>
			</g>
			<g>
				<g>
					<polygon class="st5" points="185.8,53.7 167.6,85.3 185.8,116.9 204,85.3 					"/>
				</g>
				<g>
					<polygon class="st6" points="149.4,53.7 131.1,85.3 167.6,85.3 185.8,53.7 					"/>
				</g>
				<g>
					<polygon class="st7" points="131.1,85.3 167.6,85.3 185.8,116.9 149.4,116.9 					"/>
				</g>
			</g>
			<g>
				<g>
					<polygon class="st5" points="76.6,116.9 58.4,148.4 76.6,180 94.8,148.4 					"/>
				</g>
				<g>
					<polygon class="st6" points="40.1,116.9 21.9,148.4 58.4,148.4 76.6,116.9 					"/>
				</g>
				<g>
					<polygon class="st7" points="21.9,148.4 58.4,148.4 76.6,180 40.1,180 					"/>
				</g>
			</g>
			<g>
				<g>
					<polygon class="st5" points="76.6,53.7 58.4,85.3 76.6,116.9 94.8,85.3 					"/>
				</g>
				<g>
					<polygon class="st6" points="40.1,53.7 21.9,85.3 58.4,85.3 76.6,53.7 					"/>
				</g>
				<g>
					<polygon class="st7" points="21.9,85.3 58.4,85.3 76.6,116.9 40.1,116.9 					"/>
				</g>
			</g>
			<g>
				<g>
					<polygon class="st2" points="131.1,148.4 112.9,180 131.1,211.5 149.4,180 					"/>
				</g>
				<g>
					<polygon class="st3" points="94.7,148.4 76.5,180 112.9,180 131.1,148.4 					"/>
				</g>
				<g>
					<polygon class="st4" points="76.5,180 112.9,180 131.1,211.5 94.7,211.5 					"/>
				</g>
			</g>
		</g>
	</g>
</g>
</svg>
