<?xml version="1.0" encoding="utf-8"?>
<!-- Generator: Adobe Illustrator 22.1.0, SVG Export Plug-In . SVG Version: 6.00 Build 0)  -->
<svg version="1.1" id="Layer_1" xmlns="http://www.w3.org/2000/svg" xmlns:xlink="http://www.w3.org/1999/xlink" x="0px" y="0px"
	 viewBox="0 0 118 20" style="enable-background:new 0 0 118 20;" xml:space="preserve">
<style type="text/css">
	.st0{fill:#FD7400;}
	.st1{fill:#FFFFFF;}
</style>
<path class="st0" d="M115.7,20H2.3C1,20,0,19,0,17.7V2.3C0,1,1,0,2.3,0h113.4c1.3,0,2.3,1,2.3,2.3v15.4C118,19,117,20,115.7,20z"/>
<g>
	<path class="st1" d="M7.2,8.9c0.3,0,0.6-0.1,1-0.1c0.5,0,0.9,0.1,1.1,0.3C9.6,9.4,9.7,9.6,9.7,10c0,0.4-0.1,0.7-0.3,0.9
		c-0.3,0.3-0.7,0.4-1.2,0.4c-0.2,0-0.3,0-0.4,0v1.6H7.2V8.9z M7.7,10.8c0.1,0,0.3,0,0.4,0c0.6,0,1-0.3,1-0.9c0-0.5-0.4-0.8-1-0.8
		c-0.2,0-0.4,0-0.5,0V10.8z"/>
	<path class="st1" d="M12.9,11.4c0,1.1-0.7,1.5-1.4,1.5c-0.8,0-1.4-0.6-1.4-1.5c0-1,0.6-1.5,1.4-1.5C12.3,9.9,12.9,10.5,12.9,11.4z
		 M10.6,11.4c0,0.6,0.4,1.1,0.9,1.1c0.5,0,0.9-0.5,0.9-1.1c0-0.5-0.2-1.1-0.9-1.1C10.8,10.3,10.6,10.9,10.6,11.4z"/>
	<path class="st1" d="M13.7,10l0.4,1.5c0.1,0.3,0.2,0.6,0.2,0.9h0c0.1-0.3,0.2-0.6,0.3-0.9L15,10h0.4l0.5,1.5
		c0.1,0.3,0.2,0.7,0.3,0.9h0c0-0.3,0.1-0.6,0.2-0.9l0.4-1.5h0.5l-0.9,2.9H16l-0.4-1.4c-0.1-0.3-0.2-0.6-0.3-1h0
		c-0.1,0.3-0.2,0.6-0.3,1l-0.5,1.4H14L13.2,10H13.7z"/>
	<path class="st1" d="M18.1,11.5c0,0.7,0.5,1,1,1c0.4,0,0.6-0.1,0.8-0.1l0.1,0.4c-0.2,0.1-0.5,0.2-1,0.2c-0.9,0-1.4-0.6-1.4-1.5
		c0-0.9,0.5-1.6,1.4-1.6c0.9,0,1.2,0.8,1.2,1.4c0,0.1,0,0.2,0,0.2H18.1z M19.7,11.2c0-0.3-0.1-0.9-0.7-0.9c-0.5,0-0.8,0.5-0.8,0.9
		H19.7z"/>
	<path class="st1" d="M20.8,10.9c0-0.3,0-0.6,0-0.9h0.5l0,0.6h0c0.1-0.4,0.4-0.6,0.8-0.6c0.1,0,0.1,0,0.1,0v0.5c-0.1,0-0.1,0-0.2,0
		c-0.4,0-0.6,0.3-0.7,0.7c0,0.1,0,0.2,0,0.2v1.5h-0.5V10.9z"/>
	<path class="st1" d="M23,11.5c0,0.7,0.5,1,1,1c0.4,0,0.6-0.1,0.8-0.1l0.1,0.4c-0.2,0.1-0.5,0.2-1,0.2c-0.9,0-1.4-0.6-1.4-1.5
		c0-0.9,0.5-1.6,1.4-1.6c0.9,0,1.2,0.8,1.2,1.4c0,0.1,0,0.2,0,0.2H23z M24.6,11.2c0-0.3-0.1-0.9-0.7-0.9c-0.5,0-0.8,0.5-0.8,0.9
		H24.6z"/>
	<path class="st1" d="M28.3,8.6v3.5c0,0.3,0,0.6,0,0.7h-0.5l0-0.5h0c-0.2,0.3-0.5,0.6-1,0.6c-0.7,0-1.2-0.6-1.2-1.5
		c0-1,0.6-1.6,1.3-1.6c0.4,0,0.7,0.2,0.9,0.4h0V8.6H28.3z M27.7,11.2c0-0.1,0-0.2,0-0.2c-0.1-0.3-0.4-0.6-0.8-0.6
		c-0.5,0-0.9,0.5-0.9,1.1c0,0.6,0.3,1.1,0.9,1.1c0.4,0,0.7-0.2,0.8-0.6c0-0.1,0-0.1,0-0.2V11.2z"/>
	<path class="st1" d="M30.4,12.9c0-0.2,0-0.5,0-0.7V8.6h0.5v1.8h0c0.2-0.3,0.5-0.5,1-0.5c0.7,0,1.2,0.6,1.2,1.5c0,1-0.7,1.6-1.3,1.6
		c-0.4,0-0.8-0.2-1-0.5h0l0,0.5H30.4z M30.9,11.7c0,0.1,0,0.1,0,0.2c0.1,0.4,0.4,0.6,0.8,0.6c0.6,0,0.9-0.4,0.9-1.1
		c0-0.6-0.3-1.1-0.9-1.1c-0.4,0-0.7,0.2-0.8,0.6c0,0.1,0,0.1,0,0.2V11.7z"/>
	<path class="st1" d="M34,10l0.6,1.7c0.1,0.2,0.1,0.4,0.2,0.6h0c0.1-0.2,0.1-0.4,0.2-0.6l0.6-1.7h0.6l-0.8,2.1c-0.4,1-0.6,1.5-1,1.8
		c-0.3,0.2-0.5,0.3-0.6,0.3l-0.1-0.4c0.1,0,0.3-0.1,0.5-0.3c0.1-0.1,0.3-0.3,0.4-0.6c0-0.1,0-0.1,0-0.1c0,0,0-0.1,0-0.1L33.4,10H34z
		"/>
	<path class="st1" d="M47.2,12.9V8c0-0.1,0-0.1-0.1-0.1H47c-0.1,0-0.1,0-0.2,0.1L45,12.7c0,0.1-0.1,0.1-0.1,0.2c-0.1,0-0.1,0-0.2,0
		h-2.1c-0.1,0-0.2,0-0.2,0s-0.1-0.1-0.1-0.2l-1.8-4.7c0-0.1-0.1-0.1-0.2-0.1h-0.1c-0.1,0-0.1,0-0.1,0.1v4.9h-1.7V6.6
		c0-0.2,0.1-0.3,0.3-0.3h3c0.2,0,0.3,0.1,0.4,0.2l1.6,4.7c0,0,0,0.1,0.1,0.1h0.2c0,0,0.1,0,0.1-0.1l1.6-4.7c0-0.1,0.1-0.1,0.1-0.2
		s0.1-0.1,0.2-0.1h2.9c0.2,0,0.3,0.1,0.3,0.3v6.3H47.2z"/>
	<path class="st1" d="M54,12.3L54,12.3L54.1,8h1.6v5c0,0.3,0,0.6-0.1,0.8c-0.1,0.2-0.2,0.4-0.3,0.6c-0.2,0.2-0.4,0.3-0.6,0.4
		c-0.3,0.1-0.6,0.1-1,0.1H50v-1.4h3.5c0.2,0,0.4-0.1,0.5-0.2c0.1-0.1,0.1-0.3,0.1-0.5v-0.4h-2.3c-0.7,0-1.3-0.1-1.6-0.4
		s-0.5-0.7-0.5-1.4V8h1.6v2.5c0,0.3,0.1,0.5,0.2,0.6c0.1,0.1,0.3,0.1,0.5,0.1h1.5L54,12.3z"/>
	<path class="st1" d="M62.6,9L62.6,9l-0.1-0.9c0-0.1,0-0.1-0.1-0.1h-3.1c-0.4,0-0.6,0.1-0.8,0.2c-0.1,0.1-0.2,0.4-0.2,0.8v1.1
		c0,0.4,0.1,0.7,0.2,0.8c0.1,0.2,0.4,0.2,0.8,0.2h4.9v1.7h-5.1c-0.5,0-0.9-0.1-1.2-0.2c-0.3-0.1-0.6-0.3-0.8-0.5s-0.4-0.5-0.5-0.8
		c-0.1-0.3-0.1-0.7-0.1-1.1V8.9c0-0.4,0-0.8,0.1-1.1c0.1-0.3,0.2-0.6,0.5-0.8c0.2-0.2,0.5-0.4,0.8-0.5c0.3-0.1,0.8-0.2,1.2-0.2h4.9
		c0.2,0,0.3,0.1,0.3,0.3v1.7L62.6,9z"/>
	<path class="st1" d="M65.1,5.9h1.6V8h2.4c0.4,0,0.7,0,0.9,0.1c0.3,0.1,0.5,0.2,0.6,0.4c0.2,0.2,0.3,0.4,0.3,0.6
		c0.1,0.2,0.1,0.5,0.1,0.8v3h-1.6V10c0-0.3-0.1-0.5-0.2-0.6c-0.1-0.1-0.3-0.2-0.5-0.2H67l-0.3-0.7h-0.1v4.4h-1.6V5.9z"/>
	<path class="st1" d="M73.5,10.1L73.5,10.1l-0.1,0.8c0,0.3,0,0.5,0.1,0.6c0.1,0.1,0.3,0.2,0.5,0.2h3.5v1.3h-3.8
		c-0.4,0-0.7,0-0.9-0.1c-0.3-0.1-0.5-0.2-0.6-0.4c-0.2-0.2-0.3-0.4-0.4-0.6c-0.1-0.2-0.1-0.5-0.1-0.8v-1c0-0.3,0-0.6,0.1-0.8
		c0.1-0.2,0.2-0.4,0.4-0.6c0.2-0.2,0.4-0.3,0.6-0.4C73.2,8,73.5,8,73.9,8h2.9c0.4,0,0.6,0.1,0.8,0.3s0.2,0.5,0.2,0.9v0.5
		c0,0.4-0.1,0.7-0.2,0.9c-0.2,0.2-0.4,0.3-0.8,0.3h-2.9L73.5,10.1z M73.5,9.8H76c0.2,0,0.3-0.1,0.3-0.3V9.4c0-0.1,0-0.2-0.1-0.2
		c0,0-0.1-0.1-0.2-0.1h-1.8c-0.3,0-0.4,0.1-0.5,0.2C73.5,9.4,73.5,9.5,73.5,9.8L73.5,9.8z"/>
	<path class="st1" d="M83.5,8H86c0.4,0,0.7,0,0.9,0.1c0.3,0.1,0.5,0.2,0.6,0.4c0.2,0.2,0.3,0.4,0.3,0.6C88,9.3,88,9.6,88,9.9v3h-1.6
		V10c0-0.3-0.1-0.5-0.2-0.6c-0.1-0.1-0.3-0.2-0.5-0.2h-1.5c0.1,0.2,0.1,0.4,0.1,0.7v3h-1.6V10c0-0.3-0.1-0.5-0.2-0.6
		c-0.1-0.1-0.3-0.2-0.5-0.2h-1.6l-0.3-0.7h-0.1v4.4h-1.6V8h3.8c0.4,0,0.6,0,0.9,0.1c0.2,0.1,0.4,0.2,0.6,0.4l0,0
		c-0.1-0.1-0.1-0.1-0.2-0.2C83.6,8.2,83.5,8.1,83.5,8L83.5,8z"/>
	<path class="st1" d="M88.8,12.9v-1.5h1.6v1.5H88.8z"/>
	<path class="st1" d="M91.3,7.2V5.9h1.6v1.3H91.3z M91.3,12.9V8h1.6v4.9H91.3z"/>
	<path class="st1" d="M93.8,8h4c0.4,0,0.7,0,0.9,0.1c0.3,0.1,0.5,0.2,0.6,0.4c0.2,0.2,0.3,0.4,0.3,0.6c0.1,0.2,0.1,0.5,0.1,0.8v3
		h-1.6V10c0-0.3-0.1-0.5-0.2-0.6c-0.1-0.1-0.3-0.2-0.5-0.2h-1.8l-0.3-0.7h-0.1v4.4h-1.6V8z"/>
	<path class="st1" d="M104.1,9.2h-1.4v3.7h-1.6V9.2h-0.7L100,8V8h1.1V7.4c0-0.3,0-0.5,0.1-0.7c0.1-0.2,0.2-0.3,0.3-0.5
		c0.1-0.1,0.3-0.2,0.6-0.2c0.2,0,0.5-0.1,0.9-0.1h0.7L104,7v0.1h-1c-0.2,0-0.3,0-0.3,0.1s-0.1,0.2-0.1,0.3V8h1.4V9.2z"/>
	<path class="st1" d="M110.9,10.9c0,0.3,0,0.6-0.1,0.8c-0.1,0.2-0.2,0.4-0.4,0.6c-0.2,0.2-0.4,0.3-0.6,0.4c-0.3,0.1-0.6,0.1-0.9,0.1
		h-2.4c-0.4,0-0.7,0-0.9-0.1c-0.3-0.1-0.5-0.2-0.6-0.4c-0.2-0.2-0.3-0.4-0.4-0.6c-0.1-0.2-0.1-0.5-0.1-0.8v-1c0-0.3,0-0.6,0.1-0.8
		c0.1-0.2,0.2-0.4,0.4-0.6c0.2-0.2,0.4-0.3,0.6-0.4c0.3-0.1,0.6-0.1,0.9-0.1h2.4c0.4,0,0.7,0,0.9,0.1c0.3,0.1,0.5,0.2,0.6,0.4
		c0.2,0.2,0.3,0.4,0.4,0.6c0.1,0.2,0.1,0.5,0.1,0.8V10.9z M108.6,11.4c0.3,0,0.4-0.1,0.5-0.2c0.1-0.1,0.2-0.3,0.2-0.6V10
		c0-0.3-0.1-0.5-0.2-0.6c-0.1-0.1-0.3-0.2-0.5-0.2h-1.8c-0.3,0-0.4,0.1-0.5,0.2c-0.1,0.1-0.1,0.3-0.1,0.6v0.7c0,0.3,0,0.5,0.1,0.6
		c0.1,0.1,0.3,0.2,0.5,0.2H108.6z"/>
</g>
</svg>
