<?xml version="1.0" encoding="utf-8"?>
<!-- Generator: Adobe Illustrator 22.1.0, SVG Export Plug-In . SVG Version: 6.00 Build 0)  -->
<svg version="1.1" id="Layer_1" xmlns="http://www.w3.org/2000/svg" xmlns:xlink="http://www.w3.org/1999/xlink" x="0px" y="0px"
	 viewBox="0 0 118 20" style="enable-background:new 0 0 118 20;" xml:space="preserve">
<style type="text/css">
	.st0{fill:#3366CC;}
	.st1{fill:#669BE8;}
	.st2{fill:#FFFFFF;}
	.st3{fill:none;}
	.st4{enable-background:new    ;}
</style>
<path class="st0" d="M115.7,20H2.3C1,20,0,19,0,17.7V2.3C0,1,1,0,2.3,0h113.4c1.3,0,2.3,1,2.3,2.3v15.4C118,19,117,20,115.7,20z"/>
<path class="st1" d="M16.9,7.5l-1.8-2.6L15,4.8l0,0h-2.4l-1.8-2.6l-0.1-0.1l0,0l0,0l0,0H8.2c0,0-0.1,0-0.1,0.1L6.3,4.9V5L8,7.6
	l-1.7,2.5v0.1l1.8,2.6l0.1,0.1h2.5c0,0,0.1,0,0.1-0.1v-0.1l0,0l1.7-2.4l0,0H15l0,0c0,0,0.1,0,0.1-0.1l1.8-2.6
	C16.9,7.6,16.9,7.6,16.9,7.5z"/>
<path class="st2" d="M15,10.1L15,10.1h-2.5c0,0-0.1,0-0.1,0.1l-1.8,2.6H8.3l-1.7-2.5l1.8-2.5V7.7L6.5,4.9L6.4,4.8l0,0H3.9
	c0,0-0.1,0-0.1,0.1L2,7.5v0.1l1.7,2.5L2,12.7v0.1l1.8,2.6l0.1,0.1h2.4l1.8,2.6l0.1,0.1h2.5l0,0c0,0,0.1,0,0.1-0.1l1.8-2.6H15l0,0
	c0,0,0.1,0,0.1-0.1l1.8-2.6v-0.1L15,10.1C15.1,10.1,15.1,10.1,15,10.1z"/>
<rect x="20" y="7" class="st3" width="96" height="10.2"/>
<g class="st4">
	<path class="st2" d="M20.6,12.7V7h2.2c0.4,0,0.7,0,0.9,0.1c0.3,0,0.5,0.1,0.7,0.3s0.3,0.3,0.5,0.6S25,8.4,25,8.7
		c0,0.5-0.2,0.9-0.5,1.2s-0.9,0.5-1.7,0.5h-1.5v2.3H20.6z M21.4,9.7h1.5c0.5,0,0.8-0.1,1-0.3s0.3-0.4,0.3-0.8c0-0.2-0.1-0.4-0.2-0.6
		s-0.3-0.3-0.5-0.3c-0.1,0-0.4-0.1-0.7-0.1h-1.5V9.7z"/>
	<path class="st2" d="M25.6,10.7c0-0.8,0.2-1.3,0.6-1.7c0.4-0.3,0.8-0.5,1.3-0.5c0.6,0,1,0.2,1.4,0.6s0.5,0.9,0.5,1.5
		c0,0.5-0.1,1-0.2,1.3s-0.4,0.5-0.7,0.7s-0.6,0.3-1,0.3c-0.6,0-1.1-0.2-1.4-0.6S25.6,11.4,25.6,10.7z M26.3,10.7
		c0,0.5,0.1,0.9,0.3,1.2s0.5,0.4,0.9,0.4c0.3,0,0.6-0.1,0.9-0.4s0.3-0.7,0.3-1.2c0-0.5-0.1-0.9-0.3-1.2s-0.5-0.4-0.9-0.4
		c-0.4,0-0.6,0.1-0.9,0.4S26.3,10.1,26.3,10.7z"/>
	<path class="st2" d="M31.1,12.7l-1.3-4.1h0.7l0.7,2.4l0.2,0.9c0,0,0.1-0.3,0.2-0.9l0.7-2.4H33l0.6,2.4l0.2,0.8l0.2-0.8l0.7-2.4h0.7
		l-1.3,4.1h-0.7l-0.7-2.5l-0.2-0.7l-0.8,3.2H31.1z"/>
	<path class="st2" d="M38.9,11.4l0.7,0.1c-0.1,0.4-0.3,0.8-0.6,1s-0.7,0.4-1.2,0.4c-0.6,0-1.1-0.2-1.4-0.6s-0.5-0.9-0.5-1.6
		c0-0.7,0.2-1.2,0.5-1.6s0.8-0.6,1.4-0.6c0.6,0,1,0.2,1.4,0.6s0.5,0.9,0.5,1.6c0,0,0,0.1,0,0.2h-3.1c0,0.5,0.2,0.8,0.4,1
		s0.5,0.4,0.9,0.4c0.3,0,0.5-0.1,0.7-0.2S38.8,11.7,38.9,11.4z M36.6,10.3h2.3c0-0.3-0.1-0.6-0.3-0.8c-0.2-0.3-0.5-0.4-0.9-0.4
		c-0.3,0-0.6,0.1-0.8,0.3S36.6,9.9,36.6,10.3z"/>
	<path class="st2" d="M40.5,12.7V8.6h0.6v0.6c0.2-0.3,0.3-0.5,0.4-0.6s0.3-0.1,0.5-0.1c0.2,0,0.5,0.1,0.7,0.2l-0.2,0.7
		c-0.2-0.1-0.3-0.2-0.5-0.2c-0.2,0-0.3,0-0.4,0.1s-0.2,0.2-0.3,0.4c-0.1,0.2-0.1,0.5-0.1,0.8v2.2H40.5z"/>
	<path class="st2" d="M46,11.4l0.7,0.1c-0.1,0.4-0.3,0.8-0.6,1s-0.7,0.4-1.2,0.4c-0.6,0-1.1-0.2-1.4-0.6S43,11.4,43,10.7
		c0-0.7,0.2-1.2,0.5-1.6s0.8-0.6,1.4-0.6c0.6,0,1,0.2,1.4,0.6s0.5,0.9,0.5,1.6c0,0,0,0.1,0,0.2h-3.1c0,0.5,0.2,0.8,0.4,1
		s0.5,0.4,0.9,0.4c0.3,0,0.5-0.1,0.7-0.2S45.9,11.7,46,11.4z M43.7,10.3h2.3c0-0.3-0.1-0.6-0.3-0.8c-0.2-0.3-0.5-0.4-0.9-0.4
		c-0.3,0-0.6,0.1-0.8,0.3S43.8,9.9,43.7,10.3z"/>
	<path class="st2" d="M50.3,12.7v-0.5c-0.3,0.4-0.6,0.6-1.2,0.6c-0.3,0-0.6-0.1-0.9-0.3s-0.5-0.4-0.6-0.8s-0.2-0.7-0.2-1.1
		c0-0.4,0.1-0.8,0.2-1.1s0.3-0.6,0.6-0.8s0.6-0.3,0.9-0.3c0.2,0,0.5,0.1,0.7,0.2s0.4,0.2,0.5,0.4V7H51v5.7H50.3z M48.1,10.7
		c0,0.5,0.1,0.9,0.3,1.2s0.5,0.4,0.8,0.4c0.3,0,0.6-0.1,0.8-0.4s0.3-0.6,0.3-1.2c0-0.6-0.1-1-0.3-1.2s-0.5-0.4-0.8-0.4
		c-0.3,0-0.6,0.1-0.8,0.4S48.1,10.1,48.1,10.7z"/>
	<path class="st2" d="M55,12.7h-0.7V7H55v2c0.3-0.4,0.7-0.6,1.1-0.6c0.3,0,0.5,0.1,0.7,0.2s0.4,0.2,0.6,0.4s0.3,0.4,0.3,0.7
		s0.1,0.5,0.1,0.8c0,0.7-0.2,1.3-0.5,1.6s-0.8,0.6-1.3,0.6c-0.5,0-0.9-0.2-1.2-0.6V12.7z M55,10.6c0,0.5,0.1,0.9,0.2,1.1
		c0.2,0.4,0.5,0.5,0.9,0.5c0.3,0,0.6-0.1,0.8-0.4s0.3-0.7,0.3-1.2c0-0.5-0.1-0.9-0.3-1.2s-0.5-0.4-0.8-0.4c-0.3,0-0.6,0.1-0.8,0.4
		S55,10.1,55,10.6z"/>
	<path class="st2" d="M58.7,14.3l-0.1-0.7c0.2,0,0.3,0.1,0.4,0.1c0.2,0,0.3,0,0.4-0.1s0.2-0.1,0.2-0.2c0-0.1,0.1-0.2,0.2-0.5
		c0,0,0-0.1,0.1-0.2l-1.6-4.2h0.8L60,11c0.1,0.3,0.2,0.6,0.3,1c0.1-0.3,0.2-0.6,0.3-0.9l0.9-2.4h0.7l-1.6,4.2
		c-0.2,0.5-0.3,0.8-0.4,0.9c-0.1,0.2-0.3,0.4-0.4,0.5s-0.4,0.2-0.6,0.2C59.1,14.4,58.9,14.4,58.7,14.3z"/>
	<path class="st2" d="M65.1,12.7V7h1.1l1.4,4.1c0.1,0.4,0.2,0.7,0.3,0.8c0.1-0.2,0.2-0.5,0.3-0.9l1.4-4h1v5.7h-0.7V7.9l-1.7,4.8
		h-0.7l-1.7-4.9v4.9H65.1z"/>
	<path class="st2" d="M71.6,14.3l-0.1-0.7c0.2,0,0.3,0.1,0.4,0.1c0.2,0,0.3,0,0.4-0.1s0.2-0.1,0.2-0.2c0-0.1,0.1-0.2,0.2-0.5
		c0,0,0-0.1,0.1-0.2l-1.6-4.2H72l0.9,2.4c0.1,0.3,0.2,0.6,0.3,1c0.1-0.3,0.2-0.6,0.3-0.9l0.9-2.4h0.7l-1.6,4.2
		c-0.2,0.5-0.3,0.8-0.4,0.9c-0.1,0.2-0.3,0.4-0.4,0.5s-0.4,0.2-0.6,0.2C71.9,14.4,71.8,14.4,71.6,14.3z"/>
	<path class="st2" d="M78.4,10.5V9.8l2.4,0v2.1c-0.4,0.3-0.8,0.5-1.2,0.7s-0.8,0.2-1.2,0.2c-0.6,0-1.1-0.1-1.5-0.4s-0.8-0.6-1-1
		s-0.4-1-0.4-1.5c0-0.6,0.1-1.1,0.3-1.6s0.6-0.8,1-1.1s0.9-0.4,1.5-0.4c0.4,0,0.8,0.1,1.1,0.2s0.6,0.3,0.8,0.6s0.3,0.6,0.4,0.9
		l-0.7,0.2c-0.1-0.3-0.2-0.5-0.3-0.7s-0.3-0.3-0.5-0.4s-0.5-0.2-0.8-0.2c-0.3,0-0.6,0.1-0.9,0.2S77.1,8,76.9,8.1s-0.3,0.4-0.4,0.6
		c-0.1,0.4-0.2,0.7-0.2,1.2c0,0.5,0.1,0.9,0.3,1.3s0.4,0.6,0.8,0.8s0.7,0.2,1.1,0.2c0.3,0,0.6-0.1,1-0.2s0.5-0.3,0.7-0.4v-1.1H78.4z
		"/>
	<path class="st2" d="M84.7,11.4l0.7,0.1c-0.1,0.4-0.3,0.8-0.6,1s-0.7,0.4-1.2,0.4c-0.6,0-1.1-0.2-1.4-0.6s-0.5-0.9-0.5-1.6
		c0-0.7,0.2-1.2,0.5-1.6s0.8-0.6,1.4-0.6c0.6,0,1,0.2,1.4,0.6s0.5,0.9,0.5,1.6c0,0,0,0.1,0,0.2h-3.1c0,0.5,0.2,0.8,0.4,1
		s0.5,0.4,0.9,0.4c0.3,0,0.5-0.1,0.7-0.2S84.6,11.7,84.7,11.4z M82.4,10.3h2.3c0-0.3-0.1-0.6-0.3-0.8c-0.2-0.3-0.5-0.4-0.9-0.4
		c-0.3,0-0.6,0.1-0.8,0.3S82.4,9.9,82.4,10.3z"/>
	<path class="st2" d="M86.3,12.7V8.6H87v0.6c0.3-0.5,0.7-0.7,1.3-0.7c0.2,0,0.5,0,0.7,0.1s0.4,0.2,0.5,0.4s0.2,0.3,0.2,0.5
		c0,0.1,0,0.4,0,0.7v2.6H89v-2.5c0-0.3,0-0.5-0.1-0.6s-0.2-0.3-0.3-0.3s-0.3-0.1-0.5-0.1c-0.3,0-0.6,0.1-0.8,0.3S87,9.9,87,10.5v2.3
		H86.3z"/>
	<path class="st2" d="M93.6,11.4l0.7,0.1c-0.1,0.4-0.3,0.8-0.6,1s-0.7,0.4-1.2,0.4c-0.6,0-1.1-0.2-1.4-0.6s-0.5-0.9-0.5-1.6
		c0-0.7,0.2-1.2,0.5-1.6s0.8-0.6,1.4-0.6c0.6,0,1,0.2,1.4,0.6s0.5,0.9,0.5,1.6c0,0,0,0.1,0,0.2h-3.1c0,0.5,0.2,0.8,0.4,1
		s0.5,0.4,0.9,0.4c0.3,0,0.5-0.1,0.7-0.2S93.5,11.7,93.6,11.4z M91.3,10.3h2.3c0-0.3-0.1-0.6-0.3-0.8c-0.2-0.3-0.5-0.4-0.9-0.4
		c-0.3,0-0.6,0.1-0.8,0.3S91.3,9.9,91.3,10.3z"/>
	<path class="st2" d="M95.4,12.7v-0.8h0.8v0.8H95.4z"/>
	<path class="st2" d="M97.5,7.8V7h0.7v0.8H97.5z M97.5,12.7V8.6h0.7v4.1H97.5z"/>
	<path class="st2" d="M99.2,12.7V8.6h0.6v0.6c0.3-0.5,0.7-0.7,1.3-0.7c0.2,0,0.5,0,0.7,0.1s0.4,0.2,0.5,0.4s0.2,0.3,0.2,0.5
		c0,0.1,0,0.4,0,0.7v2.6h-0.7v-2.5c0-0.3,0-0.5-0.1-0.6s-0.2-0.3-0.3-0.3s-0.3-0.1-0.5-0.1c-0.3,0-0.6,0.1-0.8,0.3s-0.3,0.6-0.3,1.1
		v2.3H99.2z"/>
	<path class="st2" d="M103.8,12.7V9.1h-0.6V8.6h0.6V8.1c0-0.3,0-0.5,0.1-0.6c0.1-0.2,0.2-0.3,0.4-0.4s0.4-0.2,0.7-0.2
		c0.2,0,0.4,0,0.7,0.1l-0.1,0.6c-0.1,0-0.3,0-0.4,0c-0.2,0-0.4,0-0.5,0.1s-0.1,0.3-0.1,0.5v0.4h0.8v0.5h-0.8v3.6H103.8z"/>
	<path class="st2" d="M105.6,10.7c0-0.8,0.2-1.3,0.6-1.7c0.4-0.3,0.8-0.5,1.3-0.5c0.6,0,1,0.2,1.4,0.6s0.5,0.9,0.5,1.5
		c0,0.5-0.1,1-0.2,1.3s-0.4,0.5-0.7,0.7s-0.6,0.3-1,0.3c-0.6,0-1-0.2-1.4-0.6S105.6,11.4,105.6,10.7z M106.4,10.7
		c0,0.5,0.1,0.9,0.3,1.2s0.5,0.4,0.9,0.4c0.3,0,0.6-0.1,0.9-0.4s0.3-0.7,0.3-1.2c0-0.5-0.1-0.9-0.3-1.2s-0.5-0.4-0.9-0.4
		c-0.4,0-0.6,0.1-0.9,0.4S106.4,10.1,106.4,10.7z"/>
</g>
</svg>
