<?xml version="1.0" encoding="utf-8"?>
<!-- Generator: Adobe Illustrator 22.1.0, SVG Export Plug-In . SVG Version: 6.00 Build 0)  -->
<svg version="1.1" id="Layer_1" xmlns="http://www.w3.org/2000/svg" xmlns:xlink="http://www.w3.org/1999/xlink" x="0px" y="0px"
	 viewBox="0 0 964 745" style="enable-background:new 0 0 964 745;" xml:space="preserve">
<style type="text/css">
	.st0{fill:none;}
	.st1{fill:#FFCC3E;}
	.st2{fill:#D19705;}
	.st3{fill:#FFE36C;}
	.st4{fill:#E29C00;}
</style>
<g>
	<rect x="61.8" y="562" class="st0" width="841.2" height="119"/>
	<g>
		<g>
			<polygon class="st1" points="478.2,286.1 373.7,225.6 478.2,166.2 588.4,226.2 			"/>
		</g>
		<g>
			<polygon class="st2" points="372.5,226.2 372.5,357.5 478.8,419.2 481,289 			"/>
		</g>
		<g>
			<polygon class="st3" points="481,289 589.6,226.2 589.6,351.8 481,420.3 			"/>
		</g>
		<path class="st4" d="M480.5,18.2L247.9,150.8l-1.7,267.9L477.6,554l4-2.3l0.7,0l0-0.4l227.9-130.3l1.7-266.1l0-1.7L480.5,18.2z
			 M487,288.3l218.8-126.9l-1.6,251.9L487,288.3z M258.6,151.6L475.7,27.9v256.3L258.6,151.6z M470.2,287.8L252.2,413.2l1.7-257.5
			L470.2,287.8z M475,290.8l0.8,0.5l0.5,255L255.5,417.1L475,290.8z M480.7,284.7V25.3l223.4,130.2L481,284.8L480.7,284.7z
			 M481.8,291.3l0.2-0.1l220.8,127L482.3,544.4L481.8,291.3z"/>
	</g>
	<g>
		<path class="st1" d="M93.9,621.8v12.9H76v-60.4c0-1.7,0.8-2.6,2.5-2.6h51.7c5.9,0,10.1,1.3,12.7,3.9c2.6,2.6,3.9,6.3,3.9,11.1v5.5
			c0,2.5-0.5,4.6-1.6,6.1c-1,1.6-2.2,2.8-3.5,3.7c1.8,0.9,3.4,2.3,4.6,4.1c1.2,1.8,1.8,4,1.8,6.7v5.5c0,5.3-1.3,9.3-3.8,12.1
			s-6.8,4.2-12.9,4.2h-32l-4.9-12.9h-0.6V621.8z M95.3,585.7c-1,0-1.5,0.5-1.5,1.5v10.6h29.9c2,0,3.3-0.4,4.2-1.1
			c0.8-0.7,1.2-2,1.2-3.9v-1.9c0-1.9-0.4-3.2-1.2-4s-2.2-1.2-4.2-1.2L95.3,585.7L95.3,585.7z M93.9,608v11.9h31
			c1.6,0,2.7-0.4,3.4-1.1c0.7-0.7,1.1-2,1.1-3.9V613c0-1.8-0.3-3.1-1-3.9c-0.7-0.7-1.8-1.1-3.5-1.1H93.9z"/>
		<path class="st1" d="M154.5,579.7v-12.5h15.7v12.5H154.5z M154.5,634.7v-47.5h15.7v47.5H154.5z"/>
		<path class="st1" d="M239.1,615.8c0,2.9-0.3,5.5-1,7.8s-1.8,4.3-3.4,5.9c-1.6,1.6-3.6,2.9-6.1,3.8c-2.5,0.9-5.5,1.3-9,1.3h-22.8
			c-3.5,0-6.5-0.4-9-1.3c-2.5-0.9-4.5-2.2-6-3.8s-2.7-3.6-3.4-5.9c-0.7-2.3-1-4.9-1-7.8V606c0-2.8,0.3-5.4,1-7.7s1.8-4.3,3.4-6
			s3.6-2.9,6-3.8c2.5-0.9,5.4-1.3,9-1.3h22.8c3.5,0,6.5,0.4,9,1.3c2.5,0.9,4.5,2.2,6.1,3.8s2.7,3.6,3.4,6c0.7,2.3,1,4.9,1,7.7V615.8
			z M216.8,620.7c2.5,0,4.2-0.5,5.2-1.5s1.5-2.8,1.5-5.5V607c0-2.9-0.5-4.8-1.5-5.9c-1-1-2.7-1.6-5.1-1.6h-17
			c-2.5,0-4.2,0.5-5.1,1.6c-1,1.1-1.4,3-1.4,5.8v6.7c0,2.7,0.5,4.6,1.4,5.5c1,1,2.7,1.5,5.1,1.5h16.9V620.7z"/>
		<path class="st1" d="M285.3,587.4v47.2h-17.8v-47.2h-26.1l-5.8-15.1v-0.7h83.5c1.7,0,2.5,0.9,2.5,2.6v16.4l-16.5,6.1h-0.7v-8.4
			c0-0.6-0.3-1-1-1h-18.1V587.4z"/>
		<path class="st1" d="M327.3,567.2H343v20h23.1c3.5,0,6.5,0.4,9,1.3c2.5,0.9,4.5,2.2,6,3.8s2.6,3.6,3.3,5.9c0.7,2.3,1,4.9,1,7.8
			v28.6h-15.7V607c0-2.8-0.6-4.7-1.7-5.8s-2.8-1.6-5-1.6h-17l-2.6-6.9H343v42h-15.7V567.2z"/>
		<path class="st1" d="M393.2,579.7v-12.5h15.7v12.5H393.2z M393.2,634.7v-47.5h15.7v47.5H393.2z"/>
		<path class="st1" d="M416.9,587.2h38.8c3.5,0,6.5,0.4,9,1.3c2.5,0.9,4.5,2.2,6,3.8s2.6,3.6,3.3,5.9c0.7,2.3,1,4.9,1,7.8v28.6
			h-15.7V607c0-2.8-0.5-4.7-1.6-5.8c-1-1.1-2.7-1.6-5.1-1.6h-17l-2.6-6.9h-0.6v42h-15.7v-47.5H416.9z"/>
		<path class="st1" d="M483.8,640.9h34.4c2.2,0,3.8-0.5,4.7-1.5s1.3-2.6,1.3-4.8v-3.8h-23.1c-7.1,0-12.1-1.4-15.1-4.3
			c-2.9-2.9-4.4-7.2-4.4-13V606c0-2.9,0.3-5.5,1-7.8s1.8-4.3,3.4-5.9s3.6-2.9,6-3.8c2.5-0.9,5.5-1.3,9-1.3h34.5
			c2.9,0,4.3,1.4,4.3,4.3v44.1c0,2.8-0.3,5.3-1,7.6s-1.7,4.2-3.2,5.8s-3.5,2.9-6,3.8c-2.5,0.9-5.5,1.3-9.2,1.3h-36.8v-13.2H483.8z
			 M523.6,629h0.6v-27.9c0-1-0.5-1.5-1.5-1.5H504c-2.4,0-4.2,0.5-5.2,1.6s-1.6,3-1.6,5.8v4.4c0,2.6,0.5,4.4,1.5,5.3
			c1,1,2.8,1.4,5.2,1.4h15.3L523.6,629z"/>
		<path class="st1" d="M547.3,621.3h38.8c0.9,0,1.6-0.2,1.9-0.6c0.3-0.4,0.5-1,0.5-1.9v-1c0-0.6-0.1-1.1-0.3-1.4
			c-0.2-0.3-0.7-0.5-1.4-0.6l-29.5-2.5c-3.6-0.3-6.3-1.4-8-3.4s-2.6-4.6-2.6-7.9v-3.8c0-3.5,1-6.2,2.9-8.2s5-3,9.3-3h42.8
			c1.4,0,2.2,0.7,2.2,2.2V600l-13.5,5h-0.6v-5.5c0-0.5-0.2-0.7-0.6-0.7h-24.7c-0.9,0-1.5,0.2-1.8,0.5s-0.5,0.9-0.5,1.7v1.3
			c0,0.8,0.1,1.3,0.4,1.6c0.3,0.2,0.7,0.4,1.4,0.5l30.2,2.9c2,0.2,3.7,0.5,5,1.1s2.4,1.3,3.2,2.3s1.4,2.1,1.7,3.5s0.5,3,0.5,4.8v3.5
			c0,3.8-1,6.7-3,8.8s-5.5,3.1-10.6,3.1h-43.6v-13.1H547.3z"/>
		<path class="st3" d="M704.6,593.5h-0.7v-6.9c0-0.7-0.3-1-1-1h-33.2c-1.2,0-2,0.3-2.5,0.8s-0.7,1.3-0.7,2.2v1.6
			c0,1.2,0.2,2,0.6,2.3c0.4,0.3,1.2,0.6,2.3,0.8l39.1,5.5c2.5,0.3,4.6,0.9,6.3,1.6c1.7,0.7,3.1,1.7,4.2,2.9c1.1,1.2,1.9,2.6,2.3,4.4
			c0.5,1.7,0.7,3.8,0.7,6.1v5c0,2.6-0.3,4.9-1,6.9c-0.6,2-1.7,3.7-3.1,5c-1.4,1.4-3.3,2.4-5.7,3.1c-2.4,0.7-5.3,1-8.7,1h-56.1v-16.4
			h50.3c1.5,0,2.5-0.3,3-0.8s0.7-1.5,0.7-2.9V613c0-1.1-0.2-1.9-0.6-2.3c-0.4-0.4-1.1-0.7-2.2-0.8L661,605c-2.5-0.3-4.7-0.9-6.5-1.6
			c-1.8-0.7-3.3-1.6-4.5-2.8s-2-2.6-2.5-4.2c-0.5-1.7-0.8-3.7-0.8-6V586c0-4.6,1.2-8.1,3.6-10.6c2.4-2.5,6.5-3.8,12.1-3.8h56
			c1.8,0,2.7,0.9,2.7,2.8v13L704.6,593.5z"/>
		<path class="st3" d="M729.6,574.3c0-1.7,0.8-2.6,2.4-2.6h47.2c4.7,0,8.7,0.6,11.9,1.8c3.3,1.2,5.9,2.9,8,5c2,2.2,3.5,4.8,4.4,7.9
			c0.9,3.1,1.4,6.5,1.4,10.3v13c0,3.8-0.5,7.3-1.4,10.3c-0.9,3.1-2.4,5.7-4.4,7.9s-4.7,3.8-8,5s-7.3,1.8-11.9,1.8h-25.4l-5.7-14.7
			h-0.7v14.7h-17.8V574.3z M747.4,618.3h30.2c3.4,0,5.8-0.7,7.3-2.2c1.4-1.5,2.2-4.2,2.2-8v-10.6c0-3.9-0.7-6.6-2.2-8
			c-1.4-1.4-3.9-2.1-7.3-2.1h-28.9c-0.4,0-0.7,0.1-1,0.4c-0.2,0.3-0.3,0.6-0.3,0.9V618.3z"/>
		<path class="st3" d="M829.9,571.7v25.5h0.6l33-25.5h24.2v0.7l-37.1,27.9l39.2,33.7v0.7h-24.5l-34.8-30.3h-0.6v30.3h-17.8v-63
			L829.9,571.7L829.9,571.7z"/>
	</g>
</g>
</svg>
