<?xml version="1.0" encoding="utf-8"?>
<!-- Generator: Adobe Illustrator 22.1.0, SVG Export Plug-In . SVG Version: 6.00 Build 0)  -->
<svg version="1.1" id="Layer_1" xmlns="http://www.w3.org/2000/svg" xmlns:xlink="http://www.w3.org/1999/xlink" x="0px" y="0px"
	 viewBox="0 0 1245 237" style="enable-background:new 0 0 1245 237;" xml:space="preserve">
<style type="text/css">
	.st0{fill:#FFCC3E;}
	.st1{fill:#D19705;}
	.st2{fill:#FFE36C;}
	.st3{fill:#E29C00;}
	.st4{fill:#5B5B5B;}
</style>
<g>
	<g>
		<g>
			<polygon class="st0" points="110.3,115.6 69.8,92.2 110.3,69.2 153,92.4 			"/>
		</g>
		<g>
			<polygon class="st1" points="69.3,92.4 69.3,143.3 110.5,167.2 111.4,116.7 			"/>
		</g>
		<g>
			<polygon class="st2" points="111.4,116.7 153.4,92.4 153.4,141 111.4,167.6 			"/>
		</g>
		<path class="st3" d="M111.2,11.8L21.1,63.2L20.4,167l89.6,52.4l1.5-0.9h0.3v-0.2l88.3-50.5l0.7-103.1V64L111.2,11.8z M113.7,116.4
			l84.8-49.2l-0.6,97.6L113.7,116.4z M25.2,63.5l84.1-47.9v99.3L25.2,63.5z M107.2,116.3l-84.4,48.6l0.6-99.8L107.2,116.3z
			 M109,117.4l0.3,0.2l0.2,98.8l-85.5-50L109,117.4z M111.2,115V14.6L197.8,65l-86.4,50.1L111.2,115z M111.7,117.6L111.7,117.6
			l85.6,49.2l-85.4,48.9L111.7,117.6z"/>
	</g>
	<g>
		<g>
			<g>
				<path class="st4" d="M252.3,155.9h-29.8V78.3c0-4.3,2.8-7.2,7-7.2h63c8.3,0,14.3,2,18.3,6c4,4,6,9.5,6,16.3v6.7
					c0,4-0.9,7.2-2.6,9.6c-0.4,0.7-0.9,1.3-1.4,1.9c1,0.9,1.8,2,2.6,3.1c1.9,2.9,2.9,6.3,2.9,10.5v6.7c0,7.3-1.9,13.1-5.6,17.3
					c-3.8,4.3-10.1,6.5-18.7,6.5h-41.8l0-0.1V155.9z M230.5,147.9h13.8v-32.5H286c2,0,4.9,0.3,7.1,2.5l0.3,0.3
					c1.4,1.7,2.1,4.1,2.1,7.3v2.3c0,2.2-0.3,5.4-2.5,7.6c-1.6,1.6-4,2.5-6.9,2.5h-32l3.7,9.8h36.2c6.1,0,10.5-1.3,12.7-3.7
					c2.4-2.7,3.6-6.7,3.6-12.1v-6.7c0-2.5-0.5-4.5-1.5-5.9c-1.1-1.6-2.5-2.9-4.1-3.7l-6.1-3l5.6-3.8c1.3-0.9,2.3-2,3.2-3.3l0.1-0.2
					c0.7-1,1.1-2.8,1.1-5.1v-6.7c0-4.7-1.2-8.2-3.6-10.7c-2.4-2.4-6.7-3.6-12.7-3.6h-62V147.9z M252.3,129.9h33.8
					c0.6,0,1-0.1,1.2-0.2c0.1-0.2,0.2-0.8,0.2-1.9v-2.3c0-1.1-0.1-1.7-0.2-2c-0.2,0-0.6-0.1-1.3-0.1h-33.7V129.9z M287.5,129.7
					L287.5,129.7L287.5,129.7z M284.6,110.9h-40.4V94c0-3.4,2.4-5.8,5.8-5.8l34.6-0.1c3.5,0,6.2,0.9,7.9,2.7
					c1.8,1.8,2.7,4.3,2.7,7.7v2.3c0,3.5-0.9,6.1-2.8,7.8l-0.3,0.3C290.1,110.2,287.7,110.9,284.6,110.9z M252.2,102.9h32.4
					c1,0,1.9-0.1,2.4-0.4c0.1-0.2,0.2-0.8,0.2-1.7v-2.3c0-1.6-0.3-2-0.3-2.1l0,0c0,0-0.6-0.3-2.3-0.3l-32.4,0.1V102.9z"/>
			</g>
			<g>
				<path class="st4" d="M345.2,155.9h-27.1V90h27.1V155.9z M326.1,147.9h11.1V98h-11.1V147.9z M345.2,88.9h-27.1V65.7h27.1V88.9z
					 M326.1,80.9h11.1v-7.2h-11.1V80.9z"/>
			</g>
			<g>
				<path class="st4" d="M401.5,155.8h-27.8c-4.8,0-8.9-0.6-12.3-1.8c-3.6-1.3-6.6-3.2-8.9-5.6c-2.3-2.5-4.1-5.5-5-8.8
					c-0.9-2.9-1.4-6.3-1.4-10.7V117c0-3.8,0.5-7.4,1.4-10.5l0-0.1c1.1-3.4,2.7-6.3,4.9-8.8c2.2-2.4,5-4.2,8.8-5.7
					c3.4-1.3,7.5-1.9,12.4-1.9h27.8c4.8,0,8.9,0.6,12.3,1.8c3.5,1.3,6.5,3.2,8.9,5.5c2.4,2.4,4.1,5.5,5.1,9
					c0.9,2.9,1.4,6.3,1.4,10.5v11.9c0,3.9-0.5,7.5-1.4,10.6l0,0.1c-1.1,3.5-2.8,6.4-5,8.7l-0.1,0.1c-2.4,2.4-5.4,4.3-8.9,5.5
					C410.5,155.2,406.4,155.8,401.5,155.8z M355.1,108.8c-0.7,2.4-1,5.2-1,8.2v11.9c0,3.5,0.3,6.1,1,8.3l0,0.1c0.6,2,1.7,4,3.2,5.5
					c1.4,1.5,3.4,2.7,5.8,3.6c2.6,0.9,5.7,1.4,9.6,1.4h27.8c3.9,0,7.2-0.5,9.6-1.4c2.3-0.9,4.4-2.1,5.9-3.6c1.4-1.4,2.4-3.3,3.1-5.6
					c0.7-2.4,1-5.2,1-8.3V117c0-3.4-0.3-6.1-1-8.2l0-0.2c-0.6-2.2-1.7-4.1-3.1-5.5c-1.5-1.5-3.6-2.8-5.9-3.7
					c-2.6-0.9-5.7-1.4-9.6-1.4h-27.8c-4,0-7.1,0.4-9.6,1.4c-2.6,1-4.4,2.1-5.7,3.5C356.9,104.6,355.9,106.4,355.1,108.8z M398,138.8
					h-4v-0.1h-16.6c-4,0-7.1-1-9-3c-1.9-1.9-2.9-5.1-2.9-9.5V118c0-4.6,0.9-7.7,2.7-9.7c1.9-2.2,4.9-3.3,9.2-3.3h20.7
					c4.9,0,7.6,1.7,9,3.1l0.2,0.2c1.9,2.2,2.8,5.3,2.8,9.8v8.2c0,4.4-1,7.5-3,9.5C405.1,137.8,402.1,138.8,398,138.8z M377.4,113
					c-2.5,0-3.2,0.5-3.2,0.5l-0.1,0.1c0,0-0.6,0.8-0.6,4.4v8.2c0,3.1,0.6,3.9,0.6,3.9c0.1,0.1,1.1,0.6,3.3,0.6h22.3
					c1.1-0.1,1.6-0.4,1.7-0.5c0,0,0.6-0.7,0.6-3.9v-8.2c0-2.9-0.5-4.1-0.7-4.5c-0.4-0.3-1.4-0.6-3.3-0.6H377.4z"/>
			</g>
			<g>
				<path class="st4" d="M485.5,155.8h-29.7V98.3h-30.5l-8.4-21.7V71h105.7c4.3,0,7,2.8,7,7.2V101l-23.4,8.6h-5.6V98.2h-15.1V155.8z
					 M463.8,147.8h13.7V98.3h-0.2v-8l4-0.1h22.1c3,0,5.2,2.2,5.2,5.2v4.8l13-4.8V79h-95.2l4.4,11.3h33.1V147.8z"/>
			</g>
			<g>
				<path class="st4" d="M555.7,155.9h-27.1V65.7h27.2V90h24.1c4.8,0,8.9,0.6,12.3,1.8c3.6,1.3,6.6,3.2,8.9,5.6
					c2.2,2.4,3.9,5.4,4.9,8.8c0.9,2.9,1.4,6.3,1.4,10.7v38.8h-27.1v-37.6c0-3-0.6-4-0.9-4.3c-0.2-0.2-0.7-0.7-3.3-0.7h-20.4V155.9z
					 M536.6,147.9h11.1V96.7h0.1v-23h-11.2V147.9z M588.3,147.7h11.1v-30.8c0-3.5-0.3-6.1-1-8.3l0-0.1c-0.6-2.2-1.7-4.1-3.1-5.5
					c-1.4-1.5-3.4-2.7-5.8-3.6c-2.6-0.9-5.7-1.4-9.6-1.4h-24.4l2.7,7.1h17.9c2.5,0,6.2,0.3,8.9,3.1c2.2,2.2,3.3,5.4,3.3,9.9V147.7z"
					/>
			</g>
			<g>
				<path class="st4" d="M636.1,155.9H609V90h27.1V155.9z M617,147.9h11.1V98H617V147.9z M636.1,88.9H609V65.7h27.1V88.9z M617,80.9
					h11.1v-7.2H617V80.9z"/>
			</g>
			<g>
				<path class="st4" d="M664.8,155.9h-27.1V90h51.4c4.8,0,8.9,0.6,12.3,1.8c3.6,1.3,6.6,3.2,8.9,5.6c2.2,2.4,3.9,5.4,4.9,8.8
					c0.9,2.9,1.4,6.3,1.4,10.7v38.8h-27.1v-37.6c0-3.2-0.6-4.2-0.8-4.4c-0.2-0.2-1.1-0.6-3.3-0.6h-20.6V155.9z M645.7,147.9h11.1V98
					h-11.1V147.9z M697.5,147.7h11.1v-30.8c0-3.5-0.3-6.1-1-8.3l0-0.1c-0.6-2.2-1.7-4.1-3.1-5.5c-1.4-1.5-3.4-2.7-5.8-3.6
					c-2.6-0.9-5.7-1.4-9.6-1.4h-24.3l2.7,7.1h17.9c4.2,0,7.2,1,9.1,3.2c2,2.2,3,5.3,3,9.8V147.7z"/>
			</g>
			<g>
				<path class="st4" d="M767.8,179.6H719v-24.1h0.3l4-0.1h41.9c2.2,0,2.7-0.5,2.8-0.5c0.2-0.2,0.5-1,0.5-3.1v-0.6h-24.1
					c-9.8,0-16.7-2.1-21.1-6.3l-0.1-0.1c-4.4-4.4-6.6-10.6-6.6-18.6v-9.1c0-3.9,0.5-7.5,1.4-10.6l0-0.1c1.1-3.5,2.8-6.4,5-8.7
					l0.1-0.1c2.3-2.3,5.3-4.2,8.7-5.5c3.4-1.3,7.5-1.9,12.4-1.9h42c5.7,0,9.2,3.5,9.2,9.2V153c0,3.8-0.5,7.3-1.4,10.4l0,0.1
					c-1.1,3.5-2.6,6.2-4.7,8.6l-0.1,0.1c-2.2,2.4-5.3,4.3-8.8,5.6C777,179,772.9,179.6,767.8,179.6z M727,171.6h40.8
					c4.1,0,7.3-0.4,9.8-1.4c2.4-0.9,4.3-2.1,5.7-3.6c1.3-1.5,2.2-3.2,3-5.5c0.7-2.4,1-5.2,1-8.1V99.4c0-0.6-0.1-0.9-0.1-1.1
					c-0.1,0-0.4-0.1-1.1-0.1h-42c-3.9,0-7.2,0.5-9.6,1.4c-2.3,0.9-4.3,2.1-5.8,3.6c-1.4,1.4-2.4,3.3-3.1,5.6c-0.7,2.4-1,5.2-1,8.3
					v9.1c0,5.8,1.4,10.1,4.2,12.9c2.9,2.7,8,4.1,15.6,4.1h22.4l-3-7.5h-15.9c-4.2,0-7.1-0.9-9.1-2.8c-2-1.9-3-5-3-9.4v-5.4
					c0-4.4,1-7.7,3-9.8c2-2.1,5.1-3.2,9.2-3.2h22.7c3.4,0,5.8,2.4,5.8,5.8v40.9c0,3.8-0.9,6.6-2.7,8.5c-1.9,2.1-4.8,3.1-8.6,3.1
					h-37.9v0.1H727V171.6z M748,113.1c-2.7,0-3.4,0.6-3.4,0.6c0,0-0.8,0.9-0.8,4.4v5.4c0,2.8,0.6,3.6,0.6,3.6
					c0.1,0.1,0.8,0.6,3.5,0.6h20.6v-14.6H748z"/>
			</g>
			<g>
				<path class="st4" d="M854.1,155.4H797v-15.8h-0.3v-8.2h8.3v0.2h26.9l-19.3-1.6c-5.6-0.5-9.8-2.4-12.4-5.5
					c-2.7-3.1-4.1-7.2-4.1-12.2v-4.6c0-5.3,1.6-9.6,4.6-12.8c3.1-3.3,7.9-4.9,14.2-4.9H867c3.9,0,6.7,2.8,6.7,6.7v16l-8.5,3.2
					c0.2,0.1,0.3,0.1,0.5,0.2c2.2,1,4,2.3,5.4,3.9c1.4,1.7,2.4,3.7,2.9,5.9c0.5,2,0.7,4.3,0.7,6.7v4.3c0,5.7-1.6,10.2-4.8,13.5
					C866.7,153.8,861.6,155.4,854.1,155.4z M805,147.4h49.1c5,0,8.4-0.9,10-2.5l0.1-0.1c1.7-1.7,2.5-4.3,2.5-7.9v-4.3
					c0-1.8-0.2-3.5-0.5-4.9c-0.2-1.1-0.7-1.9-1.3-2.7c-0.6-0.7-1.4-1.2-2.4-1.7c-0.7-0.3-2.2-0.8-4.8-1l-37-3.5
					c-1.4-0.2-2.4-0.7-2.9-0.9l-0.4-0.2l-0.3-0.2c-2.1-1.6-2.1-4-2.1-5.1v-1.6c0-2.1,0.6-3.8,1.8-4.9c1.8-1.8,4.2-1.8,5-1.8h30.1
					c2.3,0,4.7,1.7,4.7,4.9v1.5l9.1-3.4V98l-50.9,0c-4,0-6.9,0.9-8.4,2.5c-1.6,1.7-2.4,4-2.4,7.2v4.6c0,3,0.7,5.3,2.2,7
					c1.3,1.5,3.6,2.4,7.1,2.8l36,3c2.2,0.3,3.7,1.1,4.6,2.5c0.7,1,1,2.3,1,3.8v1.2c0,2-0.5,3.6-1.5,4.8c-1.2,1.5-3,2.2-5.4,2.2h-43
					V147.4z M834,112.1l14.6,1.4v-1.4H834z"/>
			</g>
			<g>
				<path class="st4" d="M991.1,156h-72.3v-28H984c0.2,0,0.4,0,0.6,0c0-0.1,0-0.3,0-0.5v-1.9l-45.7-6c-3.1-0.4-6.1-1.1-8.7-2.1
					l-0.1-0.1c-3-1.2-5.1-2.5-6.8-4.3c-1.8-1.8-3.1-4-4-6.7l0-0.1c-0.8-2.7-1.2-5.5-1.2-8.4v-5.4c0-6.6,1.9-11.9,5.5-15.7
					c3.7-3.9,9.6-5.8,17.6-5.8h68.2c4.4,0,7.3,2.9,7.3,7.4V97l-19.4,7.2l0.4,0.1c3,0.4,5.9,1.1,8.6,2.1l0.2,0.1
					c2.6,1.1,4.7,2.6,6.5,4.5c1.8,2,3.1,4.4,3.7,7.1c0.7,2.4,1,5.2,1,8.4v6.1c0,3.6-0.5,6.8-1.4,9.6c-0.9,2.9-2.5,5.6-4.8,7.8
					c-2.1,2.1-4.9,3.6-8.5,4.7C999.9,155.6,996.1,156,991.1,156z M926.8,148h64.3c4.1,0,7.2-0.3,9.4-1c2.4-0.7,4.1-1.7,5.3-2.8
					l0.1-0.1c1.3-1.2,2.2-2.7,2.7-4.3l0-0.1c0.7-2,1-4.4,1-7.1v-6.1c0-2.4-0.3-4.6-0.7-6.3l-0.1-0.2c-0.3-1.4-0.9-2.6-1.8-3.6
					c-0.9-1-2.2-1.9-3.7-2.5c-2-0.8-4.3-1.3-6.7-1.6l-48-6.8c-1.8-0.4-3.3-0.9-4.4-1.8c-2.2-1.8-2.2-4.7-2.2-5.9v-1.9
					c0-2.2,0.7-4.2,2.1-5.5c1.4-1.4,3.4-2.2,5.8-2.2h40.4c3.1,0,5.2,2.1,5.2,5.2v3l13.1-4.9V79h-67.5c-5.5,0-9.7,1.2-11.8,3.4
					c-2.2,2.2-3.3,5.7-3.3,10.1v5.4c0,2.2,0.3,4.2,0.8,6.1c0.5,1.5,1.1,2.5,2,3.4c1,1,2.2,1.7,4.1,2.5c2.1,0.8,4.5,1.3,7,1.7l45.7,6
					c2.1,0.2,3.9,0.9,5.1,2.2c1.9,1.9,1.9,4.7,1.9,5.6v2.1c0,2.9-0.7,4.9-2.1,6.3l-0.2,0.2c-1.5,1.3-3.6,2-6.3,2h-57.2V148z
					 M984.5,128.7L984.5,128.7L984.5,128.7z M985.4,125.7L985.4,125.7L985.4,125.7z M950.2,97.6l37.3,5.2v-6.7H950v1.4
					C950.1,97.5,950.2,97.5,950.2,97.6z M1008.6,78.1L1008.6,78.1z"/>
			</g>
			<g>
				<path class="st4" d="M1083.2,155.7h-33.6l-1.1-2.7v2.7h-29.7V78.3c0-4.3,2.8-7.2,6.9-7.2h57.5c6.3,0,11.7,0.8,15.9,2.5
					c4.6,1.7,8.2,4,11.1,7.1l0.1,0.1c3,3.4,5.1,7,6.3,11.1c1.2,4.3,1.9,8.8,1.9,13.6v15.8c0,4.9-0.6,9.7-1.9,13.7
					c-1.2,4.2-3.3,7.9-6.3,11.1c-2.6,2.9-6.3,5.3-11.2,7.1C1094.8,154.9,1089.4,155.7,1083.2,155.7z M1055,147.7h28.2
					c5.2,0,9.7-0.7,13.1-1.9c3.7-1.4,6.3-3,8.1-5c2.2-2.4,3.6-4.9,4.5-8.1c1-3.3,1.5-7.2,1.5-11.4v-15.8c0-4.1-0.5-7.8-1.5-11.4
					c-0.8-2.9-2.3-5.5-4.5-8c-2.1-2.1-4.7-3.8-8.2-5.1c-3.4-1.3-7.8-1.9-13.1-1.9h-56.4v68.6h13.7V95.9c0-1.3,0.5-2.3,0.8-2.8
					l0.2-0.5l0.2-0.3c0.7-1,2.1-2.1,4.4-2.1h35.2c5.3,0,9.2,1.3,11.7,3.7c2.6,2.5,3.9,6.6,3.9,12.6v12.9c0,5.5-1.3,9.8-3.8,12.4
					l-0.1,0.1c-2.6,2.6-6.5,3.9-11.7,3.9h-30.8L1055,147.7z M1048.5,127.9h32.8c2.9,0,5-0.5,6-1.5c0.8-0.9,1.6-3.1,1.6-6.9v-12.9
					c0-5-1.1-6.5-1.4-6.8l-0.1-0.1c-0.7-0.7-2.6-1.4-6.1-1.4h-32.8V127.9z"/>
			</g>
			<g>
				<path class="st4" d="M1222,155.9h-35.3l-37.6-32.7v32.7h-29.7V71.1h29.6v27.5l35.5-27.5h34.9V78l-42.8,32.2l45.4,39V155.9z
					 M1189.7,147.9h18.5l-44.4-38.1l40.8-30.7h-17.4l-40.2,31.1h-6.1V79.1h-13.6v68.8h13.7V111h6.2L1189.7,147.9z"/>
			</g>
		</g>
		<g>
			<g>
				<path class="st0" d="M248.3,136.2v15.7h-21.8V78.3c0-2.1,1-3.2,3-3.2h63c7.2,0,12.3,1.6,15.5,4.8c3.2,3.2,4.8,7.7,4.8,13.5v6.7
					c0,3-0.6,5.6-1.9,7.4c-1.2,1.9-2.7,3.4-4.3,4.5c2.2,1.1,4.1,2.8,5.6,5s2.2,4.9,2.2,8.2v6.7c0,6.5-1.6,11.3-4.6,14.7
					s-8.3,5.1-15.7,5.1h-39l-6-15.7h-0.7v0.2H248.3z M250,92.2c-1.2,0-1.8,0.6-1.8,1.8v12.9h36.4c2.4,0,4-0.5,5.1-1.3
					c1-0.9,1.5-2.4,1.5-4.8v-2.3c0-2.3-0.5-3.9-1.5-4.9s-2.7-1.5-5.1-1.5L250,92.2L250,92.2z M248.3,119.4v14.5h37.8
					c1.9,0,3.3-0.5,4.1-1.3c0.9-0.9,1.3-2.4,1.3-4.8v-2.3c0-2.2-0.4-3.8-1.2-4.8c-0.9-0.9-2.2-1.3-4.3-1.3L248.3,119.4L248.3,119.4z
					"/>
			</g>
			<g>
				<path class="st0" d="M322.1,84.9V69.7h19.1v15.2C341.2,84.9,322.1,84.9,322.1,84.9z M322.1,151.9V94h19.1v57.9H322.1z"/>
			</g>
			<g>
				<path class="st0" d="M425.2,128.9c0,3.5-0.4,6.7-1.2,9.5c-0.9,2.8-2.2,5.2-4.1,7.2c-1.9,1.9-4.4,3.5-7.4,4.6s-6.7,1.6-11,1.6
					h-27.8c-4.3,0-7.9-0.5-11-1.6c-3-1.1-5.5-2.7-7.3-4.6c-1.8-1.9-3.3-4.4-4.1-7.2c-0.9-2.8-1.2-6-1.2-9.5V117
					c0-3.4,0.4-6.6,1.2-9.4c0.9-2.8,2.2-5.2,4.1-7.3c1.9-2.1,4.4-3.5,7.3-4.6c3-1.1,6.6-1.6,11-1.6h27.8c4.3,0,7.9,0.5,11,1.6
					c3,1.1,5.5,2.7,7.4,4.6s3.3,4.4,4.1,7.3c0.9,2.8,1.2,6,1.2,9.4V128.9z M398,134.8c3,0,5.1-0.6,6.3-1.8c1.2-1.2,1.8-3.4,1.8-6.7
					v-8.2c0-3.5-0.6-5.8-1.8-7.2c-1.2-1.2-3.3-1.9-6.2-1.9h-20.7c-3,0-5.1,0.6-6.2,1.9c-1.2,1.3-1.7,3.7-1.7,7.1v8.2
					c0,3.3,0.6,5.6,1.7,6.7c1.2,1.2,3.3,1.8,6.2,1.8L398,134.8L398,134.8z"/>
			</g>
			<g>
				<path class="st0" d="M481.5,94.3v57.5h-21.7V94.3H428l-7.1-18.4V75h101.7c2.1,0,3,1.1,3,3.2v20l-20.1,7.4h-0.9V95.4
					c0-0.7-0.4-1.2-1.2-1.2h-22.1v0.1H481.5z"/>
			</g>
			<g>
				<path class="st0" d="M532.7,69.7h19.1V94h28.1c4.3,0,7.9,0.5,11,1.6c3,1.1,5.5,2.7,7.3,4.6s3.2,4.4,4,7.2c0.9,2.8,1.2,6,1.2,9.5
					v34.8h-19.1v-33.6c0-3.4-0.7-5.7-2.1-7.1s-3.4-1.9-6.1-1.9h-20.7l-3.2-8.4h-0.5v51.2h-19.1L532.7,69.7L532.7,69.7z"/>
			</g>
			<g>
				<path class="st0" d="M613,84.9V69.7h19.1v15.2C632.1,84.9,613,84.9,613,84.9z M613,151.9V94h19.1v57.9H613z"/>
			</g>
			<g>
				<path class="st0" d="M641.8,94h47.3c4.3,0,7.9,0.5,11,1.6c3,1.1,5.5,2.7,7.3,4.6s3.2,4.4,4,7.2c0.9,2.8,1.2,6,1.2,9.5v34.8
					h-19.1v-33.6c0-3.4-0.6-5.7-1.9-7.1c-1.2-1.3-3.3-1.9-6.2-1.9h-20.7l-3.2-8.4h-0.7v51.2h-19.1V94H641.8z"/>
			</g>
			<g>
				<path class="st0" d="M723.3,159.4h41.9c2.7,0,4.6-0.6,5.7-1.8c1.1-1.2,1.6-3.2,1.6-5.8v-4.6h-28.1c-8.7,0-14.7-1.7-18.4-5.2
					c-3.5-3.5-5.4-8.8-5.4-15.8v-9.1c0-3.5,0.4-6.7,1.2-9.5c0.9-2.8,2.2-5.2,4.1-7.2c1.9-1.9,4.4-3.5,7.3-4.6c3-1.1,6.7-1.6,11-1.6
					h42c3.5,0,5.2,1.7,5.2,5.2V153c0,3.4-0.4,6.5-1.2,9.3c-0.9,2.8-2.1,5.1-3.9,7.1c-1.8,1.9-4.3,3.5-7.3,4.6s-6.7,1.6-11.2,1.6H723
					v-16.1h0.3V159.4z M771.8,144.9h0.7v-34c0-1.2-0.6-1.8-1.8-1.8H748c-2.9,0-5.1,0.6-6.3,1.9s-1.9,3.7-1.9,7.1v5.4
					c0,3.2,0.6,5.4,1.8,6.5c1.2,1.2,3.4,1.7,6.3,1.7h18.6L771.8,144.9z"/>
			</g>
			<g>
				<path class="st0" d="M800.7,135.6H848c1.1,0,1.9-0.2,2.3-0.7c0.4-0.5,0.6-1.2,0.6-2.3v-1.2c0-0.7-0.1-1.3-0.4-1.7
					c-0.2-0.4-0.9-0.6-1.7-0.7l-35.9-3c-4.4-0.4-7.7-1.7-9.7-4.1c-2.1-2.4-3.2-5.6-3.2-9.6v-4.6c0-4.3,1.2-7.6,3.5-10
					s6.1-3.7,11.3-3.7H867c1.7,0,2.7,0.9,2.7,2.7v13.2l-16.4,6.1h-0.7v-7c0-0.6-0.2-0.9-0.7-0.9h-30.1c-1.1,0-1.8,0.2-2.2,0.6
					s-0.6,1.1-0.6,2.1v1.6c0,1,0.1,1.6,0.5,1.9c0.4,0.2,0.9,0.5,1.7,0.6l36.8,3.5c2.4,0.2,4.5,0.6,6.1,1.3c1.6,0.7,2.9,1.6,3.9,2.8
					c1,1.2,1.7,2.6,2.1,4.3c0.4,1.7,0.6,3.7,0.6,5.8v4.3c0,4.6-1.2,8.2-3.7,10.7c-2.4,2.6-6.7,3.8-12.9,3.8H801v-16h-0.3V135.6z"/>
			</g>
			<g>
				<path class="st2" d="M992.4,101.7h-0.9v-8.4c0-0.9-0.4-1.2-1.2-1.2h-40.4c-1.5,0-2.4,0.4-3,1s-0.9,1.6-0.9,2.7v1.9
					c0,1.5,0.2,2.4,0.7,2.8s1.5,0.7,2.8,1l47.6,6.7c3,0.4,5.6,1.1,7.7,1.9c2.1,0.9,3.8,2.1,5.1,3.5s2.3,3.2,2.8,5.4
					c0.6,2.1,0.9,4.6,0.9,7.4v6.1c0,3.2-0.4,6-1.2,8.4c-0.7,2.4-2.1,4.5-3.8,6.1c-1.7,1.7-4,2.9-6.9,3.8c-2.9,0.9-6.5,1.2-10.6,1.2
					h-68.3v-20H984c1.8,0,3-0.4,3.7-1c0.6-0.6,0.9-1.8,0.9-3.5v-2.1c0-1.3-0.2-2.3-0.7-2.8s-1.3-0.9-2.7-1l-45.8-6
					c-3-0.4-5.7-1.1-7.9-1.9c-2.2-0.9-4-1.9-5.5-3.4s-2.4-3.2-3-5.1c-0.6-2.1-1-4.5-1-7.3v-5.4c0-5.6,1.5-9.9,4.4-12.9
					s7.9-4.6,14.7-4.6h68.2c2.2,0,3.3,1.1,3.3,3.4v15.8L992.4,101.7z"/>
			</g>
			<g>
				<path class="st2" d="M1022.8,78.3c0-2.1,1-3.2,2.9-3.2h57.5c5.7,0,10.6,0.7,14.5,2.2c4,1.5,7.2,3.5,9.7,6.1
					c2.4,2.7,4.3,5.8,5.4,9.6c1.1,3.8,1.7,7.9,1.7,12.5v15.8c0,4.6-0.6,8.9-1.7,12.5c-1.1,3.8-2.9,6.9-5.4,9.6
					c-2.4,2.7-5.7,4.6-9.7,6.1s-8.9,2.2-14.5,2.2h-30.9l-6.9-17.9h-0.9v17.9h-21.7L1022.8,78.3L1022.8,78.3z M1044.5,131.9h36.8
					c4.1,0,7.1-0.9,8.9-2.7c1.7-1.8,2.7-5.1,2.7-9.7v-12.9c0-4.8-0.9-8-2.7-9.7c-1.7-1.7-4.8-2.6-8.9-2.6h-35.2
					c-0.5,0-0.9,0.1-1.2,0.5c-0.2,0.4-0.4,0.7-0.4,1.1L1044.5,131.9L1044.5,131.9z"/>
			</g>
			<g>
				<path class="st2" d="M1145,75.1v31.1h0.7l40.2-31.1h29.5V76l-45.2,34l47.8,41v0.9h-29.8l-42.4-36.9h-0.7v36.9h-21.7V75.1H1145
					L1145,75.1z"/>
			</g>
		</g>
	</g>
</g>
</svg>
