<?xml version="1.0" encoding="utf-8"?>
<!-- Generator: Adobe Illustrator 22.1.0, SVG Export Plug-In . SVG Version: 6.00 Build 0)  -->
<svg version="1.1" id="Layer_1" xmlns="http://www.w3.org/2000/svg" xmlns:xlink="http://www.w3.org/1999/xlink" x="0px" y="0px"
	 viewBox="0 0 100 100" style="enable-background:new 0 0 100 100;" xml:space="preserve">
<style type="text/css">
	.st0{enable-background:new    ;}
	.st1{fill:#FFCC3E;}
	.st2{fill:#FFE36C;}
	.st3{fill:#D19705;}
	.st4{fill:#D19706;}
</style>
<g>
	<g class="st0">
		<g>
			<polygon class="st1" points="69.5,14 43.6,50.5 7.1,50.5 32.9,14 			"/>
		</g>
		<g>
			<polygon class="st2" points="69.5,14 95.3,50.5 69.5,87.1 43.6,50.5 			"/>
		</g>
		<g>
			<polygon class="st3" points="43.6,50.5 69.5,87.1 32.9,87.1 7.1,50.5 			"/>
		</g>
	</g>
</g>
<path class="st4" d="M74.5,25.6h-2.4C71.8,15,63.4,6.4,52.8,6V4.3h-0.9V6c-10.8,0.1-19.6,8.8-19.8,19.6h-2v0.9h2
	c0.2,10.7,9,19.4,19.7,19.5v2.7h1V46c10.5-0.4,19-8.9,19.3-19.5h2.4V25.6z M71.1,25.6H52.8V7C62.8,7.4,70.9,15.5,71.1,25.6z M51.9,7
	v18.6H33C33.3,15.4,41.6,7.1,51.9,7z M33,26.5h18.8v18.6C41.6,45,33.3,36.7,33,26.5z M52.8,45.1V26.5h18.4
	C70.9,36.6,62.8,44.7,52.8,45.1z"/>
</svg>
