<?xml version="1.0" encoding="utf-8"?>
<!-- Generator: Adobe Illustrator 22.1.0, SVG Export Plug-In . SVG Version: 6.00 Build 0)  -->
<svg version="1.1" id="Layer_1" xmlns="http://www.w3.org/2000/svg" xmlns:xlink="http://www.w3.org/1999/xlink" x="0px" y="0px"
	 viewBox="0 0 6004 2054" style="enable-background:new 0 0 6004 2054;" xml:space="preserve">
<style type="text/css">
	.st0{enable-background:new    ;}
	.st1{fill:none;stroke:#FFC943;stroke-miterlimit:10;}
	.st2{fill:#FFE3A6;stroke:#FFC943;stroke-miterlimit:10;}
	.st3{fill:#FFC648;stroke:#FFC943;stroke-miterlimit:10;}
	.st4{fill:#FFDC8F;stroke:#FFC943;stroke-miterlimit:10;}
	.st5{fill:#FFF9EE;stroke:#FFC943;stroke-miterlimit:10;}

	<!-- @keyframes Ani {
    0% {
        transform: scale(1);
				transform-origin: center;
    }
		50% {
        transform: scale(.9);
				transform-origin: center;
    }
		100% {
        transform: scale(1);
				transform-origin: center;
    }
}

		.Ani {
		    animation: Ani 3s ease-in-out infinite;
		    -webkit-animation: Ani 3s ease-in-out infinite;
				animation-play-state: running;
		}

		.Ani2 {
		    animation: Ani 5s ease-in-out infinite;
		    -webkit-animation: Ani 5s ease-in-out infinite;
				animation-play-state: running;
		} -->
</style>
<g>
	<g>
		<g class="st0">
			<g>
				<polygon class="st1" points="1073.7,380.9 915.7,604.3 692.3,604.3 850.3,380.9 				"/>
			</g>
			<g>
				<polygon class="st1" points="1073.7,380.9 1231.7,604.3 1073.7,827.7 915.7,604.3 				"/>
			</g>
			<g>
				<polygon class="st2 Ani" points="915.7,604.3 1073.7,827.7 850.3,827.7 692.3,604.3 				"/>
			</g>
		</g>
	</g>
	<g>
		<g class="st0">
			<g>
				<polygon class="st1" points="1453.4,607.3 1297.5,827.8 1074,827.8 1232,604.3 1451.3,604.3 				"/>
				<polygon class="st1" points="1455.5,604.3 1453.4,607.3 1451.3,604.3 				"/>
			</g>
			<g>
				<polygon class="st1" points="1613.5,827.8 1455.5,1051.2 1297.5,827.8 1453.4,607.3 1455.5,604.3 1609.2,821.8 				"/>
			</g>
			<g>
				<polygon class="st1" points="1455.5,1051.2 1232,1051.2 1074,827.8 1297.5,827.8 				"/>
			</g>
		</g>
	</g>
	<g>
		<g class="st0">
			<g>
				<polygon class="st1" points="1455.5,1504.1 1297.5,1727.6 1074,1727.6 1232,1504.1 				"/>
			</g>
			<g>
				<polygon class="st1" points="1455.5,1504.1 1613.5,1727.6 1455.5,1951 1297.5,1727.6 				"/>
			</g>
			<g>
				<polygon class="st1" points="1297.5,1727.6 1455.5,1951 1232,1951 1074,1727.6 				"/>
			</g>
		</g>
	</g>
	<g>
		<g class="st0">
			<g>
				<polygon class="st1" points="688.1,1504.1 530.1,1727.6 306.7,1727.6 464.7,1504.1 				"/>
			</g>
			<g>
				<polygon class="st1" points="688.1,1504.1 846.1,1727.6 688.1,1951 530.1,1727.6 				"/>
			</g>
			<g>
				<polygon class="st1" points="530.1,1727.6 688.1,1951 464.7,1951 306.7,1727.6 				"/>
			</g>
		</g>
	</g>
	<g>
		<g class="st0">
			<g>
				<polygon class="st1" points="692,604.3 534,827.8 310.5,827.8 468.5,604.3 				"/>
			</g>
			<g>
				<polygon class="st1" points="692,604.3 850,827.8 692,1051.2 534,827.8 				"/>
			</g>
			<g>
				<polygon class="st1" points="534,827.8 692,1051.2 468.5,1051.2 310.5,827.8 				"/>
			</g>
		</g>
	</g>
	<g>
		<g class="st0">
			<g>
				<polygon class="st1" points="692,1051.3 534,1274.7 310.5,1274.7 468.5,1051.3 				"/>
			</g>
			<g>
				<polygon class="st3" points="692,1051.3 850,1274.7 692,1498.1 534,1274.7 				"/>
			</g>
			<g>
				<polygon class="st1" points="534,1274.7 692,1498.1 468.5,1498.1 310.5,1274.7 				"/>
			</g>
		</g>
	</g>
	<g>
		<g class="st0">
			<g>
				<polygon class="st1" points="1073.7,1274.7 915.7,1498.2 692.3,1498.2 850.3,1274.7 				"/>
			</g>
			<g>
				<polygon class="st1" points="1073.7,1274.7 1231.7,1498.2 1073.7,1721.6 915.7,1498.2 				"/>
			</g>
			<g>
				<polygon class="st1" points="915.7,1498.2 1073.7,1721.6 850.3,1721.6 692.3,1498.2 				"/>
			</g>
		</g>
	</g>
	<g>
		<g class="st0">
			<g>
				<polygon class="st1" points="1073.7,827.8 915.7,1051.2 692.3,1051.2 850.3,827.8 				"/>
			</g>
			<g>
				<polygon class="st1" points="1073.7,827.8 1231.7,1051.2 1073.7,1274.7 915.7,1051.2 				"/>
			</g>
			<g>
				<polygon class="st1" points="915.7,1051.2 1073.7,1274.7 850.3,1274.7 692.3,1051.2 				"/>
			</g>
		</g>
	</g>
	<g>
		<g class="st0">
			<g>
				<polygon class="st1" points="1828.5,374.9 1670.5,598.4 1447.1,598.4 1605,374.9 				"/>
			</g>
			<g>
				<polygon class="st1" points="1828.5,374.9 1986.5,598.4 1828.5,821.8 1670.5,598.4 				"/>
			</g>
			<g>
				<polygon class="st1" points="1828.5,821.8 1605.1,821.8 1453.4,607.3 1451.3,604.3 1447.1,598.4 1670.5,598.4 				"/>
			</g>
		</g>
	</g>
	<g>
		<g class="st0">
			<g>
				<polygon class="st1" points="1455.1,1052.9 1297.2,1276.4 1073.7,1276.4 1074.3,1275.6 1231.7,1052.9 				"/>
			</g>
			<g>
				<polygon class="st4  Ani2" points="1613.1,1276.4 1455.1,1499.8 1297.2,1276.4 1455.1,1052.9 				"/>
			</g>
			<g>
				<polygon class="st1" points="1455.1,1499.8 1231.7,1499.8 1231.1,1499 1073.7,1276.4 1297.2,1276.4 				"/>
			</g>
		</g>
	</g>
</g>
<g>
	<g>
		<g class="st0">
			<g>
				<polygon class="st1" points="5096.5,1654.1 5254.4,1430.6 5477.9,1430.6 5319.9,1654.1 				"/>
			</g>
			<g>
				<polygon class="st1" points="5096.5,1654.1 4938.5,1430.6 5096.5,1207.2 5254.4,1430.6 				"/>
			</g>
			<g>
				<polygon class="st2  Ani" points="5254.4,1430.6 5096.5,1207.2 5319.9,1207.2 5477.9,1430.6 				"/>
			</g>
		</g>
	</g>
	<g>
		<g class="st0">
			<g>
				<polygon class="st1" points="4716.8,1427.6 4872.7,1207.2 5096.1,1207.2 4938.1,1430.6 4718.9,1430.6 				"/>
				<polygon class="st1" points="4714.7,1430.6 4716.8,1427.6 4718.9,1430.6 				"/>
			</g>
			<g>
				<polygon class="st1" points="4556.7,1207.2 4714.7,983.7 4872.7,1207.2 4716.8,1427.6 4714.7,1430.6 4560.9,1213.1 				"/>
			</g>
			<g>
				<polygon class="st1" points="4714.7,983.7 4938.1,983.7 5096.1,1207.2 4872.7,1207.2 				"/>
			</g>
		</g>
	</g>
	<g>
		<g class="st0">
			<g>
				<polygon class="st1" points="4714.7,530.8 4872.7,307.4 5096.1,307.4 4938.1,530.8 				"/>
			</g>
			<g>
				<polygon class="st1" points="4714.7,530.8 4556.7,307.4 4714.7,83.9 4872.7,307.4 				"/>
			</g>
			<g>
				<polygon class="st1" points="4872.7,307.4 4714.7,83.9 4938.1,83.9 5096.1,307.4 				"/>
			</g>
		</g>
	</g>
	<g>
		<g class="st0">
			<g>
				<polygon class="st1" points="5482,530.8 5640,307.4 5863.5,307.4 5705.5,530.8 				"/>
			</g>
			<g>
				<polygon class="st1" points="5482,530.8 5324.1,307.4 5482,83.9 5640,307.4 				"/>
			</g>
			<g>
				<polygon class="st1" points="5640,307.4 5482,83.9 5705.5,83.9 5863.5,307.4 				"/>
			</g>
		</g>
	</g>
	<g>
		<g class="st0">
			<g>
				<polygon class="st1" points="5478.2,1430.6 5636.2,1207.2 5859.6,1207.2 5701.6,1430.6 				"/>
			</g>
			<g>
				<polygon class="st1" points="5478.2,1430.6 5320.2,1207.2 5478.2,983.7 5636.2,1207.2 				"/>
			</g>
			<g>
				<polygon class="st1" points="5636.2,1207.2 5478.2,983.7 5701.6,983.7 5859.6,1207.2 				"/>
			</g>
		</g>
	</g>
	<g>
		<g class="st0">
			<g>
				<polygon class="st1" points="5478.2,983.7 5636.2,760.2 5859.6,760.2 5701.6,983.7 				"/>
			</g>
			<g>
				<polygon class="st3  Ani2" points="5478.2,983.7 5320.2,760.2 5478.2,536.8 5636.2,760.2 				"/>
			</g>
			<g>
				<polygon class="st1" points="5636.2,760.2 5478.2,536.8 5701.6,536.8 5859.6,760.2 				"/>
			</g>
		</g>
	</g>
	<g>
		<g class="st0">
			<g>
				<polygon class="st1" points="5096.5,760.2 5254.4,536.8 5477.9,536.8 5319.9,760.2 				"/>
			</g>
			<g>
				<polygon class="st1" points="5096.5,760.2 4938.5,536.8 5096.5,313.3 5254.4,536.8 				"/>
			</g>
			<g>
				<polygon class="st1" points="5254.4,536.8 5096.5,313.3 5319.9,313.3 5477.9,536.8 				"/>
			</g>
		</g>
	</g>
	<g>
		<g class="st0">
			<g>
				<polygon class="st1" points="5096.5,1207.1 5254.4,983.7 5477.9,983.7 5319.9,1207.1 				"/>
			</g>
			<g>
				<polygon class="st5  Ani2" points="5096.5,1207.1 4938.5,983.7 5096.5,760.3 5254.4,983.7 				"/>
			</g>
			<g>
				<polygon class="st1" points="5254.4,983.7 5096.5,760.3 5319.9,760.3 5477.9,983.7 				"/>
			</g>
		</g>
	</g>
	<g>
		<g class="st0">
			<g>
				<polygon class="st1" points="4341.7,1660 4499.7,1436.6 4723.1,1436.6 4565.1,1660 				"/>
			</g>
			<g>
				<polygon class="st1" points="4341.7,1660 4183.7,1436.6 4341.7,1213.1 4499.7,1436.6 				"/>
			</g>
			<g>
				<polygon class="st1" points="4341.7,1213.1 4565.1,1213.1 4716.8,1427.6 4718.9,1430.6 4723.1,1436.6 4499.7,1436.6 				"/>
			</g>
		</g>
	</g>
	<g>
		<g class="st0">
			<g>
				<polygon class="st1" points="4715,982 4873,758.6 5096.5,758.6 5095.9,759.4 4938.5,982 				"/>
			</g>
			<g>
				<polygon class="st4  Ani" points="4557,758.6 4715,535.1 4873,758.6 4715,982 				"/>
			</g>
			<g>
				<polygon class="st1" points="4715,535.1 4938.5,535.1 4939,536 5096.5,758.6 4873,758.6 				"/>
			</g>
		</g>
	</g>
</g>
</svg>
