<?xml version="1.0" encoding="utf-8"?>
<!-- Generator: Adobe Illustrator 22.1.0, SVG Export Plug-In . SVG Version: 6.00 Build 0)  -->
<svg version="1.1" id="Layer_1" xmlns="http://www.w3.org/2000/svg" xmlns:xlink="http://www.w3.org/1999/xlink" x="0px" y="0px"
	 viewBox="0 0 1854 2054" style="enable-background:new 0 0 1854 2054;" xml:space="preserve">
<style type="text/css">
	.st0{enable-background:new    ;}
	.st1{fill:none;stroke:#FFEFAB;stroke-width:8;stroke-miterlimit:10;}
	.st2{fill:none;stroke:#FFEFAB;stroke-width:8;stroke-miterlimit:10;stroke-dasharray:12.1516,12.1516;}
	.st3{fill:none;stroke:#FFEFAB;stroke-width:8;stroke-miterlimit:10;stroke-dasharray:11.8946,11.8946;}
	.st4{fill:none;stroke:#FFEFAB;stroke-width:8;stroke-miterlimit:10;stroke-dasharray:12.1514,12.1514;}
	.st5{fill:#7F7F7F;stroke:#FFEFAB;stroke-width:8;stroke-miterlimit:10;}
	.st6{fill:#C6C6C6;stroke:#FFEFAB;stroke-width:8;stroke-miterlimit:10;}
	.st7{fill:#4C4C4C;stroke:#FFEFAB;stroke-width:8;stroke-miterlimit:10;}
</style>
<g>
	<g class="st0">
		<g>
			<polygon class="st1" points="874.2,153.5 705.9,391.5 467.9,391.5 636.2,153.5 			"/>
		</g>
		<g>
			<polygon class="st1" points="874.2,153.5 1042.5,391.5 874.2,629.5 705.9,391.5 			"/>
		</g>
		<g>
			<polygon class="st1" points="705.9,391.5 874.2,629.5 636.2,629.5 467.9,391.5 			"/>
		</g>
	</g>
</g>
<g>
	<g class="st0">
		<g>
			<polygon class="st1" points="1280.8,391.6 1112.5,629.6 874.5,629.6 1042.8,391.6 			"/>
		</g>
		<g>
			<polygon class="st1" points="1280.8,391.6 1449.1,629.6 1280.8,867.6 1112.5,629.6 			"/>
		</g>
		<g>
			<polygon class="st1" points="1112.5,629.6 1280.8,867.6 1042.8,867.6 874.5,629.6 			"/>
		</g>
	</g>
</g>
<g>
	<g class="st0">
		<g>
			<g>
				<g>
					<polyline class="st1" points="1274.8,1350 1280.8,1350 1277.4,1354.9 					"/>
					<line class="st2" x1="1270.3" y1="1364.8" x2="1119.5" y2="1578.1"/>
					<polyline class="st1" points="1116,1583.1 1112.5,1588 1106.5,1588 					"/>
					<line class="st3" x1="1094.6" y1="1588" x2="886.5" y2="1588"/>
					<polyline class="st1" points="880.5,1588 874.5,1588 878,1583.1 					"/>
					<line class="st2" x1="885" y1="1573.2" x2="1035.9" y2="1359.9"/>
					<polyline class="st1" points="1039.4,1354.9 1042.8,1350 1048.8,1350 					"/>
					<line class="st3" x1="1060.7" y1="1350" x2="1268.9" y2="1350"/>
				</g>
			</g>
		</g>
		<g>
			<g>
				<g>
					<polyline class="st1" points="1277.4,1354.9 1280.8,1350 1284.3,1354.9 					"/>
					<line class="st4" x1="1291.3" y1="1364.8" x2="1442.1" y2="1578.1"/>
					<polyline class="st1" points="1445.6,1583.1 1449.1,1588 1445.6,1592.9 					"/>
					<line class="st2" x1="1438.6" y1="1602.8" x2="1287.8" y2="1816.1"/>
					<polyline class="st1" points="1284.3,1821.1 1280.8,1826 1277.4,1821.1 					"/>
					<line class="st4" x1="1270.3" y1="1811.2" x2="1119.5" y2="1597.9"/>
					<polyline class="st1" points="1116,1592.9 1112.5,1588 1116,1583.1 					"/>
					<line class="st2" x1="1123" y1="1573.2" x2="1273.9" y2="1359.9"/>
				</g>
			</g>
		</g>
		<g>
			<g>
				<g>
					<polyline class="st1" points="1106.5,1588 1112.5,1588 1116,1592.9 					"/>
					<line class="st4" x1="1123" y1="1602.8" x2="1273.9" y2="1816.1"/>
					<polyline class="st1" points="1277.4,1821.1 1280.8,1826 1274.8,1826 					"/>
					<line class="st3" x1="1262.9" y1="1826" x2="1054.8" y2="1826"/>
					<polyline class="st1" points="1048.8,1826 1042.8,1826 1039.4,1821.1 					"/>
					<line class="st4" x1="1032.3" y1="1811.2" x2="881.5" y2="1597.9"/>
					<polyline class="st1" points="878,1592.9 874.5,1588 880.5,1588 					"/>
					<line class="st3" x1="892.4" y1="1588" x2="1100.6" y2="1588"/>
				</g>
			</g>
		</g>
	</g>
</g>
<g>
	<g class="st0">
		<g>
			<g>
				<g>
					<polyline class="st1" points="457.5,1350 463.5,1350 460,1354.9 					"/>
					<line class="st2" x1="453" y1="1364.8" x2="302.1" y2="1578.1"/>
					<polyline class="st1" points="298.6,1583.1 295.2,1588 289.2,1588 					"/>
					<line class="st3" x1="277.3" y1="1588" x2="69.1" y2="1588"/>
					<polyline class="st1" points="63.2,1588 57.2,1588 60.6,1583.1 					"/>
					<line class="st2" x1="67.7" y1="1573.2" x2="218.5" y2="1359.9"/>
					<polyline class="st1" points="222,1354.9 225.5,1350 231.5,1350 					"/>
					<line class="st3" x1="243.4" y1="1350" x2="451.5" y2="1350"/>
				</g>
			</g>
		</g>
		<g>
			<g>
				<g>
					<polyline class="st1" points="460,1354.9 463.5,1350 466.9,1354.9 					"/>
					<line class="st4" x1="473.9" y1="1364.8" x2="624.8" y2="1578.1"/>
					<polyline class="st1" points="628.3,1583.1 631.7,1588 628.3,1592.9 					"/>
					<line class="st2" x1="621.3" y1="1602.8" x2="470.4" y2="1816.1"/>
					<polyline class="st1" points="466.9,1821.1 463.5,1826 460,1821.1 					"/>
					<line class="st4" x1="453" y1="1811.2" x2="302.1" y2="1597.9"/>
					<polyline class="st1" points="298.6,1592.9 295.2,1588 298.6,1583.1 					"/>
					<line class="st2" x1="305.6" y1="1573.2" x2="456.5" y2="1359.9"/>
				</g>
			</g>
		</g>
		<g>
			<g>
				<g>
					<polyline class="st1" points="289.2,1588 295.2,1588 298.6,1592.9 					"/>
					<line class="st4" x1="305.6" y1="1602.8" x2="456.5" y2="1816.1"/>
					<polyline class="st1" points="460,1821.1 463.5,1826 457.5,1826 					"/>
					<line class="st3" x1="445.6" y1="1826" x2="237.4" y2="1826"/>
					<polyline class="st1" points="231.5,1826 225.5,1826 222,1821.1 					"/>
					<line class="st4" x1="215" y1="1811.2" x2="64.1" y2="1597.9"/>
					<polyline class="st1" points="60.6,1592.9 57.2,1588 63.2,1588 					"/>
					<line class="st3" x1="75.1" y1="1588" x2="283.2" y2="1588"/>
				</g>
			</g>
		</g>
	</g>
</g>
<g>
	<g class="st0">
		<g>
			<polygon class="st1" points="467.6,391.6 299.3,629.6 61.3,629.6 229.6,391.6 			"/>
		</g>
		<g>
			<polygon class="st1" points="467.6,391.6 635.8,629.6 467.5,867.6 299.3,629.6 			"/>
		</g>
		<g>
			<polygon class="st1" points="299.3,629.6 467.5,867.6 229.6,867.6 61.3,629.6 			"/>
		</g>
	</g>
</g>
<g>
	<g class="st0">
		<g>
			<polygon class="st1" points="467.6,867.6 299.3,1105.6 61.3,1105.6 229.6,867.6 			"/>
		</g>
		<g>
			<polygon class="st1" points="467.6,867.6 635.8,1105.6 467.5,1343.6 299.3,1105.6 			"/>
		</g>
		<g>
			<polygon class="st1" points="299.3,1105.6 467.5,1343.6 229.6,1343.6 61.3,1105.6 			"/>
		</g>
	</g>
</g>
<g>
	<g class="st0">
		<g>
			<polygon class="st1" points="874.2,1105.7 705.9,1343.7 467.9,1343.7 636.2,1105.7 			"/>
		</g>
		<g>
			<polygon class="st1" points="874.2,1105.7 1042.5,1343.7 874.2,1581.7 705.9,1343.7 			"/>
		</g>
		<g>
			<polygon class="st1" points="705.9,1343.7 874.2,1581.7 636.2,1581.7 467.9,1343.7 			"/>
		</g>
	</g>
</g>
<g>
	<g class="st0">
		<g>
			<polygon class="st5" points="874.2,629.6 705.9,867.6 467.9,867.6 636.2,629.6 			"/>
		</g>
		<g>
			<polygon class="st6" points="874.2,629.6 1042.5,867.6 874.2,1105.6 705.9,867.6 			"/>
		</g>
		<g>
			<polygon class="st7" points="705.9,867.6 874.2,1105.6 636.2,1105.6 467.9,867.6 			"/>
		</g>
	</g>
</g>
<g>
	<g class="st0">
		<g>
			<g>
				<g>
					<polyline class="st1" points="1672.2,147.2 1678.2,147.2 1674.7,152.1 					"/>
					<line class="st2" x1="1667.7" y1="162" x2="1516.8" y2="375.4"/>
					<polyline class="st1" points="1513.3,380.3 1509.9,385.2 1503.9,385.2 					"/>
					<line class="st3" x1="1492" y1="385.2" x2="1283.8" y2="385.2"/>
					<polyline class="st1" points="1277.9,385.2 1271.9,385.2 1275.3,380.3 					"/>
					<line class="st2" x1="1282.3" y1="370.4" x2="1433.2" y2="157.1"/>
					<polyline class="st1" points="1436.7,152.1 1440.2,147.2 1446.2,147.2 					"/>
					<line class="st3" x1="1458.1" y1="147.2" x2="1666.2" y2="147.2"/>
				</g>
			</g>
		</g>
		<g>
			<g>
				<g>
					<polyline class="st1" points="1674.7,152.1 1678.2,147.2 1681.6,152.1 					"/>
					<line class="st4" x1="1688.6" y1="162" x2="1839.5" y2="375.4"/>
					<polyline class="st1" points="1843,380.3 1846.4,385.2 1843,390.1 					"/>
					<line class="st2" x1="1836" y1="400" x2="1685.1" y2="613.3"/>
					<polyline class="st1" points="1681.6,618.3 1678.2,623.2 1674.7,618.3 					"/>
					<line class="st4" x1="1667.7" y1="608.4" x2="1516.8" y2="395.1"/>
					<polyline class="st1" points="1513.3,390.1 1509.9,385.2 1513.3,380.3 					"/>
					<line class="st2" x1="1520.3" y1="370.4" x2="1671.2" y2="157.1"/>
				</g>
			</g>
		</g>
		<g>
			<g>
				<g>
					<polyline class="st1" points="1503.9,385.2 1509.9,385.2 1513.3,390.1 					"/>
					<line class="st4" x1="1520.3" y1="400" x2="1671.2" y2="613.3"/>
					<polyline class="st1" points="1674.7,618.3 1678.2,623.2 1672.2,623.2 					"/>
					<line class="st3" x1="1660.3" y1="623.2" x2="1452.1" y2="623.2"/>
					<polyline class="st1" points="1446.2,623.2 1440.2,623.2 1436.7,618.3 					"/>
					<line class="st4" x1="1429.7" y1="608.4" x2="1278.8" y2="395.1"/>
					<polyline class="st1" points="1275.3,390.1 1271.9,385.2 1277.9,385.2 					"/>
					<line class="st3" x1="1289.8" y1="385.2" x2="1497.9" y2="385.2"/>
				</g>
			</g>
		</g>
	</g>
</g>
<g>
	<g class="st0">
		<g>
			<polygon class="st1" points="1280.5,869.4 1112.2,1107.4 874.2,1107.4 1042.5,869.4 			"/>
		</g>
		<g>
			<polygon class="st1" points="1280.5,869.4 1448.8,1107.4 1280.5,1345.4 1112.2,1107.4 			"/>
		</g>
		<g>
			<polygon class="st1" points="1112.2,1107.4 1280.5,1345.4 1042.5,1345.4 874.2,1107.4 			"/>
		</g>
	</g>
</g>
</svg>
