<?xml version="1.0" encoding="utf-8"?>
<!-- Generator: Adobe Illustrator 22.1.0, SVG Export Plug-In . SVG Version: 6.00 Build 0)  -->
<svg version="1.1" id="Layer_1" xmlns="http://www.w3.org/2000/svg" xmlns:xlink="http://www.w3.org/1999/xlink" x="0px" y="0px"
	 viewBox="0 0 100 100" style="enable-background:new 0 0 100 100;" xml:space="preserve">
<style type="text/css">
	.st0{enable-background:new    ;}
	.st1{fill:#FFCC3E;}
	.st2{fill:#FFE36C;}
	.st3{fill:#D19705;}
	.st4{fill:none;stroke:#D19706;stroke-miterlimit:10;}
	.st5{fill:#D19706;}
</style>
<g>
	<g class="st0">
		<g>
			<polygon class="st1" points="29.6,22.3 20.7,34.8 8.2,34.8 17.1,22.3 			"/>
		</g>
		<g>
			<polygon class="st2" points="29.6,22.3 38.5,34.8 29.6,47.4 20.7,34.8 			"/>
		</g>
		<g>
			<polygon class="st3" points="20.7,34.8 29.6,47.4 17.1,47.4 8.2,34.8 			"/>
		</g>
	</g>
</g>
<rect x="1.8" y="16" class="st4" width="95.5" height="61.2"/>
<rect x="5.8" y="19.7" class="st4" width="35" height="30.3"/>
<polyline class="st4" points="1.8,81.3 1.8,86.8 44.5,86.8 49.6,93 53.8,87.2 97.3,86.5 97.3,81.3 "/>
<rect x="44.5" y="19.7" class="st2" width="47" height="51.7"/>
<polyline class="st4" points="53,43.3 62.3,54.1 86.1,30.7 "/>
<rect x="5.8" y="55.5" class="st5" width="35" height="3.5"/>
<rect x="5.8" y="61.8" class="st5" width="35" height="3.5"/>
</svg>
