<?xml version="1.0" encoding="utf-8"?>
<!-- Generator: Adobe Illustrator 22.1.0, SVG Export Plug-In . SVG Version: 6.00 Build 0)  -->
<svg version="1.1" id="Layer_1" xmlns="http://www.w3.org/2000/svg" xmlns:xlink="http://www.w3.org/1999/xlink" x="0px" y="0px"
	 viewBox="0 0 964 745" style="enable-background:new 0 0 964 745;" xml:space="preserve">
<style type="text/css">
	
		.Graphic_x0020_Style_x0020_2{fill:url(#SVGID_1_);stroke:#234954;stroke-width:4;stroke-linejoin:round;enable-background:new    ;}
	.st0{fill:#5ECAEF;}
	.st1{fill:#9EDAEF;}
	.st2{fill:#208CBC;}
	.st3{fill:url(#SVGID_2_);}
	.st4{fill:none;stroke:#9EDAEF;stroke-width:3;stroke-miterlimit:10;}
	.st5{fill:none;stroke:#FFFFFF;stroke-width:6;stroke-linecap:round;stroke-linejoin:round;stroke-miterlimit:10;}
	.st6{enable-background:new    ;}
	.st7{fill:none;stroke:#FFFFFF;stroke-width:13;}
	.st8{fill:none;stroke:#234954;stroke-width:4;stroke-linejoin:round;}
	.st9{fill:url(#SVGID_3_);}
	.st10{fill:url(#SVGID_4_);}
	.st11{fill:url(#SVGID_5_);}
	.st12{fill:url(#SVGID_6_);}
	.st13{fill:url(#SVGID_7_);}
	.st14{fill:url(#SVGID_8_);}
	.st15{fill:url(#SVGID_9_);}
	.st16{fill:url(#SVGID_10_);}
	.st17{fill:url(#SVGID_11_);}
	.st18{fill:url(#SVGID_12_);}
	.st19{fill:url(#SVGID_13_);}
	.st20{fill:url(#SVGID_14_);}
	.st21{fill:url(#SVGID_15_);}
	.st22{fill:url(#SVGID_16_);}
	.st23{fill:url(#SVGID_17_);}
	.st24{fill:url(#SVGID_18_);}
</style>
<linearGradient id="SVGID_1_" gradientUnits="userSpaceOnUse" x1="0" y1="745" x2="6.123234e-17" y2="744">
	<stop  offset="0.4009" style="stop-color:#FFFFFF;stop-opacity:0"/>
	<stop  offset="0.4044" style="stop-color:#FFFFFF;stop-opacity:0.5"/>
	<stop  offset="1" style="stop-color:#FFFFFF;stop-opacity:0"/>
</linearGradient>
<g>
	<g>
		<g>
			<g>
				<polygon class="st0" points="524.3,199.6 470.4,278.3 394.5,278.3 448.4,199.6 				"/>
			</g>
			<g>
				<polygon class="st1" points="524.3,199.6 579,278.3 524.3,356.9 470.4,278.3 				"/>
			</g>
			<g>
				<polygon class="st2" points="470.4,278.3 524.3,356.9 448.4,356.9 394.5,278.3 				"/>
			</g>
		</g>
		<g>
			<linearGradient id="SVGID_2_" gradientUnits="userSpaceOnUse" x1="460.4" y1="356.9" x2="460.4" y2="278.3">
				<stop  offset="0" style="stop-color:#005094;stop-opacity:0.5"/>
				<stop  offset="1" style="stop-color:#5ECAEF;stop-opacity:0"/>
			</linearGradient>
			<polygon class="st3" points="471.4,278.3 525.3,356.9 449.4,356.9 395.5,278.3 			"/>
		</g>
		<g>
			<g>
				<g>
					<polygon class="st4" points="393.7,120.7 339.8,199.4 263.9,199.4 318.1,120.7 					"/>
				</g>
				<g>
					<polygon class="st4" points="393.7,120.7 448.4,199.4 393.7,278.3 339.8,199.4 					"/>
				</g>
				<g>
					<polygon class="st4" points="339.8,199.4 393.7,278.3 318.1,278.3 263.9,199.4 					"/>
				</g>
			</g>
			<g>
				<g>
					<polygon class="st4" points="393.7,278.3 339.8,356.7 263.9,356.7 318.1,278.3 					"/>
				</g>
				<g>
					<polygon class="st4" points="393.7,278.3 448.4,356.7 393.7,435.6 339.8,356.7 					"/>
				</g>
				<g>
					<polygon class="st4" points="339.8,356.7 393.7,435.6 318.1,435.6 263.9,356.7 					"/>
				</g>
			</g>
			<g>
				<g>
					<polygon class="st4" points="654.9,120.7 600.8,199.4 525.1,199.4 579,120.7 					"/>
				</g>
				<g>
					<polygon class="st4" points="654.9,120.7 709.6,199.4 654.9,278.3 600.8,199.4 					"/>
				</g>
				<g>
					<polygon class="st4" points="600.8,199.4 654.9,278.3 579,278.3 525.1,199.4 					"/>
				</g>
			</g>
			<g>
				<g>
					<polygon class="st4" points="654.9,278.3 600.8,356.7 525.1,356.7 579,278.3 					"/>
				</g>
				<g>
					<polygon class="st4" points="654.9,278.3 709.6,356.7 654.9,435.6 600.8,356.7 					"/>
				</g>
				<g>
					<polygon class="st4" points="600.8,356.7 654.9,435.6 579,435.6 525.1,356.7 					"/>
				</g>
			</g>
			<g>
				<g>
					<polygon class="st4" points="524.3,42.1 470.4,120.7 394.5,120.7 448.4,42.1 					"/>
				</g>
				<g>
					<polygon class="st4" points="524.3,42.1 579,120.7 524.3,199.6 470.4,120.7 					"/>
				</g>
				<g>
					<polygon class="st4" points="470.4,120.7 524.3,199.6 448.4,199.6 394.5,120.7 					"/>
				</g>
			</g>
			<g>
				<g>
					<polygon class="st4" points="524.3,356.9 470.4,435.6 394.5,435.6 448.4,356.9 					"/>
				</g>
				<g>
					<polygon class="st4" points="524.3,356.9 579,435.6 524.3,514.5 470.4,435.6 					"/>
				</g>
				<g>
					<polygon class="st4" points="470.4,435.6 524.3,514.5 448.4,514.5 394.5,435.6 					"/>
				</g>
			</g>
		</g>
		<g>
			<g>
				<g>
					<line class="st5" x1="339.8" y1="199.4" x2="320" y2="199.4"/>
				</g>
			</g>
			<g>
				<g>
					<line class="st5" x1="339.8" y1="356.7" x2="320" y2="356.7"/>
				</g>
			</g>
			<g>
				<g>
					<line class="st5" x1="600.8" y1="199.4" x2="581" y2="199.4"/>
				</g>
			</g>
			<g>
				<g>
					<line class="st5" x1="600.8" y1="356.7" x2="581" y2="356.7"/>
				</g>
			</g>
			<g>
				<g>
					<line class="st5" x1="470.4" y1="120.7" x2="450.4" y2="120.7"/>
				</g>
			</g>
			<g>
				<g>
					<line class="st5" x1="470.4" y1="435.6" x2="450.4" y2="435.6"/>
				</g>
			</g>
			<g>
				<g>
					<g>
						<line class="st5" x1="470.4" y1="278.3" x2="450.4" y2="278.3"/>
					</g>
				</g>
				<line class="st5" x1="470.4" y1="278.3" x2="482.3" y2="261.2"/>
				<line class="st5" x1="470.4" y1="278.3" x2="482.5" y2="295.1"/>
				<line class="st5" x1="394.5" y1="278.3" x2="406.6" y2="261.2"/>
				<line class="st5" x1="394.5" y1="278.3" x2="406.9" y2="295.8"/>
				<path class="st5" d="M406.9,295.8"/>
				<path class="st5" d="M482.8,295.8"/>
				<path class="st5" d="M406.9,295.8"/>
				<path class="st5" d="M482.8,295.8"/>
				<path class="st5" d="M566.9,261.2"/>
				<path class="st5" d="M406.6,261.2"/>
				<path class="st5" d="M566.9,295.8"/>
				<path class="st5" d="M406.9,295.8"/>
				<line class="st5" x1="579" y1="278.3" x2="566.9" y2="261.2"/>
				<line class="st5" x1="566.9" y1="295.8" x2="579" y2="278.3"/>
				<line class="st5" x1="448.4" y1="199.6" x2="436" y2="218.2"/>
				<line class="st5" x1="473.1" y1="199.6" x2="448.4" y2="199.6"/>
				<line class="st5" x1="524.3" y1="199.6" x2="501.1" y2="199.6"/>
				<line class="st5" x1="511.5" y1="219.2" x2="524.3" y2="199.6"/>
				<line class="st5" x1="538" y1="218.4" x2="524.3" y2="199.6"/>
				<line class="st5" x1="524.3" y1="356.9" x2="496.6" y2="356.9"/>
				<line class="st5" x1="510.7" y1="336.7" x2="524.3" y2="356.9"/>
				<line class="st5" x1="539.7" y1="335.9" x2="524.3" y2="356.9"/>
				<line class="st5" x1="448.4" y1="356.9" x2="436.3" y2="338.4"/>
				<line class="st5" x1="470.9" y1="356.9" x2="448.4" y2="356.9"/>
				<line class="st5" x1="339.8" y1="199.4" x2="351.9" y2="182.6"/>
				<line class="st5" x1="339.8" y1="199.4" x2="352.2" y2="216.4"/>
				<line class="st5" x1="263.9" y1="199.4" x2="276" y2="182.6"/>
				<line class="st5" x1="263.9" y1="199.4" x2="276.5" y2="217.2"/>
				<path class="st5" d="M276.5,217.2"/>
				<path class="st5" d="M352.2,217.2"/>
				<path class="st5" d="M276.5,217.2"/>
				<path class="st5" d="M352.2,217.2"/>
				<path class="st5" d="M436.3,182.6"/>
				<path class="st5" d="M276,182.6"/>
				<path class="st5" d="M436.3,217.2"/>
				<path class="st5" d="M276.5,217.2"/>
				<line class="st5" x1="448.4" y1="199.4" x2="436.3" y2="182.6"/>
				<line class="st5" x1="436.3" y1="217.2" x2="448.4" y2="199.4"/>
				<line class="st5" x1="318.1" y1="120.7" x2="305.7" y2="139.5"/>
				<line class="st5" x1="342.8" y1="120.7" x2="318.1" y2="120.7"/>
				<line class="st5" x1="393.7" y1="120.7" x2="370.5" y2="120.7"/>
				<line class="st5" x1="380.9" y1="140.3" x2="393.7" y2="120.7"/>
				<line class="st5" x1="407.6" y1="139.8" x2="393.7" y2="120.7"/>
				<line class="st5" x1="393.7" y1="278.3" x2="366.3" y2="278.3"/>
				<line class="st5" x1="380.4" y1="258" x2="393.7" y2="278.3"/>
				<line class="st5" x1="409.1" y1="257.3" x2="393.7" y2="278.3"/>
				<line class="st5" x1="318.1" y1="278.3" x2="305.9" y2="259.5"/>
				<line class="st5" x1="340.3" y1="278.3" x2="318.1" y2="278.3"/>
				<line class="st5" x1="339.8" y1="356.7" x2="351.9" y2="339.9"/>
				<line class="st5" x1="339.8" y1="356.7" x2="352.2" y2="373.8"/>
				<line class="st5" x1="263.9" y1="356.7" x2="276" y2="339.9"/>
				<line class="st5" x1="263.9" y1="356.7" x2="276.5" y2="374.5"/>
				<path class="st5" d="M276.5,374.5"/>
				<path class="st5" d="M352.2,374.5"/>
				<path class="st5" d="M276.5,374.5"/>
				<path class="st5" d="M352.2,374.5"/>
				<path class="st5" d="M436.3,339.9"/>
				<path class="st5" d="M276,339.9"/>
				<path class="st5" d="M436.3,374.5"/>
				<path class="st5" d="M276.5,374.5"/>
				<line class="st5" x1="448.4" y1="356.7" x2="436.3" y2="339.9"/>
				<line class="st5" x1="436.3" y1="374.5" x2="448.4" y2="356.7"/>
				<line class="st5" x1="318.1" y1="278.3" x2="305.7" y2="296.8"/>
				<line class="st5" x1="342.8" y1="278.3" x2="318.1" y2="278.3"/>
				<line class="st5" x1="393.7" y1="278.3" x2="370.5" y2="278.3"/>
				<line class="st5" x1="380.9" y1="297.6" x2="393.7" y2="278.3"/>
				<line class="st5" x1="407.6" y1="297.1" x2="393.7" y2="278.3"/>
				<line class="st5" x1="393.7" y1="435.6" x2="366.3" y2="435.6"/>
				<line class="st5" x1="380.4" y1="415.3" x2="393.7" y2="435.6"/>
				<line class="st5" x1="409.1" y1="414.6" x2="393.7" y2="435.6"/>
				<line class="st5" x1="318.1" y1="435.6" x2="305.9" y2="416.8"/>
				<line class="st5" x1="340.3" y1="435.6" x2="318.1" y2="435.6"/>
				<line class="st5" x1="600.8" y1="199.4" x2="612.9" y2="182.6"/>
				<line class="st5" x1="600.8" y1="199.4" x2="613.1" y2="216.4"/>
				<line class="st5" x1="525.1" y1="199.4" x2="537.2" y2="182.6"/>
				<line class="st5" x1="525.1" y1="199.4" x2="537.5" y2="217.2"/>
				<path class="st5" d="M537.5,217.2"/>
				<path class="st5" d="M613.4,217.2"/>
				<path class="st5" d="M537.5,217.2"/>
				<path class="st5" d="M613.4,217.2"/>
				<path class="st5" d="M697.2,182.6"/>
				<path class="st5" d="M537.2,182.6"/>
				<path class="st5" d="M697.2,217.2"/>
				<path class="st5" d="M537.5,217.2"/>
				<line class="st5" x1="709.6" y1="199.4" x2="697.2" y2="182.6"/>
				<line class="st5" x1="697.2" y1="217.2" x2="709.6" y2="199.4"/>
				<line class="st5" x1="579" y1="120.7" x2="566.6" y2="139.5"/>
				<line class="st5" x1="603.7" y1="120.7" x2="579" y2="120.7"/>
				<line class="st5" x1="654.9" y1="120.7" x2="631.4" y2="120.7"/>
				<line class="st5" x1="641.8" y1="140.3" x2="654.9" y2="120.7"/>
				<line class="st5" x1="668.6" y1="139.8" x2="654.9" y2="120.7"/>
				<line class="st5" x1="654.9" y1="278.3" x2="627.2" y2="278.3"/>
				<line class="st5" x1="641.3" y1="258" x2="654.9" y2="278.3"/>
				<line class="st5" x1="670" y1="257.3" x2="654.9" y2="278.3"/>
				<line class="st5" x1="579" y1="278.3" x2="566.9" y2="259.5"/>
				<line class="st5" x1="601.5" y1="278.3" x2="579" y2="278.3"/>
				<line class="st5" x1="600.8" y1="356.7" x2="612.9" y2="339.9"/>
				<line class="st5" x1="600.8" y1="356.7" x2="613.1" y2="373.8"/>
				<line class="st5" x1="525.1" y1="356.7" x2="537.2" y2="339.9"/>
				<line class="st5" x1="525.1" y1="356.7" x2="537.5" y2="374.5"/>
				<path class="st5" d="M537.5,374.5"/>
				<path class="st5" d="M613.4,374.5"/>
				<path class="st5" d="M537.5,374.5"/>
				<path class="st5" d="M613.4,374.5"/>
				<path class="st5" d="M697.2,339.9"/>
				<path class="st5" d="M537.2,339.9"/>
				<path class="st5" d="M697.2,374.5"/>
				<path class="st5" d="M537.5,374.5"/>
				<line class="st5" x1="709.6" y1="356.7" x2="697.2" y2="339.9"/>
				<line class="st5" x1="697.2" y1="374.5" x2="709.6" y2="356.7"/>
				<line class="st5" x1="579" y1="278.3" x2="566.6" y2="296.8"/>
				<line class="st5" x1="603.7" y1="278.3" x2="579" y2="278.3"/>
				<line class="st5" x1="654.9" y1="278.3" x2="631.4" y2="278.3"/>
				<line class="st5" x1="641.8" y1="297.6" x2="654.9" y2="278.3"/>
				<line class="st5" x1="668.6" y1="297.1" x2="654.9" y2="278.3"/>
				<line class="st5" x1="654.9" y1="435.6" x2="627.2" y2="435.6"/>
				<line class="st5" x1="641.3" y1="415.3" x2="654.9" y2="435.6"/>
				<line class="st5" x1="670" y1="414.6" x2="654.9" y2="435.6"/>
				<line class="st5" x1="579" y1="435.6" x2="566.9" y2="416.8"/>
				<line class="st5" x1="601.5" y1="435.6" x2="579" y2="435.6"/>
				<line class="st5" x1="470.4" y1="120.7" x2="482.3" y2="103.9"/>
				<line class="st5" x1="470.4" y1="120.7" x2="482.5" y2="137.8"/>
				<line class="st5" x1="394.5" y1="120.7" x2="406.6" y2="103.9"/>
				<line class="st5" x1="394.5" y1="120.7" x2="406.9" y2="138.5"/>
				<path class="st5" d="M406.9,138.5"/>
				<path class="st5" d="M482.8,138.5"/>
				<path class="st5" d="M406.9,138.5"/>
				<path class="st5" d="M482.8,138.5"/>
				<path class="st5" d="M566.9,103.9"/>
				<path class="st5" d="M406.6,103.9"/>
				<path class="st5" d="M566.9,138.5"/>
				<path class="st5" d="M406.9,138.5"/>
				<line class="st5" x1="579" y1="120.7" x2="566.9" y2="103.9"/>
				<line class="st5" x1="566.9" y1="138.5" x2="579" y2="120.7"/>
				<line class="st5" x1="448.4" y1="42.1" x2="436" y2="60.6"/>
				<line class="st5" x1="473.1" y1="42.1" x2="448.4" y2="42.1"/>
				<line class="st5" x1="524.3" y1="42.1" x2="501.1" y2="42.1"/>
				<line class="st5" x1="511.5" y1="61.6" x2="524.3" y2="42.1"/>
				<line class="st5" x1="538" y1="61.1" x2="524.3" y2="42.1"/>
				<line class="st5" x1="524.3" y1="199.6" x2="496.6" y2="199.6"/>
				<line class="st5" x1="510.7" y1="179.1" x2="524.3" y2="199.6"/>
				<line class="st5" x1="539.7" y1="178.4" x2="524.3" y2="199.6"/>
				<line class="st5" x1="448.4" y1="199.6" x2="436.3" y2="180.8"/>
				<line class="st5" x1="470.9" y1="199.6" x2="448.4" y2="199.6"/>
				<line class="st5" x1="470.4" y1="435.6" x2="482.3" y2="418.8"/>
				<line class="st5" x1="470.4" y1="435.6" x2="482.5" y2="452.7"/>
				<line class="st5" x1="394.5" y1="435.6" x2="406.6" y2="418.8"/>
				<line class="st5" x1="394.5" y1="435.6" x2="406.9" y2="453.4"/>
				<path class="st5" d="M406.9,453.4"/>
				<path class="st5" d="M482.8,453.4"/>
				<path class="st5" d="M406.9,453.4"/>
				<path class="st5" d="M482.8,453.4"/>
				<path class="st5" d="M566.9,418.8"/>
				<path class="st5" d="M406.6,418.8"/>
				<path class="st5" d="M566.9,453.4"/>
				<path class="st5" d="M406.9,453.4"/>
				<line class="st5" x1="579" y1="435.6" x2="566.9" y2="418.8"/>
				<line class="st5" x1="566.9" y1="453.4" x2="579" y2="435.6"/>
				<line class="st5" x1="448.4" y1="356.9" x2="436" y2="375.5"/>
				<line class="st5" x1="473.1" y1="356.9" x2="448.4" y2="356.9"/>
				<line class="st5" x1="524.3" y1="356.9" x2="501.1" y2="356.9"/>
				<line class="st5" x1="511.5" y1="376.5" x2="524.3" y2="356.9"/>
				<line class="st5" x1="538" y1="376" x2="524.3" y2="356.9"/>
				<line class="st5" x1="524.3" y1="514.5" x2="496.6" y2="514.5"/>
				<line class="st5" x1="510.7" y1="494" x2="524.3" y2="514.5"/>
				<line class="st5" x1="539.7" y1="493.5" x2="524.3" y2="514.5"/>
				<line class="st5" x1="448.4" y1="514.5" x2="436.3" y2="495.7"/>
				<line class="st5" x1="470.9" y1="514.5" x2="448.4" y2="514.5"/>
			</g>
		</g>
	</g>
</g>
<g class="st6">
	<g>
		<path class="st0" d="M34.2,612.6v13H16.3v-60.7c0-1.7,0.8-2.6,2.5-2.6h52c5.9,0,10.2,1.3,12.8,4c2.6,2.6,3.9,6.4,3.9,11.2v5.6
			c0,2.6-0.5,4.6-1.6,6.2c-1,1.6-2.2,2.8-3.6,3.7c1.9,0.9,3.4,2.3,4.6,4.1s1.8,4,1.8,6.7v5.6c0,5.3-1.3,9.4-3.8,12.2
			s-6.9,4.2-13,4.2H39.8l-5-13h-0.6V612.6z M35.7,576.3c-1,0-1.5,0.5-1.5,1.5v10.7h30.1c2,0,3.4-0.4,4.2-1.1
			c0.8-0.8,1.2-2.1,1.2-3.9v-1.9c0-1.9-0.4-3.3-1.2-4c-0.8-0.8-2.2-1.2-4.2-1.2L35.7,576.3L35.7,576.3z M34.2,598.8v11.9h31.1
			c1.6,0,2.7-0.4,3.4-1.1c0.7-0.8,1.1-2.1,1.1-3.9v-1.8c0-1.9-0.3-3.2-1-3.9c-0.7-0.8-1.8-1.1-3.5-1.1H34.2V598.8z"/>
		<path class="st0" d="M95.2,570.3v-12.6H111v12.6H95.2z M95.2,625.6v-47.8H111v47.8H95.2z"/>
		<path class="st0" d="M180.3,606.6c0,2.9-0.3,5.5-1,7.8s-1.8,4.3-3.4,6c-1.6,1.7-3.6,2.9-6.1,3.8c-2.5,0.9-5.5,1.3-9,1.3h-23
			c-3.5,0-6.5-0.4-9-1.3c-2.5-0.9-4.5-2.2-6-3.8c-1.6-1.7-2.7-3.6-3.4-6c-0.7-2.3-1-4.9-1-7.8v-9.8c0-2.8,0.3-5.4,1-7.8
			c0.7-2.3,1.8-4.3,3.4-6s3.6-2.9,6-3.8c2.5-0.9,5.5-1.3,9-1.3h23c3.5,0,6.6,0.4,9,1.3c2.5,0.9,4.5,2.2,6.1,3.8
			c1.6,1.7,2.7,3.7,3.4,6s1,4.9,1,7.8V606.6z M157.9,611.6c2.5,0,4.2-0.5,5.2-1.5s1.5-2.8,1.5-5.6v-6.7c0-2.9-0.5-4.9-1.5-5.9
			s-2.7-1.6-5.2-1.6h-17.1c-2.5,0-4.2,0.5-5.2,1.6s-1.4,3-1.4,5.9v6.7c0,2.7,0.5,4.6,1.4,5.6c1,1,2.7,1.5,5.2,1.5H157.9z"/>
		<path class="st0" d="M226.8,578.1v47.5h-17.9v-47.5h-26.3l-5.8-15.1v-0.7h84c1.7,0,2.5,0.9,2.5,2.6v16.4l-16.6,6.2H246v-8.4
			c0-0.6-0.3-1-1-1H226.8z"/>
		<path class="st0" d="M269,557.7h15.7v20.1H308c3.5,0,6.6,0.4,9,1.3c2.5,0.9,4.5,2.2,6,3.8c1.5,1.7,2.7,3.6,3.3,6
			c0.7,2.3,1,4.9,1,7.8v28.8h-15.7v-27.8c0-2.8-0.6-4.7-1.7-5.8s-2.8-1.7-5-1.7h-17.1l-2.6-7h-0.6v42.2H269V557.7z"/>
		<path class="st0" d="M335.2,570.3v-12.6H351v12.6H335.2z M335.2,625.6v-47.8H351v47.8H335.2z"/>
		<path class="st0" d="M359,577.8h39c3.5,0,6.6,0.4,9,1.3c2.5,0.9,4.5,2.2,6,3.8c1.5,1.7,2.7,3.6,3.3,6c0.7,2.3,1,4.9,1,7.8v28.8
			h-15.7v-27.8c0-2.8-0.5-4.7-1.6-5.8c-1-1.1-2.8-1.7-5.1-1.7H378l-2.6-7h-0.6v42.2H359V577.8z"/>
		<path class="st0" d="M426.4,631.8h34.5c2.3,0,3.8-0.5,4.7-1.5c0.9-1,1.3-2.6,1.3-4.8v-3.8h-23.2c-7.1,0-12.2-1.4-15.1-4.3
			s-4.4-7.2-4.4-13.1v-7.5c0-2.9,0.3-5.5,1-7.8s1.8-4.3,3.4-6s3.6-2.9,6-3.8c2.5-0.9,5.5-1.3,9.1-1.3h34.7c2.9,0,4.4,1.5,4.4,4.3
			v44.4c0,2.8-0.3,5.3-1,7.6s-1.8,4.2-3.3,5.9c-1.5,1.6-3.5,2.9-6,3.8c-2.5,0.9-5.6,1.3-9.2,1.3h-37v-13.4H426.4z M466.4,619.9h0.6
			v-28.1c0-1-0.5-1.5-1.5-1.5h-18.8c-2.4,0-4.2,0.5-5.2,1.6s-1.6,3-1.6,5.8v4.4c0,2.6,0.5,4.4,1.5,5.4s2.8,1.4,5.3,1.4h15.4
			L466.4,619.9z"/>
		<path class="st0" d="M490.1,612.2h39.1c0.9,0,1.6-0.2,1.9-0.6c0.3-0.4,0.5-1,0.5-1.9v-1c0-0.6-0.1-1.1-0.3-1.4
			c-0.2-0.3-0.7-0.5-1.4-0.6l-29.7-2.5c-3.7-0.3-6.4-1.4-8.1-3.4s-2.6-4.6-2.6-7.9v-3.8c0-3.5,1-6.2,2.9-8.2s5-3,9.4-3h43.1
			c1.4,0,2.2,0.7,2.2,2.2v10.6l-13.6,5H533v-5.5c0-0.5-0.2-0.7-0.6-0.7h-24.9c-0.9,0-1.5,0.2-1.8,0.5s-0.5,0.9-0.5,1.7v1.3
			c0,0.8,0.1,1.3,0.4,1.6c0.3,0.2,0.7,0.4,1.4,0.5l30.4,3c2,0.2,3.7,0.6,5,1.1c1.3,0.6,2.4,1.3,3.2,2.3s1.4,2.1,1.7,3.5
			s0.5,3,0.5,4.9v3.6c0,3.8-1,6.8-3,8.9s-5.6,3.1-10.7,3.1h-43.8v-13.3H490.1z"/>
	</g>
	<g>
		<path class="st7" d="M34.2,612.6v13H16.3v-60.7c0-1.7,0.8-2.6,2.5-2.6h52c5.9,0,10.2,1.3,12.8,4c2.6,2.6,3.9,6.4,3.9,11.2v5.6
			c0,2.6-0.5,4.6-1.6,6.2c-1,1.6-2.2,2.8-3.6,3.7c1.9,0.9,3.4,2.3,4.6,4.1s1.8,4,1.8,6.7v5.6c0,5.3-1.3,9.4-3.8,12.2
			s-6.9,4.2-13,4.2H39.8l-5-13h-0.6V612.6z M35.7,576.3c-1,0-1.5,0.5-1.5,1.5v10.7h30.1c2,0,3.4-0.4,4.2-1.1
			c0.8-0.8,1.2-2.1,1.2-3.9v-1.9c0-1.9-0.4-3.3-1.2-4c-0.8-0.8-2.2-1.2-4.2-1.2L35.7,576.3L35.7,576.3z M34.2,598.8v11.9h31.1
			c1.6,0,2.7-0.4,3.4-1.1c0.7-0.8,1.1-2.1,1.1-3.9v-1.8c0-1.9-0.3-3.2-1-3.9c-0.7-0.8-1.8-1.1-3.5-1.1H34.2V598.8z"/>
		<path class="st7" d="M95.2,570.3v-12.6H111v12.6H95.2z M95.2,625.6v-47.8H111v47.8H95.2z"/>
		<path class="st7" d="M180.3,606.6c0,2.9-0.3,5.5-1,7.8s-1.8,4.3-3.4,6c-1.6,1.7-3.6,2.9-6.1,3.8c-2.5,0.9-5.5,1.3-9,1.3h-23
			c-3.5,0-6.5-0.4-9-1.3c-2.5-0.9-4.5-2.2-6-3.8c-1.6-1.7-2.7-3.6-3.4-6c-0.7-2.3-1-4.9-1-7.8v-9.8c0-2.8,0.3-5.4,1-7.8
			c0.7-2.3,1.8-4.3,3.4-6s3.6-2.9,6-3.8c2.5-0.9,5.5-1.3,9-1.3h23c3.5,0,6.6,0.4,9,1.3c2.5,0.9,4.5,2.2,6.1,3.8
			c1.6,1.7,2.7,3.7,3.4,6s1,4.9,1,7.8V606.6z M157.9,611.6c2.5,0,4.2-0.5,5.2-1.5s1.5-2.8,1.5-5.6v-6.7c0-2.9-0.5-4.9-1.5-5.9
			s-2.7-1.6-5.2-1.6h-17.1c-2.5,0-4.2,0.5-5.2,1.6s-1.4,3-1.4,5.9v6.7c0,2.7,0.5,4.6,1.4,5.6c1,1,2.7,1.5,5.2,1.5H157.9z"/>
		<path class="st7" d="M226.8,578.1v47.5h-17.9v-47.5h-26.3l-5.8-15.1v-0.7h84c1.7,0,2.5,0.9,2.5,2.6v16.4l-16.6,6.2H246v-8.4
			c0-0.6-0.3-1-1-1H226.8z"/>
		<path class="st7" d="M269,557.7h15.7v20.1H308c3.5,0,6.6,0.4,9,1.3c2.5,0.9,4.5,2.2,6,3.8c1.5,1.7,2.7,3.6,3.3,6
			c0.7,2.3,1,4.9,1,7.8v28.8h-15.7v-27.8c0-2.8-0.6-4.7-1.7-5.8s-2.8-1.7-5-1.7h-17.1l-2.6-7h-0.6v42.2H269V557.7z"/>
		<path class="st7" d="M335.2,570.3v-12.6H351v12.6H335.2z M335.2,625.6v-47.8H351v47.8H335.2z"/>
		<path class="st7" d="M359,577.8h39c3.5,0,6.6,0.4,9,1.3c2.5,0.9,4.5,2.2,6,3.8c1.5,1.7,2.7,3.6,3.3,6c0.7,2.3,1,4.9,1,7.8v28.8
			h-15.7v-27.8c0-2.8-0.5-4.7-1.6-5.8c-1-1.1-2.8-1.7-5.1-1.7H378l-2.6-7h-0.6v42.2H359V577.8z"/>
		<path class="st7" d="M426.4,631.8h34.5c2.3,0,3.8-0.5,4.7-1.5c0.9-1,1.3-2.6,1.3-4.8v-3.8h-23.2c-7.1,0-12.2-1.4-15.1-4.3
			s-4.4-7.2-4.4-13.1v-7.5c0-2.9,0.3-5.5,1-7.8s1.8-4.3,3.4-6s3.6-2.9,6-3.8c2.5-0.9,5.5-1.3,9.1-1.3h34.7c2.9,0,4.4,1.5,4.4,4.3
			v44.4c0,2.8-0.3,5.3-1,7.6s-1.8,4.2-3.3,5.9c-1.5,1.6-3.5,2.9-6,3.8c-2.5,0.9-5.6,1.3-9.2,1.3h-37v-13.4H426.4z M466.4,619.9h0.6
			v-28.1c0-1-0.5-1.5-1.5-1.5h-18.8c-2.4,0-4.2,0.5-5.2,1.6s-1.6,3-1.6,5.8v4.4c0,2.6,0.5,4.4,1.5,5.4s2.8,1.4,5.3,1.4h15.4
			L466.4,619.9z"/>
		<path class="st7" d="M490.1,612.2h39.1c0.9,0,1.6-0.2,1.9-0.6c0.3-0.4,0.5-1,0.5-1.9v-1c0-0.6-0.1-1.1-0.3-1.4
			c-0.2-0.3-0.7-0.5-1.4-0.6l-29.7-2.5c-3.7-0.3-6.4-1.4-8.1-3.4s-2.6-4.6-2.6-7.9v-3.8c0-3.5,1-6.2,2.9-8.2s5-3,9.4-3h43.1
			c1.4,0,2.2,0.7,2.2,2.2v10.6l-13.6,5H533v-5.5c0-0.5-0.2-0.7-0.6-0.7h-24.9c-0.9,0-1.5,0.2-1.8,0.5s-0.5,0.9-0.5,1.7v1.3
			c0,0.8,0.1,1.3,0.4,1.6c0.3,0.2,0.7,0.4,1.4,0.5l30.4,3c2,0.2,3.7,0.6,5,1.1c1.3,0.6,2.4,1.3,3.2,2.3s1.4,2.1,1.7,3.5
			s0.5,3,0.5,4.9v3.6c0,3.8-1,6.8-3,8.9s-5.6,3.1-10.7,3.1h-43.8v-13.3H490.1z"/>
	</g>
	<g>
		<path class="st8" d="M34.2,612.6v13H16.3v-60.7c0-1.7,0.8-2.6,2.5-2.6h52c5.9,0,10.2,1.3,12.8,4c2.6,2.6,3.9,6.4,3.9,11.2v5.6
			c0,2.6-0.5,4.6-1.6,6.2c-1,1.6-2.2,2.8-3.6,3.7c1.9,0.9,3.4,2.3,4.6,4.1s1.8,4,1.8,6.7v5.6c0,5.3-1.3,9.4-3.8,12.2
			s-6.9,4.2-13,4.2H39.8l-5-13h-0.6V612.6z M35.7,576.3c-1,0-1.5,0.5-1.5,1.5v10.7h30.1c2,0,3.4-0.4,4.2-1.1
			c0.8-0.8,1.2-2.1,1.2-3.9v-1.9c0-1.9-0.4-3.3-1.2-4c-0.8-0.8-2.2-1.2-4.2-1.2L35.7,576.3L35.7,576.3z M34.2,598.8v11.9h31.1
			c1.6,0,2.7-0.4,3.4-1.1c0.7-0.8,1.1-2.1,1.1-3.9v-1.8c0-1.9-0.3-3.2-1-3.9c-0.7-0.8-1.8-1.1-3.5-1.1H34.2V598.8z"/>
		<path class="st8" d="M95.2,570.3v-12.6H111v12.6H95.2z M95.2,625.6v-47.8H111v47.8H95.2z"/>
		<path class="st8" d="M180.3,606.6c0,2.9-0.3,5.5-1,7.8s-1.8,4.3-3.4,6c-1.6,1.7-3.6,2.9-6.1,3.8c-2.5,0.9-5.5,1.3-9,1.3h-23
			c-3.5,0-6.5-0.4-9-1.3c-2.5-0.9-4.5-2.2-6-3.8c-1.6-1.7-2.7-3.6-3.4-6c-0.7-2.3-1-4.9-1-7.8v-9.8c0-2.8,0.3-5.4,1-7.8
			c0.7-2.3,1.8-4.3,3.4-6s3.6-2.9,6-3.8c2.5-0.9,5.5-1.3,9-1.3h23c3.5,0,6.6,0.4,9,1.3c2.5,0.9,4.5,2.2,6.1,3.8
			c1.6,1.7,2.7,3.7,3.4,6s1,4.9,1,7.8V606.6z M157.9,611.6c2.5,0,4.2-0.5,5.2-1.5s1.5-2.8,1.5-5.6v-6.7c0-2.9-0.5-4.9-1.5-5.9
			s-2.7-1.6-5.2-1.6h-17.1c-2.5,0-4.2,0.5-5.2,1.6s-1.4,3-1.4,5.9v6.7c0,2.7,0.5,4.6,1.4,5.6c1,1,2.7,1.5,5.2,1.5H157.9z"/>
		<path class="st8" d="M226.8,578.1v47.5h-17.9v-47.5h-26.3l-5.8-15.1v-0.7h84c1.7,0,2.5,0.9,2.5,2.6v16.4l-16.6,6.2H246v-8.4
			c0-0.6-0.3-1-1-1H226.8z"/>
		<path class="st8" d="M269,557.7h15.7v20.1H308c3.5,0,6.6,0.4,9,1.3c2.5,0.9,4.5,2.2,6,3.8c1.5,1.7,2.7,3.6,3.3,6
			c0.7,2.3,1,4.9,1,7.8v28.8h-15.7v-27.8c0-2.8-0.6-4.7-1.7-5.8s-2.8-1.7-5-1.7h-17.1l-2.6-7h-0.6v42.2H269V557.7z"/>
		<path class="st8" d="M335.2,570.3v-12.6H351v12.6H335.2z M335.2,625.6v-47.8H351v47.8H335.2z"/>
		<path class="st8" d="M359,577.8h39c3.5,0,6.6,0.4,9,1.3c2.5,0.9,4.5,2.2,6,3.8c1.5,1.7,2.7,3.6,3.3,6c0.7,2.3,1,4.9,1,7.8v28.8
			h-15.7v-27.8c0-2.8-0.5-4.7-1.6-5.8c-1-1.1-2.8-1.7-5.1-1.7H378l-2.6-7h-0.6v42.2H359V577.8z"/>
		<path class="st8" d="M426.4,631.8h34.5c2.3,0,3.8-0.5,4.7-1.5c0.9-1,1.3-2.6,1.3-4.8v-3.8h-23.2c-7.1,0-12.2-1.4-15.1-4.3
			s-4.4-7.2-4.4-13.1v-7.5c0-2.9,0.3-5.5,1-7.8s1.8-4.3,3.4-6s3.6-2.9,6-3.8c2.5-0.9,5.5-1.3,9.1-1.3h34.7c2.9,0,4.4,1.5,4.4,4.3
			v44.4c0,2.8-0.3,5.3-1,7.6s-1.8,4.2-3.3,5.9c-1.5,1.6-3.5,2.9-6,3.8c-2.5,0.9-5.6,1.3-9.2,1.3h-37v-13.4H426.4z M466.4,619.9h0.6
			v-28.1c0-1-0.5-1.5-1.5-1.5h-18.8c-2.4,0-4.2,0.5-5.2,1.6s-1.6,3-1.6,5.8v4.4c0,2.6,0.5,4.4,1.5,5.4s2.8,1.4,5.3,1.4h15.4
			L466.4,619.9z"/>
		<path class="st8" d="M490.1,612.2h39.1c0.9,0,1.6-0.2,1.9-0.6c0.3-0.4,0.5-1,0.5-1.9v-1c0-0.6-0.1-1.1-0.3-1.4
			c-0.2-0.3-0.7-0.5-1.4-0.6l-29.7-2.5c-3.7-0.3-6.4-1.4-8.1-3.4s-2.6-4.6-2.6-7.9v-3.8c0-3.5,1-6.2,2.9-8.2s5-3,9.4-3h43.1
			c1.4,0,2.2,0.7,2.2,2.2v10.6l-13.6,5H533v-5.5c0-0.5-0.2-0.7-0.6-0.7h-24.9c-0.9,0-1.5,0.2-1.8,0.5s-0.5,0.9-0.5,1.7v1.3
			c0,0.8,0.1,1.3,0.4,1.6c0.3,0.2,0.7,0.4,1.4,0.5l30.4,3c2,0.2,3.7,0.6,5,1.1c1.3,0.6,2.4,1.3,3.2,2.3s1.4,2.1,1.7,3.5
			s0.5,3,0.5,4.9v3.6c0,3.8-1,6.8-3,8.9s-5.6,3.1-10.7,3.1h-43.8v-13.3H490.1z"/>
	</g>
	<g>
		<path class="st0" d="M34.2,612.6v13H16.3v-60.7c0-1.7,0.8-2.6,2.5-2.6h52c5.9,0,10.2,1.3,12.8,4c2.6,2.6,3.9,6.4,3.9,11.2v5.6
			c0,2.6-0.5,4.6-1.6,6.2c-1,1.6-2.2,2.8-3.6,3.7c1.9,0.9,3.4,2.3,4.6,4.1s1.8,4,1.8,6.7v5.6c0,5.3-1.3,9.4-3.8,12.2
			s-6.9,4.2-13,4.2H39.8l-5-13h-0.6V612.6z M35.7,576.3c-1,0-1.5,0.5-1.5,1.5v10.7h30.1c2,0,3.4-0.4,4.2-1.1
			c0.8-0.8,1.2-2.1,1.2-3.9v-1.9c0-1.9-0.4-3.3-1.2-4c-0.8-0.8-2.2-1.2-4.2-1.2L35.7,576.3L35.7,576.3z M34.2,598.8v11.9h31.1
			c1.6,0,2.7-0.4,3.4-1.1c0.7-0.8,1.1-2.1,1.1-3.9v-1.8c0-1.9-0.3-3.2-1-3.9c-0.7-0.8-1.8-1.1-3.5-1.1H34.2V598.8z"/>
		<path class="st0" d="M95.2,570.3v-12.6H111v12.6H95.2z M95.2,625.6v-47.8H111v47.8H95.2z"/>
		<path class="st0" d="M180.3,606.6c0,2.9-0.3,5.5-1,7.8s-1.8,4.3-3.4,6c-1.6,1.7-3.6,2.9-6.1,3.8c-2.5,0.9-5.5,1.3-9,1.3h-23
			c-3.5,0-6.5-0.4-9-1.3c-2.5-0.9-4.5-2.2-6-3.8c-1.6-1.7-2.7-3.6-3.4-6c-0.7-2.3-1-4.9-1-7.8v-9.8c0-2.8,0.3-5.4,1-7.8
			c0.7-2.3,1.8-4.3,3.4-6s3.6-2.9,6-3.8c2.5-0.9,5.5-1.3,9-1.3h23c3.5,0,6.6,0.4,9,1.3c2.5,0.9,4.5,2.2,6.1,3.8
			c1.6,1.7,2.7,3.7,3.4,6s1,4.9,1,7.8V606.6z M157.9,611.6c2.5,0,4.2-0.5,5.2-1.5s1.5-2.8,1.5-5.6v-6.7c0-2.9-0.5-4.9-1.5-5.9
			s-2.7-1.6-5.2-1.6h-17.1c-2.5,0-4.2,0.5-5.2,1.6s-1.4,3-1.4,5.9v6.7c0,2.7,0.5,4.6,1.4,5.6c1,1,2.7,1.5,5.2,1.5H157.9z"/>
		<path class="st0" d="M226.8,578.1v47.5h-17.9v-47.5h-26.3l-5.8-15.1v-0.7h84c1.7,0,2.5,0.9,2.5,2.6v16.4l-16.6,6.2H246v-8.4
			c0-0.6-0.3-1-1-1H226.8z"/>
		<path class="st0" d="M269,557.7h15.7v20.1H308c3.5,0,6.6,0.4,9,1.3c2.5,0.9,4.5,2.2,6,3.8c1.5,1.7,2.7,3.6,3.3,6
			c0.7,2.3,1,4.9,1,7.8v28.8h-15.7v-27.8c0-2.8-0.6-4.7-1.7-5.8s-2.8-1.7-5-1.7h-17.1l-2.6-7h-0.6v42.2H269V557.7z"/>
		<path class="st0" d="M335.2,570.3v-12.6H351v12.6H335.2z M335.2,625.6v-47.8H351v47.8H335.2z"/>
		<path class="st0" d="M359,577.8h39c3.5,0,6.6,0.4,9,1.3c2.5,0.9,4.5,2.2,6,3.8c1.5,1.7,2.7,3.6,3.3,6c0.7,2.3,1,4.9,1,7.8v28.8
			h-15.7v-27.8c0-2.8-0.5-4.7-1.6-5.8c-1-1.1-2.8-1.7-5.1-1.7H378l-2.6-7h-0.6v42.2H359V577.8z"/>
		<path class="st0" d="M426.4,631.8h34.5c2.3,0,3.8-0.5,4.7-1.5c0.9-1,1.3-2.6,1.3-4.8v-3.8h-23.2c-7.1,0-12.2-1.4-15.1-4.3
			s-4.4-7.2-4.4-13.1v-7.5c0-2.9,0.3-5.5,1-7.8s1.8-4.3,3.4-6s3.6-2.9,6-3.8c2.5-0.9,5.5-1.3,9.1-1.3h34.7c2.9,0,4.4,1.5,4.4,4.3
			v44.4c0,2.8-0.3,5.3-1,7.6s-1.8,4.2-3.3,5.9c-1.5,1.6-3.5,2.9-6,3.8c-2.5,0.9-5.6,1.3-9.2,1.3h-37v-13.4H426.4z M466.4,619.9h0.6
			v-28.1c0-1-0.5-1.5-1.5-1.5h-18.8c-2.4,0-4.2,0.5-5.2,1.6s-1.6,3-1.6,5.8v4.4c0,2.6,0.5,4.4,1.5,5.4s2.8,1.4,5.3,1.4h15.4
			L466.4,619.9z"/>
		<path class="st0" d="M490.1,612.2h39.1c0.9,0,1.6-0.2,1.9-0.6c0.3-0.4,0.5-1,0.5-1.9v-1c0-0.6-0.1-1.1-0.3-1.4
			c-0.2-0.3-0.7-0.5-1.4-0.6l-29.7-2.5c-3.7-0.3-6.4-1.4-8.1-3.4s-2.6-4.6-2.6-7.9v-3.8c0-3.5,1-6.2,2.9-8.2s5-3,9.4-3h43.1
			c1.4,0,2.2,0.7,2.2,2.2v10.6l-13.6,5H533v-5.5c0-0.5-0.2-0.7-0.6-0.7h-24.9c-0.9,0-1.5,0.2-1.8,0.5s-0.5,0.9-0.5,1.7v1.3
			c0,0.8,0.1,1.3,0.4,1.6c0.3,0.2,0.7,0.4,1.4,0.5l30.4,3c2,0.2,3.7,0.6,5,1.1c1.3,0.6,2.4,1.3,3.2,2.3s1.4,2.1,1.7,3.5
			s0.5,3,0.5,4.9v3.6c0,3.8-1,6.8-3,8.9s-5.6,3.1-10.7,3.1h-43.8v-13.3H490.1z"/>
	</g>
	<g>
		
			<linearGradient id="SVGID_3_" gradientUnits="userSpaceOnUse" x1="282.05" y1="898.5001" x2="282.05" y2="811" gradientTransform="matrix(1 0 0 1 0 -253.3084)">
			<stop  offset="0.4009" style="stop-color:#FFFFFF;stop-opacity:0"/>
			<stop  offset="0.4044" style="stop-color:#FFFFFF;stop-opacity:0.5"/>
			<stop  offset="1" style="stop-color:#FFFFFF;stop-opacity:0"/>
		</linearGradient>
		<path class="st9" d="M34.2,612.6v13H16.3v-60.7c0-1.7,0.8-2.6,2.5-2.6h52c5.9,0,10.2,1.3,12.8,4c2.6,2.6,3.9,6.4,3.9,11.2v5.6
			c0,2.6-0.5,4.6-1.6,6.2c-1,1.6-2.2,2.8-3.6,3.7c1.9,0.9,3.4,2.3,4.6,4.1s1.8,4,1.8,6.7v5.6c0,5.3-1.3,9.4-3.8,12.2
			s-6.9,4.2-13,4.2H39.8l-5-13h-0.6V612.6z M35.7,576.3c-1,0-1.5,0.5-1.5,1.5v10.7h30.1c2,0,3.4-0.4,4.2-1.1
			c0.8-0.8,1.2-2.1,1.2-3.9v-1.9c0-1.9-0.4-3.3-1.2-4c-0.8-0.8-2.2-1.2-4.2-1.2L35.7,576.3L35.7,576.3z M34.2,598.8v11.9h31.1
			c1.6,0,2.7-0.4,3.4-1.1c0.7-0.8,1.1-2.1,1.1-3.9v-1.8c0-1.9-0.3-3.2-1-3.9c-0.7-0.8-1.8-1.1-3.5-1.1H34.2V598.8z"/>
		
			<linearGradient id="SVGID_4_" gradientUnits="userSpaceOnUse" x1="282.05" y1="898.5001" x2="282.05" y2="811" gradientTransform="matrix(1 0 0 1 0 -253.3084)">
			<stop  offset="0.4009" style="stop-color:#FFFFFF;stop-opacity:0"/>
			<stop  offset="0.4044" style="stop-color:#FFFFFF;stop-opacity:0.5"/>
			<stop  offset="1" style="stop-color:#FFFFFF;stop-opacity:0"/>
		</linearGradient>
		<path class="st10" d="M95.2,570.3v-12.6H111v12.6H95.2z M95.2,625.6v-47.8H111v47.8H95.2z"/>
		
			<linearGradient id="SVGID_5_" gradientUnits="userSpaceOnUse" x1="282.05" y1="898.5001" x2="282.05" y2="811" gradientTransform="matrix(1 0 0 1 0 -253.3084)">
			<stop  offset="0.4009" style="stop-color:#FFFFFF;stop-opacity:0"/>
			<stop  offset="0.4044" style="stop-color:#FFFFFF;stop-opacity:0.5"/>
			<stop  offset="1" style="stop-color:#FFFFFF;stop-opacity:0"/>
		</linearGradient>
		<path class="st11" d="M180.3,606.6c0,2.9-0.3,5.5-1,7.8s-1.8,4.3-3.4,6c-1.6,1.7-3.6,2.9-6.1,3.8c-2.5,0.9-5.5,1.3-9,1.3h-23
			c-3.5,0-6.5-0.4-9-1.3c-2.5-0.9-4.5-2.2-6-3.8c-1.6-1.7-2.7-3.6-3.4-6c-0.7-2.3-1-4.9-1-7.8v-9.8c0-2.8,0.3-5.4,1-7.8
			c0.7-2.3,1.8-4.3,3.4-6s3.6-2.9,6-3.8c2.5-0.9,5.5-1.3,9-1.3h23c3.5,0,6.6,0.4,9,1.3c2.5,0.9,4.5,2.2,6.1,3.8
			c1.6,1.7,2.7,3.7,3.4,6s1,4.9,1,7.8V606.6z M157.9,611.6c2.5,0,4.2-0.5,5.2-1.5s1.5-2.8,1.5-5.6v-6.7c0-2.9-0.5-4.9-1.5-5.9
			s-2.7-1.6-5.2-1.6h-17.1c-2.5,0-4.2,0.5-5.2,1.6s-1.4,3-1.4,5.9v6.7c0,2.7,0.5,4.6,1.4,5.6c1,1,2.7,1.5,5.2,1.5H157.9z"/>
		
			<linearGradient id="SVGID_6_" gradientUnits="userSpaceOnUse" x1="282.05" y1="898.5001" x2="282.05" y2="811" gradientTransform="matrix(1 0 0 1 0 -253.3084)">
			<stop  offset="0.4009" style="stop-color:#FFFFFF;stop-opacity:0"/>
			<stop  offset="0.4044" style="stop-color:#FFFFFF;stop-opacity:0.5"/>
			<stop  offset="1" style="stop-color:#FFFFFF;stop-opacity:0"/>
		</linearGradient>
		<path class="st12" d="M226.8,578.1v47.5h-17.9v-47.5h-26.3l-5.8-15.1v-0.7h84c1.7,0,2.5,0.9,2.5,2.6v16.4l-16.6,6.2H246v-8.4
			c0-0.6-0.3-1-1-1H226.8z"/>
		
			<linearGradient id="SVGID_7_" gradientUnits="userSpaceOnUse" x1="282.05" y1="898.5001" x2="282.05" y2="811" gradientTransform="matrix(1 0 0 1 0 -253.3084)">
			<stop  offset="0.4009" style="stop-color:#FFFFFF;stop-opacity:0"/>
			<stop  offset="0.4044" style="stop-color:#FFFFFF;stop-opacity:0.5"/>
			<stop  offset="1" style="stop-color:#FFFFFF;stop-opacity:0"/>
		</linearGradient>
		<path class="st13" d="M269,557.7h15.7v20.1H308c3.5,0,6.6,0.4,9,1.3c2.5,0.9,4.5,2.2,6,3.8c1.5,1.7,2.7,3.6,3.3,6
			c0.7,2.3,1,4.9,1,7.8v28.8h-15.7v-27.8c0-2.8-0.6-4.7-1.7-5.8s-2.8-1.7-5-1.7h-17.1l-2.6-7h-0.6v42.2H269V557.7z"/>
		
			<linearGradient id="SVGID_8_" gradientUnits="userSpaceOnUse" x1="282.05" y1="898.5001" x2="282.05" y2="811" gradientTransform="matrix(1 0 0 1 0 -253.3084)">
			<stop  offset="0.4009" style="stop-color:#FFFFFF;stop-opacity:0"/>
			<stop  offset="0.4044" style="stop-color:#FFFFFF;stop-opacity:0.5"/>
			<stop  offset="1" style="stop-color:#FFFFFF;stop-opacity:0"/>
		</linearGradient>
		<path class="st14" d="M335.2,570.3v-12.6H351v12.6H335.2z M335.2,625.6v-47.8H351v47.8H335.2z"/>
		
			<linearGradient id="SVGID_9_" gradientUnits="userSpaceOnUse" x1="282.05" y1="898.5001" x2="282.05" y2="811" gradientTransform="matrix(1 0 0 1 0 -253.3084)">
			<stop  offset="0.4009" style="stop-color:#FFFFFF;stop-opacity:0"/>
			<stop  offset="0.4044" style="stop-color:#FFFFFF;stop-opacity:0.5"/>
			<stop  offset="1" style="stop-color:#FFFFFF;stop-opacity:0"/>
		</linearGradient>
		<path class="st15" d="M359,577.8h39c3.5,0,6.6,0.4,9,1.3c2.5,0.9,4.5,2.2,6,3.8c1.5,1.7,2.7,3.6,3.3,6c0.7,2.3,1,4.9,1,7.8v28.8
			h-15.7v-27.8c0-2.8-0.5-4.7-1.6-5.8c-1-1.1-2.8-1.7-5.1-1.7H378l-2.6-7h-0.6v42.2H359V577.8z"/>
		
			<linearGradient id="SVGID_10_" gradientUnits="userSpaceOnUse" x1="282.05" y1="898.5001" x2="282.05" y2="811" gradientTransform="matrix(1 0 0 1 0 -253.3084)">
			<stop  offset="0.4009" style="stop-color:#FFFFFF;stop-opacity:0"/>
			<stop  offset="0.4044" style="stop-color:#FFFFFF;stop-opacity:0.5"/>
			<stop  offset="1" style="stop-color:#FFFFFF;stop-opacity:0"/>
		</linearGradient>
		<path class="st16" d="M426.4,631.8h34.5c2.3,0,3.8-0.5,4.7-1.5c0.9-1,1.3-2.6,1.3-4.8v-3.8h-23.2c-7.1,0-12.2-1.4-15.1-4.3
			s-4.4-7.2-4.4-13.1v-7.5c0-2.9,0.3-5.5,1-7.8s1.8-4.3,3.4-6s3.6-2.9,6-3.8c2.5-0.9,5.5-1.3,9.1-1.3h34.7c2.9,0,4.4,1.5,4.4,4.3
			v44.4c0,2.8-0.3,5.3-1,7.6s-1.8,4.2-3.3,5.9c-1.5,1.6-3.5,2.9-6,3.8c-2.5,0.9-5.6,1.3-9.2,1.3h-37v-13.4H426.4z M466.4,619.9h0.6
			v-28.1c0-1-0.5-1.5-1.5-1.5h-18.8c-2.4,0-4.2,0.5-5.2,1.6s-1.6,3-1.6,5.8v4.4c0,2.6,0.5,4.4,1.5,5.4s2.8,1.4,5.3,1.4h15.4
			L466.4,619.9z"/>
		
			<linearGradient id="SVGID_11_" gradientUnits="userSpaceOnUse" x1="282.05" y1="898.5001" x2="282.05" y2="811" gradientTransform="matrix(1 0 0 1 0 -253.3084)">
			<stop  offset="0.4009" style="stop-color:#FFFFFF;stop-opacity:0"/>
			<stop  offset="0.4044" style="stop-color:#FFFFFF;stop-opacity:0.5"/>
			<stop  offset="1" style="stop-color:#FFFFFF;stop-opacity:0"/>
		</linearGradient>
		<path class="st17" d="M490.1,612.2h39.1c0.9,0,1.6-0.2,1.9-0.6c0.3-0.4,0.5-1,0.5-1.9v-1c0-0.6-0.1-1.1-0.3-1.4
			c-0.2-0.3-0.7-0.5-1.4-0.6l-29.7-2.5c-3.7-0.3-6.4-1.4-8.1-3.4s-2.6-4.6-2.6-7.9v-3.8c0-3.5,1-6.2,2.9-8.2s5-3,9.4-3h43.1
			c1.4,0,2.2,0.7,2.2,2.2v10.6l-13.6,5H533v-5.5c0-0.5-0.2-0.7-0.6-0.7h-24.9c-0.9,0-1.5,0.2-1.8,0.5s-0.5,0.9-0.5,1.7v1.3
			c0,0.8,0.1,1.3,0.4,1.6c0.3,0.2,0.7,0.4,1.4,0.5l30.4,3c2,0.2,3.7,0.6,5,1.1c1.3,0.6,2.4,1.3,3.2,2.3s1.4,2.1,1.7,3.5
			s0.5,3,0.5,4.9v3.6c0,3.8-1,6.8-3,8.9s-5.6,3.1-10.7,3.1h-43.8v-13.3H490.1z"/>
	</g>
</g>
<g class="st6">
	<g>
		<path class="st1" d="M655.5,584.1h-0.7v-7c0-0.7-0.3-1-1-1h-33.4c-1.2,0-2.1,0.3-2.5,0.8c-0.5,0.5-0.7,1.3-0.7,2.3v1.6
			c0,1.2,0.2,2,0.6,2.3c0.4,0.3,1.2,0.6,2.3,0.8l39.3,5.5c2.5,0.3,4.6,0.9,6.4,1.6c1.7,0.7,3.2,1.7,4.3,2.9s1.9,2.7,2.3,4.4
			c0.5,1.7,0.7,3.8,0.7,6.2v5c0,2.6-0.3,4.9-1,6.9c-0.6,2-1.7,3.7-3.1,5c-1.5,1.4-3.4,2.4-5.7,3.1c-2.4,0.7-5.3,1-8.8,1h-56.4v-16.4
			h50.5c1.5,0,2.5-0.3,3-0.8c0.5-0.6,0.7-1.5,0.7-2.9v-1.7c0-1.1-0.2-1.9-0.6-2.3c-0.4-0.4-1.1-0.7-2.2-0.8l-37.9-4.8
			c-2.6-0.3-4.7-0.9-6.6-1.6c-1.8-0.7-3.3-1.6-4.5-2.8s-2-2.6-2.5-4.3s-0.8-3.7-0.8-6v-4.4c0-4.6,1.2-8.1,3.7-10.7
			c2.4-2.5,6.5-3.8,12.2-3.8h56.3c1.8,0,2.7,0.9,2.7,2.8v13L655.5,584.1z"/>
		<path class="st1" d="M716.2,589.8h-13.9v35.8h-15.7v-35.8h-6.3l-4.3-11.3v-0.7h10.6v-15.6h15.7v15.6h13.9V589.8z"/>
		<path class="st1" d="M722.1,577.8h15.7v26.7c0,2.7,0.6,4.5,1.7,5.5c1.1,1,3,1.5,5.7,1.5h14.4c2.8,0,4.7-0.5,5.8-1.6
			s1.7-2.9,1.7-5.4v-26.7h15.7v28.8c0,2.9-0.3,5.5-1,7.8s-1.8,4.3-3.3,6s-3.6,2.9-6,3.8c-2.5,0.9-5.5,1.3-9.1,1.3h-21.7
			c-3.5,0-6.5-0.4-9-1.3c-2.5-0.9-4.5-2.2-6-3.8c-1.5-1.7-2.7-3.6-3.3-6c-0.7-2.3-1-4.9-1-7.8v-28.8H722.1z"/>
		<path class="st1" d="M809.5,625.6c-3.5,0-6.5-0.4-9-1.3c-2.5-0.9-4.5-2.2-6-3.8c-1.5-1.7-2.7-3.6-3.3-6c-0.7-2.3-1-4.9-1-7.8v-9.8
			c0-2.8,0.3-5.4,1-7.8c0.7-2.3,1.8-4.3,3.3-6s3.5-2.9,6-3.8c2.5-0.9,5.5-1.3,9-1.3h23.3v-20.3h15.7v67.9H809.5z M827.3,611.6
			l4.7,12.3h0.7v-33.5h-20.4c-1.3,0-2.4,0.1-3.3,0.4c-0.8,0.3-1.5,0.8-2,1.5s-0.8,1.7-1,2.8c-0.2,1.2-0.3,2.6-0.3,4.4v5
			c0,2.7,0.5,4.6,1.5,5.6s2.7,1.5,5.1,1.5H827.3z"/>
		<path class="st1" d="M856.6,570.3v-12.6h15.7v12.6H856.6z M856.6,625.6v-47.8h15.7v47.8H856.6z"/>
		<path class="st1" d="M941.8,606.6c0,2.9-0.3,5.5-1,7.8s-1.8,4.3-3.4,6c-1.6,1.7-3.6,2.9-6.1,3.8c-2.5,0.9-5.5,1.3-9,1.3h-23
			c-3.5,0-6.5-0.4-9-1.3c-2.5-0.9-4.5-2.2-6-3.8c-1.6-1.7-2.7-3.6-3.4-6c-0.7-2.3-1-4.9-1-7.8v-9.8c0-2.8,0.3-5.4,1-7.8
			c0.7-2.3,1.8-4.3,3.4-6c1.6-1.7,3.6-2.9,6-3.8c2.5-0.9,5.5-1.3,9-1.3h23c3.5,0,6.6,0.4,9,1.3c2.5,0.9,4.5,2.2,6.1,3.8
			c1.6,1.7,2.7,3.7,3.4,6s1,4.9,1,7.8V606.6z M919.2,611.6c2.5,0,4.2-0.5,5.2-1.5s1.5-2.8,1.5-5.6v-6.7c0-2.9-0.5-4.9-1.5-5.9
			s-2.7-1.6-5.2-1.6h-17.1c-2.5,0-4.2,0.5-5.2,1.6s-1.4,3-1.4,5.9v6.7c0,2.7,0.5,4.6,1.4,5.6c1,1,2.7,1.5,5.2,1.5H919.2z"/>
	</g>
	<g>
		<path class="st7" d="M655.5,584.1h-0.7v-7c0-0.7-0.3-1-1-1h-33.4c-1.2,0-2.1,0.3-2.5,0.8c-0.5,0.5-0.7,1.3-0.7,2.3v1.6
			c0,1.2,0.2,2,0.6,2.3c0.4,0.3,1.2,0.6,2.3,0.8l39.3,5.5c2.5,0.3,4.6,0.9,6.4,1.6c1.7,0.7,3.2,1.7,4.3,2.9s1.9,2.7,2.3,4.4
			c0.5,1.7,0.7,3.8,0.7,6.2v5c0,2.6-0.3,4.9-1,6.9c-0.6,2-1.7,3.7-3.1,5c-1.5,1.4-3.4,2.4-5.7,3.1c-2.4,0.7-5.3,1-8.8,1h-56.4v-16.4
			h50.5c1.5,0,2.5-0.3,3-0.8c0.5-0.6,0.7-1.5,0.7-2.9v-1.7c0-1.1-0.2-1.9-0.6-2.3c-0.4-0.4-1.1-0.7-2.2-0.8l-37.9-4.8
			c-2.6-0.3-4.7-0.9-6.6-1.6c-1.8-0.7-3.3-1.6-4.5-2.8s-2-2.6-2.5-4.3s-0.8-3.7-0.8-6v-4.4c0-4.6,1.2-8.1,3.7-10.7
			c2.4-2.5,6.5-3.8,12.2-3.8h56.3c1.8,0,2.7,0.9,2.7,2.8v13L655.5,584.1z"/>
		<path class="st7" d="M716.2,589.8h-13.9v35.8h-15.7v-35.8h-6.3l-4.3-11.3v-0.7h10.6v-15.6h15.7v15.6h13.9V589.8z"/>
		<path class="st7" d="M722.1,577.8h15.7v26.7c0,2.7,0.6,4.5,1.7,5.5c1.1,1,3,1.5,5.7,1.5h14.4c2.8,0,4.7-0.5,5.8-1.6
			s1.7-2.9,1.7-5.4v-26.7h15.7v28.8c0,2.9-0.3,5.5-1,7.8s-1.8,4.3-3.3,6s-3.6,2.9-6,3.8c-2.5,0.9-5.5,1.3-9.1,1.3h-21.7
			c-3.5,0-6.5-0.4-9-1.3c-2.5-0.9-4.5-2.2-6-3.8c-1.5-1.7-2.7-3.6-3.3-6c-0.7-2.3-1-4.9-1-7.8v-28.8H722.1z"/>
		<path class="st7" d="M809.5,625.6c-3.5,0-6.5-0.4-9-1.3c-2.5-0.9-4.5-2.2-6-3.8c-1.5-1.7-2.7-3.6-3.3-6c-0.7-2.3-1-4.9-1-7.8v-9.8
			c0-2.8,0.3-5.4,1-7.8c0.7-2.3,1.8-4.3,3.3-6s3.5-2.9,6-3.8c2.5-0.9,5.5-1.3,9-1.3h23.3v-20.3h15.7v67.9H809.5z M827.3,611.6
			l4.7,12.3h0.7v-33.5h-20.4c-1.3,0-2.4,0.1-3.3,0.4c-0.8,0.3-1.5,0.8-2,1.5s-0.8,1.7-1,2.8c-0.2,1.2-0.3,2.6-0.3,4.4v5
			c0,2.7,0.5,4.6,1.5,5.6s2.7,1.5,5.1,1.5H827.3z"/>
		<path class="st7" d="M856.6,570.3v-12.6h15.7v12.6H856.6z M856.6,625.6v-47.8h15.7v47.8H856.6z"/>
		<path class="st7" d="M941.8,606.6c0,2.9-0.3,5.5-1,7.8s-1.8,4.3-3.4,6c-1.6,1.7-3.6,2.9-6.1,3.8c-2.5,0.9-5.5,1.3-9,1.3h-23
			c-3.5,0-6.5-0.4-9-1.3c-2.5-0.9-4.5-2.2-6-3.8c-1.6-1.7-2.7-3.6-3.4-6c-0.7-2.3-1-4.9-1-7.8v-9.8c0-2.8,0.3-5.4,1-7.8
			c0.7-2.3,1.8-4.3,3.4-6c1.6-1.7,3.6-2.9,6-3.8c2.5-0.9,5.5-1.3,9-1.3h23c3.5,0,6.6,0.4,9,1.3c2.5,0.9,4.5,2.2,6.1,3.8
			c1.6,1.7,2.7,3.7,3.4,6s1,4.9,1,7.8V606.6z M919.2,611.6c2.5,0,4.2-0.5,5.2-1.5s1.5-2.8,1.5-5.6v-6.7c0-2.9-0.5-4.9-1.5-5.9
			s-2.7-1.6-5.2-1.6h-17.1c-2.5,0-4.2,0.5-5.2,1.6s-1.4,3-1.4,5.9v6.7c0,2.7,0.5,4.6,1.4,5.6c1,1,2.7,1.5,5.2,1.5H919.2z"/>
	</g>
	<g>
		<path class="st8" d="M655.5,584.1h-0.7v-7c0-0.7-0.3-1-1-1h-33.4c-1.2,0-2.1,0.3-2.5,0.8c-0.5,0.5-0.7,1.3-0.7,2.3v1.6
			c0,1.2,0.2,2,0.6,2.3c0.4,0.3,1.2,0.6,2.3,0.8l39.3,5.5c2.5,0.3,4.6,0.9,6.4,1.6c1.7,0.7,3.2,1.7,4.3,2.9s1.9,2.7,2.3,4.4
			c0.5,1.7,0.7,3.8,0.7,6.2v5c0,2.6-0.3,4.9-1,6.9c-0.6,2-1.7,3.7-3.1,5c-1.5,1.4-3.4,2.4-5.7,3.1c-2.4,0.7-5.3,1-8.8,1h-56.4v-16.4
			h50.5c1.5,0,2.5-0.3,3-0.8c0.5-0.6,0.7-1.5,0.7-2.9v-1.7c0-1.1-0.2-1.9-0.6-2.3c-0.4-0.4-1.1-0.7-2.2-0.8l-37.9-4.8
			c-2.6-0.3-4.7-0.9-6.6-1.6c-1.8-0.7-3.3-1.6-4.5-2.8s-2-2.6-2.5-4.3s-0.8-3.7-0.8-6v-4.4c0-4.6,1.2-8.1,3.7-10.7
			c2.4-2.5,6.5-3.8,12.2-3.8h56.3c1.8,0,2.7,0.9,2.7,2.8v13L655.5,584.1z"/>
		<path class="st8" d="M716.2,589.8h-13.9v35.8h-15.7v-35.8h-6.3l-4.3-11.3v-0.7h10.6v-15.6h15.7v15.6h13.9V589.8z"/>
		<path class="st8" d="M722.1,577.8h15.7v26.7c0,2.7,0.6,4.5,1.7,5.5c1.1,1,3,1.5,5.7,1.5h14.4c2.8,0,4.7-0.5,5.8-1.6
			s1.7-2.9,1.7-5.4v-26.7h15.7v28.8c0,2.9-0.3,5.5-1,7.8s-1.8,4.3-3.3,6s-3.6,2.9-6,3.8c-2.5,0.9-5.5,1.3-9.1,1.3h-21.7
			c-3.5,0-6.5-0.4-9-1.3c-2.5-0.9-4.5-2.2-6-3.8c-1.5-1.7-2.7-3.6-3.3-6c-0.7-2.3-1-4.9-1-7.8v-28.8H722.1z"/>
		<path class="st8" d="M809.5,625.6c-3.5,0-6.5-0.4-9-1.3c-2.5-0.9-4.5-2.2-6-3.8c-1.5-1.7-2.7-3.6-3.3-6c-0.7-2.3-1-4.9-1-7.8v-9.8
			c0-2.8,0.3-5.4,1-7.8c0.7-2.3,1.8-4.3,3.3-6s3.5-2.9,6-3.8c2.5-0.9,5.5-1.3,9-1.3h23.3v-20.3h15.7v67.9H809.5z M827.3,611.6
			l4.7,12.3h0.7v-33.5h-20.4c-1.3,0-2.4,0.1-3.3,0.4c-0.8,0.3-1.5,0.8-2,1.5s-0.8,1.7-1,2.8c-0.2,1.2-0.3,2.6-0.3,4.4v5
			c0,2.7,0.5,4.6,1.5,5.6s2.7,1.5,5.1,1.5H827.3z"/>
		<path class="st8" d="M856.6,570.3v-12.6h15.7v12.6H856.6z M856.6,625.6v-47.8h15.7v47.8H856.6z"/>
		<path class="st8" d="M941.8,606.6c0,2.9-0.3,5.5-1,7.8s-1.8,4.3-3.4,6c-1.6,1.7-3.6,2.9-6.1,3.8c-2.5,0.9-5.5,1.3-9,1.3h-23
			c-3.5,0-6.5-0.4-9-1.3c-2.5-0.9-4.5-2.2-6-3.8c-1.6-1.7-2.7-3.6-3.4-6c-0.7-2.3-1-4.9-1-7.8v-9.8c0-2.8,0.3-5.4,1-7.8
			c0.7-2.3,1.8-4.3,3.4-6c1.6-1.7,3.6-2.9,6-3.8c2.5-0.9,5.5-1.3,9-1.3h23c3.5,0,6.6,0.4,9,1.3c2.5,0.9,4.5,2.2,6.1,3.8
			c1.6,1.7,2.7,3.7,3.4,6s1,4.9,1,7.8V606.6z M919.2,611.6c2.5,0,4.2-0.5,5.2-1.5s1.5-2.8,1.5-5.6v-6.7c0-2.9-0.5-4.9-1.5-5.9
			s-2.7-1.6-5.2-1.6h-17.1c-2.5,0-4.2,0.5-5.2,1.6s-1.4,3-1.4,5.9v6.7c0,2.7,0.5,4.6,1.4,5.6c1,1,2.7,1.5,5.2,1.5H919.2z"/>
	</g>
	<g>
		<path class="st1" d="M655.5,584.1h-0.7v-7c0-0.7-0.3-1-1-1h-33.4c-1.2,0-2.1,0.3-2.5,0.8c-0.5,0.5-0.7,1.3-0.7,2.3v1.6
			c0,1.2,0.2,2,0.6,2.3c0.4,0.3,1.2,0.6,2.3,0.8l39.3,5.5c2.5,0.3,4.6,0.9,6.4,1.6c1.7,0.7,3.2,1.7,4.3,2.9s1.9,2.7,2.3,4.4
			c0.5,1.7,0.7,3.8,0.7,6.2v5c0,2.6-0.3,4.9-1,6.9c-0.6,2-1.7,3.7-3.1,5c-1.5,1.4-3.4,2.4-5.7,3.1c-2.4,0.7-5.3,1-8.8,1h-56.4v-16.4
			h50.5c1.5,0,2.5-0.3,3-0.8c0.5-0.6,0.7-1.5,0.7-2.9v-1.7c0-1.1-0.2-1.9-0.6-2.3c-0.4-0.4-1.1-0.7-2.2-0.8l-37.9-4.8
			c-2.6-0.3-4.7-0.9-6.6-1.6c-1.8-0.7-3.3-1.6-4.5-2.8s-2-2.6-2.5-4.3s-0.8-3.7-0.8-6v-4.4c0-4.6,1.2-8.1,3.7-10.7
			c2.4-2.5,6.5-3.8,12.2-3.8h56.3c1.8,0,2.7,0.9,2.7,2.8v13L655.5,584.1z"/>
		<path class="st1" d="M716.2,589.8h-13.9v35.8h-15.7v-35.8h-6.3l-4.3-11.3v-0.7h10.6v-15.6h15.7v15.6h13.9V589.8z"/>
		<path class="st1" d="M722.1,577.8h15.7v26.7c0,2.7,0.6,4.5,1.7,5.5c1.1,1,3,1.5,5.7,1.5h14.4c2.8,0,4.7-0.5,5.8-1.6
			s1.7-2.9,1.7-5.4v-26.7h15.7v28.8c0,2.9-0.3,5.5-1,7.8s-1.8,4.3-3.3,6s-3.6,2.9-6,3.8c-2.5,0.9-5.5,1.3-9.1,1.3h-21.7
			c-3.5,0-6.5-0.4-9-1.3c-2.5-0.9-4.5-2.2-6-3.8c-1.5-1.7-2.7-3.6-3.3-6c-0.7-2.3-1-4.9-1-7.8v-28.8H722.1z"/>
		<path class="st1" d="M809.5,625.6c-3.5,0-6.5-0.4-9-1.3c-2.5-0.9-4.5-2.2-6-3.8c-1.5-1.7-2.7-3.6-3.3-6c-0.7-2.3-1-4.9-1-7.8v-9.8
			c0-2.8,0.3-5.4,1-7.8c0.7-2.3,1.8-4.3,3.3-6s3.5-2.9,6-3.8c2.5-0.9,5.5-1.3,9-1.3h23.3v-20.3h15.7v67.9H809.5z M827.3,611.6
			l4.7,12.3h0.7v-33.5h-20.4c-1.3,0-2.4,0.1-3.3,0.4c-0.8,0.3-1.5,0.8-2,1.5s-0.8,1.7-1,2.8c-0.2,1.2-0.3,2.6-0.3,4.4v5
			c0,2.7,0.5,4.6,1.5,5.6s2.7,1.5,5.1,1.5H827.3z"/>
		<path class="st1" d="M856.6,570.3v-12.6h15.7v12.6H856.6z M856.6,625.6v-47.8h15.7v47.8H856.6z"/>
		<path class="st1" d="M941.8,606.6c0,2.9-0.3,5.5-1,7.8s-1.8,4.3-3.4,6c-1.6,1.7-3.6,2.9-6.1,3.8c-2.5,0.9-5.5,1.3-9,1.3h-23
			c-3.5,0-6.5-0.4-9-1.3c-2.5-0.9-4.5-2.2-6-3.8c-1.6-1.7-2.7-3.6-3.4-6c-0.7-2.3-1-4.9-1-7.8v-9.8c0-2.8,0.3-5.4,1-7.8
			c0.7-2.3,1.8-4.3,3.4-6c1.6-1.7,3.6-2.9,6-3.8c2.5-0.9,5.5-1.3,9-1.3h23c3.5,0,6.6,0.4,9,1.3c2.5,0.9,4.5,2.2,6.1,3.8
			c1.6,1.7,2.7,3.7,3.4,6s1,4.9,1,7.8V606.6z M919.2,611.6c2.5,0,4.2-0.5,5.2-1.5s1.5-2.8,1.5-5.6v-6.7c0-2.9-0.5-4.9-1.5-5.9
			s-2.7-1.6-5.2-1.6h-17.1c-2.5,0-4.2,0.5-5.2,1.6s-1.4,3-1.4,5.9v6.7c0,2.7,0.5,4.6,1.4,5.6c1,1,2.7,1.5,5.2,1.5H919.2z"/>
	</g>
	<g>
		
			<linearGradient id="SVGID_12_" gradientUnits="userSpaceOnUse" x1="769.5" y1="878.9" x2="769.5" y2="811" gradientTransform="matrix(1 0 0 1 0 -253.3084)">
			<stop  offset="0.4009" style="stop-color:#FFFFFF;stop-opacity:0"/>
			<stop  offset="0.4044" style="stop-color:#FFFFFF;stop-opacity:0.5"/>
			<stop  offset="1" style="stop-color:#FFFFFF;stop-opacity:0"/>
		</linearGradient>
		<path class="st18" d="M655.5,584.1h-0.7v-7c0-0.7-0.3-1-1-1h-33.4c-1.2,0-2.1,0.3-2.5,0.8c-0.5,0.5-0.7,1.3-0.7,2.3v1.6
			c0,1.2,0.2,2,0.6,2.3c0.4,0.3,1.2,0.6,2.3,0.8l39.3,5.5c2.5,0.3,4.6,0.9,6.4,1.6c1.7,0.7,3.2,1.7,4.3,2.9s1.9,2.7,2.3,4.4
			c0.5,1.7,0.7,3.8,0.7,6.2v5c0,2.6-0.3,4.9-1,6.9c-0.6,2-1.7,3.7-3.1,5c-1.5,1.4-3.4,2.4-5.7,3.1c-2.4,0.7-5.3,1-8.8,1h-56.4v-16.4
			h50.5c1.5,0,2.5-0.3,3-0.8c0.5-0.6,0.7-1.5,0.7-2.9v-1.7c0-1.1-0.2-1.9-0.6-2.3c-0.4-0.4-1.1-0.7-2.2-0.8l-37.9-4.8
			c-2.6-0.3-4.7-0.9-6.6-1.6c-1.8-0.7-3.3-1.6-4.5-2.8s-2-2.6-2.5-4.3s-0.8-3.7-0.8-6v-4.4c0-4.6,1.2-8.1,3.7-10.7
			c2.4-2.5,6.5-3.8,12.2-3.8h56.3c1.8,0,2.7,0.9,2.7,2.8v13L655.5,584.1z"/>
		
			<linearGradient id="SVGID_13_" gradientUnits="userSpaceOnUse" x1="769.5" y1="878.9" x2="769.5" y2="811" gradientTransform="matrix(1 0 0 1 0 -253.3084)">
			<stop  offset="0.4009" style="stop-color:#FFFFFF;stop-opacity:0"/>
			<stop  offset="0.4044" style="stop-color:#FFFFFF;stop-opacity:0.5"/>
			<stop  offset="1" style="stop-color:#FFFFFF;stop-opacity:0"/>
		</linearGradient>
		<path class="st19" d="M716.2,589.8h-13.9v35.8h-15.7v-35.8h-6.3l-4.3-11.3v-0.7h10.6v-15.6h15.7v15.6h13.9V589.8z"/>
		
			<linearGradient id="SVGID_14_" gradientUnits="userSpaceOnUse" x1="769.5" y1="878.9" x2="769.5" y2="811" gradientTransform="matrix(1 0 0 1 0 -253.3084)">
			<stop  offset="0.4009" style="stop-color:#FFFFFF;stop-opacity:0"/>
			<stop  offset="0.4044" style="stop-color:#FFFFFF;stop-opacity:0.5"/>
			<stop  offset="1" style="stop-color:#FFFFFF;stop-opacity:0"/>
		</linearGradient>
		<path class="st20" d="M722.1,577.8h15.7v26.7c0,2.7,0.6,4.5,1.7,5.5c1.1,1,3,1.5,5.7,1.5h14.4c2.8,0,4.7-0.5,5.8-1.6
			s1.7-2.9,1.7-5.4v-26.7h15.7v28.8c0,2.9-0.3,5.5-1,7.8s-1.8,4.3-3.3,6s-3.6,2.9-6,3.8c-2.5,0.9-5.5,1.3-9.1,1.3h-21.7
			c-3.5,0-6.5-0.4-9-1.3c-2.5-0.9-4.5-2.2-6-3.8c-1.5-1.7-2.7-3.6-3.3-6c-0.7-2.3-1-4.9-1-7.8v-28.8H722.1z"/>
		
			<linearGradient id="SVGID_15_" gradientUnits="userSpaceOnUse" x1="769.5" y1="878.9" x2="769.5" y2="811" gradientTransform="matrix(1 0 0 1 0 -253.3084)">
			<stop  offset="0.4009" style="stop-color:#FFFFFF;stop-opacity:0"/>
			<stop  offset="0.4044" style="stop-color:#FFFFFF;stop-opacity:0.5"/>
			<stop  offset="1" style="stop-color:#FFFFFF;stop-opacity:0"/>
		</linearGradient>
		<path class="st21" d="M809.5,625.6c-3.5,0-6.5-0.4-9-1.3c-2.5-0.9-4.5-2.2-6-3.8c-1.5-1.7-2.7-3.6-3.3-6c-0.7-2.3-1-4.9-1-7.8
			v-9.8c0-2.8,0.3-5.4,1-7.8c0.7-2.3,1.8-4.3,3.3-6s3.5-2.9,6-3.8c2.5-0.9,5.5-1.3,9-1.3h23.3v-20.3h15.7v67.9H809.5z M827.3,611.6
			l4.7,12.3h0.7v-33.5h-20.4c-1.3,0-2.4,0.1-3.3,0.4c-0.8,0.3-1.5,0.8-2,1.5s-0.8,1.7-1,2.8c-0.2,1.2-0.3,2.6-0.3,4.4v5
			c0,2.7,0.5,4.6,1.5,5.6s2.7,1.5,5.1,1.5H827.3z"/>
		
			<linearGradient id="SVGID_16_" gradientUnits="userSpaceOnUse" x1="769.5" y1="878.9" x2="769.5" y2="811" gradientTransform="matrix(1 0 0 1 0 -253.3084)">
			<stop  offset="0.4009" style="stop-color:#FFFFFF;stop-opacity:0"/>
			<stop  offset="0.4044" style="stop-color:#FFFFFF;stop-opacity:0.5"/>
			<stop  offset="1" style="stop-color:#FFFFFF;stop-opacity:0"/>
		</linearGradient>
		<path class="st22" d="M856.6,570.3v-12.6h15.7v12.6H856.6z M856.6,625.6v-47.8h15.7v47.8H856.6z"/>
		
			<linearGradient id="SVGID_17_" gradientUnits="userSpaceOnUse" x1="769.5" y1="878.9" x2="769.5" y2="811" gradientTransform="matrix(1 0 0 1 0 -253.3084)">
			<stop  offset="0.4009" style="stop-color:#FFFFFF;stop-opacity:0"/>
			<stop  offset="0.4044" style="stop-color:#FFFFFF;stop-opacity:0.5"/>
			<stop  offset="1" style="stop-color:#FFFFFF;stop-opacity:0"/>
		</linearGradient>
		<path class="st23" d="M941.8,606.6c0,2.9-0.3,5.5-1,7.8s-1.8,4.3-3.4,6c-1.6,1.7-3.6,2.9-6.1,3.8c-2.5,0.9-5.5,1.3-9,1.3h-23
			c-3.5,0-6.5-0.4-9-1.3c-2.5-0.9-4.5-2.2-6-3.8c-1.6-1.7-2.7-3.6-3.4-6c-0.7-2.3-1-4.9-1-7.8v-9.8c0-2.8,0.3-5.4,1-7.8
			c0.7-2.3,1.8-4.3,3.4-6c1.6-1.7,3.6-2.9,6-3.8c2.5-0.9,5.5-1.3,9-1.3h23c3.5,0,6.6,0.4,9,1.3c2.5,0.9,4.5,2.2,6.1,3.8
			c1.6,1.7,2.7,3.7,3.4,6s1,4.9,1,7.8V606.6z M919.2,611.6c2.5,0,4.2-0.5,5.2-1.5s1.5-2.8,1.5-5.6v-6.7c0-2.9-0.5-4.9-1.5-5.9
			s-2.7-1.6-5.2-1.6h-17.1c-2.5,0-4.2,0.5-5.2,1.6s-1.4,3-1.4,5.9v6.7c0,2.7,0.5,4.6,1.4,5.6c1,1,2.7,1.5,5.2,1.5H919.2z"/>
	</g>
</g>
<g>
	<linearGradient id="SVGID_18_" gradientUnits="userSpaceOnUse" x1="394.5" y1="238.95" x2="524.3" y2="238.95">
		<stop  offset="0.4009" style="stop-color:#FFFFFF;stop-opacity:0"/>
		<stop  offset="0.4044" style="stop-color:#FFFFFF;stop-opacity:0.5"/>
		<stop  offset="1" style="stop-color:#FFFFFF;stop-opacity:0"/>
	</linearGradient>
	<polygon class="st24" points="524.3,199.6 470.4,278.3 394.5,278.3 448.4,199.6 	"/>
</g>
</svg>
