<?xml version="1.0" encoding="utf-8"?>
<!-- Generator: Adobe Illustrator 22.1.0, SVG Export Plug-In . SVG Version: 6.00 Build 0)  -->
<svg version="1.1" id="Layer_1" xmlns="http://www.w3.org/2000/svg" xmlns:xlink="http://www.w3.org/1999/xlink" x="0px" y="0px"
	 viewBox="0 0 1377.1 237" style="enable-background:new 0 0 1377.1 237;" xml:space="preserve">
<style type="text/css">
	.st0{fill:none;}
	.st1{enable-background:new    ;}
	.st2{fill:#5B5B5B;}
	.st3{fill:#FCCA52;}
	.st4{fill:#FFFFFF;}
	.st5{fill:#B3B3B3;}
	.st6{fill:#E6E6E6;}
	.st7{fill:#808080;}
</style>
<g>
	<g>
		<g>
			<rect x="227.7" y="62.2" class="st0" width="1101.5" height="128.5"/>
		</g>
		<g>
			<g class="st1">
				<g>
					<path class="st2" d="M310.1,162.8h-44.5c-1.4,0-2.7-0.4-3.8-1.1c-1.1,0.7-2.4,1.1-3.8,1.1h-24.7c-3.9,0-7-3.1-7-7V72.1
						c0-6.2,4.3-10.6,10.5-10.6h71.7c10.1,0,17.7,2.5,22.6,7.5c4.9,5,7.4,11.8,7.4,20.3V97c0,4.9-1.1,9.1-3.3,12.4
						c-0.1,0.2-0.3,0.4-0.4,0.6c0.6,0.7,1.3,1.5,1.8,2.4c2.5,3.7,3.7,8.1,3.7,13.2v7.7c0,9.1-2.4,16.4-7,21.5
						C328.4,160.1,320.6,162.8,310.1,162.8z M270.4,148.8h39.7c6.3,0,10.7-1.2,12.7-3.5c2.3-2.5,3.4-6.6,3.4-12.1v-7.7
						c0-2.2-0.4-4-1.3-5.3c-1-1.5-2.2-2.6-3.7-3.3c-2.2-1.1-3.7-3.3-3.9-5.8c-0.2-2.5,1-4.8,3-6.3c1.1-0.8,2.1-1.9,3.1-3.3
						c0.6-1,1-2.6,1-4.6v-7.7c0-4.8-1.1-8.2-3.4-10.5c-2.2-2.2-6.6-3.4-12.6-3.4h-68.2v73.3h10.7v-10.9c0-0.5,0-0.9,0.1-1.3
						c-0.1-0.4-0.1-0.9-0.1-1.3v-16.4c0-3.9,3.1-7,7-7h42.9c4.4,0,7.8,1.3,10.1,3.9c2.1,2.4,3.1,5.7,3.1,10v2.5
						c0,4.4-1.2,7.9-3.5,10.3c-2.4,2.5-5.7,3.7-9.8,3.7h-32.9L270.4,148.8z M264.9,128.3h35.2v-2.4h-35.2V128.3z M301.7,125.9
						L301.7,125.9L301.7,125.9z M299.4,111.7h-41.5c-3.9,0-7-3.1-7-7V90c0-5.2,3.8-9.1,9-9.1h39.5c4.6,0,8.2,1.2,10.6,3.6
						c2.5,2.4,3.8,6,3.8,10.6v2.6c0,4.6-1.3,8.1-3.9,10.5C307.4,110.6,304,111.7,299.4,111.7z M264.9,97.7h34.5c0.2,0,0.3,0,0.4,0
						v-2.6c0-0.1,0-0.1,0-0.2c-0.1,0-0.3,0-0.4,0h-34.5V97.7z"/>
				</g>
				<g>
					<path class="st2" d="M363.7,162.8H342c-3.9,0-7-3.1-7-7V90c0-2,0.9-3.9,2.3-5.2c-1.4-1.3-2.3-3.1-2.3-5.2V62.2c0-3.9,3.1-7,7-7
						h21.7c3.9,0,7,3.1,7,7v17.4c0,2-0.9,3.9-2.3,5.2c1.4,1.3,2.3,3.1,2.3,5.2v65.9C370.7,159.7,367.6,162.8,363.7,162.8z
						 M349,148.8h7.7V97H349V148.8z M349,72.6h7.7v-3.4H349V72.6z"/>
				</g>
				<g>
					<path class="st2" d="M432.3,162.8h-31.7c-5.7,0-10.7-0.8-14.8-2.3c-4.4-1.6-8.1-4-11-7c-2.9-3.1-5-6.8-6.3-11
						c-1.2-3.8-1.7-8.1-1.7-12.8v-13.6c0-4.6,0.6-8.9,1.7-12.7c1.3-4.3,3.4-8,6.3-11.1c2.9-3.1,6.6-5.4,11-7
						c4.2-1.5,9.1-2.3,14.8-2.3h31.7c5.7,0,10.7,0.8,14.9,2.3c4.5,1.6,8.2,4,11.1,7.1c2.9,3.1,5,6.8,6.3,11.1
						c1.1,3.9,1.7,8.2,1.7,12.7v13.6c0,4.7-0.6,9-1.7,12.8c-1.3,4.2-3.4,8-6.3,11c-2.9,3.1-6.6,5.4-11.1,7.1
						C443,162.1,438,162.8,432.3,162.8z M400.6,97c-4,0-7.4,0.5-10,1.4c-2.4,0.9-4.2,2-5.7,3.5c-1.4,1.5-2.4,3.3-3,5.4
						c-0.8,2.6-1.2,5.5-1.2,8.7v13.6c0,3.3,0.4,6.3,1.1,8.8c0.6,2.2,1.6,3.9,3.1,5.4c1.4,1.5,3.3,2.6,5.6,3.5c2.6,1,6,1.4,10,1.4
						h31.7c4,0,7.4-0.5,10.1-1.4c2.4-0.9,4.3-2,5.7-3.5c1.4-1.5,2.4-3.3,3.1-5.4c0.8-2.5,1.1-5.5,1.1-8.8v-13.6
						c0-3.2-0.4-6.2-1.2-8.7c-0.6-2.2-1.6-4-3-5.4c-1.4-1.5-3.3-2.6-5.7-3.5c-2.7-1-6.1-1.4-10.1-1.4H400.6z M428.4,143.5h-23.6
						c-5.5,0-9.4-1.4-12.2-4.2c-2.7-2.7-4-6.9-4-12.6v-9.2c0-5.7,1.2-9.9,3.8-12.8c2.7-3,6.9-4.6,12.4-4.6h23.6
						c5.3,0,9.4,1.4,12.2,4.3c2.7,2.8,4.1,7.1,4.1,13v9.2c0,5.7-1.3,9.9-4.1,12.6C437.8,142.2,433.8,143.5,428.4,143.5z
						 M402.8,129.4c0.4,0.1,1,0.1,1.9,0.1h23.6c1,0,1.6-0.1,2-0.1c0.1-0.5,0.2-1.3,0.2-2.6v-9.2c0-1.6-0.1-2.6-0.3-3.1
						c-0.4-0.1-1-0.2-2-0.2h-23.6c-0.9,0-1.5,0.1-1.8,0.1c-0.1,0.6-0.3,1.6-0.3,3.2v9.2C402.6,128,402.7,128.8,402.8,129.4z"/>
				</g>
				<g>
					<path class="st2" d="M523.4,162.8h-24.7c-3.9,0-7-3.1-7-7V97.3h-29.2c-2.9,0-5.5-1.8-6.5-4.5l-8-20.9c-0.3-0.8-0.5-1.7-0.5-2.5
						v-1c0-3.9,3.1-7,7-7h115.8c6.2,0,10.5,4.4,10.5,10.6v22.7c0,2.9-1.8,5.6-4.6,6.6l-22.9,8.5c-0.8,0.3-1.6,0.4-2.4,0.4h-1
						c-3.9,0-7-3.1-7-7v-5.9h-12.4v58.5C530.4,159.7,527.2,162.8,523.4,162.8z M505.7,148.8h10.7V90.3c0-3.9,3.1-7,7-7h25.1
						c4.7,0,8.3,3.6,8.3,8.3v1.9l9.9-3.7V75.5H464.2l3,7.8h31.4c3.9,0,7,3.1,7,7V148.8z"/>
				</g>
				<g>
					<path class="st2" d="M662.2,162.8h-21.7c-3.9,0-7-3.1-7-7v-38.3c0-1.8-0.2-2.7-0.3-3.1c-0.2-0.1-0.8-0.2-1.9-0.2h-20.9v41.6
						c0,3.9-3.1,7-7,7h-21.7c-3.9,0-7-3.1-7-7V62.2c0-3.9,3.1-7,7-7h21.7c3.9,0,7,3.1,7,7v20.7h25c5.7,0,10.7,0.8,14.9,2.3
						c4.5,1.6,8.2,4,11.1,7.1c2.8,3.1,4.9,6.8,6.2,11c1.2,3.8,1.7,8.1,1.7,12.8v39.7C669.2,159.7,666,162.8,662.2,162.8z
						 M647.5,148.8h7.7v-32.7c0-3.3-0.4-6.3-1.1-8.8c-0.7-2.2-1.6-4-3-5.5c-1.3-1.4-3.2-2.6-5.6-3.5c-2.7-1-6.1-1.4-10.1-1.4h-24
						l1.2,3.3h18.7c4.9,0,8.9,1.4,11.8,4.3c3,2.9,4.5,7.2,4.5,13.1V148.8z M588.6,148.8h7.7V97.6c0-1.4,0.4-2.7,1.1-3.8
						c-0.7-1.1-1.1-2.4-1.1-3.8V69.3h-7.7V148.8z"/>
				</g>
				<g>
					<path class="st2" d="M694.5,162.8h-21.7c-3.9,0-7-3.1-7-7V90c0-2,0.9-3.9,2.3-5.2c-1.4-1.3-2.3-3.1-2.3-5.2V62.2
						c0-3.9,3.1-7,7-7h21.7c3.9,0,7,3.1,7,7v17.4c0,2-0.9,3.9-2.3,5.2c1.4,1.3,2.3,3.1,2.3,5.2v65.9
						C701.6,159.7,698.4,162.8,694.5,162.8z M679.8,148.8h7.7V97h-7.7V148.8z M679.8,72.6h7.7v-3.4h-7.7V72.6z"/>
				</g>
				<g>
					<path class="st2" d="M786.3,162.8h-21.7c-3.9,0-7-3.1-7-7v-38.3c0-1.7-0.2-2.7-0.3-3.1c-0.3-0.1-0.9-0.2-1.9-0.2h-20.9v41.6
						c0,3.9-3.1,7-7,7h-21.7c-3.9,0-7-3.1-7-7V90c0-3.9,3.1-7,7-7h53.7c5.7,0,10.7,0.8,14.9,2.3c4.5,1.6,8.2,4,11.1,7.1
						c2.8,3.1,4.9,6.8,6.2,11c1.2,3.8,1.7,8.1,1.7,12.8v39.7C793.3,159.7,790.2,162.8,786.3,162.8z M771.6,148.8h7.7v-32.7
						c0-3.3-0.4-6.3-1.1-8.8c-0.7-2.2-1.6-4-3-5.5c-1.3-1.4-3.2-2.6-5.6-3.5c-2.7-1-6.1-1.4-10.1-1.4h-24l1.2,3.3h18.7
						c5.3,0,9.4,1.5,12.2,4.5c2.7,2.9,4.1,7.1,4.1,12.9V148.8z M712.7,148.8h7.7V97.6c0-0.2,0-0.4,0-0.7h-7.7V148.8z M757.1,114.1
						L757.1,114.1L757.1,114.1z"/>
				</g>
				<g>
					<path class="st2" d="M849.5,189.8h-51c-3.9,0-7-3.1-7-7v-18.4c0-3.9,3.1-7,7-7h47.6c0.2,0,0.4,0,0.6,0h-24.2
						c-11.8,0-20.3-2.6-25.8-7.9c-5.5-5.3-8.2-13.1-8.2-23.1v-10.3c0-4.7,0.6-9,1.7-12.8c1.3-4.2,3.4-8,6.3-11c2.9-3.1,6.6-5.4,11-7
						c4.2-1.5,9.2-2.3,14.9-2.3h47.9c7.9,0,13,5.1,13,13v61.2c0,4.5-0.6,8.7-1.7,12.5c-1.2,4.2-3.3,7.9-6.1,10.9
						c-2.8,3.1-6.6,5.4-11,7C860.4,189,855.4,189.8,849.5,189.8z M805.6,175.8h44c4.2,0,7.7-0.5,10.3-1.4c2.4-0.9,4.2-2,5.5-3.4
						c1.3-1.4,2.3-3.2,2.9-5.3c0.7-2.5,1.1-5.4,1.1-8.5V97h-46.9c-4.1,0-7.5,0.5-10.1,1.4c-2.4,0.9-4.2,2-5.6,3.5
						c-1.4,1.5-2.4,3.3-3.1,5.4c-0.8,2.5-1.1,5.5-1.1,8.8v10.3c0,6.1,1.3,10.5,4,13c1.9,1.8,6.1,4,16,4h21.9l-1.4-3.5h-16.4
						c-5.3,0-9.3-1.3-12.1-3.9c-2.9-2.7-4.3-6.8-4.3-12.5v-6.1c0-5.8,1.4-10,4.1-12.9c2.8-2.9,6.9-4.3,12.2-4.3h25.9
						c5.2,0,9.1,3.8,9.1,9.1V148c0,0.4,0,0.8-0.1,1.2c0.1,0.4,0.1,0.8,0.1,1.2v5.3c0,4.8-1.2,8.6-3.6,11.3c-2.6,3-6.6,4.5-11.8,4.5
						h-40.6V175.8z M824.6,126.3L824.6,126.3L824.6,126.3z M824.4,125.7c0.4,0.1,1.1,0.2,2.2,0.2h20.9v-11.6h-20.9
						c-1,0-1.7,0.1-2.1,0.2c-0.1,0.5-0.3,1.4-0.3,3v6.1C824.3,124.6,824.3,125.3,824.4,125.7z M823.8,125.6L823.8,125.6L823.8,125.6
						z"/>
				</g>
				<g>
					<path class="st2" d="M946.9,162.8h-60.5c-3.9,0-7-3.1-7-7v-18.5c0-3.9,3.1-7,7-7h2.6c-2-1.1-3.7-2.4-5.1-4.1
						c-3.6-4-5.4-9.3-5.4-15.6v-5.3c0-6.6,2-12.1,5.9-16.2c4-4.2,10.1-6.3,18-6.3h59.4c5.9,0,10,4.1,10,10v14.8
						c0,2.9-1.8,5.6-4.6,6.6l-2.5,0.9c1.2,0.9,2.3,1.9,3.3,3c1.8,2.2,3.1,4.8,3.8,7.8c0.6,2.4,0.8,5.2,0.8,8.3v4.9
						c0,7.1-2,12.9-6.1,17.1C962.5,160.7,956.1,162.8,946.9,162.8z M893.5,148.8h53.4c7,0,9.1-1.7,9.6-2.2c1.5-1.5,2.2-4,2.2-7.4
						v-4.9c0-2-0.2-3.8-0.5-5.2c-0.2-0.8-0.5-1.4-0.9-1.9c-0.4-0.5-1-0.9-1.9-1.3c-0.8-0.3-2.2-0.8-4.8-1c0,0-0.1,0-0.1,0l-3.6-0.3
						c0.8,0.6,1.3,1.2,1.8,1.8c1.2,1.7,1.8,3.7,1.8,6.1v1.4c0,3-0.9,5.5-2.6,7.3c-1.9,2-4.5,3-7.8,3h-46.9V148.8z M940.7,136.8
						C940.7,136.8,940.7,136.8,940.7,136.8L940.7,136.8z M902.5,97c-3.9,0-6.7,0.7-7.9,2c-1.4,1.4-2,3.5-2,6.5v5.3
						c0,2.8,0.6,4.9,1.8,6.3c1.4,1.6,4.3,2.2,6.5,2.3l3.6,0.3c-0.6-0.3-1.2-0.7-1.7-1.2c-1.9-1.7-2.9-4.2-2.9-7.4v-1.8
						c0-3.8,1.5-6.1,2.8-7.4c1.8-1.8,4.4-2.8,7.5-2.8h34.3c3.7,0,6.7,2.4,7.6,5.8l5.8-2.2V97H902.5z"/>
				</g>
			</g>
			<g class="st1">
				<g>
					<path class="st2" d="M1158.9,162.8h-74.7c-2.9,0-5.5-1.8-6.6-4.5l-4.4-11.7l-6.1,12.3c-1.2,2.4-3.6,3.9-6.3,3.9h-28.6
						c-3.9,0-7-3.1-7-7v-1c0-1.1,0.3-2.3,0.8-3.3l43.8-83.4c1.1-2.1,2.3-3.7,3.8-4.8c1.8-1.3,4.1-1.9,7-1.9h30.1
						c2.8,0,5,0.6,6.8,1.8c1.5,1,2.9,2.5,4.1,4.6c0,0.1,0.1,0.2,0.1,0.3l43.4,83.5c0.5,1,0.8,2.1,0.8,3.2v1
						C1165.9,159.7,1162.8,162.8,1158.9,162.8z M1089,148.8h58.8l-38.1-73.3h-28l-38.4,73.3h13.1l30.6-61.7c0.1-0.1,0.1-0.2,0.2-0.4
						c1.6-2.7,4.4-4.4,7.6-4.4h1.4c3.3,0,6.2,1.6,7.8,4.4c0.1,0.1,0.1,0.2,0.2,0.4l13.8,27.6c1.3,2.5,2.3,4.6,3.2,6.2
						c0.9,1.7,1.6,3.1,2.3,4.3c0.6,1.1,1.1,2,1.5,2.7c0.6,1,1.2,1.9,1.7,2.9c1,1.9,1.1,4.1,0.3,6.1l-0.4,0.8c-1.2,2.8-4,4.5-7,4.2
						c-1-0.1-2.1-0.2-3.2-0.2c-1-0.1-2.2-0.1-3.5-0.2c-1.4,0-3-0.1-4.8-0.1h-21.9L1089,148.8z M1082.7,127.4h25.4c0.2,0,0.5,0,0.7,0
						c0,0,0,0,0-0.1c-0.9-1.7-2-3.9-3.3-6.5l-9.8-19.7L1082.7,127.4z M1111.1,75.5L1111.1,75.5L1111.1,75.5z M1080.2,75.5
						L1080.2,75.5L1080.2,75.5z M1082.5,74.1L1082.5,74.1L1082.5,74.1z"/>
				</g>
				<g>
					<path class="st2" d="M1190.7,162.8H1166c-3.9,0-7-3.1-7-7V72.1c0-6.2,4.3-10.6,10.5-10.6h67.7c6.7,0,12.5,0.9,17.4,2.6
						c5.2,1.8,9.4,4.5,12.8,8c3.3,3.5,5.7,7.7,7.2,12.6c1.4,4.5,2,9.5,2,15v7.1c0,11.8-3.1,21-9.2,27.4c-6.2,6.4-15.9,9.6-29,9.6
						h-39.5c-0.4,0-0.8,0-1.1-0.1v12.3C1197.7,159.7,1194.6,162.8,1190.7,162.8z M1173,148.8h10.7v-31.3c0-0.4,0-0.8,0.1-1.1
						c-0.1-0.4-0.1-0.8-0.1-1.1V92c0-5,3.7-8.7,8.6-8.7h41.7c5.8,0,10.1,1.3,13.1,4c3.2,2.9,4.7,7.3,4.7,13.5v4.3
						c0,5.5-1.5,9.8-4.5,12.8c-3,3-7.4,4.5-13.4,4.5h-33.1l2.8,7.3h34.6c9.1,0,15.4-1.8,18.9-5.4c3.5-3.6,5.3-9.5,5.3-17.6v-7.1
						c0-4.1-0.5-7.8-1.4-10.9c-0.8-2.8-2.1-5.1-3.9-7c-1.8-1.9-4.2-3.3-7.3-4.4c-3.4-1.2-7.6-1.8-12.7-1.8H1173V148.8z
						 M1197.7,108.3h36.3c2.1,0,3.1-0.3,3.4-0.4c0.1-0.3,0.4-1.1,0.4-2.8v-4.3c0-1.6-0.2-2.6-0.3-3.1c-0.5-0.1-1.6-0.4-3.5-0.4
						h-36.3V108.3z"/>
				</g>
				<g>
					<path class="st2" d="M1302.8,162.8H1278c-3.9,0-7-3.1-7-7V68.5c0-3.9,3.1-7,7-7h24.7c3.9,0,7,3.1,7,7v87.3
						C1309.8,159.7,1306.6,162.8,1302.8,162.8z M1285.1,148.8h10.7V75.5h-10.7V148.8z"/>
				</g>
			</g>
		</g>
		<g>
			<g class="st1">
				<g>
					<path class="st3" d="M257.9,138v17.8h-24.7V72.1c0-2.4,1.2-3.6,3.5-3.6h71.7c8.2,0,14,1.8,17.6,5.5c3.6,3.7,5.4,8.8,5.4,15.4
						v7.7c0,3.5-0.7,6.4-2.2,8.5c-1.4,2.2-3.1,3.9-4.9,5.1c2.6,1.2,4.7,3.2,6.4,5.6c1.7,2.5,2.5,5.5,2.5,9.3v7.7
						c0,7.3-1.7,12.9-5.2,16.8c-3.5,3.8-9.4,5.8-17.9,5.8h-44.5l-6.9-17.8L257.9,138L257.9,138z M259.9,87.9c-1.3,0-2,0.7-2,2v14.7
						h41.5c2.7,0,4.7-0.5,5.8-1.6c1.1-1,1.7-2.8,1.7-5.4v-2.6c0-2.6-0.5-4.5-1.7-5.6c-1.1-1.1-3-1.6-5.8-1.6L259.9,87.9L259.9,87.9z
						 M257.9,118.9v16.4h42.9c2.2,0,3.7-0.5,4.8-1.6c1-1,1.5-2.8,1.5-5.4v-2.5c0-2.6-0.5-4.4-1.4-5.4c-0.9-1-2.6-1.6-4.8-1.6
						L257.9,118.9L257.9,118.9z"/>
				</g>
				<g>
					<path class="st3" d="M342,79.6V62.2h21.7v17.4H342z M342,155.8V90h21.7v65.8H342z"/>
				</g>
				<g>
					<path class="st3" d="M459.3,129.6c0,4-0.5,7.6-1.4,10.8c-0.9,3.2-2.5,5.9-4.7,8.2c-2.2,2.3-5,4.1-8.4,5.3s-7.6,1.9-12.5,1.9
						h-31.7c-4.9,0-9-0.6-12.4-1.9c-3.4-1.2-6.2-3-8.3-5.3c-2.2-2.3-3.7-5-4.7-8.2c-0.9-3.2-1.4-6.8-1.4-10.8v-13.6
						c0-3.9,0.5-7.5,1.4-10.7c0.9-3.3,2.5-6,4.7-8.3c2.2-2.3,4.9-4.1,8.3-5.3c3.4-1.2,7.6-1.9,12.4-1.9h31.7c4.9,0,9,0.6,12.5,1.9
						c3.4,1.2,6.2,3,8.4,5.3c2.2,2.3,3.7,5.1,4.7,8.3c0.9,3.2,1.4,6.9,1.4,10.7V129.6z M428.3,136.5c3.4,0,5.8-0.7,7.2-2
						s2-3.9,2-7.7v-9.2c0-4-0.7-6.7-2.1-8.2c-1.4-1.4-3.8-2.2-7.2-2.2h-23.6c-3.4,0-5.8,0.8-7.2,2.2c-1.3,1.5-1.9,4.2-1.9,8.1v9.3
						c0,3.7,0.6,6.3,1.9,7.7c1.3,1.3,3.7,2,7.2,2H428.3z"/>
				</g>
				<g>
					<path class="st3" d="M523.4,90.3v65.5h-24.7V90.3h-36.2l-8-20.9v-0.9h115.8c2.3,0,3.5,1.2,3.5,3.6v22.7l-22.9,8.5h-0.9V91.6
						c0-0.9-0.5-1.3-1.3-1.3H523.4z"/>
				</g>
				<g>
					<path class="st3" d="M581.5,62.2h21.7V90h32c4.9,0,9,0.6,12.5,1.9s6.2,3,8.3,5.3s3.7,5,4.6,8.2c0.9,3.2,1.4,6.8,1.4,10.8v39.7
						h-21.7v-38.3c0-3.8-0.8-6.5-2.3-8s-3.9-2.3-6.9-2.3h-23.5l-3.6-9.6h-0.9v58.2h-21.7V62.2H581.5z"/>
				</g>
				<g>
					<path class="st3" d="M672.8,79.6V62.2h21.7v17.4H672.8z M672.8,155.8V90h21.7v65.8H672.8z"/>
				</g>
				<g>
					<path class="st3" d="M705.7,90h53.7c4.9,0,9,0.6,12.5,1.9c3.4,1.2,6.2,3,8.3,5.3c2.1,2.3,3.7,5,4.6,8.2
						c0.9,3.2,1.4,6.8,1.4,10.8v39.7h-21.7v-38.3c0-3.8-0.7-6.5-2.2-8c-1.4-1.5-3.8-2.3-7.1-2.3h-23.5l-3.6-9.6h-0.9v58.2h-21.7V90
						H705.7z"/>
				</g>
				<g>
					<path class="st3" d="M798.6,164.4h47.6c3.1,0,5.3-0.7,6.5-2.1s1.9-3.6,1.9-6.6v-5.3h-32c-9.8,0-16.8-1.9-20.9-5.9
						s-6.2-10-6.2-18.1v-10.3c0-4,0.5-7.6,1.4-10.8c0.9-3.2,2.5-5.9,4.7-8.2s4.9-4.1,8.3-5.3c3.4-1.2,7.6-1.9,12.5-1.9h47.8
						c4,0,6,2,6,6v61.1c0,3.8-0.5,7.3-1.4,10.5c-0.9,3.2-2.4,5.8-4.5,8.1c-2.1,2.3-4.8,4-8.3,5.2c-3.4,1.2-7.7,1.9-12.7,1.9h-51
						v-18.4H798.6z M853.7,148h0.9v-38.7c0-1.3-0.7-2-2-2h-25.9c-3.3,0-5.8,0.8-7.2,2.2c-1.4,1.5-2.2,4.1-2.2,7.9v6.2
						c0,3.6,0.7,6.1,2.1,7.4s3.8,1.9,7.2,1.9h21.3L853.7,148z"/>
				</g>
				<g>
					<path class="st3" d="M886.5,137.3h53.8c1.2,0,2.2-0.2,2.6-0.8c0.5-0.5,0.7-1.4,0.7-2.6v-1.4c0-0.9-0.2-1.6-0.5-1.9
						c-0.3-0.5-0.9-0.7-1.9-0.8l-40.9-3.5c-5.1-0.4-8.7-1.9-11.1-4.7c-2.4-2.7-3.6-6.4-3.6-10.9v-5.3c0-4.8,1.3-8.6,4-11.4
						c2.6-2.8,6.9-4.1,12.9-4.1h59.4c2,0,3,1,3,3v14.7l-18.7,6.9h-0.9V107c0-0.6-0.3-0.9-0.9-0.9h-34.3c-1.2,0-2,0.2-2.5,0.7
						c-0.5,0.5-0.7,1.2-0.7,2.4v1.8c0,1.1,0.2,1.9,0.5,2.2s1,0.5,1.9,0.7l41.8,4.1c2.8,0.2,5.1,0.8,6.9,1.6c1.9,0.8,3.3,1.9,4.4,3.2
						c1.1,1.3,1.9,3,2.3,4.8c0.5,1.9,0.6,4.1,0.6,6.7v4.9c0,5.3-1.4,9.3-4.1,12.2s-7.6,4.3-14.7,4.3h-60.4v-18.3H886.5z"/>
				</g>
			</g>
			<g class="st1">
				<g>
					<path class="st4" d="M310.1,156.3h-44.7l-6.9-17.8h-0.2v17.8h-25.5V72.1c0-2.6,1.3-4,3.9-4h71.7c8.4,0,14.2,1.8,17.9,5.6
						c3.6,3.7,5.5,9,5.5,15.7v7.7c0,3.7-0.8,6.6-2.3,8.7c-1.2,1.9-2.8,3.6-4.5,4.9c2.3,1.2,4.3,3,6,5.4c1.7,2.5,2.6,5.6,2.6,9.5v7.7
						c0,7.4-1.8,13.2-5.3,17.1C324.7,154.3,318.6,156.3,310.1,156.3z M265.9,155.5h44.2c8.3,0,14.2-1.9,17.6-5.6
						c3.4-3.8,5.1-9.3,5.1-16.6v-7.7c0-3.7-0.8-6.7-2.4-9c-1.8-2.5-3.9-4.3-6.2-5.5l-0.6-0.3l0.5-0.4c1.9-1.3,3.5-3,4.8-5
						c1.4-2,2.1-4.8,2.1-8.3v-7.7c0-6.5-1.8-11.6-5.3-15.2c-3.5-3.6-9.2-5.3-17.3-5.3h-71.7c-2.1,0-3.1,1-3.1,3.2v83.3h23.9V138h0.4
						v-0.3h1.1L265.9,155.5z M300.8,135.7h-43.3v-16.8h0.4v-0.3h42.9c2.4,0,4.1,0.6,5.1,1.7c1,1.1,1.5,2.9,1.5,5.6v2.5
						c0,2.7-0.5,4.6-1.6,5.6C304.7,135.1,303,135.7,300.8,135.7z M258.3,134.9h42.5c2,0,3.5-0.5,4.5-1.4c0.9-0.9,1.4-2.6,1.4-5.1
						v-2.5c0-2.5-0.4-4.2-1.3-5.1c-0.9-0.9-2.4-1.4-4.5-1.4h-42.5V134.9z M299.4,105.1h-41.9V90c0-1.4,0.7-2.3,2-2.4v-0.1h39.9
						c2.8,0,4.9,0.6,6,1.7c1.2,1.1,1.8,3.1,1.8,5.9v2.6c0,2.6-0.6,4.5-1.8,5.7C304.2,104.5,302.2,105.1,299.4,105.1z M258.3,104.3
						h41.1c2.6,0,4.5-0.5,5.5-1.5c1-1,1.6-2.7,1.6-5.1v-2.6c0-2.6-0.5-4.3-1.6-5.3c-1-1-2.9-1.5-5.5-1.5h-39.1v0.1h-0.4
						c-1.1,0-1.6,0.5-1.6,1.6V104.3z"/>
				</g>
				<g>
					<path class="st4" d="M364.1,156.2h-22.5V89.6h22.5V156.2z M342.4,155.4h21v-65h-21V155.4z M364.1,80h-22.5V61.9h22.5V80z
						 M342.4,79.2h21V62.6h-21V79.2z"/>
				</g>
				<g>
					<path class="st4" d="M432.4,156.2h-31.7c-4.9,0-9.1-0.6-12.5-1.9c-3.5-1.3-6.3-3-8.5-5.4c-2.2-2.3-3.8-5.1-4.8-8.3
						c-1-3.3-1.4-6.8-1.4-10.9v-13.6c0-3.9,0.5-7.6,1.4-10.9c1-3.3,2.5-6.1,4.8-8.4c2.3-2.4,5.1-4.2,8.5-5.4
						c3.5-1.3,7.7-1.9,12.5-1.9h31.7c5,0,9.1,0.6,12.6,1.9c3.4,1.2,6.3,3.1,8.6,5.4c2.2,2.3,3.8,5.1,4.8,8.4
						c0.9,3.2,1.4,6.9,1.4,10.9v13.6c0,4-0.5,7.7-1.4,10.9c-0.9,3.2-2.6,6-4.8,8.3c-2.3,2.3-5.1,4.1-8.6,5.4
						C441.5,155.5,437.3,156.2,432.4,156.2z M400.7,90.3c-4.8,0-8.9,0.6-12.3,1.8c-3.3,1.2-6,2.9-8.2,5.2c-2.2,2.2-3.7,4.9-4.6,8.1
						c-0.9,3.2-1.4,6.8-1.4,10.6v13.6c0,4,0.5,7.5,1.4,10.7c0.9,3.1,2.5,5.8,4.6,8c2.1,2.3,4.8,4,8.2,5.2c3.3,1.2,7.4,1.8,12.3,1.8
						h31.7c4.8,0,9-0.6,12.3-1.8c3.3-1.2,6.1-3,8.3-5.2c2.1-2.2,3.7-4.9,4.6-8c0.9-3.1,1.4-6.8,1.4-10.7v-13.6
						c0-3.9-0.5-7.5-1.4-10.6c-0.9-3.2-2.5-5.9-4.6-8.1c-2.2-2.2-4.9-4-8.3-5.2c-3.4-1.2-7.4-1.8-12.3-1.8H400.7z M428.3,136.9
						h-23.7c-3.6,0-6-0.7-7.4-2.1c-1.4-1.5-2.1-4.1-2.1-8v-9.3c0-4.1,0.7-6.8,2-8.4c1.4-1.5,4-2.3,7.5-2.3h23.6
						c3.4,0,5.9,0.8,7.4,2.3c1.5,1.6,2.2,4.3,2.2,8.5v9.2c0,3.9-0.7,6.6-2.1,8C434.3,136.1,431.8,136.9,428.3,136.9z M404.6,107.6
						c-3.2,0-5.6,0.7-6.9,2.1c-1.2,1.4-1.8,4-1.8,7.8v9.3c0,3.7,0.6,6.1,1.8,7.4c1.3,1.3,3.6,1.9,6.9,1.9h23.7
						c3.3,0,5.6-0.7,6.9-1.9c1.3-1.3,1.9-3.8,1.9-7.4v-9.2c0-3.9-0.7-6.5-2-7.9c-1.3-1.3-3.7-2.1-6.9-2.1H404.6z"/>
				</g>
				<g>
					<path class="st4" d="M523.7,156.2h-25.5V90.7h-36.1L454,69.4v-1.3h116.1c2.5,0,3.9,1.4,3.9,4V95l-23.3,8.6h-1.3v-12
						c0-0.6-0.3-0.9-0.9-0.9h-24.8V156.2z M499.1,155.4H523V89.9h25.5c1.1,0,1.7,0.6,1.7,1.7v11.2h0.5l22.6-8.4V72.1
						c0-2.2-1-3.2-3.1-3.2H454.8v0.5l7.9,20.6h36.3V155.4z"/>
				</g>
				<g>
					<path class="st4" d="M662.5,156.3H640v-38.7c0-3.7-0.7-6.3-2.2-7.7c-1.5-1.4-3.7-2.2-6.7-2.2h-23.8l-3.6-9.6h-0.2v58.2H581
						V61.9h22.7v27.7h31.6c5,0,9.1,0.6,12.6,1.9c3.5,1.3,6.3,3.1,8.5,5.4c2.2,2.3,3.7,5.1,4.7,8.3c1,3.3,1.4,6.8,1.4,10.9V156.3z
						 M640.7,155.5h21v-39.3c0-4-0.5-7.5-1.4-10.7c-0.9-3.1-2.4-5.8-4.5-8c-2.1-2.2-4.8-4-8.2-5.2c-3.4-1.2-7.4-1.8-12.3-1.8h-32.4
						V62.6h-21.1v92.9h21V97.3h1.5l3.6,9.6h23.3c3.1,0,5.5,0.8,7.2,2.4c1.6,1.5,2.5,4.3,2.5,8.3V155.5z"/>
				</g>
				<g>
					<path class="st4" d="M695,156.2h-22.5V89.6H695V156.2z M673.2,155.4h21v-65h-21V155.4z M695,80h-22.5V61.9H695V80z M673.2,79.2
						h21V62.6h-21V79.2z"/>
				</g>
				<g>
					<path class="st4" d="M786.6,156.3h-22.5v-38.7c0-3.8-0.7-6.4-2.1-7.7c-1.3-1.4-3.7-2.1-6.8-2.1h-23.8l-3.6-9.6h-0.2v58.2h-22.5
						V89.6h54.3c5,0,9.1,0.6,12.6,1.9c3.5,1.3,6.3,3.1,8.5,5.4c2.2,2.3,3.7,5.1,4.7,8.3c1,3.3,1.4,6.8,1.4,10.9V156.3z M764.9,155.5
						h21v-39.3c0-4-0.5-7.5-1.4-10.7c-0.9-3.1-2.4-5.8-4.5-8c-2.1-2.2-4.8-4-8.2-5.2c-3.4-1.2-7.4-1.8-12.3-1.8h-53.5v65.1h21V97.3
						h1.5l3.6,9.6h23.3c3.4,0,5.9,0.8,7.4,2.4c1.5,1.5,2.3,4.3,2.3,8.3V155.5z"/>
				</g>
				<g>
					<path class="st4" d="M849.4,183.2H798v-19.2h48.1c3,0,5.1-0.7,6.3-2c1.2-1.3,1.8-3.4,1.8-6.4v-4.9h-31.6c-10,0-17.1-2-21.1-6
						c-4.2-4.1-6.3-10.3-6.3-18.3v-10.3c0-4,0.5-7.7,1.4-10.9c0.9-3.2,2.6-6,4.8-8.3c2.3-2.4,5.1-4.2,8.5-5.4
						c3.5-1.3,7.6-1.9,12.7-1.9h47.8c4.2,0,6.4,2.2,6.4,6.4v61.1c0,3.8-0.5,7.4-1.4,10.6c-1,3.2-2.5,5.9-4.6,8.3
						c-2.1,2.3-4.9,4-8.4,5.3C858.8,182.6,854.5,183.2,849.4,183.2z M798.8,182.4h50.6c5,0,9.2-0.6,12.6-1.8c3.4-1.2,6-2.9,8.1-5.1
						c2.1-2.2,3.5-4.8,4.4-7.9c0.9-3.1,1.4-6.6,1.4-10.4V96c0-3.8-1.8-5.6-5.6-5.6h-47.8c-4.9,0-9,0.6-12.4,1.8
						c-3.3,1.2-6,2.9-8.2,5.2c-2.1,2.2-3.7,4.9-4.6,8c-0.9,3.1-1.4,6.7-1.4,10.7v10.3c0,7.9,2,13.9,6,17.8
						c3.9,3.9,10.9,5.8,20.6,5.8H855v5.7c0,3.1-0.6,5.4-2,6.9c-1.3,1.5-3.6,2.2-6.8,2.2h-47.4V182.4z M855,148.4h-1.5l-5.8-15.1h-21
						c-3.6,0-6-0.7-7.5-2.1c-1.5-1.4-2.2-4-2.2-7.7v-6.2c0-3.8,0.8-6.6,2.3-8.2c1.5-1.5,4.1-2.3,7.4-2.3h25.9c1.5,0,2.4,0.9,2.4,2.4
						V148.4z M854,147.6h0.2v-38.3c0-1.1-0.5-1.6-1.6-1.6h-25.9c-3.2,0-5.5,0.7-6.9,2.1c-1.3,1.4-2.1,4.1-2.1,7.7v6.2
						c0,3.5,0.7,5.9,2,7.1c1.3,1.2,3.6,1.8,7,1.8h21.5L854,147.6z"/>
				</g>
				<g>
					<path class="st4" d="M946.8,156H886v-19.1h54.4c1.2,0,2-0.2,2.4-0.6c0.4-0.5,0.6-1.2,0.6-2.3v-1.4c0-0.8-0.1-1.4-0.4-1.7
						c-0.2-0.4-0.8-0.6-1.7-0.6l-40.9-3.5c-5.2-0.4-8.9-2-11.4-4.8c-2.4-2.8-3.7-6.5-3.7-11.2v-5.3c0-4.9,1.3-8.7,4.1-11.6
						c2.7-2.9,7-4.3,13.2-4.3h59.4c2.2,0,3.4,1.2,3.4,3.3v15l-19.1,7.1h-1.2V107c0-0.5-0.2-0.5-0.5-0.5h-34.3
						c-1.1,0-1.8,0.2-2.2,0.6c-0.4,0.4-0.6,1.1-0.6,2.1v1.8c0,1.4,0.3,1.8,0.4,1.9c0.3,0.3,0.9,0.5,1.8,0.6l41.8,4
						c2.8,0.2,5.2,0.8,7.1,1.6c1.9,0.8,3.4,1.9,4.6,3.3c1.1,1.4,1.9,3,2.4,5c0.4,1.8,0.6,3.9,0.6,6.8v4.9c0,5.3-1.4,9.5-4.2,12.5
						C959,154.6,954.1,156,946.8,156z M886.7,155.2h60.1c7,0,11.8-1.4,14.4-4.2c2.7-2.8,4-6.8,4-12v-4.9c0-2.8-0.2-4.8-0.6-6.6
						c-0.5-1.8-1.2-3.4-2.3-4.7c-1.1-1.3-2.5-2.3-4.3-3.1c-1.8-0.8-4.1-1.3-6.8-1.5l-41.8-4.1c-1-0.2-1.7-0.4-2.2-0.8
						c-0.5-0.4-0.7-1.2-0.7-2.5v-1.8c0-1.3,0.3-2.1,0.8-2.7c0.5-0.5,1.5-0.8,2.8-0.8h34.3c0.8,0,1.2,0.5,1.2,1.3v7.2h0.4l18.4-6.8
						V92.9c0-1.8-0.8-2.6-2.6-2.6h-59.4c-6,0-10.1,1.3-12.6,4c-2.6,2.8-3.9,6.4-3.9,11.1v5.3c0,4.5,1.2,8,3.5,10.6
						c2.4,2.7,5.9,4.2,10.9,4.5l40.9,3.5c1.2,0.1,1.9,0.4,2.2,1c0.4,0.5,0.5,1.5,0.5,2.2v1.4c0,1.3-0.3,2.2-0.8,2.8
						c-0.5,0.6-1.5,0.9-2.9,0.9h-53.6V155.2z"/>
				</g>
			</g>
			<g class="st1">
				<g>
					<path class="st4" d="M1060.8,155.8h-28.6v-0.9l43.8-83.5c0.5-1.1,1.1-1.9,1.7-2.3c0.5-0.4,1.5-0.6,2.9-0.6h30.1
						c1.3,0,2.3,0.2,3,0.6s1.2,1.2,1.9,2.3l43.4,83.5v0.9h-74.7l-7.2-18.9v-2.4h24.5c2.6,0,4.8,0,6.6,0s3.5,0,5,0.1
						c1.4,0.1,2.7,0.1,3.8,0.2c1.1,0.1,2.2,0.2,3.3,0.2l0.4-0.9c-0.5-0.9-1-1.7-1.5-2.6c-0.5-0.9-1.1-1.9-1.7-3
						c-0.6-1.2-1.4-2.6-2.3-4.3c-0.9-1.7-1.9-3.8-3.3-6.4l-13.8-27.6c-0.3-0.5-0.9-0.9-1.7-0.9h-1.4c-0.7,0-1.2,0.3-1.6,0.9
						L1060.8,155.8z"/>
				</g>
				<g>
					<path class="st4" d="M1191.5,117.5h-0.9v38.2H1166V72.1c0-2.4,1.2-3.6,3.5-3.6h67.7c5.9,0,10.9,0.7,15,2.2
						c4.1,1.4,7.5,3.5,10,6.2c2.6,2.6,4.4,5.9,5.6,9.8c1.2,3.8,1.7,8.2,1.7,12.9v7.1c0,10-2.4,17.5-7.2,22.5
						c-4.8,5-12.9,7.5-23.9,7.5h-39.5L1191.5,117.5z M1192.2,90.3c-1,0-1.6,0.5-1.6,1.7v23.3h43.3c4,0,6.8-0.8,8.4-2.4
						c1.6-1.6,2.4-4.2,2.4-7.8v-4.3c0-4.1-0.8-6.9-2.4-8.3c-1.6-1.4-4.4-2.2-8.4-2.2L1192.2,90.3L1192.2,90.3z"/>
				</g>
				<g>
					<path class="st4" d="M1278,155.8V68.5h24.7v87.3H1278z"/>
				</g>
			</g>
			<g class="st1">
				<g>
					<path class="st4" d="M1159.4,156.2H1084l-7.3-19.3v-2.8h31.5c1.9,0,3.5,0,5,0.1c0.7,0,1.3,0.1,1.9,0.1c0.7,0,1.3,0,1.9,0.1
						l3,0.2l0.2-0.4c-0.2-0.4-0.4-0.7-0.6-1.1c-0.3-0.4-0.5-0.9-0.7-1.3c-0.5-0.8-1.1-1.8-1.7-3c-0.6-1.2-1.4-2.7-2.3-4.3
						c-0.7-1.4-1.6-3.1-2.6-5.1l-0.7-1.3l-13.8-27.6c-0.2-0.4-0.7-0.6-1.4-0.6h-1.4c-0.6,0-1,0.2-1.2,0.7l-32.7,65.8h-29.2v-1.4
						l0-0.1l43.8-83.5c0.6-1.2,1.2-2,1.9-2.4c0.6-0.4,1.7-0.7,3.1-0.7h30.1c1.4,0,2.5,0.2,3.2,0.7c0.7,0.4,1.3,1.2,2,2.4l43.4,83.6
						V156.2z M1084.6,155.4h74V155l-43.3-83.4c-0.6-1.1-1.2-1.8-1.7-2.1c-0.6-0.4-1.6-0.6-2.8-0.6h-30.1c-1.6,0-2.3,0.3-2.7,0.6
						c-0.5,0.3-1,1-1.6,2.1l-43.7,83.4v0.4h28l32.5-65.4c0.4-0.7,1.1-1.1,1.9-1.1h1.4c1,0,1.7,0.4,2.1,1.1l14.5,28.9
						c1,2,1.9,3.7,2.6,5.1c0.9,1.6,1.6,3.1,2.3,4.3c0.6,1.2,1.2,2.2,1.7,3c0.2,0.4,0.5,0.9,0.7,1.3c0.3,0.4,0.5,0.9,0.7,1.3l0.1,0.2
						l-0.6,1.3l-3.5-0.3c-0.6,0-1.2-0.1-1.9-0.1c-0.6,0-1.3,0-1.9-0.1c-1.5-0.1-3.1-0.1-5-0.1h-30.7v2L1084.6,155.4z"/>
				</g>
				<g>
					<path class="st4" d="M1191.1,156.2h-25.5V72.1c0-2.6,1.3-4,3.9-4h67.7c6.1,0,11,0.7,15.2,2.2c4.1,1.4,7.5,3.5,10.2,6.2
						c2.6,2.7,4.5,6,5.7,10c1.1,3.7,1.7,8.1,1.7,13v7.1c0,10.1-2.5,17.7-7.4,22.8c-4.9,5-13,7.6-24.2,7.6h-39.8l-0.1-0.2l-7.3-18.8
						h-0.2V156.2z M1166.4,155.4h23.9v-38.2h1.5l0.1,0.2l7.3,18.8h39.2c11,0,18.9-2.5,23.6-7.4c4.7-4.9,7.1-12.4,7.1-22.2v-7.1
						c0-4.8-0.6-9.1-1.7-12.8c-1.1-3.8-3-7.1-5.5-9.7c-2.6-2.7-5.9-4.7-9.9-6.1c-4.1-1.5-8.9-2.2-14.9-2.2h-67.7
						c-2.1,0-3.1,1-3.1,3.2V155.4z M1234,115.7h-43.7V92c0-1.4,0.7-2.1,1.9-2.1h0.4V90h41.4c4,0,6.9,0.8,8.7,2.3
						c1.7,1.5,2.6,4.3,2.6,8.6v4.3c0,3.7-0.8,6.4-2.5,8.1C1241,114.9,1238.1,115.7,1234,115.7z M1191.1,114.9h42.9
						c3.9,0,6.6-0.8,8.1-2.3c1.5-1.5,2.3-4,2.3-7.5v-4.3c0-4-0.8-6.7-2.3-8c-1.6-1.4-4.4-2.1-8.2-2.1h-42.1v0
						c-0.5,0.1-0.8,0.5-0.8,1.3V114.9z"/>
				</g>
				<g>
					<path class="st4" d="M1303.1,156.2h-25.5V68.1h25.5V156.2z M1278.4,155.4h23.9V68.9h-23.9V155.4z"/>
				</g>
			</g>
		</g>
	</g>
	<g>
		<g>
			<g>
				<g>
					<g>
						<path class="st2" d="M97.4,126H67.6c-3.3,0-6.4-1.9-8-4.8c-1.6-3-1.3-6.5,0.5-9.3l21.3-31c1.7-2.4,4.5-3.9,7.4-3.9h29.8
							c3.3,0,6.4,1.9,8,4.8c1.6,3,1.3,6.5-0.5,9.3l-21.3,31C103.1,124.5,100.4,126,97.4,126z M84.7,108h8l8.9-13h-8L84.7,108z"/>
					</g>
				</g>
				<g>
					<g>
						<path class="st2" d="M118.6,157C118.6,157,118.6,157,118.6,157c-3,0-5.8-1.5-7.4-3.9L90,122.2c-2.1-3.1-2.1-7.1,0-10.2
							l21.2-30.9c1.7-2.4,4.4-3.9,7.4-3.9c0,0,0,0,0,0c2.9,0,5.7,1.4,7.4,3.8l21.6,30.9c2.2,3.1,2.2,7.2,0,10.3L126,153.2
							C124.3,155.6,121.5,157,118.6,157z M108.3,117.1l10.4,15.1l10.5-15.1L118.7,102L108.3,117.1z"/>
					</g>
				</g>
				<g>
					<g>
						<path class="st2" d="M118.7,157H88.9c-3,0-5.7-1.5-7.4-3.9l-21.3-31c-1.9-2.8-2.1-6.3-0.5-9.3c1.6-3,4.6-4.8,8-4.8h29.8
							c3,0,5.7,1.5,7.4,3.9l21.3,31c1.9,2.8,2.1,6.3,0.5,9.3C125.1,155.1,122,157,118.7,157z M93.6,139h8l-8.9-13h-8L93.6,139z"/>
					</g>
				</g>
			</g>
			<g>
				<g>
					<g>
						<path class="st2" d="M97.4,64.1H67.6c-3.3,0-6.4-1.9-8-4.8c-1.6-3-1.3-6.5,0.5-9.3l21.3-31c1.7-2.4,4.5-3.9,7.4-3.9h29.8
							c3.3,0,6.4,1.9,8,4.8c1.6,3,1.3,6.5-0.5,9.3l-21.3,31C103.1,62.6,100.4,64.1,97.4,64.1z M84.7,46.1h8l8.9-13h-8L84.7,46.1z"/>
					</g>
				</g>
				<g>
					<g>
						<path class="st2" d="M118.6,95.2C118.6,95.2,118.6,95.2,118.6,95.2c-3,0-5.8-1.5-7.4-3.9L90,60.3c-2.1-3.1-2.1-7.1,0-10.2
							l21.2-31c1.7-2.4,4.4-3.9,7.4-3.9c0,0,0,0,0,0c2.9,0,5.7,1.4,7.4,3.9l21.6,31c2.2,3.1,2.2,7.2,0,10.3l-21.6,31
							C124.3,93.8,121.5,95.2,118.6,95.2z M108.3,55.2l10.4,15.2l10.6-15.2L118.7,40L108.3,55.2z"/>
					</g>
				</g>
				<g>
					<g>
						<path class="st2" d="M118.6,95H88.9c-3,0-5.7-1.5-7.4-3.9L60.3,60.2c-1.9-2.8-2.1-6.3-0.5-9.3c1.6-3,4.6-4.8,8-4.8h29.7
							c3,0,5.7,1.5,7.4,3.9L126,80.9c1.9,2.8,2.1,6.3,0.5,9.3C125,93.1,121.9,95,118.6,95z M93.6,77h7.9l-8.9-12.9h-7.9L93.6,77z"/>
					</g>
				</g>
			</g>
			<g>
				<g>
					<g>
						<path class="st2" d="M97.4,187.9H67.6c-3.3,0-6.4-1.9-8-4.8c-1.6-3-1.3-6.5,0.6-9.3l21.3-30.9c1.7-2.4,4.5-3.9,7.4-3.9h29.8
							c3.3,0,6.4,1.9,8,4.8c1.6,3,1.3,6.5-0.6,9.3L104.8,184C103.1,186.4,100.4,187.9,97.4,187.9z M84.7,169.9h7.9l8.9-12.9h-7.9
							L84.7,169.9z"/>
					</g>
				</g>
				<g>
					<g>
						<path class="st2" d="M118.6,219C118.6,219,118.6,219,118.6,219c-3,0-5.8-1.5-7.4-3.9l-21.2-31c-2.1-3.1-2.1-7.1,0-10.2
							l21.2-31c1.7-2.4,4.4-3.9,7.4-3.9c0,0,0,0,0,0c2.9,0,5.7,1.4,7.4,3.9l21.6,31c2.2,3.1,2.2,7.2,0,10.3l-21.6,31
							C124.3,217.6,121.5,219,118.6,219z M108.3,179l10.4,15.2l10.6-15.2l-10.6-15.2L108.3,179z"/>
					</g>
				</g>
				<g>
					<g>
						<path class="st2" d="M118.6,218.9H88.9c-3,0-5.8-1.5-7.4-3.9l-21.2-31c-1.9-2.8-2.1-6.3-0.5-9.3c1.6-3,4.6-4.8,8-4.8h29.7
							c3,0,5.8,1.5,7.4,3.9l21.2,31c1.9,2.8,2.1,6.3,0.5,9.3C125,217.1,121.9,218.9,118.6,218.9z M93.6,200.9h7.9l-8.9-13h-7.9
							L93.6,200.9z"/>
					</g>
				</g>
			</g>
			<g>
				<g>
					<g>
						<path class="st2" d="M148.6,157h-29.9c-3.3,0-6.4-1.9-8-4.8c-1.6-3-1.3-6.5,0.5-9.3l21.3-31c1.7-2.4,4.5-3.9,7.4-3.9h29.9
							c3.3,0,6.4,1.9,8,4.8c1.6,3,1.3,6.5-0.5,9.3l-21.3,31C154.3,155.5,151.6,157,148.6,157z M135.8,139h8.1l8.9-13h-8.1L135.8,139
							z"/>
					</g>
				</g>
				<g>
					<g>
						<path class="st2" d="M169.9,188.1C169.9,188.1,169.9,188.1,169.9,188.1c-3,0-5.7-1.5-7.4-3.9l-21.3-31.1
							c-2.1-3.1-2.1-7.1,0-10.2l21.3-30.9c1.7-2.4,4.4-3.9,7.4-3.9c0,0,0,0,0,0c3,0,5.7,1.4,7.4,3.9l21.4,30.9
							c2.1,3.1,2.1,7.1,0,10.2l-21.4,31.1C175.6,186.6,172.9,188.1,169.9,188.1z M159.5,148l10.4,15.2l10.4-15.2l-10.4-15.1
							L159.5,148z"/>
					</g>
				</g>
				<g>
					<g>
						<path class="st2" d="M169.8,187.9H140c-3,0-5.7-1.5-7.4-3.9l-21.2-30.9c-1.9-2.8-2.1-6.3-0.5-9.3c1.6-3,4.6-4.8,8-4.8h29.8
							c3,0,5.7,1.5,7.4,3.9l21.2,30.9c1.9,2.8,2.1,6.3,0.5,9.3C176.2,186,173.1,187.9,169.8,187.9z M144.7,169.9h8l-8.9-12.9h-8
							L144.7,169.9z"/>
					</g>
				</g>
			</g>
			<g>
				<g>
					<g>
						<path class="st2" d="M148.5,95h-29.9c-3.3,0-6.4-1.9-8-4.8c-1.6-3-1.3-6.5,0.6-9.3L132.5,50c1.7-2.4,4.5-3.9,7.4-3.9h29.8
							c3.3,0,6.4,1.9,8,4.8c1.6,3,1.3,6.5-0.5,9.3l-21.2,30.9C154.2,93.5,151.5,95,148.5,95z M135.7,77h8l8.9-12.9h-8L135.7,77z"/>
					</g>
				</g>
				<g>
					<g>
						<path class="st2" d="M169.7,126.1C169.7,126.1,169.7,126.1,169.7,126.1c-3,0-5.8-1.5-7.4-3.9l-21.2-31
							c-2.1-3.1-2.1-7.1,0-10.2l21.2-30.9c1.7-2.4,4.4-3.9,7.4-3.9c3,0,5.7,1.4,7.4,3.9L198.6,81c2.1,3.1,2.1,7.2,0,10.3l-21.5,31
							C175.4,124.7,172.6,126.1,169.7,126.1z M159.4,86.1l10.3,15.1l10.5-15.1L169.8,71L159.4,86.1z"/>
					</g>
				</g>
				<g>
					<g>
						<path class="st2" d="M169.6,126h-29.7c-3,0-5.8-1.5-7.4-3.9l-21.2-31c-1.9-2.8-2.1-6.3-0.5-9.3s4.6-4.8,8-4.8h29.8
							c3,0,5.8,1.5,7.4,3.9l21.1,31c1.9,2.8,2.1,6.3,0.5,9.3C176,124.2,172.9,126,169.6,126z M144.6,108h7.9l-8.8-13h-8L144.6,108z"
							/>
					</g>
				</g>
			</g>
			<g>
				<g>
					<g>
						<path class="st2" d="M46.8,157H16.9c-3.3,0-6.4-1.9-8-4.8c-1.6-3-1.3-6.5,0.5-9.3l21.3-31c1.7-2.4,4.5-3.9,7.4-3.9H68
							c3.3,0,6.4,1.8,8,4.8s1.4,6.5-0.5,9.3l-21.2,31C52.6,155.5,49.8,157,46.8,157z M34,139h8l8.9-13h-8L34,139z"/>
					</g>
				</g>
				<g>
					<g>
						<path class="st2" d="M68,188.1C68,188.1,68,188.1,68,188.1c-3,0-5.8-1.5-7.4-3.9l-21.2-31.1c-2.1-3.1-2.1-7.1,0-10.2L60.6,112
							c1.7-2.4,4.4-3.9,7.4-3.9c0,0,0,0,0,0c2.9,0,5.7,1.4,7.4,3.9l21.5,30.9c2.1,3.1,2.2,7.2,0,10.3l-21.5,31.1
							C73.7,186.6,71,188.1,68,188.1z M57.7,148l10.3,15.2L78.5,148l-10.5-15.1L57.7,148z"/>
					</g>
				</g>
				<g>
					<g>
						<path class="st2" d="M67.9,187.9H38.2c-3,0-5.7-1.5-7.4-3.9L9.6,153.1c-1.9-2.8-2.1-6.3-0.5-9.3c1.6-3,4.6-4.8,8-4.8h29.8
							c3,0,5.8,1.5,7.4,3.9l21.1,30.9c1.9,2.8,2.1,6.3,0.5,9.3C74.3,186.1,71.2,187.9,67.9,187.9z M42.9,169.9h7.9L42,157h-8
							L42.9,169.9z"/>
					</g>
				</g>
			</g>
			<g>
				<g>
					<g>
						<path class="st2" d="M46.6,95H16.8c-3.3,0-6.4-1.9-8-4.8c-1.6-3-1.3-6.5,0.6-9.3L30.7,50c1.7-2.4,4.5-3.9,7.4-3.9h29.8
							c3.3,0,6.4,1.9,8,4.8c1.6,3,1.3,6.5-0.6,9.3L54,91.1C52.3,93.5,49.6,95,46.6,95z M33.9,77h7.9l8.9-12.9h-7.9L33.9,77z"/>
					</g>
				</g>
				<g>
					<g>
						<path class="st2" d="M67.9,126.1C67.9,126.1,67.9,126.1,67.9,126.1c-3,0-5.7-1.5-7.4-3.9l-21.3-31c-2.1-3.1-2.1-7.1,0-10.2
							l21.3-30.9c1.7-2.4,4.4-3.9,7.4-3.9c0,0,0,0,0,0c2.9,0,5.7,1.4,7.4,3.9L96.8,81c2.1,3.1,2.1,7.2,0,10.3l-21.5,31
							C73.6,124.7,70.9,126.1,67.9,126.1z M57.5,86.1l10.4,15.1l10.5-15.1L67.9,71L57.5,86.1z"/>
					</g>
				</g>
				<g>
					<g>
						<path class="st2" d="M67.8,126H38.1c-3,0-5.8-1.5-7.4-3.9l-21.2-31c-1.9-2.8-2.1-6.3-0.5-9.3s4.6-4.8,8-4.8h29.7
							c3,0,5.8,1.5,7.4,3.9l21.2,31c1.9,2.8,2.1,6.3,0.5,9.3C74.2,124.2,71.1,126,67.8,126z M42.8,108h7.9l-8.9-13H34L42.8,108z"/>
					</g>
				</g>
			</g>
		</g>
		<g>
			<g>
				<g>
					<g>
						<polygon class="st5" points="118.7,86 97.4,117 67.6,117 88.9,86 						"/>
					</g>
				</g>
				<g>
					<g>
						<polygon class="st6" points="118.6,86.2 140.2,117.1 118.6,148 97.4,117.1 						"/>
					</g>
				</g>
				<g>
					<g>
						<polygon class="st7" points="97.4,117 118.7,148 88.9,148 67.6,117 						"/>
					</g>
				</g>
			</g>
			<g>
				<g>
					<g>
						<polygon class="st5" points="118.7,24.1 97.4,55.1 67.6,55.1 88.9,24.1 						"/>
					</g>
				</g>
				<g>
					<g>
						<polygon class="st6" points="118.6,24.2 140.2,55.2 118.6,86.2 97.4,55.2 						"/>
					</g>
				</g>
				<g>
					<g>
						<polygon class="st7" points="97.4,55.1 118.6,86 88.9,86 67.7,55.1 						"/>
					</g>
				</g>
			</g>
			<g>
				<g>
					<g>
						<polygon class="st5" points="118.7,148 97.4,178.9 67.6,178.9 88.9,148 						"/>
					</g>
				</g>
				<g>
					<g>
						<polygon class="st6" points="118.6,148 140.2,179 118.6,210 97.4,179 						"/>
					</g>
				</g>
				<g>
					<g>
						<polygon class="st7" points="97.4,178.9 118.6,209.9 88.9,209.9 67.7,178.9 						"/>
					</g>
				</g>
			</g>
			<g>
				<g>
					<g>
						<polygon class="st5" points="169.9,117 148.6,148 118.7,148 140,117 						"/>
					</g>
				</g>
				<g>
					<g>
						<polygon class="st6" points="169.9,117.1 191.3,148 169.9,179.1 148.6,148 						"/>
					</g>
				</g>
				<g>
					<g>
						<polygon class="st7" points="148.6,148 169.8,178.9 140,178.9 118.8,148 						"/>
					</g>
				</g>
			</g>
			<g>
				<g>
					<g>
						<polygon class="st5" points="169.7,55.1 148.5,86 118.6,86 139.9,55.1 						"/>
					</g>
				</g>
				<g>
					<g>
						<polygon class="st6" points="169.7,55.2 191.2,86.1 169.7,117.1 148.5,86.1 						"/>
					</g>
				</g>
				<g>
					<g>
						<polygon class="st7" points="148.5,86 169.6,117 139.9,117 118.7,86 						"/>
					</g>
				</g>
			</g>
			<g>
				<g>
					<g>
						<polygon class="st5" points="68,117 46.8,148 16.9,148 38.2,117 						"/>
					</g>
				</g>
				<g>
					<g>
						<polygon class="st6" points="68,117.1 89.5,148 68,179.1 46.8,148 						"/>
					</g>
				</g>
				<g>
					<g>
						<polygon class="st7" points="46.8,148 67.9,178.9 38.2,178.9 17,148 						"/>
					</g>
				</g>
			</g>
			<g>
				<g>
					<g>
						<polygon class="st5" points="67.9,55.1 46.6,86 16.8,86 38.1,55.1 						"/>
					</g>
				</g>
				<g>
					<g>
						<polygon class="st6" points="67.9,55.2 89.4,86.1 67.9,117.1 46.6,86.1 						"/>
					</g>
				</g>
				<g>
					<g>
						<polygon class="st7" points="46.6,86 67.8,117 38.1,117 16.9,86 						"/>
					</g>
				</g>
			</g>
		</g>
	</g>
</g>
</svg>
