<?xml version="1.0" encoding="utf-8"?>
<!-- Generator: Adobe Illustrator 22.1.0, SVG Export Plug-In . SVG Version: 6.00 Build 0)  -->
<svg version="1.1" id="Layer_1" xmlns="http://www.w3.org/2000/svg" xmlns:xlink="http://www.w3.org/1999/xlink" x="0px" y="0px"
	 viewBox="0 0 200 200" style="enable-background:new 0 0 200 200;" xml:space="preserve">
<style type="text/css">
	.st0{fill:none;stroke:#FFFFFF;stroke-width:2;stroke-miterlimit:10;}
	.st1{fill:none;stroke:#FFFFFF;stroke-width:0.25;stroke-miterlimit:10;}
	.st2{fill:none;stroke:#FFFFFF;stroke-width:2;stroke-linecap:round;stroke-linejoin:round;stroke-miterlimit:10;}
</style>
<g>
	<g>
		<g>
			<polygon class="st0" points="115.3,69.4 93.5,101.1 62.8,101.1 84.6,69.4 			"/>
		</g>
		<g>
			<polygon class="st0" points="115.3,69.4 137.4,101.1 115.3,133 93.5,101.1 			"/>
		</g>
		<g>
			<polygon class="st0" points="93.5,101.1 115.3,133 84.6,133 62.8,101.1 			"/>
		</g>
	</g>
	<g>
		<g>
			<g>
				<polygon class="st1" points="62.6,37.5 40.7,69.3 10.1,69.3 31.9,37.5 				"/>
			</g>
			<g>
				<polygon class="st1" points="62.6,37.5 84.6,69.3 62.6,101.2 40.7,69.3 				"/>
			</g>
			<g>
				<polygon class="st1" points="40.7,69.3 62.6,101.2 31.9,101.2 10.1,69.3 				"/>
			</g>
		</g>
		<g>
			<g>
				<polygon class="st1" points="62.6,101.1 40.7,132.9 10.1,132.9 31.9,101.1 				"/>
			</g>
			<g>
				<polygon class="st1" points="62.6,101.1 84.6,132.9 62.6,164.8 40.7,132.9 				"/>
			</g>
			<g>
				<polygon class="st1" points="40.7,132.9 62.6,164.8 31.9,164.8 10.1,132.9 				"/>
			</g>
		</g>
		<g>
			<g>
				<polygon class="st1" points="168.1,37.5 146.2,69.3 115.6,69.3 137.4,37.5 				"/>
			</g>
			<g>
				<polygon class="st1" points="168.1,37.5 190.2,69.3 168.1,101.2 146.2,69.3 				"/>
			</g>
			<g>
				<polygon class="st1" points="146.2,69.3 168.1,101.2 137.4,101.2 115.6,69.3 				"/>
			</g>
		</g>
		<g>
			<g>
				<polygon class="st1" points="168.1,101.1 146.2,132.9 115.6,132.9 137.4,101.1 				"/>
			</g>
			<g>
				<polygon class="st1" points="168.1,101.1 190.2,132.9 168.1,164.8 146.2,132.9 				"/>
			</g>
			<g>
				<polygon class="st1" points="146.2,132.9 168.1,164.8 137.4,164.8 115.6,132.9 				"/>
			</g>
		</g>
		<g>
			<g>
				<polygon class="st1" points="115.3,5.7 93.5,37.5 62.8,37.5 84.6,5.7 				"/>
			</g>
			<g>
				<polygon class="st1" points="115.3,5.7 137.4,37.5 115.3,69.4 93.5,37.5 				"/>
			</g>
			<g>
				<polygon class="st1" points="93.5,37.5 115.3,69.4 84.6,69.4 62.8,37.5 				"/>
			</g>
		</g>
		<g>
			<g>
				<polygon class="st1" points="115.3,133 93.5,164.8 62.8,164.8 84.6,133 				"/>
			</g>
			<g>
				<polygon class="st1" points="115.3,133 137.4,164.8 115.3,196.7 93.5,164.8 				"/>
			</g>
			<g>
				<polygon class="st1" points="93.5,164.8 115.3,196.7 84.6,196.7 62.8,164.8 				"/>
			</g>
		</g>
	</g>
	<g>
		<g>
			<g>
				<line class="st2" x1="40.7" y1="69.3" x2="32.7" y2="69.3"/>
			</g>
		</g>
		<g>
			<g>
				<line class="st2" x1="40.7" y1="132.9" x2="32.7" y2="132.9"/>
			</g>
		</g>
		<g>
			<g>
				<line class="st2" x1="146.2" y1="69.3" x2="138.2" y2="69.3"/>
			</g>
		</g>
		<g>
			<g>
				<line class="st2" x1="146.2" y1="132.9" x2="138.2" y2="132.9"/>
			</g>
		</g>
		<g>
			<g>
				<line class="st2" x1="93.5" y1="37.5" x2="85.5" y2="37.5"/>
			</g>
		</g>
		<g>
			<g>
				<line class="st2" x1="93.5" y1="164.8" x2="85.5" y2="164.8"/>
			</g>
		</g>
		<g>
			<g>
				<g>
					<line class="st2" x1="93.5" y1="101.1" x2="85.5" y2="101.1"/>
				</g>
			</g>
			<line class="st2" x1="93.5" y1="101.1" x2="98.4" y2="94.3"/>
			<line class="st2" x1="93.5" y1="101.1" x2="98.4" y2="108"/>
			<line class="st2" x1="62.8" y1="101.1" x2="67.7" y2="94.3"/>
			<line class="st2" x1="62.8" y1="101.1" x2="67.9" y2="108.3"/>
			<path class="st2" d="M67.9,108.3"/>
			<path class="st2" d="M98.5,108.3"/>
			<path class="st2" d="M67.9,108.3"/>
			<path class="st2" d="M98.5,108.3"/>
			<path class="st2" d="M132.5,94.3"/>
			<path class="st2" d="M67.7,94.3"/>
			<path class="st2" d="M132.5,108.3"/>
			<path class="st2" d="M67.9,108.3"/>
			<line class="st2" x1="137.4" y1="101.1" x2="132.5" y2="94.3"/>
			<line class="st2" x1="132.5" y1="108.3" x2="137.4" y2="101.1"/>
			<line class="st2" x1="84.6" y1="69.4" x2="79.6" y2="76.9"/>
			<line class="st2" x1="94.6" y1="69.4" x2="84.6" y2="69.4"/>
			<line class="st2" x1="115.3" y1="69.4" x2="105.9" y2="69.4"/>
			<line class="st2" x1="110.1" y1="77.2" x2="115.3" y2="69.4"/>
			<line class="st2" x1="120.9" y1="77" x2="115.3" y2="69.4"/>
			<line class="st2" x1="115.3" y1="133" x2="104.2" y2="133"/>
			<line class="st2" x1="109.8" y1="124.8" x2="115.3" y2="133"/>
			<line class="st2" x1="121.5" y1="124.5" x2="115.3" y2="133"/>
			<line class="st2" x1="84.6" y1="133" x2="79.7" y2="125.4"/>
			<line class="st2" x1="93.7" y1="133" x2="84.6" y2="133"/>
			<line class="st2" x1="40.7" y1="69.3" x2="45.6" y2="62.5"/>
			<line class="st2" x1="40.7" y1="69.3" x2="45.7" y2="76.2"/>
			<line class="st2" x1="10.1" y1="69.3" x2="15" y2="62.5"/>
			<line class="st2" x1="10.1" y1="69.3" x2="15.1" y2="76.5"/>
			<path class="st2" d="M15.1,76.5"/>
			<path class="st2" d="M45.7,76.5"/>
			<path class="st2" d="M15.1,76.5"/>
			<path class="st2" d="M45.7,76.5"/>
			<path class="st2" d="M79.7,62.5"/>
			<path class="st2" d="M15,62.5"/>
			<path class="st2" d="M79.7,76.5"/>
			<path class="st2" d="M15.1,76.5"/>
			<line class="st2" x1="84.6" y1="69.3" x2="79.7" y2="62.5"/>
			<line class="st2" x1="79.7" y1="76.5" x2="84.6" y2="69.3"/>
			<line class="st2" x1="31.9" y1="37.5" x2="26.9" y2="45.1"/>
			<line class="st2" x1="41.9" y1="37.5" x2="31.9" y2="37.5"/>
			<line class="st2" x1="62.6" y1="37.5" x2="53.1" y2="37.5"/>
			<line class="st2" x1="57.3" y1="45.4" x2="62.6" y2="37.5"/>
			<line class="st2" x1="68.1" y1="45.2" x2="62.6" y2="37.5"/>
			<line class="st2" x1="62.6" y1="101.2" x2="51.4" y2="101.2"/>
			<line class="st2" x1="57.1" y1="92.9" x2="62.6" y2="101.2"/>
			<line class="st2" x1="68.7" y1="92.7" x2="62.6" y2="101.2"/>
			<line class="st2" x1="31.9" y1="101.2" x2="27" y2="93.6"/>
			<line class="st2" x1="41" y1="101.2" x2="31.9" y2="101.2"/>
			<line class="st2" x1="40.7" y1="132.9" x2="45.6" y2="126.1"/>
			<line class="st2" x1="40.7" y1="132.9" x2="45.7" y2="139.8"/>
			<line class="st2" x1="10.1" y1="132.9" x2="15" y2="126.1"/>
			<line class="st2" x1="10.1" y1="132.9" x2="15.1" y2="140.1"/>
			<path class="st2" d="M15.1,140.1"/>
			<path class="st2" d="M45.7,140.1"/>
			<path class="st2" d="M15.1,140.1"/>
			<path class="st2" d="M45.7,140.1"/>
			<path class="st2" d="M79.7,126.1"/>
			<path class="st2" d="M15,126.1"/>
			<path class="st2" d="M79.7,140.1"/>
			<path class="st2" d="M15.1,140.1"/>
			<line class="st2" x1="84.6" y1="132.9" x2="79.7" y2="126.1"/>
			<line class="st2" x1="79.7" y1="140.1" x2="84.6" y2="132.9"/>
			<line class="st2" x1="31.9" y1="101.1" x2="26.9" y2="108.7"/>
			<line class="st2" x1="41.9" y1="101.1" x2="31.9" y2="101.1"/>
			<line class="st2" x1="62.6" y1="101.1" x2="53.1" y2="101.1"/>
			<line class="st2" x1="57.3" y1="109" x2="62.6" y2="101.1"/>
			<line class="st2" x1="68.1" y1="108.8" x2="62.6" y2="101.1"/>
			<line class="st2" x1="62.6" y1="164.8" x2="51.4" y2="164.8"/>
			<line class="st2" x1="57.1" y1="156.6" x2="62.6" y2="164.8"/>
			<line class="st2" x1="68.7" y1="156.3" x2="62.6" y2="164.8"/>
			<line class="st2" x1="31.9" y1="164.8" x2="27" y2="157.2"/>
			<line class="st2" x1="41" y1="164.8" x2="31.9" y2="164.8"/>
			<line class="st2" x1="146.2" y1="69.3" x2="151.1" y2="62.5"/>
			<line class="st2" x1="146.2" y1="69.3" x2="151.2" y2="76.2"/>
			<line class="st2" x1="115.6" y1="69.3" x2="120.5" y2="62.5"/>
			<line class="st2" x1="115.6" y1="69.3" x2="120.6" y2="76.5"/>
			<path class="st2" d="M120.6,76.5"/>
			<path class="st2" d="M151.3,76.5"/>
			<path class="st2" d="M120.6,76.5"/>
			<path class="st2" d="M151.3,76.5"/>
			<path class="st2" d="M185.2,62.5"/>
			<path class="st2" d="M120.5,62.5"/>
			<path class="st2" d="M185.2,76.5"/>
			<path class="st2" d="M120.6,76.5"/>
			<line class="st2" x1="190.2" y1="69.3" x2="185.2" y2="62.5"/>
			<line class="st2" x1="185.2" y1="76.5" x2="190.2" y2="69.3"/>
			<line class="st2" x1="137.4" y1="37.5" x2="132.4" y2="45.1"/>
			<line class="st2" x1="147.4" y1="37.5" x2="137.4" y2="37.5"/>
			<line class="st2" x1="168.1" y1="37.5" x2="158.7" y2="37.5"/>
			<line class="st2" x1="162.8" y1="45.4" x2="168.1" y2="37.5"/>
			<line class="st2" x1="173.6" y1="45.2" x2="168.1" y2="37.5"/>
			<line class="st2" x1="168.1" y1="101.2" x2="156.9" y2="101.2"/>
			<line class="st2" x1="162.6" y1="92.9" x2="168.1" y2="101.2"/>
			<line class="st2" x1="174.2" y1="92.7" x2="168.1" y2="101.2"/>
			<line class="st2" x1="137.4" y1="101.2" x2="132.5" y2="93.6"/>
			<line class="st2" x1="146.5" y1="101.2" x2="137.4" y2="101.2"/>
			<line class="st2" x1="146.2" y1="132.9" x2="151.1" y2="126.1"/>
			<line class="st2" x1="146.2" y1="132.9" x2="151.2" y2="139.8"/>
			<line class="st2" x1="115.6" y1="132.9" x2="120.5" y2="126.1"/>
			<line class="st2" x1="115.6" y1="132.9" x2="120.6" y2="140.1"/>
			<path class="st2" d="M120.6,140.1"/>
			<path class="st2" d="M151.3,140.1"/>
			<path class="st2" d="M120.6,140.1"/>
			<path class="st2" d="M151.3,140.1"/>
			<path class="st2" d="M185.2,126.1"/>
			<path class="st2" d="M120.5,126.1"/>
			<path class="st2" d="M185.2,140.1"/>
			<path class="st2" d="M120.6,140.1"/>
			<line class="st2" x1="190.2" y1="132.9" x2="185.2" y2="126.1"/>
			<line class="st2" x1="185.2" y1="140.1" x2="190.2" y2="132.9"/>
			<line class="st2" x1="137.4" y1="101.1" x2="132.4" y2="108.7"/>
			<line class="st2" x1="147.4" y1="101.1" x2="137.4" y2="101.1"/>
			<line class="st2" x1="168.1" y1="101.1" x2="158.7" y2="101.1"/>
			<line class="st2" x1="162.8" y1="109" x2="168.1" y2="101.1"/>
			<line class="st2" x1="173.6" y1="108.8" x2="168.1" y2="101.1"/>
			<line class="st2" x1="168.1" y1="164.8" x2="156.9" y2="164.8"/>
			<line class="st2" x1="162.6" y1="156.6" x2="168.1" y2="164.8"/>
			<line class="st2" x1="174.2" y1="156.3" x2="168.1" y2="164.8"/>
			<line class="st2" x1="137.4" y1="164.8" x2="132.5" y2="157.2"/>
			<line class="st2" x1="146.5" y1="164.8" x2="137.4" y2="164.8"/>
			<line class="st2" x1="93.5" y1="37.5" x2="98.4" y2="30.7"/>
			<line class="st2" x1="93.5" y1="37.5" x2="98.4" y2="44.4"/>
			<line class="st2" x1="62.8" y1="37.5" x2="67.7" y2="30.7"/>
			<line class="st2" x1="62.8" y1="37.5" x2="67.9" y2="44.6"/>
			<path class="st2" d="M67.9,44.6"/>
			<path class="st2" d="M98.5,44.6"/>
			<path class="st2" d="M67.9,44.6"/>
			<path class="st2" d="M98.5,44.6"/>
			<path class="st2" d="M132.5,30.7"/>
			<path class="st2" d="M67.7,30.7"/>
			<path class="st2" d="M132.5,44.6"/>
			<path class="st2" d="M67.9,44.6"/>
			<line class="st2" x1="137.4" y1="37.5" x2="132.5" y2="30.7"/>
			<line class="st2" x1="132.5" y1="44.6" x2="137.4" y2="37.5"/>
			<line class="st2" x1="84.6" y1="5.7" x2="79.6" y2="13.2"/>
			<line class="st2" x1="94.6" y1="5.7" x2="84.6" y2="5.7"/>
			<line class="st2" x1="115.3" y1="5.7" x2="105.9" y2="5.7"/>
			<line class="st2" x1="110.1" y1="13.6" x2="115.3" y2="5.7"/>
			<line class="st2" x1="120.9" y1="13.4" x2="115.3" y2="5.7"/>
			<line class="st2" x1="115.3" y1="69.4" x2="104.2" y2="69.4"/>
			<line class="st2" x1="109.8" y1="61.1" x2="115.3" y2="69.4"/>
			<line class="st2" x1="121.5" y1="60.8" x2="115.3" y2="69.4"/>
			<line class="st2" x1="84.6" y1="69.4" x2="79.7" y2="61.8"/>
			<line class="st2" x1="93.7" y1="69.4" x2="84.6" y2="69.4"/>
			<line class="st2" x1="93.5" y1="164.8" x2="98.4" y2="158"/>
			<line class="st2" x1="93.5" y1="164.8" x2="98.4" y2="171.7"/>
			<line class="st2" x1="62.8" y1="164.8" x2="67.7" y2="158"/>
			<line class="st2" x1="62.8" y1="164.8" x2="67.9" y2="172"/>
			<path class="st2" d="M67.9,172"/>
			<path class="st2" d="M98.5,172"/>
			<path class="st2" d="M67.9,172"/>
			<path class="st2" d="M98.5,172"/>
			<path class="st2" d="M132.5,158"/>
			<path class="st2" d="M67.7,158"/>
			<path class="st2" d="M132.5,172"/>
			<path class="st2" d="M67.9,172"/>
			<line class="st2" x1="137.4" y1="164.8" x2="132.5" y2="158"/>
			<line class="st2" x1="132.5" y1="172" x2="137.4" y2="164.8"/>
			<line class="st2" x1="84.6" y1="133" x2="79.6" y2="140.5"/>
			<line class="st2" x1="94.6" y1="133" x2="84.6" y2="133"/>
			<line class="st2" x1="115.3" y1="133" x2="105.9" y2="133"/>
			<line class="st2" x1="110.1" y1="140.9" x2="115.3" y2="133"/>
			<line class="st2" x1="120.9" y1="140.7" x2="115.3" y2="133"/>
			<line class="st2" x1="115.3" y1="196.7" x2="104.2" y2="196.7"/>
			<line class="st2" x1="109.8" y1="188.4" x2="115.3" y2="196.7"/>
			<line class="st2" x1="121.5" y1="188.1" x2="115.3" y2="196.7"/>
			<line class="st2" x1="84.6" y1="196.7" x2="79.7" y2="189.1"/>
			<line class="st2" x1="93.7" y1="196.7" x2="84.6" y2="196.7"/>
		</g>
	</g>
</g>
</svg>
