<?xml version="1.0" encoding="utf-8"?>
<!-- Generator: Adobe Illustrator 25.0.0, SVG Export Plug-In . SVG Version: 6.00 Build 0)  -->
<svg version="1.1" id="Layer_1" xmlns="http://www.w3.org/2000/svg" xmlns:xlink="http://www.w3.org/1999/xlink" x="0px" y="0px"
	 viewBox="0 0 1024 516.28" style="enable-background:new 0 0 1024 516.28;" xml:space="preserve">
<style type="text/css">
	.st0{fill:none;stroke:#E5E5E5;stroke-miterlimit:10;}
	.st1{fill:none;stroke:#E5E5E5;stroke-width:2;stroke-miterlimit:10;}
	.st2{fill:none;stroke:#E5E5E5;stroke-width:3;stroke-miterlimit:10;}
	.st3{fill:none;stroke:#E5E5E5;stroke-width:4;stroke-miterlimit:10;}
	.st4{fill:none;stroke:#E5E5E5;stroke-width:1.9623;stroke-miterlimit:10;}
	.st5{fill:none;stroke:#E5E5E5;stroke-width:1.7925;stroke-miterlimit:10;}
</style>
<g>
	<g>
		<g>
			<g>
				<g>
					<path class="st0" d="M0,244.9c0,0,19.42,41.99,64.91,47.01"/>
					<line class="st0" x1="6.2" y1="244.9" x2="6.2" y2="255.61"/>
					<line class="st0" x1="15.15" y1="244.9" x2="15.15" y2="266.37"/>
					<line class="st0" x1="25.39" y1="244.9" x2="25.39" y2="275.87"/>
					<line class="st0" x1="37.19" y1="244.9" x2="37.19" y2="283.57"/>
					<line class="st0" x1="49.42" y1="244.9" x2="49.42" y2="288.69"/>
					<line class="st0" x1="64.91" y1="244.9" x2="64.91" y2="291.91"/>
				</g>
				<g>
					<path class="st0" d="M128.99,244.72c0,0-19.18,41.99-64.12,47.01"/>
					<line class="st0" x1="122.87" y1="244.72" x2="122.87" y2="255.44"/>
					<line class="st0" x1="114.03" y1="244.72" x2="114.03" y2="266.19"/>
					<line class="st0" x1="103.91" y1="244.72" x2="103.91" y2="275.69"/>
					<line class="st0" x1="92.26" y1="244.72" x2="92.26" y2="283.4"/>
					<line class="st0" x1="80.18" y1="244.72" x2="80.18" y2="288.51"/>
				</g>
			</g>
			<g>
				<g>
					<path class="st0" d="M0,244.55c0,0,19.42-41.99,64.91-47.01"/>
					<line class="st0" x1="6.2" y1="244.55" x2="6.2" y2="233.84"/>
					<line class="st0" x1="15.15" y1="244.55" x2="15.15" y2="223.08"/>
					<line class="st0" x1="25.39" y1="244.55" x2="25.39" y2="213.58"/>
					<line class="st0" x1="37.19" y1="244.55" x2="37.19" y2="205.88"/>
					<line class="st0" x1="49.42" y1="244.55" x2="49.42" y2="200.76"/>
					<line class="st0" x1="64.91" y1="244.55" x2="64.91" y2="197.54"/>
				</g>
				<g>
					<path class="st0" d="M128.99,244.72c0,0-19.18-41.99-64.12-47.01"/>
					<line class="st0" x1="122.87" y1="244.72" x2="122.87" y2="234.01"/>
					<line class="st0" x1="114.03" y1="244.72" x2="114.03" y2="223.26"/>
					<line class="st0" x1="103.91" y1="244.72" x2="103.91" y2="213.76"/>
					<line class="st0" x1="92.26" y1="244.72" x2="92.26" y2="206.05"/>
					<line class="st0" x1="80.18" y1="244.72" x2="80.18" y2="200.94"/>
				</g>
			</g>
		</g>
		<g>
			<g>
				<g>
					<path class="st1" d="M129.14,244.72c0,0,19.42,41.99,64.91,47.01"/>
					<line class="st1" x1="135.34" y1="244.72" x2="135.34" y2="255.44"/>
					<line class="st1" x1="144.29" y1="244.72" x2="144.29" y2="266.19"/>
					<line class="st1" x1="154.53" y1="244.72" x2="154.53" y2="275.69"/>
					<line class="st1" x1="166.33" y1="244.72" x2="166.33" y2="283.4"/>
					<line class="st1" x1="178.56" y1="244.72" x2="178.56" y2="288.51"/>
					<line class="st1" x1="194.05" y1="244.72" x2="194.05" y2="291.74"/>
				</g>
				<g>
					<path class="st1" d="M258.13,244.55c0,0-19.18,41.99-64.12,47.01"/>
					<line class="st1" x1="252.01" y1="244.55" x2="252.01" y2="255.27"/>
					<line class="st1" x1="243.17" y1="244.55" x2="243.17" y2="266.02"/>
					<line class="st1" x1="233.05" y1="244.55" x2="233.05" y2="275.52"/>
					<line class="st1" x1="221.4" y1="244.55" x2="221.4" y2="283.22"/>
					<line class="st1" x1="209.32" y1="244.55" x2="209.32" y2="288.34"/>
				</g>
			</g>
			<g>
				<g>
					<path class="st1" d="M129.14,244.38c0,0,19.42-41.99,64.91-47.01"/>
					<line class="st1" x1="135.34" y1="244.38" x2="135.34" y2="233.66"/>
					<line class="st1" x1="144.29" y1="244.38" x2="144.29" y2="222.91"/>
					<line class="st1" x1="154.53" y1="244.38" x2="154.53" y2="213.41"/>
					<line class="st1" x1="166.33" y1="244.38" x2="166.33" y2="205.71"/>
					<line class="st1" x1="178.56" y1="244.38" x2="178.56" y2="200.59"/>
					<line class="st1" x1="194.05" y1="244.38" x2="194.05" y2="197.36"/>
				</g>
				<g>
					<path class="st1" d="M258.13,244.55c0,0-19.18-41.99-64.12-47.01"/>
					<line class="st1" x1="252.01" y1="244.55" x2="252.01" y2="233.84"/>
					<line class="st1" x1="243.17" y1="244.55" x2="243.17" y2="223.08"/>
					<line class="st1" x1="233.05" y1="244.55" x2="233.05" y2="213.58"/>
					<line class="st1" x1="221.4" y1="244.55" x2="221.4" y2="205.88"/>
					<line class="st1" x1="209.32" y1="244.55" x2="209.32" y2="200.76"/>
				</g>
			</g>
		</g>
	</g>
	<g>
		<g>
			<g>
				<g>
					<path class="st2" d="M258.13,244.64c0,0,19.42,41.99,64.91,47.01"/>
					<line class="st2" x1="264.33" y1="244.64" x2="264.33" y2="255.35"/>
					<line class="st2" x1="273.29" y1="244.64" x2="273.29" y2="266.11"/>
					<line class="st2" x1="283.53" y1="244.64" x2="283.53" y2="275.61"/>
					<line class="st2" x1="295.33" y1="244.64" x2="295.33" y2="283.31"/>
					<line class="st2" x1="307.55" y1="244.64" x2="307.55" y2="288.43"/>
					<line class="st2" x1="323.05" y1="244.64" x2="323.05" y2="291.65"/>
				</g>
				<g>
					<path class="st2" d="M387.13,244.46c0,0-19.18,41.99-64.12,47.01"/>
					<line class="st2" x1="381.01" y1="244.46" x2="381.01" y2="255.18"/>
					<line class="st2" x1="372.16" y1="244.46" x2="372.16" y2="265.93"/>
					<line class="st2" x1="362.05" y1="244.46" x2="362.05" y2="275.43"/>
					<line class="st2" x1="350.39" y1="244.46" x2="350.39" y2="283.13"/>
					<line class="st2" x1="338.32" y1="244.46" x2="338.32" y2="288.25"/>
				</g>
			</g>
			<g>
				<g>
					<path class="st2" d="M258.13,244.29c0,0,19.42-41.99,64.91-47.01"/>
					<line class="st2" x1="264.33" y1="244.29" x2="264.33" y2="233.57"/>
					<line class="st2" x1="273.29" y1="244.29" x2="273.29" y2="222.82"/>
					<line class="st2" x1="283.53" y1="244.29" x2="283.53" y2="213.32"/>
					<line class="st2" x1="295.33" y1="244.29" x2="295.33" y2="205.62"/>
					<line class="st2" x1="307.55" y1="244.29" x2="307.55" y2="200.5"/>
					<line class="st2" x1="323.05" y1="244.29" x2="323.05" y2="197.28"/>
				</g>
				<g>
					<path class="st2" d="M387.13,244.46c0,0-19.18-41.99-64.12-47.01"/>
					<line class="st2" x1="381.01" y1="244.46" x2="381.01" y2="233.75"/>
					<line class="st2" x1="372.16" y1="244.46" x2="372.16" y2="223"/>
					<line class="st2" x1="362.05" y1="244.46" x2="362.05" y2="213.5"/>
					<line class="st2" x1="350.39" y1="244.46" x2="350.39" y2="205.79"/>
					<line class="st2" x1="338.32" y1="244.46" x2="338.32" y2="200.67"/>
				</g>
			</g>
		</g>
		<g>
			<g>
				<g>
					<path class="st3" d="M387.27,244.46c0,0,19.42,41.99,64.91,47.01"/>
					<line class="st3" x1="393.47" y1="244.46" x2="393.47" y2="255.18"/>
					<line class="st3" x1="402.43" y1="244.46" x2="402.43" y2="265.93"/>
					<line class="st3" x1="412.66" y1="244.46" x2="412.66" y2="275.43"/>
					<line class="st3" x1="424.47" y1="244.46" x2="424.47" y2="283.13"/>
					<line class="st3" x1="436.69" y1="244.46" x2="436.69" y2="288.25"/>
					<line class="st3" x1="452.19" y1="244.46" x2="452.19" y2="291.48"/>
				</g>
				<g>
					<path class="st3" d="M516.27,244.29c0,0-19.18,41.99-64.12,47.01"/>
					<line class="st3" x1="510.15" y1="244.29" x2="510.15" y2="255.01"/>
					<line class="st3" x1="501.3" y1="244.29" x2="501.3" y2="265.76"/>
					<line class="st3" x1="491.19" y1="244.29" x2="491.19" y2="275.26"/>
					<line class="st3" x1="479.53" y1="244.29" x2="479.53" y2="282.96"/>
					<line class="st3" x1="467.46" y1="244.29" x2="467.46" y2="288.08"/>
				</g>
			</g>
			<g>
				<g>
					<path class="st3" d="M387.27,244.12c0,0,19.42-41.99,64.91-47.01"/>
					<line class="st3" x1="393.47" y1="244.12" x2="393.47" y2="233.4"/>
					<line class="st3" x1="402.43" y1="244.12" x2="402.43" y2="222.65"/>
					<line class="st3" x1="412.66" y1="244.12" x2="412.66" y2="213.15"/>
					<line class="st3" x1="424.47" y1="244.12" x2="424.47" y2="205.44"/>
					<line class="st3" x1="436.69" y1="244.12" x2="436.69" y2="200.33"/>
					<line class="st3" x1="452.19" y1="244.12" x2="452.19" y2="197.1"/>
				</g>
				<g>
					<path class="st3" d="M516.27,244.29c0,0-19.18-41.99-64.12-47.01"/>
					<line class="st3" x1="510.15" y1="244.29" x2="510.15" y2="233.57"/>
					<line class="st3" x1="501.3" y1="244.29" x2="501.3" y2="222.82"/>
					<line class="st3" x1="491.19" y1="244.29" x2="491.19" y2="213.32"/>
					<line class="st3" x1="479.53" y1="244.29" x2="479.53" y2="205.62"/>
					<line class="st3" x1="467.46" y1="244.29" x2="467.46" y2="200.5"/>
				</g>
			</g>
		</g>
	</g>
	<g>
		<g>
			<g>
				<g>
					<path class="st2" d="M774.54,243.86c0,0-19.42-41.99-64.91-47.01"/>
					<line class="st2" x1="768.34" y1="243.86" x2="768.34" y2="233.14"/>
					<line class="st2" x1="759.39" y1="243.86" x2="759.39" y2="222.39"/>
					<line class="st2" x1="749.15" y1="243.86" x2="749.15" y2="212.89"/>
					<line class="st2" x1="737.35" y1="243.86" x2="737.35" y2="205.18"/>
					<line class="st2" x1="725.12" y1="243.86" x2="725.12" y2="200.07"/>
					<line class="st2" x1="709.62" y1="243.86" x2="709.62" y2="196.84"/>
				</g>
				<g>
					<path class="st2" d="M645.55,244.03c0,0,19.18-41.99,64.12-47.01"/>
					<line class="st2" x1="651.67" y1="244.03" x2="651.67" y2="233.31"/>
					<line class="st2" x1="660.51" y1="244.03" x2="660.51" y2="222.56"/>
					<line class="st2" x1="670.62" y1="244.03" x2="670.62" y2="213.06"/>
					<line class="st2" x1="682.28" y1="244.03" x2="682.28" y2="205.36"/>
					<line class="st2" x1="694.36" y1="244.03" x2="694.36" y2="200.24"/>
				</g>
			</g>
			<g>
				<g>
					<path class="st2" d="M774.54,244.2c0,0-19.42,41.99-64.91,47.01"/>
					<line class="st2" x1="768.34" y1="244.2" x2="768.34" y2="254.92"/>
					<line class="st2" x1="759.39" y1="244.2" x2="759.39" y2="265.67"/>
					<line class="st2" x1="749.15" y1="244.2" x2="749.15" y2="275.17"/>
					<line class="st2" x1="737.35" y1="244.2" x2="737.35" y2="282.87"/>
					<line class="st2" x1="725.12" y1="244.2" x2="725.12" y2="287.99"/>
					<line class="st2" x1="709.62" y1="244.2" x2="709.62" y2="291.22"/>
				</g>
				<g>
					<path class="st2" d="M645.55,244.03c0,0,19.18,41.99,64.12,47.01"/>
					<line class="st2" x1="651.67" y1="244.03" x2="651.67" y2="254.74"/>
					<line class="st2" x1="660.51" y1="244.03" x2="660.51" y2="265.5"/>
					<line class="st2" x1="670.62" y1="244.03" x2="670.62" y2="275"/>
					<line class="st2" x1="682.28" y1="244.03" x2="682.28" y2="282.7"/>
					<line class="st2" x1="694.36" y1="244.03" x2="694.36" y2="287.82"/>
				</g>
			</g>
		</g>
		<g>
			<g>
				<g>
					<path class="st3" d="M645.4,244.03c0,0-19.42-41.99-64.91-47.01"/>
					<line class="st3" x1="639.2" y1="244.03" x2="639.2" y2="233.31"/>
					<line class="st3" x1="630.25" y1="244.03" x2="630.25" y2="222.56"/>
					<line class="st3" x1="620.01" y1="244.03" x2="620.01" y2="213.06"/>
					<line class="st3" x1="608.21" y1="244.03" x2="608.21" y2="205.36"/>
					<line class="st3" x1="595.98" y1="244.03" x2="595.98" y2="200.24"/>
					<line class="st3" x1="580.49" y1="244.03" x2="580.49" y2="197.01"/>
				</g>
				<g>
					<path class="st3" d="M516.41,244.2c0,0,19.18-41.99,64.12-47.01"/>
					<line class="st3" x1="522.53" y1="244.2" x2="522.53" y2="233.49"/>
					<line class="st3" x1="531.37" y1="244.2" x2="531.37" y2="222.73"/>
					<line class="st3" x1="541.49" y1="244.2" x2="541.49" y2="213.23"/>
					<line class="st3" x1="553.14" y1="244.2" x2="553.14" y2="205.53"/>
					<line class="st3" x1="565.22" y1="244.2" x2="565.22" y2="200.41"/>
				</g>
			</g>
			<g>
				<g>
					<path class="st3" d="M645.4,244.38c0,0-19.42,41.99-64.91,47.01"/>
					<line class="st3" x1="639.2" y1="244.38" x2="639.2" y2="255.09"/>
					<line class="st3" x1="630.25" y1="244.38" x2="630.25" y2="265.85"/>
					<line class="st3" x1="620.01" y1="244.38" x2="620.01" y2="275.35"/>
					<line class="st3" x1="608.21" y1="244.38" x2="608.21" y2="283.05"/>
					<line class="st3" x1="595.98" y1="244.38" x2="595.98" y2="288.17"/>
					<line class="st3" x1="580.49" y1="244.38" x2="580.49" y2="291.39"/>
				</g>
				<g>
					<path class="st3" d="M516.41,244.2c0,0,19.18,41.99,64.12,47.01"/>
					<line class="st3" x1="522.53" y1="244.2" x2="522.53" y2="254.92"/>
					<line class="st3" x1="531.37" y1="244.2" x2="531.37" y2="265.67"/>
					<line class="st3" x1="541.49" y1="244.2" x2="541.49" y2="275.17"/>
					<line class="st3" x1="553.14" y1="244.2" x2="553.14" y2="282.87"/>
					<line class="st3" x1="565.22" y1="244.2" x2="565.22" y2="287.99"/>
				</g>
			</g>
		</g>
	</g>
</g>
<g>
	<g>
		<g>
			<g>
				<g>
					<path class="st0" d="M512,357.17c0,0,12.84,27.76,42.91,31.08"/>
					<line class="st0" x1="516.1" y1="357.17" x2="516.1" y2="364.25"/>
					<line class="st0" x1="522.02" y1="357.17" x2="522.02" y2="371.36"/>
					<line class="st0" x1="528.78" y1="357.17" x2="528.78" y2="377.64"/>
					<line class="st0" x1="536.58" y1="357.17" x2="536.58" y2="382.73"/>
					<line class="st0" x1="544.67" y1="357.17" x2="544.67" y2="386.12"/>
					<line class="st0" x1="554.91" y1="357.17" x2="554.91" y2="388.25"/>
				</g>
				<g>
					<path class="st0" d="M597.27,357.05c0,0-12.68,27.76-42.39,31.08"/>
					<line class="st0" x1="593.22" y1="357.05" x2="593.22" y2="364.14"/>
					<line class="st0" x1="587.38" y1="357.05" x2="587.38" y2="371.25"/>
					<line class="st0" x1="580.69" y1="357.05" x2="580.69" y2="377.53"/>
					<line class="st0" x1="572.99" y1="357.05" x2="572.99" y2="382.62"/>
					<line class="st0" x1="565" y1="357.05" x2="565" y2="386"/>
				</g>
			</g>
			<g>
				<g>
					<path class="st0" d="M512,356.94c0,0,12.84-27.76,42.91-31.08"/>
					<line class="st0" x1="516.1" y1="356.94" x2="516.1" y2="349.86"/>
					<line class="st0" x1="522.02" y1="356.94" x2="522.02" y2="342.75"/>
					<line class="st0" x1="528.78" y1="356.94" x2="528.78" y2="336.47"/>
					<line class="st0" x1="536.58" y1="356.94" x2="536.58" y2="331.38"/>
					<line class="st0" x1="544.67" y1="356.94" x2="544.67" y2="327.99"/>
					<line class="st0" x1="554.91" y1="356.94" x2="554.91" y2="325.86"/>
				</g>
				<g>
					<path class="st0" d="M597.27,357.05c0,0-12.68-27.76-42.39-31.08"/>
					<line class="st0" x1="593.22" y1="357.05" x2="593.22" y2="349.97"/>
					<line class="st0" x1="587.38" y1="357.05" x2="587.38" y2="342.86"/>
					<line class="st0" x1="580.69" y1="357.05" x2="580.69" y2="336.58"/>
					<line class="st0" x1="572.99" y1="357.05" x2="572.99" y2="331.49"/>
					<line class="st0" x1="565" y1="357.05" x2="565" y2="328.11"/>
				</g>
			</g>
		</g>
		<g>
			<g>
				<g>
					<path class="st0" d="M597.37,357.05c0,0,12.84,27.76,42.91,31.08"/>
					<line class="st0" x1="601.46" y1="357.05" x2="601.46" y2="364.14"/>
					<line class="st0" x1="607.38" y1="357.05" x2="607.38" y2="371.25"/>
					<line class="st0" x1="614.15" y1="357.05" x2="614.15" y2="377.53"/>
					<line class="st0" x1="621.95" y1="357.05" x2="621.95" y2="382.62"/>
					<line class="st0" x1="630.03" y1="357.05" x2="630.03" y2="386"/>
					<line class="st0" x1="640.28" y1="357.05" x2="640.28" y2="388.13"/>
				</g>
				<g>
					<path class="st0" d="M682.64,356.94c0,0-12.68,27.76-42.39,31.08"/>
					<line class="st0" x1="678.59" y1="356.94" x2="678.59" y2="364.02"/>
					<line class="st0" x1="672.74" y1="356.94" x2="672.74" y2="371.13"/>
					<line class="st0" x1="666.06" y1="356.94" x2="666.06" y2="377.41"/>
					<line class="st0" x1="658.35" y1="356.94" x2="658.35" y2="382.5"/>
					<line class="st0" x1="650.37" y1="356.94" x2="650.37" y2="385.89"/>
				</g>
			</g>
			<g>
				<g>
					<path class="st0" d="M597.37,356.82c0,0,12.84-27.76,42.91-31.08"/>
					<line class="st0" x1="601.46" y1="356.82" x2="601.46" y2="349.74"/>
					<line class="st0" x1="607.38" y1="356.82" x2="607.38" y2="342.63"/>
					<line class="st0" x1="614.15" y1="356.82" x2="614.15" y2="336.35"/>
					<line class="st0" x1="621.95" y1="356.82" x2="621.95" y2="331.26"/>
					<line class="st0" x1="630.03" y1="356.82" x2="630.03" y2="327.88"/>
					<line class="st0" x1="640.28" y1="356.82" x2="640.28" y2="325.75"/>
				</g>
				<g>
					<path class="st0" d="M682.64,356.94c0,0-12.68-27.76-42.39-31.08"/>
					<line class="st0" x1="678.59" y1="356.94" x2="678.59" y2="349.86"/>
					<line class="st0" x1="672.74" y1="356.94" x2="672.74" y2="342.75"/>
					<line class="st0" x1="666.06" y1="356.94" x2="666.06" y2="336.47"/>
					<line class="st0" x1="658.35" y1="356.94" x2="658.35" y2="331.38"/>
					<line class="st0" x1="650.37" y1="356.94" x2="650.37" y2="327.99"/>
				</g>
			</g>
		</g>
	</g>
	<g>
		<g>
			<g>
				<g>
					<path class="st0" d="M682.64,357c0,0,12.84,27.76,42.91,31.08"/>
					<line class="st0" x1="686.73" y1="357" x2="686.73" y2="364.08"/>
					<line class="st0" x1="692.65" y1="357" x2="692.65" y2="371.19"/>
					<line class="st0" x1="699.42" y1="357" x2="699.42" y2="377.47"/>
					<line class="st0" x1="707.22" y1="357" x2="707.22" y2="382.56"/>
					<line class="st0" x1="715.3" y1="357" x2="715.3" y2="385.94"/>
					<line class="st0" x1="725.55" y1="357" x2="725.55" y2="388.07"/>
				</g>
				<g>
					<path class="st0" d="M767.91,356.88c0,0-12.68,27.76-42.39,31.08"/>
					<line class="st0" x1="763.86" y1="356.88" x2="763.86" y2="363.97"/>
					<line class="st0" x1="758.01" y1="356.88" x2="758.01" y2="371.07"/>
					<line class="st0" x1="751.33" y1="356.88" x2="751.33" y2="377.35"/>
					<line class="st0" x1="743.62" y1="356.88" x2="743.62" y2="382.44"/>
					<line class="st0" x1="735.64" y1="356.88" x2="735.64" y2="385.83"/>
				</g>
			</g>
			<g>
				<g>
					<path class="st0" d="M682.64,356.77c0,0,12.84-27.76,42.91-31.08"/>
					<line class="st0" x1="686.73" y1="356.77" x2="686.73" y2="349.68"/>
					<line class="st0" x1="692.65" y1="356.77" x2="692.65" y2="342.58"/>
					<line class="st0" x1="699.42" y1="356.77" x2="699.42" y2="336.3"/>
					<line class="st0" x1="707.22" y1="356.77" x2="707.22" y2="331.2"/>
					<line class="st0" x1="715.3" y1="356.77" x2="715.3" y2="327.82"/>
					<line class="st0" x1="725.55" y1="356.77" x2="725.55" y2="325.69"/>
				</g>
				<g>
					<path class="st0" d="M767.91,356.88c0,0-12.68-27.76-42.39-31.08"/>
					<line class="st0" x1="763.86" y1="356.88" x2="763.86" y2="349.8"/>
					<line class="st0" x1="758.01" y1="356.88" x2="758.01" y2="342.69"/>
					<line class="st0" x1="751.33" y1="356.88" x2="751.33" y2="336.41"/>
					<line class="st0" x1="743.62" y1="356.88" x2="743.62" y2="331.32"/>
					<line class="st0" x1="735.64" y1="356.88" x2="735.64" y2="327.94"/>
				</g>
			</g>
		</g>
		<g>
			<g>
				<g>
					<path class="st0" d="M768,356.88c0,0,12.84,27.76,42.91,31.08"/>
					<line class="st0" x1="772.1" y1="356.88" x2="772.1" y2="363.97"/>
					<line class="st0" x1="778.02" y1="356.88" x2="778.02" y2="371.07"/>
					<line class="st0" x1="784.79" y1="356.88" x2="784.79" y2="377.35"/>
					<line class="st0" x1="792.59" y1="356.88" x2="792.59" y2="382.44"/>
					<line class="st0" x1="800.67" y1="356.88" x2="800.67" y2="385.83"/>
					<line class="st0" x1="810.91" y1="356.88" x2="810.91" y2="387.96"/>
				</g>
				<g>
					<path class="st0" d="M853.27,356.77c0,0-12.68,27.76-42.39,31.08"/>
					<line class="st0" x1="849.23" y1="356.77" x2="849.23" y2="363.85"/>
					<line class="st0" x1="843.38" y1="356.77" x2="843.38" y2="370.96"/>
					<line class="st0" x1="836.69" y1="356.77" x2="836.69" y2="377.24"/>
					<line class="st0" x1="828.99" y1="356.77" x2="828.99" y2="382.33"/>
					<line class="st0" x1="821.01" y1="356.77" x2="821.01" y2="385.71"/>
				</g>
			</g>
			<g>
				<g>
					<path class="st0" d="M768,356.65c0,0,12.84-27.76,42.91-31.08"/>
					<line class="st0" x1="772.1" y1="356.65" x2="772.1" y2="349.57"/>
					<line class="st0" x1="778.02" y1="356.65" x2="778.02" y2="342.46"/>
					<line class="st0" x1="784.79" y1="356.65" x2="784.79" y2="336.18"/>
					<line class="st0" x1="792.59" y1="356.65" x2="792.59" y2="331.09"/>
					<line class="st0" x1="800.67" y1="356.65" x2="800.67" y2="327.71"/>
					<line class="st0" x1="810.91" y1="356.65" x2="810.91" y2="325.57"/>
				</g>
				<g>
					<path class="st0" d="M853.27,356.77c0,0-12.68-27.76-42.39-31.08"/>
					<line class="st0" x1="849.23" y1="356.77" x2="849.23" y2="349.68"/>
					<line class="st0" x1="843.38" y1="356.77" x2="843.38" y2="342.58"/>
					<line class="st0" x1="836.69" y1="356.77" x2="836.69" y2="336.3"/>
					<line class="st0" x1="828.99" y1="356.77" x2="828.99" y2="331.2"/>
					<line class="st0" x1="821.01" y1="356.77" x2="821.01" y2="327.82"/>
				</g>
			</g>
		</g>
	</g>
	<g>
		<g>
			<g>
				<g>
					<path class="st0" d="M1024,356.48c0,0-12.84-27.76-42.91-31.08"/>
					<line class="st0" x1="1019.9" y1="356.48" x2="1019.9" y2="349.4"/>
					<line class="st0" x1="1013.98" y1="356.48" x2="1013.98" y2="342.29"/>
					<line class="st0" x1="1007.22" y1="356.48" x2="1007.22" y2="336.01"/>
					<line class="st0" x1="999.42" y1="356.48" x2="999.42" y2="330.92"/>
					<line class="st0" x1="991.33" y1="356.48" x2="991.33" y2="327.53"/>
					<line class="st0" x1="981.09" y1="356.48" x2="981.09" y2="325.4"/>
				</g>
				<g>
					<path class="st0" d="M938.73,356.59c0,0,12.68-27.76,42.39-31.08"/>
					<line class="st0" x1="942.78" y1="356.59" x2="942.78" y2="349.51"/>
					<line class="st0" x1="948.62" y1="356.59" x2="948.62" y2="342.4"/>
					<line class="st0" x1="955.31" y1="356.59" x2="955.31" y2="336.12"/>
					<line class="st0" x1="963.01" y1="356.59" x2="963.01" y2="331.03"/>
					<line class="st0" x1="971" y1="356.59" x2="971" y2="327.65"/>
				</g>
			</g>
			<g>
				<g>
					<path class="st0" d="M1024,356.71c0,0-12.84,27.76-42.91,31.08"/>
					<line class="st0" x1="1019.9" y1="356.71" x2="1019.9" y2="363.79"/>
					<line class="st0" x1="1013.98" y1="356.71" x2="1013.98" y2="370.9"/>
					<line class="st0" x1="1007.22" y1="356.71" x2="1007.22" y2="377.18"/>
					<line class="st0" x1="999.42" y1="356.71" x2="999.42" y2="382.27"/>
					<line class="st0" x1="991.33" y1="356.71" x2="991.33" y2="385.66"/>
					<line class="st0" x1="981.09" y1="356.71" x2="981.09" y2="387.79"/>
				</g>
				<g>
					<path class="st0" d="M938.73,356.59c0,0,12.68,27.76,42.39,31.08"/>
					<line class="st0" x1="942.78" y1="356.59" x2="942.78" y2="363.68"/>
					<line class="st0" x1="948.62" y1="356.59" x2="948.62" y2="370.79"/>
					<line class="st0" x1="955.31" y1="356.59" x2="955.31" y2="377.07"/>
					<line class="st0" x1="963.01" y1="356.59" x2="963.01" y2="382.16"/>
					<line class="st0" x1="971" y1="356.59" x2="971" y2="385.54"/>
				</g>
			</g>
		</g>
		<g>
			<g>
				<g>
					<path class="st0" d="M938.63,356.59c0,0-12.84-27.76-42.91-31.08"/>
					<line class="st0" x1="934.54" y1="356.59" x2="934.54" y2="349.51"/>
					<line class="st0" x1="928.62" y1="356.59" x2="928.62" y2="342.4"/>
					<line class="st0" x1="921.85" y1="356.59" x2="921.85" y2="336.12"/>
					<line class="st0" x1="914.05" y1="356.59" x2="914.05" y2="331.03"/>
					<line class="st0" x1="905.97" y1="356.59" x2="905.97" y2="327.65"/>
					<line class="st0" x1="895.72" y1="356.59" x2="895.72" y2="325.52"/>
				</g>
				<g>
					<path class="st0" d="M853.36,356.71c0,0,12.68-27.76,42.39-31.08"/>
					<line class="st0" x1="857.41" y1="356.71" x2="857.41" y2="349.63"/>
					<line class="st0" x1="863.26" y1="356.71" x2="863.26" y2="342.52"/>
					<line class="st0" x1="869.94" y1="356.71" x2="869.94" y2="336.24"/>
					<line class="st0" x1="877.65" y1="356.71" x2="877.65" y2="331.15"/>
					<line class="st0" x1="885.63" y1="356.71" x2="885.63" y2="327.76"/>
				</g>
			</g>
			<g>
				<g>
					<path class="st0" d="M938.63,356.82c0,0-12.84,27.76-42.91,31.08"/>
					<line class="st0" x1="934.54" y1="356.82" x2="934.54" y2="363.91"/>
					<line class="st0" x1="928.62" y1="356.82" x2="928.62" y2="371.02"/>
					<line class="st0" x1="921.85" y1="356.82" x2="921.85" y2="377.3"/>
					<line class="st0" x1="914.05" y1="356.82" x2="914.05" y2="382.39"/>
					<line class="st0" x1="905.97" y1="356.82" x2="905.97" y2="385.77"/>
					<line class="st0" x1="895.72" y1="356.82" x2="895.72" y2="387.9"/>
				</g>
				<g>
					<path class="st0" d="M853.36,356.71c0,0,12.68,27.76,42.39,31.08"/>
					<line class="st0" x1="857.41" y1="356.71" x2="857.41" y2="363.79"/>
					<line class="st0" x1="863.26" y1="356.71" x2="863.26" y2="370.9"/>
					<line class="st0" x1="869.94" y1="356.71" x2="869.94" y2="377.18"/>
					<line class="st0" x1="877.65" y1="356.71" x2="877.65" y2="382.27"/>
					<line class="st0" x1="885.63" y1="356.71" x2="885.63" y2="385.66"/>
				</g>
			</g>
		</g>
	</g>
</g>
<path class="st4" d="M861.85,185.45L861.85,185.45c-11.37-5.81-15.93-19.87-10.11-31.25l25.21-49.34
	c5.81-11.37,19.87-15.93,31.25-10.11v0c11.37,5.81,15.93,19.87,10.11,31.25l-25.21,49.34C887.28,186.71,873.22,191.27,861.85,185.45
	z"/>
<line class="st4" x1="863.75" y1="130.7" x2="905.3" y2="151.46"/>
<path class="st4" d="M242.16,414.5L242.16,414.5c-10.35,7.48-24.94,5.14-32.43-5.21l-32.46-44.89c-7.48-10.35-5.14-24.94,5.21-32.43
	l0,0c10.35-7.48,24.94-5.14,32.43,5.21l32.46,44.89C254.86,392.42,252.51,407.02,242.16,414.5z"/>
<line class="st4" x1="194.27" y1="387.9" x2="231.66" y2="360.34"/>
<path class="st4" d="M235.93,137.45L235.93,137.45c-6.26,4.53-15.09,3.11-19.62-3.15l-19.65-27.17c-4.53-6.26-3.11-15.09,3.15-19.62
	l0,0c6.26-4.53,15.09-3.11,19.62,3.15l19.65,27.17C243.62,124.09,242.2,132.92,235.93,137.45z"/>
<line class="st4" x1="206.95" y1="121.36" x2="229.58" y2="104.68"/>
<path class="st5" d="M925.6,315.06c-7.69-1.89-15.52,1.8-18.89,8.98c-0.51,1.1-1.06,1.54-2.33,1.54
	c-10.13-0.06-20.25-0.04-30.38-0.04h-1.77c-1.45-21.46-9.09-40.29-22.53-56.25c1.88-2.06,3.54-4.1,5.41-5.92
	c14.82-14.37,29.7-28.68,44.51-43.05c1-0.97,1.77-1.31,3.12-0.7c2.6,1.17,5.41,1.29,8.2,0.87c9.41-1.43,15.7-10.48,13.75-19.67
	c-1.98-9.35-11.3-15.06-20.57-12.58c-9.06,2.41-14.3,12.17-11.25,21.17c0.46,1.34,0.21,2.04-0.74,2.95
	c-12.8,12.3-25.56,24.63-38.33,36.96c-4,3.86-7.99,7.71-11.93,11.5c-4.44-3.43-8.78-6.78-13.23-10.22c0.18-0.35,0.41-0.85,0.68-1.32
	c4.13-7.37,8.28-14.73,12.38-22.12c0.55-1,1.11-1.35,2.32-1.28c10.92,0.6,18.97-8.02,17.68-18.83c-0.96-8.06-8.45-14.36-16.8-14.13
	c-8.33,0.23-15.42,6.96-15.97,15.07c-0.32,4.68,1.02,8.78,4,12.37c-4.7,8.34-9.36,16.6-14.04,24.89
	c-17.45-8.37-35.64-11.2-54.61-8.81c-0.15-0.4-0.25-0.6-0.29-0.82c-1.93-9.81-3.82-19.64-5.8-29.44c-0.26-1.29,0.3-1.73,1.25-2.29
	c7.83-4.64,11.84-13.41,10.42-22.66c-1.29-8.37-8.02-15.6-16.45-17.63c-1.28-0.31-2.59-0.51-3.89-0.76h-2.67
	c-0.37,0.1-0.74,0.24-1.11,0.28c-8.94,1-16.42,7.33-18.82,15.95c-2.4,8.59,0.64,17.79,7.7,23.29c3.66,2.85,7.82,4.36,12.57,4.67
	c2.06,10.53,4.1,21.02,6.16,31.56c-16.34,4.31-30.37,12.22-42.49,23.77c-3.81-3.51-7.54-7.01-11.34-10.42
	c-0.92-0.83-1.24-1.58-1.02-2.86c1.47-8.58-6.53-15.99-14.99-13.96c-6.72,1.62-10.89,8.31-9.27,14.92
	c1.66,6.78,8.26,10.79,15.12,9.21c0.62-0.14,1.57-0.21,1.96,0.14c4.06,3.63,8.04,7.34,12.1,11.09
	c-9.22,11.25-15.5,23.88-19.02,37.93c-3.07-0.57-5.95-1.18-8.85-1.61c-1.25-0.19-1.83-0.59-2.2-1.92
	c-1.82-6.6-6.18-10.8-12.89-12.05c-6.85-1.28-12.61,1.08-16.58,6.83c-3.92,5.68-4.12,11.81-0.63,17.78
	c6.03,10.33,20.65,10.86,27.67,1.14c0.38-0.52,1.21-1.15,1.73-1.08c3.23,0.47,6.43,1.12,9.75,1.74c-2.3,20.23,1.19,39.28,10.79,57.2
	c-0.35,0.25-0.6,0.46-0.88,0.64c-14.36,8.91-28.73,17.81-43.06,26.76c-0.96,0.59-1.44,0.25-2.14-0.32
	c-4.92-4.04-10.54-5.81-16.91-5.01c-11.1,1.39-19.29,10.76-19.24,22.02c0.05,11.11,8.58,20.56,19.62,21.73
	c11.03,1.18,21.28-6.08,23.83-16.82c0.94-3.93,0.73-7.81-0.37-11.69c15.06-9.34,30.01-18.61,45.02-27.92
	c11.12,15.61,25.47,26.89,43.15,34c-3.76,11.5-7.45,22.85-11.22,34.17c-0.15,0.46-1,0.92-1.57,0.98
	c-8.4,0.92-14.95,8.18-14.87,16.57c0.07,7.64,5.24,14.11,12.74,15.97c7.21,1.78,14.82-1.65,18.37-8.27
	c3.57-6.68,2.19-14.83-3.48-19.96c-0.77-0.7-0.97-1.25-0.64-2.25c3.59-10.86,7.13-21.74,10.69-32.62c0.13-0.39,0.34-0.77,0.53-1.18
	c11.58,3.07,23.22,3.77,35.12,2.55c0.2,0.96,0.31,1.83,0.57,2.66c0.46,1.51,0.14,2.57-1.09,3.75c-3.59,3.43-4.53,8.86-2.61,13.41
	c1.93,4.58,6.45,7.59,11.41,7.59c5.8,0.01,10.99-4.18,12.13-9.79c1.21-5.93-1.79-11.68-7.31-14.06c-0.48-0.21-1.19-0.47-1.29-0.84
	c-0.39-1.48-0.58-3.01-0.86-4.59c16.11-3.91,30.17-11.32,42.37-22.3c0.45,0.41,0.82,0.74,1.18,1.09c7.96,7.78,15.9,15.57,23.9,23.32
	c0.92,0.88,0.99,1.48,0.46,2.65c-3.65,8.08-3.04,15.9,2.39,22.95c5.34,6.93,12.66,9.79,21.25,8.23c9.14-1.66,15.22-7.25,17.47-16.31
	c2.22-8.96-0.39-16.75-7.63-22.5c-7.29-5.79-15.42-6.36-23.8-2.31c-1.05,0.51-1.58,0.45-2.39-0.35
	c-7.99-7.9-16.03-15.76-24.05-23.63c-0.34-0.33-0.64-0.71-0.98-1.08c0.5-0.6,0.93-1.12,1.35-1.63
	c12.87-15.68,20.18-33.61,21.7-53.85c0.1-1.35,0.59-1.63,1.83-1.63c10.18,0.04,20.36,0.04,30.55,0c1.16-0.01,1.73,0.33,2.23,1.42
	c3.16,6.85,10.35,10.65,17.66,9.43c7.7-1.28,13.55-7.86,13.83-15.56C938.43,323.88,933.24,316.94,925.6,315.06z"/>
<path class="st5" d="M132.69,102.38c-0.48,1.97,0.46,3.98,2.3,4.84c0.28,0.13,0.4,0.27,0.39,0.6c-0.02,2.59-0.01,5.19-0.01,7.78
	v0.45c-5.5,0.37-10.32,2.33-14.41,5.77c-0.53-0.48-1.05-0.91-1.52-1.39c-3.68-3.8-7.35-7.61-11.03-11.4
	c-0.25-0.26-0.33-0.45-0.18-0.8c0.3-0.67,0.33-1.39,0.22-2.1c-0.37-2.41-2.69-4.02-5.04-3.52c-2.4,0.51-3.86,2.9-3.22,5.27
	c0.62,2.32,3.12,3.66,5.42,2.88c0.34-0.12,0.52-0.05,0.76,0.19c3.15,3.28,6.31,6.55,9.47,9.82c0.99,1.02,1.98,2.05,2.95,3.06
	c-0.88,1.14-1.74,2.25-2.62,3.39c-0.09-0.05-0.22-0.11-0.34-0.17c-1.89-1.06-3.77-2.12-5.67-3.17c-0.26-0.14-0.35-0.29-0.33-0.6
	c0.15-2.8-2.05-4.86-4.82-4.53c-2.07,0.25-3.68,2.17-3.62,4.3c0.06,2.13,1.78,3.95,3.86,4.09c1.2,0.08,2.25-0.26,3.17-1.03
	c2.14,1.2,4.25,2.4,6.38,3.6c-2.14,4.47-2.87,9.13-2.26,13.99c-0.1,0.04-0.15,0.07-0.21,0.08c-2.51,0.49-5.03,0.98-7.54,1.49
	c-0.33,0.07-0.44-0.08-0.59-0.32c-1.19-2.01-3.43-3.03-5.81-2.67c-2.14,0.33-4,2.05-4.52,4.22c-0.08,0.33-0.13,0.66-0.2,1v0.68
	c0.02,0.1,0.06,0.19,0.07,0.28c0.26,2.29,1.88,4.21,4.09,4.82c2.2,0.61,4.56-0.16,5.97-1.97c0.73-0.94,1.12-2,1.2-3.22
	c2.7-0.53,5.39-1.05,8.08-1.58c1.1,4.19,3.13,7.78,6.09,10.89c-0.9,0.98-1.79,1.93-2.67,2.9c-0.21,0.24-0.41,0.32-0.73,0.26
	c-2.2-0.38-4.1,1.67-3.58,3.84c0.41,1.72,2.13,2.79,3.82,2.38c1.74-0.42,2.76-2.12,2.36-3.87c-0.04-0.16-0.05-0.4,0.04-0.5
	c0.93-1.04,1.88-2.06,2.84-3.1c2.88,2.36,6.12,3.97,9.72,4.87c-0.15,0.79-0.3,1.52-0.41,2.27c-0.05,0.32-0.15,0.47-0.49,0.56
	c-1.69,0.47-2.77,1.58-3.09,3.3c-0.33,1.76,0.28,3.23,1.75,4.25c1.45,1.01,3.03,1.05,4.56,0.16c2.65-1.55,2.78-5.29,0.29-7.09
	c-0.13-0.1-0.3-0.31-0.28-0.44c0.12-0.83,0.29-1.65,0.45-2.5c5.18,0.59,10.06-0.3,14.66-2.76c0.07,0.09,0.12,0.15,0.16,0.22
	c2.28,3.68,4.56,7.36,6.86,11.03c0.15,0.24,0.07,0.37-0.08,0.55c-1.04,1.26-1.49,2.7-1.28,4.33c0.36,2.84,2.76,4.94,5.64,4.93
	c2.85-0.01,5.27-2.2,5.57-5.03c0.3-2.83-1.56-5.45-4.31-6.11c-1.01-0.24-2-0.19-2.99,0.1c-2.39-3.86-4.77-7.69-7.15-11.53
	c4-2.85,6.89-6.53,8.71-11.06c2.95,0.96,5.85,1.91,8.76,2.87c0.12,0.04,0.24,0.26,0.25,0.4c0.23,2.15,2.1,3.83,4.24,3.81
	c1.96-0.02,3.62-1.34,4.09-3.26c0.46-1.85-0.42-3.8-2.12-4.71c-1.71-0.92-3.8-0.56-5.11,0.89c-0.18,0.2-0.32,0.25-0.58,0.16
	c-2.78-0.92-5.57-1.83-8.36-2.74c-0.1-0.03-0.2-0.09-0.3-0.14c0.79-2.97,0.97-5.95,0.65-9c0.24-0.05,0.47-0.08,0.68-0.15
	c0.39-0.12,0.66-0.04,0.96,0.28c0.88,0.92,2.27,1.16,3.44,0.67c1.17-0.49,1.94-1.65,1.95-2.92c0-1.49-1.07-2.82-2.51-3.11
	c-1.52-0.31-2.99,0.46-3.6,1.87c-0.05,0.12-0.12,0.31-0.22,0.33c-0.38,0.1-0.77,0.15-1.18,0.22c-1-4.13-2.9-7.73-5.71-10.86
	c0.11-0.11,0.19-0.21,0.28-0.3c1.99-2.04,3.99-4.07,5.97-6.12c0.23-0.23,0.38-0.25,0.68-0.12c2.07,0.94,4.07,0.78,5.88-0.61
	c1.77-1.37,2.51-3.24,2.11-5.45c-0.43-2.34-1.86-3.9-4.18-4.47c-2.3-0.57-4.29,0.1-5.77,1.95c-1.48,1.87-1.63,3.95-0.59,6.1
	c0.13,0.27,0.12,0.41-0.09,0.61c-2.03,2.05-4.04,4.11-6.05,6.16c-0.09,0.09-0.18,0.16-0.28,0.25c-0.15-0.13-0.29-0.24-0.42-0.35
	c-4.02-3.3-8.61-5.17-13.8-5.56c-0.35-0.03-0.42-0.15-0.42-0.47c0.01-2.61,0.01-5.22,0-7.83c0-0.3,0.08-0.44,0.36-0.57
	c1.75-0.81,2.73-2.65,2.42-4.52c-0.33-1.97-2.01-3.47-3.99-3.54C134.95,99.09,133.17,100.42,132.69,102.38z"/>
<g>
	<path class="st0" d="M0,373.24c0,0,292.86,65.99,436.69-55.03S711.48,44.68,1024,91.54"/>
	<path class="st0" d="M0,382.28c0,0,297.18,72.84,449.61-65.16S770.33,91.32,1024,135.78"/>
	<path class="st0" d="M0,391.33c0,0,301.51,79.7,462.54-75.3s366.64-178.07,561.46-136"/>
	<path class="st0" d="M0,400.37c0,0,305.83,86.55,475.46-85.43S888.02,184.6,1024,224.27"/>
	<path class="st0" d="M0,409.42c0,0,310.16,93.4,488.38-95.57s458.49-82.6,535.62-45.33"/>
	<path class="st0" d="M0,418.46c0,0,314.48,100.26,501.3-105.71s504.41-34.87,522.7,0"/>
</g>
<circle class="st4" cx="124.1" cy="352.84" r="20.19"/>
<circle class="st4" cx="922.72" cy="280.16" r="11.75"/>
</svg>
