<?xml version="1.0" encoding="utf-8"?>
<!-- Generator: Adobe Illustrator 24.2.1, SVG Export Plug-In . SVG Version: 6.00 Build 0)  -->
<svg version="1.1" id="Layer_1" xmlns="http://www.w3.org/2000/svg" xmlns:xlink="http://www.w3.org/1999/xlink" x="0px" y="0px"
	 viewBox="0 0 964 745" style="enable-background:new 0 0 964 745;" xml:space="preserve">
<style type="text/css">
	.st0{fill:#772FDD;}
	.st1{fill:#A267E5;}
	.st2{fill:#4B1499;}
	.st3{fill:#B3B3B3;}
	.st4{fill:#E6E6E6;}
	.st5{fill:#808080;}
	.st6{fill:#F7F7F7;}
</style>
<g>
	<g>
		<g>
			<g>
				<polygon class="st0" points="651.9,123.2 598.6,201 523.5,201 576.7,123.2 				"/>
			</g>
		</g>
		<g>
			<g>
				<polygon class="st1" points="651.9,123.2 706.1,201 652.1,279.1 598.6,201 				"/>
			</g>
		</g>
		<g>
			<polygon class="st2" points="598.6,201 652.1,279.1 577.7,278.8 523.5,201 			"/>
		</g>
	</g>
	<g>
		<g>
			<polygon class="st3" points="395,278.8 341.1,356.9 265.9,356.9 320.1,278.8 			"/>
		</g>
		<g>
			<polygon class="st4" points="395,278.8 448.5,356.9 394.3,434.9 341.1,356.9 			"/>
		</g>
		<g>
			<polygon class="st5" points="341.1,356.9 394.3,434.9 319.4,434.9 265.9,356.9 			"/>
		</g>
	</g>
	<g>
		<g>
			<polygon class="st0" points="523.5,356.9 469.3,434.9 394.3,434.9 448.5,356.9 			"/>
		</g>
		<g>
			<polygon class="st1" points="523.5,356.9 577.2,434.7 522.7,513 469.3,434.9 			"/>
		</g>
		<g>
			<polygon class="st2" points="469.3,434.9 522.7,513 447.6,513 394.3,434.9 			"/>
		</g>
	</g>
	<g>
		<g>
			<polygon class="st0" points="651.9,279.1 598.6,356.9 523.5,356.9 577.7,278.8 			"/>
		</g>
		<g>
			<polygon class="st1" points="651.9,279.1 706.1,356.9 651.9,434.7 598.6,356.9 			"/>
		</g>
		<g>
			<polygon class="st2" points="598.6,356.9 651.9,434.7 577,434.7 523.5,356.9 			"/>
		</g>
	</g>
	<g>
		<g>
			<polygon class="st3" points="395.3,122.9 342,200.8 266.9,200.8 320.4,122.9 			"/>
		</g>
		<g>
			<polygon class="st4" points="395,122.9 449.3,200.8 395,278.8 341.8,200.8 			"/>
		</g>
		<g>
			<polygon class="st5" points="341.8,200.8 395,278.8 320.1,278.8 266.6,200.8 			"/>
		</g>
	</g>
	<g>
		<g>
			<g>
				<polygon class="st3" points="523.5,201 470,278.8 395,278.8 448.5,201 				"/>
			</g>
		</g>
		<g>
			<g>
				<polygon class="st4" points="523.5,201 577.7,278.8 523.5,356.9 470,278.8 				"/>
			</g>
		</g>
		<g>
			<polygon class="st5" points="470,278.8 523.5,356.9 448.5,356.9 395,278.8 			"/>
		</g>
	</g>
	<g>
		<g>
			<g>
				<polygon class="st0" points="523.9,46.3 470.5,124.1 395.3,122.9 448.8,46.3 				"/>
			</g>
		</g>
		<g>
			<g>
				<polygon class="st1" points="523.9,46.3 577.4,122.9 523.5,201 470,122.9 				"/>
			</g>
		</g>
		<g>
			<polygon class="st2" points="470.2,122.9 523.5,201 448.5,201 395.3,122.9 			"/>
		</g>
	</g>
</g>
<g>
	<path class="st6" d="M125.7,618.6V565c0-1-0.5-1.6-1.5-1.6h-1.1c-0.8,0-1.4,0.4-1.8,1.3l-19.5,51.6c-0.3,0.9-0.8,1.5-1.4,1.8
		c-0.6,0.3-1.4,0.4-2.4,0.4H74.8c-1.1,0-1.9-0.1-2.5-0.4c-0.6-0.3-1-0.9-1.3-1.8l-19.4-51.6c-0.3-0.8-0.9-1.3-1.9-1.3h-1
		c-1,0-1.6,0.5-1.6,1.6v53.6H28.3v-68.4c0-2,0.9-2.9,2.7-2.9h32.2c2.1,0,3.5,0.9,4.1,2.6l17.5,50.9c0.1,0.4,0.4,0.6,1,0.6h1.8
		c0.4,0,0.6-0.2,0.8-0.6l17.6-50.9c0.3-0.8,0.8-1.5,1.4-2s1.5-0.7,2.6-0.7h31.8c1.8,0,2.7,1,2.7,2.9v68.4H125.7z"/>
	<path class="st6" d="M199.8,612.2h0.7v-47.4h17.8v54.8c0,3.1-0.4,6-1.1,8.6c-0.7,2.6-2,4.8-3.7,6.6c-1.7,1.8-4,3.2-6.8,4.3
		c-2.8,1-6.3,1.5-10.4,1.5h-40.8v-15h38.1c2.5,0,4.3-0.6,5.3-1.7c1-1.1,1.5-3,1.5-5.4v-4.3h-25.4c-8,0-13.7-1.6-17-4.8
		c-3.3-3.2-5-8.1-5-14.7v-29.8h17.8v27.4c0,2.9,0.6,4.9,1.7,6c1.1,1.1,3.1,1.6,5.9,1.6H195L199.8,612.2z"/>
	<path class="st1" d="M227.5,550.2c0-2,0.9-2.9,2.7-2.9h53.5c5.3,0,9.8,0.7,13.5,2c3.7,1.3,6.7,3.2,9,5.7c2.3,2.4,3.9,5.4,5,8.9
		c1,3.5,1.6,7.4,1.6,11.7v14.7c0,4.3-0.5,8.2-1.6,11.7c-1,3.5-2.7,6.5-5,8.9c-2.3,2.4-5.3,4.3-9,5.7c-3.7,1.3-8.2,2-13.5,2h-28.8
		l-6.5-16.6h-0.8v16.6h-20.2V550.2z M247.7,600.1h34.2c3.9,0,6.6-0.8,8.2-2.5c1.6-1.7,2.4-4.7,2.4-9v-11.9c0-4.4-0.8-7.5-2.4-9.1
		c-1.6-1.6-4.4-2.4-8.2-2.4h-32.7c-0.5,0-0.8,0.1-1.1,0.4c-0.3,0.3-0.4,0.6-0.4,1V600.1z"/>
	<path class="st1" d="M320.9,556.4v-14.2h17.7v14.2H320.9z M320.9,618.6v-53.8h17.7v53.8H320.9z"/>
	<path class="st1" d="M346.9,603.5h44c1,0,1.8-0.2,2.2-0.6c0.4-0.4,0.6-1.1,0.6-2.1v-1.2c0-0.7-0.1-1.3-0.4-1.6
		c-0.3-0.4-0.8-0.6-1.6-0.6l-33.4-2.8c-4.1-0.3-7.1-1.6-9.1-3.8c-2-2.2-2.9-5.2-2.9-8.9v-4.3c0-3.9,1.1-7,3.2-9.3
		c2.2-2.3,5.7-3.4,10.6-3.4h48.5c1.6,0,2.4,0.8,2.4,2.4v12l-15.3,5.7H395v-6.2c0-0.5-0.2-0.8-0.7-0.8h-28c-1,0-1.7,0.2-2.1,0.6
		c-0.4,0.4-0.6,1-0.6,2v1.5c0,0.9,0.1,1.5,0.4,1.8c0.3,0.3,0.8,0.5,1.6,0.6l34.2,3.3c2.3,0.2,4.2,0.6,5.7,1.3
		c1.5,0.7,2.7,1.5,3.6,2.6c0.9,1.1,1.6,2.4,1.9,4c0.4,1.6,0.5,3.4,0.5,5.5v4c0,4.3-1.1,7.6-3.4,10c-2.3,2.4-6.3,3.5-12,3.5h-49.4
		V603.5z"/>
	<path class="st1" d="M437.9,587.9h-0.7v8.3c0,3.1,0.5,5.2,1.6,6.3c1,1.1,3,1.7,5.9,1.7h38.3v14.3h-41.6c-4,0-7.4-0.5-10.1-1.5
		c-2.8-1-5-2.4-6.8-4.3c-1.8-1.9-3-4.1-3.8-6.7c-0.8-2.6-1.2-5.5-1.2-8.8v-11.1c0-3.3,0.4-6.2,1.2-8.8c0.8-2.6,2.1-4.8,3.8-6.7
		c1.8-1.9,4-3.3,6.8-4.3c2.8-1,6.2-1.5,10.1-1.5h31c4.1,0,7,1.1,8.8,3.2c1.8,2.1,2.6,5.4,2.6,9.9v5.2c0,4-0.9,7.2-2.6,9.5
		c-1.8,2.4-4.7,3.5-8.8,3.5h-31.4L437.9,587.9z M437.2,585.3h27c2,0,3-1,3-3.1v-2c0-1.1-0.2-1.9-0.7-2.4c-0.5-0.5-1.3-0.7-2.3-0.7
		h-19.6c-2.7,0-4.7,0.6-5.8,1.7c-1.1,1.1-1.7,3.2-1.7,6.1V585.3z"/>
	<path class="st1" d="M491.1,578.1v-13.3h49.9c3.5,0,6.1,1,7.8,2.9c1.7,2,2.5,4.8,2.5,8.5v40c0,1.6-0.8,2.4-2.3,2.4h-46.9
		c-2,0-3.7-0.2-5.2-0.7c-1.5-0.5-2.8-1.3-3.9-2.5c-1.1-1.2-1.9-2.7-2.5-4.7c-0.6-1.9-0.8-4.3-0.8-7.2v-4c0-5.1,1.1-8.7,3.3-10.9
		c2.2-2.2,5.2-3.3,9.2-3.3h27.3l3.3,7.9h0.7v-10.9c0-1.5-0.3-2.6-0.9-3.2c-0.6-0.7-1.6-1-2.8-1H491.1z M532.5,605.3
		c0.7,0,1.1-0.4,1.1-1.2v-8.2h-23.3c-1.2,0-2,0.3-2.5,0.9c-0.5,0.6-0.7,1.5-0.7,2.6v2.4c0,1.1,0.2,2,0.7,2.6
		c0.5,0.6,1.3,0.9,2.5,0.9H532.5z"/>
	<path class="st1" d="M559.1,603.5h44c1,0,1.8-0.2,2.2-0.6c0.4-0.4,0.6-1.1,0.6-2.1v-1.2c0-0.7-0.1-1.3-0.4-1.6
		c-0.3-0.4-0.8-0.6-1.6-0.6l-33.4-2.8c-4.1-0.3-7.1-1.6-9.1-3.8c-2-2.2-2.9-5.2-2.9-8.9v-4.3c0-3.9,1.1-7,3.2-9.3
		c2.2-2.3,5.7-3.4,10.6-3.4h48.5c1.6,0,2.4,0.8,2.4,2.4v12l-15.3,5.7h-0.7v-6.2c0-0.5-0.2-0.8-0.7-0.8h-28c-1,0-1.7,0.2-2.1,0.6
		c-0.4,0.4-0.6,1-0.6,2v1.5c0,0.9,0.1,1.5,0.4,1.8c0.3,0.3,0.8,0.5,1.6,0.6l34.2,3.3c2.3,0.2,4.2,0.6,5.7,1.3
		c1.5,0.7,2.7,1.5,3.6,2.6c0.9,1.1,1.6,2.4,1.9,4c0.4,1.6,0.5,3.4,0.5,5.5v4c0,4.3-1.1,7.6-3.4,10s-6.3,3.5-12,3.5h-49.4V603.5z"/>
	<path class="st1" d="M650.1,587.9h-0.7v8.3c0,3.1,0.5,5.2,1.6,6.3s3,1.7,5.9,1.7h38.3v14.3h-41.6c-4,0-7.4-0.5-10.1-1.5
		c-2.8-1-5-2.4-6.8-4.3c-1.8-1.9-3-4.1-3.8-6.7c-0.8-2.6-1.2-5.5-1.2-8.8v-11.1c0-3.3,0.4-6.2,1.2-8.8c0.8-2.6,2.1-4.8,3.8-6.7
		c1.8-1.9,4-3.3,6.8-4.3c2.8-1,6.2-1.5,10.1-1.5h31c4.1,0,7,1.1,8.8,3.2c1.8,2.1,2.6,5.4,2.6,9.9v5.2c0,4-0.9,7.2-2.6,9.5
		c-1.8,2.4-4.7,3.5-8.8,3.5h-31.4L650.1,587.9z M649.4,585.3h27c2,0,3-1,3-3.1v-2c0-1.1-0.2-1.9-0.7-2.4c-0.5-0.5-1.3-0.7-2.3-0.7
		h-19.6c-2.7,0-4.7,0.6-5.8,1.7c-1.1,1.1-1.7,3.2-1.7,6.1V585.3z"/>
	<path class="st6" d="M703.6,618.6v-16.3h17.7v16.3H703.6z"/>
	<path class="st6" d="M730.4,556.4v-14.2h17.7v14.2H730.4z M730.4,618.6v-53.8h17.7v53.8H730.4z"/>
	<path class="st6" d="M757.2,564.8h43.9c4,0,7.4,0.5,10.2,1.5c2.8,1,5.1,2.4,6.8,4.3c1.7,1.9,3,4.1,3.8,6.7c0.8,2.6,1.2,5.5,1.2,8.8
		v32.4h-17.7v-31.2c0-3.1-0.6-5.3-1.8-6.6c-1.2-1.2-3.1-1.9-5.8-1.9h-19.2l-2.9-7.8H775v47.5h-17.7V564.8z"/>
	<path class="st6" d="M870,578.3h-15.7v40.3h-17.7v-40.3h-7.2l-4.7-12.7v-0.8h11.9v-6.5c0-3.2,0.3-5.8,1-7.9
		c0.6-2.1,1.7-3.7,3.3-4.9c1.5-1.2,3.6-2.1,6.1-2.6c2.5-0.5,5.6-0.7,9.4-0.7h7.9l4.8,12v0.9h-10.4c-1.7,0-2.8,0.4-3.4,1.1
		c-0.6,0.8-0.9,2-0.9,3.8v4.8H870V578.3z"/>
	<path class="st6" d="M943.7,597.2c0,3.3-0.4,6.2-1.2,8.8c-0.8,2.6-2.1,4.8-3.8,6.7c-1.8,1.9-4,3.3-6.9,4.3c-2.8,1-6.2,1.5-10.2,1.5
		h-25.9c-4,0-7.4-0.5-10.1-1.5c-2.8-1-5-2.4-6.8-4.3c-1.8-1.9-3-4.1-3.8-6.7c-0.8-2.6-1.2-5.5-1.2-8.8v-11.1c0-3.2,0.4-6.1,1.2-8.8
		c0.8-2.6,2.1-4.9,3.8-6.8c1.8-1.9,4-3.3,6.8-4.3c2.8-1,6.2-1.5,10.1-1.5h25.9c4,0,7.4,0.5,10.2,1.5c2.8,1,5.1,2.4,6.9,4.3
		c1.8,1.9,3,4.1,3.8,6.8c0.8,2.6,1.2,5.6,1.2,8.8V597.2z M918.4,602.8c2.8,0,4.8-0.6,5.9-1.7c1.1-1.1,1.7-3.2,1.7-6.3v-7.5
		c0-3.3-0.6-5.5-1.7-6.7c-1.1-1.2-3.1-1.8-5.8-1.8h-19.3c-2.8,0-4.8,0.6-5.8,1.8c-1.1,1.2-1.6,3.4-1.6,6.6v7.5
		c0,3.1,0.5,5.2,1.6,6.3c1.1,1.1,3,1.7,5.8,1.7H918.4z"/>
</g>
</svg>
