<?xml version="1.0" encoding="utf-8"?>
<!-- Generator: Adobe Illustrator 22.1.0, SVG Export Plug-In . SVG Version: 6.00 Build 0)  -->
<svg version="1.1" id="Layer_1" xmlns="http://www.w3.org/2000/svg" xmlns:xlink="http://www.w3.org/1999/xlink" x="0px" y="0px"
	 viewBox="0 0 200 200" style="enable-background:new 0 0 200 200;" xml:space="preserve">
<style type="text/css">
	.st0{fill:url(#SVGID_1_);}
	.st1{fill:#B3B3B3;}
	.st2{fill:url(#SVGID_2_);}
	.st3{fill:#E6E6E6;}
	.st4{fill:#808080;}
	.st5{fill:url(#SVGID_3_);}
	.st6{fill:url(#SVGID_4_);}
	.st7{fill:url(#SVGID_5_);}
	.st8{fill:none;stroke:url(#SVGID_6_);stroke-linejoin:round;stroke-miterlimit:10;}
	.st9{fill:#85D958;}
	.st10{fill:url(#SVGID_7_);}
	.st11{fill:none;stroke:url(#SVGID_8_);stroke-linejoin:round;stroke-miterlimit:10;}
	.st12{fill:url(#SVGID_9_);stroke:url(#SVGID_10_);stroke-linejoin:round;stroke-miterlimit:10;}
	.st13{fill:url(#SVGID_11_);}
	.st14{fill:url(#SVGID_12_);}
	.st15{fill:url(#SVGID_13_);}
	.st16{fill:none;stroke:url(#SVGID_14_);stroke-linejoin:round;stroke-miterlimit:10;}
	.st17{fill:url(#SVGID_15_);}
	.st18{fill:none;stroke:url(#SVGID_16_);stroke-linejoin:round;stroke-miterlimit:10;}
	.st19{fill:url(#SVGID_17_);stroke:url(#SVGID_18_);stroke-linejoin:round;stroke-miterlimit:10;}
	.st20{fill:url(#SVGID_19_);}
	.st21{fill:url(#SVGID_20_);}
	.st22{fill:url(#SVGID_21_);}
	.st23{fill:none;stroke:url(#SVGID_22_);stroke-linejoin:round;stroke-miterlimit:10;}
	.st24{fill:url(#SVGID_23_);}
	.st25{fill:url(#SVGID_24_);}
	.st26{fill:none;stroke:url(#SVGID_25_);stroke-linejoin:round;stroke-miterlimit:10;}
	.st27{fill:url(#SVGID_26_);stroke:url(#SVGID_27_);stroke-linejoin:round;stroke-miterlimit:10;}
	.st28{fill:url(#SVGID_28_);}
	.st29{fill:url(#SVGID_29_);}
</style>
<g>
	<g>
		<g>
			<linearGradient id="SVGID_1_" gradientUnits="userSpaceOnUse" x1="115.2789" y1="51.694" x2="168.6025" y2="51.694">
				<stop  offset="0" style="stop-color:#FD7400"/>
				<stop  offset="1" style="stop-color:#FF8E39"/>
			</linearGradient>
			<polygon class="st0" points="168.6,35.5 146.4,67.8 115.3,67.8 137.4,35.5 			"/>
		</g>
		<g>
			<polygon class="st1" points="168.6,35.5 146.4,67.8 115.3,67.8 137.4,35.5 			"/>
		</g>
	</g>
	<g>
		<g>
			<linearGradient id="SVGID_2_" gradientUnits="userSpaceOnUse" x1="146.4215" y1="67.8833" x2="191.0497" y2="67.8833">
				<stop  offset="0" style="stop-color:#FF8E39;stop-opacity:0"/>
				<stop  offset="0.1239" style="stop-color:#FF913E;stop-opacity:0.1239"/>
				<stop  offset="0.2664" style="stop-color:#FF994C;stop-opacity:0.2664"/>
				<stop  offset="0.4183" style="stop-color:#FFA663;stop-opacity:0.4183"/>
				<stop  offset="0.5766" style="stop-color:#FFB883;stop-opacity:0.5766"/>
				<stop  offset="0.7399" style="stop-color:#FFD0AD;stop-opacity:0.7399"/>
				<stop  offset="0.9051" style="stop-color:#FFEDDF;stop-opacity:0.9051"/>
				<stop  offset="1" style="stop-color:#FFFFFF"/>
			</linearGradient>
			<polygon class="st2" points="168.6,35.5 191,67.8 168.6,100.2 146.4,67.8 			"/>
		</g>
		<g>
			<polygon class="st3" points="168.6,35.5 191,67.8 168.6,100.2 146.4,67.8 			"/>
		</g>
	</g>
	<g>
		<polygon class="st4" points="146.4,67.8 168.6,100.2 137.4,100.2 115.3,67.8 		"/>
	</g>
</g>
<g>
	<g>
		<polygon class="st1" points="62.1,99.3 40,131.6 8.8,131.6 31,99.3 		"/>
	</g>
	<g>
		<polygon class="st3" points="62.1,99.3 84.6,131.6 62.1,164 40,131.6 		"/>
	</g>
	<g>
		<polygon class="st4" points="40,131.6 62.1,164 31,164 8.8,131.6 		"/>
	</g>
</g>
<g>
	<g>
		<g>
			<linearGradient id="SVGID_3_" gradientUnits="userSpaceOnUse" x1="61.9552" y1="148.2606" x2="115.2789" y2="148.2606">
				<stop  offset="0" style="stop-color:#67CF2E"/>
				<stop  offset="1" style="stop-color:#85D958"/>
			</linearGradient>
			<polygon class="st5" points="115.3,132.1 93.1,164.4 62,164.4 84.1,132.1 			"/>
		</g>
		<g>
			
				<linearGradient id="SVGID_4_" gradientUnits="userSpaceOnUse" x1="259.3738" y1="145.044" x2="312.6975" y2="145.044" gradientTransform="matrix(1 0 0 1 -197.4186 3.2167)">
				<stop  offset="0" style="stop-color:#67CF2E"/>
				<stop  offset="1" style="stop-color:#85D958"/>
			</linearGradient>
			<polygon class="st6" points="115.3,132.1 93.1,164.4 62,164.4 84.1,132.1 			"/>
		</g>
		<g>
			
				<linearGradient id="SVGID_5_" gradientUnits="userSpaceOnUse" x1="272.3796" y1="168.6969" x2="299.6917" y2="121.3911" gradientTransform="matrix(1 0 0 1 -197.4186 3.2167)">
				<stop  offset="0" style="stop-color:#B3E797;stop-opacity:0"/>
				<stop  offset="0.1" style="stop-color:#C6EDB2;stop-opacity:7.844370e-02"/>
				<stop  offset="0.2819" style="stop-color:#E5F7DB;stop-opacity:0.2211"/>
				<stop  offset="0.4248" style="stop-color:#F8FDF5;stop-opacity:0.3331"/>
				<stop  offset="0.51" style="stop-color:#FFFFFF;stop-opacity:0.4"/>
				<stop  offset="0.5152" style="stop-color:#FFFFFF;stop-opacity:0"/>
			</linearGradient>
			<polygon class="st7" points="115.3,132.1 93.1,164.4 62,164.4 84.1,132.1 			"/>
		</g>
		<g>
			
				<linearGradient id="SVGID_6_" gradientUnits="userSpaceOnUse" x1="259.3738" y1="145.044" x2="312.6975" y2="145.044" gradientTransform="matrix(1 0 0 1 -197.4186 3.2167)">
				<stop  offset="0" style="stop-color:#DFF5D4"/>
				<stop  offset="1" style="stop-color:#85D958"/>
			</linearGradient>
			<polygon class="st8" points="115.3,132.1 93.1,164.4 62,164.4 84.1,132.1 			"/>
		</g>
	</g>
	<g>
		<g>
			<polygon class="st9" points="115.3,132.1 137.7,164.4 115.3,196.8 93.1,164.4 			"/>
		</g>
		<g>
			<polygon class="st9" points="115.3,132.1 137.7,164.4 115.3,196.8 93.1,164.4 			"/>
		</g>
		<g>
			
				<linearGradient id="SVGID_7_" gradientUnits="userSpaceOnUse" x1="312.8306" y1="193.5667" x2="312.8306" y2="128.9" gradientTransform="matrix(1 0 0 1 -197.4186 3.2167)">
				<stop  offset="0" style="stop-color:#85D958;stop-opacity:0"/>
				<stop  offset="0.1362" style="stop-color:#88DA5D;stop-opacity:0.1362"/>
				<stop  offset="0.293" style="stop-color:#93DD6B;stop-opacity:0.293"/>
				<stop  offset="0.46" style="stop-color:#A4E382;stop-opacity:0.46"/>
				<stop  offset="0.6341" style="stop-color:#BBEAA2;stop-opacity:0.6341"/>
				<stop  offset="0.8137" style="stop-color:#D9F3CC;stop-opacity:0.8137"/>
				<stop  offset="0.9955" style="stop-color:#FEFFFE;stop-opacity:0.9955"/>
				<stop  offset="1" style="stop-color:#FFFFFF"/>
			</linearGradient>
			<polygon class="st10" points="115.3,132.1 137.7,164.4 115.3,196.8 93.1,164.4 			"/>
		</g>
		<g>
			
				<linearGradient id="SVGID_8_" gradientUnits="userSpaceOnUse" x1="290.5165" y1="161.2333" x2="335.1446" y2="161.2333" gradientTransform="matrix(1 0 0 1 -197.4186 3.2167)">
				<stop  offset="0" style="stop-color:#DFF5D4"/>
				<stop  offset="1" style="stop-color:#85D958"/>
			</linearGradient>
			<polygon class="st11" points="115.3,132.1 137.7,164.4 115.3,196.8 93.1,164.4 			"/>
		</g>
	</g>
	<g>
		<linearGradient id="SVGID_9_" gradientUnits="userSpaceOnUse" x1="61.9552" y1="180.594" x2="115.2789" y2="180.594">
			<stop  offset="0" style="stop-color:#67CF2E"/>
			<stop  offset="1" style="stop-color:#1A9A07"/>
		</linearGradient>
		<linearGradient id="SVGID_10_" gradientUnits="userSpaceOnUse" x1="61.4552" y1="180.594" x2="115.7789" y2="180.594">
			<stop  offset="0" style="stop-color:#DFF5D4"/>
			<stop  offset="1" style="stop-color:#85D958"/>
		</linearGradient>
		<polygon class="st12" points="93.1,164.4 115.3,196.8 84.1,196.8 62,164.4 		"/>
	</g>
</g>
<g>
	<g>
		<g>
			<linearGradient id="SVGID_11_" gradientUnits="userSpaceOnUse" x1="115.4119" y1="115.9273" x2="168.7356" y2="115.9273">
				<stop  offset="0" style="stop-color:#67CF2E"/>
				<stop  offset="1" style="stop-color:#85D958"/>
			</linearGradient>
			<polygon class="st13" points="168.7,99.8 146.6,132.1 115.4,132.1 137.6,99.8 			"/>
		</g>
		<g>
			
				<linearGradient id="SVGID_12_" gradientUnits="userSpaceOnUse" x1="312.8306" y1="112.7106" x2="366.1542" y2="112.7106" gradientTransform="matrix(1 0 0 1 -197.4186 3.2167)">
				<stop  offset="0" style="stop-color:#67CF2E"/>
				<stop  offset="1" style="stop-color:#85D958"/>
			</linearGradient>
			<polygon class="st14" points="168.7,99.8 146.6,132.1 115.4,132.1 137.6,99.8 			"/>
		</g>
		<g>
			
				<linearGradient id="SVGID_13_" gradientUnits="userSpaceOnUse" x1="325.8364" y1="136.3635" x2="353.1484" y2="89.0577" gradientTransform="matrix(1 0 0 1 -197.4186 3.2167)">
				<stop  offset="0" style="stop-color:#B3E797;stop-opacity:0"/>
				<stop  offset="0.1" style="stop-color:#C6EDB2;stop-opacity:7.844370e-02"/>
				<stop  offset="0.2819" style="stop-color:#E5F7DB;stop-opacity:0.2211"/>
				<stop  offset="0.4248" style="stop-color:#F8FDF5;stop-opacity:0.3331"/>
				<stop  offset="0.51" style="stop-color:#FFFFFF;stop-opacity:0.4"/>
				<stop  offset="0.5152" style="stop-color:#FFFFFF;stop-opacity:0"/>
			</linearGradient>
			<polygon class="st15" points="168.7,99.8 146.6,132.1 115.4,132.1 137.6,99.8 			"/>
		</g>
		<g>
			
				<linearGradient id="SVGID_14_" gradientUnits="userSpaceOnUse" x1="312.8306" y1="112.7106" x2="366.1542" y2="112.7106" gradientTransform="matrix(1 0 0 1 -197.4186 3.2167)">
				<stop  offset="0" style="stop-color:#DFF5D4"/>
				<stop  offset="1" style="stop-color:#85D958"/>
			</linearGradient>
			<polygon class="st16" points="168.7,99.8 146.6,132.1 115.4,132.1 137.6,99.8 			"/>
		</g>
	</g>
	<g>
		<g>
			<polygon class="st9" points="168.7,99.8 191.2,132.1 168.7,164.4 146.6,132.1 			"/>
		</g>
		<g>
			<polygon class="st9" points="168.7,99.8 191.2,132.1 168.7,164.4 146.6,132.1 			"/>
		</g>
		<g>
			
				<linearGradient id="SVGID_15_" gradientUnits="userSpaceOnUse" x1="366.2873" y1="161.2333" x2="366.2873" y2="96.5667" gradientTransform="matrix(1 0 0 1 -197.4186 3.2167)">
				<stop  offset="0" style="stop-color:#85D958;stop-opacity:0"/>
				<stop  offset="0.1362" style="stop-color:#88DA5D;stop-opacity:0.1362"/>
				<stop  offset="0.293" style="stop-color:#93DD6B;stop-opacity:0.293"/>
				<stop  offset="0.46" style="stop-color:#A4E382;stop-opacity:0.46"/>
				<stop  offset="0.6341" style="stop-color:#BBEAA2;stop-opacity:0.6341"/>
				<stop  offset="0.8137" style="stop-color:#D9F3CC;stop-opacity:0.8137"/>
				<stop  offset="0.9955" style="stop-color:#FEFFFE;stop-opacity:0.9955"/>
				<stop  offset="1" style="stop-color:#FFFFFF"/>
			</linearGradient>
			<polygon class="st17" points="168.7,99.8 191.2,132.1 168.7,164.4 146.6,132.1 			"/>
		</g>
		<g>
			
				<linearGradient id="SVGID_16_" gradientUnits="userSpaceOnUse" x1="343.9732" y1="128.9" x2="388.6014" y2="128.9" gradientTransform="matrix(1 0 0 1 -197.4186 3.2167)">
				<stop  offset="0" style="stop-color:#DFF5D4"/>
				<stop  offset="1" style="stop-color:#85D958"/>
			</linearGradient>
			<polygon class="st18" points="168.7,99.8 191.2,132.1 168.7,164.4 146.6,132.1 			"/>
		</g>
	</g>
	<g>
		<linearGradient id="SVGID_17_" gradientUnits="userSpaceOnUse" x1="115.4119" y1="148.2606" x2="168.7356" y2="148.2606">
			<stop  offset="0" style="stop-color:#67CF2E"/>
			<stop  offset="1" style="stop-color:#1A9A07"/>
		</linearGradient>
		<linearGradient id="SVGID_18_" gradientUnits="userSpaceOnUse" x1="114.9119" y1="148.2606" x2="169.2356" y2="148.2606">
			<stop  offset="0" style="stop-color:#DFF5D4"/>
			<stop  offset="1" style="stop-color:#85D958"/>
		</linearGradient>
		<polygon class="st19" points="146.6,132.1 168.7,164.4 137.6,164.4 115.4,132.1 		"/>
	</g>
</g>
<g>
	<g>
		<polygon class="st1" points="62.1,35 40,67.3 8.8,67.3 31,35 		"/>
	</g>
	<g>
		<polygon class="st3" points="62.1,35 84.6,67.3 62.1,99.7 40,67.3 		"/>
	</g>
	<g>
		<polygon class="st4" points="40,67.3 62.1,99.7 31,99.7 8.8,67.3 		"/>
	</g>
</g>
<g>
	<g>
		<g>
			<linearGradient id="SVGID_19_" gradientUnits="userSpaceOnUse" x1="62.4071" y1="84.0273" x2="115.7307" y2="84.0273">
				<stop  offset="0" style="stop-color:#FD7400"/>
				<stop  offset="1" style="stop-color:#FF8E39"/>
			</linearGradient>
			<polygon class="st20" points="115.7,67.9 93.5,100.2 62.4,100.2 84.6,67.9 			"/>
		</g>
		<g>
			
				<linearGradient id="SVGID_20_" gradientUnits="userSpaceOnUse" x1="259.8257" y1="80.8106" x2="313.1493" y2="80.8106" gradientTransform="matrix(1 0 0 1 -197.4186 3.2167)">
				<stop  offset="0" style="stop-color:#67CF2E"/>
				<stop  offset="1" style="stop-color:#85D958"/>
			</linearGradient>
			<polygon class="st21" points="115.7,67.9 93.5,100.2 62.4,100.2 84.6,67.9 			"/>
		</g>
		<g>
			
				<linearGradient id="SVGID_21_" gradientUnits="userSpaceOnUse" x1="272.8315" y1="104.4635" x2="300.1435" y2="57.1577" gradientTransform="matrix(1 0 0 1 -197.4186 3.2167)">
				<stop  offset="0" style="stop-color:#B3E797;stop-opacity:0"/>
				<stop  offset="0.1" style="stop-color:#C6EDB2;stop-opacity:7.844370e-02"/>
				<stop  offset="0.2819" style="stop-color:#E5F7DB;stop-opacity:0.2211"/>
				<stop  offset="0.4248" style="stop-color:#F8FDF5;stop-opacity:0.3331"/>
				<stop  offset="0.51" style="stop-color:#FFFFFF;stop-opacity:0.4"/>
				<stop  offset="0.5152" style="stop-color:#FFFFFF;stop-opacity:0"/>
			</linearGradient>
			<polygon class="st22" points="115.7,67.9 93.5,100.2 62.4,100.2 84.6,67.9 			"/>
		</g>
		<g>
			
				<linearGradient id="SVGID_22_" gradientUnits="userSpaceOnUse" x1="259.8257" y1="80.8106" x2="313.1493" y2="80.8106" gradientTransform="matrix(1 0 0 1 -197.4186 3.2167)">
				<stop  offset="0" style="stop-color:#DFF5D4"/>
				<stop  offset="1" style="stop-color:#85D958"/>
			</linearGradient>
			<polygon class="st23" points="115.7,67.9 93.5,100.2 62.4,100.2 84.6,67.9 			"/>
		</g>
	</g>
	<g>
		<g>
			<linearGradient id="SVGID_23_" gradientUnits="userSpaceOnUse" x1="93.5497" y1="100.2167" x2="138.1779" y2="100.2167">
				<stop  offset="0" style="stop-color:#FF8E39;stop-opacity:0"/>
				<stop  offset="0.1239" style="stop-color:#FF913E;stop-opacity:0.1239"/>
				<stop  offset="0.2664" style="stop-color:#FF994C;stop-opacity:0.2664"/>
				<stop  offset="0.4183" style="stop-color:#FFA663;stop-opacity:0.4183"/>
				<stop  offset="0.5766" style="stop-color:#FFB883;stop-opacity:0.5766"/>
				<stop  offset="0.7399" style="stop-color:#FFD0AD;stop-opacity:0.7399"/>
				<stop  offset="0.9051" style="stop-color:#FFEDDF;stop-opacity:0.9051"/>
				<stop  offset="1" style="stop-color:#FFFFFF"/>
			</linearGradient>
			<polygon class="st24" points="115.7,67.9 138.2,100.2 115.7,132.6 93.5,100.2 			"/>
		</g>
		<g>
			<polygon class="st9" points="115.7,67.9 138.2,100.2 115.7,132.6 93.5,100.2 			"/>
		</g>
		<g>
			
				<linearGradient id="SVGID_24_" gradientUnits="userSpaceOnUse" x1="313.2824" y1="129.3333" x2="313.2824" y2="64.6667" gradientTransform="matrix(1 0 0 1 -197.4186 3.2167)">
				<stop  offset="0" style="stop-color:#85D958;stop-opacity:0"/>
				<stop  offset="0.1362" style="stop-color:#88DA5D;stop-opacity:0.1362"/>
				<stop  offset="0.293" style="stop-color:#93DD6B;stop-opacity:0.293"/>
				<stop  offset="0.46" style="stop-color:#A4E382;stop-opacity:0.46"/>
				<stop  offset="0.6341" style="stop-color:#BBEAA2;stop-opacity:0.6341"/>
				<stop  offset="0.8137" style="stop-color:#D9F3CC;stop-opacity:0.8137"/>
				<stop  offset="0.9955" style="stop-color:#FEFFFE;stop-opacity:0.9955"/>
				<stop  offset="1" style="stop-color:#FFFFFF"/>
			</linearGradient>
			<polygon class="st25" points="115.7,67.9 138.2,100.2 115.7,132.6 93.5,100.2 			"/>
		</g>
		<g>
			
				<linearGradient id="SVGID_25_" gradientUnits="userSpaceOnUse" x1="290.9684" y1="97" x2="335.5965" y2="97" gradientTransform="matrix(1 0 0 1 -197.4186 3.2167)">
				<stop  offset="0" style="stop-color:#DFF5D4"/>
				<stop  offset="1" style="stop-color:#85D958"/>
			</linearGradient>
			<polygon class="st26" points="115.7,67.9 138.2,100.2 115.7,132.6 93.5,100.2 			"/>
		</g>
	</g>
	<g>
		<linearGradient id="SVGID_26_" gradientUnits="userSpaceOnUse" x1="62.4071" y1="116.3606" x2="115.7307" y2="116.3606">
			<stop  offset="0" style="stop-color:#67CF2E"/>
			<stop  offset="1" style="stop-color:#1A9A07"/>
		</linearGradient>
		<linearGradient id="SVGID_27_" gradientUnits="userSpaceOnUse" x1="61.9071" y1="116.3606" x2="116.2307" y2="116.3606">
			<stop  offset="0" style="stop-color:#DFF5D4"/>
			<stop  offset="1" style="stop-color:#85D958"/>
		</linearGradient>
		<polygon class="st27" points="93.5,100.2 115.7,132.6 84.6,132.6 62.4,100.2 		"/>
	</g>
</g>
<g>
	<g>
		<g>
			<linearGradient id="SVGID_28_" gradientUnits="userSpaceOnUse" x1="62.274" y1="19.3606" x2="115.5976" y2="19.3606">
				<stop  offset="0" style="stop-color:#FD7400"/>
				<stop  offset="1" style="stop-color:#FF8E39"/>
			</linearGradient>
			<polygon class="st28" points="115.6,3.2 93.4,35.5 62.3,35.5 84.4,3.2 			"/>
		</g>
		<g>
			<polygon class="st1" points="115.6,3.2 93.4,35.5 62.3,35.5 84.4,3.2 			"/>
		</g>
	</g>
	<g>
		<g>
			<linearGradient id="SVGID_29_" gradientUnits="userSpaceOnUse" x1="93.4166" y1="35.55" x2="138.0448" y2="35.55">
				<stop  offset="0" style="stop-color:#FF8E39;stop-opacity:0"/>
				<stop  offset="0.1239" style="stop-color:#FF913E;stop-opacity:0.1239"/>
				<stop  offset="0.2664" style="stop-color:#FF994C;stop-opacity:0.2664"/>
				<stop  offset="0.4183" style="stop-color:#FFA663;stop-opacity:0.4183"/>
				<stop  offset="0.5766" style="stop-color:#FFB883;stop-opacity:0.5766"/>
				<stop  offset="0.7399" style="stop-color:#FFD0AD;stop-opacity:0.7399"/>
				<stop  offset="0.9051" style="stop-color:#FFEDDF;stop-opacity:0.9051"/>
				<stop  offset="1" style="stop-color:#FFFFFF"/>
			</linearGradient>
			<polygon class="st29" points="115.6,3.2 138,35.5 115.6,67.9 93.4,35.5 			"/>
		</g>
		<g>
			<polygon class="st3" points="115.6,3.2 138,35.5 115.6,67.9 93.4,35.5 			"/>
		</g>
	</g>
	<g>
		<polygon class="st4" points="93.4,35.5 115.6,67.9 84.4,67.9 62.3,35.5 		"/>
	</g>
</g>
</svg>
