<?xml version="1.0" encoding="utf-8"?>
<!-- Generator: Adobe Illustrator 22.1.0, SVG Export Plug-In . SVG Version: 6.00 Build 0)  -->
<svg version="1.1" id="Layer_1" xmlns="http://www.w3.org/2000/svg" xmlns:xlink="http://www.w3.org/1999/xlink" x="0px" y="0px"
	 viewBox="0 0 279.7 29.3" style="enable-background:new 0 0 279.7 29.3;" xml:space="preserve">
<style type="text/css">
	.st0{fill:#F7F7F7;}
	.st1{fill:#85D958;}
</style>
<g>
	<path class="st0" d="M36.3,24.7h-7.6V13.2l-5.1,11.5h-5.9l-5.4-11.5v11.5H4.7V4.6h9.4l6.7,14.6l6.9-14.6h8.6V24.7z"/>
	<path class="st0" d="M51.9,18.3V9.2h6.5v19.5H40.5v-4h11.4v-2.3h-7.8l-3.7-3.1V9.2h6.5v9.1H51.9z"/>
	<path class="st1" d="M89.8,4.6v8.1l-11,12.1h-4.2l-13-12.1V4.6h9.8v9.2l5.1,5.1l5.4-5.6V4.6H89.8z"/>
	<path class="st1" d="M112.1,24.7H93V17l3.7-1.5h8.7v-1.9H93.7V9.2h14.7l3.7,3.1V24.7z M105.4,20v-2h-6.2v2H105.4z"/>
	<path class="st1" d="M128.3,13.5h-6.1v11.2H116V12.3l3.7-3.1h8.6V13.5z"/>
	<path class="st1" d="M137.1,7h-6.5V3.9h6.5V7z M137.1,24.7h-6.5V9.2h6.5V24.7z"/>
	<path class="st1" d="M160.3,24.7h-19.1V17l3.7-1.5h8.7v-1.9h-11.7V9.2h14.7l3.7,3.1V24.7z M153.6,20v-2h-6.2v2H153.6z"/>
	<path class="st1" d="M184.1,24.7h-6.2V13.5h-7.4v11.2h-6.2V12.3l3.7-3.1h12.4l3.7,3.1V24.7z"/>
	<path class="st1" d="M199.2,24.7h-11.2V12h-1.7V9.2h1.7V4.6h6.5v4.6h4.3V12h-4.3V20h4.7V24.7z"/>
	<path class="st0" d="M206,24.7h-4.7V20h4.7V24.7z"/>
	<path class="st0" d="M216.7,7h-6.5V3.9h6.5V7z M216.7,24.7h-6.5V9.2h6.5V24.7z"/>
	<path class="st0" d="M240.6,24.7h-6.2V13.5H227v11.2h-6.2V12.3l3.7-3.1h12.4l3.7,3.1V24.7z"/>
	<path class="st0" d="M253.2,7.7h-2v1.5h2V12h-2v12.7h-6.5V12h-1.7V9.2h1.7V6.1l3.7-3.1h4.8V7.7z"/>
	<path class="st0" d="M275.1,24.7h-20V12.3l3.7-3.1h12.1l4.1,3.1L275.1,24.7z M268.8,20v-6.5h-7.4V20H268.8z"/>
</g>
</svg>
