<?xml version="1.0" encoding="utf-8"?>
<!-- Generator: Adobe Illustrator 22.1.0, SVG Export Plug-In . SVG Version: 6.00 Build 0)  -->
<svg version="1.1" id="Layer_1" xmlns="http://www.w3.org/2000/svg" xmlns:xlink="http://www.w3.org/1999/xlink" x="0px" y="0px"
	 viewBox="0 0 200 200" style="enable-background:new 0 0 200 200;" xml:space="preserve">
<style type="text/css">
	.st0{fill:#B3B3B3;}
	.st1{fill:#E6E6E6;}
	.st2{fill:#808080;}
	.st3{fill:#67CF2E;}
	.st4{fill:#85D958;}
	.st5{fill:#40B307;}
</style>
<g>
	<g>
		<g>
			<polygon class="st0" points="170.9,35.5 148.7,67.8 117.6,67.8 139.7,35.5 			"/>
		</g>
	</g>
	<g>
		<g>
			<polygon class="st1" points="170.9,35.5 193.3,67.8 170.9,100.2 148.7,67.8 			"/>
		</g>
	</g>
	<g>
		<polygon class="st2" points="148.7,67.8 170.9,100.2 139.7,100.2 117.6,67.8 		"/>
	</g>
</g>
<g>
	<g>
		<polygon class="st0" points="64.4,99.3 42.2,131.6 11.1,131.6 33.3,99.3 		"/>
	</g>
	<g>
		<polygon class="st1" points="64.4,99.3 86.9,131.6 64.4,164 42.2,131.6 		"/>
	</g>
	<g>
		<polygon class="st2" points="42.2,131.6 64.4,164 33.3,164 11.1,131.6 		"/>
	</g>
</g>
<g>
	<g>
		<polygon class="st3" points="117.6,132.1 95.4,164.4 64.2,164.4 86.4,132.1 		"/>
	</g>
	<g>
		<polygon class="st4" points="117.6,132.1 140,164.4 117.6,196.8 95.4,164.4 		"/>
	</g>
	<g>
		<polygon class="st5" points="95.4,164.4 117.6,196.8 86.4,196.8 64.2,164.4 		"/>
	</g>
</g>
<g>
	<g>
		<polygon class="st3" points="171,99.8 148.8,132.1 117.7,132.1 139.9,99.8 		"/>
	</g>
	<g>
		<polygon class="st4" points="171,99.8 193.5,132.1 171,164.4 148.8,132.1 		"/>
	</g>
	<g>
		<polygon class="st5" points="148.8,132.1 171,164.4 139.9,164.4 117.7,132.1 		"/>
	</g>
</g>
<g>
	<g>
		<polygon class="st0" points="64.4,35 42.2,67.3 11.1,67.3 33.3,35 		"/>
	</g>
	<g>
		<polygon class="st1" points="64.4,35 86.9,67.3 64.4,99.7 42.2,67.3 		"/>
	</g>
	<g>
		<polygon class="st2" points="42.2,67.3 64.4,99.7 33.3,99.7 11.1,67.3 		"/>
	</g>
</g>
<g>
	<g>
		<g>
			<polygon class="st3" points="118,67.9 95.8,100.2 64.7,100.2 86.9,67.9 			"/>
		</g>
	</g>
	<g>
		<g>
			<polygon class="st4" points="118,67.9 140.5,100.2 118,132.6 95.8,100.2 			"/>
		</g>
	</g>
	<g>
		<polygon class="st5" points="95.8,100.2 118,132.6 86.9,132.6 64.7,100.2 		"/>
	</g>
</g>
<g>
	<g>
		<g>
			<polygon class="st0" points="117.9,3.2 95.7,35.5 64.6,35.5 86.7,3.2 			"/>
		</g>
	</g>
	<g>
		<g>
			<polygon class="st1" points="117.9,3.2 140.3,35.5 117.9,67.9 95.7,35.5 			"/>
		</g>
	</g>
	<g>
		<polygon class="st2" points="95.7,35.5 117.9,67.9 86.7,67.9 64.6,35.5 		"/>
	</g>
</g>
</svg>
