<?xml version="1.0" encoding="utf-8"?>
<!-- Generator: Adobe Illustrator 22.1.0, SVG Export Plug-In . SVG Version: 6.00 Build 0)  -->
<svg version="1.1" xmlns="http://www.w3.org/2000/svg" xmlns:xlink="http://www.w3.org/1999/xlink" x="0px" y="0px"
	 viewBox="0 0 963 237" style="enable-background:new 0 0 963 237;" xml:space="preserve">
<style type="text/css">
	.st0{fill:#383838;}
	.st1{fill:#2B2B2B;}
	.st2{fill:#E2E2E2;}
	.st3{display:none;}
	.st4{display:inline;}
	.st5{fill:#494949;}
	.st6{fill:#FFFFFF;}
	.st7{fill:#85D958;}
	.st8{fill:#67CF2E;}
	.st9{fill:#40B307;}
	.st10{fill:#E5E5E4;}
	.st11{fill:#B3B2B3;}
	.st12{fill:#808080;}
</style>
<g id="Layer_2">
	<g>
		<path class="st0" d="M951,237H12c-6.6,0-12-5.4-12-12V12C0,5.4,5.4,0,12,0h939c6.6,0,12,5.4,12,12v213
			C963,231.6,957.6,237,951,237z"/>
		<path class="st1" d="M963,22.3V12c0-6.6-6.2-12-13.7-12H13.7C6.2,0,0,5.4,0,12v213c0,6.6,6.2,12,13.7,12h54.9
			C169,165.8,441.1,17.6,963,22.3z"/>
	</g>
</g>
<g id="Layer_1">
	<g>
		<path class="st2" d="M354.1,34.4h14.6c3.2,0,5.6,0.8,7.1,2.3c1.6,1.5,2.4,3.7,2.4,6.4c0,2.9-0.9,5.1-2.6,6.7s-4.4,2.4-7.9,2.4
			h-4.8v10.5h-8.8V34.4z M362.9,46.5h2.1c1.7,0,2.9-0.3,3.6-0.9s1-1.3,1-2.3c0-0.9-0.3-1.6-0.9-2.3c-0.6-0.6-1.7-0.9-3.3-0.9h-2.5
			V46.5z"/>
		<path class="st2" d="M380.3,52.6c0-3.1,1.1-5.7,3.2-7.7c2.1-2,5-3,8.6-3c4.1,0,7.2,1.2,9.3,3.6c1.7,1.9,2.5,4.3,2.5,7.1
			c0,3.2-1,5.8-3.1,7.8c-2.1,2-5,3-8.7,3c-3.3,0-6-0.8-8-2.5C381.5,58.6,380.3,55.9,380.3,52.6z M388.2,52.5c0,1.8,0.4,3.2,1.1,4.1
			c0.7,0.9,1.7,1.3,2.8,1.3c1.1,0,2.1-0.4,2.8-1.3s1.1-2.3,1.1-4.2c0-1.8-0.4-3.1-1.1-4s-1.6-1.3-2.7-1.3c-1.1,0-2.1,0.4-2.8,1.3
			C388.5,49.4,388.2,50.7,388.2,52.5z"/>
		<path class="st2" d="M404.6,42.2h7.6l3.3,12.9l4.2-12.9h7.1l4.3,13l3.3-13h7.6l-7.6,20.6h-7l-4.2-12.4l-4,12.4h-7L404.6,42.2z"/>
		<path class="st2" d="M466.7,54.4h-15.8c0.1,1.3,0.5,2.2,1,2.8c0.8,0.9,1.8,1.3,3,1.3c0.8,0,1.5-0.2,2.2-0.6
			c0.4-0.2,0.9-0.7,1.4-1.3l7.8,0.7c-1.2,2.1-2.6,3.5-4.3,4.4c-1.7,0.9-4.1,1.3-7.2,1.3c-2.7,0-4.9-0.4-6.4-1.2s-2.9-2-3.9-3.7
			c-1-1.7-1.5-3.6-1.5-5.9c0-3.2,1-5.8,3.1-7.8c2.1-2,4.9-3,8.5-3c2.9,0,5.3,0.4,7,1.3c1.7,0.9,3,2.2,3.9,3.9
			c0.9,1.7,1.3,3.9,1.3,6.6V54.4z M458.7,50.7c-0.2-1.5-0.6-2.6-1.2-3.3c-0.7-0.7-1.5-1-2.6-1c-1.3,0-2.3,0.5-3,1.5
			c-0.5,0.6-0.8,1.5-0.9,2.8H458.7z"/>
		<path class="st2" d="M470.4,42.2h7.4v3.4c0.7-1.5,1.4-2.5,2.2-3c0.8-0.5,1.7-0.8,2.8-0.8c1.2,0,2.4,0.4,3.8,1.1l-2.4,5.6
			c-0.9-0.4-1.7-0.6-2.2-0.6c-1,0-1.8,0.4-2.4,1.3c-0.8,1.2-1.2,3.4-1.2,6.7v6.9h-7.9V42.2z"/>
		<path class="st2" d="M511.4,54.4h-15.8c0.1,1.3,0.5,2.2,1,2.8c0.8,0.9,1.8,1.3,3,1.3c0.8,0,1.5-0.2,2.2-0.6
			c0.4-0.2,0.9-0.7,1.4-1.3l7.8,0.7c-1.2,2.1-2.6,3.5-4.3,4.4c-1.7,0.9-4.1,1.3-7.2,1.3c-2.7,0-4.9-0.4-6.4-1.2
			c-1.6-0.8-2.9-2-3.9-3.7c-1-1.7-1.5-3.6-1.5-5.9c0-3.2,1-5.8,3.1-7.8c2.1-2,4.9-3,8.5-3c2.9,0,5.3,0.4,7,1.3s3,2.2,3.9,3.9
			s1.3,3.9,1.3,6.6V54.4z M503.4,50.7c-0.2-1.5-0.6-2.6-1.2-3.3c-0.7-0.7-1.5-1-2.6-1c-1.3,0-2.3,0.5-3,1.5
			c-0.5,0.6-0.8,1.5-0.9,2.8H503.4z"/>
		<path class="st2" d="M536.6,34.4v28.4h-7.4v-3c-1,1.3-2,2.2-2.8,2.6c-1.1,0.6-2.4,0.9-3.8,0.9c-2.8,0-4.9-1.1-6.4-3.2
			c-1.5-2.1-2.2-4.7-2.2-7.8c0-3.4,0.8-6,2.4-7.8c1.6-1.8,3.7-2.7,6.2-2.7c1.2,0,2.3,0.2,3.3,0.6c1,0.4,1.9,1,2.7,1.9v-9.8H536.6z
			 M528.7,52.4c0-1.6-0.3-2.8-1-3.6c-0.7-0.8-1.5-1.2-2.6-1.2c-0.9,0-1.7,0.4-2.3,1.1c-0.6,0.8-0.9,2-0.9,3.8c0,1.7,0.3,2.9,1,3.7
			c0.6,0.8,1.4,1.2,2.4,1.2c1,0,1.8-0.4,2.5-1.2C528.4,55.5,528.7,54.2,528.7,52.4z"/>
		<path class="st2" d="M555.2,34.4h16.4c2.7,0,4.8,0.7,6.3,2c1.5,1.4,2.2,3,2.2,5c0,1.7-0.5,3.1-1.6,4.3c-0.7,0.8-1.7,1.4-3.1,1.9
			c2,0.5,3.5,1.3,4.5,2.5c1,1.2,1.4,2.7,1.4,4.5c0,1.5-0.3,2.8-1,4c-0.7,1.2-1.6,2.1-2.8,2.8c-0.7,0.4-1.8,0.7-3.3,0.9
			c-2,0.3-3.3,0.4-3.9,0.4h-15.1V34.4z M564,45.5h3.8c1.4,0,2.3-0.2,2.9-0.7c0.5-0.5,0.8-1.2,0.8-2c0-0.8-0.3-1.5-0.8-1.9
			c-0.5-0.5-1.5-0.7-2.8-0.7H564V45.5z M564,56.7h4.5c1.5,0,2.6-0.3,3.2-0.8s0.9-1.3,0.9-2.2c0-0.8-0.3-1.5-0.9-2
			c-0.6-0.5-1.7-0.8-3.2-0.8H564V56.7z"/>
		<path class="st2" d="M583.2,42.2h8.3l4.2,13.7l3.9-13.7h7.8l-8.2,22c-0.9,2.5-1.9,4.2-2.8,5.1c-1.4,1.2-3.4,1.9-6.2,1.9
			c-1.1,0-2.9-0.2-5.3-0.5l-0.6-5.5c1.1,0.4,2.4,0.5,3.8,0.5c0.9,0,1.7-0.2,2.3-0.6c0.6-0.4,1.1-1.2,1.5-2.3L583.2,42.2z"/>
	</g>
	<g>
		<g>
			<g>
				<g>
					<g>
						<g class="st3">
							<g class="st4">
								<path class="st5" d="M268.8,149.5v-38.2l-12.4,33.6c-0.7,1.8-1.7,3-3.1,3.7c-1.3,0.7-2.8,0.8-3.9,0.8h-19.7
									c-1.5,0-2.7-0.2-3.7-0.7c-2.2-0.9-3-3.1-3.3-3.7v-0.1l-12.3-33.4v38h-24.1V86.2c0-3.9,2.6-6.6,6.3-6.6h27.3
									c3.4,0,6.1,1.8,7.2,4.8l0.1,0.2l12.5,37.2l12.6-37.3c0.6-1.5,1.4-2.6,2.5-3.5l0.3-0.2c1.2-0.8,2.7-1.2,4.3-1.2h27
									c3.8,0,6.3,2.6,6.3,6.6v63.2L268.8,149.5z M194.4,141.5h8V99c0-3.1,2.3-5.3,5.3-5.3h0.8c2.4,0,4.4,1.4,5.3,3.6v0.1l16.1,44
									h19.2l16.3-44.1c0.9-2.3,2.8-3.6,5.3-3.6h0.9c3.1,0,5.3,2.3,5.3,5.3v42.5h8.1V87.6h-25l-14.7,43.5c-0.6,2-2.3,3.4-4.5,3.4
									h-1.5c-2.3,0-4.1-1.4-4.7-3.4L220,87.7h-25.5L194.4,141.5L194.4,141.5z M250,141.4L250,141.4L250,141.4z M220.3,87.7
									L220.3,87.7L220.3,87.7z M259.5,87.6L259.5,87.6L259.5,87.6z M260.1,87.2L260.1,87.2L260.1,87.2z"/>
							</g>
							<g class="st4">
								<path class="st5" d="M332.8,168.5h-38.6v-21h36.3c0.9,0,1.3-0.1,1.5-0.1c0.1-0.1,0.3-0.7,0.3-1.8h-17.5
									c-8,0-13.6-1.8-17.3-5.4s-5.4-8.8-5.4-15.6V94.8h23.1v27.8c0,1.4,0.2,2.1,0.3,2.4c0.3,0.1,0.9,0.2,2.1,0.2h14.7V94.8h23.1
									v51.6c0,3-0.4,5.8-1.2,8.5c-0.8,2.8-2.2,5.3-3.9,7.2c-1.9,2.2-4.4,3.8-7.4,4.8C340.1,168,336.7,168.5,332.8,168.5z
									 M302.2,160.5h30.6c2.9,0,5.4-0.4,7.4-1.1c1.8-0.6,3.1-1.5,4.1-2.6c0.9-1.1,1.8-2.6,2.2-4.2c0.6-2,0.8-4.1,0.8-6.3v-43.5
									h-7.1v42.4c0,3.1-0.7,5.5-2.2,7.3c-1.7,2-4.2,3-7.6,3h-28.2V160.5z M300,102.9v21.7c0,4.7,1,7.9,3.1,9.9
									c2,2,6.1,3.1,11.7,3.1h15.8l-1.6-4.2h-11.3c-3.6,0-6.1-0.9-7.9-2.6c-1.8-1.8-2.6-4.4-2.6-8v-19.8H300z M315.5,125.2
									L315.5,125.2L315.5,125.2z"/>
							</g>
							<g class="st4">
								<path class="st5" d="M410.6,149.4h-21c-1.8,0-3.2-0.4-4.3-1.2c-0.9-0.7-1.8-1.5-2.5-2.8l-0.1-0.2l-30.3-60v-5.5H379
									l21.3,44.6l21.5-44.6h26.3v5.6l-30.7,60c-0.7,1.5-1.7,2.6-2.9,3.3C413.2,149.3,411.9,149.4,410.6,149.4z M389.6,141.4h20.8
									l27.5-53.7h-11.1l-21.4,44.2c-0.9,1.8-2.7,2.9-4.7,2.9h-0.9c-2.1,0-3.9-1.1-4.7-2.9l-21.2-44.2h-11.5L389.6,141.4z"/>
							</g>
							<g class="st4">
								<path class="st5" d="M491.5,149.5h-39.8c-2,0-3.8-0.2-5.5-0.7l-0.2-0.1c-2-0.7-3.8-1.9-5-3.4c-1.3-1.6-2.3-3.5-2.8-5.6
									c-0.6-2-0.9-4.3-0.9-7.3v-3.5c0-5.5,1.3-9.6,3.9-12.3c0.9-0.9,1.9-1.7,3-2.3h-5.8V94.8h46.3c4.2,0,7.5,1.4,9.7,4
									c2,2.5,3.1,5.8,3.1,9.9v34.6C497.5,147,495,149.5,491.5,149.5z M448.6,141.1c1,0.3,2,0.4,3.2,0.4h37.7v-32.7
									c0-2.3-0.4-3.8-1.2-4.8c-0.2-0.3-0.9-1.1-3.4-1.1h-38.3v3.5l28.7,0.1l0,0c0.9,0,3.6,0,5.5,2.2c1.2,1.4,1.8,3.1,1.8,5.4v7.7
									h0.1v11.2c0,2.8-2.1,5-5,5l0,0l-18.8-0.1c-2.8,0-4.4-1.2-5.3-2.3c-1.2-1.5-1.4-3.4-1.4-4.7v-2c0-2,0.5-3.6,1.5-4.8
									c1.2-1.5,3.1-2.3,5.2-2.3h14l-0.4-1.1h-20.4c-3,0-4.2,0.9-4.9,1.6l-0.1,0.1c-0.5,0.4-1.6,2-1.6,6.6v3.5c0,2.2,0.1,3.8,0.5,5
									l0.1,0.1c0.2,0.9,0.7,1.8,1.2,2.5C447.6,140.6,448.1,140.9,448.6,141.1z M460,129.9l14.4,0.1v-0.1L460,129.9L460,129.9z
									 M460,128.5L460,128.5L460,128.5z"/>
							</g>
							<g class="st4">
								<path class="st5" d="M519.7,149.4h-23.1v-37.5c0-5,1.4-9,4-12.1c2.8-3.3,7.1-5,12.8-5h36.9c3.6,0,6.1,2.6,6.1,6.3V116
									l-16.6,6.4h-5.4V115h-14.7c0,0.1,0,0.1,0,0.1V149.4z M504.7,141.4h7v-26.2c0-1.8,0.2-4.2,1.9-6c1.4-1.4,3.4-2.2,5.7-2.2
									h18.3c2.7,0,4.8,2.1,4.8,5v0.8l6.1-2.3v-7.6h-35.1c-4.8,0-6.2,1.6-6.6,2.1l-0.1,0.1c-1.4,1.5-2,3.9-2,6.9L504.7,141.4
									L504.7,141.4z"/>
							</g>
							<g class="st4">
								<path class="st5" d="M577,149.5H554V75.2H577V149.5z M562,141.5h7v-38.6h-7V141.5z M562,87.5h7v-4.3h-7V87.5z"/>
							</g>
							<g class="st4">
								<path class="st5" d="M629.6,149.5h-39.8c-2,0-3.8-0.2-5.5-0.7l-0.2-0.1c-2-0.7-3.8-1.9-5-3.4c-1.3-1.6-2.3-3.5-2.8-5.6
									c-0.6-2-0.9-4.3-0.9-7.3v-3.5c0-5.5,1.3-9.6,3.9-12.3c0.9-0.9,1.9-1.7,3-2.3h-5.8V94.8h46.3c4.2,0,7.5,1.4,9.7,4
									c2,2.5,3.1,5.8,3.1,9.9v34.6C635.6,147,633.1,149.5,629.6,149.5z M586.7,141.1c1,0.3,2,0.4,3.2,0.4h37.7v-32.7
									c0-2.3-0.4-3.8-1.2-4.8c-0.2-0.3-0.9-1.1-3.4-1.1h-38.3v3.5l28.7,0.1l0,0c0.9,0,3.6,0,5.5,2.2c1.2,1.4,1.8,3.1,1.8,5.4v7.7
									h0.1v11.2c0,2.8-2.1,5-5,5l0,0l-18.8-0.1c-2.8,0-4.4-1.2-5.3-2.3c-1.2-1.5-1.4-3.4-1.4-4.7v-2c0-2,0.5-3.6,1.5-4.8
									c1.2-1.5,3.1-2.3,5.2-2.3h14l-0.4-1.1h-20.4c-3,0-4.2,0.9-4.9,1.6l-0.1,0.1c-0.5,0.4-1.6,2-1.6,6.6v3.5c0,2.2,0.1,3.8,0.5,5
									l0.1,0.1c0.2,0.9,0.7,1.8,1.2,2.5C585.6,140.6,586.2,140.9,586.7,141.1z M598.1,129.9l14.4,0.1v-0.1L598.1,129.9
									L598.1,129.9z"/>
							</g>
							<g class="st4">
								<path class="st5" d="M698.6,149.4h-23.1v-31.1c0-2-0.3-2.7-0.4-2.9c-0.2-0.1-0.8-0.4-2-0.4h-15.3v34.4h-23.1V94.7h8v0.1H676
									c3.9,0,7.2,0.5,10,1.5c2.9,1.1,5.4,2.7,7.3,4.7c1.9,2,3.3,4.6,4.2,7.4c0.7,2.7,1.2,5.6,1.2,8.7V149.4L698.6,149.4z
									 M683.6,141.4h7v-24.1c0-2.3-0.3-4.5-0.9-6.5c-0.4-1.7-1.2-3.1-2.3-4.2c-1.1-1.2-2.5-2-4.2-2.7c-1.9-0.7-4.4-1.1-7.2-1.1
									h-17.9l0,0l1.5,4.2h13.4c4.2,0,6.6,1.5,7.8,2.8l0.1,0.1c1.7,1.9,2.6,4.6,2.6,8.4L683.6,141.4L683.6,141.4z M642.8,141.4h7
									v-38.5h-7V141.4z"/>
							</g>
							<g class="st4">
								<path class="st5" d="M725.1,149.5h-23.1v-34.9h-4.7l-5.4-14.4v-5.4h10.1V79.7h23.1v15.2h13.3v19.8h-13.3V149.5z
									 M710.1,141.5h7v-34.9h13.3v-3.7h-13.3V87.7h-7v15.2h-8.6l1.4,3.7h7.2L710.1,141.5L710.1,141.5z"/>
							</g>
							<g class="st4">
								<path class="st5" d="M750.6,149.5h-23.1v-22.1h23.1V149.5z M735.5,141.5h7v-6.1h-7V141.5z"/>
							</g>
							<g class="st4">
								<path class="st5" d="M773.3,149.5h-23.1V75.2h23.1V149.5z M758.2,141.5h7v-38.6h-7V141.5L758.2,141.5z M758.2,87.5h7v-4.3
									h-7V87.5L758.2,87.5z"/>
							</g>
							<g class="st4">
								<path class="st5" d="M836.7,149.4h-23.1v-31.1c0-2-0.3-2.7-0.4-2.9c-0.2-0.1-0.8-0.4-2-0.4h-15.3v34.4h-23.1V94.7h8v0.1
									h33.2c3.9,0,7.2,0.5,10,1.5c2.9,1.1,5.4,2.7,7.3,4.7c1.9,2,3.3,4.6,4.2,7.4c0.7,2.7,1.2,5.6,1.2,8.7V149.4z M821.6,141.4h7
									v-24.1c0-2.3-0.3-4.5-0.9-6.5c-0.4-1.7-1.2-3.1-2.3-4.2c-1.1-1.2-2.5-2-4.2-2.7c-1.9-0.7-4.4-1.1-7.2-1.1h-17.9l0,0l1.5,4.2
									h13.4c4.2,0,6.6,1.5,7.8,2.8l0.1,0.1c1.7,1.9,2.6,4.6,2.6,8.4L821.6,141.4L821.6,141.4z M780.8,141.4h7v-38.5h-7V141.4z"/>
							</g>
							<g class="st4">
								<path class="st5" d="M863.2,149.5h-23.1v-34.9h-5l-5.2-14.4v-5.4h10.1v-1.6c0-3,0.3-5.7,0.9-8l0.1-0.2
									c0.8-2.5,2.2-4.5,4-6.1l0.1-0.1c1.9-1.5,4.2-2.6,6.9-3c2.3-0.4,4.9-0.7,8.7-0.7h9.4l5.3,13.7v5.5h-12.4c0,0.1,0,0.2,0,0.3
									V95h13.2l0.1,19.6h-13.3L863.2,149.5L863.2,149.5z M848.2,141.5h7v-34.9h13.2V103h-13.3v-8.2c0-2.3,0.5-4.2,1.5-5.6
									c0.7-1.1,2.5-2.7,6.1-2.7h3.2l-1.2-3.2h-3.9c-3.2,0-5.5,0.1-7.1,0.5h-0.1c-1.3,0.2-2.4,0.7-3.3,1.3
									c-0.7,0.6-1.2,1.4-1.5,2.3c-0.4,1.5-0.6,3.4-0.6,5.7v9.6h-8.7l1.3,3.7h7.3L848.2,141.5L848.2,141.5z"/>
							</g>
							<g class="st4">
								<path class="st5" d="M916.2,149.4h-21.9c-3.9,0-7.3-0.5-10-1.6c-2.9-1.1-5.3-2.7-7.3-4.7c-1.8-2-3.3-4.4-4.2-7.4v-0.1
									c-0.7-2.7-1.2-5.6-1.2-8.7v-9.6c0-3,0.4-5.8,1.2-8.7c0.9-3,2.3-5.5,4.2-7.5c1.9-2,4.4-3.6,7.3-4.7c2.8-1,6.1-1.5,9.9-1.5
									h21.9c3.9,0,7.2,0.5,10,1.5c2.8,1.1,5.3,2.6,7.3,4.7l0.1,0.1c1.8,2,3.3,4.4,4.2,7.4v0.1c0.7,2.7,1.2,5.6,1.2,8.7v9.6
									c0,3.1-0.4,6.1-1.2,8.7c-0.8,2.9-2.3,5.5-4.2,7.4c-2,2-4.4,3.6-7.4,4.7C923.2,148.9,920,149.4,916.2,149.4z M880.5,133.4
									c0.6,1.8,1.3,3.1,2.3,4.2c1.1,1.2,2.5,2,4.2,2.7c1.8,0.7,4.3,1.1,7.1,1.1h21.9c2.8,0,5.3-0.4,7.3-1.1
									c1.8-0.7,3.2-1.5,4.3-2.7l0.1-0.1c1.1-1.1,1.8-2.4,2.3-4.2c0.6-1.9,0.9-4.1,0.9-6.5v-9.6c0-2.3-0.3-4.4-0.8-6.4
									c-0.6-1.8-1.3-3.1-2.3-4.2c-1.2-1.2-2.6-2-4.4-2.7c-1.9-0.7-4.4-1.1-7.2-1.1h-21.9c-2.8,0-5.3,0.4-7.1,1.1
									c-1.8,0.7-3.1,1.5-4.2,2.7l-0.1,0.1c-1.1,1.1-1.8,2.4-2.3,4.2c-0.6,2-0.9,4.2-0.9,6.5v9.6
									C879.7,129.3,880,131.4,880.5,133.4z M913.5,135.8h-4v-0.1h-12.3c-3.4,0-6.1-0.9-7.8-2.7l-0.1-0.1c-2.1-2.3-2.4-5.8-2.4-8.2
									v-6.6c0-3.9,0.7-6.6,2.4-8.4c1.8-1.9,4.3-2.8,7.9-2.8h16.3c3.4,0,6,0.9,7.7,2.7c1.8,1.8,2.7,4.6,2.7,8.6v6.6
									c0,3.8-0.9,6.5-2.6,8.2l-0.1,0.1C919.4,135,916.9,135.8,913.5,135.8z M895.2,127.5c0.2,0.1,0.8,0.2,2,0.2h17.6
									c0.4-0.1,0.7-0.1,0.9-0.2c0.1-0.3,0.3-1.1,0.3-2.6v-6.6c0-2-0.3-2.8-0.4-3c-0.1-0.1-0.7-0.3-2-0.3h-16.3
									c-1.2,0-1.8,0.1-1.9,0.2c-0.1,0.3-0.4,1.1-0.4,3v6.6C894.9,126.4,895.2,127.2,895.2,127.5z M915.6,127.7L915.6,127.7
									L915.6,127.7z M895.3,115.2L895.3,115.2L895.3,115.2z"/>
							</g>
						</g>
						<g>
							<g>
								<path class="st6" d="M272.9,145.5V99c0-0.9-0.4-1.3-1.3-1.3h-0.9c-0.7,0-1.2,0.4-1.5,1.1l-16.6,44.7
									c-0.3,0.8-0.7,1.3-1.2,1.5c-0.5,0.3-1.2,0.4-2,0.4h-19.7c-0.9,0-1.6-0.1-2.1-0.4c-0.5-0.2-0.9-0.8-1.2-1.5L210,98.8
									c-0.3-0.7-0.8-1.1-1.6-1.1h-0.8c-0.9,0-1.3,0.4-1.3,1.3v46.5h-16V86.2c0-1.8,0.8-2.6,2.3-2.6h27.3c1.8,0,2.9,0.8,3.5,2.3
									l14.8,44.1c0.1,0.4,0.4,0.5,0.8,0.5h1.5c0.4,0,0.6-0.1,0.7-0.5L256,85.9c0.3-0.7,0.7-1.3,1.2-1.8c0.6-0.4,1.3-0.6,2.1-0.6
									h27c1.6,0,2.3,0.8,2.3,2.6v59.2L272.9,145.5L272.9,145.5z"/>
							</g>
							<g>
								<path class="st6" d="M335.7,140h0.6V98.9h15.1v47.6c0,2.7-0.4,5.2-1,7.4c-0.7,2.2-1.7,4.2-3.1,5.7c-1.5,1.6-3.4,2.8-5.7,3.6
									c-2.4,0.9-5.3,1.3-8.8,1.3h-34.6v-13h32.2c2.1,0,3.6-0.5,4.5-1.5s1.3-2.6,1.3-4.7v-3.7h-21.5c-6.8,0-11.6-1.4-14.4-4.2
									s-4.2-7.1-4.2-12.8V98.9h15.1v23.8c0,2.6,0.5,4.3,1.5,5.3c0.9,0.9,2.6,1.4,5,1.4h14.1L335.7,140z"/>
							</g>
							<g>
								<path class="st7" d="M424.4,83.7h19.8v0.7l-30.3,59.2c-0.4,0.8-0.8,1.3-1.3,1.5c-0.4,0.3-1.1,0.4-2,0.4h-21
									c-0.9,0-1.6-0.1-2-0.4c-0.4-0.3-0.9-0.8-1.3-1.5l-29.9-59.1v-0.7h20.2l22.2,46.5c0.2,0.4,0.6,0.7,1.2,0.7h0.9
									c0.6,0,0.9-0.2,1.2-0.7L424.4,83.7z"/>
							</g>
							<g>
								<path class="st7" d="M442.5,110.4V98.9h42.3c3,0,5.1,0.8,6.6,2.6c1.5,1.8,2.1,4.2,2.1,7.4v34.6c0,1.3-0.7,2-1.9,2h-39.8
									c-1.7,0-3.1-0.2-4.4-0.6c-1.3-0.4-2.4-1.2-3.3-2.2c-0.9-1-1.6-2.4-2-4.1c-0.5-1.7-0.7-3.7-0.7-6.2v-3.5
									c0-4.4,0.9-7.6,2.8-9.4c1.8-1.9,4.4-2.8,7.8-2.8h23.1l2.8,6.9h0.6v-9.4c0-1.3-0.3-2.2-0.8-2.8c-0.5-0.6-1.3-0.8-2.4-0.8
									L442.5,110.4L442.5,110.4z M477.5,133.9c0.6,0,0.9-0.4,0.9-1v-7.1h-19.8c-1,0-1.7,0.3-2.1,0.8c-0.4,0.5-0.6,1.3-0.6,2.3v2
									c0,0.9,0.2,1.8,0.6,2.2c0.4,0.6,1.2,0.8,2.1,0.8L477.5,133.9L477.5,133.9z"/>
							</g>
							<g>
								<path class="st7" d="M539.1,118.4h-0.7V112c0-0.6-0.3-0.9-0.8-0.9h-18.3c-1.3,0-2.3,0.4-2.8,0.9c-0.6,0.6-0.8,1.8-0.8,3.2
									v30.2h-15v-33.5c0-3.9,1-7.1,3.1-9.5c2-2.4,5.2-3.6,9.7-3.6h36.9c1.5,0,2.1,0.8,2.1,2.3v12.1L539.1,118.4z"/>
							</g>
							<g>
								<path class="st7" d="M558,91.6V79.2h15v12.3H558z M558,145.5V98.9h15v46.6L558,145.5L558,145.5z"/>
							</g>
							<g>
								<path class="st7" d="M580.6,110.4V98.9h42.3c3,0,5.1,0.8,6.6,2.6c1.5,1.8,2.1,4.2,2.1,7.4v34.6c0,1.3-0.7,2-1.9,2h-39.8
									c-1.7,0-3.1-0.2-4.4-0.6c-1.3-0.4-2.4-1.2-3.3-2.2c-0.9-1-1.6-2.4-2-4.1c-0.5-1.7-0.7-3.7-0.7-6.2v-3.5
									c0-4.4,0.9-7.6,2.8-9.4c1.8-1.9,4.4-2.8,7.8-2.8h23.1l2.8,6.9h0.6v-9.4c0-1.3-0.3-2.2-0.8-2.8c-0.5-0.6-1.3-0.8-2.4-0.8
									L580.6,110.4L580.6,110.4z M615.6,133.9c0.6,0,0.9-0.4,0.9-1v-7.1h-19.8c-1,0-1.7,0.3-2.1,0.8c-0.4,0.5-0.6,1.3-0.6,2.3v2
									c0,0.9,0.2,1.8,0.6,2.2c0.4,0.6,1.2,0.8,2.1,0.8L615.6,133.9L615.6,133.9z"/>
							</g>
							<g>
								<path class="st7" d="M638.9,98.9H676c3.4,0,6.3,0.4,8.6,1.3s4.3,2.1,5.8,3.7c1.5,1.6,2.6,3.6,3.2,5.8s1,4.8,1,7.6v28.1h-15
									v-27.1c0-2.7-0.5-4.6-1.5-5.7c-1-1-2.6-1.6-4.9-1.6h-16.3l-2.5-6.8h-0.6v41.1h-15V98.7h0.1V98.9z"/>
							</g>
							<g>
								<path class="st7" d="M734.4,110.6h-13.3v34.9h-15v-34.9h-6l-4.2-11.1v-0.7h10.1V83.7h15v15.2h13.3V110.6z"/>
							</g>
							<g>
								<path class="st6" d="M731.5,145.5v-14.1h15v14.1H731.5z"/>
							</g>
							<g>
								<path class="st6" d="M754.2,91.6V79.2h15v12.3H754.2z M754.2,145.5V98.9h15v46.6L754.2,145.5L754.2,145.5z"/>
							</g>
							<g>
								<path class="st6" d="M776.9,98.9H814c3.4,0,6.3,0.4,8.6,1.3c2.3,0.9,4.3,2.1,5.8,3.7c1.5,1.6,2.6,3.6,3.2,5.8
									c0.7,2.3,1,4.8,1,7.6v28.1h-15v-27.1c0-2.7-0.5-4.6-1.5-5.7c-1-1-2.6-1.6-4.9-1.6h-16.3l-2.5-6.8h-0.6v41.1h-15V98.7h0.1
									L776.9,98.9L776.9,98.9z"/>
							</g>
							<g>
								<path class="st6" d="M872.5,110.6h-13.3v34.9h-15v-34.9H838l-4-11.1v-0.7h10.1v-5.6c0-2.8,0.3-5,0.8-6.9
									c0.6-1.8,1.5-3.2,2.8-4.3c1.3-1,3-1.8,5.1-2.2c2.1-0.4,4.7-0.6,7.9-0.6h6.7l4.1,10.4v0.8h-8.8c-1.5,0-2.4,0.4-2.8,1
									c-0.5,0.7-0.8,1.8-0.8,3.3V99h13.3L872.5,110.6L872.5,110.6z"/>
							</g>
							<g>
								<path class="st6" d="M934.9,126.9c0,2.8-0.4,5.4-1,7.6c-0.7,2.3-1.7,4.2-3.3,5.8c-1.5,1.6-3.4,2.8-5.8,3.7
									c-2.4,0.9-5.3,1.3-8.6,1.3h-21.9c-3.4,0-6.3-0.4-8.5-1.3c-2.3-0.9-4.3-2.1-5.8-3.7c-1.5-1.6-2.6-3.6-3.3-5.8
									c-0.7-2.3-1-4.8-1-7.6v-9.6c0-2.8,0.4-5.3,1-7.6c0.7-2.3,1.7-4.2,3.3-5.8c1.5-1.6,3.4-2.8,5.8-3.7c2.3-0.9,5.2-1.3,8.5-1.3
									h21.9c3.4,0,6.3,0.4,8.6,1.3c2.3,0.9,4.3,2.1,5.8,3.7c1.5,1.6,2.6,3.6,3.3,5.8c0.7,2.3,1,4.8,1,7.6V126.9z M913.5,131.8
									c2.4,0,4-0.5,5-1.5c0.9-0.9,1.5-2.8,1.5-5.5v-6.6c0-2.8-0.5-4.8-1.5-5.8c-1-1-2.6-1.5-4.9-1.5h-16.3c-2.4,0-4,0.5-4.9,1.5
									c-0.9,1-1.4,2.9-1.4,5.7v6.6c0,2.7,0.4,4.4,1.4,5.5c0.9,0.9,2.6,1.5,4.9,1.5L913.5,131.8L913.5,131.8L913.5,131.8z"/>
							</g>
						</g>
					</g>
				</g>
			</g>
		</g>
		<g>
			<g>
				<g>
					<g>
						<g>
							<polygon class="st7" points="112.9,96.7 99.6,119.7 112.9,142.7 126.2,119.7 							"/>
						</g>
						<g>
							<polygon class="st8" points="86.3,96.7 73.1,119.7 99.6,119.7 112.9,96.7 							"/>
						</g>
						<g>
							<polygon class="st9" points="73.1,119.7 99.6,119.7 112.9,142.7 86.3,142.7 							"/>
						</g>
					</g>
					<g>
						<g>
							<polygon class="st10" points="112.9,50.6 99.6,73.6 112.9,96.7 126.2,73.6 							"/>
						</g>
						<g>
							<polygon class="st11" points="86.3,50.6 73.1,73.6 99.6,73.6 112.9,50.6 							"/>
						</g>
						<g>
							<polygon class="st12" points="73.1,73.6 99.6,73.6 112.9,96.7 86.3,96.7 							"/>
						</g>
					</g>
					<g>
						<g>
							<polygon class="st7" points="152.8,119.7 139.5,142.7 152.8,165.7 166.1,142.7 							"/>
						</g>
						<g>
							<polygon class="st8" points="126.2,119.7 112.9,142.7 139.5,142.7 152.8,119.7 							"/>
						</g>
						<g>
							<polygon class="st9" points="112.9,142.7 139.5,142.7 152.8,165.7 126.2,165.7 							"/>
						</g>
					</g>
					<g>
						<g>
							<polygon class="st10" points="152.8,73.6 139.5,96.7 152.8,119.7 166.1,96.7 							"/>
						</g>
						<g>
							<polygon class="st11" points="126.2,73.6 112.9,96.7 139.5,96.7 152.8,73.6 							"/>
						</g>
						<g>
							<polygon class="st12" points="112.9,96.7 139.5,96.7 152.8,119.7 126.2,119.7 							"/>
						</g>
					</g>
					<g>
						<g>
							<polygon class="st10" points="73.1,119.7 59.9,142.7 73.1,165.7 86.4,142.7 							"/>
						</g>
						<g>
							<polygon class="st11" points="46.5,119.7 33.2,142.7 59.9,142.7 73.1,119.7 							"/>
						</g>
						<g>
							<polygon class="st12" points="33.2,142.7 59.9,142.7 73.1,165.7 46.5,165.7 							"/>
						</g>
					</g>
					<g>
						<g>
							<polygon class="st10" points="73.1,73.6 59.9,96.7 73.1,119.7 86.4,96.7 							"/>
						</g>
						<g>
							<polygon class="st11" points="46.5,73.6 33.2,96.7 59.9,96.7 73.1,73.6 							"/>
						</g>
						<g>
							<polygon class="st12" points="33.2,96.7 59.9,96.7 73.1,119.7 46.5,119.7 							"/>
						</g>
					</g>
					<g>
						<g>
							<polygon class="st7" points="112.9,142.7 99.6,165.7 112.9,188.7 126.2,165.7 							"/>
						</g>
						<g>
							<polygon class="st8" points="86.3,142.7 73.1,165.7 99.6,165.7 112.9,142.7 							"/>
						</g>
						<g>
							<polygon class="st9" points="73.1,165.7 99.6,165.7 112.9,188.7 86.3,188.7 							"/>
						</g>
					</g>
				</g>
			</g>
		</g>
	</g>
</g>
</svg>
