<?xml version="1.0" encoding="utf-8"?>
<!-- Generator: Adobe Illustrator 22.1.0, SVG Export Plug-In . SVG Version: 6.00 Build 0)  -->
<svg version="1.1" xmlns="http://www.w3.org/2000/svg" xmlns:xlink="http://www.w3.org/1999/xlink" x="0px" y="0px"
	 viewBox="0 0 844.1 237" style="enable-background:new 0 0 844.1 237;" xml:space="preserve">
<style type="text/css">
	.st0{fill:#383838;}
	.st1{fill:#2B2B2B;}
	.st2{enable-background:new    ;}
	.st3{fill:#FFFFFF;}
	.st4{fill:#669BE8;}
	.st5{fill:#2A7FE2;}
	.st6{fill:#3366CC;}
	.st7{fill:#E5E5E4;}
	.st8{fill:#B3B2B3;}
	.st9{fill:#808080;}
	.st10{fill:#E2E2E2;}
</style>
<g id="Layer_2">
	<g>
		<path class="st0" d="M832.1,237H12c-6.6,0-12-5.4-12-12V12C0,5.4,5.4,0,12,0h820.1c6.6,0,12,5.4,12,12v213
			C844.1,231.6,838.7,237,832.1,237z"/>
		<path class="st1" d="M844.1,22.3V12c0-6.6-5.4-12-12-12H12C5.4,0,0,5.4,0,12v213c0,6.6,5.4,12,12,12h48.1
			C148.1,165.8,386.6,17.6,844.1,22.3z"/>
	</g>
</g>
<g id="Layer_1">
	<g>
		<g>
			<g>
				<g class="st2">
					<path class="st3" d="M283.3,145.4v-42.9c0-0.9-0.4-1.3-1.2-1.3h-0.9c-0.7,0-1.2,0.3-1.4,1l-15.6,41.3c-0.2,0.7-0.6,1.3-1.1,1.5
						c-0.5,0.2-1.1,0.4-2,0.4h-18.5c-0.9,0-1.6-0.2-2-0.4c-0.5-0.2-0.8-0.7-1.1-1.5l-15.5-41.3c-0.2-0.7-0.8-1-1.5-1h-0.8
						c-0.9,0-1.3,0.4-1.3,1.3v42.9h-15.1V90.7c0-1.6,0.7-2.3,2.2-2.3h25.8c1.6,0,2.7,0.7,3.3,2.1l14,40.7c0.1,0.3,0.3,0.5,0.8,0.5
						h1.4c0.3,0,0.5-0.2,0.6-0.5l14.1-40.7c0.2-0.7,0.6-1.2,1.2-1.6c0.5-0.4,1.2-0.5,2.1-0.5h25.5c1.5,0,2.2,0.8,2.2,2.3v54.7
						L283.3,145.4L283.3,145.4z"/>
					<path class="st3" d="M342.7,140.3h0.5v-37.9h14.2v43.9c0,2.5-0.3,4.8-0.9,6.9c-0.6,2-1.6,3.8-3,5.3c-1.3,1.5-3.1,2.6-5.4,3.4
						c-2.3,0.8-5,1.3-8.3,1.3h-32.7v-12h30.5c2,0,3.4-0.5,4.3-1.4c0.8-0.9,1.3-2.3,1.3-4.4v-3.4h-20.3c-6.4,0-10.9-1.3-13.6-3.9
						c-2.7-2.6-4-6.5-4-11.8v-23.9h14.2v21.9c0,2.3,0.5,4,1.3,4.8c0.9,0.9,2.4,1.3,4.7,1.3h13.2L342.7,140.3z"/>
				</g>
				<g class="st2">
					<path class="st4" d="M416.6,121c0-0.9-0.1-1.7-0.2-2.7s-0.2-1.7-0.3-2.4v-0.7h16v28c0,1.5-0.6,2.2-2,2.2h-42.9
						c-4.2,0-7.8-0.5-10.8-1.6c-3-1.1-5.4-2.6-7.2-4.5c-1.8-2-3.1-4.3-4-7.1c-0.9-2.8-1.3-5.9-1.3-9.4V111c0-3.4,0.4-6.6,1.3-9.4
						c0.9-2.8,2.2-5.2,4-7.1c1.8-2,4.2-3.4,7.2-4.5s6.6-1.6,10.8-1.6h42.7c1.5,0,2.3,0.8,2.3,2.3v12.3l-14.9,5.5h-0.6v-5.5
						c0-0.5-0.2-0.8-0.7-0.8h-27.3c-1.6,0-2.9,0.2-4,0.5c-1.1,0.3-2,0.8-2.7,1.5c-0.7,0.7-1.2,1.6-1.5,2.8c-0.3,1.2-0.5,2.7-0.5,4.4
						v10.1c0,3.4,0.6,5.9,2,7.2c1.3,1.3,3.5,2,6.6,2h27.1c0.5,0,0.9-0.3,0.9-0.9V121C416.5,121,416.6,121,416.6,121z"/>
					<path class="st4" d="M453.5,120.9h-0.5v6.6c0,2.4,0.4,4.1,1.3,5.1c0.9,0.9,2.4,1.4,4.7,1.4h30.7v11.4h-33.3
						c-3.2,0-5.9-0.4-8.1-1.3c-2.2-0.8-4.1-2-5.5-3.4c-1.4-1.5-2.4-3.3-3.1-5.4c-0.6-2.1-0.9-4.5-0.9-7v-8.8c0-2.6,0.3-4.9,0.9-7
						s1.6-3.9,3.1-5.4c1.4-1.5,3.2-2.7,5.5-3.4c2.2-0.8,4.9-1.3,8.1-1.3h24.9c3.3,0,5.6,0.9,7,2.6c1.4,1.7,2.1,4.4,2.1,8v4.1
						c0,3.2-0.7,5.7-2.1,7.6c-1.4,1.9-3.8,2.8-7,2.8h-25.2L453.5,120.9z M452.9,118.8h21.6c1.6,0,2.4-0.9,2.4-2.5v-1.6
						c0-0.9-0.2-1.5-0.6-1.9c-0.4-0.4-1-0.5-1.9-0.5h-15.6c-2.2,0-3.8,0.5-4.6,1.4c-0.9,0.9-1.3,2.6-1.3,4.9L452.9,118.8
						C452.8,118.8,452.9,118.8,452.9,118.8z"/>
					<path class="st4" d="M496.3,102.4h35.1c3.2,0,5.9,0.4,8.1,1.3c2.3,0.8,4.1,2,5.5,3.4c1.4,1.5,2.4,3.3,3.1,5.4
						c0.6,2.1,0.9,4.5,0.9,7v26h-14.2v-25c0-2.5-0.5-4.2-1.4-5.2c-0.9-1-2.5-1.5-4.6-1.5h-15.3l-2.3-6.3h-0.5v38h-14.3V102.4z"/>
					<path class="st4" d="M569.9,120.9h-0.5v6.6c0,2.4,0.4,4.1,1.3,5.1s2.4,1.4,4.7,1.4H606v11.4h-33.3c-3.2,0-5.9-0.4-8.1-1.3
						c-2.2-0.8-4.1-2-5.5-3.4c-1.4-1.5-2.4-3.3-3.1-5.4c-0.6-2.1-0.9-4.5-0.9-7v-8.8c0-2.6,0.3-4.9,0.9-7s1.6-3.9,3.1-5.4
						c1.4-1.5,3.2-2.7,5.5-3.4c2.2-0.8,4.9-1.3,8.1-1.3h24.9c3.3,0,5.6,0.9,7,2.6c1.4,1.7,2.1,4.4,2.1,8v4.1c0,3.2-0.7,5.7-2.1,7.6
						c-1.4,1.9-3.8,2.8-7,2.8h-25.2L569.9,120.9z M569.4,118.8H591c1.6,0,2.4-0.9,2.4-2.5v-1.6c0-0.9-0.2-1.5-0.6-1.9
						c-0.4-0.4-1-0.5-1.9-0.5h-15.6c-2.2,0-3.8,0.5-4.6,1.4c-0.9,0.9-1.3,2.6-1.3,4.9L569.4,118.8
						C569.3,118.8,569.4,118.8,569.4,118.8z"/>
				</g>
				<g class="st2">
					<path class="st3" d="M612.7,145.4v-13h14.2v13H612.7z"/>
					<path class="st3" d="M634.2,95.6V84.3h14.2v11.3H634.2z M634.2,145.4v-43h14.2v43H634.2z"/>
					<path class="st3" d="M655.6,102.4h35.1c3.2,0,5.9,0.4,8.1,1.3c2.3,0.8,4.1,2,5.5,3.4c1.4,1.5,2.4,3.3,3.1,5.4
						c0.6,2.1,0.9,4.5,0.9,7v26h-14.2v-25c0-2.5-0.5-4.2-1.4-5.2c-0.9-1-2.5-1.5-4.6-1.5h-15.3l-2.3-6.3h-0.5v38h-14.2L655.6,102.4
						L655.6,102.4z"/>
					<path class="st3" d="M745.8,113.2h-12.5v32.2h-14.2v-32.2h-5.8l-3.8-10.2v-0.6h9.5v-5.2c0-2.6,0.2-4.7,0.8-6.3
						c0.5-1.6,1.4-3,2.7-4c1.3-1,2.8-1.7,4.8-2.1c2-0.4,4.5-0.6,7.5-0.6h6.3l3.8,9.6v0.7h-8.3c-1.3,0-2.3,0.3-2.7,0.9
						c-0.5,0.6-0.7,1.6-0.7,3.1v3.8h12.5L745.8,113.2C745.9,113.2,745.8,113.2,745.8,113.2z"/>
					<path class="st3" d="M804.8,128.3c0,2.6-0.3,4.9-0.9,7s-1.6,3.9-3.1,5.4s-3.2,2.7-5.5,3.4c-2.3,0.8-4.9,1.3-8.1,1.3h-20.6
						c-3.2,0-5.9-0.4-8.1-1.3c-2.2-0.8-4.1-2-5.5-3.4s-2.4-3.3-3.1-5.4s-0.9-4.5-0.9-7v-8.8c0-2.6,0.3-4.9,0.9-7s1.6-3.9,3.1-5.4
						c1.4-1.5,3.2-2.7,5.5-3.4c2.2-0.8,4.9-1.3,8.1-1.3h20.6c3.2,0,5.9,0.4,8.1,1.3c2.3,0.8,4.1,2,5.5,3.4c1.4,1.5,2.4,3.3,3.1,5.4
						c0.6,2.1,0.9,4.5,0.9,7L804.8,128.3L804.8,128.3z M784.6,132.8c2.3,0,3.8-0.5,4.7-1.3c0.9-0.9,1.3-2.6,1.3-5v-6
						c0-2.6-0.5-4.4-1.4-5.3c-0.9-0.9-2.5-1.4-4.7-1.4h-15.4c-2.3,0-3.8,0.5-4.7,1.5c-0.9,0.9-1.3,2.7-1.3,5.3v6
						c0,2.4,0.5,4.1,1.3,5c0.9,0.9,2.4,1.3,4.7,1.3L784.6,132.8L784.6,132.8z"/>
				</g>
			</g>
		</g>
		<g>
			<g>
				<g>
					<g>
						<polygon class="st4" points="123,96 109,120.2 123,144.4 136.9,120.2 						"/>
						<polygon class="st5" points="95,96 81.1,120.2 109,120.2 123,96 						"/>
						<polygon class="st6" points="81.1,120.2 109,120.2 123,144.4 95,144.4 						"/>
					</g>
					<g>
						<polygon class="st4" points="123,47.7 109,71.9 123,96 136.9,71.9 						"/>
						<polygon class="st5" points="95,47.7 81.1,71.9 109,71.9 123,47.7 						"/>
						<polygon class="st6" points="81.1,71.9 109,71.9 123,96 95,96 						"/>
					</g>
					<g>
						<polygon class="st7" points="164.8,120.2 150.8,144.4 164.8,168.5 178.7,144.4 						"/>
						<polygon class="st8" points="136.9,120.2 123,144.4 150.8,144.4 164.8,120.2 						"/>
						<polygon class="st9" points="123,144.4 150.8,144.4 164.8,168.5 136.9,168.5 						"/>
					</g>
					<g>
						<polygon class="st4" points="164.8,71.9 150.8,96 164.8,120.2 178.7,96 						"/>
						<polygon class="st5" points="136.9,71.9 123,96 150.8,96 164.8,71.9 						"/>
						<polygon class="st6" points="123,96 150.8,96 164.8,120.2 136.9,120.2 						"/>
					</g>
					<g>
						<polygon class="st7" points="81.2,120.2 67.3,144.4 81.2,168.5 95.1,144.4 						"/>
						<polygon class="st8" points="53.3,120.2 39.4,144.4 67.3,144.4 81.2,120.2 						"/>
						<polygon class="st9" points="39.4,144.4 67.3,144.4 81.2,168.5 53.3,168.5 						"/>
					</g>
					<g>
						<polygon class="st7" points="81.2,71.9 67.3,96 81.2,120.2 95.1,96 						"/>
						<polygon class="st8" points="53.3,71.9 39.4,96 67.3,96 81.2,71.9 						"/>
						<polygon class="st9" points="39.4,96 67.3,96 81.2,120.2 53.3,120.2 						"/>
					</g>
					<g>
						<polygon class="st7" points="123,144.4 109,168.5 123,192.7 136.9,168.5 						"/>
						<polygon class="st8" points="95,144.4 81.1,168.5 109,168.5 123,144.4 						"/>
						<polygon class="st9" points="81.1,168.5 109,168.5 123,192.7 95,192.7 						"/>
					</g>
				</g>
			</g>
		</g>
	</g>
	<g>
		<path class="st10" d="M295.4,34.4H310c3.2,0,5.6,0.8,7.1,2.3c1.6,1.5,2.4,3.7,2.4,6.4c0,2.9-0.9,5.1-2.6,6.7
			c-1.7,1.6-4.4,2.4-7.9,2.4h-4.8v10.5h-8.8V34.4z M304.2,46.5h2.1c1.7,0,2.9-0.3,3.6-0.9s1-1.3,1-2.3c0-0.9-0.3-1.6-0.9-2.3
			c-0.6-0.6-1.7-0.9-3.3-0.9h-2.5V46.5z"/>
		<path class="st10" d="M321.5,52.6c0-3.1,1.1-5.7,3.2-7.7c2.1-2,5-3,8.6-3c4.1,0,7.2,1.2,9.3,3.6c1.7,1.9,2.5,4.3,2.5,7.1
			c0,3.2-1,5.8-3.1,7.8c-2.1,2-5,3-8.7,3c-3.3,0-6-0.8-8-2.5C322.8,58.6,321.5,55.9,321.5,52.6z M329.4,52.5c0,1.8,0.4,3.2,1.1,4.1
			c0.7,0.9,1.7,1.3,2.8,1.3c1.1,0,2.1-0.4,2.8-1.3s1.1-2.3,1.1-4.2c0-1.8-0.4-3.1-1.1-4s-1.6-1.3-2.7-1.3c-1.1,0-2.1,0.4-2.8,1.3
			C329.8,49.4,329.4,50.7,329.4,52.5z"/>
		<path class="st10" d="M345.9,42.2h7.6l3.3,12.9l4.2-12.9h7.1l4.3,13l3.3-13h7.6l-7.6,20.6h-7l-4.2-12.4l-4,12.4h-7L345.9,42.2z"/>
		<path class="st10" d="M408,54.4h-15.8c0.1,1.3,0.5,2.2,1,2.8c0.8,0.9,1.8,1.3,3,1.3c0.8,0,1.5-0.2,2.2-0.6
			c0.4-0.2,0.9-0.7,1.4-1.3l7.8,0.7c-1.2,2.1-2.6,3.5-4.3,4.4c-1.7,0.9-4.1,1.3-7.2,1.3c-2.7,0-4.9-0.4-6.4-1.2
			c-1.6-0.8-2.9-2-3.9-3.7c-1-1.7-1.5-3.6-1.5-5.9c0-3.2,1-5.8,3.1-7.8c2.1-2,4.9-3,8.5-3c2.9,0,5.3,0.4,7,1.3s3,2.2,3.9,3.9
			s1.3,3.9,1.3,6.6V54.4z M400,50.7c-0.2-1.5-0.6-2.6-1.2-3.3c-0.7-0.7-1.5-1-2.6-1c-1.3,0-2.3,0.5-3,1.5c-0.5,0.6-0.8,1.5-0.9,2.8
			H400z"/>
		<path class="st10" d="M411.7,42.2h7.4v3.4c0.7-1.5,1.4-2.5,2.2-3c0.8-0.5,1.7-0.8,2.8-0.8c1.2,0,2.4,0.4,3.8,1.1l-2.4,5.6
			c-0.9-0.4-1.7-0.6-2.2-0.6c-1,0-1.8,0.4-2.4,1.3c-0.8,1.2-1.2,3.4-1.2,6.7v6.9h-7.9V42.2z"/>
		<path class="st10" d="M452.7,54.4h-15.8c0.1,1.3,0.5,2.2,1,2.8c0.8,0.9,1.8,1.3,3,1.3c0.8,0,1.5-0.2,2.2-0.6
			c0.4-0.2,0.9-0.7,1.4-1.3l7.8,0.7c-1.2,2.1-2.6,3.5-4.3,4.4c-1.7,0.9-4.1,1.3-7.2,1.3c-2.7,0-4.9-0.4-6.4-1.2
			c-1.6-0.8-2.9-2-3.9-3.7c-1-1.7-1.5-3.6-1.5-5.9c0-3.2,1-5.8,3.1-7.8c2.1-2,4.9-3,8.5-3c2.9,0,5.3,0.4,7,1.3
			c1.7,0.9,3,2.2,3.9,3.9s1.3,3.9,1.3,6.6V54.4z M444.7,50.7c-0.2-1.5-0.6-2.6-1.2-3.3c-0.7-0.7-1.5-1-2.6-1c-1.3,0-2.3,0.5-3,1.5
			c-0.5,0.6-0.8,1.5-0.9,2.8H444.7z"/>
		<path class="st10" d="M477.9,34.4v28.4h-7.4v-3c-1,1.3-2,2.2-2.8,2.6c-1.1,0.6-2.4,0.9-3.8,0.9c-2.8,0-4.9-1.1-6.4-3.2
			c-1.5-2.1-2.2-4.7-2.2-7.8c0-3.4,0.8-6,2.4-7.8c1.6-1.8,3.7-2.7,6.2-2.7c1.2,0,2.3,0.2,3.3,0.6s1.9,1,2.7,1.9v-9.8H477.9z
			 M470,52.4c0-1.6-0.3-2.8-1-3.6c-0.7-0.8-1.5-1.2-2.6-1.2c-0.9,0-1.7,0.4-2.3,1.1s-0.9,2-0.9,3.8c0,1.7,0.3,2.9,1,3.7
			c0.6,0.8,1.4,1.2,2.4,1.2c1,0,1.8-0.4,2.5-1.2C469.7,55.5,470,54.2,470,52.4z"/>
		<path class="st10" d="M496.5,34.4h16.4c2.7,0,4.8,0.7,6.3,2c1.5,1.4,2.2,3,2.2,5c0,1.7-0.5,3.1-1.6,4.3c-0.7,0.8-1.7,1.4-3.1,1.9
			c2,0.5,3.5,1.3,4.5,2.5c1,1.2,1.4,2.7,1.4,4.5c0,1.5-0.3,2.8-1,4c-0.7,1.2-1.6,2.1-2.8,2.8c-0.7,0.4-1.8,0.7-3.3,0.9
			c-2,0.3-3.3,0.4-3.9,0.4h-15.1V34.4z M505.3,45.5h3.8c1.4,0,2.3-0.2,2.9-0.7c0.5-0.5,0.8-1.2,0.8-2c0-0.8-0.3-1.5-0.8-1.9
			c-0.5-0.5-1.5-0.7-2.8-0.7h-3.9V45.5z M505.3,56.7h4.5c1.5,0,2.6-0.3,3.2-0.8c0.6-0.5,0.9-1.3,0.9-2.2c0-0.8-0.3-1.5-0.9-2
			c-0.6-0.5-1.7-0.8-3.2-0.8h-4.5V56.7z"/>
		<path class="st10" d="M524.5,42.2h8.3l4.2,13.7l3.9-13.7h7.8l-8.2,22c-0.9,2.5-1.9,4.2-2.8,5.1c-1.4,1.2-3.4,1.9-6.2,1.9
			c-1.1,0-2.9-0.2-5.3-0.5l-0.6-5.5c1.1,0.4,2.4,0.5,3.8,0.5c0.9,0,1.7-0.2,2.3-0.6c0.6-0.4,1.1-1.2,1.5-2.3L524.5,42.2z"/>
	</g>
</g>
</svg>
