<?xml version="1.0" encoding="utf-8"?>
<!-- Generator: Adobe Illustrator 22.1.0, SVG Export Plug-In . SVG Version: 6.00 Build 0)  -->
<svg version="1.1" id="Layer_1" xmlns="http://www.w3.org/2000/svg" xmlns:xlink="http://www.w3.org/1999/xlink" x="0px" y="0px"
	 viewBox="0 0 118 20" style="enable-background:new 0 0 118 20;" xml:space="preserve">
<style type="text/css">
	.st0{fill:#67CF2E;}
	.st1{fill:#FFFFFF;}
</style>
<path class="st0" d="M115.7,20H2.3C1,20,0,19,0,17.7V2.3C0,1,1,0,2.3,0h113.4c1.3,0,2.3,1,2.3,2.3v15.4C118,19,117,20,115.7,20z"/>
<g>
	<path class="st1" d="M3.1,8.9c0.3,0,0.6-0.1,1-0.1c0.5,0,0.9,0.1,1.1,0.3C5.5,9.4,5.6,9.6,5.6,10c0,0.4-0.1,0.7-0.3,0.9
		c-0.3,0.3-0.7,0.4-1.2,0.4c-0.2,0-0.3,0-0.4,0v1.6H3.1V8.9z M3.7,10.8c0.1,0,0.3,0,0.4,0c0.6,0,1-0.3,1-0.9c0-0.5-0.4-0.8-1-0.8
		c-0.2,0-0.4,0-0.5,0V10.8z"/>
	<path class="st1" d="M8.8,11.4C8.8,12.5,8,13,7.3,13C6.6,13,6,12.4,6,11.5c0-1,0.6-1.5,1.4-1.5C8.2,9.9,8.8,10.5,8.8,11.4z
		 M6.5,11.4c0,0.6,0.4,1.1,0.9,1.1c0.5,0,0.9-0.5,0.9-1.1c0-0.5-0.2-1.1-0.9-1.1C6.8,10.3,6.5,10.9,6.5,11.4z"/>
	<path class="st1" d="M9.6,10l0.4,1.5c0.1,0.3,0.2,0.6,0.2,0.9h0c0.1-0.3,0.2-0.6,0.3-0.9L11,10h0.4l0.5,1.5
		c0.1,0.3,0.2,0.7,0.3,0.9h0c0-0.3,0.1-0.6,0.2-0.9l0.4-1.5h0.5l-0.9,2.9h-0.5l-0.4-1.4c-0.1-0.3-0.2-0.6-0.3-1h0
		c-0.1,0.3-0.2,0.6-0.3,1l-0.5,1.4H10L9.1,10H9.6z"/>
	<path class="st1" d="M14.1,11.5c0,0.7,0.5,1,1,1c0.4,0,0.6-0.1,0.8-0.1l0.1,0.4c-0.2,0.1-0.5,0.2-1,0.2c-0.9,0-1.4-0.6-1.4-1.5
		c0-0.9,0.5-1.6,1.4-1.6c0.9,0,1.2,0.8,1.2,1.4c0,0.1,0,0.2,0,0.2H14.1z M15.6,11.2c0-0.3-0.1-0.9-0.7-0.9c-0.5,0-0.8,0.5-0.8,0.9
		H15.6z"/>
	<path class="st1" d="M16.8,10.9c0-0.3,0-0.6,0-0.9h0.5l0,0.6h0c0.1-0.4,0.4-0.6,0.8-0.6c0.1,0,0.1,0,0.1,0v0.5c-0.1,0-0.1,0-0.2,0
		c-0.4,0-0.6,0.3-0.7,0.7c0,0.1,0,0.2,0,0.2v1.5h-0.5V10.9z"/>
	<path class="st1" d="M19,11.5c0,0.7,0.5,1,1,1c0.4,0,0.6-0.1,0.8-0.1l0.1,0.4c-0.2,0.1-0.5,0.2-1,0.2c-0.9,0-1.4-0.6-1.4-1.5
		c0-0.9,0.5-1.6,1.4-1.6c0.9,0,1.2,0.8,1.2,1.4c0,0.1,0,0.2,0,0.2H19z M20.5,11.2c0-0.3-0.1-0.9-0.7-0.9c-0.5,0-0.8,0.5-0.8,0.9
		H20.5z"/>
	<path class="st1" d="M24.2,8.6v3.5c0,0.3,0,0.6,0,0.7h-0.5l0-0.5h0c-0.2,0.3-0.5,0.6-1,0.6c-0.7,0-1.2-0.6-1.2-1.5
		c0-1,0.6-1.6,1.3-1.6c0.4,0,0.7,0.2,0.9,0.4h0V8.6H24.2z M23.7,11.2c0-0.1,0-0.2,0-0.2c-0.1-0.3-0.4-0.6-0.8-0.6
		c-0.5,0-0.9,0.5-0.9,1.1c0,0.6,0.3,1.1,0.9,1.1c0.4,0,0.7-0.2,0.8-0.6c0-0.1,0-0.1,0-0.2V11.2z"/>
	<path class="st1" d="M26.3,12.9c0-0.2,0-0.5,0-0.7V8.6h0.5v1.8h0c0.2-0.3,0.5-0.5,1-0.5c0.7,0,1.2,0.6,1.2,1.5c0,1-0.7,1.6-1.3,1.6
		c-0.4,0-0.8-0.2-1-0.5h0l0,0.5H26.3z M26.9,11.7c0,0.1,0,0.1,0,0.2c0.1,0.4,0.4,0.6,0.8,0.6c0.6,0,0.9-0.4,0.9-1.1
		c0-0.6-0.3-1.1-0.9-1.1c-0.4,0-0.7,0.2-0.8,0.6c0,0.1,0,0.1,0,0.2V11.7z"/>
	<path class="st1" d="M29.9,10l0.6,1.7c0.1,0.2,0.1,0.4,0.2,0.6h0c0.1-0.2,0.1-0.4,0.2-0.6l0.6-1.7h0.6l-0.8,2.1
		c-0.4,1-0.6,1.5-1,1.8c-0.3,0.2-0.5,0.3-0.6,0.3l-0.1-0.4c0.1,0,0.3-0.1,0.5-0.3c0.1-0.1,0.3-0.3,0.4-0.6c0-0.1,0-0.1,0-0.1
		c0,0,0-0.1,0-0.1L29.3,10H29.9z"/>
	<path class="st1" d="M43.2,12.9V8c0-0.1,0-0.1-0.1-0.1h-0.1c-0.1,0-0.1,0-0.2,0.1L41,12.7c0,0.1-0.1,0.1-0.1,0.2
		c-0.1,0-0.1,0-0.2,0h-2.1c-0.1,0-0.2,0-0.2,0s-0.1-0.1-0.1-0.2l-1.8-4.7c0-0.1-0.1-0.1-0.2-0.1h-0.1c-0.1,0-0.1,0-0.1,0.1v4.9h-1.7
		V6.6c0-0.2,0.1-0.3,0.3-0.3h3c0.2,0,0.3,0.1,0.4,0.2l1.6,4.7c0,0,0,0.1,0.1,0.1h0.2c0,0,0.1,0,0.1-0.1l1.6-4.7
		c0-0.1,0.1-0.1,0.1-0.2s0.1-0.1,0.2-0.1h2.9c0.2,0,0.3,0.1,0.3,0.3v6.3H43.2z"/>
	<path class="st1" d="M50,12.3L50,12.3L50,8h1.6v5c0,0.3,0,0.6-0.1,0.8c-0.1,0.2-0.2,0.4-0.3,0.6c-0.2,0.2-0.4,0.3-0.6,0.4
		c-0.3,0.1-0.6,0.1-1,0.1h-3.8v-1.4h3.5c0.2,0,0.4-0.1,0.5-0.2c0.1-0.1,0.1-0.3,0.1-0.5v-0.4h-2.3c-0.7,0-1.3-0.1-1.6-0.4
		s-0.5-0.7-0.5-1.4V8h1.6v2.5c0,0.3,0.1,0.5,0.2,0.6c0.1,0.1,0.3,0.1,0.5,0.1h1.5L50,12.3z"/>
	<path class="st1" d="M59.6,6.3h2.2v0.1l-3.3,6.3c0,0.1-0.1,0.1-0.1,0.2c0,0-0.1,0-0.2,0h-2.3c-0.1,0-0.2,0-0.2,0
		c0,0-0.1-0.1-0.1-0.2l-3.3-6.3V6.3h2.2l2.4,4.9c0,0,0.1,0.1,0.1,0.1H57c0.1,0,0.1,0,0.1-0.1L59.6,6.3z"/>
	<path class="st1" d="M61.6,9.2V8h4.6c0.3,0,0.6,0.1,0.7,0.3C67,8.4,67.1,8.7,67.1,9v3.7c0,0.1-0.1,0.2-0.2,0.2h-4.3
		c-0.2,0-0.3,0-0.5-0.1s-0.3-0.1-0.4-0.2c-0.1-0.1-0.2-0.2-0.2-0.4c-0.1-0.2-0.1-0.4-0.1-0.7v-0.4c0-0.5,0.1-0.8,0.3-1
		s0.5-0.3,0.8-0.3h2.5l0.3,0.7h0.1v-1c0-0.1,0-0.2-0.1-0.3c-0.1-0.1-0.1-0.1-0.3-0.1H61.6z M65.4,11.7c0.1,0,0.1,0,0.1-0.1v-0.8
		h-2.1c-0.1,0-0.2,0-0.2,0.1c0,0.1-0.1,0.1-0.1,0.2v0.2c0,0.1,0,0.2,0.1,0.2s0.1,0.1,0.2,0.1H65.4z"/>
	<path class="st1" d="M72,10L72,10L72,9.3c0-0.1,0-0.1-0.1-0.1h-2c-0.1,0-0.2,0-0.3,0.1c-0.1,0.1-0.1,0.2-0.1,0.3v3.2h-1.6V9.3
		c0-0.4,0.1-0.8,0.3-1c0.2-0.3,0.6-0.4,1-0.4h4c0.2,0,0.2,0.1,0.2,0.2v1.3L72,10z"/>
	<path class="st1" d="M74.1,7.2V5.9h1.6v1.3H74.1z M74.1,12.9V8h1.6v4.9H74.1z"/>
	<path class="st1" d="M76.5,9.2V8h4.6c0.3,0,0.6,0.1,0.7,0.3C82,8.4,82.1,8.7,82.1,9v3.7c0,0.1-0.1,0.2-0.2,0.2h-4.3
		c-0.2,0-0.3,0-0.5-0.1c-0.1,0-0.3-0.1-0.4-0.2c-0.1-0.1-0.2-0.2-0.2-0.4c-0.1-0.2-0.1-0.4-0.1-0.7v-0.4c0-0.5,0.1-0.8,0.3-1
		s0.5-0.3,0.8-0.3h2.5l0.3,0.7h0.1v-1c0-0.1,0-0.2-0.1-0.3c-0.1-0.1-0.1-0.1-0.3-0.1H76.5z M80.3,11.7c0.1,0,0.1,0,0.1-0.1v-0.8
		h-2.1c-0.1,0-0.2,0-0.2,0.1c0,0.1-0.1,0.1-0.1,0.2v0.2c0,0.1,0,0.2,0.1,0.2s0.1,0.1,0.2,0.1H80.3z"/>
	<path class="st1" d="M82.9,8h4c0.4,0,0.7,0,0.9,0.1c0.3,0.1,0.5,0.2,0.6,0.4c0.2,0.2,0.3,0.4,0.3,0.6c0.1,0.2,0.1,0.5,0.1,0.8v3
		h-1.6V10c0-0.3-0.1-0.5-0.2-0.6c-0.1-0.1-0.3-0.2-0.5-0.2h-1.8l-0.3-0.7h-0.1v4.4h-1.6V8z"/>
	<path class="st1" d="M93.2,9.2h-1.4v3.7h-1.6V9.2h-0.6L89.1,8V8h1.1V6.3h1.6V8h1.4V9.2z"/>
	<path class="st1" d="M92.9,12.9v-1.5h1.6v1.5H92.9z"/>
	<path class="st1" d="M95.4,7.2V5.9H97v1.3H95.4z M95.4,12.9V8H97v4.9H95.4z"/>
	<path class="st1" d="M97.8,8h4c0.4,0,0.7,0,0.9,0.1c0.3,0.1,0.5,0.2,0.6,0.4c0.2,0.2,0.3,0.4,0.3,0.6c0.1,0.2,0.1,0.5,0.1,0.8v3
		h-1.6V10c0-0.3-0.1-0.5-0.2-0.6c-0.1-0.1-0.3-0.2-0.5-0.2h-1.8l-0.3-0.7h-0.1v4.4h-1.6V8z"/>
	<path class="st1" d="M108.2,9.2h-1.4v3.7h-1.6V9.2h-0.7L104,8V8h1.1V7.4c0-0.3,0-0.5,0.1-0.7c0.1-0.2,0.2-0.3,0.3-0.5
		c0.1-0.1,0.3-0.2,0.6-0.2c0.2,0,0.5-0.1,0.9-0.1h0.7l0.4,1.1v0.1h-1c-0.2,0-0.3,0-0.3,0.1s-0.1,0.2-0.1,0.3V8h1.4V9.2z"/>
	<path class="st1" d="M115,10.9c0,0.3,0,0.6-0.1,0.8c-0.1,0.2-0.2,0.4-0.4,0.6c-0.2,0.2-0.4,0.3-0.6,0.4c-0.3,0.1-0.6,0.1-0.9,0.1
		h-2.4c-0.4,0-0.7,0-0.9-0.1c-0.3-0.1-0.5-0.2-0.6-0.4c-0.2-0.2-0.3-0.4-0.4-0.6c-0.1-0.2-0.1-0.5-0.1-0.8v-1c0-0.3,0-0.6,0.1-0.8
		c0.1-0.2,0.2-0.4,0.4-0.6c0.2-0.2,0.4-0.3,0.6-0.4c0.3-0.1,0.6-0.1,0.9-0.1h2.4c0.4,0,0.7,0,0.9,0.1c0.3,0.1,0.5,0.2,0.6,0.4
		c0.2,0.2,0.3,0.4,0.4,0.6c0.1,0.2,0.1,0.5,0.1,0.8V10.9z M112.7,11.4c0.3,0,0.4-0.1,0.5-0.2c0.1-0.1,0.2-0.3,0.2-0.6V10
		c0-0.3-0.1-0.5-0.2-0.6c-0.1-0.1-0.3-0.2-0.5-0.2h-1.8c-0.3,0-0.4,0.1-0.5,0.2c-0.1,0.1-0.1,0.3-0.1,0.6v0.7c0,0.3,0,0.5,0.1,0.6
		c0.1,0.1,0.3,0.2,0.5,0.2H112.7z"/>
</g>
</svg>
