<?xml version="1.0" encoding="UTF-8"?>
<svg id="Layer_1" xmlns="http://www.w3.org/2000/svg" version="1.1" viewBox="0 0 844.1 237">
  <!-- Generator: Adobe Illustrator 30.1.0, SVG Export Plug-In . SVG Version: 2.1.1 Build 136)  -->
  <defs>
    <style>
      .st0 {
        fill: #5046e4;
      }

      .st1 {
        fill: #2b2b2b;
      }

      .st2 {
        fill: #1d16a6;
      }

      .st3 {
        fill: gray;
      }

      .st4 {
        fill: #e6e6e6;
      }

      .st5 {
        fill: #e2e2e2;
      }

      .st6 {
        fill: #817df0;
      }

      .st7 {
        isolation: isolate;
      }

      .st8 {
        fill: #f7f7f7;
      }

      .st9 {
        fill: #b3b3b3;
      }

      .st10 {
        fill: #383838;
      }
    </style>
  </defs>
  <g id="Layer_2">
    <g>
      <path class="st10" d="M832.1,237H12c-6.6,0-12-5.4-12-12V12C0,5.4,5.4,0,12,0h820.1c6.6,0,12,5.4,12,12v213c0,6.6-5.4,12-12,12Z"/>
      <path class="st1" d="M844.1,22.3v-10.3c0-6.6-5.4-12-12-12H12C5.4,0,0,5.4,0,12v213c0,6.6,5.4,12,12,12h48.1C148.1,165.8,386.6,17.6,844.1,22.3Z"/>
    </g>
  </g>
  <g>
    <path class="st5" d="M295.4,34.4h14.6c3.2,0,5.6.8,7.1,2.3,1.6,1.5,2.4,3.7,2.4,6.4s-.9,5.1-2.6,6.7c-1.7,1.6-4.4,2.4-7.9,2.4h-4.8v10.5h-8.8v-28.3h0ZM304.2,46.5h2.1c1.7,0,2.9-.3,3.6-.9s1-1.3,1-2.3-.3-1.6-.9-2.3c-.6-.6-1.7-.9-3.3-.9h-2.5v6.4h0Z"/>
    <path class="st5" d="M321.5,52.6c0-3.1,1.1-5.7,3.2-7.7s5-3,8.6-3,7.2,1.2,9.3,3.6c1.7,1.9,2.5,4.3,2.5,7.1s-1,5.8-3.1,7.8-5,3-8.7,3-6-.8-8-2.5c-2.5-2.3-3.8-5-3.8-8.3ZM329.4,52.5c0,1.8.4,3.2,1.1,4.1.7.9,1.7,1.3,2.8,1.3s2.1-.4,2.8-1.3,1.1-2.3,1.1-4.2-.4-3.1-1.1-4-1.6-1.3-2.7-1.3-2.1.4-2.8,1.3c-.8,1-1.2,2.3-1.2,4.1Z"/>
    <path class="st5" d="M345.9,42.2h7.6l3.3,12.9,4.2-12.9h7.1l4.3,13,3.3-13h7.6l-7.6,20.6h-7l-4.2-12.4-4,12.4h-7l-7.6-20.6Z"/>
    <path class="st5" d="M408,54.4h-15.8c.1,1.3.5,2.2,1,2.8.8.9,1.8,1.3,3,1.3s1.5-.2,2.2-.6c.4-.2.9-.7,1.4-1.3l7.8.7c-1.2,2.1-2.6,3.5-4.3,4.4-1.7.9-4.1,1.3-7.2,1.3s-4.9-.4-6.4-1.2c-1.6-.8-2.9-2-3.9-3.7s-1.5-3.6-1.5-5.9,1-5.8,3.1-7.8,4.9-3,8.5-3,5.3.4,7,1.3,3,2.2,3.9,3.9,1.3,3.9,1.3,6.6v1.2h-.1ZM400,50.7c-.2-1.5-.6-2.6-1.2-3.3-.7-.7-1.5-1-2.6-1s-2.3.5-3,1.5c-.5.6-.8,1.5-.9,2.8h7.7Z"/>
    <path class="st5" d="M411.7,42.2h7.4v3.4c.7-1.5,1.4-2.5,2.2-3,.8-.5,1.7-.8,2.8-.8s2.4.4,3.8,1.1l-2.4,5.6c-.9-.4-1.7-.6-2.2-.6-1,0-1.8.4-2.4,1.3-.8,1.2-1.2,3.4-1.2,6.7v6.9h-7.9v-20.6h0Z"/>
    <path class="st5" d="M452.7,54.4h-15.8c.1,1.3.5,2.2,1,2.8.8.9,1.8,1.3,3,1.3s1.5-.2,2.2-.6c.4-.2.9-.7,1.4-1.3l7.8.7c-1.2,2.1-2.6,3.5-4.3,4.4-1.7.9-4.1,1.3-7.2,1.3s-4.9-.4-6.4-1.2c-1.6-.8-2.9-2-3.9-3.7s-1.5-3.6-1.5-5.9,1-5.8,3.1-7.8,4.9-3,8.5-3,5.3.4,7,1.3c1.7.9,3,2.2,3.9,3.9s1.3,3.9,1.3,6.6v1.2h-.1ZM444.7,50.7c-.2-1.5-.6-2.6-1.2-3.3-.7-.7-1.5-1-2.6-1s-2.3.5-3,1.5c-.5.6-.8,1.5-.9,2.8h7.7Z"/>
    <path class="st5" d="M477.9,34.4v28.4h-7.4v-3c-1,1.3-2,2.2-2.8,2.6-1.1.6-2.4.9-3.8.9-2.8,0-4.9-1.1-6.4-3.2-1.5-2.1-2.2-4.7-2.2-7.8s.8-6,2.4-7.8,3.7-2.7,6.2-2.7,2.3.2,3.3.6,1.9,1,2.7,1.9v-9.8h8q0-.1,0-.1ZM470,52.4c0-1.6-.3-2.8-1-3.6s-1.5-1.2-2.6-1.2-1.7.4-2.3,1.1-.9,2-.9,3.8.3,2.9,1,3.7c.6.8,1.4,1.2,2.4,1.2s1.8-.4,2.5-1.2c.6-.7.9-2,.9-3.8Z"/>
    <path class="st5" d="M496.5,34.4h16.4c2.7,0,4.8.7,6.3,2,1.5,1.4,2.2,3,2.2,5s-.5,3.1-1.6,4.3c-.7.8-1.7,1.4-3.1,1.9,2,.5,3.5,1.3,4.5,2.5s1.4,2.7,1.4,4.5-.3,2.8-1,4-1.6,2.1-2.8,2.8c-.7.4-1.8.7-3.3.9-2,.3-3.3.4-3.9.4h-15.1v-28.3h0ZM505.3,45.5h3.8c1.4,0,2.3-.2,2.9-.7.5-.5.8-1.2.8-2s-.3-1.5-.8-1.9c-.5-.5-1.5-.7-2.8-.7h-3.9v5.3h0ZM505.3,56.7h4.5c1.5,0,2.6-.3,3.2-.8.6-.5.9-1.3.9-2.2s-.3-1.5-.9-2c-.6-.5-1.7-.8-3.2-.8h-4.5v5.8Z"/>
    <path class="st5" d="M524.5,42.2h8.3l4.2,13.7,3.9-13.7h7.8l-8.2,22c-.9,2.5-1.9,4.2-2.8,5.1-1.4,1.2-3.4,1.9-6.2,1.9s-2.9-.2-5.3-.5l-.6-5.5c1.1.4,2.4.5,3.8.5s1.7-.2,2.3-.6,1.1-1.2,1.5-2.3l-8.7-20.6Z"/>
  </g>
  <g>
    <g class="st7">
      <path class="st8" d="M242.2,146.6v-34.2c0-.6-.3-1.1-.8-1.1h-.6c-.6,0-.8,0-1.1.8l-12.5,33.1c0,.6-.6,1.1-.8,1.1s-.8.3-1.7.3h-14.7c-.6,0-1.1,0-1.7-.3s-.6-.6-.8-1.1l-12.5-33.1c0-.6-.6-.8-1.1-.8h-.6c-.6,0-1.1.3-1.1,1.1v34.2h-12.2v-43.9c0-1.1.6-1.9,1.7-1.9h20.6c1.4,0,2.2.6,2.5,1.7l11.1,32.5s0,.3.6.3h1.1s.6,0,.6-.3l11.4-32.5c0-.6.6-.8.8-1.1s.8-.6,1.7-.6h20.3c1.1,0,1.7.6,1.7,1.9v43.9h-12.2.6Z"/>
      <path class="st8" d="M289.7,142.4h.6v-30.3h11.4v35.3c0,1.9,0,3.9-.8,5.6-.6,1.7-1.1,3.1-2.2,4.2s-2.5,1.9-4.4,2.8c-1.7.6-4.2,1.1-6.7,1.1h-26.1v-9.7h24.5c1.7,0,2.8-.3,3.3-1.1s1.1-1.9,1.1-3.6v-2.8h-16.4c-5.3,0-8.9-1.1-10.8-3.1-2.2-1.9-3.3-5.3-3.3-9.5v-19.2h11.4v17.5c0,1.9.3,3.1,1.1,3.9.6.6,1.9,1.1,3.9,1.1h10.6s3.1,7.8,3.1,7.8Z"/>
    </g>
    <g class="st7">
      <path class="st8" d="M606.1,146v-10.6h11.4v10.6h-11.4Z"/>
      <path class="st8" d="M623.3,106v-9.2h11.4v9.2h-11.4ZM623.3,146v-34.5h11.4v34.5h-11.4Z"/>
      <path class="st8" d="M640.5,111.6h28.1c2.5,0,4.7.3,6.4,1.1,1.7.6,3.3,1.7,4.4,2.8s1.9,2.5,2.5,4.2.8,3.6.8,5.6v20.8h-11.4v-20c0-1.9-.3-3.3-1.1-4.2s-1.9-1.1-3.6-1.1h-12.2l-1.9-5h-.6v30.6h-11.4v-34.5h0v-.3Z"/>
      <path class="st8" d="M712.8,120.2h-10v25.9h-11.4v-25.9h-4.7l-3.1-8.1v-.6h7.5v-4.2c0-1.9,0-3.6.6-5s1.1-2.2,2.2-3.1c1.1-.8,2.2-1.4,3.9-1.7s3.6-.6,5.8-.6h5l3.1,7.8v.6h-6.7c-1.1,0-1.7,0-2.2.8s-.6,1.4-.6,2.5v3.1h10v8.6h0l.6-.3Z"/>
      <path class="st8" d="M760.1,132.4c0,2.2,0,3.9-.8,5.6-.6,1.7-1.4,3.1-2.5,4.2s-2.5,2.2-4.4,2.8c-1.7.6-3.9,1.1-6.4,1.1h-16.7c-2.5,0-4.7-.3-6.4-1.1-1.7-.6-3.3-1.7-4.4-2.8s-1.9-2.5-2.5-4.2-.8-3.6-.8-5.6v-6.9c0-1.9,0-3.9.8-5.6s1.4-3.1,2.5-4.4c1.1-1.1,2.5-2.2,4.4-2.8,1.7-.6,3.9-1.1,6.4-1.1h16.7c2.5,0,4.7.3,6.4,1.1,1.7.6,3.3,1.7,4.4,2.8s1.9,2.5,2.5,4.4c.6,1.7.8,3.6.8,5.6v6.9ZM743.7,135.8c1.7,0,3.1-.3,3.9-1.1.6-.6,1.1-1.9,1.1-4.2v-4.7c0-2.2-.3-3.6-1.1-4.2s-1.9-1.1-3.6-1.1h-12.2c-1.7,0-3.1.3-3.6,1.1-.6.8-1.1,2.2-1.1,4.2v4.7c0,1.9.3,3.3,1.1,4.2.6.6,1.9,1.1,3.6,1.1h12.2-.3Z"/>
    </g>
    <g>
      <path class="st0" d="M348.4,106.6v39.8h-15v-39.8h-22l-5-12.8v-.6h70.3c1.4,0,2.2.8,2.2,2.2v13.9l-13.9,5.3h-.6v-6.9c0-.6,0-.8-.8-.8h-15.3v-.3Z"/>
      <path class="st0" d="M383.4,116.3v-10h37.3c2.5,0,4.4.8,5.8,2.2,1.1,1.4,1.9,3.6,1.9,6.4v29.7c0,1.1-.6,1.7-1.7,1.7h-34.7c-1.4,0-2.8,0-3.9-.6-1.1-.3-2.2-1.1-2.8-1.9s-1.4-1.9-1.9-3.3c-.3-1.4-.6-3.3-.6-5.3v-3.1c0-3.9.8-6.4,2.5-8.1,1.7-1.7,3.9-2.5,6.7-2.5h20.3l2.5,5.8h.6v-8.1c0-1.1,0-1.9-.6-2.5s-1.1-.8-1.9-.8h-28.6l-.8.3ZM414.3,136.3c.6,0,.8-.3.8-.8v-6.1h-17.2c-.8,0-1.4,0-1.9.6-.3.6-.6,1.1-.6,1.9v1.7c0,.8,0,1.4.6,1.9.3.6,1.1.6,1.9.6h16.4v.3Z"/>
      <path class="st0" d="M449,106.3l12,12,12.8-12h15v.6l-19.7,18.3,20.8,20.6v.6h-15.8l-13.3-13.6-13.6,13.6h-15.6v-.6l21.1-20.3-19.5-18.3v-.6h15.8v-.3Z"/>
      <path class="st0" d="M540.7,130.5c0,2.5-.3,4.7-.8,6.7-.6,1.9-1.4,3.6-2.8,5s-3.1,2.5-5,3.3c-2.2.8-4.7,1.1-7.5,1.1h-19.2c-3.1,0-5.6-.3-7.5-1.1s-3.6-1.9-5-3.3-2.2-3.1-2.8-5c-.6-1.9-.8-4.2-.8-6.7v-8.3c0-2.5.3-4.4.8-6.4s1.7-3.6,2.8-5c1.4-1.4,3.1-2.5,5-3.3s4.4-1.1,7.5-1.1h19.2c3.1,0,5.6.3,7.5,1.1,2.2.8,3.9,1.9,5,3.3,1.4,1.4,2.2,3.1,2.8,5s.8,4.2.8,6.4v8.3ZM522.1,134.6c2.2,0,3.6-.3,4.4-1.1s1.1-2.5,1.1-4.7v-5.6c0-2.5-.6-4.2-1.4-5s-2.2-1.4-4.4-1.4h-14.5c-2.2,0-3.6.6-4.4,1.4s-1.1,2.5-1.1,5v5.6c0,2.2.3,3.9,1.1,4.7.8.8,2.2,1.1,4.4,1.1h14.7Z"/>
      <path class="st0" d="M546.9,106.3h32.5c3.1,0,5.6.3,7.5,1.1,2.2.8,3.9,1.9,5,3.3,1.4,1.4,2.2,3.1,2.8,5s.8,4.2.8,6.7v24.2h-13.1v-23.4c0-2.2-.6-3.9-1.4-5-.8-.8-2.2-1.4-4.2-1.4h-14.2l-2.2-5.8h-.6v35.3h-13.1v-40Z"/>
    </g>
  </g>
  <g>
    <g>
      <polygon class="st0" points="141.4 69.4 124.7 93.8 101.1 93.8 117.8 69.4 141.4 69.4"/>
      <polygon class="st6" points="141.4 69.4 158.4 93.8 141.5 118.3 124.7 93.8 141.4 69.4"/>
      <polygon class="st2" points="124.7 93.8 141.5 118.3 118.1 118.2 101.1 93.8 124.7 93.8"/>
    </g>
    <g>
      <polygon class="st9" points="60.9 118.2 44 142.7 20.4 142.7 37.4 118.2 60.9 118.2"/>
      <polygon class="st4" points="60.9 118.2 77.6 142.7 60.6 167.2 44 142.7 60.9 118.2"/>
      <polygon class="st3" points="44 142.7 60.6 167.2 37.2 167.2 20.4 142.7 44 142.7"/>
    </g>
    <g>
      <polygon class="st0" points="101.1 142.7 84.1 167.2 60.6 167.2 77.6 142.7 101.1 142.7"/>
      <polygon class="st6" points="101.1 142.7 118 167.1 100.9 191.7 84.1 167.2 101.1 142.7"/>
      <polygon class="st2" points="84.1 167.2 100.9 191.7 77.3 191.7 60.6 167.2 84.1 167.2"/>
    </g>
    <g>
      <polygon class="st9" points="141.4 118.3 124.7 142.7 101.1 142.7 118.1 118.2 141.4 118.3"/>
      <polygon class="st4" points="141.4 118.3 158.4 142.7 141.4 167.1 124.7 142.7 141.4 118.3"/>
      <polygon class="st3" points="124.7 142.7 141.4 167.1 117.9 167.1 101.1 142.7 124.7 142.7"/>
    </g>
    <g>
      <polygon class="st0" points="61 69.4 44.3 93.8 20.7 93.8 37.5 69.4 61 69.4"/>
      <polygon class="st6" points="61 69.4 77.6 93.8 61 118.2 44.3 93.8 61 69.4"/>
      <polygon class="st2" points="44.3 93.8 60.9 118.2 37.4 118.2 20.7 93.8 44.3 93.8"/>
    </g>
    <g>
      <polygon class="st0" points="101.1 93.8 84.4 118.2 60.9 118.2 77.6 93.8 101.1 93.8"/>
      <polygon class="st6" points="101.1 93.8 118.1 118.2 101.1 142.7 84.4 118.2 101.1 93.8"/>
      <polygon class="st2" points="84.4 118.2 101.1 142.7 77.6 142.7 60.9 118.2 84.4 118.2"/>
    </g>
    <g>
      <polygon class="st9" points="101.3 45.3 84.5 69.7 61 69.4 77.7 45.3 101.3 45.3"/>
      <polygon class="st4" points="101.3 45.3 118.1 69.4 101.1 93.8 84.4 69.4 101.3 45.3"/>
      <polygon class="st3" points="84.4 69.4 101.1 93.8 77.6 93.8 61 69.4 84.4 69.4"/>
    </g>
  </g>
</svg>