<?xml version="1.0" encoding="utf-8"?>
<!-- Generator: Adobe Illustrator 22.1.0, SVG Export Plug-In . SVG Version: 6.00 Build 0)  -->
<svg version="1.1" xmlns="http://www.w3.org/2000/svg" xmlns:xlink="http://www.w3.org/1999/xlink" x="0px" y="0px"
	 viewBox="0 0 844.1 237" style="enable-background:new 0 0 844.1 237;" xml:space="preserve">
<style type="text/css">
	.st0{fill:#383838;}
	.st1{fill:#2B2B2B;}
	.st2{fill:#E2E2E2;}
	.st3{enable-background:new    ;}
	.st4{fill:#FFFFFF;}
	.st5{fill:#FF8E39;}
	.st6{fill:#F58C3E;}
	.st7{fill:#F37421;}
	.st8{fill:#CC6632;}
	.st9{fill:#E5E5E4;}
	.st10{fill:#B3B2B3;}
	.st11{fill:#808080;}
</style>
<g id="Layer_2">
	<g>
		<path class="st0" d="M832.1,237H12c-6.6,0-12-5.4-12-12V12C0,5.4,5.4,0,12,0h820.1c6.6,0,12,5.4,12,12v213
			C844.1,231.6,838.7,237,832.1,237z"/>
		<path class="st1" d="M844.1,22.3V12c0-6.6-5.4-12-12-12H12C5.4,0,0,5.4,0,12v213c0,6.6,5.4,12,12,12h48.1
			C148.1,165.8,386.6,17.6,844.1,22.3z"/>
	</g>
</g>
<g id="Layer_1">
	<g>
		<path class="st2" d="M295.4,34.4H310c3.2,0,5.6,0.8,7.1,2.3c1.6,1.5,2.4,3.7,2.4,6.4c0,2.9-0.9,5.1-2.6,6.7
			c-1.7,1.6-4.4,2.4-7.9,2.4h-4.8v10.5h-8.8V34.4z M304.2,46.5h2.1c1.7,0,2.9-0.3,3.6-0.9s1-1.3,1-2.3c0-0.9-0.3-1.6-0.9-2.3
			c-0.6-0.6-1.7-0.9-3.3-0.9h-2.5V46.5z"/>
		<path class="st2" d="M321.5,52.6c0-3.1,1.1-5.7,3.2-7.7c2.1-2,5-3,8.6-3c4.1,0,7.2,1.2,9.3,3.6c1.7,1.9,2.5,4.3,2.5,7.1
			c0,3.2-1,5.8-3.1,7.8c-2.1,2-5,3-8.7,3c-3.3,0-6-0.8-8-2.5C322.8,58.6,321.5,55.9,321.5,52.6z M329.4,52.5c0,1.8,0.4,3.2,1.1,4.1
			c0.7,0.9,1.7,1.3,2.8,1.3c1.1,0,2.1-0.4,2.8-1.3s1.1-2.3,1.1-4.2c0-1.8-0.4-3.1-1.1-4s-1.6-1.3-2.7-1.3c-1.1,0-2.1,0.4-2.8,1.3
			C329.8,49.4,329.4,50.7,329.4,52.5z"/>
		<path class="st2" d="M345.9,42.2h7.6l3.3,12.9l4.2-12.9h7.1l4.3,13l3.3-13h7.6l-7.6,20.6h-7l-4.2-12.4l-4,12.4h-7L345.9,42.2z"/>
		<path class="st2" d="M408,54.4h-15.8c0.1,1.3,0.5,2.2,1,2.8c0.8,0.9,1.8,1.3,3,1.3c0.8,0,1.5-0.2,2.2-0.6c0.4-0.2,0.9-0.7,1.4-1.3
			l7.8,0.7c-1.2,2.1-2.6,3.5-4.3,4.4c-1.7,0.9-4.1,1.3-7.2,1.3c-2.7,0-4.9-0.4-6.4-1.2c-1.6-0.8-2.9-2-3.9-3.7
			c-1-1.7-1.5-3.6-1.5-5.9c0-3.2,1-5.8,3.1-7.8c2.1-2,4.9-3,8.5-3c2.9,0,5.3,0.4,7,1.3s3,2.2,3.9,3.9s1.3,3.9,1.3,6.6V54.4z
			 M400,50.7c-0.2-1.5-0.6-2.6-1.2-3.3c-0.7-0.7-1.5-1-2.6-1c-1.3,0-2.3,0.5-3,1.5c-0.5,0.6-0.8,1.5-0.9,2.8H400z"/>
		<path class="st2" d="M411.7,42.2h7.4v3.4c0.7-1.5,1.4-2.5,2.2-3c0.8-0.5,1.7-0.8,2.8-0.8c1.2,0,2.4,0.4,3.8,1.1l-2.4,5.6
			c-0.9-0.4-1.7-0.6-2.2-0.6c-1,0-1.8,0.4-2.4,1.3c-0.8,1.2-1.2,3.4-1.2,6.7v6.9h-7.9V42.2z"/>
		<path class="st2" d="M452.7,54.4h-15.8c0.1,1.3,0.5,2.2,1,2.8c0.8,0.9,1.8,1.3,3,1.3c0.8,0,1.5-0.2,2.2-0.6
			c0.4-0.2,0.9-0.7,1.4-1.3l7.8,0.7c-1.2,2.1-2.6,3.5-4.3,4.4c-1.7,0.9-4.1,1.3-7.2,1.3c-2.7,0-4.9-0.4-6.4-1.2
			c-1.6-0.8-2.9-2-3.9-3.7c-1-1.7-1.5-3.6-1.5-5.9c0-3.2,1-5.8,3.1-7.8c2.1-2,4.9-3,8.5-3c2.9,0,5.3,0.4,7,1.3
			c1.7,0.9,3,2.2,3.9,3.9s1.3,3.9,1.3,6.6V54.4z M444.7,50.7c-0.2-1.5-0.6-2.6-1.2-3.3c-0.7-0.7-1.5-1-2.6-1c-1.3,0-2.3,0.5-3,1.5
			c-0.5,0.6-0.8,1.5-0.9,2.8H444.7z"/>
		<path class="st2" d="M477.9,34.4v28.4h-7.4v-3c-1,1.3-2,2.2-2.8,2.6c-1.1,0.6-2.4,0.9-3.8,0.9c-2.8,0-4.9-1.1-6.4-3.2
			c-1.5-2.1-2.2-4.7-2.2-7.8c0-3.4,0.8-6,2.4-7.8c1.6-1.8,3.7-2.7,6.2-2.7c1.2,0,2.3,0.2,3.3,0.6s1.9,1,2.7,1.9v-9.8H477.9z
			 M470,52.4c0-1.6-0.3-2.8-1-3.6c-0.7-0.8-1.5-1.2-2.6-1.2c-0.9,0-1.7,0.4-2.3,1.1s-0.9,2-0.9,3.8c0,1.7,0.3,2.9,1,3.7
			c0.6,0.8,1.4,1.2,2.4,1.2c1,0,1.8-0.4,2.5-1.2C469.7,55.5,470,54.2,470,52.4z"/>
		<path class="st2" d="M496.5,34.4h16.4c2.7,0,4.8,0.7,6.3,2c1.5,1.4,2.2,3,2.2,5c0,1.7-0.5,3.1-1.6,4.3c-0.7,0.8-1.7,1.4-3.1,1.9
			c2,0.5,3.5,1.3,4.5,2.5c1,1.2,1.4,2.7,1.4,4.5c0,1.5-0.3,2.8-1,4c-0.7,1.2-1.6,2.1-2.8,2.8c-0.7,0.4-1.8,0.7-3.3,0.9
			c-2,0.3-3.3,0.4-3.9,0.4h-15.1V34.4z M505.3,45.5h3.8c1.4,0,2.3-0.2,2.9-0.7c0.5-0.5,0.8-1.2,0.8-2c0-0.8-0.3-1.5-0.8-1.9
			c-0.5-0.5-1.5-0.7-2.8-0.7h-3.9V45.5z M505.3,56.7h4.5c1.5,0,2.6-0.3,3.2-0.8c0.6-0.5,0.9-1.3,0.9-2.2c0-0.8-0.3-1.5-0.9-2
			c-0.6-0.5-1.7-0.8-3.2-0.8h-4.5V56.7z"/>
		<path class="st2" d="M524.5,42.2h8.3l4.2,13.7l3.9-13.7h7.8l-8.2,22c-0.9,2.5-1.9,4.2-2.8,5.1c-1.4,1.2-3.4,1.9-6.2,1.9
			c-1.1,0-2.9-0.2-5.3-0.5l-0.6-5.5c1.1,0.4,2.4,0.5,3.8,0.5c0.9,0,1.7-0.2,2.3-0.6c0.6-0.4,1.1-1.2,1.5-2.3L524.5,42.2z"/>
	</g>
	<g>
		<g>
			<g>
				<g>
					<g class="st3">
						<path class="st4" d="M274,145.1v-41.6c0-0.8-0.4-1.2-1.1-1.2h-0.8c-0.7,0-1.1,0.3-1.4,1l-15.1,40.1c-0.2,0.7-0.6,1.2-1.1,1.4
							c-0.5,0.2-1.1,0.4-1.9,0.4h-18c-0.8,0-1.5-0.2-2-0.4c-0.5-0.2-0.8-0.7-1.1-1.4l-15-40.1c-0.2-0.7-0.8-1-1.4-1h-0.8
							c-0.8,0-1.2,0.4-1.2,1.2v41.6h-14.7V92c0-1.5,0.7-2.3,2.1-2.3h25c1.6,0,2.7,0.7,3.2,2l13.6,39.5c0.1,0.3,0.3,0.5,0.8,0.5h1.4
							c0.3,0,0.5-0.2,0.6-0.5l13.7-39.5c0.2-0.7,0.6-1.1,1.1-1.5c0.5-0.4,1.1-0.5,2-0.5h24.7c1.4,0,2.1,0.8,2.1,2.3v53.1H274z"/>
						<path class="st4" d="M331.5,140.1h0.5v-36.8h13.8v42.6c0,2.4-0.3,4.7-0.9,6.6c-0.6,2-1.5,3.7-2.9,5.1
							c-1.3,1.4-3.1,2.5-5.2,3.3c-2.2,0.8-4.8,1.2-8.1,1.2h-31.7v-11.6h29.6c2,0,3.3-0.5,4.2-1.4c0.8-0.9,1.2-2.3,1.2-4.2v-3.3
							h-19.7c-6.3,0-10.6-1.3-13.2-3.8c-2.6-2.5-3.8-6.3-3.8-11.5v-23.1h13.8v21.3c0,2.3,0.5,3.8,1.3,4.7c0.8,0.8,2.4,1.3,4.5,1.3
							h12.8L331.5,140.1z"/>
					</g>
					<g class="st3">
						<path class="st5" d="M404,111.8h-0.6v-7.5c0-0.5-0.2-0.8-0.7-0.8h-26.4c-3,0-5.2,0.6-6.4,1.9c-1.2,1.3-1.9,3.6-1.9,7v9.3
							c0,3.3,0.6,5.6,1.8,6.9c1.2,1.4,3.4,2,6.5,2h41.4v14.3h-42.8c-4.1,0-7.6-0.5-10.5-1.6c-2.9-1.1-5.2-2.5-7-4.4
							c-1.8-1.9-3.1-4.2-3.8-6.9c-0.8-2.7-1.2-5.7-1.2-9.1v-11.4c0-3.3,0.4-6.3,1.2-9.1c0.8-2.7,2.1-5,3.8-6.9
							c1.7-1.9,4.1-3.4,7-4.4c2.9-1.1,6.4-1.6,10.5-1.6h41.4c1.4,0,2.2,0.8,2.2,2.3v14.3L404,111.8z"/>
						<path class="st5" d="M424.7,85.8h13.7v17.6h20.3c3.1,0,5.7,0.4,7.9,1.2c2.2,0.8,3.9,1.9,5.3,3.3c1.4,1.4,2.3,3.2,2.9,5.2
							c0.6,2,0.9,4.3,0.9,6.9v25.1H462v-24.2c0-2.4-0.5-4.2-1.5-5.1c-1-1-2.4-1.4-4.4-1.4h-14.9l-2.3-6.1h-0.5v36.8h-13.7
							L424.7,85.8L424.7,85.8z"/>
						<path class="st5" d="M496.2,121.2h-0.5v6.5c0,2.4,0.4,4,1.2,4.9c0.8,0.9,2.3,1.4,4.5,1.4h29.7v11.1h-32.3
							c-3.1,0-5.7-0.4-7.8-1.2c-2.2-0.8-3.9-1.9-5.3-3.3c-1.4-1.4-2.3-3.2-2.9-5.2c-0.6-2-0.9-4.3-0.9-6.9v-8.6
							c0-2.6,0.3-4.8,0.9-6.9c0.6-2,1.6-3.8,2.9-5.2s3.1-2.6,5.3-3.3s4.8-1.2,7.8-1.2h24.1c3.2,0,5.4,0.8,6.9,2.5
							c1.4,1.7,2,4.2,2,7.7v4c0,3.1-0.7,5.5-2,7.4c-1.4,1.8-3.6,2.7-6.9,2.7h-24.4L496.2,121.2z M495.6,119.2h21
							c1.6,0,2.3-0.8,2.3-2.4v-1.5c0-0.8-0.2-1.4-0.6-1.8s-1-0.5-1.8-0.5h-15.2c-2.1,0-3.6,0.5-4.5,1.4c-0.8,0.9-1.3,2.5-1.3,4.8
							L495.6,119.2L495.6,119.2z"/>
						<path class="st5" d="M580.1,103.4h21.5c3.1,0,5.7,0.4,7.9,1.2c2.2,0.8,3.9,1.9,5.3,3.3c1.4,1.4,2.3,3.2,2.9,5.2
							c0.6,2,0.9,4.3,0.9,6.9v25.1h-13.7v-24.3c0-2.4-0.5-4.2-1.4-5.1c-0.9-0.9-2.4-1.4-4.4-1.4h-12.9c0.5,1.6,0.8,3.5,0.8,5.7v25.1
							h-13.7v-24.3c0-2.4-0.5-4.2-1.4-5.1c-0.9-0.9-2.4-1.4-4.4-1.4h-13.2l-2.3-6.1h-0.5V145h-13.7v-41.7h32.3c3,0,5.4,0.4,7.5,1.2
							c2,0.8,3.7,1.9,5.1,3.2l0.3-0.2c-0.5-0.5-0.9-1.1-1.4-1.7s-0.9-1.2-1.3-1.9v-0.6C580.3,103.4,580.1,103.4,580.1,103.4z"/>
					</g>
					<g class="st3">
						<path class="st4" d="M625.4,145.1v-12.6h13.7v12.6H625.4z"/>
						<path class="st4" d="M646.2,96.8v-11H660v11H646.2z M646.2,145.1v-41.7H660v41.7H646.2z"/>
						<path class="st4" d="M667,103.4h34c3.1,0,5.7,0.4,7.9,1.2c2.2,0.8,3.9,1.9,5.3,3.3c1.4,1.4,2.3,3.2,2.9,5.2
							c0.6,2,0.9,4.3,0.9,6.9v25.1h-13.7v-24.2c0-2.4-0.5-4.2-1.4-5.1c-0.9-1-2.4-1.4-4.5-1.4h-14.9l-2.3-6.1h-0.5v36.8h-13.7v-41.7
							H667z"/>
						<path class="st4" d="M754.4,113.9h-12.1v31.2h-13.7v-31.2h-5.7l-3.6-9.9v-0.6h9.3v-5c0-2.5,0.2-4.5,0.8-6.1s1.4-2.9,2.6-3.8
							c1.2-1,2.8-1.7,4.7-2c2-0.4,4.4-0.6,7.2-0.6h6.2l3.7,9.4v0.7h-8.1c-1.3,0-2.2,0.3-2.6,0.9c-0.5,0.6-0.7,1.6-0.7,2.9v3.7h12.1
							L754.4,113.9L754.4,113.9z"/>
						<path class="st4" d="M811.6,128.5c0,2.6-0.3,4.8-0.9,6.9s-1.6,3.8-2.9,5.2c-1.4,1.4-3.2,2.6-5.3,3.3c-2.2,0.8-4.8,1.2-7.9,1.2
							h-20.1c-3.1,0-5.7-0.4-7.8-1.2c-2.2-0.8-3.9-1.9-5.3-3.3c-1.4-1.4-2.3-3.2-2.9-5.2c-0.6-2-0.9-4.3-0.9-6.9v-8.6
							c0-2.5,0.3-4.8,0.9-6.8c0.6-2,1.6-3.8,2.9-5.2c1.4-1.4,3.1-2.6,5.3-3.3c2.2-0.8,4.8-1.2,7.8-1.2h20.1c3.1,0,5.7,0.4,7.9,1.2
							c2.2,0.8,3.9,1.9,5.3,3.3c1.4,1.4,2.3,3.2,2.9,5.2c0.6,2,0.9,4.3,0.9,6.8V128.5z M792.1,132.8c2.2,0,3.7-0.5,4.5-1.3
							s1.3-2.5,1.3-4.8v-5.9c0-2.6-0.5-4.2-1.4-5.1c-0.9-0.9-2.4-1.4-4.5-1.4h-14.9c-2.2,0-3.7,0.5-4.5,1.4
							c-0.8,0.9-1.3,2.6-1.3,5.1v5.9c0,2.4,0.5,4,1.3,4.8c0.8,0.8,2.3,1.3,4.5,1.3L792.1,132.8L792.1,132.8z"/>
					</g>
				</g>
			</g>
		</g>
		<g>
			<g>
				<g>
					<g>
						<g>
							<polygon class="st6" points="121.3,96.6 107.6,120.2 121.3,143.7 134.9,120.2 							"/>
						</g>
						<g>
							<polygon class="st7" points="94.1,96.6 80.5,120.2 107.6,120.2 121.3,96.6 							"/>
						</g>
						<g>
							<polygon class="st8" points="80.5,120.2 107.6,120.2 121.3,143.7 94.1,143.7 							"/>
						</g>
					</g>
					<g>
						<g>
							<polygon class="st9" points="121.3,49.5 107.6,73 121.3,96.6 134.9,73 							"/>
						</g>
						<g>
							<polygon class="st10" points="94.1,49.5 80.5,73 107.6,73 121.3,49.5 							"/>
						</g>
						<g>
							<polygon class="st11" points="80.5,73 107.6,73 121.3,96.6 94.1,96.6 							"/>
						</g>
					</g>
					<g>
						<g>
							<polygon class="st9" points="162.1,120.2 148.5,143.7 162.1,167.4 175.7,143.7 							"/>
						</g>
						<g>
							<polygon class="st10" points="134.9,120.2 121.3,143.7 148.5,143.7 162.1,120.2 							"/>
						</g>
						<g>
							<polygon class="st11" points="121.3,143.7 148.5,143.7 162.1,167.4 134.9,167.4 							"/>
						</g>
					</g>
					<g>
						<g>
							<polygon class="st9" points="162.1,73 148.5,96.6 162.1,120.2 175.7,96.6 							"/>
						</g>
						<g>
							<polygon class="st10" points="134.9,73 121.3,96.6 148.5,96.6 162.1,73 							"/>
						</g>
						<g>
							<polygon class="st11" points="121.3,96.6 148.5,96.6 162.1,120.2 134.9,120.2 							"/>
						</g>
					</g>
					<g>
						<g>
							<polygon class="st6" points="80.5,120.2 67,143.7 80.5,167.4 94.1,143.7 							"/>
						</g>
						<g>
							<polygon class="st7" points="53.4,120.2 39.7,143.7 67,143.7 80.5,120.2 							"/>
						</g>
						<g>
							<polygon class="st8" points="39.7,143.7 67,143.7 80.5,167.4 53.4,167.4 							"/>
						</g>
					</g>
					<g>
						<g>
							<polygon class="st6" points="80.5,73 67,96.6 80.5,120.2 94.1,96.6 							"/>
						</g>
						<g>
							<polygon class="st7" points="53.4,73 39.7,96.6 67,96.6 80.5,73 							"/>
						</g>
						<g>
							<polygon class="st8" points="39.7,96.6 67,96.6 80.5,120.2 53.4,120.2 							"/>
						</g>
					</g>
					<g>
						<g>
							<polygon class="st9" points="121.3,143.7 107.6,167.4 121.3,190.9 134.9,167.4 							"/>
						</g>
						<g>
							<polygon class="st10" points="94.1,143.7 80.5,167.4 107.6,167.4 121.3,143.7 							"/>
						</g>
						<g>
							<polygon class="st11" points="80.5,167.4 107.6,167.4 121.3,190.9 94.1,190.9 							"/>
						</g>
					</g>
				</g>
			</g>
		</g>
	</g>
</g>
</svg>
