<?xml version="1.0" encoding="utf-8"?>
<!-- Generator: Adobe Illustrator 24.2.1, SVG Export Plug-In . SVG Version: 6.00 Build 0)  -->
<svg version="1.1" id="Layer_1" xmlns="http://www.w3.org/2000/svg" xmlns:xlink="http://www.w3.org/1999/xlink" x="0px" y="0px"
	 viewBox="0 0 844.1 237" style="enable-background:new 0 0 844.1 237;" xml:space="preserve">
<style type="text/css">
	.st0{fill:#383838;}
	.st1{fill:#2B2B2B;}
	.st2{fill:#E2E2E2;}
	.st3{fill:#F7F7F7;}
	.st4{fill:#A267E5;}
	.st5{fill:#772FDD;}
	.st6{fill:#4B1499;}
	.st7{fill:#B3B3B3;}
	.st8{fill:#E6E6E6;}
	.st9{fill:#808080;}
</style>
<g id="Layer_2_1_">
	<g>
		<path class="st0" d="M832.1,237H12c-6.6,0-12-5.4-12-12V12C0,5.4,5.4,0,12,0h820.1c6.6,0,12,5.4,12,12v213
			C844.1,231.6,838.7,237,832.1,237z"/>
		<path class="st1" d="M844.1,22.3V12c0-6.6-5.4-12-12-12H12C5.4,0,0,5.4,0,12v213c0,6.6,5.4,12,12,12h48.1
			C148.1,165.8,386.6,17.6,844.1,22.3z"/>
	</g>
</g>
<g>
	<path class="st2" d="M295.4,34.4H310c3.2,0,5.6,0.8,7.1,2.3c1.6,1.5,2.4,3.7,2.4,6.4c0,2.9-0.9,5.1-2.6,6.7
		c-1.7,1.6-4.4,2.4-7.9,2.4h-4.8v10.5h-8.8L295.4,34.4L295.4,34.4z M304.2,46.5h2.1c1.7,0,2.9-0.3,3.6-0.9s1-1.3,1-2.3
		c0-0.9-0.3-1.6-0.9-2.3c-0.6-0.6-1.7-0.9-3.3-0.9h-2.5L304.2,46.5L304.2,46.5z"/>
	<path class="st2" d="M321.5,52.6c0-3.1,1.1-5.7,3.2-7.7s5-3,8.6-3c4.1,0,7.2,1.2,9.3,3.6c1.7,1.9,2.5,4.3,2.5,7.1
		c0,3.2-1,5.8-3.1,7.8s-5,3-8.7,3c-3.3,0-6-0.8-8-2.5C322.8,58.6,321.5,55.9,321.5,52.6z M329.4,52.5c0,1.8,0.4,3.2,1.1,4.1
		c0.7,0.9,1.7,1.3,2.8,1.3c1.1,0,2.1-0.4,2.8-1.3s1.1-2.3,1.1-4.2c0-1.8-0.4-3.1-1.1-4s-1.6-1.3-2.7-1.3s-2.1,0.4-2.8,1.3
		C329.8,49.4,329.4,50.7,329.4,52.5z"/>
	<path class="st2" d="M345.9,42.2h7.6l3.3,12.9l4.2-12.9h7.1l4.3,13l3.3-13h7.6l-7.6,20.6h-7l-4.2-12.4l-4,12.4h-7L345.9,42.2z"/>
	<path class="st2" d="M408,54.4h-15.8c0.1,1.3,0.5,2.2,1,2.8c0.8,0.9,1.8,1.3,3,1.3c0.8,0,1.5-0.2,2.2-0.6c0.4-0.2,0.9-0.7,1.4-1.3
		l7.8,0.7c-1.2,2.1-2.6,3.5-4.3,4.4c-1.7,0.9-4.1,1.3-7.2,1.3c-2.7,0-4.9-0.4-6.4-1.2c-1.6-0.8-2.9-2-3.9-3.7s-1.5-3.6-1.5-5.9
		c0-3.2,1-5.8,3.1-7.8s4.9-3,8.5-3c2.9,0,5.3,0.4,7,1.3s3,2.2,3.9,3.9s1.3,3.9,1.3,6.6v1.2H408z M400,50.7c-0.2-1.5-0.6-2.6-1.2-3.3
		c-0.7-0.7-1.5-1-2.6-1c-1.3,0-2.3,0.5-3,1.5c-0.5,0.6-0.8,1.5-0.9,2.8H400z"/>
	<path class="st2" d="M411.7,42.2h7.4v3.4c0.7-1.5,1.4-2.5,2.2-3c0.8-0.5,1.7-0.8,2.8-0.8c1.2,0,2.4,0.4,3.8,1.1l-2.4,5.6
		c-0.9-0.4-1.7-0.6-2.2-0.6c-1,0-1.8,0.4-2.4,1.3c-0.8,1.2-1.2,3.4-1.2,6.7v6.9h-7.9L411.7,42.2L411.7,42.2z"/>
	<path class="st2" d="M452.7,54.4h-15.8c0.1,1.3,0.5,2.2,1,2.8c0.8,0.9,1.8,1.3,3,1.3c0.8,0,1.5-0.2,2.2-0.6
		c0.4-0.2,0.9-0.7,1.4-1.3l7.8,0.7c-1.2,2.1-2.6,3.5-4.3,4.4c-1.7,0.9-4.1,1.3-7.2,1.3c-2.7,0-4.9-0.4-6.4-1.2
		c-1.6-0.8-2.9-2-3.9-3.7s-1.5-3.6-1.5-5.9c0-3.2,1-5.8,3.1-7.8s4.9-3,8.5-3c2.9,0,5.3,0.4,7,1.3c1.7,0.9,3,2.2,3.9,3.9
		s1.3,3.9,1.3,6.6v1.2H452.7z M444.7,50.7c-0.2-1.5-0.6-2.6-1.2-3.3c-0.7-0.7-1.5-1-2.6-1c-1.3,0-2.3,0.5-3,1.5
		c-0.5,0.6-0.8,1.5-0.9,2.8H444.7z"/>
	<path class="st2" d="M477.9,34.4v28.4h-7.4v-3c-1,1.3-2,2.2-2.8,2.6c-1.1,0.6-2.4,0.9-3.8,0.9c-2.8,0-4.9-1.1-6.4-3.2
		c-1.5-2.1-2.2-4.7-2.2-7.8c0-3.4,0.8-6,2.4-7.8s3.7-2.7,6.2-2.7c1.2,0,2.3,0.2,3.3,0.6s1.9,1,2.7,1.9v-9.8h8V34.4z M470,52.4
		c0-1.6-0.3-2.8-1-3.6s-1.5-1.2-2.6-1.2c-0.9,0-1.7,0.4-2.3,1.1s-0.9,2-0.9,3.8c0,1.7,0.3,2.9,1,3.7c0.6,0.8,1.4,1.2,2.4,1.2
		s1.8-0.4,2.5-1.2C469.7,55.5,470,54.2,470,52.4z"/>
	<path class="st2" d="M496.5,34.4h16.4c2.7,0,4.8,0.7,6.3,2c1.5,1.4,2.2,3,2.2,5c0,1.7-0.5,3.1-1.6,4.3c-0.7,0.8-1.7,1.4-3.1,1.9
		c2,0.5,3.5,1.3,4.5,2.5s1.4,2.7,1.4,4.5c0,1.5-0.3,2.8-1,4s-1.6,2.1-2.8,2.8c-0.7,0.4-1.8,0.7-3.3,0.9c-2,0.3-3.3,0.4-3.9,0.4
		h-15.1L496.5,34.4L496.5,34.4z M505.3,45.5h3.8c1.4,0,2.3-0.2,2.9-0.7c0.5-0.5,0.8-1.2,0.8-2s-0.3-1.5-0.8-1.9
		c-0.5-0.5-1.5-0.7-2.8-0.7h-3.9L505.3,45.5L505.3,45.5z M505.3,56.7h4.5c1.5,0,2.6-0.3,3.2-0.8c0.6-0.5,0.9-1.3,0.9-2.2
		c0-0.8-0.3-1.5-0.9-2c-0.6-0.5-1.7-0.8-3.2-0.8h-4.5V56.7z"/>
	<path class="st2" d="M524.5,42.2h8.3l4.2,13.7l3.9-13.7h7.8l-8.2,22c-0.9,2.5-1.9,4.2-2.8,5.1c-1.4,1.2-3.4,1.9-6.2,1.9
		c-1.1,0-2.9-0.2-5.3-0.5l-0.6-5.5c1.1,0.4,2.4,0.5,3.8,0.5c0.9,0,1.7-0.2,2.3-0.6s1.1-1.2,1.5-2.3L524.5,42.2z"/>
</g>
<g>
	<path class="st3" d="M250.3,143.5v-37c0-0.7-0.3-1.1-1-1.1h-0.7c-0.6,0-1,0.3-1.2,0.9l-13.5,35.6c-0.2,0.6-0.5,1-0.9,1.2
		c-0.4,0.2-1,0.3-1.7,0.3h-16c-0.8,0-1.3-0.1-1.7-0.3c-0.4-0.2-0.7-0.6-0.9-1.2l-13.4-35.6c-0.2-0.6-0.7-0.9-1.3-0.9h-0.7
		c-0.7,0-1.1,0.4-1.1,1.1v37h-13V96.3c0-1.4,0.6-2,1.9-2h22.2c1.4,0,2.4,0.6,2.8,1.8l12.1,35.2c0,0.3,0.3,0.4,0.7,0.4h1.2
		c0.3,0,0.4-0.1,0.5-0.4l12.2-35.2c0.2-0.6,0.6-1,1-1.4c0.4-0.3,1-0.5,1.8-0.5h22c1.3,0,1.9,0.7,1.9,2v47.2H250.3z"/>
	<path class="st3" d="M301.5,139.1h0.5v-32.7h12.3v37.9c0,2.2-0.3,4.1-0.8,5.9c-0.5,1.8-1.4,3.3-2.5,4.6c-1.2,1.3-2.7,2.2-4.7,2.9
		c-1.9,0.7-4.3,1-7.2,1h-28.2v-10.3h26.3c1.8,0,3-0.4,3.7-1.2c0.7-0.8,1-2,1-3.8v-3h-17.5c-5.5,0-9.5-1.1-11.8-3.3
		c-2.3-2.2-3.4-5.6-3.4-10.2v-20.5h12.3v18.9c0,2,0.4,3.4,1.1,4.2c0.8,0.7,2.1,1.1,4.1,1.1h11.4L301.5,139.1z"/>
	<path class="st4" d="M320.6,96.3c0-1.4,0.6-2,1.9-2h36.9c3.6,0,6.8,0.5,9.3,1.4c2.6,0.9,4.6,2.2,6.2,3.9c1.6,1.7,2.7,3.7,3.4,6.1
		c0.7,2.4,1.1,5.1,1.1,8.1V124c0,3-0.4,5.7-1.1,8.1c-0.7,2.4-1.9,4.5-3.4,6.2c-1.6,1.7-3.7,3-6.2,3.9c-2.6,0.9-5.7,1.4-9.3,1.4
		h-19.9l-4.5-11.5h-0.5v11.5h-13.9V96.3z M334.5,130.7h23.6c2.7,0,4.6-0.6,5.7-1.8c1.1-1.2,1.7-3.2,1.7-6.2v-8.2
		c0-3.1-0.6-5.1-1.7-6.3c-1.1-1.1-3-1.7-5.7-1.7h-22.6c-0.3,0-0.6,0.1-0.7,0.3c-0.2,0.2-0.3,0.4-0.3,0.7V130.7z"/>
	<path class="st4" d="M385.1,100.6v-9.8h12.2v9.8H385.1z M385.1,143.5v-37.1h12.2v37.1H385.1z"/>
	<path class="st4" d="M403,133.1h30.4c0.7,0,1.2-0.1,1.5-0.4c0.3-0.3,0.4-0.8,0.4-1.5v-0.8c0-0.5-0.1-0.9-0.3-1.1
		c-0.2-0.2-0.5-0.4-1.1-0.4l-23.1-2c-2.8-0.2-4.9-1.1-6.3-2.6c-1.4-1.5-2-3.6-2-6.2v-3c0-2.7,0.7-4.8,2.2-6.4
		c1.5-1.6,3.9-2.3,7.3-2.3h33.5c1.1,0,1.7,0.6,1.7,1.7v8.3l-10.5,3.9h-0.5V116c0-0.4-0.2-0.5-0.5-0.5h-19.3c-0.7,0-1.1,0.1-1.4,0.4
		c-0.3,0.3-0.4,0.7-0.4,1.4v1c0,0.6,0.1,1,0.3,1.2c0.2,0.2,0.6,0.3,1.1,0.4l23.6,2.3c1.6,0.1,2.9,0.4,3.9,0.9c1,0.5,1.9,1,2.5,1.8
		c0.6,0.7,1.1,1.7,1.3,2.7c0.2,1.1,0.4,2.3,0.4,3.8v2.8c0,3-0.8,5.3-2.3,6.9c-1.6,1.6-4.3,2.4-8.3,2.4H403V133.1z"/>
	<path class="st4" d="M465.8,122.3h-0.5v5.7c0,2.1,0.4,3.6,1.1,4.4s2.1,1.2,4.1,1.2h26.4v9.9h-28.7c-2.7,0-5.1-0.3-7-1
		c-1.9-0.7-3.5-1.7-4.7-3c-1.2-1.3-2.1-2.8-2.6-4.6c-0.5-1.8-0.8-3.8-0.8-6.1v-7.6c0-2.3,0.3-4.3,0.8-6.1c0.5-1.8,1.4-3.3,2.6-4.6
		c1.2-1.3,2.8-2.3,4.7-3c1.9-0.7,4.2-1,7-1h21.4c2.8,0,4.9,0.7,6.1,2.2c1.2,1.5,1.8,3.8,1.8,6.9v3.6c0,2.8-0.6,4.9-1.8,6.6
		c-1.2,1.6-3.2,2.4-6.1,2.4h-21.7L465.8,122.3z M465.3,120.5H484c1.4,0,2.1-0.7,2.1-2.2V117c0-0.8-0.2-1.3-0.5-1.6
		c-0.3-0.3-0.9-0.5-1.6-0.5h-13.5c-1.9,0-3.2,0.4-4,1.2c-0.8,0.8-1.1,2.2-1.1,4.2V120.5z"/>
	<path class="st4" d="M502.6,115.6v-9.2H537c2.4,0,4.2,0.7,5.4,2c1.1,1.4,1.7,3.3,1.7,5.9v27.6c0,1.1-0.5,1.6-1.6,1.6h-32.4
		c-1.4,0-2.6-0.2-3.6-0.5c-1.1-0.3-2-0.9-2.7-1.7c-0.7-0.8-1.3-1.9-1.7-3.2c-0.4-1.3-0.6-3-0.6-5v-2.8c0-3.5,0.8-6,2.3-7.5
		c1.5-1.5,3.6-2.3,6.3-2.3h18.9l2.3,5.5h0.5v-7.5c0-1-0.2-1.8-0.6-2.2c-0.4-0.5-1.1-0.7-1.9-0.7H502.6z M531.1,134.3
		c0.5,0,0.7-0.3,0.7-0.8v-5.7h-16.1c-0.8,0-1.4,0.2-1.7,0.6c-0.3,0.4-0.5,1-0.5,1.8v1.6c0,0.8,0.2,1.4,0.5,1.8
		c0.3,0.4,0.9,0.6,1.7,0.6H531.1z"/>
	<path class="st4" d="M549.5,133.1h30.4c0.7,0,1.2-0.1,1.5-0.4c0.3-0.3,0.4-0.8,0.4-1.5v-0.8c0-0.5-0.1-0.9-0.3-1.1
		c-0.2-0.2-0.5-0.4-1.1-0.4l-23.1-2c-2.8-0.2-4.9-1.1-6.3-2.6c-1.4-1.5-2-3.6-2-6.2v-3c0-2.7,0.7-4.8,2.2-6.4
		c1.5-1.6,3.9-2.3,7.3-2.3H592c1.1,0,1.7,0.6,1.7,1.7v8.3l-10.5,3.9h-0.5V116c0-0.4-0.2-0.5-0.5-0.5h-19.3c-0.7,0-1.1,0.1-1.4,0.4
		c-0.3,0.3-0.4,0.7-0.4,1.4v1c0,0.6,0.1,1,0.3,1.2c0.2,0.2,0.6,0.3,1.1,0.4l23.6,2.3c1.6,0.1,2.9,0.4,3.9,0.9c1,0.5,1.9,1,2.5,1.8
		c0.6,0.7,1.1,1.7,1.3,2.7c0.2,1.1,0.4,2.3,0.4,3.8v2.8c0,3-0.8,5.3-2.3,6.9c-1.6,1.6-4.3,2.4-8.3,2.4h-34.1V133.1z"/>
	<path class="st4" d="M612.3,122.3h-0.5v5.7c0,2.1,0.4,3.6,1.1,4.4s2.1,1.2,4.1,1.2h26.4v9.9h-28.7c-2.7,0-5.1-0.3-7-1
		c-1.9-0.7-3.5-1.7-4.7-3c-1.2-1.3-2.1-2.8-2.6-4.6c-0.5-1.8-0.8-3.8-0.8-6.1v-7.6c0-2.3,0.3-4.3,0.8-6.1c0.5-1.8,1.4-3.3,2.6-4.6
		c1.2-1.3,2.8-2.3,4.7-3c1.9-0.7,4.2-1,7-1h21.4c2.8,0,4.9,0.7,6.1,2.2c1.2,1.5,1.8,3.8,1.8,6.9v3.6c0,2.8-0.6,4.9-1.8,6.6
		c-1.2,1.6-3.2,2.4-6.1,2.4h-21.7L612.3,122.3z M611.8,120.5h18.7c1.4,0,2.1-0.7,2.1-2.2V117c0-0.8-0.2-1.3-0.5-1.6
		c-0.3-0.3-0.9-0.5-1.6-0.5h-13.5c-1.9,0-3.2,0.4-4,1.2c-0.8,0.8-1.1,2.2-1.1,4.2V120.5z"/>
	<path class="st3" d="M649.2,143.5v-11.2h12.2v11.2H649.2z"/>
	<path class="st3" d="M667.7,100.6v-9.8h12.2v9.8H667.7z M667.7,143.5v-37.1h12.2v37.1H667.7z"/>
	<path class="st3" d="M686.2,106.4h30.3c2.7,0,5.1,0.3,7,1c1.9,0.7,3.5,1.7,4.7,3c1.2,1.3,2.1,2.8,2.6,4.6c0.5,1.8,0.8,3.8,0.8,6.1
		v22.4h-12.2v-21.6c0-2.2-0.4-3.7-1.2-4.5c-0.8-0.9-2.1-1.3-4-1.3H701l-2-5.4h-0.5v32.8h-12.2V106.4z"/>
	<path class="st3" d="M764,115.7h-10.8v27.8H741v-27.8h-5l-3.2-8.8v-0.5h8.2v-4.5c0-2.2,0.2-4,0.7-5.4c0.4-1.4,1.2-2.6,2.3-3.4
		c1.1-0.9,2.5-1.5,4.2-1.8c1.7-0.3,3.9-0.5,6.5-0.5h5.5l3.3,8.3v0.6h-7.2c-1.2,0-2,0.3-2.4,0.8c-0.4,0.5-0.6,1.4-0.6,2.6v3.3H764
		V115.7z"/>
	<path class="st3" d="M814.9,128.8c0,2.3-0.3,4.3-0.8,6.1c-0.5,1.8-1.4,3.3-2.6,4.6c-1.2,1.3-2.8,2.3-4.7,3c-1.9,0.7-4.3,1-7,1
		h-17.8c-2.7,0-5.1-0.3-7-1c-1.9-0.7-3.5-1.7-4.7-3c-1.2-1.3-2.1-2.8-2.6-4.6c-0.5-1.8-0.8-3.8-0.8-6.1v-7.6c0-2.2,0.3-4.2,0.8-6
		c0.5-1.8,1.4-3.4,2.6-4.7c1.2-1.3,2.8-2.3,4.7-3c1.9-0.7,4.2-1,7-1h17.8c2.8,0,5.1,0.3,7,1c1.9,0.7,3.5,1.7,4.7,3
		c1.2,1.3,2.1,2.8,2.6,4.7c0.5,1.8,0.8,3.8,0.8,6V128.8z M797.5,132.6c1.9,0,3.3-0.4,4.1-1.1c0.8-0.8,1.1-2.2,1.1-4.3v-5.2
		c0-2.3-0.4-3.8-1.2-4.6c-0.8-0.8-2.1-1.2-4-1.2h-13.3c-1.9,0-3.3,0.4-4,1.2c-0.7,0.8-1.1,2.4-1.1,4.6v5.2c0,2.1,0.4,3.6,1.1,4.3
		c0.7,0.8,2.1,1.1,4,1.1H797.5z"/>
</g>
<g>
	<g>
		<g>
			<g>
				<polygon class="st5" points="151.5,74.9 136,97.6 114.1,97.6 129.6,74.9 				"/>
			</g>
		</g>
		<g>
			<g>
				<polygon class="st4" points="151.5,74.9 167.3,97.6 151.6,120.3 136,97.6 				"/>
			</g>
		</g>
		<g>
			<polygon class="st6" points="136,97.6 151.6,120.3 129.9,120.3 114.1,97.6 			"/>
		</g>
	</g>
	<g>
		<g>
			<polygon class="st7" points="76.7,120.3 61,143 39.1,143 54.9,120.3 			"/>
		</g>
		<g>
			<polygon class="st8" points="76.7,120.3 92.3,143 76.5,165.8 61,143 			"/>
		</g>
		<g>
			<polygon class="st9" points="61,143 76.5,165.8 54.7,165.8 39.1,143 			"/>
		</g>
	</g>
	<g>
		<g>
			<polygon class="st5" points="114.1,143 98.3,165.8 76.5,165.8 92.3,143 			"/>
		</g>
		<g>
			<polygon class="st4" points="114.1,143 129.8,165.7 113.9,188.5 98.3,165.8 			"/>
		</g>
		<g>
			<polygon class="st6" points="98.3,165.8 113.9,188.5 92,188.5 76.5,165.8 			"/>
		</g>
	</g>
	<g>
		<g>
			<polygon class="st5" points="151.5,120.3 136,143 114.1,143 129.9,120.3 			"/>
		</g>
		<g>
			<polygon class="st4" points="151.5,120.3 167.3,143 151.5,165.7 136,143 			"/>
		</g>
		<g>
			<polygon class="st6" points="136,143 151.5,165.7 129.7,165.7 114.1,143 			"/>
		</g>
	</g>
	<g>
		<g>
			<polygon class="st7" points="76.8,74.8 61.3,97.5 39.4,97.5 54.9,74.8 			"/>
		</g>
		<g>
			<polygon class="st8" points="76.8,74.8 92.3,97.6 76.8,120.3 61.3,97.5 			"/>
		</g>
		<g>
			<polygon class="st9" points="61.3,97.5 76.7,120.3 54.9,120.3 39.4,97.5 			"/>
		</g>
	</g>
	<g>
		<g>
			<g>
				<polygon class="st7" points="114.1,97.6 98.5,120.3 76.7,120.3 92.3,97.6 				"/>
			</g>
		</g>
		<g>
			<g>
				<polygon class="st8" points="114.1,97.6 129.9,120.3 114.1,143 98.5,120.3 				"/>
			</g>
		</g>
		<g>
			<polygon class="st9" points="98.5,120.3 114.1,143 92.3,143 76.7,120.3 			"/>
		</g>
	</g>
	<g>
		<g>
			<g>
				<polygon class="st5" points="114.3,52.5 98.7,75.2 76.8,74.8 92.4,52.5 				"/>
			</g>
		</g>
		<g>
			<g>
				<polygon class="st4" points="114.3,52.5 129.8,74.8 114.1,97.6 98.5,74.8 				"/>
			</g>
		</g>
		<g>
			<polygon class="st6" points="98.6,74.8 114.1,97.6 92.3,97.6 76.8,74.8 			"/>
		</g>
	</g>
</g>
</svg>
