<?xml version="1.0" encoding="utf-8"?>
<!-- Generator: Adobe Illustrator 24.2.1, SVG Export Plug-In . SVG Version: 6.00 Build 0)  -->
<svg version="1.1" id="Layer_1" xmlns="http://www.w3.org/2000/svg" xmlns:xlink="http://www.w3.org/1999/xlink" x="0px" y="0px"
	 viewBox="0 0 118 20" style="enable-background:new 0 0 118 20;" xml:space="preserve">
<style type="text/css">
	.st0{fill:#772FDD;}
	.st1{fill:#FFFFFF;}
</style>
<path class="st0" d="M115.7,20H2.3C1,20,0,19,0,17.7V2.3C0,1,1,0,2.3,0h113.4c1.3,0,2.3,1,2.3,2.3v15.4C118,19,117,20,115.7,20z"/>
<g>
	<path class="st1" d="M7.4,8c0.3,0,0.6-0.1,1-0.1c0.5,0,0.9,0.1,1.1,0.3c0.3,0.3,0.4,0.5,0.4,0.9S9.8,9.8,9.6,10
		c-0.3,0.3-0.7,0.4-1.2,0.4c-0.2,0-0.3,0-0.4,0V12H7.4V8z M7.9,9.9c0.1,0,0.3,0,0.4,0c0.6,0,1-0.3,1-0.9c0-0.5-0.4-0.8-1-0.8
		c-0.2,0-0.4,0-0.5,0v1.7H7.9z"/>
	<path class="st1" d="M13.1,10.5c0,1.1-0.7,1.5-1.4,1.5c-0.8,0-1.4-0.6-1.4-1.5c0-1,0.6-1.5,1.4-1.5C12.5,9,13.1,9.6,13.1,10.5z
		 M10.8,10.5c0,0.6,0.4,1.1,0.9,1.1s0.9-0.5,0.9-1.1c0-0.5-0.2-1.1-0.9-1.1C11,9.4,10.8,10,10.8,10.5z"/>
	<path class="st1" d="M13.9,9.1l0.4,1.5c0.1,0.3,0.2,0.6,0.2,0.9l0,0c0.1-0.3,0.2-0.6,0.3-0.9l0.4-1.5h0.4l0.5,1.5
		c0.1,0.3,0.2,0.7,0.3,0.9l0,0c0-0.3,0.1-0.6,0.2-0.9L17,9.1h0.5L16.6,12h-0.4l-0.4-1.4c-0.1-0.3-0.2-0.6-0.3-1l0,0
		c-0.1,0.3-0.2,0.6-0.3,1L14.7,12h-0.5l-0.8-2.9H13.9z"/>
	<path class="st1" d="M18.3,10.6c0,0.7,0.5,1,1,1c0.4,0,0.6-0.1,0.8-0.1l0.1,0.4c-0.2,0.1-0.5,0.2-1,0.2c-0.9,0-1.4-0.6-1.4-1.5
		S18.3,9,19.2,9s1.2,0.8,1.2,1.4c0,0.1,0,0.2,0,0.2S18.3,10.6,18.3,10.6z M19.9,10.3c0-0.3-0.1-0.9-0.7-0.9c-0.5,0-0.8,0.5-0.8,0.9
		H19.9z"/>
	<path class="st1" d="M21,10c0-0.3,0-0.6,0-0.9h0.5v0.6l0,0c0.1-0.4,0.4-0.6,0.8-0.6c0.1,0,0.1,0,0.1,0v0.5c-0.1,0-0.1,0-0.2,0
		c-0.4,0-0.6,0.3-0.7,0.7c0,0.1,0,0.2,0,0.2V12H21C21,12,21,10,21,10z"/>
	<path class="st1" d="M23.2,10.6c0,0.7,0.5,1,1,1c0.4,0,0.6-0.1,0.8-0.1l0.1,0.4c-0.2,0.1-0.5,0.2-1,0.2c-0.9,0-1.4-0.6-1.4-1.5
		S23.2,9,24.1,9s1.2,0.8,1.2,1.4c0,0.1,0,0.2,0,0.2S23.2,10.6,23.2,10.6z M24.8,10.3c0-0.3-0.1-0.9-0.7-0.9c-0.5,0-0.8,0.5-0.8,0.9
		H24.8z"/>
	<path class="st1" d="M28.5,7.7v3.5c0,0.3,0,0.6,0,0.7H28v-0.5l0,0c-0.2,0.3-0.5,0.6-1,0.6c-0.7,0-1.2-0.6-1.2-1.5
		c0-1,0.6-1.6,1.3-1.6c0.4,0,0.7,0.2,0.9,0.4l0,0V7.7H28.5z M27.9,10.3c0-0.1,0-0.2,0-0.2c-0.1-0.3-0.4-0.6-0.8-0.6
		c-0.5,0-0.9,0.5-0.9,1.1s0.3,1.1,0.9,1.1c0.4,0,0.7-0.2,0.8-0.6c0-0.1,0-0.1,0-0.2V10.3z"/>
	<path class="st1" d="M30.6,12c0-0.2,0-0.5,0-0.7V7.7h0.5v1.8l0,0c0.2-0.3,0.5-0.5,1-0.5c0.7,0,1.2,0.6,1.2,1.5c0,1-0.7,1.6-1.3,1.6
		c-0.4,0-0.8-0.2-1-0.5l0,0v0.5h-0.4V12z M31.1,10.8c0,0.1,0,0.1,0,0.2c0.1,0.4,0.4,0.6,0.8,0.6c0.6,0,0.9-0.4,0.9-1.1
		c0-0.6-0.3-1.1-0.9-1.1c-0.4,0-0.7,0.2-0.8,0.6c0,0.1,0,0.1,0,0.2V10.8z"/>
	<path class="st1" d="M34.2,9.1l0.6,1.7c0.1,0.2,0.1,0.4,0.2,0.6l0,0c0.1-0.2,0.1-0.4,0.2-0.6l0.6-1.7h0.6l-0.8,2.1
		c-0.4,1-0.6,1.5-1,1.8c-0.3,0.2-0.5,0.3-0.6,0.3l-0.1-0.4c0.1,0,0.3-0.1,0.5-0.3c0.1-0.1,0.3-0.3,0.4-0.6c0-0.1,0-0.1,0-0.1v-0.1
		l-1.2-2.7H34.2z"/>
</g>
<g>
	<path class="st1" d="M46.9,12.2V7.9c0-0.1,0-0.1-0.1-0.1h-0.1c-0.1,0-0.1,0-0.1,0.1L45,12c0,0.1-0.1,0.1-0.1,0.1c0,0-0.1,0-0.2,0
		h-1.9c-0.1,0-0.2,0-0.2,0c0,0-0.1-0.1-0.1-0.1l-1.6-4.2c0-0.1-0.1-0.1-0.1-0.1h-0.1c-0.1,0-0.1,0-0.1,0.1v4.3h-1.5V6.7
		c0-0.2,0.1-0.2,0.2-0.2h2.6c0.2,0,0.3,0.1,0.3,0.2l1.4,4.1c0,0,0,0,0.1,0h0.1c0,0,0.1,0,0.1,0l1.4-4.1c0-0.1,0.1-0.1,0.1-0.2
		c0.1,0,0.1-0.1,0.2-0.1h2.6c0.1,0,0.2,0.1,0.2,0.2v5.5H46.9z"/>
	<path class="st1" d="M52.9,11.7L52.9,11.7l0.1-3.8h1.4v4.4c0,0.3,0,0.5-0.1,0.7c-0.1,0.2-0.2,0.4-0.3,0.5c-0.1,0.1-0.3,0.3-0.5,0.3
		c-0.2,0.1-0.5,0.1-0.8,0.1h-3.3v-1.2h3.1c0.2,0,0.3,0,0.4-0.1c0.1-0.1,0.1-0.2,0.1-0.4v-0.3h-2c-0.6,0-1.1-0.1-1.4-0.4
		c-0.3-0.3-0.4-0.7-0.4-1.2V7.9h1.4v2.2c0,0.2,0,0.4,0.1,0.5c0.1,0.1,0.2,0.1,0.5,0.1h1.3L52.9,11.7z"/>
	<path class="st1" d="M55.1,6.7c0-0.2,0.1-0.2,0.2-0.2h4.3c0.4,0,0.8,0.1,1.1,0.2c0.3,0.1,0.5,0.3,0.7,0.5c0.2,0.2,0.3,0.4,0.4,0.7
		C61.9,8.1,62,8.4,62,8.7v1.2c0,0.3,0,0.7-0.1,0.9c-0.1,0.3-0.2,0.5-0.4,0.7c-0.2,0.2-0.4,0.3-0.7,0.5c-0.3,0.1-0.7,0.2-1.1,0.2
		h-2.3l-0.5-1.3h-0.1v1.3h-1.6V6.7z M56.7,10.7h2.8c0.3,0,0.5-0.1,0.7-0.2c0.1-0.1,0.2-0.4,0.2-0.7v-1c0-0.4-0.1-0.6-0.2-0.7
		c-0.1-0.1-0.4-0.2-0.7-0.2h-2.6c0,0-0.1,0-0.1,0c0,0,0,0.1,0,0.1V10.7z"/>
	<path class="st1" d="M62.6,7.2V6h1.4v1.1H62.6z M62.6,12.2V7.9h1.4v4.3H62.6z"/>
	<path class="st1" d="M64.7,11h3.5c0.1,0,0.1,0,0.2-0.1c0,0,0-0.1,0-0.2v-0.1c0-0.1,0-0.1,0-0.1c0,0-0.1,0-0.1-0.1l-2.7-0.2
		c-0.3,0-0.6-0.1-0.7-0.3c-0.2-0.2-0.2-0.4-0.2-0.7V8.9c0-0.3,0.1-0.6,0.3-0.7c0.2-0.2,0.5-0.3,0.9-0.3h3.9c0.1,0,0.2,0.1,0.2,0.2v1
		l-1.2,0.5h-0.1V9c0,0,0-0.1-0.1-0.1h-2.3c-0.1,0-0.1,0-0.2,0c0,0,0,0.1,0,0.2v0.1c0,0.1,0,0.1,0,0.1c0,0,0.1,0,0.1,0L69,9.7
		c0.2,0,0.3,0,0.5,0.1s0.2,0.1,0.3,0.2c0.1,0.1,0.1,0.2,0.2,0.3c0,0.1,0,0.3,0,0.4v0.3c0,0.3-0.1,0.6-0.3,0.8
		c-0.2,0.2-0.5,0.3-1,0.3h-4V11z"/>
	<path class="st1" d="M72,9.7L72,9.7L72,10.4c0,0.2,0,0.4,0.1,0.5c0.1,0.1,0.2,0.1,0.5,0.1h3.1v1.2h-3.4c-0.3,0-0.6,0-0.8-0.1
		c-0.2-0.1-0.4-0.2-0.5-0.3c-0.1-0.1-0.2-0.3-0.3-0.5c-0.1-0.2-0.1-0.4-0.1-0.7V9.6c0-0.3,0-0.5,0.1-0.7c0.1-0.2,0.2-0.4,0.3-0.5
		c0.1-0.1,0.3-0.3,0.5-0.3c0.2-0.1,0.5-0.1,0.8-0.1h2.5c0.3,0,0.6,0.1,0.7,0.3c0.1,0.2,0.2,0.4,0.2,0.8v0.4c0,0.3-0.1,0.6-0.2,0.8
		c-0.1,0.2-0.4,0.3-0.7,0.3h-2.5L72,9.7z M72,9.5h2.2c0.2,0,0.2-0.1,0.2-0.3V9.1c0-0.1,0-0.2-0.1-0.2c0,0-0.1-0.1-0.2-0.1h-1.6
		c-0.2,0-0.4,0-0.5,0.1C72,9.1,72,9.2,72,9.5L72,9.5z"/>
	<path class="st1" d="M76.3,8.9V7.9h4c0.3,0,0.5,0.1,0.6,0.2c0.1,0.2,0.2,0.4,0.2,0.7V12c0,0.1-0.1,0.2-0.2,0.2h-3.8
		c-0.2,0-0.3,0-0.4-0.1c-0.1,0-0.2-0.1-0.3-0.2c-0.1-0.1-0.2-0.2-0.2-0.4c0-0.2-0.1-0.3-0.1-0.6v-0.3c0-0.4,0.1-0.7,0.3-0.9
		c0.2-0.2,0.4-0.3,0.7-0.3h2.2l0.3,0.6h0.1V9.3c0-0.1,0-0.2-0.1-0.3s-0.1-0.1-0.2-0.1H76.3z M79.7,11.1
		C79.7,11.1,79.7,11.1,79.7,11.1l0.1-0.8h-1.9c-0.1,0-0.2,0-0.2,0.1c0,0-0.1,0.1-0.1,0.2v0.2c0,0.1,0,0.2,0.1,0.2
		c0,0.1,0.1,0.1,0.2,0.1H79.7z"/>
	<path class="st1" d="M81.8,11h3.5c0.1,0,0.1,0,0.2-0.1c0,0,0-0.1,0-0.2v-0.1c0-0.1,0-0.1,0-0.1c0,0-0.1,0-0.1-0.1l-2.7-0.2
		c-0.3,0-0.6-0.1-0.7-0.3c-0.2-0.2-0.2-0.4-0.2-0.7V8.9c0-0.3,0.1-0.6,0.3-0.7c0.2-0.2,0.5-0.3,0.9-0.3h3.9c0.1,0,0.2,0.1,0.2,0.2v1
		l-1.2,0.5h-0.1V9c0,0,0-0.1-0.1-0.1h-2.3c-0.1,0-0.1,0-0.2,0c0,0,0,0.1,0,0.2v0.1c0,0.1,0,0.1,0,0.1c0,0,0.1,0,0.1,0l2.8,0.3
		c0.2,0,0.3,0,0.5,0.1s0.2,0.1,0.3,0.2c0.1,0.1,0.1,0.2,0.2,0.3c0,0.1,0,0.3,0,0.4v0.3c0,0.3-0.1,0.6-0.3,0.8
		c-0.2,0.2-0.5,0.3-1,0.3h-4V11z"/>
	<path class="st1" d="M89.1,9.7L89.1,9.7l-0.1,0.7c0,0.2,0,0.4,0.1,0.5c0.1,0.1,0.2,0.1,0.5,0.1h3.1v1.2h-3.4c-0.3,0-0.6,0-0.8-0.1
		c-0.2-0.1-0.4-0.2-0.5-0.3c-0.1-0.1-0.2-0.3-0.3-0.5c-0.1-0.2-0.1-0.4-0.1-0.7V9.6c0-0.3,0-0.5,0.1-0.7c0.1-0.2,0.2-0.4,0.3-0.5
		c0.1-0.1,0.3-0.3,0.5-0.3c0.2-0.1,0.5-0.1,0.8-0.1h2.5c0.3,0,0.6,0.1,0.7,0.3c0.1,0.2,0.2,0.4,0.2,0.8v0.4c0,0.3-0.1,0.6-0.2,0.8
		c-0.1,0.2-0.4,0.3-0.7,0.3h-2.5L89.1,9.7z M89.1,9.5h2.2c0.2,0,0.2-0.1,0.2-0.3V9.1c0-0.1,0-0.2-0.1-0.2c0,0-0.1-0.1-0.2-0.1h-1.6
		c-0.2,0-0.4,0-0.5,0.1C89.1,9.1,89.1,9.2,89.1,9.5L89.1,9.5z"/>
	<path class="st1" d="M93.4,12.2v-1.3h1.4v1.3H93.4z"/>
	<path class="st1" d="M95.6,7.2V6H97v1.1H95.6z M95.6,12.2V7.9H97v4.3H95.6z"/>
	<path class="st1" d="M97.8,7.9h3.5c0.3,0,0.6,0,0.8,0.1c0.2,0.1,0.4,0.2,0.5,0.3c0.1,0.1,0.2,0.3,0.3,0.5c0.1,0.2,0.1,0.4,0.1,0.7
		v2.6h-1.4V9.7c0-0.3,0-0.4-0.1-0.5C101.4,9,101.2,9,101,9h-1.5l-0.2-0.6h-0.1v3.8h-1.4V7.9z"/>
	<path class="st1" d="M106.8,8.9h-1.3v3.2h-1.4V8.9h-0.6l-0.4-1V7.9h1V7.3c0-0.3,0-0.5,0.1-0.6c0.1-0.2,0.1-0.3,0.3-0.4
		c0.1-0.1,0.3-0.2,0.5-0.2c0.2,0,0.5-0.1,0.8-0.1h0.6l0.4,1v0.1h-0.8c-0.1,0-0.2,0-0.3,0.1c0,0.1-0.1,0.2-0.1,0.3v0.4h1.3V8.9z"/>
	<path class="st1" d="M112.8,10.5c0,0.3,0,0.5-0.1,0.7c-0.1,0.2-0.2,0.4-0.3,0.5c-0.1,0.1-0.3,0.3-0.6,0.3c-0.2,0.1-0.5,0.1-0.8,0.1
		h-2.1c-0.3,0-0.6,0-0.8-0.1c-0.2-0.1-0.4-0.2-0.5-0.3c-0.1-0.1-0.2-0.3-0.3-0.5c-0.1-0.2-0.1-0.4-0.1-0.7V9.6c0-0.3,0-0.5,0.1-0.7
		c0.1-0.2,0.2-0.4,0.3-0.5c0.1-0.1,0.3-0.3,0.5-0.3c0.2-0.1,0.5-0.1,0.8-0.1h2.1c0.3,0,0.6,0,0.8,0.1c0.2,0.1,0.4,0.2,0.6,0.3
		c0.1,0.1,0.2,0.3,0.3,0.5c0.1,0.2,0.1,0.4,0.1,0.7V10.5z M110.7,10.9c0.2,0,0.4,0,0.5-0.1c0.1-0.1,0.1-0.3,0.1-0.5V9.7
		c0-0.3,0-0.4-0.1-0.5C111.1,9,111,9,110.7,9h-1.6c-0.2,0-0.4,0-0.5,0.1c-0.1,0.1-0.1,0.3-0.1,0.5v0.6c0,0.2,0,0.4,0.1,0.5
		c0.1,0.1,0.2,0.1,0.5,0.1H110.7z"/>
</g>
</svg>
