<?xml version="1.0" encoding="utf-8"?>
<!-- Generator: Adobe Illustrator 22.1.0, SVG Export Plug-In . SVG Version: 6.00 Build 0)  -->
<svg version="1.1" id="Layer_1" xmlns="http://www.w3.org/2000/svg" xmlns:xlink="http://www.w3.org/1999/xlink" x="0px" y="0px"
	 viewBox="0 0 118 20" style="enable-background:new 0 0 118 20;" xml:space="preserve">
<style type="text/css">
	.st0{fill:#3366CC;}
	.st1{fill:#FFFFFF;}
</style>
<path class="st0" d="M115.7,20H2.3C1,20,0,19,0,17.7V2.3C0,1,1,0,2.3,0h113.4c1.3,0,2.3,1,2.3,2.3v15.4C118,19,117,20,115.7,20z"/>
<g>
	<path class="st1" d="M9.1,8.9c0.3,0,0.6-0.1,1-0.1c0.5,0,0.9,0.1,1.1,0.3c0.2,0.2,0.4,0.5,0.4,0.8c0,0.4-0.1,0.7-0.3,0.9
		c-0.3,0.3-0.7,0.4-1.2,0.4c-0.2,0-0.3,0-0.4,0v1.6H9.1V8.9z M9.6,10.8c0.1,0,0.3,0,0.4,0c0.6,0,1-0.3,1-0.9c0-0.5-0.4-0.8-1-0.8
		c-0.2,0-0.4,0-0.5,0V10.8z"/>
	<path class="st1" d="M14.7,11.4c0,1.1-0.7,1.5-1.4,1.5c-0.8,0-1.4-0.6-1.4-1.5c0-1,0.6-1.5,1.4-1.5C14.2,9.9,14.7,10.5,14.7,11.4z
		 M12.4,11.4c0,0.6,0.4,1.1,0.9,1.1c0.5,0,0.9-0.5,0.9-1.1c0-0.5-0.2-1.1-0.9-1.1C12.7,10.3,12.4,10.9,12.4,11.4z"/>
	<path class="st1" d="M15.6,10l0.4,1.5c0.1,0.3,0.2,0.6,0.2,0.9h0c0.1-0.3,0.2-0.6,0.3-0.9l0.5-1.5h0.4l0.5,1.5
		c0.1,0.3,0.2,0.7,0.3,0.9h0c0-0.3,0.1-0.6,0.2-0.9l0.4-1.5h0.5l-0.9,2.9h-0.5l-0.4-1.4c-0.1-0.3-0.2-0.6-0.3-1h0
		c-0.1,0.3-0.2,0.6-0.3,1l-0.5,1.4h-0.5L15,10H15.6z"/>
	<path class="st1" d="M20,11.5c0,0.7,0.5,1,1,1c0.4,0,0.6-0.1,0.8-0.1l0.1,0.4c-0.2,0.1-0.5,0.2-1,0.2c-0.9,0-1.4-0.6-1.4-1.5
		c0-0.9,0.5-1.6,1.4-1.6c0.9,0,1.2,0.8,1.2,1.4c0,0.1,0,0.2,0,0.2H20z M21.6,11.2c0-0.3-0.1-0.9-0.7-0.9c-0.5,0-0.8,0.5-0.8,0.9
		H21.6z"/>
	<path class="st1" d="M22.7,10.9c0-0.3,0-0.6,0-0.9h0.5l0,0.6h0c0.1-0.4,0.4-0.6,0.8-0.6c0.1,0,0.1,0,0.1,0v0.5c-0.1,0-0.1,0-0.2,0
		c-0.4,0-0.6,0.3-0.7,0.7c0,0.1,0,0.2,0,0.2v1.5h-0.5V10.9z"/>
	<path class="st1" d="M24.9,11.5c0,0.7,0.5,1,1,1c0.4,0,0.6-0.1,0.8-0.1l0.1,0.4c-0.2,0.1-0.5,0.2-1,0.2c-0.9,0-1.4-0.6-1.4-1.5
		c0-0.9,0.5-1.6,1.4-1.6c0.9,0,1.2,0.8,1.2,1.4c0,0.1,0,0.2,0,0.2H24.9z M26.5,11.2c0-0.3-0.1-0.9-0.7-0.9c-0.5,0-0.8,0.5-0.8,0.9
		H26.5z"/>
	<path class="st1" d="M30.1,8.6v3.5c0,0.3,0,0.6,0,0.7h-0.5l0-0.5h0c-0.2,0.3-0.5,0.6-1,0.6c-0.7,0-1.2-0.6-1.2-1.5
		c0-1,0.6-1.6,1.3-1.6c0.4,0,0.7,0.2,0.9,0.4h0V8.6H30.1z M29.6,11.2c0-0.1,0-0.2,0-0.2c-0.1-0.3-0.4-0.6-0.8-0.6
		c-0.5,0-0.9,0.5-0.9,1.1c0,0.6,0.3,1.1,0.9,1.1c0.4,0,0.7-0.2,0.8-0.6c0-0.1,0-0.1,0-0.2V11.2z"/>
	<path class="st1" d="M32.3,12.9c0-0.2,0-0.5,0-0.7V8.6h0.5v1.8h0c0.2-0.3,0.5-0.5,1-0.5c0.7,0,1.2,0.6,1.2,1.5c0,1-0.7,1.6-1.3,1.6
		c-0.4,0-0.8-0.2-1-0.5h0l0,0.5H32.3z M32.8,11.7c0,0.1,0,0.1,0,0.2c0.1,0.4,0.4,0.6,0.8,0.6c0.6,0,0.9-0.4,0.9-1.1
		c0-0.6-0.3-1.1-0.9-1.1c-0.4,0-0.7,0.2-0.8,0.6c0,0.1,0,0.1,0,0.2V11.7z"/>
	<path class="st1" d="M35.9,10l0.6,1.7c0.1,0.2,0.1,0.4,0.2,0.6h0c0.1-0.2,0.1-0.4,0.2-0.6l0.6-1.7H38l-0.8,2.1
		c-0.4,1-0.6,1.5-1,1.8c-0.3,0.2-0.5,0.3-0.6,0.3l-0.1-0.4c0.1,0,0.3-0.1,0.5-0.3c0.1-0.1,0.3-0.3,0.4-0.6c0-0.1,0-0.1,0-0.1
		c0,0,0-0.1,0-0.1L35.3,10H35.9z"/>
	<path class="st1" d="M49.1,12.9V8c0-0.1,0-0.1-0.1-0.1h-0.1c-0.1,0-0.1,0-0.2,0.1l-1.8,4.7c0,0.1-0.1,0.1-0.1,0.2
		c-0.1,0-0.1,0-0.2,0h-2.1c-0.1,0-0.2,0-0.2,0s-0.1-0.1-0.1-0.2l-1.8-4.7c0-0.1-0.1-0.1-0.2-0.1H42c-0.1,0-0.1,0-0.1,0.1v4.9h-1.7
		V6.6c0-0.2,0.1-0.3,0.3-0.3h3c0.2,0,0.3,0.1,0.4,0.2l1.6,4.7c0,0,0,0.1,0.1,0.1h0.2c0,0,0.1,0,0.1-0.1l1.6-4.7
		c0-0.1,0.1-0.1,0.1-0.2s0.1-0.1,0.2-0.1h2.9c0.2,0,0.3,0.1,0.3,0.3v6.3H49.1z"/>
	<path class="st1" d="M55.9,12.3L55.9,12.3L56,8h1.6v5c0,0.3,0,0.6-0.1,0.8c-0.1,0.2-0.2,0.4-0.3,0.6c-0.2,0.2-0.4,0.3-0.6,0.4
		c-0.3,0.1-0.6,0.1-1,0.1h-3.8v-1.4h3.5c0.2,0,0.4-0.1,0.5-0.2c0.1-0.1,0.1-0.3,0.1-0.5v-0.4h-2.3c-0.7,0-1.3-0.1-1.6-0.4
		s-0.5-0.7-0.5-1.4V8h1.6v2.5c0,0.3,0.1,0.5,0.2,0.6c0.1,0.1,0.3,0.1,0.5,0.1h1.5L55.9,12.3z"/>
	<path class="st1" d="M64.4,10.1c0-0.1,0-0.2,0-0.3c0-0.1,0-0.2,0-0.3V9.4h1.8v3.2c0,0.2-0.1,0.3-0.2,0.3h-4.9
		c-0.5,0-0.9-0.1-1.2-0.2c-0.3-0.1-0.6-0.3-0.8-0.5s-0.4-0.5-0.5-0.8c-0.1-0.3-0.1-0.7-0.1-1.1V8.9c0-0.4,0-0.8,0.1-1.1
		C58.6,7.5,58.8,7.3,59,7c0.2-0.2,0.5-0.4,0.8-0.5c0.3-0.1,0.8-0.2,1.2-0.2H66c0.2,0,0.3,0.1,0.3,0.3V8l-1.7,0.6h-0.1V8
		c0-0.1,0-0.1-0.1-0.1h-3.1c-0.2,0-0.3,0-0.5,0c-0.1,0-0.2,0.1-0.3,0.2c-0.1,0.1-0.1,0.2-0.2,0.3c0,0.1-0.1,0.3-0.1,0.5v1.2
		c0,0.4,0.1,0.7,0.2,0.8c0.2,0.2,0.4,0.2,0.8,0.2h3.1c0.1,0,0.1,0,0.1-0.1V10.1z"/>
	<path class="st1" d="M68.7,10.1L68.7,10.1l-0.1,0.8c0,0.3,0,0.5,0.1,0.6c0.1,0.1,0.3,0.2,0.5,0.2h3.5v1.3H69c-0.4,0-0.7,0-0.9-0.1
		c-0.3-0.1-0.5-0.2-0.6-0.4c-0.2-0.2-0.3-0.4-0.4-0.6C67,11.5,67,11.2,67,10.9v-1c0-0.3,0-0.6,0.1-0.8c0.1-0.2,0.2-0.4,0.4-0.6
		c0.2-0.2,0.4-0.3,0.6-0.4C68.3,8,68.6,8,69,8h2.9c0.4,0,0.6,0.1,0.8,0.3s0.2,0.5,0.2,0.9v0.5c0,0.4-0.1,0.7-0.2,0.9
		c-0.2,0.2-0.4,0.3-0.8,0.3h-2.9L68.7,10.1z M68.6,9.8h2.5c0.2,0,0.3-0.1,0.3-0.3V9.4c0-0.1,0-0.2-0.1-0.2c0,0-0.1-0.1-0.2-0.1h-1.8
		c-0.3,0-0.4,0.1-0.5,0.2C68.6,9.4,68.6,9.5,68.6,9.8L68.6,9.8z"/>
	<path class="st1" d="M73.6,8h4c0.4,0,0.7,0,0.9,0.1c0.3,0.1,0.5,0.2,0.6,0.4c0.2,0.2,0.3,0.4,0.3,0.6c0.1,0.2,0.1,0.5,0.1,0.8v3H78
		V10c0-0.3-0.1-0.5-0.2-0.6c-0.1-0.1-0.3-0.2-0.5-0.2h-1.8l-0.3-0.7h-0.1v4.4h-1.6V8z"/>
	<path class="st1" d="M82,10.1L82,10.1L82,10.8c0,0.3,0,0.5,0.1,0.6c0.1,0.1,0.3,0.2,0.5,0.2h3.5v1.3h-3.8c-0.4,0-0.7,0-0.9-0.1
		c-0.3-0.1-0.5-0.2-0.6-0.4c-0.2-0.2-0.3-0.4-0.4-0.6c-0.1-0.2-0.1-0.5-0.1-0.8v-1c0-0.3,0-0.6,0.1-0.8c0.1-0.2,0.2-0.4,0.4-0.6
		c0.2-0.2,0.4-0.3,0.6-0.4C81.7,8,82,8,82.4,8h2.9c0.4,0,0.6,0.1,0.8,0.3s0.2,0.5,0.2,0.9v0.5c0,0.4-0.1,0.7-0.2,0.9
		c-0.2,0.2-0.4,0.3-0.8,0.3h-2.9L82,10.1z M82,9.8h2.5c0.2,0,0.3-0.1,0.3-0.3V9.4c0-0.1,0-0.2-0.1-0.2c0,0-0.1-0.1-0.2-0.1h-1.8
		c-0.3,0-0.4,0.1-0.5,0.2C82,9.4,82,9.5,82,9.8L82,9.8z"/>
	<path class="st1" d="M87,12.9v-1.5h1.6v1.5H87z"/>
	<path class="st1" d="M89.4,7.2V5.9H91v1.3H89.4z M89.4,12.9V8H91v4.9H89.4z"/>
	<path class="st1" d="M91.9,8h4c0.4,0,0.7,0,0.9,0.1c0.3,0.1,0.5,0.2,0.6,0.4c0.2,0.2,0.3,0.4,0.3,0.6c0.1,0.2,0.1,0.5,0.1,0.8v3
		h-1.6V10c0-0.3-0.1-0.5-0.2-0.6c-0.1-0.1-0.3-0.2-0.5-0.2h-1.8l-0.3-0.7h-0.1v4.4h-1.6V8z"/>
	<path class="st1" d="M102.2,9.2h-1.4v3.7h-1.6V9.2h-0.7L98.1,8V8h1.1V7.4c0-0.3,0-0.5,0.1-0.7c0.1-0.2,0.2-0.3,0.3-0.5
		c0.1-0.1,0.3-0.2,0.6-0.2c0.2,0,0.5-0.1,0.9-0.1h0.7l0.4,1.1v0.1h-1c-0.2,0-0.3,0-0.3,0.1s-0.1,0.2-0.1,0.3V8h1.4V9.2z"/>
	<path class="st1" d="M109,10.9c0,0.3,0,0.6-0.1,0.8c-0.1,0.2-0.2,0.4-0.4,0.6c-0.2,0.2-0.4,0.3-0.6,0.4c-0.3,0.1-0.6,0.1-0.9,0.1
		h-2.4c-0.4,0-0.7,0-0.9-0.1c-0.3-0.1-0.5-0.2-0.6-0.4c-0.2-0.2-0.3-0.4-0.4-0.6c-0.1-0.2-0.1-0.5-0.1-0.8v-1c0-0.3,0-0.6,0.1-0.8
		c0.1-0.2,0.2-0.4,0.4-0.6c0.2-0.2,0.4-0.3,0.6-0.4c0.3-0.1,0.6-0.1,0.9-0.1h2.4c0.4,0,0.7,0,0.9,0.1c0.3,0.1,0.5,0.2,0.6,0.4
		c0.2,0.2,0.3,0.4,0.4,0.6c0.1,0.2,0.1,0.5,0.1,0.8V10.9z M106.7,11.4c0.3,0,0.4-0.1,0.5-0.2c0.1-0.1,0.2-0.3,0.2-0.6V10
		c0-0.3-0.1-0.5-0.2-0.6c-0.1-0.1-0.3-0.2-0.5-0.2h-1.8c-0.3,0-0.4,0.1-0.5,0.2c-0.1,0.1-0.1,0.3-0.1,0.6v0.7c0,0.3,0,0.5,0.1,0.6
		c0.1,0.1,0.3,0.2,0.5,0.2H106.7z"/>
</g>
</svg>
