<?xml version="1.0" encoding="utf-8"?>
<!-- Generator: Adobe Illustrator 22.1.0, SVG Export Plug-In . SVG Version: 6.00 Build 0)  -->
<svg version="1.1" xmlns="http://www.w3.org/2000/svg" xmlns:xlink="http://www.w3.org/1999/xlink" x="0px" y="0px"
	 viewBox="0 0 1036.4 237" style="enable-background:new 0 0 1036.4 237;" xml:space="preserve">
<style type="text/css">
	.st0{fill:#383838;}
	.st1{fill:#2B2B2B;}
	.st2{fill:#E2E2E2;}
	.st3{fill:none;}
	.st4{enable-background:new    ;}
	.st5{fill:#FCCA52;}
	.st6{fill:#FFFFFF;}
	.st7{fill:#B3B3B3;}
	.st8{fill:#E6E6E6;}
	.st9{fill:#808080;}
</style>
<g id="Layer_2">
	<g>
		<path class="st0" d="M1024.4,237H12c-6.6,0-12-5.4-12-12V12C0,5.4,5.4,0,12,0h1012.4c6.6,0,12,5.4,12,12v213
			C1036.4,231.6,1031,237,1024.4,237z"/>
		<path class="st1" d="M1036.4,22.3V12c0-6.6-6.6-12-14.7-12H14.7C6.6,0,0,5.4,0,12v213c0,6.6,6.6,12,14.7,12h59.1
			C181.9,165.8,474.7,17.6,1036.4,22.3z"/>
	</g>
</g>
<g id="Layer_1">
	<g>
		<path class="st2" d="M390,34.4h14.6c3.2,0,5.6,0.8,7.1,2.3c1.6,1.5,2.4,3.7,2.4,6.4c0,2.9-0.9,5.1-2.6,6.7s-4.4,2.4-7.9,2.4h-4.8
			v10.5H390V34.4z M398.8,46.5h2.1c1.7,0,2.9-0.3,3.6-0.9s1-1.3,1-2.3c0-0.9-0.3-1.6-0.9-2.3c-0.6-0.6-1.7-0.9-3.3-0.9h-2.5V46.5z"
			/>
		<path class="st2" d="M416.1,52.6c0-3.1,1.1-5.7,3.2-7.7c2.1-2,5-3,8.6-3c4.1,0,7.2,1.2,9.3,3.6c1.7,1.9,2.5,4.3,2.5,7.1
			c0,3.2-1,5.8-3.1,7.8c-2.1,2-5,3-8.7,3c-3.3,0-6-0.8-8-2.5C417.4,58.6,416.1,55.9,416.1,52.6z M424,52.5c0,1.8,0.4,3.2,1.1,4.1
			c0.7,0.9,1.7,1.3,2.8,1.3c1.1,0,2.1-0.4,2.8-1.3s1.1-2.3,1.1-4.2c0-1.8-0.4-3.1-1.1-4s-1.6-1.3-2.7-1.3c-1.1,0-2.1,0.4-2.8,1.3
			C424.4,49.4,424,50.7,424,52.5z"/>
		<path class="st2" d="M440.5,42.2h7.6l3.3,12.9l4.2-12.9h7.1l4.3,13l3.3-13h7.6l-7.6,20.6h-7l-4.2-12.4l-4,12.4h-7L440.5,42.2z"/>
		<path class="st2" d="M502.6,54.4h-15.8c0.1,1.3,0.5,2.2,1,2.8c0.8,0.9,1.8,1.3,3,1.3c0.8,0,1.5-0.2,2.2-0.6
			c0.4-0.2,0.9-0.7,1.4-1.3l7.8,0.7c-1.2,2.1-2.6,3.5-4.3,4.4c-1.7,0.9-4.1,1.3-7.2,1.3c-2.7,0-4.9-0.4-6.4-1.2s-2.9-2-3.9-3.7
			c-1-1.7-1.5-3.6-1.5-5.9c0-3.2,1-5.8,3.1-7.8c2.1-2,4.9-3,8.5-3c2.9,0,5.3,0.4,7,1.3c1.7,0.9,3,2.2,3.9,3.9
			c0.9,1.7,1.3,3.9,1.3,6.6V54.4z M494.6,50.7c-0.2-1.5-0.6-2.6-1.2-3.3c-0.7-0.7-1.5-1-2.6-1c-1.3,0-2.3,0.5-3,1.5
			c-0.5,0.6-0.8,1.5-0.9,2.8H494.6z"/>
		<path class="st2" d="M506.3,42.2h7.4v3.4c0.7-1.5,1.4-2.5,2.2-3c0.8-0.5,1.7-0.8,2.8-0.8c1.2,0,2.4,0.4,3.8,1.1l-2.4,5.6
			c-0.9-0.4-1.7-0.6-2.2-0.6c-1,0-1.8,0.4-2.4,1.3c-0.8,1.2-1.2,3.4-1.2,6.7v6.9h-7.9V42.2z"/>
		<path class="st2" d="M547.3,54.4h-15.8c0.1,1.3,0.5,2.2,1,2.8c0.8,0.9,1.8,1.3,3,1.3c0.8,0,1.5-0.2,2.2-0.6
			c0.4-0.2,0.9-0.7,1.4-1.3l7.8,0.7c-1.2,2.1-2.6,3.5-4.3,4.4c-1.7,0.9-4.1,1.3-7.2,1.3c-2.7,0-4.9-0.4-6.4-1.2
			c-1.6-0.8-2.9-2-3.9-3.7s-1.5-3.6-1.5-5.9c0-3.2,1-5.8,3.1-7.8c2.1-2,4.9-3,8.5-3c2.9,0,5.3,0.4,7,1.3s3,2.2,3.9,3.9
			s1.3,3.9,1.3,6.6V54.4z M539.3,50.7c-0.2-1.5-0.6-2.6-1.2-3.3c-0.7-0.7-1.5-1-2.6-1c-1.3,0-2.3,0.5-3,1.5
			c-0.5,0.6-0.8,1.5-0.9,2.8H539.3z"/>
		<path class="st2" d="M572.5,34.4v28.4h-7.4v-3c-1,1.3-2,2.2-2.8,2.6c-1.1,0.6-2.4,0.9-3.8,0.9c-2.8,0-4.9-1.1-6.4-3.2
			c-1.5-2.1-2.2-4.7-2.2-7.8c0-3.4,0.8-6,2.4-7.8c1.6-1.8,3.7-2.7,6.2-2.7c1.2,0,2.3,0.2,3.3,0.6c1,0.4,1.9,1,2.7,1.9v-9.8H572.5z
			 M564.6,52.4c0-1.6-0.3-2.8-1-3.6c-0.7-0.8-1.5-1.2-2.6-1.2c-0.9,0-1.7,0.4-2.3,1.1c-0.6,0.8-0.9,2-0.9,3.8c0,1.7,0.3,2.9,1,3.7
			c0.6,0.8,1.4,1.2,2.4,1.2c1,0,1.8-0.4,2.5-1.2C564.3,55.5,564.6,54.2,564.6,52.4z"/>
		<path class="st2" d="M591.1,34.4h16.4c2.7,0,4.8,0.7,6.3,2c1.5,1.4,2.2,3,2.2,5c0,1.7-0.5,3.1-1.6,4.3c-0.7,0.8-1.7,1.4-3.1,1.9
			c2,0.5,3.5,1.3,4.5,2.5c1,1.2,1.4,2.7,1.4,4.5c0,1.5-0.3,2.8-1,4c-0.7,1.2-1.6,2.1-2.8,2.8c-0.7,0.4-1.8,0.7-3.3,0.9
			c-2,0.3-3.3,0.4-3.9,0.4h-15.1V34.4z M599.9,45.5h3.8c1.4,0,2.3-0.2,2.9-0.7c0.5-0.5,0.8-1.2,0.8-2c0-0.8-0.3-1.5-0.8-1.9
			c-0.5-0.5-1.5-0.7-2.8-0.7h-3.9V45.5z M599.9,56.7h4.5c1.5,0,2.6-0.3,3.2-0.8s0.9-1.3,0.9-2.2c0-0.8-0.3-1.5-0.9-2
			c-0.6-0.5-1.7-0.8-3.2-0.8h-4.5V56.7z"/>
		<path class="st2" d="M619.1,42.2h8.3l4.2,13.7l3.9-13.7h7.8l-8.2,22c-0.9,2.5-1.9,4.2-2.8,5.1c-1.4,1.2-3.4,1.9-6.2,1.9
			c-1.1,0-2.9-0.2-5.3-0.5l-0.6-5.5c1.1,0.4,2.4,0.5,3.8,0.5c0.9,0,1.7-0.2,2.3-0.6c0.6-0.4,1.1-1.2,1.5-2.3L619.1,42.2z"/>
	</g>
	<g>
		<rect x="188.2" y="83" class="st3" width="829" height="96.7"/>
		<g class="st4">
			<path class="st5" d="M210.9,140v13.4h-18.6v-63c0-1.8,0.9-2.7,2.7-2.7h54c6.2,0,10.6,1.4,13.2,4.1c2.7,2.7,4,6.6,4,11.6v5.8
				c0,2.7-0.5,4.8-1.7,6.4c-1.1,1.7-2.4,3-3.7,3.9c1.9,0.9,3.5,2.4,4.8,4.3c1.3,1.9,1.9,4.2,1.9,7v5.8c0,5.5-1.3,9.7-3.9,12.7
				c-2.7,2.9-7.1,4.3-13.5,4.3h-33.5l-5.2-13.4H210.9L210.9,140z M212.5,102.4c-1,0-1.5,0.5-1.5,1.5V115h31.2c2.1,0,3.5-0.4,4.3-1.1
				c0.8-0.8,1.3-2.1,1.3-4v-2c0-2-0.4-3.4-1.3-4.3c-0.8-0.8-2.3-1.2-4.3-1.2H212.5L212.5,102.4z M210.9,125.6V138h32.3
				c1.7,0,2.8-0.4,3.6-1.1s1.1-2.1,1.1-4v-1.9c0-1.9-0.4-3.3-1.1-4s-1.9-1.1-3.6-1.1L210.9,125.6L210.9,125.6z"/>
			<path class="st5" d="M274.3,96.1V83h16.4v13.1H274.3z M274.3,153.4v-49.5h16.4v49.5H274.3z"/>
			<path class="st5" d="M362.6,133.7c0,3-0.4,5.8-1.1,8.1c-0.7,2.4-1.9,4.5-3.5,6.2c-1.6,1.7-3.7,3-6.3,3.9
				c-2.6,0.9-5.8,1.4-9.4,1.4h-23.8c-3.7,0-6.8-0.5-9.3-1.4c-2.6-0.9-4.6-2.2-6.3-3.9c-1.7-1.7-2.8-3.7-3.5-6.2
				c-0.7-2.4-1.1-5.1-1.1-8.1v-10.2c0-3,0.4-5.6,1.1-8.1c0.7-2.5,1.9-4.5,3.5-6.2c1.7-1.7,3.7-3,6.3-3.9s5.7-1.4,9.3-1.4h23.8
				c3.7,0,6.8,0.5,9.4,1.4c2.6,0.9,4.7,2.3,6.3,3.9c1.6,1.7,2.8,3.8,3.5,6.2c0.7,2.4,1.1,5.2,1.1,8.1L362.6,133.7L362.6,133.7z
				 M339.3,138.9c2.6,0,4.4-0.5,5.4-1.5c1-1,1.5-3,1.5-5.8v-6.9c0-3-0.5-5-1.6-6.2c-1.1-1.1-2.9-1.7-5.4-1.7h-17.8
				c-2.6,0-4.4,0.6-5.4,1.7c-1,1.1-1.4,3.2-1.4,6.1v7c0,2.8,0.5,4.8,1.4,5.8c1,1,2.7,1.5,5.4,1.5H339.3z"/>
			<path class="st5" d="M410.7,104.1v49.3h-18.6v-49.3h-27.3l-6.1-15.7v-0.7h87.1c1.7,0,2.7,0.9,2.7,2.7v17l-17.2,6.4h-0.7v-8.7
				c0-0.6-0.4-1-1-1H410.7z"/>
			<path class="st5" d="M454.6,83h16.3v20.9H495c3.7,0,6.8,0.5,9.4,1.4c2.6,0.9,4.7,2.3,6.3,3.9c1.6,1.7,2.7,3.7,3.5,6.2
				s1.1,5.1,1.1,8.1v29.9h-16.3v-28.9c0-2.9-0.6-4.9-1.7-6.1c-1.1-1.1-3-1.7-5.2-1.7h-17.7l-2.7-7.2h-0.6v43.8h-16.3L454.6,83
				L454.6,83z"/>
			<path class="st5" d="M523.3,96.1V83h16.3v13.1H523.3z M523.3,153.4v-49.5h16.3v49.5H523.3z"/>
			<path class="st5" d="M548,103.9h40.5c3.7,0,6.8,0.5,9.4,1.4c2.6,0.9,4.7,2.3,6.3,3.9c1.6,1.7,2.7,3.7,3.5,6.2s1.1,5.1,1.1,8.1
				v29.9h-16.3v-28.9c0-2.9-0.5-4.9-1.7-6.1c-1.1-1.1-2.9-1.7-5.3-1.7h-17.7l-2.7-7.2h-0.6v43.8h-16.3L548,103.9L548,103.9z"/>
			<path class="st5" d="M617.9,159.9h35.8c2.4,0,3.9-0.5,4.9-1.6c1-1.1,1.4-2.7,1.4-5v-3.9H636c-7.4,0-12.7-1.4-15.7-4.5
				c-3-3-4.6-7.5-4.6-13.6v-7.7c0-3,0.4-5.8,1.1-8.1c0.7-2.4,1.9-4.5,3.5-6.2c1.6-1.7,3.7-3,6.3-3.9c2.6-0.9,5.7-1.4,9.4-1.4h35.9
				c3,0,4.5,1.5,4.5,4.5v46c0,2.9-0.4,5.5-1.1,7.9c-0.7,2.4-1.8,4.4-3.4,6.1c-1.6,1.7-3.6,3-6.2,3.9c-2.6,0.9-5.8,1.4-9.6,1.4h-38.4
				v-13.8H617.9z M659.4,147.6h0.6v-29.2c0-1-0.5-1.5-1.5-1.5H639c-2.5,0-4.3,0.6-5.4,1.7c-1.1,1.1-1.7,3.1-1.7,6v4.6
				c0,2.7,0.5,4.6,1.6,5.5s2.9,1.4,5.5,1.4h16L659.4,147.6z"/>
			<path class="st5" d="M684.1,139.5h40.5c0.9,0,1.7-0.2,2-0.6c0.3-0.5,0.5-1.1,0.5-1.9v-1.1c0-0.6-0.2-1.1-0.4-1.4
				c-0.2-0.4-0.7-0.5-1.4-0.6l-30.8-2.7c-3.8-0.3-6.5-1.4-8.4-3.5s-2.7-4.8-2.7-8.2v-3.9c0-3.6,1-6.5,3-8.6c2-2.1,5.2-3.1,9.7-3.1
				h44.7c1.5,0,2.2,0.8,2.2,2.2v11.1l-14,5.2h-0.6v-5.7c0-0.5-0.2-0.7-0.6-0.7h-25.8c-0.9,0-1.5,0.2-1.9,0.5
				c-0.4,0.4-0.5,0.9-0.5,1.8v1.4c0,0.8,0.2,1.4,0.4,1.7c0.3,0.2,0.8,0.4,1.4,0.5l31.5,3c2.1,0.2,3.9,0.6,5.2,1.1
				c1.4,0.6,2.5,1.4,3.3,2.4c0.8,1,1.4,2.2,1.7,3.6c0.4,1.4,0.5,3.1,0.5,5v3.7c0,3.9-1.1,7.1-3.1,9.2s-5.8,3.2-11.1,3.2h-45.5v-13.7
				L684.1,139.5L684.1,139.5z"/>
		</g>
		<g class="st4">
			<path class="st6" d="M815.3,153.4h-21.5v-0.7l33-62.9c0.4-0.8,0.8-1.4,1.3-1.7c0.4-0.3,1.1-0.5,2.2-0.5h22.7c1,0,1.7,0.2,2.2,0.5
				s0.9,0.9,1.4,1.7l32.7,62.9v0.7H833l-5.4-14.3v-1.8H846c1.9,0,3.6,0,5,0s2.7,0,3.7,0.1s2.1,0.1,2.9,0.2c0.8,0.1,1.7,0.2,2.4,0.2
				l0.3-0.6c-0.4-0.6-0.8-1.3-1.1-1.9s-0.8-1.4-1.3-2.3c-0.5-0.9-1.1-2-1.7-3.2c-0.6-1.3-1.4-2.9-2.4-4.8l-10.4-20.7
				c-0.2-0.4-0.6-0.6-1.3-0.6h-1.1c-0.5,0-0.9,0.2-1.1,0.6L815.3,153.4z"/>
			<path class="st6" d="M913.7,124.6h-0.6v28.8h-18.6v-63c0-1.8,0.9-2.7,2.7-2.7h51c4.5,0,8.2,0.5,11.3,1.7c3.1,1.1,5.6,2.7,7.6,4.6
				c1.9,2,3.3,4.5,4.3,7.4s1.3,6.2,1.3,9.7v5.3c0,7.5-1.8,13.2-5.5,16.9c-3.6,3.7-9.6,5.6-18,5.6h-29.7L913.7,124.6z M914.2,104.1
				c-0.8,0-1.1,0.4-1.1,1.3V123h32.6c3,0,5.1-0.6,6.3-1.8c1.2-1.2,1.8-3.2,1.8-5.8V112c0-3-0.6-5.2-1.8-6.2
				c-1.2-1.1-3.3-1.7-6.3-1.7L914.2,104.1L914.2,104.1z"/>
			<path class="st6" d="M978.8,153.4V87.7h18.6v65.7H978.8z"/>
		</g>
		<g>
			<g>
				<g>
					<polygon class="st7" points="105.1,99.9 89,123.4 66.3,123.4 82.5,99.9 					"/>
				</g>
				<g>
					<polygon class="st8" points="105.1,100 121.5,123.5 105.1,147 89,123.5 					"/>
				</g>
				<g>
					<polygon class="st9" points="89,123.4 105.1,147 82.5,147 66.3,123.4 					"/>
				</g>
			</g>
			<g>
				<g>
					<polygon class="st7" points="105.1,52.9 89,76.4 66.3,76.4 82.5,52.9 					"/>
				</g>
				<g>
					<polygon class="st8" points="105.1,52.9 121.5,76.5 105.1,100 89,76.5 					"/>
				</g>
				<g>
					<polygon class="st9" points="89,76.4 105.1,99.9 82.5,99.9 66.4,76.4 					"/>
				</g>
			</g>
			<g>
				<g>
					<polygon class="st7" points="105.1,147 89,170.4 66.3,170.4 82.5,147 					"/>
				</g>
				<g>
					<polygon class="st8" points="105.1,147 121.5,170.5 105.1,194 89,170.5 					"/>
				</g>
				<g>
					<polygon class="st9" points="89,170.4 105.1,194 82.5,194 66.4,170.4 					"/>
				</g>
			</g>
			<g>
				<g>
					<polygon class="st7" points="144,123.4 127.9,147 105.1,147 121.3,123.4 					"/>
				</g>
				<g>
					<polygon class="st8" points="144,123.5 160.3,147 144,170.6 127.9,147 					"/>
				</g>
				<g>
					<polygon class="st9" points="127.9,147 144,170.4 121.3,170.4 105.2,147 					"/>
				</g>
			</g>
			<g>
				<g>
					<polygon class="st7" points="143.9,76.4 127.8,99.9 105.1,99.9 121.2,76.4 					"/>
				</g>
				<g>
					<polygon class="st8" points="143.9,76.5 160.2,99.9 143.9,123.5 127.8,99.9 					"/>
				</g>
				<g>
					<polygon class="st9" points="127.8,99.9 143.8,123.4 121.2,123.4 105.1,99.9 					"/>
				</g>
			</g>
			<g>
				<g>
					<polygon class="st7" points="66.6,123.4 50.5,147 27.8,147 44,123.4 					"/>
				</g>
				<g>
					<polygon class="st8" points="66.6,123.5 83,147 66.6,170.6 50.5,147 					"/>
				</g>
				<g>
					<polygon class="st9" points="50.5,147 66.6,170.4 44,170.4 27.9,147 					"/>
				</g>
			</g>
			<g>
				<g>
					<polygon class="st7" points="66.6,76.4 50.4,99.9 27.8,99.9 43.9,76.4 					"/>
				</g>
				<g>
					<polygon class="st8" points="66.6,76.5 82.9,99.9 66.6,123.5 50.4,99.9 					"/>
				</g>
				<g>
					<polygon class="st9" points="50.4,99.9 66.5,123.4 43.9,123.4 27.8,99.9 					"/>
				</g>
			</g>
		</g>
	</g>
</g>
</svg>
