<?xml version="1.0" standalone="no"?>
<!DOCTYPE svg PUBLIC "-//W3C//DTD SVG 20010904//EN"
 "http://www.w3.org/TR/2001/REC-SVG-20010904/DTD/svg10.dtd">
<svg version="1.0" xmlns="http://www.w3.org/2000/svg"
 width="700.000000pt" height="700.000000pt" viewBox="0 0 700.000000 700.000000"
 preserveAspectRatio="xMidYMid meet">
<metadata>
Created by potrace 1.11, written by Peter Selinger 2001-2013
</metadata>
<g transform="translate(0.000000,700.000000) scale(0.100000,-0.100000)"
fill="#000000" stroke="none">
<path d="M2724 6576 c-120 -176 -263 -383 -316 -460 -53 -78 -127 -186 -164
-241 -37 -55 -69 -102 -71 -105 -3 -3 -248 -5 -544 -5 l-540 0 -388 -565
c-387 -562 -389 -565 -372 -590 25 -39 429 -630 624 -912 52 -75 104 -151 115
-170 l21 -33 -165 -238 c-90 -131 -164 -240 -164 -242 0 -3 -7 -13 -15 -22 -8
-10 -63 -89 -123 -175 -59 -87 -152 -223 -206 -303 l-100 -145 87 -128 c47
-70 159 -234 249 -364 90 -131 222 -325 295 -431 73 -107 138 -198 145 -204 8
-6 217 -9 543 -8 355 0 533 -3 540 -10 6 -6 37 -51 70 -100 33 -49 88 -130
123 -180 34 -49 67 -97 73 -106 69 -100 204 -299 338 -494 l164 -240 543 0
c343 0 547 4 552 10 5 6 49 68 99 140 49 72 116 168 148 215 33 47 148 213
257 370 108 157 215 310 237 340 l40 55 543 0 542 0 21 30 c60 89 490 709 616
890 109 156 144 214 137 225 -25 42 -54 85 -185 272 -170 244 -213 307 -290
418 -56 81 -172 247 -261 374 -22 33 -38 65 -34 71 29 48 758 1091 764 1093
23 10 15 24 -137 242 -17 25 -125 180 -240 345 -115 165 -252 361 -304 435
l-96 135 -538 0 -538 0 -197 283 c-108 155 -226 325 -262 378 -36 53 -70 101
-75 108 -6 6 -62 85 -124 176 -63 91 -118 169 -123 175 -6 6 -206 10 -552 10
l-542 0 -220 -319z m1322 -4206 c0 -12 -4 -16 -9 -11 -5 5 -6 14 -3 20 10 15
12 14 12 -9z"/>
</g>
</svg>
