<?xml version="1.0" encoding="utf-8"?>
<!-- Generator: Adobe Illustrator 22.1.0, SVG Export Plug-In . SVG Version: 6.00 Build 0)  -->
<svg version="1.1" id="Layer_1" xmlns="http://www.w3.org/2000/svg" xmlns:xlink="http://www.w3.org/1999/xlink" x="0px" y="0px"
	 viewBox="0 0 1245 237" style="enable-background:new 0 0 1245 237;" xml:space="preserve">
<style type="text/css">
	.st0{fill:none;}
	.st1{fill:#FFCC3E;}
	.st2{fill:#D19705;}
	.st3{fill:#FFE36C;}
	.st4{fill:#E29C00;}
</style>
<g>
	<g>
		<g>
			<polygon class="st1" points="110.3,115.6 69.8,92.2 110.3,69.2 153,92.4 			"/>
		</g>
		<g>
			<polygon class="st2" points="69.3,92.4 69.3,143.3 110.5,167.2 111.4,116.7 			"/>
		</g>
		<g>
			<polygon class="st3" points="111.4,116.7 153.4,92.4 153.4,141 111.4,167.6 			"/>
		</g>
		<path class="st4" d="M111.2,11.8L21.1,63.2l-0.7,103.8l89.6,52.4l1.5-0.9l0.3,0l0-0.2l88.3-50.5l0.7-103.1l0-0.7L111.2,11.8z
			 M113.7,116.4l84.8-49.2l-0.6,97.6L113.7,116.4z M25.2,63.5l84.1-47.9v99.3L25.2,63.5z M107.2,116.3l-84.4,48.6l0.6-99.8
			L107.2,116.3z M109,117.4l0.3,0.2l0.2,98.8l-85.5-50L109,117.4z M111.2,115V14.6L197.8,65l-86.4,50.1L111.2,115z M111.7,117.6
			L111.7,117.6l85.6,49.2l-85.4,48.9L111.7,117.6z"/>
	</g>
	<g>
		<path class="st1" d="M248.3,136.2v15.7h-21.8V78.3c0-2.1,1-3.2,3-3.2h63c7.2,0,12.3,1.6,15.5,4.8c3.2,3.2,4.8,7.7,4.8,13.5v6.7
			c0,3-0.6,5.6-1.9,7.4c-1.2,1.9-2.7,3.4-4.3,4.5c2.2,1.1,4.1,2.8,5.6,5s2.2,4.9,2.2,8.2v6.7c0,6.5-1.6,11.3-4.6,14.7
			c-3,3.4-8.3,5.1-15.7,5.1h-39l-6-15.7h-0.7V136.2z M250,92.2c-1.2,0-1.8,0.6-1.8,1.8v12.9h36.4c2.4,0,4-0.5,5.1-1.3
			c1-0.9,1.5-2.4,1.5-4.8v-2.3c0-2.3-0.5-3.9-1.5-4.9c-1-1-2.7-1.5-5.1-1.5L250,92.2L250,92.2z M248.3,119.4v14.5h37.8
			c1.9,0,3.3-0.5,4.1-1.3c0.9-0.9,1.3-2.4,1.3-4.8v-2.3c0-2.2-0.4-3.8-1.2-4.8c-0.9-0.9-2.2-1.3-4.3-1.3H248.3z"/>
		<path class="st1" d="M322.1,84.9V69.7h19.1v15.2H322.1z M322.1,151.9V94h19.1v57.9H322.1z"/>
		<path class="st1" d="M425.2,128.9c0,3.5-0.4,6.7-1.2,9.5c-0.9,2.8-2.2,5.2-4.1,7.2c-1.9,1.9-4.4,3.5-7.4,4.6
			c-3,1.1-6.7,1.6-11,1.6h-27.8c-4.3,0-7.9-0.5-11-1.6c-3-1.1-5.5-2.7-7.3-4.6c-1.8-1.9-3.3-4.4-4.1-7.2c-0.9-2.8-1.2-6-1.2-9.5
			v-11.9c0-3.4,0.4-6.6,1.2-9.4c0.9-2.8,2.2-5.2,4.1-7.3c1.9-2.1,4.4-3.5,7.3-4.6c3-1.1,6.6-1.6,11-1.6h27.8c4.3,0,7.9,0.5,11,1.6
			c3,1.1,5.5,2.7,7.4,4.6c1.9,1.9,3.3,4.4,4.1,7.3c0.9,2.8,1.2,6,1.2,9.4V128.9z M398,134.8c3,0,5.1-0.6,6.3-1.8
			c1.2-1.2,1.8-3.4,1.8-6.7v-8.2c0-3.5-0.6-5.8-1.8-7.2c-1.2-1.2-3.3-1.9-6.2-1.9h-20.7c-3,0-5.1,0.6-6.2,1.9
			c-1.2,1.3-1.7,3.7-1.7,7.1v8.2c0,3.3,0.6,5.6,1.7,6.7c1.2,1.2,3.3,1.8,6.2,1.8H398V134.8z"/>
		<path class="st1" d="M481.5,94.3v57.5h-21.7V94.3H428l-7.1-18.4V75h101.7c2.1,0,3,1.1,3,3.2v20l-20.1,7.4h-0.9V95.4
			c0-0.7-0.4-1.2-1.2-1.2h-22.1V94.3z"/>
		<path class="st1" d="M532.7,69.7h19.1V94h28.1c4.3,0,7.9,0.5,11,1.6c3,1.1,5.5,2.7,7.3,4.6c1.8,1.9,3.2,4.4,4,7.2
			c0.9,2.8,1.2,6,1.2,9.5v34.8h-19.1v-33.6c0-3.4-0.7-5.7-2.1-7.1s-3.4-1.9-6.1-1.9h-20.7l-3.2-8.4h-0.5v51.2h-19.1V69.7z"/>
		<path class="st1" d="M613,84.9V69.7h19.1v15.2H613z M613,151.9V94h19.1v57.9H613z"/>
		<path class="st1" d="M641.8,94h47.3c4.3,0,7.9,0.5,11,1.6c3,1.1,5.5,2.7,7.3,4.6c1.8,1.9,3.2,4.4,4,7.2c0.9,2.8,1.2,6,1.2,9.5
			v34.8h-19.1v-33.6c0-3.4-0.6-5.7-1.9-7.1c-1.2-1.3-3.3-1.9-6.2-1.9h-20.7l-3.2-8.4h-0.7v51.2h-19.1V94H641.8z"/>
		<path class="st1" d="M723.3,159.4h41.9c2.7,0,4.6-0.6,5.7-1.8c1.1-1.2,1.6-3.2,1.6-5.8v-4.6h-28.1c-8.7,0-14.7-1.7-18.4-5.2
			c-3.5-3.5-5.4-8.8-5.4-15.8v-9.1c0-3.5,0.4-6.7,1.2-9.5c0.9-2.8,2.2-5.2,4.1-7.2c1.9-1.9,4.4-3.5,7.3-4.6c3-1.1,6.7-1.6,11-1.6h42
			c3.5,0,5.2,1.7,5.2,5.2V153c0,3.4-0.4,6.5-1.2,9.3c-0.9,2.8-2.1,5.1-3.9,7.1c-1.8,1.9-4.3,3.5-7.3,4.6c-3,1.1-6.7,1.6-11.2,1.6
			h-44.8v-16.1H723.3z M771.8,144.9h0.7v-34c0-1.2-0.6-1.8-1.8-1.8H748c-2.9,0-5.1,0.6-6.3,1.9c-1.2,1.3-1.9,3.7-1.9,7.1v5.4
			c0,3.2,0.6,5.4,1.8,6.5c1.2,1.2,3.4,1.7,6.3,1.7h18.6L771.8,144.9z"/>
		<path class="st1" d="M800.7,135.6H848c1.1,0,1.9-0.2,2.3-0.7c0.4-0.5,0.6-1.2,0.6-2.3v-1.2c0-0.7-0.1-1.3-0.4-1.7
			c-0.2-0.4-0.9-0.6-1.7-0.7l-35.9-3c-4.4-0.4-7.7-1.7-9.7-4.1c-2.1-2.4-3.2-5.6-3.2-9.6v-4.6c0-4.3,1.2-7.6,3.5-10
			c2.3-2.4,6.1-3.7,11.3-3.7H867c1.7,0,2.7,0.9,2.7,2.7v13.2l-16.4,6.1h-0.7V109c0-0.6-0.2-0.9-0.7-0.9h-30.1
			c-1.1,0-1.8,0.2-2.2,0.6s-0.6,1.1-0.6,2.1v1.6c0,1,0.1,1.6,0.5,1.9c0.4,0.2,0.9,0.5,1.7,0.6l36.8,3.5c2.4,0.2,4.5,0.6,6.1,1.3
			c1.6,0.7,2.9,1.6,3.9,2.8c1,1.2,1.7,2.6,2.1,4.3c0.4,1.7,0.6,3.7,0.6,5.8v4.3c0,4.6-1.2,8.2-3.7,10.7c-2.4,2.6-6.7,3.8-12.9,3.8
			h-53.1v-16H800.7z"/>
		<path class="st3" d="M992.4,101.7h-0.9v-8.4c0-0.9-0.4-1.2-1.2-1.2h-40.4c-1.5,0-2.4,0.4-3,1s-0.9,1.6-0.9,2.7v1.9
			c0,1.5,0.2,2.4,0.7,2.8c0.5,0.4,1.5,0.7,2.8,1l47.6,6.7c3,0.4,5.6,1.1,7.7,1.9c2.1,0.9,3.8,2.1,5.1,3.5s2.3,3.2,2.8,5.4
			c0.6,2.1,0.9,4.6,0.9,7.4v6.1c0,3.2-0.4,6-1.2,8.4c-0.7,2.4-2.1,4.5-3.8,6.1c-1.7,1.7-4,2.9-6.9,3.8c-2.9,0.9-6.5,1.2-10.6,1.2
			h-68.3v-20H984c1.8,0,3-0.4,3.7-1c0.6-0.6,0.9-1.8,0.9-3.5v-2.1c0-1.3-0.2-2.3-0.7-2.8c-0.5-0.5-1.3-0.9-2.7-1l-45.8-6
			c-3-0.4-5.7-1.1-7.9-1.9c-2.2-0.9-4-1.9-5.5-3.4c-1.5-1.5-2.4-3.2-3-5.1c-0.6-2.1-1-4.5-1-7.3v-5.4c0-5.6,1.5-9.9,4.4-12.9
			c2.9-3,7.9-4.6,14.7-4.6h68.2c2.2,0,3.3,1.1,3.3,3.4v15.8L992.4,101.7z"/>
		<path class="st3" d="M1022.8,78.3c0-2.1,1-3.2,2.9-3.2h57.5c5.7,0,10.6,0.7,14.5,2.2c4,1.5,7.2,3.5,9.7,6.1
			c2.4,2.7,4.3,5.8,5.4,9.6c1.1,3.8,1.7,7.9,1.7,12.5v15.8c0,4.6-0.6,8.9-1.7,12.5c-1.1,3.8-2.9,6.9-5.4,9.6
			c-2.4,2.7-5.7,4.6-9.7,6.1c-4,1.5-8.9,2.2-14.5,2.2h-30.9l-6.9-17.9h-0.9v17.9h-21.7V78.3z M1044.5,131.9h36.8
			c4.1,0,7.1-0.9,8.9-2.7c1.7-1.8,2.7-5.1,2.7-9.7v-12.9c0-4.8-0.9-8-2.7-9.7c-1.7-1.7-4.8-2.6-8.9-2.6h-35.2
			c-0.5,0-0.9,0.1-1.2,0.5c-0.2,0.4-0.4,0.7-0.4,1.1V131.9z"/>
		<path class="st3" d="M1145,75.1v31.1h0.7l40.2-31.1h29.5V76l-45.2,34L1218,151v0.9h-29.8l-42.4-36.9h-0.7v36.9h-21.7V75.1
			L1145,75.1L1145,75.1z"/>
	</g>
</g>
</svg>
