<?xml version="1.0" encoding="utf-8"?>
<!-- Generator: Adobe Illustrator 22.1.0, SVG Export Plug-In . SVG Version: 6.00 Build 0)  -->
<svg version="1.1" id="Layer_1" xmlns="http://www.w3.org/2000/svg" xmlns:xlink="http://www.w3.org/1999/xlink" x="0px" y="0px"
	 viewBox="0 0 100 100" style="enable-background:new 0 0 100 100;" xml:space="preserve">
<style type="text/css">
	.st0{fill:#FFCC3E;}
	.st1{fill:#D19705;}
	.st2{fill:#FFE36C;}
	.st3{fill:none;stroke:#E29C00;stroke-miterlimit:10;}
	<!-- @keyframes Ani {
    0% {
        opacity: 1;
				transform-origin: center;
    }
		50% {
        opacity: 0;
				transform-origin: center;
    }
		100% {
        opacity: 1;
				transform-origin: center;
    }
}

		.Ani {
		    animation: Ani 3s ease-in-out infinite;
		    -webkit-animation: Ani 3s ease-in-out infinite;
				animation-play-state: running;
		}

		.Ani2 {
		    animation: Ani 4s ease-in-out infinite;
		    -webkit-animation: Ani 4s ease-in-out infinite;
				animation-play-state: running;
		}

		#Layer_1:hover > .Ani{
		animation-play-state: paused;
		} -->
</style>
<polygon class="st0" points="51.2,45.4 25,30.2 50.5,15.7 77.4,30.2 "/>
<polygon class="st1" points="25,30.2 25,62 51.2,77.2 51.2,45.4 "/>
<polygon class="st2" points="51.2,45.4 77.4,30.2 77.4,60.6 51.2,77.2 "/>
<polyline class="st3" points="7,21.3 9.8,13 47,13 51.2,4.7 55.3,13 91.2,13 94,21.3 "/>
<polyline class="st3" points="7,73.7 9.8,82 47,82 51.2,90.3 55.3,82 91.2,82 94,73.7 "/>
<line class="st3" x1="9.8" y1="35.1" x2="20.8" y2="35.1"/>
<line class="st3" x1="9.8" y1="42" x2="20.8" y2="42"/>
<line class="st3" x1="9.8" y1="48.9" x2="20.8" y2="48.9"/>
<line class="st3" x1="9.8" y1="55.8" x2="20.8" y2="55.8"/>
<rect x="83.6" y="29.5" class="st2 Ani" width="6.9" height="6.9"/>
<rect x="83.6" y="39.9" class="st0 Ani2" width="6.9" height="6.9"/>
<rect x="83.6" y="51" class="st1 Ani" width="6.9" height="6.9"/>
</svg>
