<?xml version="1.0" encoding="utf-8"?>
<!-- Generator: Adobe Illustrator 22.1.0, SVG Export Plug-In . SVG Version: 6.00 Build 0)  -->
<svg version="1.1" id="Layer_1" xmlns="http://www.w3.org/2000/svg" xmlns:xlink="http://www.w3.org/1999/xlink" x="0px" y="0px"
	 viewBox="0 0 1249 500" style="enable-background:new 0 0 1249 500;" xml:space="preserve">
<style type="text/css">
	.st0{enable-background:new    ;}
	.st1{fill:none;stroke:#FFCF48;stroke-width:0.5;stroke-miterlimit:10;}
	.st2{fill:none;stroke:#FFCF48;stroke-width:0.5;stroke-miterlimit:10;stroke-dasharray:12;}
	.st3{fill:#B3B3B3;}
	.st4{fill:#E6E6E6;}
	.st5{fill:#808080;}
	.st6{fill:#FFCF48;}
	.st7{fill:none;stroke:#FFCF48;stroke-miterlimit:10;}
</style>
<g>
	<g class="st0">
		<g>
			<polygon class="st1" points="498.3,106.5 478.2,135 449.7,135 469.8,106.5 			"/>
		</g>
		<g>
			<polygon class="st1" points="498.3,106.5 518.5,135 498.3,163.5 478.2,135 			"/>
		</g>
		<g>
			<polygon class="st1" points="478.2,135 498.3,163.5 469.8,163.5 449.7,135 			"/>
		</g>
	</g>
</g>
<g>
	<g class="st0">
		<g>
			<polygon class="st1" points="177.8,20.5 169,33.1 156.4,33.1 165.2,20.5 			"/>
		</g>
		<g>
			<polygon class="st1" points="177.8,20.5 186.8,33.1 177.8,45.7 169,33.1 			"/>
		</g>
		<g>
			<polygon class="st1" points="169,33.1 177.8,45.7 165.2,45.7 156.4,33.1 			"/>
		</g>
	</g>
</g>
<g>
	<g class="st0">
		<g>
			<polygon class="st1" points="96.3,109.2 77.2,136.4 50,136.4 69.2,109.2 			"/>
		</g>
		<g>
			<polygon class="st1" points="96.3,109.2 115.6,136.4 96.3,163.5 77.2,136.4 			"/>
		</g>
		<g>
			<polygon class="st1" points="77.2,136.4 96.3,163.5 69.2,163.5 50,136.4 			"/>
		</g>
	</g>
</g>
<g>
	<g class="st0">
		<g>
			<polygon class="st1" points="438.8,43.7 419.6,70.9 392.5,70.9 411.6,43.7 			"/>
		</g>
		<g>
			<polygon class="st1" points="438.8,43.7 458,70.9 438.8,98.1 419.6,70.9 			"/>
		</g>
		<g>
			<polygon class="st1" points="419.6,70.9 438.8,98.1 411.6,98.1 392.5,70.9 			"/>
		</g>
	</g>
</g>
<g>
	<g class="st0">
		<g>
			<polygon class="st1" points="189.9,270.4 175.6,290.7 155.2,290.7 169.6,270.4 			"/>
		</g>
		<g>
			<polygon class="st1" points="189.9,270.4 204.4,290.7 189.9,311.1 175.6,290.7 			"/>
		</g>
		<g>
			<polygon class="st1" points="175.6,290.7 189.9,311.1 169.6,311.1 155.2,290.7 			"/>
		</g>
	</g>
</g>
<g>
	<g class="st0">
		<g>
			<polygon class="st2" points="547,135 526.9,163.5 498.4,163.5 518.5,135 			"/>
		</g>
		<g>
			<polygon class="st2" points="547,135 567.2,163.5 547,192 526.9,163.5 			"/>
		</g>
		<g>
			<polygon class="st2" points="526.9,163.5 547,192 518.5,192 498.4,163.5 			"/>
		</g>
	</g>
</g>
<g>
	<g class="st0">
		<g>
			<polygon class="st1" points="449.6,135 429.5,163.5 401,163.5 421.1,135 			"/>
		</g>
		<g>
			<polygon class="st1" points="449.6,135 469.8,163.5 449.6,192 429.5,163.5 			"/>
		</g>
		<g>
			<polygon class="st1" points="429.5,163.5 449.6,192 421.1,192 401,163.5 			"/>
		</g>
	</g>
</g>
<g>
	<g class="st0">
		<g>
			<polygon class="st1" points="449.6,192 429.5,220.5 401,220.5 421.1,192 			"/>
		</g>
		<g>
			<polygon class="st1" points="449.6,192 469.8,220.5 449.6,249 429.5,220.5 			"/>
		</g>
		<g>
			<polygon class="st1" points="429.5,220.5 449.6,249 421.1,249 401,220.5 			"/>
		</g>
	</g>
</g>
<g>
	<g class="st0">
		<g>
			<polygon class="st1" points="498.3,220.5 478.2,249 449.7,249 469.8,220.5 			"/>
		</g>
		<g>
			<polygon class="st1" points="498.3,220.5 518.5,249 498.3,277.5 478.2,249 			"/>
		</g>
		<g>
			<polygon class="st1" points="478.2,249 498.3,277.5 469.8,277.5 449.7,249 			"/>
		</g>
	</g>
</g>
<g>
	<g class="st0">
		<g>
			<polygon class="st2" points="498.3,163.5 478.2,192 449.7,192 469.8,163.5 			"/>
		</g>
		<g>
			<polygon class="st2" points="498.3,163.5 518.5,192 498.3,220.5 478.2,192 			"/>
		</g>
		<g>
			<polygon class="st2" points="478.2,192 498.3,220.5 469.8,220.5 449.7,192 			"/>
		</g>
	</g>
</g>
<g>
	<g class="st0">
		<g>
			<polygon class="st1" points="547,192.2 526.8,220.7 498.3,220.7 518.5,192.2 			"/>
		</g>
		<g>
			<polygon class="st1" points="547,192.2 567.2,220.7 547,249.2 526.8,220.7 			"/>
		</g>
		<g>
			<polygon class="st1" points="526.8,220.7 547,249.2 518.5,249.2 498.3,220.7 			"/>
		</g>
	</g>
</g>
<g>
	<g class="st0">
		<g>
			<polygon class="st1" points="285.7,23.3 254.3,67.8 209.7,67.8 241.2,23.3 			"/>
		</g>
		<g>
			<polygon class="st1" points="285.7,23.3 317.3,67.8 285.7,112.4 254.3,67.8 			"/>
		</g>
		<g>
			<polygon class="st1" points="254.3,67.8 285.7,112.4 241.2,112.4 209.7,67.8 			"/>
		</g>
	</g>
</g>
<g>
	<g class="st0">
		<g>
			<polygon class="st2" points="361.9,67.8 330.5,112.4 285.9,112.4 317.3,67.8 			"/>
		</g>
		<g>
			<polygon class="st2" points="361.9,67.8 393.5,112.4 361.9,157 330.5,112.4 			"/>
		</g>
		<g>
			<polygon class="st2" points="330.5,112.4 361.9,157 317.3,157 285.9,112.4 			"/>
		</g>
	</g>
</g>
<g>
	<g class="st0">
		<g>
			<polygon class="st1" points="209.6,67.8 178.1,112.4 133.6,112.4 165,67.8 			"/>
		</g>
		<g>
			<polygon class="st1" points="209.6,67.8 241.2,112.4 209.6,157 178.1,112.4 			"/>
		</g>
		<g>
			<polygon class="st1" points="178.1,112.4 209.6,157 165,157 133.6,112.4 			"/>
		</g>
	</g>
</g>
<g>
	<g class="st0">
		<g>
			<polygon class="st1" points="209.6,157 178.1,201.6 133.6,201.6 165,157 			"/>
		</g>
		<g>
			<polygon class="st1" points="209.6,157 241.2,201.6 209.6,246.2 178.1,201.6 			"/>
		</g>
		<g>
			<polygon class="st1" points="178.1,201.6 209.6,246.2 165,246.2 133.6,201.6 			"/>
		</g>
	</g>
</g>
<g>
	<g class="st0">
		<g>
			<polygon class="st1" points="285.7,201.6 254.3,246.2 209.7,246.2 241.2,201.6 			"/>
		</g>
		<g>
			<polygon class="st1" points="285.7,201.6 317.3,246.2 285.7,290.7 254.3,246.2 			"/>
		</g>
		<g>
			<polygon class="st1" points="254.3,246.2 285.7,290.7 241.2,290.7 209.7,246.2 			"/>
		</g>
	</g>
</g>
<g>
	<g class="st0">
		<g>
			<polygon class="st3" points="275.5,132.9 258.5,157 234.4,157 251.4,132.9 			"/>
		</g>
		<g>
			<polygon class="st4" points="275.5,132.9 292.6,157 275.5,181.1 258.5,157 			"/>
		</g>
		<g>
			<polygon class="st5" points="258.5,157 275.5,181.1 251.4,181.1 234.4,157 			"/>
		</g>
	</g>
</g>
<g>
	<g class="st0">
		<g>
			<polygon class="st1" points="361.9,157.3 330.3,201.9 285.7,201.9 317.3,157.3 			"/>
		</g>
		<g>
			<polygon class="st1" points="361.9,157.3 393.5,201.9 361.9,246.5 330.3,201.9 			"/>
		</g>
		<g>
			<polygon class="st1" points="330.3,201.9 361.9,246.5 317.3,246.5 285.7,201.9 			"/>
		</g>
	</g>
</g>
<g id="auq5Fg.tif">
	<g>
		<path class="st6" d="M294.4,261.8c-5.5,0-11.1,0-16.6,0c0-0.9-0.1-1.8,0-2.7c0.1-0.9-0.2-1.7-0.7-2.5c-2.2-3.4-4.3-6.9-6.5-10.3
			c-0.6-0.9-1.1-1.9-1.3-3c0-0.5,0-0.9,0-1.4c0.3-0.9,0.9-1.6,1.8-1.8c1.9-0.5,3.4,0.1,4.8,1.4c0.3-0.4,0.2-0.7,0.2-1
			c0-3.3,0-6.6,0-9.9c0-1.9,0.7-3.1,2.5-3.7c0.9,0,1.8,0,2.6,0c1.7,0.6,2.4,1.8,2.3,3.5c-0.1,0.9,0,1.9,0,2.8c0,1.5,0,1.5,1.5,1.5
			c1.1,0,2.2,0,2.8,1c0.7,1.1,1.6,1.2,2.7,1.1c0.9-0.1,1.8,0.1,2.3,0.9c0.5,0.8,1.2,0.9,2,0.9c2.2,0,2.9,0.5,3.6,2.7
			c0,3.6,0,7.1,0,10.7C297,255.1,295.7,258.4,294.4,261.8z M278.2,238.8c0,2.8,0,5.6,0,8.4c0,1.1,0,1.1-1.1,1.1
			c-0.8,0-1.2-0.2-1.1-1c0-0.3,0-0.7,0-1.1c0-0.6,0.1-1.2-0.3-1.8c-0.6-0.7-1.2-1.4-2-2c-0.4-0.3-0.9-0.5-1.5-0.5
			c-0.6,0-0.9,0.3-0.8,1c0.1,0.6,0.3,1.1,0.6,1.5c2.3,3.7,4.7,7.5,7,11.2c0.6,0.9,1,1.8,0.8,2.9c-0.1,0.8,0.2,1.1,1,1.1
			c3.6,0,7.3,0,10.9,0c0.7,0,1-0.3,1.3-0.9c0.8-2.3,1.7-4.6,2.6-6.9c0.1-0.3,0.3-0.7,0.3-1c0-3,0-6,0-8.9c0-1.1-0.3-1.3-1.6-1.3
			c-1.1,0-0.9,0.7-0.9,1.3c0,0.3,0,0.6,0,0.9c0,0.9-0.6,0.8-1.1,0.8c-0.6,0-1.1,0-1.1-0.8c0-0.9,0-1.8,0-2.7c0-0.5-0.1-1-0.7-1.2
			c-1.4-0.3-1.8,0-1.8,1.4c0,0.1,0,0.3,0,0.4c0.1,0.8-0.4,0.9-1.1,0.9c-0.7,0-1.2,0-1.2-0.9c0-0.9,0-1.9,0-2.8
			c0-0.8-0.4-1.2-1.2-1.2c-0.3,0-0.6,0-0.9,0c-0.7-0.1-1,0.3-1,1c0,1,0,2,0,3.1c0,0.3,0,0.6-0.4,0.8c-1.1,0.4-1.8-0.1-1.8-1.2
			c0-3.4,0-6.8,0-10.2c0-0.5,0-0.9-0.5-1.2c-1.3-0.6-2.5,0.1-2.5,1.5C278.2,233.3,278.2,236,278.2,238.8z"/>
	</g>
</g>
<g id="TaccuV.tif">
	<g>
		<path class="st6" d="M369,93.7c0.2,0,0.4,0,0.7,0c0.7,0.3,0.9,0.8,0.9,1.5c-0.1,1.4-0.4,2.7-0.9,3.9c-0.7,1.9-1.8,3.6-2.9,5.2
			c-1.6,2.2-3.3,4.2-5.1,6.2c-0.1,0.2-0.1,0.3,0,0.4c0.8,0.9,1.5,1.7,2.3,2.6c1.5,1.7,2.9,3.5,4.2,5.4c1,1.5,1.8,3,2.3,4.8
			c0.2,0.6,0.2,1.2,0.3,1.8c0,0.4,0,0.7,0,1.1c-0.2,0.4-0.4,0.7-0.9,0.9c-0.2,0-0.4,0-0.6,0c-0.6-0.2-0.9-0.7-0.9-1.4
			c0-0.2,0-0.4,0-0.6c0-0.4,0-0.4-0.5-0.4c-5.3,0-10.7,0-16,0c-0.1,0-0.1,0-0.2,0c-0.1,0-0.2,0.1-0.2,0.2c0,0.3-0.1,0.6-0.1,1
			c0,0.3-0.1,0.5-0.2,0.7c-0.2,0.2-0.4,0.3-0.6,0.5c-0.2,0-0.4,0-0.7,0c-0.4-0.2-0.7-0.4-0.8-0.8c0-0.4,0-0.8,0-1.2
			c0.1-0.7,0.2-1.4,0.4-2.1c0.6-2,1.7-3.7,2.9-5.4c1.7-2.4,3.6-4.5,5.5-6.7c0.5-0.6,0.5-0.4,0-0.9c-1.6-1.8-3.2-3.6-4.6-5.6
			c-1.1-1.5-2.1-3.1-2.9-4.9c-0.6-1.5-1.1-3-1.1-4.6c0-0.7,0.2-1.2,0.9-1.5c0.2,0,0.4,0,0.6,0c0.6,0.2,0.9,0.7,0.9,1.4
			c0,0.2,0,0.4,0,0.6c0,0.2,0.1,0.2,0.2,0.2c0.1,0,0.1,0,0.2,0c5.2,0,10.4,0,15.6,0c0.1,0,0.1,0,0.2,0c0.2,0,0.2-0.1,0.3-0.2
			c0-0.2,0-0.4,0-0.6C368.1,94.4,368.4,94,369,93.7z M359.9,98.3C359.9,98.3,359.9,98.3,359.9,98.3c-2.4,0-4.8,0-7.2,0
			c-0.3,0-0.3,0-0.2,0.3c0.2,0.5,0.4,0.9,0.6,1.4c0.1,0.2,0.3,0.3,0.5,0.3c2.2,0,4.3,0,6.5,0c2,0,4.1,0,6.1,0c0.2,0,0.4-0.1,0.5-0.3
			c0.2-0.4,0.4-0.9,0.6-1.4c0.1-0.3,0.1-0.3-0.2-0.3C364.7,98.3,362.3,98.3,359.9,98.3z M359.9,122.7
			C359.9,122.7,359.9,122.7,359.9,122.7c0.7,0,1.4,0,2.1,0c1.7,0,3.5,0,5.2,0c0.3,0,0.3,0,0.2-0.3c-0.2-0.4-0.4-0.8-0.6-1.2
			c-0.1-0.2-0.2-0.3-0.4-0.3c-0.5,0-0.9,0-1.4,0c-3.8,0-7.6,0-11.4,0c-0.2,0-0.4,0.1-0.5,0.3c-0.2,0.4-0.4,0.8-0.6,1.2
			c-0.2,0.3-0.1,0.3,0.2,0.3C355.1,122.7,357.5,122.7,359.9,122.7z M359.9,118.6C359.9,118.6,359.9,118.6,359.9,118.6
			c1.6,0,3.2,0,4.8,0c0.1,0,0.2,0,0.2,0c0.1-0.1,0-0.1-0.1-0.2c-0.3-0.4-0.7-0.9-1-1.3c-0.1-0.1-0.2-0.2-0.4-0.2c-2.4,0-4.7,0-7.1,0
			c-0.1,0-0.2,0-0.3,0.2c-0.3,0.4-0.7,0.9-1,1.3c0,0.1-0.1,0.1-0.1,0.2c0,0.1,0.1,0,0.2,0C356.7,118.6,358.3,118.6,359.9,118.6z
			 M359.9,102.6C359.9,102.6,359.9,102.6,359.9,102.6c-0.1,0-0.2,0-0.2,0c-1.5,0-3.1,0-4.6,0c-0.1,0-0.2,0-0.2,0
			c-0.1,0.1,0,0.2,0.1,0.2c0.3,0.4,0.6,0.8,0.9,1.2c0.1,0.1,0.2,0.2,0.4,0.2c2.5,0,5,0,7.5,0c0.1,0,0.3,0,0.3-0.2
			c0.3-0.4,0.6-0.8,0.9-1.2c0-0.1,0.1-0.1,0.1-0.2c0-0.1-0.1,0-0.2,0C363.1,102.6,361.5,102.6,359.9,102.6z M361.9,106.7
			c-0.1,0-0.1,0-0.1,0c-1.2,0-2.4,0-3.6,0c-0.1,0-0.1,0-0.1,0c0,0.1,0,0.1,0.1,0.1c0.6,0.7,1.1,1.3,1.7,2c0.1,0.1,0.2,0.1,0.3,0
			c0.3-0.4,0.6-0.7,1-1.1C361.3,107.4,361.6,107,361.9,106.7z M358.3,114.4c0,0.1,0.1,0.1,0.2,0.1c1,0,2,0,3,0c0.1,0,0.2,0,0.2-0.1
			c0-0.1,0-0.1-0.1-0.2c-0.5-0.5-1-1.1-1.5-1.6c-0.1-0.1-0.2-0.1-0.3,0c-0.5,0.5-1,1.1-1.4,1.6C358.3,114.3,358.3,114.3,358.3,114.4
			z"/>
	</g>
</g>
<g id="darKCE.tif">
	<g>
		<path class="st6" d="M186.4,103.2c0.2,0,0.4,0.1,0.6,0.2c1.4,0.7,2.4,1.8,3.3,3c0.8,1.2,1.4,2.6,2,3.9c0.7,1.5,1.4,2.9,2.5,4.1
			c1,1.1,2.1,2,3.4,2.7c0.5,0.3,1.1,0.5,1.7,0.4c0.2,0,0.3,0,0.4-0.2c0.7-1.5,1.9-2.6,3.3-3.4c1.9-1.2,4-1.8,6.3-2
			c1.9-0.2,3.7,0,5.5,0.5c0.6,0.2,1.3,0.2,1.9,0.3c1.2,0.1,2.4,0.3,3.6,0.3c0.2,0,0.4,0,0.6,0c0.2,0.1,0.1,0.3,0.2,0.5
			c0.2,0.5,0.4,0.8,0.9,1c0,0,0.1,0,0.2,0.1c0,0,0,0,0.1,0c-0.1-0.1-0.2-0.2-0.3-0.4c-0.4-0.6-0.5-1.2-0.2-1.8
			c0.3-0.6,0.8-1,1.6-0.9c0.3,0,0.7,0.2,0.9,0.3c0.2,0.1,0.4,0.3,0.7,0.5c-0.5-0.8-1.7-1.4-2.5-1.2c-0.3,0.1-0.5,0.2-0.8,0.4
			c-0.1,0.1-0.2,0.1-0.2-0.1c-0.2-0.7,0.2-1.5,1-1.9c1-0.4,1.8-0.2,2.5,0.6c0.4,0.5,0.6,1,0.8,1.6c0.3,0.9,0.8,1.5,1.6,1.9
			c1,0.5,1.9,1.1,2.7,1.9c0.4,0.4,0.7,0.7,1,1.2c0.3,0.5,0.6,1,0.9,1.6c0.1,0.3,0.4,0.5,0.5,0.7c0,0.2,0,0.4,0,0.6
			c-0.1,0.1-0.1,0.2-0.2,0.3c-0.6,0.5-1.2,0.9-1.9,1c-0.2,0-0.3,0-0.4-0.2c-0.3,0.3-0.8,0.3-1.2,0.1c-0.5-0.2-1-0.4-1.6-0.4
			c-0.8,0-1.5,0.1-2.3,0.2c-0.6,0.1-1.1,0.2-1.7,0.3c-0.5,0.1-0.7,0.5-0.8,0.9c-0.2,0.6,0.3,1,1,1c0.3,0,0.6-0.1,0.9-0.1
			c0.1,0,0.2,0,0.3,0.1c0.1,0.1,0.2,0.2,0.2,0.3c0,0.1-0.1,0.1-0.2,0.1c-0.1,0-0.2,0-0.2,0.2c-0.1,0.3-0.3,0.3-0.5,0.1
			c-0.1-0.1-0.1-0.1-0.2-0.2c-0.1-0.1-0.2-0.1-0.2-0.1c-0.1,0.1-0.3,0.2-0.4,0.2c-0.2,0.2-0.3,0.1-0.5,0c0,0-0.1-0.1-0.1-0.1
			c-0.3,0.1-0.4-0.1-0.6-0.2c-0.1,0-0.1-0.1-0.2,0c-0.1,0.2-0.2,0.1-0.3,0c-0.1-0.1-0.1-0.2-0.1-0.3c-0.2-0.6-0.6-0.9-1.2-1
			c-0.5-0.2-1.1-0.1-1.6,0c-1.2,0.3-2.4,0.3-3.6,0.1c-1.3-0.2-2.7-0.3-4-0.2c-0.9,0-1.9,0.1-2.8,0.1c-1,0-1.9,0-2.8-0.2
			c-0.4-0.1-0.8-0.2-1.2-0.3c0.1,0.3,0.3,0.4,0.5,0.5c0.4,0.2,0.7,0.4,0.9,0.7c0.4,0.4,0.6,0.4,1.1,0.2c0.1,0,0.2-0.1,0.4-0.2
			c0.1-0.1,0.2-0.1,0.4,0c0.3,0.2,0.6,0.4,0.7,0.8c0.1,0.1,0,0.2-0.1,0.3c-0.2,0-0.5-0.1-0.6-0.4c-0.1-0.2-0.2-0.2-0.4-0.2
			c-0.4,0.1-0.4,0.1-0.4,0.4c0,0.3-0.2,0.3-0.4,0.2c-0.1-0.1-0.2-0.2-0.3-0.2c-0.1-0.1-0.3-0.2-0.4-0.2c-0.5-0.1-0.9-0.3-1.3-0.7
			c-0.9-0.8-1.9-1.6-2.8-2.4c-0.4-0.4-0.9-0.7-1.3-1.1c-0.2-0.3-0.5-0.4-0.8-0.4c0,0-0.1,0-0.1,0c-0.6,0-1.1-0.2-1.6-0.5
			c-0.6-0.4-1.2-0.9-1.8-1.3c-1.2-1-2.2-2.1-2.9-3.4c-0.7-1.3-1.3-2.7-1.9-4.1c-0.7-1.5-1.5-3-2.4-4.3c-0.3-0.4-0.7-0.8-1.2-1.1
			c-0.3-0.2-0.6-0.3-0.9-0.5C186.4,103.4,186.4,103.3,186.4,103.2z M229,116.5c-0.3,0-0.8,0.4-0.8,0.6c0,0.4,0.4,0.8,0.8,0.8
			c0.4,0,0.7-0.3,0.7-0.6C229.8,116.9,229.5,116.5,229,116.5z"/>
	</g>
</g>
<g id="pSpqYz.tif">
	<g>
		<path class="st6" d="M202,212.2c-5,0-8-4.9-5.9-9c0.2-0.4,0.5-0.8,0.9-1.2c5.4-5.4,10.8-10.8,16.2-16.3c2.1-2.1,6.5-2.7,9.2,0.7
			c2.1,2.7,1.4,6.3-0.5,8.1c-5.4,5.3-10.7,10.6-16,15.9C204.7,211.6,203.3,212.1,202,212.2z M200.7,209.8c-0.3-0.2-0.5-0.4-0.8-0.6
			c-1.3-1.2-1.4-3.3-0.2-4.6c2.8-2.8,5.5-5.5,8.3-8.3c0.4-0.4,0.6-0.3,0.9,0c1.2,1.2,2.4,2.4,3.6,3.6c0.3,0.4,0.6,0.4,0.9,0
			c2.3-2.3,4.6-4.7,7-7c0.7-0.7,1.1-1.6,1.2-2.7c0.1-1.7-0.9-3.3-2.4-4c-1.6-0.7-3.3-0.4-4.6,0.9c-5.2,5.2-10.5,10.5-15.7,15.7
			c-0.1,0.1-0.2,0.2-0.3,0.3c-1,1.2-1.2,2.6-0.7,4.1C198.3,208.7,199.3,209.5,200.7,209.8z"/>
	</g>
</g>
<g id="sn9d4A.tif">
	<g>
		<path class="st7" d="M356.7,182.5c3.1,0,6.1,0,9.2,0c0,0,0.1,0,0.1,0c0.2,0,0.4,0,0.6,0c0.1,0,0.2,0,0.3,0.1
			c0.2,0.2,0.3,0.5,0.1,0.7c-0.1,0.1-0.2,0.2-0.3,0.3c-0.2,0.3-0.4,0.5-0.6,0.8c-0.3,0.5-0.4,1-0.4,1.6c0,0.6,0,1.2,0,1.8
			c0,0.7,0,1.3,0,2c0,0.8,0,1.6,0.1,2.4c0,0.6,0,1.1,0,1.7c0,0.1,0,0.2,0.1,0.3c0.7,1.1,1.5,2.3,2.2,3.4c1.5,2.4,3.1,4.7,4.6,7.1
			c0.3,0.5,0.6,1,1,1.5c0.3,0.5,0.7,1,0.9,1.5c0.4,0.8,0.6,1.6,0.5,2.5c0,0.5-0.2,1.1-0.5,1.5c-0.5,0.7-1.1,1.2-1.9,1.5
			c-0.5,0.2-1.1,0.3-1.6,0.3c-3.3,0-6.6,0-9.9,0c-1.5,0-2.9,0-4.4,0c-1.5,0-2.9,0-4.4,0c-0.5,0-0.9,0-1.4-0.1
			c-1.5-0.3-2.6-1.4-2.9-2.8c0-0.2-0.1-0.5-0.1-0.7c0-0.2,0-0.4,0-0.6c0-0.1,0-0.3,0-0.4c0.1-0.8,0.4-1.5,0.7-2.2
			c0.1-0.2,0.3-0.5,0.4-0.7c1-1.6,2.1-3.1,3.1-4.7c1.6-2.4,3.2-4.7,4.7-7.1c0-0.1,0.1-0.1,0.1-0.2c0-0.3,0-0.6,0-0.9
			c0-1.2,0-2.3,0-3.5c0-0.7,0-1.4,0-2.1c0-0.6,0-1.2-0.1-1.7c-0.1-0.6-0.3-1.2-0.7-1.7c-0.2-0.2-0.4-0.5-0.6-0.7
			c-0.1-0.2-0.2-0.4-0.1-0.5c0.1-0.2,0.3-0.3,0.5-0.3C356.4,182.5,356.5,182.5,356.7,182.5z"/>
	</g>
</g>
<g id="_x30_BCObq.tif">
	<g>
		<path class="st6" d="M283,54.3c0.7,0,1.3,0,2,0c1.9,1.4,2.1,2.2,1.1,4.5c-0.2,0.5,0.2,2.4,0.6,2.6c1.5,1,3,0.5,3.7-1.1
			c0.2-0.5,0-0.9-0.1-1.4c-0.5-1.8,0.5-3.5,2.3-4.1c1.6-0.5,3.4,0.5,3.9,2.2c0.5,1.7-0.4,3.6-2.1,4c-1.2,0.3-1.6,1-2,1.9
			c-0.3,0.7,0.6,2.6,1.4,2.8c0.2,0.1,0.4,0,0.6-0.1c2.3-1,3.7-0.6,5,1.7c0,0.7,0,1.3,0,2c-1.1,1.9-2.2,2.5-3.9,2.2
			c-1-0.2-1.5,0.3-1.6,1.5c-0.1,0.7,0.4,1.1,1.3,1.2c0.2,0,0.4,0,0.5,0c1.5,0.1,2.7,1,3.2,2.4c0.4,1.3,0,2.8-1.1,3.7
			c-1.2,1-2.6,1.1-4,0.3c-1.3-0.8-1.9-2.1-1.6-3.8c0.1-0.4,0.3-0.9-0.4-0.8c-0.7,0-1.7,1.2-1.7,1.9c0,1.7-0.8,2.9-2.4,3.6
			c-0.7,0-1.3,0-2,0c-1.4-0.7-2.2-1.8-2.2-3.4c0-0.7-0.5-1-1-1c-0.6,0-0.5,0.6-0.5,1c0,0.2,0,0.4-0.1,0.6c-0.4,1.5-1.8,2.6-3.2,2.4
			c-1.7-0.2-2.8-1.6-2.7-3.3c0.1-1.5,1.3-2.7,2.9-2.8c1.2,0,1.2,0,0.6-1.1c-0.2-0.4-0.4-0.8-0.6-1.2c-0.4-0.9-1-1.1-1.8-0.4
			c-1.8,1.6-3.3,1.4-4.6-0.7c0-0.5,0-1.1,0-1.6c1-1.9,2.3-2.3,4.2-1.2c0.9,0.5,1.5,0.2,1.7-0.7c0.2-0.8,0.5-1.6,0.9-2.4
			c0.3-0.7,0-1.1-0.7-1c-0.6,0.1-1.2,0.1-1.8,0c-1.7-0.3-3.1-1.6-3.4-3.3c-0.3-1.8,0.5-3.6,2.1-4.4c1.6-0.9,3.6-0.6,4.8,0.6
			c1.2,1.2,1.5,2.7,1.1,4.3c-0.1,0.4-0.3,0.9,0.4,0.9c1.4-0.1,2.2-1.3,1.7-2.6c-0.1-0.4-0.4-0.6-0.7-0.8c-0.5-0.3-0.9-0.8-1.2-1.3
			C280.7,56.6,281.3,55.3,283,54.3z M295.1,75.2c-1.2,0.1-2.5-1-2.5-2c0.1-2.1,1.2-3,3.2-2.8c0.9,0.1,1.7-0.1,2.2-1
			c0.5-0.8,0.4-1.6-0.1-2.4c-0.6-0.9-1.7-1.1-2.9-0.5c-1.1,0.6-1.9,0.4-2.6-0.5c-0.3-0.4-0.6-0.8-0.9-1.2c-0.5-0.7-0.5-1.5-0.2-2.2
			c0.5-1.3,1.2-2.4,2.8-2.7c0.9-0.2,1.6-1.2,1.6-2c0-0.9-0.6-1.8-1.5-2c-0.9-0.3-1.9,0.1-2.4,0.8c-0.5,0.7-0.4,1.4-0.2,2.2
			c0.4,1.3-0.4,3.1-1.4,3.7c-0.8,0.5-3.5,0.2-4.2-0.4c-0.1-0.1-0.3-0.3-0.3-0.4c-0.4-1.3-1.1-2.6-0.2-4.1c0.5-0.8,0.2-1.7-0.6-2.2
			c-0.8-0.4-1.7-0.2-2.2,0.5c-0.5,0.7-0.4,1.8,0.4,2.2c1.3,0.6,1.4,1.8,1.7,2.9c0.2,0.8-0.1,1.4-0.8,1.7c-0.3,0.2-0.7,0.3-1,0.5
			c-0.8,0.5-1.6,0.9-2.4,0.2c-0.8-0.6-0.5-1.5-0.3-2.2c0,0,0-0.1,0-0.1c0.3-1.3-0.3-2.6-1.4-3.3c-1.1-0.7-2.6-0.5-3.6,0.4
			c-1,0.9-1.3,2.3-0.7,3.6c0.6,1.3,2,2,3.6,1.6c0.8-0.2,1.4,0,1.9,0.7c0.5,0.6,0.5,1.3,0.1,1.9c-0.5,0.8-0.7,1.7-0.9,2.6
			c-0.2,0.8-0.6,1.2-1.4,1.3c-0.9,0.2-1.6-0.1-2.3-0.5c-0.6-0.4-1.3-0.3-1.9,0.3c-0.5,0.5-0.4,1.4,0.1,1.9c0.6,0.6,1.2,0.5,1.9,0.1
			c0.2-0.2,0.4-0.4,0.6-0.5c1.2-1,2.8-0.7,3.4,0.8c0.3,0.7,0.6,1.4,1.1,2c0.4,0.5,0.5,1,0.2,1.5c-0.3,0.5-0.8,0.6-1.4,0.6
			c-0.2,0-0.4-0.1-0.5-0.1c-1,0-1.9,0.8-2,1.8c-0.1,1,0.7,1.9,1.7,2c1.1,0.1,2-0.7,2.1-1.7c0-0.2,0-0.5,0-0.7
			c0.1-1.2,1.2-1.9,2.3-1.5c1.1,0.4,1.6,1.1,1.6,2.3c0,1.6,1.5,2.5,2.9,2c0.8-0.3,1.4-1.1,1.3-2.2c-0.1-1.1,0.4-1.9,1.3-2.4
			c0.3-0.1,0.5-0.4,0.7-0.5c0.6-0.4,1.2-0.5,1.9-0.1c0.6,0.4,0.7,1,0.6,1.7c-0.1,0.4-0.2,0.8-0.1,1.2c0.2,1.3,1.4,2.1,2.7,2
			c1.2-0.2,2.1-1.3,2-2.6C297.7,76,296.5,75.1,295.1,75.2z"/>
		<path class="st6" d="M289.4,73.7c0,1.6-1.2,2.9-2.8,2.9c-1.5,0-2.8-1.3-2.8-2.8c0-1.5,1.3-2.8,2.8-2.8
			C288.2,70.9,289.4,72.2,289.4,73.7z M288.4,73.7c0-0.9-0.8-1.6-1.7-1.6c-0.9,0-1.7,0.8-1.6,1.7c0,0.9,0.8,1.6,1.7,1.6
			C287.6,75.4,288.4,74.5,288.4,73.7z"/>
		<path class="st6" d="M290.7,70.6c-1,0-1.9-0.8-1.9-1.9c0-1,0.9-1.9,1.9-1.9c1,0,1.9,0.8,1.9,1.9C292.6,69.7,291.8,70.6,290.7,70.6
			z"/>
		<path class="st6" d="M284.9,67.4c0,1-0.8,1.9-1.8,1.9c-1,0-1.9-0.9-1.9-1.9c0-1,0.8-1.9,1.8-1.9C284,65.5,284.9,66.3,284.9,67.4z"
			/>
	</g>
</g>
</svg>
