<?xml version="1.0" encoding="utf-8"?>
<!-- Generator: Adobe Illustrator 22.1.0, SVG Export Plug-In . SVG Version: 6.00 Build 0)  -->
<svg version="1.1" id="Layer_1" xmlns="http://www.w3.org/2000/svg" xmlns:xlink="http://www.w3.org/1999/xlink" x="0px" y="0px"
	 viewBox="0 0 1249 500" style="enable-background:new 0 0 1249 500;" xml:space="preserve">
<style type="text/css">
	.st0{enable-background:new    ;}
	.st1{fill:none;stroke:#FFCF48;stroke-width:0.5;stroke-miterlimit:10;}
	.st2{fill:none;stroke:#FFCF48;stroke-width:0.5;stroke-miterlimit:10;stroke-dasharray:12;}
	.st3{fill:none;stroke:#FFCF48;stroke-width:0.25;stroke-miterlimit:10;}
	.st4{fill:none;stroke:#8C8C8C;stroke-width:0.25;stroke-miterlimit:10;}
	.st5{fill:none;stroke:#FFCF48;stroke-width:0.25;stroke-miterlimit:10;stroke-dasharray:12;}
	.st6{fill:#FCCA52;}
	.st7{fill:#CE952B;}
</style>
<g>
	<g class="st0">
		<g>
			<polygon class="st1" points="772.5,110.7 752.4,139.2 723.9,139.2 744,110.7 			"/>
		</g>
		<g>
			<polygon class="st1" points="772.5,110.7 792.7,139.2 772.5,167.7 752.4,139.2 			"/>
		</g>
		<g>
			<polygon class="st1" points="752.4,139.2 772.5,167.7 744,167.7 723.9,139.2 			"/>
		</g>
	</g>
</g>
<g>
	<g class="st0">
		<g>
			<polygon class="st2" points="821.2,139.2 801.1,167.7 772.6,167.7 792.7,139.2 			"/>
		</g>
		<g>
			<polygon class="st2" points="821.2,139.2 841.4,167.7 821.2,196.2 801.1,167.7 			"/>
		</g>
		<g>
			<polygon class="st2" points="801.1,167.7 821.2,196.2 792.7,196.2 772.6,167.7 			"/>
		</g>
	</g>
</g>
<g>
	<g class="st0">
		<g>
			<polygon class="st1" points="821.9,267 808.1,286.5 788.6,286.5 802.4,267 			"/>
		</g>
		<g>
			<polygon class="st1" points="821.9,267 835.7,286.5 821.9,306 808.1,286.5 			"/>
		</g>
		<g>
			<polygon class="st1" points="808.1,286.5 821.9,306 802.4,306 788.6,286.5 			"/>
		</g>
	</g>
</g>
<g>
	<g class="st0">
		<g>
			<polygon class="st1" points="723.4,254 703.2,282.5 674.7,282.5 694.8,254 			"/>
		</g>
		<g>
			<polygon class="st1" points="723.4,254 743.5,282.5 723.4,311 703.2,282.5 			"/>
		</g>
		<g>
			<polygon class="st1" points="703.2,282.5 723.4,311 694.8,311 674.7,282.5 			"/>
		</g>
	</g>
</g>
<g>
	<g class="st0">
		<g>
			<polygon class="st1" points="723.8,139.2 703.7,167.7 675.2,167.7 695.3,139.2 			"/>
		</g>
		<g>
			<polygon class="st1" points="723.8,139.2 744,167.7 723.8,196.2 703.7,167.7 			"/>
		</g>
		<g>
			<polygon class="st1" points="703.7,167.7 723.8,196.2 695.3,196.2 675.2,167.7 			"/>
		</g>
	</g>
</g>
<g>
	<g class="st0">
		<g>
			<polygon class="st1" points="723.8,196.2 703.7,224.7 675.2,224.7 695.3,196.2 			"/>
		</g>
		<g>
			<polygon class="st1" points="723.8,196.2 744,224.7 723.8,253.2 703.7,224.7 			"/>
		</g>
		<g>
			<polygon class="st1" points="703.7,224.7 723.8,253.2 695.3,253.2 675.2,224.7 			"/>
		</g>
	</g>
</g>
<g>
	<g class="st0">
		<g>
			<polygon class="st1" points="772.5,224.7 752.4,253.2 723.9,253.2 744,224.7 			"/>
		</g>
		<g>
			<polygon class="st1" points="772.5,224.7 792.7,253.2 772.5,281.7 752.4,253.2 			"/>
		</g>
		<g>
			<polygon class="st1" points="752.4,253.2 772.5,281.7 744,281.7 723.9,253.2 			"/>
		</g>
	</g>
</g>
<g>
	<g class="st0">
		<g>
			<polygon class="st2" points="772.5,167.7 752.4,196.2 723.9,196.2 744,167.7 			"/>
		</g>
		<g>
			<polygon class="st2" points="772.5,167.7 792.7,196.2 772.5,224.7 752.4,196.2 			"/>
		</g>
		<g>
			<polygon class="st2" points="752.4,196.2 772.5,224.7 744,224.7 723.9,196.2 			"/>
		</g>
	</g>
</g>
<g>
	<g class="st0">
		<g>
			<polygon class="st1" points="868.8,109.9 848.7,138.5 820.2,138.5 840.3,109.9 			"/>
		</g>
		<g>
			<polygon class="st1" points="868.8,109.9 889,138.5 868.8,167 848.7,138.5 			"/>
		</g>
		<g>
			<polygon class="st1" points="848.7,138.5 868.8,167 840.3,167 820.2,138.5 			"/>
		</g>
	</g>
</g>
<g>
	<g class="st0">
		<g>
			<polygon class="st1" points="821.2,196.4 801,224.9 772.5,224.9 792.7,196.4 			"/>
		</g>
		<g>
			<polygon class="st1" points="821.2,196.4 841.4,224.9 821.2,253.4 801,224.9 			"/>
		</g>
		<g>
			<polygon class="st1" points="801,224.9 821.2,253.4 792.7,253.4 772.5,224.9 			"/>
		</g>
	</g>
</g>
<g>
	<g class="st0">
		<g>
			<polygon class="st3" points="1039.6,43.1 1009,86.5 965.6,86.5 996.3,43.1 			"/>
		</g>
		<g>
			<polygon class="st3" points="1039.6,43.1 1070.3,86.5 1039.6,129.9 1009,86.5 			"/>
		</g>
		<g>
			<polygon class="st3" points="1009,86.5 1039.6,129.9 996.3,129.9 965.6,86.5 			"/>
		</g>
	</g>
</g>
<g>
	<g class="st0">
		<g>
			<polygon class="st3" points="1067.8,194.5 1037.1,237.9 993.7,237.9 1024.4,194.5 			"/>
		</g>
		<g>
			<polygon class="st3" points="1067.8,194.5 1098.5,237.9 1067.8,281.3 1037.1,237.9 			"/>
		</g>
		<g>
			<polygon class="st3" points="1037.1,237.9 1067.8,281.3 1024.4,281.3 993.7,237.9 			"/>
		</g>
	</g>
</g>
<g>
	<g class="st0">
		<g>
			<polygon class="st3" points="1067.8,369.2 1037.1,412.6 993.7,412.6 1024.4,369.2 			"/>
		</g>
		<g>
			<polygon class="st3" points="1067.8,369.2 1098.5,412.6 1067.8,456 1037.1,412.6 			"/>
		</g>
		<g>
			<polygon class="st3" points="1037.1,412.6 1067.8,456 1024.4,456 993.7,412.6 			"/>
		</g>
	</g>
</g>
<g>
	<g class="st0">
		<g>
			<polygon class="st3" points="1141.4,238.2 1127.9,257.4 1108.7,257.4 1122.3,238.2 			"/>
		</g>
		<g>
			<polygon class="st3" points="1141.4,238.2 1155,257.4 1141.4,276.6 1127.9,257.4 			"/>
		</g>
		<g>
			<polygon class="st3" points="1127.9,257.4 1141.4,276.6 1122.3,276.6 1108.7,257.4 			"/>
		</g>
	</g>
</g>
<g>
	<g>
		<polygon class="st3" points="1154.1,327.5 1136.8,351.9 1112.4,351.9 1129.7,327.5 		"/>
	</g>
	<g>
		<polygon class="st3" points="1159.7,332 1176.9,356.4 1159.7,380.8 1142.4,356.4 		"/>
	</g>
	<g>
		<polygon class="st3" points="1137.4,358.6 1154.6,383 1130.2,383 1113,358.6 		"/>
	</g>
</g>
<g>
	<g>
		<polygon class="st3" points="926.6,20.5 899.2,59.3 860.4,59.3 887.9,20.5 		"/>
	</g>
	<g>
		<polygon class="st3" points="935.6,27.6 963,66.4 935.6,105.2 908.2,66.4 		"/>
	</g>
	<g>
		<polygon class="st3" points="900.1,70 927.5,108.8 888.8,108.8 861.3,70 		"/>
	</g>
</g>
<g>
	<g class="st0">
		<g>
			<polygon class="st4" points="924.5,295.5 903.9,324.7 874.8,324.7 895.4,295.5 			"/>
		</g>
		<g>
			<polygon class="st4" points="924.5,295.5 945.2,324.7 924.5,353.8 903.9,324.7 			"/>
		</g>
		<g>
			<polygon class="st4" points="903.9,324.7 924.5,353.8 895.4,353.8 874.8,324.7 			"/>
		</g>
	</g>
</g>
<g>
	<g class="st0">
		<g>
			<polygon class="st4" points="974.4,324.7 953.8,353.8 924.6,353.8 945.2,324.7 			"/>
		</g>
		<g>
			<polygon class="st4" points="974.4,324.7 995,353.8 974.4,383 953.8,353.8 			"/>
		</g>
		<g>
			<polygon class="st4" points="953.8,353.8 974.4,383 945.2,383 924.6,353.8 			"/>
		</g>
	</g>
</g>
<g>
	<g class="st0">
		<g>
			<polygon class="st4" points="974.4,266.3 953.8,295.5 924.6,295.5 945.2,266.3 			"/>
		</g>
		<g>
			<polygon class="st4" points="974.4,266.3 995,295.5 974.4,324.7 953.8,295.5 			"/>
		</g>
		<g>
			<polygon class="st4" points="953.8,295.5 974.4,324.7 945.2,324.7 924.6,295.5 			"/>
		</g>
	</g>
</g>
<g>
	<g class="st0">
		<g>
			<polygon class="st5" points="1116.3,120.9 1099.7,144.5 1076.1,144.5 1092.8,120.9 			"/>
		</g>
		<g>
			<polygon class="st5" points="1116.3,120.9 1132.9,144.5 1116.3,168 1099.7,144.5 			"/>
		</g>
		<g>
			<polygon class="st5" points="1099.7,144.5 1116.3,168 1092.8,168 1076.1,144.5 			"/>
		</g>
	</g>
</g>
<g>
	<g class="st0">
		<g>
			<polygon class="st2" points="1067.7,281.6 1037,325 993.6,325 1024.3,281.6 			"/>
		</g>
		<g>
			<polygon class="st2" points="1067.7,281.6 1098.4,325 1067.7,368.4 1037,325 			"/>
		</g>
		<g>
			<polygon class="st2" points="1037,325 1067.7,368.4 1024.3,368.4 993.6,325 			"/>
		</g>
	</g>
</g>
<g id="Ugwrmx.tif">
	<g>
		<path class="st6" d="M869,210.3c0-0.1,0-0.2,0-0.3c0-1.5,0-1.5,1.4-2c1.5-0.5,2.5-1.5,2.7-3.1c0.3-1.8-0.3-3.3-2-4.2
			c-1-0.5-1-1-0.6-1.8c0-0.1,0.1-0.2,0.1-0.2c0.3-1.5,0.9-2.4,2.8-2.2c1.4,0.1,2.5-0.9,3.1-2.2c0.7-1.4,0.5-2.8-0.5-4
			c-0.6-0.7-0.5-1.2,0-1.8c0.1-0.1,0.2-0.3,0.3-0.4c0.4-0.4,0.7-1,1.1-1.3c0.6-0.3,1,0.4,1.5,0.6c1.5,0.6,3.2,0.3,4.5-1
			c1.1-1.1,1.4-2.9,0.7-4.3c-0.4-0.8-0.4-1.2,0.4-1.6c0.2-0.1,0.3-0.2,0.5-0.3c1.4-0.9,1.4-0.9,2.4,0.3c1.2,1.3,3.1,1.6,4.7,0.8
			c1.7-0.8,2.6-2.6,2.2-4.4c-0.2-0.7,0-0.9,0.7-1.1c0.9-0.2,1.7-0.3,2.5-0.6c0.5-0.1,0.8,0,0.9,0.6c0.5,1.9,2.1,3.2,3.9,3.2
			c1.8,0,3.5-1.4,3.8-3.3c0.2-0.7,0.5-1,1.2-0.8c0.7,0.1,1.4,0.2,2.1,0.3c0.7,0.1,0.8,0.3,0.8,1c-0.2,3.2,2.7,5.3,5.7,4.1
			c0.8-0.4,1.4-1,1.8-1.8c0.3-0.5,0.5-0.6,1-0.3c0.8,0.5,1.6,0.9,2.5,1.3c0.4,0.2,0.6,0.4,0.3,1c-0.9,1.9-0.5,3.9,1,5.1
			c1.5,1.2,3.4,1.1,5.1-0.2c0.5-0.4,0.8-0.4,1.2,0.1c0.5,0.6,1,1.2,1.5,1.8c0.5,0.5,0.4,0.8-0.1,1.3c-1.6,1.5-1.7,3.5-0.5,5.3
			c1,1.4,2.9,2,4.7,1.3c0.6-0.2,1-0.1,1.2,0.5c0.3,0.8,0.6,1.6,0.9,2.4c0.2,0.5,0.1,0.8-0.4,1c-0.9,0.4-1.7,0.9-2.1,1.8
			c-1.4,2.7,0.4,5.7,3.4,5.9c0.9,0,1.1,0.3,1.1,1.1c0,0.7,0,1.4,0,2.1c0,0.6-0.2,0.8-0.8,0.8c-2.5,0.2-4,1.9-3.9,4.4
			c0.1,1.7,1.1,2.8,2.7,3.4c0.7,0.2,0.9,0.5,0.6,1.2c-0.3,0.7-0.6,1.5-0.8,2.2c-0.2,0.7-0.5,0.8-1.2,0.6c-2.3-0.9-4.7,0.8-5.2,2.8
			c-0.4,1.6,0.1,2.9,1.3,4c0.6,0.5,0.6,0.9,0.1,1.5c-0.5,0.5-0.9,1.1-1.4,1.7c-0.4,0.5-0.7,0.6-1.3,0.2c-1.3-1-2.8-1.2-4.3-0.3
			c-1.4,0.8-2.2,2.1-2.1,3.8c0,0.6,0.2,1.2,0.5,1.6c0.4,0.6,0.2,0.9-0.3,1.2c-0.6,0.3-1.1,0.7-1.7,1c-1,0.6-1,0.6-1.8-0.3
			c-2-2.5-5.7-1.9-6.9,1c-0.3,0.7-0.4,1.4-0.2,2.1c0.2,0.6,0,0.8-0.6,0.9c-0.6,0.1-1.2,0.2-1.8,0.3c-0.6,0.1-0.8-0.1-0.9-0.7
			c-0.7-2.9-4.1-4-6.4-2.3c-0.8,0.6-1.2,1.4-1.4,2.3c-0.1,0.7-0.5,0.8-1.1,0.8c-0.9,0-1.8-0.3-2.7-0.4c-0.6-0.1-0.5-0.5-0.4-0.9
			c0.5-2.5-1.6-4.9-4.2-4.8c-1.5,0.1-2.7,0.8-3.3,2.2c-0.3,0.6-0.6,0.7-1.2,0.4c-0.6-0.4-1.2-0.7-1.8-1c-0.6-0.3-0.7-0.6-0.4-1.2
			c1-2.5-0.5-5-3.1-5.4c-1.1-0.2-2.1,0.1-3,0.8c-0.4,0.3-0.7,0.3-1-0.1c-0.5-0.6-1.1-1.3-1.6-1.9c-0.4-0.5-0.5-0.8,0.1-1.3
			c1.8-1.8,1.6-4.7-0.5-6.2c-1.1-0.8-2.3-0.9-3.6-0.5c-0.7,0.2-1,0.1-1.2-0.5c-0.1-0.2-0.2-0.4-0.3-0.6c-0.2-0.5-0.5-1.1-0.5-1.6
			c0-0.7,0.9-0.5,1.3-0.7c1.8-1,2.7-3,2.1-4.9c-0.6-1.9-2.5-3.1-4.5-2.7c-0.6,0.1-0.7-0.1-0.8-0.6C869,211.4,869,210.8,869,210.3
			C869,210.3,869,210.3,869,210.3z M903.8,236.8c15.1,0,27.3-12.2,27.4-27.3c0.1-14.7-11.8-27.5-27.4-27.4
			c-15.3,0-27.3,12-27.3,27.3C876.4,225.1,889.1,236.9,903.8,236.8z"/>
		<path class="st7" d="M903.8,234.8c-13.7,0-25.3-10.8-25.3-25.3c0-14.1,11-25.4,25.3-25.4c14.1,0,25.3,11.1,25.3,25.3
			C929.1,223.9,917.5,234.8,903.8,234.8z M903.7,219.3c5.3,0,9.9-4.4,9.9-9.6c0-5.7-4.2-10-9.8-10c-5.4,0-9.9,4.3-9.9,9.6
			C893.9,214.9,898.2,219.3,903.7,219.3z"/>
	</g>
</g>
<g id="QSww8G.tif">
	<g>
		<path class="st7" d="M918,152.7c0-0.1,0-0.2,0-0.3c0.1-0.2,0.1-0.3,0.2-0.5c0.3-1.1,0.7-2.1,1.1-3.1c0.1-0.3,0.3-0.5,0.7-0.5
			c1.8,0.1,3.7,0.1,5.5,0.1c0.3,0,0.5-0.1,0.7-0.4c0.5-0.8,1.1-1.6,1.8-2.4c0.3-0.3,0.3-0.6,0.2-1c-0.6-1.6-1.2-3.3-1.8-4.9
			c-0.1-0.4-0.1-0.6,0.2-0.8c1-0.8,2.1-1.5,3.1-2.2c0.3-0.2,0.6-0.2,0.9,0c1.4,1.1,2.9,2.2,4.4,3.3c0.3,0.2,0.5,0.2,0.8,0.1
			c0.9-0.4,1.9-0.7,2.9-0.9c0.4-0.1,0.6-0.3,0.7-0.7c0.5-1.7,1-3.4,1.5-5c0.1-0.2,0.2-0.4,0.4-0.5c1.3,0,2.6,0,4,0
			c0.7,0,0.8,0.4,1,0.9c0.4,1.6,1,3.2,1.4,4.8c0.1,0.3,0.2,0.5,0.6,0.6c1,0.2,2,0.5,2.9,0.9c0.3,0.1,0.5,0.1,0.7-0.1
			c1.5-1.1,2.9-2.2,4.4-3.3c0.3-0.2,0.4-0.2,0.7,0c1.1,0.7,2.2,1.4,3.2,2.3c0.3,0.3,0.4,0.5,0.2,0.9c-0.6,1.7-1.2,3.4-1.9,5.1
			c-0.1,0.2-0.2,0.4,0,0.6c0.7,0.8,1.3,1.7,1.9,2.6c0.1,0.2,0.3,0.3,0.5,0.2c1.9-0.1,3.8-0.1,5.6-0.1c0.3,0,0.5,0.1,0.6,0.4
			c0.5,1.2,0.9,2.4,1.2,3.6c0.1,0.4,0,0.6-0.3,0.8c-1.5,1-2.9,2-4.4,2.9c-0.4,0.3-0.6,0.6-0.5,1.1c0.1,0.8,0.1,1.6,0,2.4
			c-0.1,0.4,0.1,0.7,0.4,0.9c1.5,1,2.9,2,4.4,2.9c0.3,0.2,0.4,0.4,0.3,0.8c-0.3,1.2-0.7,2.3-1.2,3.5c-0.1,0.3-0.3,0.4-0.7,0.4
			c-1.8-0.1-3.7-0.1-5.5-0.1c-0.4,0-0.6,0.1-0.8,0.4c-0.5,0.8-1.1,1.6-1.7,2.3c-0.3,0.3-0.3,0.6-0.2,1c0.6,1.6,1.2,3.3,1.8,4.9
			c0.1,0.3,0.1,0.6-0.2,0.8c-1,0.8-2.1,1.6-3.2,2.3c-0.3,0.2-0.5,0.2-0.8-0.1c-1.5-1.1-2.9-2.2-4.4-3.3c-0.2-0.2-0.5-0.2-0.7-0.1
			c-0.9,0.4-1.9,0.7-2.9,0.9c-0.4,0.1-0.6,0.3-0.7,0.7c-0.5,1.6-1,3.3-1.5,4.9c-0.1,0.5-0.4,0.6-0.8,0.6c-1.3,0-2.5,0.1-3.8,0
			c-0.4,0-0.6-0.2-0.7-0.6c-0.5-1.6-1-3.3-1.5-4.9c-0.1-0.5-0.4-0.7-0.8-0.8c-0.9-0.2-1.8-0.5-2.6-0.8c-0.3-0.1-0.6-0.1-0.8,0.1
			c-1.5,1.1-2.9,2.2-4.4,3.3c-0.3,0.2-0.4,0.2-0.7,0c-1.1-0.7-2.2-1.5-3.2-2.3c-0.3-0.3-0.4-0.5-0.2-0.9c0.6-1.7,1.2-3.4,1.9-5.1
			c0.1-0.2,0.2-0.4,0-0.6c-0.7-0.8-1.3-1.7-1.9-2.6c-0.1-0.2-0.3-0.3-0.5-0.2c-1.8,0.1-3.7,0.1-5.5,0.1c-0.5,0-0.7-0.1-0.9-0.6
			c-0.5-1.2-0.8-2.4-1.2-3.7c0-0.1,0-0.2,0-0.3c1.6-1.1,3.1-2.1,4.7-3.1c0.5-0.3,0.6-0.7,0.5-1.2c-0.1-0.7-0.1-1.5,0-2.2
			c0.1-0.5-0.1-0.8-0.5-1C921.2,154.9,919.6,153.8,918,152.7z M943,170.2c6.3,0,11.8-5,11.8-11.8c0-6.7-5.4-11.9-11.8-11.9
			c-6.4,0-11.9,5.1-11.8,11.9C931.2,165.2,936.7,170.2,943,170.2z"/>
	</g>
</g>
<g id="QSww8G.tif_1_">
	<g>
		<path class="st6" d="M944,197.7c0-0.1,0-0.2,0-0.2c0-0.1,0.1-0.2,0.1-0.3c0.2-0.7,0.5-1.5,0.8-2.2c0.1-0.2,0.2-0.3,0.5-0.3
			c1.3,0,2.6,0.1,3.8,0.1c0.2,0,0.4-0.1,0.5-0.3c0.4-0.6,0.8-1.1,1.2-1.6c0.2-0.2,0.2-0.4,0.1-0.7c-0.4-1.1-0.8-2.3-1.3-3.4
			c-0.1-0.3-0.1-0.4,0.2-0.6c0.7-0.5,1.4-1.1,2.2-1.5c0.2-0.1,0.4-0.1,0.6,0c1,0.8,2,1.5,3,2.3c0.2,0.1,0.3,0.2,0.5,0.1
			c0.6-0.3,1.3-0.5,2-0.6c0.3-0.1,0.4-0.2,0.5-0.5c0.3-1.2,0.7-2.3,1-3.5c0.1-0.2,0.1-0.3,0.3-0.3c0.9,0,1.8,0,2.7,0
			c0.5,0,0.6,0.3,0.7,0.7c0.3,1.1,0.7,2.2,1,3.3c0.1,0.2,0.2,0.3,0.4,0.4c0.7,0.2,1.4,0.4,2,0.6c0.2,0.1,0.3,0,0.5-0.1
			c1-0.8,2-1.5,3.1-2.3c0.2-0.1,0.3-0.1,0.5,0c0.8,0.5,1.5,1,2.2,1.6c0.2,0.2,0.3,0.3,0.2,0.6c-0.4,1.2-0.9,2.3-1.3,3.5
			c-0.1,0.1-0.1,0.3,0,0.4c0.5,0.6,0.9,1.2,1.3,1.8c0.1,0.1,0.2,0.2,0.4,0.2c1.3,0,2.6-0.1,3.9-0.1c0.2,0,0.4,0.1,0.4,0.3
			c0.3,0.8,0.6,1.7,0.8,2.5c0.1,0.3,0,0.4-0.2,0.6c-1,0.7-2,1.4-3,2c-0.3,0.2-0.4,0.4-0.4,0.7c0.1,0.5,0.1,1.1,0,1.6
			c0,0.3,0.1,0.5,0.3,0.7c1,0.7,2,1.4,3.1,2c0.2,0.2,0.3,0.3,0.2,0.6c-0.2,0.8-0.5,1.6-0.8,2.4c-0.1,0.2-0.2,0.3-0.5,0.3
			c-1.3,0-2.6-0.1-3.8-0.1c-0.3,0-0.4,0.1-0.5,0.3c-0.3,0.6-0.7,1.1-1.2,1.6c-0.2,0.2-0.2,0.4-0.1,0.7c0.4,1.1,0.8,2.3,1.3,3.4
			c0.1,0.2,0.1,0.4-0.1,0.6c-0.7,0.6-1.5,1.1-2.2,1.6c-0.2,0.1-0.4,0.1-0.6,0c-1-0.8-2-1.5-3.1-2.3c-0.2-0.1-0.3-0.2-0.5-0.1
			c-0.7,0.3-1.3,0.5-2,0.6c-0.3,0.1-0.4,0.2-0.5,0.5c-0.3,1.1-0.7,2.3-1,3.4c-0.1,0.3-0.2,0.4-0.6,0.5c-0.9,0-1.8,0-2.6,0
			c-0.3,0-0.4-0.1-0.5-0.4c-0.3-1.1-0.7-2.3-1-3.4c-0.1-0.3-0.2-0.5-0.6-0.6c-0.6-0.1-1.2-0.3-1.8-0.6c-0.2-0.1-0.4-0.1-0.6,0.1
			c-1,0.8-2,1.5-3,2.3c-0.2,0.1-0.3,0.1-0.5,0c-0.8-0.5-1.5-1-2.2-1.6c-0.2-0.2-0.3-0.3-0.2-0.6c0.4-1.2,0.9-2.3,1.3-3.5
			c0.1-0.1,0.1-0.3,0-0.4c-0.5-0.6-0.9-1.2-1.3-1.8c-0.1-0.1-0.2-0.2-0.4-0.2c-1.3,0-2.5,0.1-3.8,0.1c-0.3,0-0.5-0.1-0.6-0.4
			c-0.3-0.8-0.6-1.7-0.8-2.6c0-0.1,0-0.2,0-0.2c1.1-0.7,2.2-1.5,3.3-2.2c0.3-0.2,0.4-0.5,0.4-0.8c-0.1-0.5-0.1-1,0-1.5
			c0-0.3-0.1-0.5-0.3-0.7C946.2,199.2,945.1,198.4,944,197.7z M961.4,209.8c4.4,0,8.2-3.4,8.2-8.2c0-4.7-3.7-8.2-8.2-8.2
			c-4.5,0-8.2,3.6-8.2,8.2C953.2,206.3,957,209.8,961.4,209.8z"/>
	</g>
</g>
</svg>
