<?xml version="1.0" encoding="utf-8"?>
<!-- Generator: Adobe Illustrator 24.0.1, SVG Export Plug-In . SVG Version: 6.00 Build 0)  -->
<svg version="1.1" id="bt" xmlns="http://www.w3.org/2000/svg" xmlns:xlink="http://www.w3.org/1999/xlink" x="0px" y="0px"
	 viewBox="0 0 200 200" style="enable-background:new 0 0 200 200;" xml:space="preserve">
<style type="text/css">
	.st0{fill:#6D6D6D;}
	.st1{fill:#E6E6E6;}
</style>
<polygon class="st0" points="115.2,67.7 84.1,67.7 61.9,100 84.1,132.3 115.2,132.3 137.7,100 "/>
<polygon class="st1" points="115.2,3 84.1,3 61.9,35.3 84.1,67.7 115.2,67.7 137.7,35.3 "/>
<polygon class="st0" points="115.2,132.3 84.1,132.3 61.9,164.6 84.1,197 115.2,197 137.7,164.6 "/>
<polygon class="st1" points="168.7,100 137.5,100 115.3,132.3 137.5,164.7 168.7,164.7 191.1,132.3 "/>
<polygon class="st0" points="168.5,35.3 137.4,35.3 115.2,67.6 137.4,100 168.5,100 191,67.6 "/>
<polygon class="st1" points="62.3,100 31.2,100 9,132.3 31.2,164.7 62.3,164.7 84.8,132.3 "/>
<polygon class="st0" points="62.2,35.3 31.1,35.3 8.9,67.6 31.1,100 62.2,100 84.7,67.6 "/>
</svg>
