<?xml version="1.0" encoding="utf-8"?>
<!-- Generator: Adobe Illustrator 25.0.0, SVG Export Plug-In . SVG Version: 6.00 Build 0)  -->
<svg version="1.1" id="Layer_1" xmlns="http://www.w3.org/2000/svg" xmlns:xlink="http://www.w3.org/1999/xlink" x="0px" y="0px"
	 viewBox="0 0 1024 398.35" style="enable-background:new 0 0 1024 398.35;" xml:space="preserve">
<style type="text/css">
	.st0{fill:none;stroke:#E5E5E5;stroke-width:6;stroke-miterlimit:10;}
	.st1{fill:#EAEAEA;}
	.st2{fill:none;stroke:#E5E5E5;stroke-width:3;stroke-miterlimit:10;}
	.st3{fill:none;stroke:#E5E5E5;stroke-miterlimit:10;}
	.st4{fill:#FFC397;}
	.st5{fill:#D3A9FF;}
</style>
<polygon class="st0" points="74.09,43.85 40.96,43.85 24.4,72.53 40.96,101.21 74.09,101.21 90.65,72.53 "/>
<polygon class="st1" points="903.54,80.41 878.74,80.41 866.34,101.89 878.74,123.37 903.54,123.37 915.94,101.89 "/>
<polygon class="st2" points="193.7,59.18 156.07,59.18 137.25,91.77 156.07,124.37 193.7,124.37 212.52,91.77 "/>
<polygon class="st1" points="266.83,26.2 254.65,26.2 248.56,36.74 254.65,47.29 266.83,47.29 272.91,36.74 "/>
<polygon class="st3" points="954.51,26.21 942.33,26.21 936.24,36.75 942.33,47.29 954.51,47.29 960.59,36.75 "/>
<polygon class="st4" points="951.46,107.82 945.37,107.82 942.33,113.1 945.37,118.37 951.46,118.37 954.51,113.1 "/>
<polygon class="st3" points="121.82,181.47 83.38,181.47 64.17,214.75 83.38,248.03 121.82,248.03 141.03,214.75 "/>
<polygon class="st3" points="942.84,64.62 875,64.62 841.08,123.37 875,182.12 942.84,182.12 976.76,123.37 "/>
<polygon class="st5" points="73.3,176.2 67.21,176.2 64.17,181.47 67.21,186.74 73.3,186.74 76.34,181.47 "/>
<line class="st3" x1="915.94" y1="131.28" x2="1024" y2="131.28"/>
<line class="st3" x1="57.53" y1="72.53" x2="57.53" y2="0"/>
<line class="st3" x1="948.42" y1="36.26" x2="1024" y2="36.26"/>
<line class="st3" x1="891.14" y1="101.21" x2="1024" y2="101.21"/>
<line class="st3" x1="174.89" y1="91.77" x2="0" y2="91.77"/>
<line class="st3" x1="102.6" y1="214.75" x2="0" y2="214.75"/>
<line class="st3" x1="260.74" y1="36.26" x2="260.74" y2="0"/>
</svg>
