<?xml version="1.0" encoding="utf-8"?>
<!-- Generator: Adobe Illustrator 22.1.0, SVG Export Plug-In . SVG Version: 6.00 Build 0)  -->
<svg version="1.1" id="Layer_1" xmlns="http://www.w3.org/2000/svg" xmlns:xlink="http://www.w3.org/1999/xlink" x="0px" y="0px"
	 viewBox="0 0 700 700" style="enable-background:new 0 0 700 700;" xml:space="preserve">
<path d="M659.1,447.8c-5.5-7.9-10.5-15-11.1-15.8c-4.1-5.9-38.3-55.1-42.8-61.5c-3-4.4-7.5-10.9-10-14.4c-3.2-4.4-4.3-6.7-3.6-7.6
	c3.6-5.2,39.8-57.3,56.6-81.6l20.5-29.6l-23.9-34.4c-13.1-18.9-26.4-38.1-29.6-42.7c-3.1-4.5-10-14.4-15.3-22l-9.6-13.7l-53.8-0.5
	l-53.8-0.5l-4.3-6.2c-13.2-18.8-65.1-93.7-70.1-101.1l-3.6-5.2H350h-54.7l-9.4,13.7C273.7,42.6,268,51,241.3,90.1L219,122.5h-55.1
	h-55.2l-3.9,5.5c-2.2,3-7.9,11.3-12.9,18.5c-4.9,7.1-9.3,13.7-9.9,14.5c-38.3,55.6-50,73.2-49.4,74.2c0.4,0.7,0.3,0.8-0.4,0.4
	c-2.1-1.3-1.3,0.2,5.2,9.6c9.6,13.9,28,40.7,29.1,42.6c0.6,0.9,1.4,2.1,1.8,2.6c0.9,1.1,10.9,15.7,27.5,40.1
	c5.2,7.7,10.1,14.7,10.9,15.6c1.6,1.9,1.3,2.3-16.8,28.5c-9.5,13.8-14.3,20.8-27.4,39.9c-3.8,5.5-8.7,12.7-11,16
	c-16.6,24-19.5,28.6-18.9,29.7c0.4,0.7,0.3,0.8-0.4,0.4c-2.2-1.4-1.2,0.5,7.6,13.2c4.9,7,12.1,17.4,16,23.2
	c3.9,5.8,12,17.7,18.1,26.5c6,8.8,16.3,23.8,22.8,33.3l11.7,17.2l55.3-0.2c30.4-0.2,54.9-0.2,54.4,0c-0.6,0.2-0.7,1.1-0.4,2
	c0.6,1.4,18.2,27.5,48.1,71.2c3.6,5.2,11.5,16.8,17.6,25.8l11,16.2h54.1h54.2l2-2.2c1.1-1.3,18.6-26.4,38.8-55.8
	c20.3-29.4,37.2-54,37.7-54.5c0.6-0.6,20.3-1,55.1-1.1h54.2l14.2-20.5c14.1-20,17.1-24.4,28.1-40.4c3.1-4.4,11.7-16.8,19.2-27.5
	s14.4-20.7,15.4-22.2l1.7-2.7L659.1,447.8z"/>
</svg>
