<?xml version="1.0" standalone="no"?>
<!DOCTYPE svg PUBLIC "-//W3C//DTD SVG 20010904//EN"
 "http://www.w3.org/TR/2001/REC-SVG-20010904/DTD/svg10.dtd">
<svg version="1.0" xmlns="http://www.w3.org/2000/svg"
 width="700.000000pt" height="700.000000pt" viewBox="0 0 700.000000 700.000000"
 preserveAspectRatio="xMidYMid meet">
<metadata>
Created by potrace 1.11, written by Peter Selinger 2001-2013
</metadata>
<g transform="translate(0.000000,700.000000) scale(0.100000,-0.100000)"
fill="#000000" stroke="none">
<path d="M2918 6837 c-35 -48 -126 -179 -572 -819 l-169 -243 -544 0 -544 0
-117 -170 c-65 -93 -140 -203 -167 -243 -28 -40 -100 -146 -162 -235 -61 -89
-161 -235 -222 -324 l-110 -163 135 -197 c75 -109 152 -222 172 -251 21 -29
42 -60 47 -69 6 -9 14 -22 18 -27 11 -14 252 -364 391 -570 10 -15 -55 -115
-305 -471 -19 -27 -133 -191 -253 -364 l-218 -313 108 -159 c126 -185 285
-417 369 -539 32 -47 97 -141 143 -210 47 -69 98 -142 113 -163 15 -21 30 -44
32 -50 3 -9 139 -12 551 -13 l548 0 152 -222 c83 -122 257 -377 386 -567 l235
-345 547 0 547 0 117 168 c64 92 148 212 186 267 126 182 172 248 330 476
l157 225 540 0 541 -1 33 45 c35 46 220 311 314 449 29 42 111 159 182 261 71
102 160 228 196 281 l67 97 -108 153 c-120 172 -194 279 -263 379 -100 145
-289 416 -348 498 -35 48 -63 90 -63 95 0 4 26 45 57 90 32 45 130 188 219
317 90 129 240 346 334 482 l171 248 -56 82 c-31 46 -81 119 -112 163 -31 44
-106 152 -168 240 -61 88 -187 269 -280 403 l-169 242 -85 0 c-47 0 -291 1
-541 1 l-455 0 -85 122 c-47 67 -87 126 -89 132 -2 5 -7 12 -11 15 -3 3 -26
34 -50 70 -24 36 -49 70 -54 77 -6 7 -119 167 -251 357 l-240 346 -545 0 -545
0 -37 -53z m-713 -3370 c6 -9 56 -85 113 -167 56 -83 100 -150 98 -150 -6 0
-246 346 -246 355 0 8 22 -15 35 -38z m255 -372 c17 -25 29 -45 26 -45 -3 0
-19 20 -36 45 -17 25 -29 45 -26 45 3 0 19 -20 36 -45z m181 -262 c13 -16 12
-17 -3 -4 -17 13 -22 21 -14 21 2 0 10 -8 17 -17z"/>
</g>
</svg>
