<?xml version="1.0" encoding="utf-8"?>
<!-- Generator: Adobe Illustrator 25.0.0, SVG Export Plug-In . SVG Version: 6.00 Build 0)  -->
<svg version="1.1" id="Layer_1" xmlns="http://www.w3.org/2000/svg" xmlns:xlink="http://www.w3.org/1999/xlink" x="0px" y="0px"
	 viewBox="0 0 1054.03 643.49" style="enable-background:new 0 0 1054.03 643.49;" xml:space="preserve">
<style type="text/css">
	.st0{fill:none;stroke:#3D3D3D;stroke-miterlimit:10;}
	.st1{fill:none;stroke:#3D3D3D;stroke-width:2;stroke-miterlimit:10;}
</style>
<path class="st0" d="M668.88,551.82c-67.29,46.09-154.1,62.4-238.27,37.04c-147.52-44.45-231.08-200.08-186.63-347.6"/>
<path class="st0" d="M291.84,149.13c68.89-87.46,186.69-128.56,299.74-94.5C739.1,99.08,822.66,254.7,778.21,402.23"/>
<path class="st1" d="M812.1,302.45c5.69,87.69-26.94,177.09-96.72,241.13c-122.31,112.24-312.45,104.07-424.69-18.25"/>
<path class="st1" d="M231.65,430.32c-43.14-111.92-16.44-243.68,77.29-329.68C431.25-11.6,621.39-3.43,733.63,118.89"/>
<line class="st0" x1="291.84" y1="149.13" x2="130.77" y2="149.13"/>
<line class="st0" x1="778.21" y1="402.23" x2="1054.03" y2="402.23"/>
<line class="st0" x1="87.18" y1="149.13" x2="17.44" y2="149.13"/>
</svg>
