<?xml version="1.0" encoding="utf-8"?>
<!-- Generator: Adobe Illustrator 25.0.0, SVG Export Plug-In . SVG Version: 6.00 Build 0)  -->
<svg version="1.1" id="Layer_1" xmlns="http://www.w3.org/2000/svg" xmlns:xlink="http://www.w3.org/1999/xlink" x="0px" y="0px"
	 viewBox="0 0 1054.03 643.49" style="enable-background:new 0 0 1054.03 643.49;" xml:space="preserve">
<path style="fill:none;stroke:#3D3D3D;stroke-miterlimit:10;" d="M684.88,551.82c-67.29,46.09-154.1,62.4-238.27,37.04
	c-147.52-44.45-231.08-200.08-186.63-347.6"/>
<path style="fill:none;stroke:#3D3D3D;stroke-miterlimit:10;" d="M307.84,149.13c68.89-87.46,186.69-128.56,299.74-94.5
	C755.1,99.08,838.66,254.7,794.21,402.23"/>
<path style="fill:none;stroke:#3D3D3D;stroke-width:2;stroke-miterlimit:10;" d="M842.38,301.51
	c5.96,91.86-28.22,185.52-101.32,252.61C612.92,671.7,413.73,663.14,296.15,535"/>
<path style="fill:none;stroke:#3D3D3D;stroke-width:2;stroke-miterlimit:10;" d="M234.3,435.47
	c-45.19-117.25-17.22-255.28,80.97-345.37C443.4-27.48,642.59-18.92,760.17,109.22"/>
<line style="fill:none;stroke:#3D3D3D;stroke-miterlimit:10;" x1="307.84" y1="149.13" x2="146.77" y2="149.13"/>
<line style="fill:none;stroke:#3D3D3D;stroke-miterlimit:10;" x1="794.21" y1="402.23" x2="1026" y2="402.23"/>
<line style="fill:none;stroke:#3D3D3D;stroke-miterlimit:10;" x1="103.18" y1="149.13" x2="33.44" y2="149.13"/>
</svg>
