<?xml version="1.0" encoding="utf-8"?>
<!-- Generator: Adobe Illustrator 25.0.0, SVG Export Plug-In . SVG Version: 6.00 Build 0)  -->
<svg version="1.1" id="Layer_1" xmlns="http://www.w3.org/2000/svg" xmlns:xlink="http://www.w3.org/1999/xlink" x="0px" y="0px"
	 viewBox="0 0 1024 768" style="enable-background:new 0 0 1024 768;" xml:space="preserve">
<style type="text/css">
	.st0{opacity:0.2;fill:#BABABA;enable-background:new    ;}
	.st1{opacity:0.1;fill:none;stroke:#666666;stroke-miterlimit:10;enable-background:new    ;}
</style>
<polygon class="st0" points="515.7,338 463,338 436.6,383.6 463,429.2 515.7,429.2 542,383.6 "/>
<polygon class="st0" points="620.7,401 568,401 541.6,446.6 568,492.2 620.7,492.2 647,446.6 "/>
<polygon class="st0" points="477.3,482 376.9,482 326.6,569 376.9,656 477.3,656 527.6,569 "/>
<polygon class="st0" points="162.7,509 141.3,509 130.6,527.5 141.3,546 162.7,546 173.4,527.5 "/>
<polygon class="st0" points="352.7,247 331.3,247 320.6,265.5 331.3,284 352.7,284 363.4,265.5 "/>
<polygon class="st0" points="93.7,277 72.3,277 61.6,295.5 72.3,314 93.7,314 104.4,295.5 "/>
<polygon class="st0" points="942.7,392 921.3,392 910.6,410.5 921.3,429 942.7,429 953.4,410.5 "/>
<polygon class="st1" points="257.8,314 181,314 142.6,380.5 181,447 257.8,447 296.2,380.5 "/>
<polygon class="st1" points="858.8,492.5 782,492.5 743.6,559 782,625.5 858.8,625.5 897.2,559 "/>
<polygon class="st1" points="821.8,559.5 745,559.5 706.6,626 745,692.5 821.8,692.5 860.2,626 "/>
<polygon class="st1" points="935.8,492.5 859,492.5 820.6,559 859,625.5 935.8,625.5 974.2,559 "/>
<polygon class="st1" points="209.3,181.5 165.6,181.5 143.7,219.4 165.6,257.2 209.3,257.2 231.2,219.4 "/>
<polygon class="st0" points="188.2,219.7 144.5,219.7 122.6,257.5 144.5,295.4 188.2,295.4 210.1,257.5 "/>
<polygon class="st1" points="253.1,181.5 209.4,181.5 187.5,219.4 209.4,257.2 253.1,257.2 275,219.4 "/>
<polygon class="st0" points="688.9,582.8 671.7,582.8 663.1,597.7 671.7,612.6 688.9,612.6 697.5,597.7 "/>
<polygon class="st1" points="612.5,636.8 550.6,636.8 519.6,690.4 550.6,744 612.5,744 643.4,690.4 "/>
<polygon class="st1" points="608.7,530 573.5,530 555.8,560.5 573.5,591 608.7,591 626.3,560.5 "/>
<polygon class="st1" points="646.8,247.5 570,247.5 531.6,314 570,380.5 646.8,380.5 685.2,314 "/>
<polygon class="st1" points="957.5,655.5 905.6,655.5 879.6,700.5 905.6,745.4 957.5,745.4 983.5,700.5 "/>
<polygon class="st1" points="250.7,465.5 96,465.5 18.6,599.5 96,733.5 250.7,733.5 328.1,599.5 "/>
<polygon class="st0" points="870.4,364.5 889.3,364.5 898.8,348.2 889.3,331.8 870.4,331.8 861,348.2 "/>
<polygon class="st0" points="832.8,342 851.7,342 861.1,325.6 851.7,309.2 832.8,309.2 823.3,325.6 "/>
<polygon class="st0" points="746.2,277.9 782.2,277.9 800.2,246.7 782.2,215.5 746.2,215.5 728.2,246.7 "/>
<polygon class="st1" points="823.4,397 850.9,397 864.7,373.2 850.9,349.3 823.4,349.3 809.6,373.2 "/>
</svg>
