<?xml version="1.0" encoding="utf-8"?>
<!-- Generator: Adobe Illustrator 24.2.1, SVG Export Plug-In . SVG Version: 6.00 Build 0)  -->
<svg version="1.1" id="Layer_1" xmlns="http://www.w3.org/2000/svg" xmlns:xlink="http://www.w3.org/1999/xlink" x="0px" y="0px"
	 viewBox="0 0 150 150" style="enable-background:new 0 0 150 150;" xml:space="preserve">
<style type="text/css">
	.st0{fill:#FFFFFF;}
</style>
<g>
	<g>
		<path class="st0" d="M70.2,63.6c-1.2,0.6-2.4,1.3-3.6,2.2c-0.1,0-0.1,0-0.2,0c-0.9-1.3-1.8-2.5-2.6-3.8c0-0.1,0-0.1,0-0.2
			c1.4-0.9,2.9-1.7,4.3-2.3c0.1,0,0.1,0,0.2,0.1c0.7,1.3,1.3,2.6,2,3.9C70.3,63.5,70.2,63.6,70.2,63.6z"/>
		<path class="st0" d="M75,61.9c-1.2,0.3-2.4,0.6-3.5,1.1c-0.1,0-0.1,0-0.2-0.1c-0.6-1.3-1.2-2.6-1.8-3.9c0-0.1,0-0.2,0.1-0.2
			c1.4-0.5,2.8-0.9,4.2-1.1c0.1,0,0.1,0,0.2,0.1c0.4,1.3,0.8,2.6,1.2,3.9C75.1,61.9,75,61.9,75,61.9z"/>
		<path class="st0" d="M79.7,61.5c-1.1-0.1-2.3,0-3.4,0.2c-0.1,0-0.1,0-0.1-0.1c-0.3-1.3-0.7-2.6-1-3.8c0-0.1,0-0.2,0.1-0.2
			c1.4-0.1,2.7-0.1,4,0c0.1,0,0.1,0.1,0.1,0.1c0.2,1.2,0.3,2.5,0.5,3.7C79.9,61.5,79.8,61.6,79.7,61.5z"/>
		<path class="st0" d="M84.3,62.3c-1.1-0.3-2.1-0.5-3.2-0.7c-0.1,0-0.1-0.1-0.1-0.1c-0.1-1.2-0.2-2.4-0.3-3.7c0-0.1,0.1-0.2,0.2-0.1
			c1.3,0.2,2.5,0.5,3.7,0.9c0.1,0,0.1,0.1,0.1,0.1c0,1.1-0.1,2.3-0.1,3.4C84.5,62.3,84.4,62.4,84.3,62.3z"/>
		<path class="st0" d="M88.3,64.1c-1-0.5-2-1-3-1.4c-0.1,0-0.1-0.1-0.1-0.1c0.1-1.1,0.1-2.2,0.2-3.4c0-0.1,0.1-0.2,0.2-0.1
			c1.2,0.5,2.3,1,3.4,1.7c0,0,0.1,0.1,0.1,0.1c-0.2,1-0.4,2.1-0.5,3.1C88.5,64.1,88.4,64.1,88.3,64.1z"/>
		<path class="st0" d="M92.2,66.8c-0.8-0.7-1.7-1.4-2.6-2c0,0-0.1-0.1-0.1-0.1c0.2-1,0.4-2,0.6-3c0-0.1,0.1-0.1,0.2-0.1
			c1,0.7,2,1.5,2.9,2.4c0,0,0.1,0.1,0,0.1c-0.3,0.9-0.6,1.7-0.9,2.6C92.4,66.9,92.3,66.9,92.2,66.8z"/>
		<path class="st0" d="M95.1,70c-0.7-0.9-1.4-1.7-2.2-2.5c0,0-0.1-0.1,0-0.1c0.3-0.8,0.6-1.7,0.9-2.5c0-0.1,0.2-0.1,0.2,0
			c0.9,0.9,1.7,1.9,2.4,2.9c0,0,0,0.1,0,0.1c-0.4,0.7-0.7,1.4-1.1,2.2C95.3,70,95.2,70.1,95.1,70z"/>
		<path class="st0" d="M97.6,73.9c-0.5-1-1.1-1.9-1.7-2.9c0,0,0-0.1,0-0.1c0.4-0.7,0.8-1.4,1.2-2.1c0-0.1,0.2-0.1,0.2,0
			c0.7,1,1.3,2.1,1.8,3.3c0,0,0,0.1,0,0.1c-0.4,0.6-0.8,1.1-1.2,1.7C97.8,74,97.7,74,97.6,73.9z"/>
		<path class="st0" d="M99.2,78.1C98.9,77,98.6,76,98.1,75c0,0,0-0.1,0-0.1c0.4-0.5,0.8-1.1,1.2-1.6c0.1-0.1,0.2-0.1,0.2,0
			c0.5,1.1,0.8,2.3,1.1,3.5c0,0,0,0.1,0,0.1c-0.4,0.4-0.8,0.8-1.2,1.2C99.4,78.2,99.2,78.2,99.2,78.1z"/>
		<path class="st0" d="M99.9,82.5c-0.1-1.1-0.2-2.2-0.4-3.3c0,0,0-0.1,0-0.1c0.4-0.4,0.8-0.7,1.2-1.1c0.1-0.1,0.2,0,0.2,0.1
			c0.2,1.2,0.3,2.4,0.4,3.7c0,0,0,0.1-0.1,0.1c-0.4,0.3-0.8,0.5-1.1,0.8C100,82.7,99.9,82.6,99.9,82.5z"/>
		<path class="st0" d="M99.6,87c0.2-1.1,0.3-2.2,0.3-3.3c0,0,0-0.1,0.1-0.1c0.4-0.2,0.7-0.5,1.1-0.7c0.1-0.1,0.2,0,0.2,0.1
			c-0.1,1.2-0.2,2.4-0.5,3.7c0,0,0,0.1-0.1,0.1c-0.3,0.1-0.6,0.3-0.9,0.4C99.7,87.2,99.6,87.1,99.6,87z"/>
		<path class="st0" d="M98.2,91.5c0.5-1.1,0.9-2.2,1.1-3.3c0,0,0-0.1,0.1-0.1c0.3-0.1,0.6-0.2,0.8-0.4c0.1,0,0.2,0.1,0.2,0.2
			c-0.4,1.2-0.8,2.4-1.4,3.5c0,0,0,0.1-0.1,0.1c-0.2,0.1-0.4,0.1-0.6,0.2C98.3,91.7,98.2,91.6,98.2,91.5z"/>
		<path class="st0" d="M95.6,95.8c0.8-1,1.5-2.1,2-3.1c0,0,0-0.1,0.1-0.1c0.2,0,0.3-0.1,0.5-0.1c0.1,0,0.2,0.1,0.1,0.2
			c-0.7,1.1-1.5,2.2-2.4,3.3c0,0-0.1,0-0.1,0c0,0-0.1,0-0.1,0C95.6,96.1,95.5,95.9,95.6,95.8z"/>
		<path class="st0" d="M91.4,100.1c1.3-1,2.4-2.1,3.3-3.1c0,0,0.1,0,0.1,0c0,0,0,0,0,0c0.1,0,0.2,0.1,0.1,0.2
			C93.9,98.1,92.7,99.1,91.4,100.1C91.4,100.1,91.4,100.1,91.4,100.1z"/>
	</g>
	<g>
		<path class="st0" d="M88.8,59c-1.5-0.7-3.1-1.3-4.8-1.8c-0.1,0-0.1-0.1-0.1-0.2c0.5-1.8,1-3.6,1.4-5.4c0-0.1,0.1-0.1,0.2-0.1
			c2,0.7,3.8,1.5,5.5,2.4c0.1,0,0.1,0.1,0.1,0.2c-0.7,1.6-1.4,3.2-2.1,4.8C89,59,88.9,59.1,88.8,59z"/>
		<path class="st0" d="M94.1,62.3c-1.1-0.9-2.4-1.8-3.8-2.6c-0.1,0-0.1-0.1-0.1-0.2c0.7-1.5,1.5-3.1,2.2-4.6c0-0.1,0.1-0.1,0.2-0.1
			c1.6,1,3,2,4.3,3.2c0.1,0.1,0.1,0.1,0,0.2c-0.9,1.3-1.8,2.7-2.7,4C94.3,62.4,94.2,62.4,94.1,62.3z"/>
		<path class="st0" d="M98.2,66.6c-0.8-1.1-1.8-2.2-2.8-3.2c-0.1-0.1-0.1-0.2,0-0.2c0.9-1.3,1.9-2.6,2.8-3.8c0.1-0.1,0.2-0.1,0.2,0
			c1.2,1.2,2.2,2.5,3.1,3.8c0,0.1,0,0.1,0,0.2c-1,1.1-2.1,2.2-3.1,3.2C98.3,66.7,98.2,66.7,98.2,66.6z"/>
		<path class="st0" d="M101,71.6c-0.5-1.2-1.2-2.5-1.9-3.6c0-0.1,0-0.2,0-0.2c1-1,2.1-2,3.1-3.1c0.1-0.1,0.2-0.1,0.3,0
			c0.8,1.4,1.5,2.8,2.1,4.3c0,0.1,0,0.1-0.1,0.2c-1.1,0.8-2.2,1.7-3.3,2.5C101.1,71.7,101,71.7,101,71.6z"/>
		<path class="st0" d="M102.5,76.7c-0.2-1.3-0.6-2.6-1-3.9c0-0.1,0-0.1,0.1-0.2c1.1-0.8,2.2-1.6,3.3-2.3c0.1-0.1,0.2,0,0.2,0.1
			c0.5,1.5,0.8,3,1.1,4.5c0,0.1,0,0.1-0.1,0.2c-1.1,0.6-2.2,1.2-3.3,1.8C102.7,76.9,102.5,76.9,102.5,76.7z"/>
		<path class="st0" d="M103,82.5c0-1.3,0-2.7-0.2-4c0-0.1,0-0.1,0.1-0.2c1.1-0.5,2.2-1.1,3.2-1.6c0.1-0.1,0.2,0,0.2,0.1
			c0.1,1.5,0.2,3.1,0.1,4.6c0,0.1,0,0.1-0.1,0.1c-1,0.4-2.1,0.7-3.1,1.1C103.1,82.8,103,82.7,103,82.5z"/>
		<path class="st0" d="M102.3,87.7c0.3-1.3,0.5-2.6,0.6-4c0-0.1,0-0.1,0.1-0.1c1-0.3,2.1-0.7,3.1-1c0.1,0,0.2,0.1,0.2,0.2
			c-0.2,1.5-0.4,3-0.8,4.5c0,0.1-0.1,0.1-0.1,0.1c-1,0.2-1.9,0.4-2.9,0.6C102.4,87.9,102.3,87.8,102.3,87.7z"/>
		<path class="st0" d="M100.6,93c0.5-1.2,1-2.5,1.3-3.8c0-0.1,0.1-0.1,0.1-0.1c0.9-0.1,1.9-0.3,2.8-0.4c0.1,0,0.2,0.1,0.2,0.2
			c-0.4,1.4-1,2.8-1.6,4.2c0,0.1-0.1,0.1-0.1,0.1c-0.8,0-1.7,0-2.5,0.1C100.7,93.3,100.6,93.1,100.6,93z"/>
		<path class="st0" d="M98,97.7c0.8-1.1,1.4-2.2,2-3.4c0-0.1,0.1-0.1,0.1-0.1c0.8,0,1.6,0,2.4,0c0.1,0,0.2,0.1,0.1,0.2
			c-0.7,1.3-1.5,2.5-2.4,3.7c0,0-0.1,0.1-0.1,0.1c-0.7-0.1-1.4-0.2-2.1-0.3C98,97.9,97.9,97.8,98,97.7z"/>
		<path class="st0" d="M94.4,101.7c1-0.9,1.9-1.8,2.7-2.9c0,0,0.1-0.1,0.1-0.1c0.7,0.1,1.3,0.2,2,0.3c0.1,0,0.2,0.2,0.1,0.3
			c-0.9,1.1-2,2.1-3.1,3.1c0,0-0.1,0-0.1,0c-0.5-0.2-1.1-0.3-1.6-0.5C94.4,101.9,94.4,101.8,94.4,101.7z"/>
		<path class="st0" d="M90,104.8c1.2-0.6,2.3-1.4,3.3-2.2c0,0,0.1,0,0.1,0c0.5,0.2,1,0.3,1.5,0.5c0.1,0,0.2,0.2,0.1,0.3
			c-1.2,0.9-2.4,1.6-3.8,2.3c0,0-0.1,0-0.1,0c-0.4-0.2-0.7-0.4-1.1-0.5C89.9,105,89.9,104.8,90,104.8z"/>
		<path class="st0" d="M84.8,106.8c1.4-0.3,2.7-0.8,3.9-1.4c0,0,0.1,0,0.1,0c0.3,0.2,0.7,0.4,1,0.5c0.1,0.1,0.1,0.2,0,0.3
			c-1.4,0.6-2.8,1-4.4,1.3c0,0-0.1,0-0.1,0c-0.2-0.1-0.4-0.3-0.6-0.4C84.6,107,84.7,106.8,84.8,106.8z"/>
		<path class="st0" d="M78.8,107.5c1.6,0,3.1-0.1,4.5-0.4c0,0,0.1,0,0.1,0c0.2,0.1,0.3,0.2,0.5,0.4c0.1,0.1,0.1,0.3-0.1,0.3
			c-1.6,0.2-3.2,0.3-4.9,0.2c0,0-0.1,0-0.1,0c0,0-0.1-0.1-0.1-0.1C78.6,107.7,78.6,107.5,78.8,107.5z"/>
		<path class="st0" d="M71.6,106.6c1.9,0.5,3.7,0.7,5.5,0.8c0,0,0.1,0,0.1,0c0,0,0,0,0,0c0.1,0.1,0,0.3-0.1,0.3
			C75.3,107.6,73.5,107.2,71.6,106.6C71.6,106.6,71.6,106.6,71.6,106.6z"/>
	</g>
	<g>
		<path class="st0" d="M107.6,73.4c-0.5-1.9-1.2-3.9-2.1-5.9c0-0.1,0-0.2,0.1-0.3c2-0.9,4.1-1.8,6.1-2.6c0.1,0,0.2,0,0.3,0.1
			c0.9,2.4,1.6,4.8,2.1,7.1c0,0.1,0,0.2-0.1,0.2c-2,0.5-4,1.1-6.1,1.6C107.7,73.6,107.6,73.5,107.6,73.4z"/>
		<path class="st0" d="M108.6,81c0-1.8-0.2-3.7-0.6-5.5c0-0.1,0-0.2,0.1-0.2c2-0.4,4-0.9,6-1.3c0.1,0,0.2,0.1,0.2,0.2
			c0.3,2.2,0.5,4.4,0.4,6.5c0,0.1-0.1,0.2-0.2,0.2c-1.9,0.1-3.9,0.3-5.8,0.4C108.7,81.2,108.6,81.1,108.6,81z"/>
		<path class="st0" d="M107.8,88.1c0.4-1.6,0.7-3.3,0.8-5.1c0-0.1,0.1-0.2,0.2-0.2c1.9-0.1,3.8-0.1,5.7-0.2c0.1,0,0.2,0.1,0.2,0.2
			c-0.2,2-0.6,4-1.1,5.9c0,0.1-0.1,0.1-0.2,0.1c-1.8-0.2-3.6-0.3-5.4-0.5C107.9,88.3,107.8,88.2,107.8,88.1z"/>
		<path class="st0" d="M105.4,94.5c0.7-1.4,1.4-2.9,1.9-4.5c0-0.1,0.1-0.1,0.2-0.1c1.8,0.2,3.5,0.5,5.3,0.7c0.1,0,0.2,0.1,0.2,0.3
			c-0.6,1.8-1.4,3.5-2.3,5.2c0,0.1-0.1,0.1-0.2,0.1c-1.6-0.4-3.2-0.8-4.8-1.3C105.4,94.7,105.3,94.6,105.4,94.5z"/>
		<path class="st0" d="M101.8,99.8c1-1.2,2-2.5,2.8-3.9c0-0.1,0.1-0.1,0.2-0.1c1.6,0.5,3.1,0.9,4.7,1.4c0.1,0,0.2,0.2,0.1,0.3
			c-1,1.6-2.1,3-3.3,4.4c-0.1,0.1-0.1,0.1-0.2,0c-1.4-0.6-2.8-1.2-4.2-1.8C101.7,100.1,101.7,100,101.8,99.8z"/>
		<path class="st0" d="M96.8,104.6c1.3-1,2.5-2,3.6-3.2c0.1-0.1,0.1-0.1,0.2,0c1.3,0.6,2.7,1.3,4,1.9c0.1,0.1,0.2,0.2,0.1,0.3
			c-1.3,1.3-2.7,2.4-4.2,3.5c-0.1,0-0.1,0-0.2,0c-1.1-0.7-2.3-1.5-3.4-2.2C96.7,104.9,96.7,104.7,96.8,104.6z"/>
		<path class="st0" d="M91.5,107.9c1.4-0.7,2.8-1.5,4.1-2.4c0.1,0,0.1,0,0.2,0c1.1,0.7,2.2,1.5,3.3,2.2c0.1,0.1,0.1,0.3,0,0.3
			c-1.5,1-3.1,1.9-4.7,2.6c-0.1,0-0.1,0-0.2,0c-0.9-0.8-1.8-1.6-2.7-2.3C91.4,108.1,91.4,107.9,91.5,107.9z"/>
		<path class="st0" d="M85.3,110.2c1.5-0.4,3.1-0.9,4.5-1.5c0.1,0,0.1,0,0.2,0c0.9,0.8,1.7,1.6,2.6,2.4c0.1,0.1,0.1,0.3-0.1,0.3
			c-1.7,0.6-3.4,1.2-5.1,1.6c-0.1,0-0.1,0-0.2-0.1c-0.7-0.8-1.3-1.6-2-2.4C85.1,110.4,85.1,110.3,85.3,110.2z"/>
		<path class="st0" d="M78.9,111.2c1.6-0.1,3.2-0.3,4.7-0.6c0.1,0,0.1,0,0.2,0.1c0.6,0.8,1.3,1.6,1.9,2.3c0.1,0.1,0,0.3-0.1,0.3
			c-1.8,0.3-3.5,0.5-5.3,0.5c-0.1,0-0.1,0-0.2-0.1c-0.5-0.7-0.9-1.5-1.4-2.2C78.7,111.4,78.8,111.2,78.9,111.2z"/>
		<path class="st0" d="M72.5,110.8c1.6,0.3,3.2,0.4,4.8,0.4c0.1,0,0.1,0,0.2,0.1c0.4,0.7,0.8,1.4,1.2,2.2c0.1,0.1,0,0.3-0.2,0.3
			c-1.8-0.1-3.5-0.3-5.3-0.7c-0.1,0-0.1-0.1-0.1-0.1c-0.3-0.6-0.5-1.3-0.8-1.9C72.2,110.9,72.3,110.8,72.5,110.8z"/>
		<path class="st0" d="M66.2,108.9c1.5,0.7,3.1,1.2,4.6,1.5c0.1,0,0.1,0.1,0.1,0.1c0.2,0.6,0.5,1.2,0.7,1.8c0.1,0.2-0.1,0.3-0.2,0.3
			c-1.7-0.5-3.4-1.1-5-1.9c-0.1,0-0.1-0.1-0.1-0.1c-0.1-0.5-0.2-1-0.4-1.5C65.9,109,66,108.8,66.2,108.9z"/>
		<path class="st0" d="M60.2,105.4c1.4,1.1,2.8,2,4.3,2.7c0.1,0,0.1,0.1,0.1,0.1c0.1,0.5,0.2,0.9,0.3,1.4c0,0.2-0.1,0.3-0.3,0.2
			c-1.6-0.9-3.1-2-4.6-3.2c0,0-0.1-0.1-0.1-0.1c0-0.3-0.1-0.6-0.1-0.9C59.9,105.4,60.1,105.3,60.2,105.4z"/>
		<path class="st0" d="M54.9,100.1c1.2,1.5,2.5,2.8,3.9,4c0,0,0.1,0.1,0.1,0.1c0,0.2,0,0.5,0,0.7c0,0.2-0.2,0.3-0.3,0.2
			c-1.4-1.4-2.7-2.9-4-4.6c0,0,0-0.1,0-0.1c0-0.1,0-0.1,0-0.2C54.5,100.1,54.8,100,54.9,100.1z"/>
		<path class="st0" d="M50.1,92.6c1.1,2.2,2.2,4.1,3.5,5.9c0,0,0,0.1,0,0.1c0,0,0,0,0,0c0,0.2-0.3,0.2-0.4,0.1
			C52.1,96.8,51,94.8,50.1,92.6C50.1,92.6,50.1,92.6,50.1,92.6z"/>
	</g>
	<g>
		<path class="st0" d="M108.8,102.2c1.4-1.9,2.7-4.1,3.9-6.5c0.1-0.1,0.2-0.2,0.3-0.1c2.4,1.3,4.8,2.6,7.2,3.8
			c0.1,0.1,0.2,0.2,0.1,0.3c-1.5,2.7-3.2,5.1-4.9,7.3c-0.1,0.1-0.2,0.1-0.3,0c-2.1-1.5-4.1-3.1-6.2-4.6
			C108.7,102.5,108.7,102.3,108.8,102.2z"/>
		<path class="st0" d="M102.6,108.8c1.6-1.4,3.2-2.9,4.7-4.7c0.1-0.1,0.2-0.1,0.3,0c2,1.6,3.9,3.2,5.9,4.8c0.1,0.1,0.1,0.2,0,0.4
			c-1.8,2-3.7,3.7-5.7,5.3c-0.1,0.1-0.2,0.1-0.3,0c-1.6-1.7-3.3-3.5-4.9-5.2C102.5,109.1,102.5,108.9,102.6,108.8z"/>
		<path class="st0" d="M95.4,113.4c1.8-0.8,3.6-1.9,5.3-3.1c0.1-0.1,0.2-0.1,0.3,0c1.5,1.8,3.1,3.6,4.6,5.3c0.1,0.1,0.1,0.3,0,0.4
			c-2,1.3-4.1,2.5-6.3,3.4c-0.1,0-0.2,0-0.3-0.1c-1.2-1.9-2.5-3.7-3.7-5.6C95.2,113.6,95.3,113.5,95.4,113.4z"/>
		<path class="st0" d="M87.6,115.9c1.9-0.4,3.8-0.9,5.7-1.6c0.1,0,0.2,0,0.3,0.1c1.1,1.9,2.3,3.7,3.4,5.6c0.1,0.1,0,0.3-0.1,0.4
			c-2.2,0.7-4.4,1.3-6.6,1.6c-0.1,0-0.2,0-0.2-0.1c-0.9-1.9-1.7-3.7-2.6-5.6C87.4,116.1,87.5,115.9,87.6,115.9z"/>
		<path class="st0" d="M79.9,116.5c1.9,0.1,3.9,0,5.8-0.3c0.1,0,0.2,0,0.2,0.1c0.8,1.8,1.6,3.7,2.4,5.5c0.1,0.1,0,0.3-0.2,0.3
			c-2.2,0.2-4.4,0.2-6.7,0.1c-0.1,0-0.2-0.1-0.2-0.2c-0.5-1.8-1.1-3.6-1.6-5.4C79.6,116.6,79.7,116.5,79.9,116.5z"/>
		<path class="st0" d="M71.5,115.2c1.9,0.5,3.8,0.8,5.7,1.1c0.1,0,0.2,0.1,0.2,0.2c0.4,1.8,0.9,3.5,1.3,5.3c0,0.2-0.1,0.3-0.3,0.3
			c-2.2-0.3-4.4-0.8-6.5-1.4c-0.1,0-0.2-0.1-0.2-0.2c-0.2-1.6-0.4-3.3-0.7-4.9C71.2,115.3,71.4,115.2,71.5,115.2z"/>
		<path class="st0" d="M64.4,112.6c1.8,0.8,3.6,1.6,5.5,2.1c0.1,0,0.2,0.1,0.2,0.2c0.2,1.6,0.4,3.2,0.5,4.8c0,0.2-0.1,0.3-0.3,0.3
			c-2.1-0.7-4.1-1.6-6.1-2.6c-0.1,0-0.1-0.1-0.1-0.2c0-1.5,0-2.9,0-4.4C64.1,112.7,64.3,112.6,64.4,112.6z"/>
		<path class="st0" d="M57.4,108.4c1.6,1.2,3.2,2.2,4.9,3.2c0.1,0,0.1,0.1,0.1,0.2c-0.1,1.4-0.1,2.8-0.2,4.2c0,0.2-0.2,0.3-0.4,0.2
			c-1.9-1.1-3.7-2.4-5.4-3.7c-0.1-0.1-0.1-0.1-0.1-0.2c0.2-1.2,0.4-2.5,0.6-3.7C57.1,108.4,57.3,108.3,57.4,108.4z"/>
		<path class="st0" d="M51.6,103c1.3,1.5,2.7,2.8,4.2,4.1c0.1,0.1,0.1,0.1,0.1,0.2c-0.2,1.2-0.5,2.4-0.7,3.5c0,0.2-0.3,0.3-0.4,0.1
			c-1.6-1.5-3.2-3-4.6-4.7c-0.1-0.1-0.1-0.2,0-0.2c0.3-1,0.7-2,1-3C51.2,102.9,51.5,102.9,51.6,103z"/>
		<path class="st0" d="M46.9,96.5c1,1.7,2.1,3.4,3.3,4.9c0.1,0.1,0.1,0.2,0,0.2c-0.3,0.9-0.7,1.9-1,2.8c-0.1,0.2-0.3,0.2-0.4,0.1
			c-1.3-1.8-2.5-3.6-3.5-5.6c0-0.1,0-0.2,0-0.2c0.4-0.7,0.8-1.5,1.2-2.2C46.6,96.4,46.9,96.4,46.9,96.5z"/>
		<path class="st0" d="M43.8,89.1c0.6,1.9,1.3,3.8,2.2,5.6c0,0.1,0,0.2,0,0.2c-0.4,0.7-0.8,1.4-1.1,2c-0.1,0.2-0.3,0.2-0.4,0
			c-0.9-2-1.6-4.1-2.1-6.3c0-0.1,0-0.1,0-0.2c0.4-0.5,0.7-1,1.1-1.5C43.5,88.8,43.7,88.9,43.8,89.1z"/>
		<path class="st0" d="M42.4,80.7c0.1,2.1,0.4,4.2,0.8,6.2c0,0.1,0,0.1,0,0.2c-0.3,0.4-0.7,0.9-1,1.3c-0.1,0.2-0.4,0.1-0.4-0.1
			c-0.4-2.2-0.6-4.5-0.6-6.8c0-0.1,0-0.1,0.1-0.2c0.3-0.3,0.5-0.5,0.8-0.8C42.2,80.4,42.4,80.5,42.4,80.7z"/>
		<path class="st0" d="M43.1,71.7c-0.4,2.3-0.7,4.5-0.7,6.7c0,0.1,0,0.1-0.1,0.2c-0.2,0.2-0.4,0.4-0.7,0.6c-0.2,0.1-0.4,0-0.4-0.2
			c0.2-2.4,0.6-4.8,1.2-7.3c0-0.1,0-0.1,0.1-0.1c0.1,0,0.1-0.1,0.2-0.1C42.9,71.3,43.2,71.5,43.1,71.7z"/>
		<path class="st0" d="M46.4,61.4c-1.2,2.6-2.1,5.2-2.8,7.8c0,0.1-0.1,0.1-0.1,0.1c0,0,0,0,0,0c-0.2,0.1-0.4-0.1-0.4-0.3
			C44,66.5,45.1,64,46.4,61.4C46.4,61.4,46.4,61.4,46.4,61.4z"/>
	</g>
	<g>
		<path class="st0" d="M83.1,124.9c2.9-0.1,5.9-0.5,9-1.1c0.2,0,0.3,0.1,0.3,0.2c0.7,3.3,1.3,6.5,2,9.8c0,0.2-0.1,0.3-0.2,0.3
			c-3.7,0.6-7.2,0.8-10.6,0.7c-0.2,0-0.3-0.1-0.3-0.3c-0.2-3.1-0.4-6.3-0.5-9.4C82.8,125.1,83,124.9,83.1,124.9z"/>
		<path class="st0" d="M72.2,124c2.6,0.6,5.2,0.9,8,1c0.2,0,0.3,0.1,0.3,0.3c0.1,3.1,0.1,6.1,0.2,9.2c0,0.2-0.1,0.3-0.3,0.3
			c-3.3-0.2-6.4-0.8-9.3-1.5c-0.1,0-0.2-0.2-0.2-0.3c0.3-2.9,0.7-5.8,1-8.7C71.8,124.1,72,123.9,72.2,124z"/>
		<path class="st0" d="M62.3,120.5c2.2,1.1,4.5,2,7,2.8c0.1,0,0.2,0.2,0.2,0.3c-0.4,2.8-0.9,5.6-1.3,8.4c0,0.2-0.2,0.3-0.4,0.2
			c-2.8-0.9-5.5-2.1-8-3.5c-0.1-0.1-0.2-0.2-0.1-0.3c0.8-2.6,1.5-5.2,2.3-7.7C62,120.5,62.2,120.4,62.3,120.5z"/>
		<path class="st0" d="M54,114.9c1.8,1.6,3.8,3,5.9,4.2c0.1,0.1,0.2,0.2,0.1,0.3c-0.8,2.5-1.7,5-2.5,7.5c-0.1,0.2-0.3,0.2-0.4,0.1
			c-2.4-1.5-4.6-3.2-6.6-5.1c-0.1-0.1-0.1-0.2-0.1-0.3c1.1-2.2,2.1-4.4,3.2-6.7C53.6,114.8,53.8,114.8,54,114.9z"/>
		<path class="st0" d="M47.4,107.9c1.4,1.9,3,3.7,4.7,5.4c0.1,0.1,0.1,0.2,0.1,0.3c-1.1,2.1-2.2,4.3-3.3,6.4
			c-0.1,0.2-0.3,0.2-0.5,0.1c-1.9-2-3.7-4.1-5.3-6.3c-0.1-0.1-0.1-0.2,0-0.3c1.2-1.8,2.5-3.7,3.7-5.5
			C47.1,107.7,47.3,107.7,47.4,107.9z"/>
		<path class="st0" d="M42.1,99c1,2.2,2.2,4.3,3.5,6.3c0.1,0.1,0.1,0.2,0,0.3c-1.3,1.7-2.6,3.5-3.8,5.2c-0.1,0.2-0.4,0.2-0.5,0
			c-1.4-2.3-2.7-4.8-3.7-7.3c0-0.1,0-0.2,0.1-0.3c1.4-1.4,2.7-2.9,4.1-4.3C41.8,98.7,42,98.8,42.1,99z"/>
		<path class="st0" d="M39,90.2c0.6,2.3,1.4,4.6,2.3,6.8c0,0.1,0,0.2-0.1,0.3c-1.4,1.4-2.7,2.8-4.1,4.1c-0.1,0.1-0.4,0.1-0.5-0.1
			c-1-2.5-1.7-5.1-2.3-7.8c0-0.1,0-0.2,0.1-0.3c1.4-1.1,2.7-2.2,4.1-3.3C38.7,89.9,38.9,90,39,90.2z"/>
		<path class="st0" d="M37.5,80.3c0.1,2.4,0.4,4.8,0.9,7.1c0,0.1,0,0.2-0.1,0.3c-1.4,1-2.7,2-4.1,3c-0.2,0.1-0.4,0-0.5-0.2
			c-0.4-2.7-0.7-5.3-0.7-8c0-0.1,0.1-0.2,0.1-0.3c1.3-0.7,2.6-1.5,3.9-2.2C37.2,79.9,37.5,80.1,37.5,80.3z"/>
		<path class="st0" d="M37.9,70.7c-0.3,2.3-0.5,4.7-0.5,7.1c0,0.1-0.1,0.2-0.2,0.2c-1.3,0.7-2.6,1.3-3.8,2c-0.2,0.1-0.4,0-0.4-0.3
			c0.1-2.7,0.4-5.3,0.8-7.9c0-0.1,0.1-0.2,0.2-0.2c1.2-0.4,2.3-0.9,3.5-1.3C37.7,70.3,37.9,70.4,37.9,70.7z"/>
		<path class="st0" d="M40.3,61.4c-0.8,2.2-1.5,4.5-2,6.8c0,0.1-0.1,0.2-0.2,0.2c-1.1,0.4-2.3,0.7-3.4,1.1c-0.2,0.1-0.4-0.1-0.4-0.3
			c0.6-2.6,1.4-5.1,2.5-7.5c0-0.1,0.1-0.1,0.2-0.2c1-0.2,2-0.4,2.9-0.5C40.2,60.9,40.4,61.2,40.3,61.4z"/>
		<path class="st0" d="M44.8,52.8c-1.4,2-2.5,4.1-3.5,6.3c0,0.1-0.1,0.1-0.2,0.2c-0.9,0.1-1.9,0.3-2.8,0.4c-0.2,0-0.4-0.2-0.3-0.4
			c1.2-2.3,2.5-4.6,4.1-6.7c0.1-0.1,0.1-0.1,0.2-0.1c0.7,0,1.5,0,2.2,0C44.8,52.3,44.9,52.6,44.8,52.8z"/>
		<path class="st0" d="M51.4,45.2c-1.9,1.7-3.6,3.5-5.1,5.4c-0.1,0.1-0.1,0.1-0.2,0.1c-0.7,0-1.3,0-2,0c-0.2,0-0.4-0.3-0.2-0.5
			c1.7-2,3.7-3.9,5.9-5.7c0.1,0,0.1-0.1,0.2-0.1c0.4,0.1,0.9,0.1,1.3,0.2C51.5,44.8,51.6,45.1,51.4,45.2z"/>
		<path class="st0" d="M60.3,39.1c-2.5,1.3-4.7,2.8-6.8,4.3c-0.1,0-0.1,0.1-0.2,0.1c-0.4-0.1-0.7-0.1-1.1-0.2
			c-0.3,0-0.3-0.4-0.1-0.5c2.3-1.6,4.9-3.1,7.6-4.3c0.1,0,0.1,0,0.2,0c0.1,0,0.2,0.1,0.3,0.1C60.5,38.6,60.6,39,60.3,39.1z"/>
		<path class="st0" d="M72.4,34.6c-3.4,0.8-6.5,1.9-9.3,3.2c-0.1,0-0.1,0-0.2,0c0,0,0,0,0,0c-0.3-0.1-0.3-0.4,0-0.5
			C65.8,36.1,69,35.2,72.4,34.6C72.4,34.6,72.4,34.6,72.4,34.6z"/>
	</g>
	<g>
		<path class="st0" d="M42.1,117.3c2.3,2.7,5,5.3,8,7.8c0.2,0.1,0.2,0.4,0.1,0.5c-2.5,3.1-5,6.2-7.5,9.2c-0.1,0.2-0.3,0.2-0.5,0
			c-3.4-3.1-6.3-6.3-8.9-9.6c-0.1-0.1-0.1-0.4,0-0.5c2.8-2.5,5.5-5,8.3-7.5C41.8,117.2,42,117.2,42.1,117.3z"/>
		<path class="st0" d="M34.5,106.1c1.5,2.9,3.2,5.7,5.3,8.4c0.1,0.2,0.1,0.4,0,0.5c-2.8,2.4-5.6,4.7-8.4,7.1
			c-0.2,0.1-0.4,0.1-0.5-0.1c-2.3-3.3-4.2-6.7-5.8-10.1c-0.1-0.2,0-0.4,0.1-0.4c2.9-1.8,5.9-3.7,8.8-5.5
			C34.2,105.9,34.4,105.9,34.5,106.1z"/>
		<path class="st0" d="M30.1,94.1c0.7,2.9,1.6,5.9,2.9,8.7c0.1,0.2,0,0.4-0.1,0.4c-2.9,1.7-5.9,3.4-8.8,5.1c-0.2,0.1-0.4,0-0.5-0.2
			c-1.3-3.4-2.3-6.9-3-10.3c0-0.2,0.1-0.3,0.2-0.4c3-1.2,5.9-2.4,8.9-3.6C29.8,93.8,30,93.9,30.1,94.1z"/>
		<path class="st0" d="M28.8,81.9c0,2.9,0.2,5.9,0.6,8.8c0,0.2-0.1,0.3-0.2,0.4c-3,1.1-5.9,2.1-8.9,3.2c-0.2,0.1-0.4-0.1-0.5-0.3
			c-0.4-3.4-0.6-6.8-0.4-10.2c0-0.2,0.1-0.3,0.3-0.3c2.9-0.7,5.7-1.3,8.6-2C28.6,81.5,28.8,81.7,28.8,81.9z"/>
		<path class="st0" d="M30.2,70.3c-0.6,2.8-1.1,5.7-1.3,8.6c0,0.2-0.1,0.3-0.3,0.3c-2.8,0.6-5.7,1.1-8.5,1.7c-0.2,0-0.4-0.2-0.4-0.4
			c0.3-3.3,0.9-6.6,1.8-9.8c0-0.1,0.2-0.2,0.3-0.3c2.7-0.2,5.4-0.4,8-0.6C30.1,69.9,30.2,70.1,30.2,70.3z"/>
		<path class="st0" d="M34.3,58.6c-1.2,2.6-2.3,5.3-3.1,8c0,0.1-0.2,0.2-0.3,0.2c-2.6,0.1-5.2,0.2-7.8,0.2c-0.2,0-0.4-0.2-0.4-0.5
			c1-3.1,2.3-6.1,3.8-9c0.1-0.1,0.2-0.2,0.3-0.2c2.4,0.2,4.8,0.4,7.1,0.7C34.3,58.1,34.4,58.3,34.3,58.6z"/>
		<path class="st0" d="M40,49c-1.7,2.3-3.2,4.7-4.6,7.3c-0.1,0.1-0.2,0.2-0.3,0.2c-2.3-0.3-4.7-0.5-7-0.8c-0.3,0-0.4-0.3-0.3-0.5
			c1.6-2.8,3.4-5.5,5.4-8.1c0.1-0.1,0.2-0.1,0.3-0.1c2.1,0.5,4.1,1,6.2,1.5C40,48.5,40.1,48.8,40,49z"/>
		<path class="st0" d="M48,40.1c-2.1,1.9-4.1,4-5.9,6.2c-0.1,0.1-0.2,0.1-0.3,0.1c-2-0.5-3.9-1.1-5.9-1.6c-0.3-0.1-0.4-0.4-0.2-0.6
			c2.1-2.4,4.4-4.7,6.8-6.7c0.1-0.1,0.2-0.1,0.3-0.1c1.7,0.7,3.4,1.4,5.1,2.1C48.1,39.6,48.2,39.9,48,40.1z"/>
		<path class="st0" d="M57.2,33.3c-2.4,1.4-4.8,3-7,4.8c-0.1,0.1-0.2,0.1-0.3,0c-1.6-0.7-3.2-1.5-4.8-2.2c-0.2-0.1-0.3-0.5-0.1-0.6
			c2.5-1.9,5.2-3.6,8-5.1c0.1-0.1,0.2-0.1,0.3,0c1.3,0.8,2.6,1.6,3.9,2.4C57.5,32.9,57.5,33.2,57.2,33.3z"/>
		<path class="st0" d="M67.7,28.7c-2.7,0.9-5.3,1.9-7.8,3.2c-0.1,0.1-0.2,0-0.3,0c-1.2-0.8-2.4-1.6-3.7-2.4c-0.2-0.2-0.2-0.5,0-0.6
			c2.8-1.3,5.8-2.4,8.8-3.2c0.1,0,0.2,0,0.3,0.1c0.9,0.8,1.9,1.6,2.8,2.4C68,28.3,68,28.6,67.7,28.7z"/>
		<path class="st0" d="M79.1,26.5c-2.9,0.2-5.8,0.6-8.5,1.3c-0.1,0-0.2,0-0.3-0.1c-0.9-0.8-1.7-1.6-2.6-2.3
			c-0.2-0.2-0.1-0.6,0.1-0.6c3.1-0.6,6.2-1,9.4-1.1c0.1,0,0.2,0,0.3,0.1c0.6,0.7,1.2,1.4,1.8,2.1C79.6,26.2,79.4,26.5,79.1,26.5z"/>
		<path class="st0" d="M91.3,27.2c-3-0.6-6-0.8-9-0.8c-0.1,0-0.2,0-0.3-0.1c-0.5-0.6-1-1.3-1.5-1.9c-0.2-0.2,0-0.6,0.3-0.6
			c3.2,0.1,6.5,0.6,9.8,1.4c0.1,0,0.2,0.1,0.2,0.2c0.3,0.5,0.6,0.9,0.9,1.4C91.8,27,91.6,27.3,91.3,27.2z"/>
		<path class="st0" d="M103.9,31.2c-3.1-1.4-6.2-2.5-9.3-3.2c-0.1,0-0.2-0.1-0.2-0.2c-0.2-0.4-0.4-0.8-0.7-1.2
			c-0.2-0.3,0.1-0.6,0.4-0.5c3.3,1,6.6,2.4,9.9,4.1c0.1,0,0.1,0.1,0.2,0.2c0,0.1,0.1,0.2,0.1,0.4C104.4,31,104.2,31.3,103.9,31.2z"
			/>
		<path class="st0" d="M117.4,39.4c-3.4-2.6-6.8-4.8-10.2-6.6c-0.1,0-0.1-0.1-0.2-0.2c0,0,0,0,0,0c-0.1-0.3,0.2-0.6,0.5-0.4
			C110.9,34.2,114.2,36.6,117.4,39.4C117.4,39.4,117.4,39.4,117.4,39.4z"/>
	</g>
	<g>
		<path class="st0" d="M17.3,72.3c-0.7,4.3-1,8.8-1,13.5c0,0.2-0.2,0.4-0.4,0.4c-4.8-0.1-9.6-0.2-14.4-0.2c-0.2,0-0.4-0.2-0.4-0.5
			C1.4,80.1,2,74.8,3.1,69.9c0-0.2,0.3-0.4,0.5-0.3c4.5,0.8,8.9,1.5,13.4,2.3C17.2,71.9,17.3,72.1,17.3,72.3z"/>
		<path class="st0" d="M21.8,56.6C20.2,60.2,19,64,18.1,68c-0.1,0.2-0.3,0.4-0.5,0.3c-4.4-0.9-8.7-1.8-13.1-2.7
			c-0.2,0-0.4-0.3-0.3-0.5c1.3-4.7,2.9-9.1,4.8-13.1c0.1-0.2,0.3-0.3,0.5-0.2c4,1.4,8,2.9,11.9,4.3C21.7,56.1,21.9,56.4,21.8,56.6z"
			/>
		<path class="st0" d="M29.5,43.4c-2.2,2.8-4.2,5.9-5.9,9.3c-0.1,0.2-0.3,0.3-0.5,0.2c-3.9-1.6-7.7-3.1-11.6-4.7
			c-0.2-0.1-0.3-0.4-0.2-0.6c2.1-3.8,4.6-7.3,7.2-10.5c0.1-0.2,0.3-0.2,0.5-0.1c3.4,1.9,6.8,3.9,10.3,5.8
			C29.6,42.9,29.6,43.2,29.5,43.4z"/>
		<path class="st0" d="M39.8,33c-2.7,2.2-5.3,4.6-7.6,7.2c-0.1,0.1-0.3,0.2-0.5,0.1c-3.3-2-6.6-4.1-9.9-6.1
			c-0.2-0.1-0.3-0.5-0.1-0.7c2.8-3,5.9-5.6,9.1-8c0.1-0.1,0.4-0.1,0.5,0c2.8,2.3,5.7,4.5,8.5,6.8C40,32.5,40,32.8,39.8,33z"/>
		<path class="st0" d="M51.5,25.7c-3.1,1.5-6.1,3.2-8.9,5.2c-0.2,0.1-0.4,0.1-0.5,0c-2.7-2.3-5.4-4.6-8.1-6.9
			c-0.2-0.2-0.2-0.5,0-0.7c3.3-2.2,6.8-4,10.4-5.6c0.2-0.1,0.3,0,0.5,0.1c2.3,2.4,4.5,4.9,6.8,7.3C51.9,25.2,51.8,25.6,51.5,25.7z"
			/>
		<path class="st0" d="M65.6,20.8c-3.4,0.8-6.7,1.8-9.9,3c-0.2,0.1-0.3,0-0.5-0.1c-2.1-2.4-4.2-4.9-6.3-7.3
			c-0.2-0.2-0.1-0.6,0.2-0.7c3.7-1.3,7.5-2.4,11.3-3.1c0.2,0,0.3,0,0.4,0.2c1.7,2.4,3.3,4.9,4.9,7.3C66.1,20.4,65.9,20.7,65.6,20.8z
			"/>
		<path class="st0" d="M78.9,19.1c-3.5,0.1-6.9,0.5-10.3,1.1c-0.2,0-0.3,0-0.4-0.2c-1.6-2.4-3.1-4.9-4.7-7.3c-0.2-0.3,0-0.6,0.3-0.7
			c3.9-0.6,7.8-0.9,11.7-0.9c0.2,0,0.3,0.1,0.4,0.2c1.1,2.4,2.3,4.7,3.4,7.1C79.4,18.8,79.2,19.1,78.9,19.1z"/>
		<path class="st0" d="M93.3,20.1c-3.4-0.6-6.9-0.9-10.3-1c-0.2,0-0.3-0.1-0.4-0.2c-1-2.3-2-4.6-3.1-6.9c-0.1-0.3,0.1-0.6,0.4-0.6
			c3.9,0.2,7.7,0.7,11.5,1.5c0.1,0,0.3,0.1,0.3,0.3c0.7,2.1,1.3,4.3,2,6.4C93.9,19.9,93.6,20.2,93.3,20.1z"/>
		<path class="st0" d="M106.8,23.9c-3.2-1.3-6.5-2.3-9.9-3.1c-0.1,0-0.3-0.1-0.3-0.3c-0.6-2.1-1.1-4.2-1.7-6.2
			c-0.1-0.3,0.2-0.6,0.5-0.5c3.7,1,7.4,2.2,10.9,3.8c0.1,0.1,0.2,0.2,0.3,0.3c0.3,1.9,0.5,3.7,0.8,5.6
			C107.4,23.8,107.1,24,106.8,23.9z"/>
		<path class="st0" d="M119.2,30.5c-2.9-2-5.9-3.7-9.1-5.1c-0.1-0.1-0.2-0.2-0.2-0.3c-0.2-1.8-0.4-3.6-0.6-5.3
			c0-0.3,0.3-0.6,0.6-0.4c3.4,1.7,6.7,3.7,9.9,6c0.1,0.1,0.2,0.2,0.2,0.4c0,1.5,0,3-0.1,4.5C119.9,30.4,119.5,30.6,119.2,30.5z"/>
		<path class="st0" d="M130.1,39.8c-2.4-2.6-5.1-5-7.9-7.2c-0.1-0.1-0.2-0.2-0.2-0.4c0.1-1.4,0.1-2.8,0.2-4.2c0-0.4,0.4-0.5,0.7-0.3
			c3,2.5,5.8,5.2,8.3,8.2c0.1,0.1,0.1,0.2,0.1,0.4c-0.2,1.1-0.4,2.2-0.6,3.2C130.8,39.9,130.4,40.1,130.1,39.8z"/>
		<path class="st0" d="M138.9,52c-1.8-3.3-3.9-6.4-6.2-9.2c-0.1-0.1-0.1-0.2-0.1-0.4c0.2-1,0.4-2,0.6-2.9c0.1-0.4,0.5-0.5,0.7-0.2
			c2.4,3.2,4.5,6.7,6.3,10.4c0.1,0.1,0.1,0.2,0,0.3c-0.2,0.6-0.4,1.2-0.6,1.9C139.5,52.3,139.1,52.3,138.9,52z"/>
		<path class="st0" d="M145,67c-1.1-4-2.5-7.8-4.2-11.3c-0.1-0.1-0.1-0.2,0-0.3c0.2-0.5,0.4-1,0.6-1.5c0.1-0.4,0.6-0.4,0.8,0
			c1.6,3.9,2.9,8.1,3.9,12.6c0,0.1,0,0.2,0,0.3c-0.1,0.1-0.1,0.3-0.2,0.4C145.6,67.4,145.1,67.4,145,67z"/>
		<path class="st0" d="M148,86.2c-0.2-5.2-0.9-10.1-1.8-14.7c0-0.1,0-0.2,0-0.3c0,0,0,0,0,0c0.2-0.4,0.7-0.3,0.8,0.1
			C147.7,76,148,81,148,86.2C148,86.2,148,86.2,148,86.2z"/>
	</g>
</g>
</svg>
