<?xml version="1.0" encoding="utf-8"?>
<!-- Generator: Adobe Illustrator 24.2.1, SVG Export Plug-In . SVG Version: 6.00 Build 0)  -->
<svg version="1.1" id="Layer_1" xmlns="http://www.w3.org/2000/svg" xmlns:xlink="http://www.w3.org/1999/xlink" x="0px" y="0px"
	 viewBox="0 0 964 745" style="enable-background:new 0 0 964 745;" xml:space="preserve">
<style type="text/css">
	.st0{fill:#5B5B5B;}
	.st1{fill:#772FDD;}
	.st2{fill:#A267E5;}
	.st3{fill:#4B1499;}
	.st4{fill:#B3B3B3;}
	.st5{fill:#E6E6E6;}
	.st6{fill:#808080;}
	.st7{fill:#F7F7F7;}
</style>
<polygon class="st0" points="445.5,517 392.2,438.9 317.3,438.9 261,356.9 315.3,278.8 262,201.1 264.8,196.8 318.3,118.9 
	393.2,118.9 446.7,42.3 526,42.3 579.7,119.2 654,119.2 711,201 656.9,279.2 711,356.9 654,438.7 579.3,438.7 524.8,517 "/>
<g>
	<g>
		<g>
			<g>
				<polygon class="st1" points="651.9,123.2 598.6,201 523.5,201 576.7,123.2 				"/>
			</g>
		</g>
		<g>
			<g>
				<polygon class="st2" points="651.9,123.2 706.1,201 652.1,279.1 598.6,201 				"/>
			</g>
		</g>
		<g>
			<polygon class="st3" points="598.6,201 652.1,279.1 577.7,278.8 523.5,201 			"/>
		</g>
	</g>
	<g>
		<g>
			<polygon class="st4" points="395,278.8 341.1,356.9 265.9,356.9 320.1,278.8 			"/>
		</g>
		<g>
			<polygon class="st5" points="395,278.8 448.5,356.9 394.3,434.9 341.1,356.9 			"/>
		</g>
		<g>
			<polygon class="st6" points="341.1,356.9 394.3,434.9 319.4,434.9 265.9,356.9 			"/>
		</g>
	</g>
	<g>
		<g>
			<polygon class="st1" points="523.5,356.9 469.3,434.9 394.3,434.9 448.5,356.9 			"/>
		</g>
		<g>
			<polygon class="st2" points="523.5,356.9 577.2,434.7 522.7,513 469.3,434.9 			"/>
		</g>
		<g>
			<polygon class="st3" points="469.3,434.9 522.7,513 447.6,513 394.3,434.9 			"/>
		</g>
	</g>
	<g>
		<g>
			<polygon class="st1" points="651.9,279.1 598.6,356.9 523.5,356.9 577.7,278.8 			"/>
		</g>
		<g>
			<polygon class="st2" points="651.9,279.1 706.1,356.9 651.9,434.7 598.6,356.9 			"/>
		</g>
		<g>
			<polygon class="st3" points="598.6,356.9 651.9,434.7 577,434.7 523.5,356.9 			"/>
		</g>
	</g>
	<g>
		<g>
			<polygon class="st4" points="395.3,122.9 342,200.8 266.9,200.8 320.4,122.9 			"/>
		</g>
		<g>
			<polygon class="st5" points="395,122.9 449.3,200.8 395,278.8 341.8,200.8 			"/>
		</g>
		<g>
			<polygon class="st6" points="341.8,200.8 395,278.8 320.1,278.8 266.6,200.8 			"/>
		</g>
	</g>
	<g>
		<g>
			<g>
				<polygon class="st4" points="523.5,201 470,278.8 395,278.8 448.5,201 				"/>
			</g>
		</g>
		<g>
			<g>
				<polygon class="st5" points="523.5,201 577.7,278.8 523.5,356.9 470,278.8 				"/>
			</g>
		</g>
		<g>
			<polygon class="st6" points="470,278.8 523.5,356.9 448.5,356.9 395,278.8 			"/>
		</g>
	</g>
	<g>
		<g>
			<g>
				<polygon class="st1" points="523.9,46.3 470.5,124.1 395.3,122.9 448.8,46.3 				"/>
			</g>
		</g>
		<g>
			<g>
				<polygon class="st2" points="523.9,46.3 577.4,122.9 523.5,201 470,122.9 				"/>
			</g>
		</g>
		<g>
			<polygon class="st3" points="470.2,122.9 523.5,201 448.5,201 395.3,122.9 			"/>
		</g>
	</g>
</g>
<g>
	<g>
		<path class="st0" d="M120.7,623.6v-42.9l-14.1,37.4c-0.9,2.6-2.6,3.9-3.8,4.5c-1.3,0.6-2.8,1-4.7,1H74.8c-2,0-3.5-0.3-4.8-1
			c-1.1-0.6-2.7-1.9-3.7-4.6l-14.1-37.5v43.1H23.3v-73.4c0-4.7,3.1-7.9,7.7-7.9h32.2c4.2,0,7.4,2.2,8.8,5.9l14.6,42.5l14.7-42.5
			c0.7-1.8,1.7-3.2,3.1-4.2c1.5-1.1,3.4-1.7,5.6-1.7h31.8c4.6,0,7.7,3.2,7.7,7.9v73.4H120.7z"/>
	</g>
	<g>
		<path class="st0" d="M150.5,645.6v-25h43.1c0.9,0,1.4-0.1,1.6-0.2c0.1-0.2,0.2-0.6,0.2-1.3h-20.3c-9.5,0-16.2-2-20.5-6.3
			c-4.3-4.2-6.5-10.4-6.5-18.3v-34.8h27.8v32.4c0,1.3,0.1,2.1,0.2,2.4c0.3,0.1,1,0.2,2.3,0.2h17v-35.1h27.8v59.8
			c0,3.6-0.4,6.9-1.3,10c-1,3.3-2.6,6.2-4.8,8.6c-2.2,2.4-5.2,4.3-8.7,5.6c-3.4,1.2-7.4,1.8-12.1,1.8H150.5z"/>
	</g>
	<g>
		<path class="st0" d="M222.5,623.6v-73.4c0-4.7,3.1-7.9,7.7-7.9h53.5c5.8,0,11,0.8,15.2,2.3c4.5,1.6,8.2,4,11,7
			c2.8,3,4.9,6.7,6.1,10.9c1.2,3.9,1.8,8.4,1.8,13.1v14.7c0,4.8-0.6,9.2-1.8,13.1c-1.3,4.2-3.3,7.9-6.1,10.9c-2.8,3-6.5,5.4-11,7
			c-4.2,1.5-9.4,2.3-15.2,2.3H222.5z M281.9,595.1c2.7,0,4.2-0.5,4.6-1c0.1-0.1,1-1.2,1-5.5v-11.9c0-4.4-0.9-5.5-0.9-5.5
			c-0.2-0.2-1.2-1-4.7-1h-29.2v25H281.9z"/>
	</g>
	<g>
		<rect x="315.9" y="537.2" class="st0" width="27.7" height="86.4"/>
	</g>
	<g>
		<path class="st0" d="M341.9,623.6v-25.1h10.7c-2.9-0.9-5.4-2.4-7.2-4.5c-2.8-3.1-4.2-7.3-4.2-12.2v-4.3c0-5.2,1.6-9.5,4.6-12.7
			c3.1-3.3,7.9-4.9,14.2-4.9h48.5c4.4,0,7.4,3.1,7.4,7.4v15.5l-6.7,2.5c1.5,0.8,2.7,1.9,3.7,3.1c1.4,1.7,2.4,3.8,3,6.1
			c0.4,1.9,0.7,4.1,0.7,6.6v4c0,5.6-1.6,10.1-4.8,13.4c-3.3,3.4-8.4,5.1-15.6,5.1H341.9z"/>
	</g>
	<g>
		<path class="st0" d="M441.3,623.6c-4.6,0-8.5-0.6-11.8-1.8c-3.5-1.3-6.4-3.2-8.7-5.6c-2.3-2.4-4-5.3-5-8.7
			c-0.9-3.1-1.4-6.5-1.4-10.3v-11.1c0-3.7,0.5-7.2,1.4-10.2c1-3.4,2.7-6.3,5-8.7c2.3-2.4,5.2-4.3,8.7-5.6c3.3-1.2,7.3-1.8,11.8-1.8
			h31c5.6,0,9.9,1.7,12.7,5c2.6,3.1,3.8,7.4,3.8,13.1v5.2c0,5.1-1.2,9.3-3.6,12.5c-1.2,1.5-2.6,2.8-4.3,3.7h7v24.3H441.3z"/>
	</g>
	<g>
		<path class="st0" d="M502.2,623.6c-2.5,0-4.7-0.3-6.8-1c-2.4-0.8-4.4-2.1-6.1-3.9c-1.6-1.7-2.8-4-3.6-6.6c-0.7-2.4-1-5.2-1-8.6v-4
			c0-6.5,1.6-11.3,4.7-14.5c0.7-0.7,1.5-1.3,2.3-1.9h-5.7v-23.3h54.9c5,0,8.9,1.6,11.6,4.7c2.5,2.9,3.7,6.8,3.7,11.8v40
			c0,4.3-3,7.4-7.3,7.4H502.2z"/>
	</g>
	<g>
		<path class="st0" d="M554.1,623.6v-25.1h10.7c-2.9-0.9-5.4-2.4-7.2-4.5c-2.8-3.1-4.2-7.3-4.2-12.2v-4.3c0-5.2,1.6-9.5,4.6-12.7
			c3.1-3.3,7.9-4.9,14.2-4.9h48.5c4.4,0,7.4,3.1,7.4,7.4v15.5l-6.7,2.5c1.5,0.8,2.7,1.9,3.7,3.1c1.4,1.7,2.4,3.8,3,6.1
			c0.4,1.9,0.7,4.1,0.7,6.6v4c0,5.6-1.6,10.1-4.8,13.4c-3.3,3.4-8.4,5.1-15.6,5.1H554.1z"/>
	</g>
	<g>
		<path class="st0" d="M653.5,623.6c-4.5,0-8.5-0.6-11.8-1.8c-3.5-1.3-6.4-3.1-8.7-5.6c-2.3-2.4-4-5.3-5-8.7
			c-0.9-3.1-1.4-6.5-1.4-10.3v-11.1c0-3.7,0.5-7.2,1.4-10.2c1-3.4,2.7-6.3,5-8.7c2.3-2.4,5.2-4.3,8.7-5.6c3.3-1.2,7.3-1.8,11.8-1.8
			h31c5.6,0,9.9,1.7,12.7,5c2.6,3.1,3.8,7.4,3.8,13.1v5.2c0,5.1-1.2,9.3-3.6,12.5c-1.2,1.5-2.6,2.8-4.3,3.7h7v24.3H653.5z"/>
	</g>
	<g>
		<rect x="698.6" y="597.3" class="st0" width="27.7" height="26.3"/>
	</g>
	<g>
		<rect x="725.4" y="537.2" class="st0" width="27.7" height="86.4"/>
	</g>
	<g>
		<path class="st0" d="M800.3,623.6v-36.2c0-2-0.3-2.9-0.4-3.1c-0.1-0.1-0.7-0.3-2.1-0.3H780v39.7h-27.7v-63.8h48.9
			c4.5,0,8.5,0.6,11.9,1.8c3.6,1.3,6.5,3.2,8.8,5.6c2.2,2.4,3.9,5.3,4.9,8.7c0.9,3.1,1.4,6.5,1.4,10.2v37.4H800.3z"/>
	</g>
	<g>
		<path class="st0" d="M831.6,623.6v-40.3h-5.7l-6.2-16.8v-6.7h11.9v-1.5c0-3.8,0.4-6.8,1.2-9.4c0.9-3,2.6-5.4,4.9-7.3
			c2.2-1.8,5-3,8.3-3.6c2.8-0.6,6.2-0.8,10.3-0.8h11.3l6.4,16.1v6.5h1v23.5h-15.7v40.3H831.6z"/>
	</g>
	<g>
		<path class="st0" d="M895.8,623.6c-4.5,0-8.5-0.6-11.8-1.8c-3.5-1.3-6.4-3.1-8.7-5.6c-2.3-2.4-4-5.3-5-8.7
			c-0.9-3.1-1.4-6.5-1.4-10.3v-11.1c0-3.7,0.5-7.1,1.4-10.2c1-3.4,2.7-6.4,5-8.8c2.3-2.4,5.2-4.3,8.7-5.6c3.3-1.2,7.3-1.8,11.8-1.8
			h25.9c4.5,0,8.5,0.6,11.9,1.8c3.5,1.3,6.5,3.1,8.8,5.6c2.3,2.4,4,5.4,5,8.8c0.9,3.1,1.4,6.5,1.4,10.2v11.1c0,3.7-0.5,7.2-1.4,10.3
			c-1,3.4-2.7,6.3-5,8.7c-2.3,2.4-5.3,4.3-8.8,5.6c-3.3,1.2-7.3,1.8-11.9,1.8H895.8z M897,597.6c0.3,0.1,1,0.2,2.2,0.2h19.3
			c1.3,0,1.9-0.1,2.3-0.2c0.1-0.4,0.3-1.2,0.3-2.7v-7.5c0-1.9-0.2-2.8-0.4-3.2c-0.3-0.1-0.9-0.3-2.2-0.3h-19.3
			c-1.2,0-1.8,0.1-2.1,0.2c-0.1,0.4-0.4,1.3-0.4,3.2v7.5C896.7,596.4,896.9,597.2,897,597.6z"/>
	</g>
</g>
<g>
	<path class="st7" d="M125.7,618.6V565c0-1-0.5-1.6-1.5-1.6h-1.1c-0.8,0-1.4,0.4-1.8,1.3l-19.5,51.6c-0.3,0.9-0.8,1.5-1.4,1.8
		c-0.6,0.3-1.4,0.4-2.4,0.4H74.8c-1.1,0-1.9-0.1-2.5-0.4c-0.6-0.3-1-0.9-1.3-1.8l-19.4-51.6c-0.3-0.8-0.9-1.3-1.9-1.3h-1
		c-1,0-1.6,0.5-1.6,1.6v53.6H28.3v-68.4c0-2,0.9-2.9,2.7-2.9h32.2c2.1,0,3.5,0.9,4.1,2.6l17.5,50.9c0.1,0.4,0.4,0.6,1,0.6h1.8
		c0.4,0,0.6-0.2,0.8-0.6l17.6-50.9c0.3-0.8,0.8-1.5,1.4-2s1.5-0.7,2.6-0.7h31.8c1.8,0,2.7,1,2.7,2.9v68.4H125.7z"/>
	<path class="st7" d="M199.8,612.2h0.7v-47.4h17.8v54.8c0,3.1-0.4,6-1.1,8.6c-0.7,2.6-2,4.8-3.7,6.6c-1.7,1.8-4,3.2-6.8,4.3
		c-2.8,1-6.3,1.5-10.4,1.5h-40.8v-15h38.1c2.5,0,4.3-0.6,5.3-1.7c1-1.1,1.5-3,1.5-5.4v-4.3h-25.4c-8,0-13.7-1.6-17-4.8
		c-3.3-3.2-5-8.1-5-14.7v-29.8h17.8v27.4c0,2.9,0.6,4.9,1.7,6c1.1,1.1,3.1,1.6,5.9,1.6H195L199.8,612.2z"/>
	<path class="st2" d="M227.5,550.2c0-2,0.9-2.9,2.7-2.9h53.5c5.3,0,9.8,0.7,13.5,2c3.7,1.3,6.7,3.2,9,5.7c2.3,2.4,3.9,5.4,5,8.9
		c1,3.5,1.6,7.4,1.6,11.7v14.7c0,4.3-0.5,8.2-1.6,11.7c-1,3.5-2.7,6.5-5,8.9c-2.3,2.4-5.3,4.3-9,5.7c-3.7,1.3-8.2,2-13.5,2h-28.8
		l-6.5-16.6h-0.8v16.6h-20.2V550.2z M247.7,600.1h34.2c3.9,0,6.6-0.8,8.2-2.5c1.6-1.7,2.4-4.7,2.4-9v-11.9c0-4.4-0.8-7.5-2.4-9.1
		c-1.6-1.6-4.4-2.4-8.2-2.4h-32.7c-0.5,0-0.8,0.1-1.1,0.4c-0.3,0.3-0.4,0.6-0.4,1V600.1z"/>
	<path class="st2" d="M320.9,556.4v-14.2h17.7v14.2H320.9z M320.9,618.6v-53.8h17.7v53.8H320.9z"/>
	<path class="st2" d="M346.9,603.5h44c1,0,1.8-0.2,2.2-0.6c0.4-0.4,0.6-1.1,0.6-2.1v-1.2c0-0.7-0.1-1.3-0.4-1.6
		c-0.3-0.4-0.8-0.6-1.6-0.6l-33.4-2.8c-4.1-0.3-7.1-1.6-9.1-3.8c-2-2.2-2.9-5.2-2.9-8.9v-4.3c0-3.9,1.1-7,3.2-9.3
		c2.2-2.3,5.7-3.4,10.6-3.4h48.5c1.6,0,2.4,0.8,2.4,2.4v12l-15.3,5.7H395v-6.2c0-0.5-0.2-0.8-0.7-0.8h-28c-1,0-1.7,0.2-2.1,0.6
		c-0.4,0.4-0.6,1-0.6,2v1.5c0,0.9,0.1,1.5,0.4,1.8c0.3,0.3,0.8,0.5,1.6,0.6l34.2,3.3c2.3,0.2,4.2,0.6,5.7,1.3
		c1.5,0.7,2.7,1.5,3.6,2.6c0.9,1.1,1.6,2.4,1.9,4c0.4,1.6,0.5,3.4,0.5,5.5v4c0,4.3-1.1,7.6-3.4,10c-2.3,2.4-6.3,3.5-12,3.5h-49.4
		V603.5z"/>
	<path class="st2" d="M437.9,587.9h-0.7v8.3c0,3.1,0.5,5.2,1.6,6.3c1,1.1,3,1.7,5.9,1.7h38.3v14.3h-41.6c-4,0-7.4-0.5-10.1-1.5
		c-2.8-1-5-2.4-6.8-4.3c-1.8-1.9-3-4.1-3.8-6.7c-0.8-2.6-1.2-5.5-1.2-8.8v-11.1c0-3.3,0.4-6.2,1.2-8.8c0.8-2.6,2.1-4.8,3.8-6.7
		c1.8-1.9,4-3.3,6.8-4.3c2.8-1,6.2-1.5,10.1-1.5h31c4.1,0,7,1.1,8.8,3.2c1.8,2.1,2.6,5.4,2.6,9.9v5.2c0,4-0.9,7.2-2.6,9.5
		c-1.8,2.4-4.7,3.5-8.8,3.5h-31.4L437.9,587.9z M437.2,585.3h27c2,0,3-1,3-3.1v-2c0-1.1-0.2-1.9-0.7-2.4c-0.5-0.5-1.3-0.7-2.3-0.7
		h-19.6c-2.7,0-4.7,0.6-5.8,1.7c-1.1,1.1-1.7,3.2-1.7,6.1V585.3z"/>
	<path class="st2" d="M491.1,578.1v-13.3h49.9c3.5,0,6.1,1,7.8,2.9c1.7,2,2.5,4.8,2.5,8.5v40c0,1.6-0.8,2.4-2.3,2.4h-46.9
		c-2,0-3.7-0.2-5.2-0.7c-1.5-0.5-2.8-1.3-3.9-2.5c-1.1-1.2-1.9-2.7-2.5-4.7c-0.6-1.9-0.8-4.3-0.8-7.2v-4c0-5.1,1.1-8.7,3.3-10.9
		c2.2-2.2,5.2-3.3,9.2-3.3h27.3l3.3,7.9h0.7v-10.9c0-1.5-0.3-2.6-0.9-3.2c-0.6-0.7-1.6-1-2.8-1H491.1z M532.5,605.3
		c0.7,0,1.1-0.4,1.1-1.2v-8.2h-23.3c-1.2,0-2,0.3-2.5,0.9c-0.5,0.6-0.7,1.5-0.7,2.6v2.4c0,1.1,0.2,2,0.7,2.6
		c0.5,0.6,1.3,0.9,2.5,0.9H532.5z"/>
	<path class="st2" d="M559.1,603.5h44c1,0,1.8-0.2,2.2-0.6c0.4-0.4,0.6-1.1,0.6-2.1v-1.2c0-0.7-0.1-1.3-0.4-1.6
		c-0.3-0.4-0.8-0.6-1.6-0.6l-33.4-2.8c-4.1-0.3-7.1-1.6-9.1-3.8c-2-2.2-2.9-5.2-2.9-8.9v-4.3c0-3.9,1.1-7,3.2-9.3
		c2.2-2.3,5.7-3.4,10.6-3.4h48.5c1.6,0,2.4,0.8,2.4,2.4v12l-15.3,5.7h-0.7v-6.2c0-0.5-0.2-0.8-0.7-0.8h-28c-1,0-1.7,0.2-2.1,0.6
		c-0.4,0.4-0.6,1-0.6,2v1.5c0,0.9,0.1,1.5,0.4,1.8c0.3,0.3,0.8,0.5,1.6,0.6l34.2,3.3c2.3,0.2,4.2,0.6,5.7,1.3
		c1.5,0.7,2.7,1.5,3.6,2.6c0.9,1.1,1.6,2.4,1.9,4c0.4,1.6,0.5,3.4,0.5,5.5v4c0,4.3-1.1,7.6-3.4,10s-6.3,3.5-12,3.5h-49.4V603.5z"/>
	<path class="st2" d="M650.1,587.9h-0.7v8.3c0,3.1,0.5,5.2,1.6,6.3s3,1.7,5.9,1.7h38.3v14.3h-41.6c-4,0-7.4-0.5-10.1-1.5
		c-2.8-1-5-2.4-6.8-4.3c-1.8-1.9-3-4.1-3.8-6.7c-0.8-2.6-1.2-5.5-1.2-8.8v-11.1c0-3.3,0.4-6.2,1.2-8.8c0.8-2.6,2.1-4.8,3.8-6.7
		c1.8-1.9,4-3.3,6.8-4.3c2.8-1,6.2-1.5,10.1-1.5h31c4.1,0,7,1.1,8.8,3.2c1.8,2.1,2.6,5.4,2.6,9.9v5.2c0,4-0.9,7.2-2.6,9.5
		c-1.8,2.4-4.7,3.5-8.8,3.5h-31.4L650.1,587.9z M649.4,585.3h27c2,0,3-1,3-3.1v-2c0-1.1-0.2-1.9-0.7-2.4c-0.5-0.5-1.3-0.7-2.3-0.7
		h-19.6c-2.7,0-4.7,0.6-5.8,1.7c-1.1,1.1-1.7,3.2-1.7,6.1V585.3z"/>
	<path class="st7" d="M703.6,618.6v-16.3h17.7v16.3H703.6z"/>
	<path class="st7" d="M730.4,556.4v-14.2h17.7v14.2H730.4z M730.4,618.6v-53.8h17.7v53.8H730.4z"/>
	<path class="st7" d="M757.2,564.8h43.9c4,0,7.4,0.5,10.2,1.5c2.8,1,5.1,2.4,6.8,4.3c1.7,1.9,3,4.1,3.8,6.7c0.8,2.6,1.2,5.5,1.2,8.8
		v32.4h-17.7v-31.2c0-3.1-0.6-5.3-1.8-6.6c-1.2-1.2-3.1-1.9-5.8-1.9h-19.2l-2.9-7.8H775v47.5h-17.7V564.8z"/>
	<path class="st7" d="M870,578.3h-15.7v40.3h-17.7v-40.3h-7.2l-4.7-12.7v-0.8h11.9v-6.5c0-3.2,0.3-5.8,1-7.9
		c0.6-2.1,1.7-3.7,3.3-4.9c1.5-1.2,3.6-2.1,6.1-2.6c2.5-0.5,5.6-0.7,9.4-0.7h7.9l4.8,12v0.9h-10.4c-1.7,0-2.8,0.4-3.4,1.1
		c-0.6,0.8-0.9,2-0.9,3.8v4.8H870V578.3z"/>
	<path class="st7" d="M943.7,597.2c0,3.3-0.4,6.2-1.2,8.8c-0.8,2.6-2.1,4.8-3.8,6.7c-1.8,1.9-4,3.3-6.9,4.3c-2.8,1-6.2,1.5-10.2,1.5
		h-25.9c-4,0-7.4-0.5-10.1-1.5c-2.8-1-5-2.4-6.8-4.3c-1.8-1.9-3-4.1-3.8-6.7c-0.8-2.6-1.2-5.5-1.2-8.8v-11.1c0-3.2,0.4-6.1,1.2-8.8
		c0.8-2.6,2.1-4.9,3.8-6.8c1.8-1.9,4-3.3,6.8-4.3c2.8-1,6.2-1.5,10.1-1.5h25.9c4,0,7.4,0.5,10.2,1.5c2.8,1,5.1,2.4,6.9,4.3
		c1.8,1.9,3,4.1,3.8,6.8c0.8,2.6,1.2,5.6,1.2,8.8V597.2z M918.4,602.8c2.8,0,4.8-0.6,5.9-1.7c1.1-1.1,1.7-3.2,1.7-6.3v-7.5
		c0-3.3-0.6-5.5-1.7-6.7c-1.1-1.2-3.1-1.8-5.8-1.8h-19.3c-2.8,0-4.8,0.6-5.8,1.8c-1.1,1.2-1.6,3.4-1.6,6.6v7.5
		c0,3.1,0.5,5.2,1.6,6.3c1.1,1.1,3,1.7,5.8,1.7H918.4z"/>
</g>
</svg>
