<?xml version="1.0" encoding="utf-8"?>
<!-- Generator: Adobe Illustrator 24.2.1, SVG Export Plug-In . SVG Version: 6.00 Build 0)  -->
<svg version="1.1" id="Layer_1" xmlns="http://www.w3.org/2000/svg" xmlns:xlink="http://www.w3.org/1999/xlink" x="0px" y="0px"
	 viewBox="0 0 279.7 29.3" style="enable-background:new 0 0 279.7 29.3;" xml:space="preserve">
<style type="text/css">
	.st0{fill:#F7F7F7;}
	.st1{fill:#A267E5;}
</style>
<g>
	<path class="st0" d="M37.4,22.4V7.1c0-0.3-0.1-0.4-0.4-0.4h-0.3c-0.2,0-0.4,0.1-0.5,0.4l-5.5,14.7c-0.1,0.3-0.2,0.4-0.4,0.5
		c-0.2,0.1-0.4,0.1-0.7,0.1H23c-0.3,0-0.6,0-0.7-0.1c-0.2-0.1-0.3-0.3-0.4-0.5L16.4,7.1c-0.1-0.2-0.3-0.4-0.5-0.4h-0.3
		c-0.3,0-0.4,0.1-0.4,0.4v15.2H9.8V2.9c0-0.6,0.3-0.8,0.8-0.8h9.2c0.6,0,1,0.3,1.2,0.8l5,14.5c0,0.1,0.1,0.2,0.3,0.2h0.5
		c0.1,0,0.2-0.1,0.2-0.2l5-14.5c0.1-0.2,0.2-0.4,0.4-0.6c0.2-0.1,0.4-0.2,0.7-0.2h9c0.5,0,0.8,0.3,0.8,0.8v19.4H37.4z"/>
	<path class="st0" d="M58.5,20.6h0.2V7.1h5.1v15.6c0,0.9-0.1,1.7-0.3,2.4c-0.2,0.7-0.6,1.4-1,1.9c-0.5,0.5-1.1,0.9-1.9,1.2
		c-0.8,0.3-1.8,0.4-3,0.4H45.9v-4.3h10.8c0.7,0,1.2-0.2,1.5-0.5c0.3-0.3,0.4-0.8,0.4-1.5v-1.2h-7.2c-2.3,0-3.9-0.5-4.8-1.4
		c-0.9-0.9-1.4-2.3-1.4-4.2V7.1h5.1v7.8c0,0.8,0.2,1.4,0.5,1.7c0.3,0.3,0.9,0.5,1.7,0.5h4.7L58.5,20.6z"/>
	<path class="st1" d="M66.4,2.9c0-0.6,0.3-0.8,0.8-0.8h15.2c1.5,0,2.8,0.2,3.8,0.6c1.1,0.4,1.9,0.9,2.6,1.6c0.6,0.7,1.1,1.5,1.4,2.5
		c0.3,1,0.4,2.1,0.4,3.3v4.2c0,1.2-0.1,2.3-0.4,3.3c-0.3,1-0.8,1.8-1.4,2.5c-0.7,0.7-1.5,1.2-2.6,1.6c-1.1,0.4-2.3,0.6-3.8,0.6h-8.2
		l-1.8-4.7h-0.2v4.7h-5.7V2.9z M72.1,17.1h9.7c1.1,0,1.9-0.2,2.3-0.7c0.5-0.5,0.7-1.3,0.7-2.6v-3.4c0-1.3-0.2-2.1-0.7-2.6
		c-0.5-0.5-1.2-0.7-2.3-0.7h-9.3c-0.1,0-0.2,0-0.3,0.1c-0.1,0.1-0.1,0.2-0.1,0.3V17.1z"/>
	<path class="st1" d="M92.9,4.7v-4h5v4H92.9z M92.9,22.4V7.1h5v15.3H92.9z"/>
	<path class="st1" d="M100.3,18.1h12.5c0.3,0,0.5-0.1,0.6-0.2c0.1-0.1,0.2-0.3,0.2-0.6V17c0-0.2,0-0.4-0.1-0.5
		c-0.1-0.1-0.2-0.2-0.4-0.2l-9.5-0.8c-1.2-0.1-2-0.5-2.6-1.1c-0.6-0.6-0.8-1.5-0.8-2.5v-1.2c0-1.1,0.3-2,0.9-2.6c0.6-0.6,1.6-1,3-1
		h13.8c0.5,0,0.7,0.2,0.7,0.7v3.4l-4.3,1.6H114v-1.8c0-0.1-0.1-0.2-0.2-0.2h-8c-0.3,0-0.5,0.1-0.6,0.2c-0.1,0.1-0.2,0.3-0.2,0.6V12
		c0,0.3,0,0.4,0.1,0.5c0.1,0.1,0.2,0.1,0.5,0.2l9.7,0.9c0.6,0.1,1.2,0.2,1.6,0.4c0.4,0.2,0.8,0.4,1,0.7c0.3,0.3,0.4,0.7,0.5,1.1
		c0.1,0.4,0.2,1,0.2,1.6v1.1c0,1.2-0.3,2.2-1,2.8c-0.6,0.7-1.8,1-3.4,1h-14V18.1z"/>
	<path class="st1" d="M126.2,13.7H126V16c0,0.9,0.1,1.5,0.4,1.8c0.3,0.3,0.9,0.5,1.7,0.5H139v4.1h-11.8c-1.1,0-2.1-0.1-2.9-0.4
		c-0.8-0.3-1.4-0.7-1.9-1.2c-0.5-0.5-0.9-1.2-1.1-1.9c-0.2-0.7-0.3-1.6-0.3-2.5v-3.1c0-0.9,0.1-1.8,0.3-2.5c0.2-0.7,0.6-1.4,1.1-1.9
		c0.5-0.5,1.1-0.9,1.9-1.2c0.8-0.3,1.7-0.4,2.9-0.4h8.8c1.2,0,2,0.3,2.5,0.9c0.5,0.6,0.8,1.5,0.8,2.8v1.5c0,1.1-0.3,2-0.8,2.7
		c-0.5,0.7-1.3,1-2.5,1H127L126.2,13.7z M126,12.9h7.7c0.6,0,0.9-0.3,0.9-0.9v-0.6c0-0.3-0.1-0.5-0.2-0.7c-0.1-0.1-0.4-0.2-0.7-0.2
		h-5.6c-0.8,0-1.3,0.2-1.6,0.5C126.1,11.4,126,12,126,12.9L126,12.9z"/>
	<path class="st1" d="M141.3,10.9V7.1h14.2c1,0,1.7,0.3,2.2,0.8c0.5,0.6,0.7,1.4,0.7,2.4v11.4c0,0.4-0.2,0.7-0.6,0.7h-13.3
		c-0.6,0-1.1-0.1-1.5-0.2c-0.4-0.1-0.8-0.4-1.1-0.7c-0.3-0.3-0.5-0.8-0.7-1.3c-0.2-0.5-0.2-1.2-0.2-2v-1.1c0-1.4,0.3-2.5,0.9-3.1
		c0.6-0.6,1.5-0.9,2.6-0.9h7.8l0.9,2.3h0.2v-3.1c0-0.4-0.1-0.7-0.3-0.9c-0.2-0.2-0.4-0.3-0.8-0.3H141.3z M153.1,18.6
		c0.2,0,0.3-0.1,0.3-0.3v-2.3h-6.6c-0.3,0-0.6,0.1-0.7,0.3c-0.1,0.2-0.2,0.4-0.2,0.8v0.7c0,0.3,0.1,0.6,0.2,0.7
		c0.1,0.2,0.4,0.3,0.7,0.3H153.1z"/>
	<path class="st1" d="M160.6,18.1h12.5c0.3,0,0.5-0.1,0.6-0.2c0.1-0.1,0.2-0.3,0.2-0.6V17c0-0.2,0-0.4-0.1-0.5
		c-0.1-0.1-0.2-0.2-0.4-0.2l-9.5-0.8c-1.2-0.1-2-0.5-2.6-1.1c-0.6-0.6-0.8-1.5-0.8-2.5v-1.2c0-1.1,0.3-2,0.9-2.6c0.6-0.6,1.6-1,3-1
		h13.8c0.5,0,0.7,0.2,0.7,0.7v3.4l-4.3,1.6h-0.2v-1.8c0-0.1-0.1-0.2-0.2-0.2h-8c-0.3,0-0.5,0.1-0.6,0.2c-0.1,0.1-0.2,0.3-0.2,0.6V12
		c0,0.3,0,0.4,0.1,0.5c0.1,0.1,0.2,0.1,0.5,0.2l9.7,0.9c0.6,0.1,1.2,0.2,1.6,0.4c0.4,0.2,0.8,0.4,1,0.7c0.3,0.3,0.4,0.7,0.5,1.1
		c0.1,0.4,0.2,1,0.2,1.6v1.1c0,1.2-0.3,2.2-1,2.8c-0.6,0.7-1.8,1-3.4,1h-14V18.1z"/>
	<path class="st1" d="M186.5,13.7h-0.2V16c0,0.9,0.1,1.5,0.4,1.8c0.3,0.3,0.9,0.5,1.7,0.5h10.9v4.1h-11.8c-1.1,0-2.1-0.1-2.9-0.4
		c-0.8-0.3-1.4-0.7-1.9-1.2c-0.5-0.5-0.9-1.2-1.1-1.9c-0.2-0.7-0.3-1.6-0.3-2.5v-3.1c0-0.9,0.1-1.8,0.3-2.5c0.2-0.7,0.6-1.4,1.1-1.9
		c0.5-0.5,1.1-0.9,1.9-1.2c0.8-0.3,1.7-0.4,2.9-0.4h8.8c1.2,0,2,0.3,2.5,0.9c0.5,0.6,0.8,1.5,0.8,2.8v1.5c0,1.1-0.3,2-0.8,2.7
		c-0.5,0.7-1.3,1-2.5,1h-8.9L186.5,13.7z M186.3,12.9h7.7c0.6,0,0.9-0.3,0.9-0.9v-0.6c0-0.3-0.1-0.5-0.2-0.7
		c-0.1-0.1-0.4-0.2-0.7-0.2h-5.6c-0.8,0-1.3,0.2-1.6,0.5C186.4,11.4,186.3,12,186.3,12.9L186.3,12.9z"/>
	<path class="st0" d="M201.7,22.4v-4.6h5v4.6H201.7z"/>
	<path class="st0" d="M209.3,4.7v-4h5v4H209.3z M209.3,22.4V7.1h5v15.3H209.3z"/>
	<path class="st0" d="M216.9,7.1h12.5c1.1,0,2.1,0.1,2.9,0.4c0.8,0.3,1.4,0.7,1.9,1.2c0.5,0.5,0.8,1.2,1.1,1.9
		c0.2,0.7,0.3,1.6,0.3,2.5v9.2h-5v-8.9c0-0.9-0.2-1.5-0.5-1.9c-0.3-0.4-0.9-0.5-1.6-0.5H223l-0.8-2.2H222v13.5h-5V7.1z"/>
	<path class="st0" d="M249,10.9h-4.5v11.4h-5V10.9h-2.1l-1.3-3.6V7.1h3.4V5.3c0-0.9,0.1-1.7,0.3-2.2c0.2-0.6,0.5-1.1,0.9-1.4
		c0.4-0.4,1-0.6,1.7-0.7c0.7-0.1,1.6-0.2,2.7-0.2h2.3l1.4,3.4v0.3h-3c-0.5,0-0.8,0.1-1,0.3c-0.2,0.2-0.3,0.6-0.3,1.1v1.4h4.5V10.9z"
		/>
	<path class="st0" d="M269.9,16.3c0,0.9-0.1,1.8-0.3,2.5c-0.2,0.7-0.6,1.4-1.1,1.9c-0.5,0.5-1.2,0.9-1.9,1.2
		c-0.8,0.3-1.8,0.4-2.9,0.4h-7.3c-1.1,0-2.1-0.1-2.9-0.4c-0.8-0.3-1.4-0.7-1.9-1.2c-0.5-0.5-0.9-1.2-1.1-1.9
		c-0.2-0.7-0.3-1.6-0.3-2.5v-3.1c0-0.9,0.1-1.7,0.3-2.5c0.2-0.8,0.6-1.4,1.1-1.9c0.5-0.5,1.1-0.9,1.9-1.2c0.8-0.3,1.7-0.4,2.9-0.4
		h7.3c1.1,0,2.1,0.1,2.9,0.4c0.8,0.3,1.4,0.7,1.9,1.2c0.5,0.5,0.9,1.2,1.1,1.9c0.2,0.8,0.3,1.6,0.3,2.5V16.3z M262.8,17.9
		c0.8,0,1.4-0.2,1.7-0.5c0.3-0.3,0.5-0.9,0.5-1.8v-2.1c0-0.9-0.2-1.6-0.5-1.9c-0.3-0.3-0.9-0.5-1.7-0.5h-5.5c-0.8,0-1.4,0.2-1.7,0.5
		c-0.3,0.3-0.5,1-0.5,1.9v2.1c0,0.9,0.2,1.5,0.5,1.8c0.3,0.3,0.9,0.5,1.7,0.5H262.8z"/>
</g>
</svg>
