<?xml version="1.0" encoding="utf-8"?>
<!-- Generator: Adobe Illustrator 24.2.1, SVG Export Plug-In . SVG Version: 6.00 Build 0)  -->
<svg version="1.1" id="Layer_1" xmlns="http://www.w3.org/2000/svg" xmlns:xlink="http://www.w3.org/1999/xlink" x="0px" y="0px"
	 viewBox="0 0 200 200" style="enable-background:new 0 0 200 200;" xml:space="preserve">
<style type="text/css">
	.st0{fill:#B3B3B3;}
	.st1{fill:#E6E6E6;}
	.st2{fill:#808080;}
	.st3{fill:#772FDD;}
	.st4{fill:url(#SVGID_1_);}
	.st5{fill:none;stroke:#B280F9;stroke-linejoin:round;stroke-miterlimit:10;}
	.st6{fill:#A267E5;}
	.st7{fill:url(#SVGID_2_);}
	.st8{fill:none;stroke:#BF92FF;stroke-linejoin:round;stroke-miterlimit:10;}
	.st9{fill:#4B1499;stroke:#B280F9;stroke-miterlimit:10;}
	.st10{fill:url(#SVGID_3_);}
	.st11{fill:url(#SVGID_4_);}
	.st12{fill:url(#SVGID_5_);}
	.st13{fill:url(#SVGID_6_);}
	.st14{fill:url(#SVGID_7_);}
	.st15{fill:url(#SVGID_8_);}
</style>
<g>
	<g>
		<polygon class="st0" points="62.1,99.3 40,131.6 8.8,131.6 31,99.3 		"/>
	</g>
	<g>
		<polygon class="st1" points="62.1,99.3 84.6,131.6 62.1,164 40,131.6 		"/>
	</g>
	<g>
		<polygon class="st2" points="40,131.6 62.1,164 31,164 8.8,131.6 		"/>
	</g>
</g>
<g>
	<g>
		<polygon class="st0" points="115.4,67.9 93.3,100.2 62.1,100.2 84.3,67.9 		"/>
	</g>
	<g>
		<polygon class="st1" points="115.4,67.9 137.9,100.2 115.4,132.5 93.3,100.2 		"/>
	</g>
	<g>
		<polygon class="st2" points="93.3,100.2 115.4,132.5 84.3,132.5 62.1,100.2 		"/>
	</g>
</g>
<g>
	<g>
		<polygon class="st0" points="62.1,35 40,67.3 8.8,67.3 31,35 		"/>
	</g>
	<g>
		<polygon class="st1" points="62.1,35 84.6,67.3 62.1,99.7 40,67.3 		"/>
	</g>
	<g>
		<polygon class="st2" points="40,67.3 62.1,99.7 31,99.7 8.8,67.3 		"/>
	</g>
</g>
<g>
	<g>
		<g>
			<polygon class="st3" points="115.6,3.2 93.4,35.5 62.3,35.5 84.4,3.2 			"/>
		</g>
		<g>
			
				<linearGradient id="SVGID_1_" gradientUnits="userSpaceOnUse" x1="225.994" y1="125.781" x2="253.3052" y2="173.0856" gradientTransform="matrix(1 0 0 -1 -150.6996 168.7833)">
				<stop  offset="0" style="stop-color:#2ADEFF;stop-opacity:0"/>
				<stop  offset="4.119969e-03" style="stop-color:#FFFFFF;stop-opacity:0"/>
				<stop  offset="0.4604" style="stop-color:#F5FEFF;stop-opacity:0.3611"/>
				<stop  offset="0.51" style="stop-color:#FFFFFF;stop-opacity:0.4"/>
				<stop  offset="0.5152" style="stop-color:#FFFFFF;stop-opacity:0"/>
			</linearGradient>
			<polygon class="st4" points="115.6,3.2 93.4,35.5 62.3,35.5 84.4,3.2 			"/>
		</g>
		<g>
			<polygon class="st5" points="115.6,3.2 93.4,35.5 62.3,35.5 84.4,3.2 			"/>
		</g>
	</g>
	<g>
		<g>
			<polygon class="st6" points="115.6,3.2 138,35.5 115.6,67.9 93.4,35.5 			"/>
		</g>
		<g>
			
				<linearGradient id="SVGID_2_" gradientUnits="userSpaceOnUse" x1="266.3996" y1="100.8833" x2="266.3996" y2="165.5833" gradientTransform="matrix(1 0 0 -1 -150.6996 168.7833)">
				<stop  offset="0" style="stop-color:#FFFFFF;stop-opacity:0"/>
				<stop  offset="0.8587" style="stop-color:#FFFFFF;stop-opacity:0.8587"/>
				<stop  offset="1" style="stop-color:#FFFFFF"/>
			</linearGradient>
			<polygon class="st7" points="115.6,3.2 138,35.5 115.6,67.9 93.4,35.5 			"/>
		</g>
		<g>
			<polygon class="st8" points="115.6,3.2 138,35.5 115.6,67.9 93.4,35.5 			"/>
		</g>
	</g>
	<g>
		<polygon class="st9" points="93.4,35.5 115.6,67.9 84.4,67.9 62.3,35.5 		"/>
	</g>
</g>
<g>
	<g>
		<g>
			<polygon class="st3" points="168.6,35.5 146.4,67.8 115.3,67.8 137.4,35.5 			"/>
		</g>
		<g>
			
				<linearGradient id="SVGID_3_" gradientUnits="userSpaceOnUse" x1="278.994" y1="93.431" x2="306.3052" y2="140.7356" gradientTransform="matrix(1 0 0 -1 -150.6996 168.7833)">
				<stop  offset="0" style="stop-color:#2ADEFF;stop-opacity:0"/>
				<stop  offset="4.119969e-03" style="stop-color:#FFFFFF;stop-opacity:0"/>
				<stop  offset="0.4604" style="stop-color:#F5FEFF;stop-opacity:0.3611"/>
				<stop  offset="0.51" style="stop-color:#FFFFFF;stop-opacity:0.4"/>
				<stop  offset="0.5152" style="stop-color:#FFFFFF;stop-opacity:0"/>
			</linearGradient>
			<polygon class="st10" points="168.6,35.5 146.4,67.8 115.3,67.8 137.4,35.5 			"/>
		</g>
		<g>
			<polygon class="st5" points="168.6,35.5 146.4,67.8 115.3,67.8 137.4,35.5 			"/>
		</g>
	</g>
	<g>
		<g>
			<polygon class="st6" points="168.6,35.5 191,67.8 168.6,100.2 146.4,67.8 			"/>
		</g>
		<g>
			
				<linearGradient id="SVGID_4_" gradientUnits="userSpaceOnUse" x1="319.3996" y1="68.5333" x2="319.3996" y2="133.2333" gradientTransform="matrix(1 0 0 -1 -150.6996 168.7833)">
				<stop  offset="0" style="stop-color:#FFFFFF;stop-opacity:0"/>
				<stop  offset="0.8587" style="stop-color:#FFFFFF;stop-opacity:0.8587"/>
				<stop  offset="1" style="stop-color:#FFFFFF"/>
			</linearGradient>
			<polygon class="st11" points="168.6,35.5 191,67.8 168.6,100.2 146.4,67.8 			"/>
		</g>
		<g>
			<polygon class="st8" points="168.6,35.5 191,67.8 168.6,100.2 146.4,67.8 			"/>
		</g>
	</g>
	<g>
		<polygon class="st9" points="146.4,67.8 168.6,100.2 137.4,100.2 115.3,67.8 		"/>
	</g>
</g>
<g>
	<g>
		<g>
			<polygon class="st3" points="168.6,99.3 146.4,131.6 115.3,131.6 137.4,99.3 			"/>
		</g>
		<g>
			
				<linearGradient id="SVGID_5_" gradientUnits="userSpaceOnUse" x1="278.994" y1="29.731" x2="306.3052" y2="77.0356" gradientTransform="matrix(1 0 0 -1 -150.6996 168.7833)">
				<stop  offset="0" style="stop-color:#2ADEFF;stop-opacity:0"/>
				<stop  offset="4.119969e-03" style="stop-color:#FFFFFF;stop-opacity:0"/>
				<stop  offset="0.4604" style="stop-color:#F5FEFF;stop-opacity:0.3611"/>
				<stop  offset="0.51" style="stop-color:#FFFFFF;stop-opacity:0.4"/>
				<stop  offset="0.5152" style="stop-color:#FFFFFF;stop-opacity:0"/>
			</linearGradient>
			<polygon class="st12" points="168.6,99.3 146.4,131.6 115.3,131.6 137.4,99.3 			"/>
		</g>
		<g>
			<polygon class="st5" points="168.6,99.3 146.4,131.6 115.3,131.6 137.4,99.3 			"/>
		</g>
	</g>
	<g>
		<g>
			<polygon class="st6" points="168.6,99.3 191,131.6 168.6,164 146.4,131.6 			"/>
		</g>
		<g>
			
				<linearGradient id="SVGID_6_" gradientUnits="userSpaceOnUse" x1="319.3996" y1="4.8333" x2="319.3996" y2="69.5333" gradientTransform="matrix(1 0 0 -1 -150.6996 168.7833)">
				<stop  offset="0" style="stop-color:#FFFFFF;stop-opacity:0"/>
				<stop  offset="0.8587" style="stop-color:#FFFFFF;stop-opacity:0.8587"/>
				<stop  offset="1" style="stop-color:#FFFFFF"/>
			</linearGradient>
			<polygon class="st13" points="168.6,99.3 191,131.6 168.6,164 146.4,131.6 			"/>
		</g>
		<g>
			<polygon class="st8" points="168.6,99.3 191,131.6 168.6,164 146.4,131.6 			"/>
		</g>
	</g>
	<g>
		<polygon class="st9" points="146.4,131.6 168.6,164 137.4,164 115.3,131.6 		"/>
	</g>
</g>
<g>
	<g>
		<g>
			<polygon class="st3" points="115.4,131.6 93.2,163.9 62.2,163.9 84.2,131.6 			"/>
		</g>
		<g>
			
				<linearGradient id="SVGID_7_" gradientUnits="userSpaceOnUse" x1="225.8439" y1="-2.619" x2="253.1552" y2="44.6856" gradientTransform="matrix(1 0 0 -1 -150.6996 168.7833)">
				<stop  offset="0" style="stop-color:#2ADEFF;stop-opacity:0"/>
				<stop  offset="4.119969e-03" style="stop-color:#FFFFFF;stop-opacity:0"/>
				<stop  offset="0.4604" style="stop-color:#F5FEFF;stop-opacity:0.3611"/>
				<stop  offset="0.51" style="stop-color:#FFFFFF;stop-opacity:0.4"/>
				<stop  offset="0.5152" style="stop-color:#FFFFFF;stop-opacity:0"/>
			</linearGradient>
			<polygon class="st14" points="115.4,131.6 93.2,163.9 62.2,163.9 84.2,131.6 			"/>
		</g>
		<g>
			<polygon class="st5" points="115.4,131.6 93.2,163.9 62.2,163.9 84.2,131.6 			"/>
		</g>
	</g>
	<g>
		<g>
			<polygon class="st6" points="115.4,131.6 137.9,163.9 115.4,196.3 93.2,163.9 			"/>
		</g>
		<g>
			
				<linearGradient id="SVGID_8_" gradientUnits="userSpaceOnUse" x1="266.2496" y1="-27.5167" x2="266.2496" y2="37.1833" gradientTransform="matrix(1 0 0 -1 -150.6996 168.7833)">
				<stop  offset="0" style="stop-color:#FFFFFF;stop-opacity:0"/>
				<stop  offset="0.8587" style="stop-color:#FFFFFF;stop-opacity:0.8587"/>
				<stop  offset="1" style="stop-color:#FFFFFF"/>
			</linearGradient>
			<polygon class="st15" points="115.4,131.6 137.9,163.9 115.4,196.3 93.2,163.9 			"/>
		</g>
		<g>
			<polygon class="st8" points="115.4,131.6 137.9,163.9 115.4,196.3 93.2,163.9 			"/>
		</g>
	</g>
	<g>
		<polygon class="st9" points="93.2,163.9 115.4,196.3 84.2,196.3 62.2,163.9 		"/>
	</g>
</g>
</svg>
