<?xml version="1.0" encoding="utf-8"?>
<!-- Generator: Adobe Illustrator 22.1.0, SVG Export Plug-In . SVG Version: 6.00 Build 0)  -->
<svg version="1.1" id="Layer_1" xmlns="http://www.w3.org/2000/svg" xmlns:xlink="http://www.w3.org/1999/xlink" x="0px" y="0px"
	 viewBox="0 0 279.7 29.3" style="enable-background:new 0 0 279.7 29.3;" xml:space="preserve">
<style type="text/css">
	.st0{fill:#F7F7F7;}
	.st1{fill:#669BE8;}
</style>
<g>
	<path class="st0" d="M54.2,24.7h-7.6V13.2l-5.1,11.5h-5.9l-5.4-11.5v11.5h-7.6V4.6H32l6.7,14.6l6.9-14.6h8.6V24.7z"/>
	<path class="st0" d="M69.8,18.3V9.2h6.5v19.5H58.4v-4h11.4v-2.3H62l-3.7-3.1V9.2h6.5v9.1H69.8z"/>
	<path class="st1" d="M107.6,24.7H80.3v-17l6.2-3.1h20.9v4.6H89.6V20h10.1V17h-7v-4.6h14.9V24.7z"/>
	<path class="st1" d="M131.2,24.7h-19.6V12.3l3.7-3.1h12.4l3.7,3.1V18h-12.4v2h12.1V24.7z M125.3,15.4v-1.9h-6.2v1.9H125.3z"/>
	<path class="st1" d="M155.4,24.7h-6.2V13.5h-7.4v11.2h-6.2V12.3l3.7-3.1h12.4l3.7,3.1V24.7z"/>
	<path class="st1" d="M179,24.7h-19.6V12.3l3.7-3.1h12.4l3.7,3.1V18h-12.4v2H179V24.7z M173.1,15.4v-1.9h-6.2v1.9H173.1z"/>
	<path class="st0" d="M188.1,24.7h-4.7V20h4.7V24.7z"/>
	<path class="st0" d="M198.8,7h-6.5V3.9h6.5V7z M198.8,24.7h-6.5V9.2h6.5V24.7z"/>
	<path class="st0" d="M222.7,24.7h-6.2V13.5h-7.4v11.2h-6.2V12.3l3.7-3.1H219l3.7,3.1V24.7z"/>
	<path class="st0" d="M235.3,7.7h-2v1.5h2V12h-2v12.7h-6.5V12H225V9.2h1.7V6.1l3.7-3.1h4.8V7.7z"/>
	<path class="st0" d="M257.2,24.7h-20V12.3l3.7-3.1h12.1l4.1,3.1L257.2,24.7z M250.9,20v-6.5h-7.4V20H250.9z"/>
</g>
</svg>
