<?xml version="1.0" encoding="UTF-8"?>
<svg id="Layer_1" xmlns="http://www.w3.org/2000/svg" version="1.1" viewBox="0 0 279.7 29.3">
  <!-- Generator: Adobe Illustrator 30.1.0, SVG Export Plug-In . SVG Version: 2.1.1 Build 136)  -->
  <defs>
    <style>
      .st0 {
        fill: #5046e4;
      }

      .st1 {
        isolation: isolate;
      }

      .st2 {
        fill: #f7f7f7;
      }
    </style>
  </defs>
  <g class="st1">
    <path class="st2" d="M57.3,22.9v-12.3c0-.2-.1-.4-.3-.4h-.2c-.2,0-.3,0-.4.3l-4.5,11.9c0,.2-.2.4-.3.4-.1,0-.3.1-.6.1h-5.3c-.2,0-.4,0-.6-.1s-.2-.2-.3-.4l-4.5-11.9c0-.2-.2-.3-.4-.3h-.2c-.2,0-.4.1-.4.4v12.3h-4.4V7.1c0-.4.2-.7.6-.7h7.4c.5,0,.8.2.9.6l4,11.7c0,0,0,.1.2.1h.4c0,0,.2,0,.2-.1l4.1-11.7c0-.2.2-.3.3-.4.1-.1.3-.2.6-.2h7.3c.4,0,.6.2.6.7v15.8h-4.4Z"/>
    <path class="st2" d="M74.4,21.4h.2v-10.9h4.1v12.7c0,.7,0,1.4-.3,2-.2.6-.4,1.1-.8,1.5-.4.4-.9.7-1.6,1-.6.2-1.5.4-2.4.4h-9.4v-3.5h8.8c.6,0,1-.1,1.2-.4s.4-.7.4-1.3v-1h-5.9c-1.9,0-3.2-.4-3.9-1.1-.8-.7-1.2-1.9-1.2-3.4v-6.9h4.1v6.3c0,.7.1,1.1.4,1.4.2.2.7.4,1.4.4h3.8l1.1,2.8Z"/>
  </g>
  <g class="st1">
    <path class="st2" d="M188.2,22.7v-3.8h4.1v3.8h-4.1Z"/>
    <path class="st2" d="M194.4,8.3v-3.3h4.1v3.3h-4.1ZM194.4,22.7v-12.4h4.1v12.4h-4.1Z"/>
    <path class="st2" d="M200.6,10.3h10.1c.9,0,1.7.1,2.3.4.6.2,1.2.6,1.6,1s.7.9.9,1.5c.2.6.3,1.3.3,2v7.5h-4.1v-7.2c0-.7-.1-1.2-.4-1.5s-.7-.4-1.3-.4h-4.4l-.7-1.8h-.2v11h-4.1v-12.4h0Z"/>
    <path class="st2" d="M226.6,13.4h-3.6v9.3h-4.1v-9.3h-1.7l-1.1-2.9v-.2h2.7v-1.5c0-.7,0-1.3.2-1.8s.4-.8.8-1.1c.4-.3.8-.5,1.4-.6s1.3-.2,2.1-.2h1.8l1.1,2.8v.2h-2.4c-.4,0-.6,0-.8.3s-.2.5-.2.9v1.1h3.6v3.1h0Z"/>
    <path class="st2" d="M243.6,17.8c0,.8,0,1.4-.3,2-.2.6-.5,1.1-.9,1.5-.4.4-.9.8-1.6,1-.6.2-1.4.4-2.3.4h-6c-.9,0-1.7-.1-2.3-.4-.6-.2-1.2-.6-1.6-1s-.7-.9-.9-1.5c-.2-.6-.3-1.3-.3-2v-2.5c0-.7,0-1.4.3-2s.5-1.1.9-1.6c.4-.4.9-.8,1.6-1,.6-.2,1.4-.4,2.3-.4h6c.9,0,1.7.1,2.3.4.6.2,1.2.6,1.6,1s.7.9.9,1.6c.2.6.3,1.3.3,2v2.5ZM237.7,19c.6,0,1.1-.1,1.4-.4.2-.2.4-.7.4-1.5v-1.7c0-.8-.1-1.3-.4-1.5s-.7-.4-1.3-.4h-4.4c-.6,0-1.1.1-1.3.4-.2.3-.4.8-.4,1.5v1.7c0,.7.1,1.2.4,1.5.2.2.7.4,1.3.4h4.4Z"/>
  </g>
  <g>
    <path class="st0" d="M95.5,8.5v14.3h-5.4v-14.3h-7.9l-1.8-4.6v-.2h25.3c.5,0,.8.3.8.8v5l-5,1.9h-.2v-2.5c0-.2,0-.3-.3-.3h-5.5Z"/>
    <path class="st0" d="M108.1,12v-3.6h13.4c.9,0,1.6.3,2.1.8.4.5.7,1.3.7,2.3v10.7c0,.4-.2.6-.6.6h-12.5c-.5,0-1,0-1.4-.2-.4-.1-.8-.4-1-.7s-.5-.7-.7-1.2c-.1-.5-.2-1.2-.2-1.9v-1.1c0-1.4.3-2.3.9-2.9.6-.6,1.4-.9,2.4-.9h7.3l.9,2.1h.2v-2.9c0-.4,0-.7-.2-.9-.2-.2-.4-.3-.7-.3h-10.3ZM119.2,19.2c.2,0,.3-.1.3-.3v-2.2h-6.2c-.3,0-.5,0-.7.2-.1.2-.2.4-.2.7v.6c0,.3,0,.5.2.7.1.2.4.2.7.2h5.9Z"/>
    <path class="st0" d="M131.7,8.4l4.3,4.3,4.6-4.3h5.4v.2l-7.1,6.6,7.5,7.4v.2h-5.7l-4.8-4.9-4.9,4.9h-5.6v-.2l7.6-7.3-7-6.6v-.2h5.7Z"/>
    <path class="st0" d="M164.7,17.1c0,.9-.1,1.7-.3,2.4-.2.7-.5,1.3-1,1.8-.5.5-1.1.9-1.8,1.2-.8.3-1.7.4-2.7.4h-6.9c-1.1,0-2-.1-2.7-.4-.7-.3-1.3-.7-1.8-1.2-.5-.5-.8-1.1-1-1.8-.2-.7-.3-1.5-.3-2.4v-3c0-.9.1-1.6.3-2.3s.6-1.3,1-1.8c.5-.5,1.1-.9,1.8-1.2.7-.3,1.6-.4,2.7-.4h6.9c1.1,0,2,.1,2.7.4.8.3,1.4.7,1.8,1.2.5.5.8,1.1,1,1.8s.3,1.5.3,2.3v3ZM158,18.6c.8,0,1.3-.1,1.6-.4s.4-.9.4-1.7v-2c0-.9-.2-1.5-.5-1.8-.3-.3-.8-.5-1.6-.5h-5.2c-.8,0-1.3.2-1.6.5-.3.3-.4.9-.4,1.8v2c0,.8.1,1.4.4,1.7.3.3.8.4,1.6.4h5.2Z"/>
    <path class="st0" d="M166.9,8.4h11.7c1.1,0,2,.1,2.7.4.8.3,1.4.7,1.8,1.2.5.5.8,1.1,1,1.8.2.7.3,1.5.3,2.4v8.7h-4.7v-8.4c0-.8-.2-1.4-.5-1.8-.3-.3-.8-.5-1.5-.5h-5.1l-.8-2.1h-.2v12.7h-4.7v-14.4Z"/>
  </g>
</svg>