<?xml version="1.0" encoding="UTF-8"?>
<svg id="Layer_1" xmlns="http://www.w3.org/2000/svg" version="1.1" viewBox="0 0 964 745">
  <!-- Generator: Adobe Illustrator 30.1.0, SVG Export Plug-In . SVG Version: 2.1.1 Build 136)  -->
  <defs>
    <style>
      .st0 {
        fill: #5046e4;
      }

      .st1 {
        fill: #1d16a6;
      }

      .st2 {
        fill: gray;
      }

      .st3 {
        fill: #e6e6e6;
      }

      .st4 {
        fill: #817df0;
      }

      .st5 {
        isolation: isolate;
      }

      .st6 {
        fill: #fff;
      }

      .st7 {
        fill: #b3b3b3;
      }
    </style>
  </defs>
  <g class="st5">
    <path class="st6" d="M113.6,660.2v-55.2c0-1.1-.5-1.6-1.5-1.6h-1.1c-.9,0-1.5.4-1.8,1.3l-20.1,53.2c-.3.9-.8,1.6-1.4,1.9-.6.3-1.4.5-2.5.5h-23.9c-1.1,0-2-.2-2.6-.5s-1-.9-1.4-1.9l-20-53.2c-.3-.9-1-1.3-1.9-1.3h-1c-1.1,0-1.6.5-1.6,1.6v55.2H13.2v-70.5c0-2,.9-3,2.8-3h33.2c2.2,0,3.6.9,4.2,2.7l18.1,52.5c0,.4.4.6,1,.6h1.8c.4,0,.7-.2.8-.6l18.2-52.5c.3-.9.8-1.5,1.5-2,.6-.5,1.5-.7,2.7-.7h32.8c1.9,0,2.8,1,2.8,3v70.5h-19.5Z"/>
    <path class="st6" d="M190.1,653.6h.7v-48.9h18.4v56.6c0,3.2-.4,6.2-1.2,8.8-.8,2.7-2,4.9-3.8,6.8-1.8,1.9-4.1,3.3-7,4.4-2.9,1-6.5,1.6-10.7,1.6h-42.1v-15.5h39.3c2.6,0,4.5-.6,5.5-1.8s1.6-3,1.6-5.6v-4.4h-26.2c-8.3,0-14.1-1.7-17.6-5-3.4-3.3-5.2-8.4-5.2-15.2v-30.7h18.4v28.3c0,3,.6,5.1,1.7,6.2,1.1,1.1,3.2,1.7,6.1,1.7h17.1l5,12.7Z"/>
  </g>
  <g class="st5">
    <path class="st6" d="M698.9,659.5v-16.8h18.3v16.8h-18.3Z"/>
    <path class="st6" d="M726.6,595.3v-14.6h18.3v14.6h-18.3ZM726.6,659.5v-55.4h18.3v55.4h-18.3Z"/>
    <path class="st6" d="M754.3,604h45.2c4.1,0,7.6.5,10.5,1.6,2.9,1,5.2,2.5,7,4.4s3.1,4.2,3.9,6.9c.8,2.7,1.2,5.7,1.2,9.1v33.4h-18.3v-32.2c0-3.2-.6-5.5-1.8-6.8s-3.2-1.9-6-1.9h-19.8l-3-8.1h-.7v49h-18.3v-55.4h0Z"/>
    <path class="st6" d="M870.5,618h-16.2v41.5h-18.2v-41.5h-7.5l-4.8-13.1v-.8h12.3v-6.7c0-3.3.3-6,1-8.1s1.8-3.8,3.4-5.1c1.6-1.3,3.7-2.2,6.3-2.7s5.8-.8,9.6-.8h8.2l4.9,12.4v.9h-10.7c-1.8,0-2.9.4-3.5,1.2s-.9,2.1-.9,3.9v4.9h16.2v14h0Z"/>
    <path class="st6" d="M946.6,637.5c0,3.4-.4,6.4-1.2,9.1-.8,2.7-2.1,5-3.9,6.9-1.8,1.9-4.2,3.4-7.1,4.4-2.9,1-6.4,1.6-10.5,1.6h-26.7c-4.1,0-7.6-.5-10.5-1.6-2.9-1-5.2-2.5-7-4.4s-3.1-4.2-3.9-6.9c-.8-2.7-1.2-5.7-1.2-9.1v-11.4c0-3.3.4-6.3,1.2-9s2.1-5,3.9-7c1.8-1.9,4.2-3.4,7-4.4,2.9-1,6.3-1.6,10.5-1.6h26.7c4.1,0,7.6.5,10.5,1.6,2.9,1,5.3,2.5,7.1,4.4s3.1,4.2,3.9,7c.8,2.7,1.2,5.7,1.2,9v11.4ZM920.5,643.2c2.9,0,4.9-.6,6.1-1.7,1.1-1.1,1.7-3.3,1.7-6.5v-7.8c0-3.4-.6-5.7-1.8-6.9s-3.2-1.8-6-1.8h-19.9c-2.9,0-4.9.6-6,1.9-1.1,1.2-1.7,3.5-1.7,6.8v7.8c0,3.2.6,5.3,1.7,6.5,1.1,1.1,3.1,1.7,6,1.7h19.9Z"/>
  </g>
  <g>
    <g>
      <polygon class="st0" points="657.2 118.3 602.8 198 525.8 198 580.3 118.3 657.2 118.3"/>
      <polygon class="st4" points="657.2 118.3 712.7 198 657.5 277.8 602.8 198 657.2 118.3"/>
      <polygon class="st1" points="602.8 198 657.5 277.8 581.3 277.6 525.8 198 602.8 198"/>
    </g>
    <g>
      <polygon class="st7" points="394.5 277.6 339.2 357.5 262.3 357.5 317.8 277.6 394.5 277.6"/>
      <polygon class="st3" points="394.5 277.6 449.2 357.5 393.7 437.3 339.2 357.5 394.5 277.6"/>
      <polygon class="st2" points="339.2 357.5 393.7 437.3 317 437.3 262.3 357.5 339.2 357.5"/>
    </g>
    <g>
      <polygon class="st0" points="525.8 357.5 470.4 437.3 393.7 437.3 449.2 357.5 525.8 357.5"/>
      <polygon class="st4" points="525.8 357.5 580.8 437.1 525.1 517.2 470.4 437.3 525.8 357.5"/>
      <polygon class="st1" points="470.4 437.3 525.1 517.2 448.2 517.2 393.7 437.3 470.4 437.3"/>
    </g>
    <g>
      <polygon class="st7" points="657.2 277.8 602.8 357.5 525.8 357.5 581.3 277.6 657.2 277.8"/>
      <polygon class="st3" points="657.2 277.8 712.7 357.5 657.2 437.1 602.8 357.5 657.2 277.8"/>
      <polygon class="st2" points="602.8 357.5 657.2 437.1 580.6 437.1 525.8 357.5 602.8 357.5"/>
    </g>
    <g>
      <polygon class="st0" points="394.7 118.1 340.2 197.7 263.3 197.7 318 118.1 394.7 118.1"/>
      <polygon class="st4" points="394.7 118.1 449.2 198 394.7 277.6 340.2 197.7 394.7 118.1"/>
      <polygon class="st1" points="340.2 197.7 394.5 277.6 317.8 277.6 263.3 197.7 340.2 197.7"/>
    </g>
    <g>
      <polygon class="st0" points="525.8 198 471.1 277.6 394.5 277.6 449.2 198 525.8 198"/>
      <polygon class="st4" points="525.8 198 581.3 277.6 525.8 357.5 471.1 277.6 525.8 198"/>
      <polygon class="st1" points="471.1 277.6 525.8 357.5 449.2 357.5 394.5 277.6 471.1 277.6"/>
    </g>
    <g>
      <polygon class="st7" points="526.3 39.7 471.6 119.3 394.7 118.1 449.4 39.7 526.3 39.7"/>
      <polygon class="st3" points="526.3 39.7 581.1 118.1 525.8 198 471.1 118.1 526.3 39.7"/>
      <polygon class="st2" points="471.4 118.1 525.8 198 449.2 198 394.7 118.1 471.4 118.1"/>
    </g>
  </g>
  <g>
    <path class="st0" d="M284.1,596v64h-24.1v-64h-35.4l-7.8-20.4v-.9h113.1c2.3,0,3.4,1.2,3.4,3.5v22.1l-22.4,8.3h-.9v-11.4c0-.9-.4-1.3-1.3-1.3h-24.5Z"/>
    <path class="st0" d="M340.7,611.6v-15.9h59.8c4.2,0,7.3,1.2,9.3,3.5,2,2.3,3,5.7,3,10.2v47.8c0,1.9-.9,2.8-2.7,2.8h-56.1c-2.3,0-4.4-.3-6.3-.9-1.8-.6-3.4-1.6-4.7-3s-2.3-3.3-2.9-5.6c-.7-2.3-1-5.2-1-8.6v-4.8c0-6.1,1.3-10.4,3.9-13.1,2.6-2.6,6.3-3.9,11-3.9h32.7l4,9.5h.8v-13c0-1.8-.4-3.1-1.1-3.9-.7-.8-1.9-1.2-3.3-1.2h-46.3ZM390.2,644c.9,0,1.3-.5,1.3-1.4v-9.8h-27.9c-1.4,0-2.4.4-3,1.1-.6.7-.9,1.8-.9,3.2v2.8c0,1.3.3,2.4.9,3.1.6.7,1.6,1.1,3,1.1h26.6Z"/>
    <path class="st0" d="M446,595.6l19.1,19.3,20.6-19.3h24.4v.9l-31.9,29.5,33.4,32.9v.9h-25.5l-21.7-22-22,22h-24.8v-.9l34.2-32.8-31.2-29.6v-.9h25.4Z"/>
    <path class="st0" d="M594,634.4c0,3.9-.5,7.4-1.4,10.5-.9,3.1-2.5,5.8-4.6,8-2.1,2.2-4.8,3.9-8.2,5.2-3.4,1.2-7.4,1.8-12.2,1.8h-30.9c-4.8,0-8.8-.6-12.1-1.8-3.3-1.2-6-2.9-8.1-5.2-2.1-2.2-3.6-4.9-4.6-8-.9-3.1-1.4-6.6-1.4-10.5v-13.2c0-3.8.5-7.3,1.4-10.5s2.5-5.9,4.6-8.1c2.1-2.2,4.8-3.9,8.1-5.2,3.3-1.2,7.4-1.8,12.1-1.8h30.9c4.8,0,8.8.6,12.2,1.8,3.4,1.2,6.1,2.9,8.2,5.2,2.1,2.2,3.6,4.9,4.6,8.1s1.4,6.7,1.4,10.5v13.2ZM563.8,641.1c3.4,0,5.7-.7,7-2s2-3.8,2-7.5v-9c0-3.9-.7-6.6-2.1-8-1.4-1.4-3.7-2.1-7-2.1h-23.1c-3.4,0-5.7.7-7,2.2-1.3,1.4-1.9,4.1-1.9,7.9v9c0,3.7.6,6.2,1.9,7.5,1.3,1.3,3.6,2,7,2h23.1Z"/>
    <path class="st0" d="M603.9,595.6h52.5c4.8,0,8.8.6,12.2,1.8,3.4,1.2,6.1,2.9,8.1,5.2,2.1,2.2,3.6,4.9,4.5,8,.9,3.1,1.4,6.6,1.4,10.5v38.8h-21.2v-37.4c0-3.7-.7-6.4-2.1-7.8-1.4-1.5-3.7-2.2-6.9-2.2h-23l-3.5-9.4h-.8v56.8h-21.2v-64.3Z"/>
  </g>
</svg>