<?xml version="1.0" encoding="utf-8"?>
<!-- Generator: Adobe Illustrator 23.0.1, SVG Export Plug-In . SVG Version: 6.00 Build 0)  -->
<svg version="1.1" id="Layer_1" xmlns="http://www.w3.org/2000/svg" xmlns:xlink="http://www.w3.org/1999/xlink" x="0px" y="0px"
	 viewBox="0 0 1024 512" style="enable-background:new 0 0 1024 512;" xml:space="preserve">
<style type="text/css">
	.st0{fill:none;}
	.st1{fill:url(#SVGID_1_);}
	.st2{fill:url(#SVGID_2_);}
	.st3{fill:url(#SVGID_3_);}
	.st4{fill:url(#SVGID_4_);}
	.st5{fill:url(#SVGID_5_);}
	.st6{fill:url(#SVGID_6_);}
	.st7{fill:url(#SVGID_7_);}
	.st8{fill:url(#SVGID_8_);}
	.st9{fill:url(#SVGID_9_);}
	.st10{fill:url(#SVGID_10_);}
	.st11{fill:url(#SVGID_11_);}
	.st12{fill:url(#SVGID_12_);}
	.st13{fill:url(#SVGID_13_);}
	.st14{fill:url(#SVGID_14_);}
	.st15{fill:url(#SVGID_15_);}
	.st16{fill:url(#SVGID_16_);}
	.st17{fill:url(#SVGID_17_);}
	.st18{fill:url(#SVGID_18_);}
	.st19{fill:url(#SVGID_19_);}
	.st20{fill:url(#SVGID_20_);}
	.st21{fill:url(#SVGID_21_);}
	.st22{fill:url(#SVGID_22_);}
	.st23{fill:url(#SVGID_23_);}
	.st24{fill:url(#SVGID_24_);}
	.st25{fill:url(#SVGID_25_);}
	.st26{fill:url(#SVGID_26_);}
	.st27{fill:url(#SVGID_27_);}
	.st28{fill:url(#SVGID_28_);}
	.st29{fill:url(#SVGID_29_);}
	.st30{fill:url(#SVGID_30_);}
	.st31{fill:url(#SVGID_31_);}
	.st32{fill:url(#SVGID_32_);}
	.st33{fill:url(#SVGID_33_);}
	.st34{fill:url(#SVGID_34_);}
	.st35{fill:url(#SVGID_35_);}
	.st36{fill:url(#SVGID_36_);}
	.st37{fill:url(#SVGID_37_);}
	.st38{fill:url(#SVGID_38_);}
	.st39{fill:url(#SVGID_39_);}
	.st40{fill:url(#SVGID_40_);}
	.st41{fill:url(#SVGID_41_);}
	.st42{fill:url(#SVGID_42_);}
	.st43{fill:url(#SVGID_43_);}
	.st44{fill:url(#SVGID_44_);}
	.st45{fill:url(#SVGID_45_);}
	.st46{fill:url(#SVGID_46_);}
	.st47{fill:url(#SVGID_47_);}
	.st48{fill:url(#SVGID_48_);}
	.st49{fill:url(#SVGID_49_);}
	.st50{fill:url(#SVGID_50_);}
	.st51{fill:url(#SVGID_51_);}
	.st52{fill:url(#SVGID_52_);}
	.st53{fill:url(#SVGID_53_);}
	.st54{fill:url(#SVGID_54_);}
	.st55{fill:url(#SVGID_55_);}
	.st56{fill:url(#SVGID_56_);}
	.st57{fill:url(#SVGID_57_);}
	.st58{fill:url(#SVGID_58_);}
	.st59{fill:url(#SVGID_59_);}
	.st60{fill:url(#SVGID_60_);}
	.st61{fill:url(#SVGID_61_);}
	.st62{fill:url(#SVGID_62_);}
	.st63{fill:url(#SVGID_63_);}
	.st64{fill:url(#SVGID_64_);}
	.st65{fill:url(#SVGID_65_);}
	.st66{fill:url(#SVGID_66_);}
	.st67{fill:url(#SVGID_67_);}
	.st68{fill:url(#SVGID_68_);}
	.st69{fill:url(#SVGID_69_);}
	.st70{fill:url(#SVGID_70_);}
	.st71{fill:url(#SVGID_71_);}
	.st72{fill:url(#SVGID_72_);}
	.st73{fill:url(#SVGID_73_);}
	.st74{fill:url(#SVGID_74_);}
	.st75{fill:url(#SVGID_75_);}
	.st76{fill:url(#SVGID_76_);}
	.st77{fill:url(#SVGID_77_);}
	.st78{fill:url(#SVGID_78_);}
	.st79{fill:url(#SVGID_79_);}
	.st80{fill:url(#SVGID_80_);}
</style>
<g>
	<g>
		<g>
			<linearGradient id="SVGID_1_" gradientUnits="userSpaceOnUse" x1="912.4004" y1="249.2212" x2="1012.5107" y2="249.2212">
				<stop  offset="0" style="stop-color:#3366CC"/>
				<stop  offset="1" style="stop-color:#669BE8"/>
			</linearGradient>
			<path class="st1" d="M912.47,257.31l-0.07-0.69c0.02,0,2.29-0.25,5.85-0.79c3.81-0.57,8.89-1.51,13.92-2.59
				c5.89-1.27,11.61-2.7,16.52-4.14c6.24-1.83,10.56-3.38,13.61-4.87c3.03-1.5,7.62-2.5,13.27-2.89c4.67-0.34,10.27-0.27,16.65,0.23
				c2.38,0.17,4.93,0.43,7.79,0.77c2.34,0.29,4.6,0.56,6.47,0.85c3.66,0.54,6.02,0.95,6.04,0.96l-0.12,0.68
				c-0.02,0-2.37-0.42-6.03-0.95c-1.86-0.29-4.11-0.56-6.45-0.85c-2.85-0.34-5.38-0.6-7.76-0.77c-6.35-0.49-11.91-0.57-16.55-0.23
				c-5.57,0.38-10.07,1.36-13.01,2.82c-3.08,1.52-7.44,3.08-13.72,4.92c-4.92,1.44-10.65,2.87-16.56,4.15
				c-5.05,1.08-10.13,2.02-13.96,2.6C914.78,257.06,912.5,257.31,912.47,257.31z"/>
		</g>
		<g>
			<linearGradient id="SVGID_2_" gradientUnits="userSpaceOnUse" x1="912.3867" y1="239.8152" x2="1012.5068" y2="239.8152">
				<stop  offset="0" style="stop-color:#3366CC"/>
				<stop  offset="1" style="stop-color:#669BE8"/>
			</linearGradient>
			<path class="st2" d="M982.87,248c-1.13,0-2.28-0.02-3.43-0.07c-6.6-0.28-12.2-1.28-17.11-3.06c-3.73-1.35-8.51-2.83-15.03-4.66
				c-5.58-1.55-11.24-2.99-16.37-4.18c-4.95-1.15-9.62-2.14-13.15-2.79c-3.3-0.62-5.37-0.93-5.39-0.93l0.1-0.68
				c0.02,0,2.1,0.31,5.41,0.93c3.54,0.65,8.22,1.64,13.18,2.79c5.14,1.19,10.81,2.64,16.4,4.19c6.54,1.84,11.33,3.32,15.08,4.67
				c4.85,1.76,10.38,2.75,16.91,3.02c5.74,0.25,11.37-0.19,16.12-0.66c5.74-0.65,10.02-1.3,12.06-1.64l4.75-0.78l0.11,0.68
				l-4.75,0.78c-2.04,0.33-6.34,0.99-12.1,1.64C991.83,247.64,987.44,248,982.87,248z"/>
		</g>
		<g>
			<linearGradient id="SVGID_3_" gradientUnits="userSpaceOnUse" x1="973.2129" y1="244.5347" x2="973.9023" y2="244.5347">
				<stop  offset="0" style="stop-color:#3366CC"/>
				<stop  offset="1" style="stop-color:#669BE8"/>
			</linearGradient>
			<rect x="973.21" y="241.9" class="st3" width="0.69" height="5.27"/>
		</g>
		<g>
			<linearGradient id="SVGID_4_" gradientUnits="userSpaceOnUse" x1="989.8818" y1="244.5796" x2="990.5713" y2="244.5796">
				<stop  offset="0" style="stop-color:#3366CC"/>
				<stop  offset="1" style="stop-color:#669BE8"/>
			</linearGradient>
			<rect x="989.88" y="241.76" class="st4" width="0.69" height="5.65"/>
		</g>
		<g>
			<linearGradient id="SVGID_5_" gradientUnits="userSpaceOnUse" x1="1004.5303" y1="244.5183" x2="1005.2197" y2="244.5183">
				<stop  offset="0" style="stop-color:#3366CC"/>
				<stop  offset="1" style="stop-color:#669BE8"/>
			</linearGradient>
			<rect x="1004.53" y="243.3" class="st5" width="0.69" height="2.43"/>
		</g>
		<g>
			<linearGradient id="SVGID_6_" gradientUnits="userSpaceOnUse" x1="950.9873" y1="244.8411" x2="951.6768" y2="244.8411">
				<stop  offset="0" style="stop-color:#3366CC"/>
				<stop  offset="1" style="stop-color:#669BE8"/>
			</linearGradient>
			<rect x="950.99" y="240.93" class="st6" width="0.69" height="7.82"/>
		</g>
		<g>
			<linearGradient id="SVGID_7_" gradientUnits="userSpaceOnUse" x1="936.8438" y1="244.907" x2="937.5332" y2="244.907">
				<stop  offset="0" style="stop-color:#3366CC"/>
				<stop  offset="1" style="stop-color:#669BE8"/>
			</linearGradient>
			<rect x="936.84" y="237.13" class="st7" width="0.69" height="15.55"/>
		</g>
		<g>
			<linearGradient id="SVGID_8_" gradientUnits="userSpaceOnUse" x1="923.2061" y1="244.7683" x2="923.8955" y2="244.7683">
				<stop  offset="0" style="stop-color:#3366CC"/>
				<stop  offset="1" style="stop-color:#669BE8"/>
			</linearGradient>
			<rect x="923.21" y="234.08" class="st8" width="0.69" height="21.38"/>
		</g>
	</g>
	<g>
		<g>
			<linearGradient id="SVGID_9_" gradientUnits="userSpaceOnUse" x1="812.3115" y1="248.3958" x2="912.375" y2="248.3958">
				<stop  offset="0" style="stop-color:#3366CC"/>
				<stop  offset="1" style="stop-color:#669BE8"/>
			</linearGradient>
			<path class="st9" d="M812.36,265.33l-0.05-0.69c0.02,0,2.29-0.18,5.83-0.75c4.82-0.77,9.49-1.81,13.9-3.07
				c9.73-2.8,22.85-7.92,30.04-16.45c2.96-3.54,7.43-6.41,13.29-8.55c4.6-1.69,10.22-2.92,16.68-3.66
				c5.72-0.65,10.88-0.72,14.27-0.72c3.67,0,6.04,0.16,6.06,0.16l-0.05,0.69c-0.02,0-2.37-0.16-6.01-0.16
				c-3.37,0-8.51,0.07-14.19,0.72c-6.41,0.73-11.96,1.95-16.52,3.62c-5.74,2.09-10.11,4.9-13,8.34
				c-7.3,8.66-20.55,13.84-30.37,16.67c-4.43,1.27-9.13,2.31-13.98,3.09C814.68,265.15,812.39,265.33,812.36,265.33z"/>
		</g>
		<g>
			<linearGradient id="SVGID_10_" gradientUnits="userSpaceOnUse" x1="812.2891" y1="240.8169" x2="912.4072" y2="240.8169">
				<stop  offset="0" style="stop-color:#3366CC"/>
				<stop  offset="1" style="stop-color:#669BE8"/>
			</linearGradient>
			<path class="st10" d="M901.09,258.07c-1.88,0-3.74-0.06-5.6-0.19c-13.58-0.98-24.49-5.24-33.38-13.02
				c-8.96-7.82-21.98-13.06-31.32-16.07c-5.36-1.72-10.1-2.87-13.13-3.53c-3.29-0.72-5.35-1.02-5.37-1.02l0.1-0.68
				c0.02,0,2.1,0.31,5.42,1.03c3.05,0.66,7.82,1.82,13.2,3.54c9.41,3.04,22.52,8.31,31.56,16.21c8.77,7.68,19.55,11.88,32.97,12.85
				c3.92,0.26,7.86,0.25,12.03-0.05c2.93-0.22,4.7-0.5,4.72-0.51l0.11,0.68c-0.02,0-1.81,0.29-4.78,0.51
				C905.39,257.99,903.23,258.07,901.09,258.07z"/>
		</g>
		<g>
			<linearGradient id="SVGID_11_" gradientUnits="userSpaceOnUse" x1="873.1123" y1="244.5991" x2="873.8018" y2="244.5991">
				<stop  offset="0" style="stop-color:#3366CC"/>
				<stop  offset="1" style="stop-color:#669BE8"/>
			</linearGradient>
			<rect x="873.11" y="237.07" class="st11" width="0.69" height="15.06"/>
		</g>
		<g>
			<linearGradient id="SVGID_12_" gradientUnits="userSpaceOnUse" x1="889.7812" y1="244.844" x2="890.4707" y2="244.844">
				<stop  offset="0" style="stop-color:#3366CC"/>
				<stop  offset="1" style="stop-color:#669BE8"/>
			</linearGradient>
			<rect x="889.78" y="232.66" class="st12" width="0.69" height="24.37"/>
		</g>
		<g>
			<linearGradient id="SVGID_13_" gradientUnits="userSpaceOnUse" x1="904.4307" y1="244.697" x2="905.1201" y2="244.697">
				<stop  offset="0" style="stop-color:#3366CC"/>
				<stop  offset="1" style="stop-color:#669BE8"/>
			</linearGradient>
			<rect x="904.43" y="231.69" class="st13" width="0.69" height="26.02"/>
		</g>
		<g>
			<linearGradient id="SVGID_14_" gradientUnits="userSpaceOnUse" x1="850.8877" y1="245.2297" x2="851.5771" y2="245.2297">
				<stop  offset="0" style="stop-color:#3366CC"/>
				<stop  offset="1" style="stop-color:#669BE8"/>
			</linearGradient>
			<rect x="850.89" y="236.86" class="st14" width="0.69" height="16.73"/>
		</g>
		<g>
			<linearGradient id="SVGID_15_" gradientUnits="userSpaceOnUse" x1="836.7441" y1="245.2722" x2="837.4336" y2="245.2722">
				<stop  offset="0" style="stop-color:#3366CC"/>
				<stop  offset="1" style="stop-color:#669BE8"/>
			</linearGradient>
			<rect x="836.74" y="230.52" class="st15" width="0.69" height="29.51"/>
		</g>
		<g>
			<linearGradient id="SVGID_16_" gradientUnits="userSpaceOnUse" x1="823.1055" y1="244.9668" x2="823.7949" y2="244.9668">
				<stop  offset="0" style="stop-color:#3366CC"/>
				<stop  offset="1" style="stop-color:#669BE8"/>
			</linearGradient>
			<rect x="823.11" y="226.37" class="st16" width="0.69" height="37.2"/>
		</g>
	</g>
	<g>
		<g>
			<linearGradient id="SVGID_17_" gradientUnits="userSpaceOnUse" x1="712.2207" y1="246.9312" x2="812.252" y2="246.9312">
				<stop  offset="0" style="stop-color:#3366CC"/>
				<stop  offset="1" style="stop-color:#669BE8"/>
			</linearGradient>
			<path class="st17" d="M712.26,270.31l-0.04-0.69c0.09,0,9.12-0.51,19.71-3.98c9.75-3.19,22.87-9.46,30.02-21.18
				c2.95-4.84,7.41-8.95,13.27-12.2c4.69-2.61,10.3-4.7,16.69-6.2c10.82-2.48,20.22-2.51,20.35-2.51l0,0v0.69h0
				c-0.12,0-9.45,0.03-20.19,2.49c-6.32,1.49-11.87,3.55-16.51,6.13c-5.75,3.19-10.13,7.21-13.01,11.95
				c-7.25,11.9-20.53,18.24-30.39,21.47C721.46,269.79,712.35,270.3,712.26,270.31z"/>
		</g>
		<g>
			<linearGradient id="SVGID_18_" gradientUnits="userSpaceOnUse" x1="712.1914" y1="242.1458" x2="812.3076" y2="242.1458">
				<stop  offset="0" style="stop-color:#3366CC"/>
				<stop  offset="1" style="stop-color:#669BE8"/>
			</linearGradient>
			<path class="st18" d="M806.01,265.72c-3.56,0-7.14-0.32-10.65-0.95c-5.68-1.01-11.15-2.92-16.27-5.67
				c-6.36-3.42-12.11-8.21-17.11-14.24c-8.87-10.7-21.92-17.14-31.3-20.65c-10.19-3.8-18.41-4.95-18.49-4.96l0.09-0.68
				c0.08,0.01,8.36,1.17,18.64,5c9.46,3.54,22.62,10.04,31.59,20.86c4.94,5.96,10.63,10.7,16.91,14.07
				c5.05,2.71,10.46,4.6,16.07,5.6c3.96,0.71,8,1.02,12.01,0.92c2.92-0.07,4.68-0.36,4.7-0.36l0.11,0.68
				c-0.07,0.01-1.82,0.29-4.8,0.37C807.01,265.72,806.51,265.72,806.01,265.72z"/>
		</g>
		<g>
			<linearGradient id="SVGID_19_" gradientUnits="userSpaceOnUse" x1="773.0127" y1="244.6409" x2="773.7021" y2="244.6409">
				<stop  offset="0" style="stop-color:#3366CC"/>
				<stop  offset="1" style="stop-color:#669BE8"/>
			</linearGradient>
			<rect x="773.01" y="233.93" class="st19" width="0.69" height="21.42"/>
		</g>
		<g>
			<linearGradient id="SVGID_20_" gradientUnits="userSpaceOnUse" x1="789.6816" y1="245.0161" x2="790.3711" y2="245.0161">
				<stop  offset="0" style="stop-color:#3366CC"/>
				<stop  offset="1" style="stop-color:#669BE8"/>
			</linearGradient>
			<rect x="789.68" y="226.74" class="st20" width="0.69" height="36.55"/>
		</g>
		<g>
			<linearGradient id="SVGID_21_" gradientUnits="userSpaceOnUse" x1="804.3301" y1="244.8125" x2="805.0195" y2="244.8125">
				<stop  offset="0" style="stop-color:#3366CC"/>
				<stop  offset="1" style="stop-color:#669BE8"/>
			</linearGradient>
			<rect x="804.33" y="224.16" class="st21" width="0.69" height="41.3"/>
		</g>
		<g>
			<linearGradient id="SVGID_22_" gradientUnits="userSpaceOnUse" x1="750.7871" y1="245.48" x2="751.4766" y2="245.48">
				<stop  offset="0" style="stop-color:#3366CC"/>
				<stop  offset="1" style="stop-color:#669BE8"/>
			</linearGradient>
			<rect x="750.79" y="234.25" class="st22" width="0.69" height="22.46"/>
		</g>
		<g>
			<linearGradient id="SVGID_23_" gradientUnits="userSpaceOnUse" x1="736.6436" y1="245.5051" x2="737.333" y2="245.5051">
				<stop  offset="0" style="stop-color:#3366CC"/>
				<stop  offset="1" style="stop-color:#669BE8"/>
			</linearGradient>
			<rect x="736.64" y="226.3" class="st23" width="0.69" height="38.41"/>
		</g>
		<g>
			<linearGradient id="SVGID_24_" gradientUnits="userSpaceOnUse" x1="723.0059" y1="245.0916" x2="723.6953" y2="245.0916">
				<stop  offset="0" style="stop-color:#3366CC"/>
				<stop  offset="1" style="stop-color:#669BE8"/>
			</linearGradient>
			<rect x="723.01" y="221.52" class="st24" width="0.69" height="47.15"/>
		</g>
	</g>
	<g>
		<g>
			<linearGradient id="SVGID_25_" gradientUnits="userSpaceOnUse" x1="612.1279" y1="245.6584" x2="712.167" y2="245.6584">
				<stop  offset="0" style="stop-color:#3366CC"/>
				<stop  offset="1" style="stop-color:#669BE8"/>
			</linearGradient>
			<path class="st25" d="M612.15,272.75l-0.02-0.69c0.09,0,9.11-0.31,19.7-3.88c9.76-3.33,22.88-10.14,30.01-23.68
				c6.67-12.69,19.97-19.03,29.94-22.11c4.51-1.41,9.32-2.49,14.28-3.21c3.68-0.51,6.05-0.62,6.07-0.62l0.03,0.69
				c-0.02,0-2.37,0.11-6,0.62c-4.93,0.71-9.7,1.78-14.18,3.18c-9.85,3.05-22.97,9.3-29.54,21.78c-7.23,13.74-20.52,20.64-30.4,24.01
				C621.36,272.45,612.24,272.75,612.15,272.75z"/>
		</g>
		<g>
			<linearGradient id="SVGID_26_" gradientUnits="userSpaceOnUse" x1="612.0967" y1="243.3391" x2="712.207" y2="243.3391">
				<stop  offset="0" style="stop-color:#3366CC"/>
				<stop  offset="1" style="stop-color:#669BE8"/>
			</linearGradient>
			<path class="st26" d="M707.75,270.57c-3.04,0-7.42-0.31-12.51-1.62c-5.8-1.5-11.28-3.93-16.27-7.25
				c-6.36-4.21-12.12-9.88-17.1-16.84c-3.89-5.44-8.93-10.31-14.97-14.48c-4.94-3.4-10.42-6.29-16.31-8.59
				c-10.19-3.98-18.4-5-18.48-5.01l0.08-0.68c0.08,0.01,8.37,1.04,18.65,5.05c5.94,2.32,11.48,5.23,16.46,8.66
				c6.11,4.22,11.21,9.14,15.14,14.64c4.93,6.89,10.62,12.5,16.92,16.66c4.93,3.27,10.33,5.68,16.06,7.15
				c9.6,2.46,16.62,1.35,16.69,1.34l0.11,0.68C712.17,270.31,710.52,270.57,707.75,270.57z"/>
		</g>
		<g>
			<linearGradient id="SVGID_27_" gradientUnits="userSpaceOnUse" x1="672.9131" y1="244.6653" x2="673.6025" y2="244.6653">
				<stop  offset="0" style="stop-color:#3366CC"/>
				<stop  offset="1" style="stop-color:#669BE8"/>
			</linearGradient>
			<rect x="672.91" y="232.1" class="st27" width="0.69" height="25.13"/>
		</g>
		<g>
			<linearGradient id="SVGID_28_" gradientUnits="userSpaceOnUse" x1="689.582" y1="245.1194" x2="690.2715" y2="245.1194">
				<stop  offset="0" style="stop-color:#3366CC"/>
				<stop  offset="1" style="stop-color:#669BE8"/>
			</linearGradient>
			<rect x="689.58" y="223.18" class="st28" width="0.69" height="43.87"/>
		</g>
		<g>
			<linearGradient id="SVGID_29_" gradientUnits="userSpaceOnUse" x1="704.2305" y1="244.8838" x2="704.9199" y2="244.8838">
				<stop  offset="0" style="stop-color:#3366CC"/>
				<stop  offset="1" style="stop-color:#669BE8"/>
			</linearGradient>
			<rect x="704.23" y="219.53" class="st29" width="0.69" height="50.72"/>
		</g>
		<g>
			<linearGradient id="SVGID_30_" gradientUnits="userSpaceOnUse" x1="650.6875" y1="245.6184" x2="651.377" y2="245.6184">
				<stop  offset="0" style="stop-color:#3366CC"/>
				<stop  offset="1" style="stop-color:#669BE8"/>
			</linearGradient>
			<rect x="650.69" y="232.8" class="st30" width="0.69" height="25.64"/>
		</g>
		<g>
			<linearGradient id="SVGID_31_" gradientUnits="userSpaceOnUse" x1="636.5439" y1="245.6304" x2="637.2334" y2="245.6304">
				<stop  offset="0" style="stop-color:#3366CC"/>
				<stop  offset="1" style="stop-color:#669BE8"/>
			</linearGradient>
			<rect x="636.54" y="224.03" class="st31" width="0.69" height="43.19"/>
		</g>
		<g>
			<linearGradient id="SVGID_32_" gradientUnits="userSpaceOnUse" x1="622.9053" y1="245.1555" x2="623.5947" y2="245.1555">
				<stop  offset="0" style="stop-color:#3366CC"/>
				<stop  offset="1" style="stop-color:#669BE8"/>
			</linearGradient>
			<rect x="622.91" y="219.03" class="st32" width="0.69" height="52.25"/>
		</g>
	</g>
	<g>
		<g>
			<linearGradient id="SVGID_33_" gradientUnits="userSpaceOnUse" x1="512.0361" y1="244.5515" x2="612.0771" y2="244.5515">
				<stop  offset="0" style="stop-color:#3366CC"/>
				<stop  offset="1" style="stop-color:#669BE8"/>
			</linearGradient>
			<path class="st33" d="M512.04,273l0-0.69c0.09,0,9.11-0.08,19.69-3.58c9.75-3.2,22.88-10.01,30.01-24.21
				c2.91-5.79,7.36-10.89,13.25-15.18c4.67-3.41,10.28-6.3,16.68-8.59c4.54-1.62,9.34-2.9,14.28-3.81c3.68-0.67,6.05-0.84,6.08-0.85
				l0.05,0.69c-0.02,0-2.36,0.18-6,0.84c-4.9,0.9-9.67,2.17-14.18,3.78c-6.34,2.27-11.89,5.12-16.51,8.5
				c-5.79,4.22-10.18,9.24-13.04,14.93c-7.23,14.41-20.53,21.31-30.41,24.55C521.25,272.92,512.13,273,512.04,273z"/>
		</g>
		<g>
			<linearGradient id="SVGID_34_" gradientUnits="userSpaceOnUse" x1="512.0049" y1="244.4014" x2="612.1025" y2="244.4014">
				<stop  offset="0" style="stop-color:#3366CC"/>
				<stop  offset="1" style="stop-color:#669BE8"/>
			</linearGradient>
			<path class="st34" d="M608.62,272.94c-0.41,0-0.85-0.01-1.33-0.02c-4-0.15-8.1-0.85-12.17-2.07c-8.95-2.67-22-9.34-33.36-25.98
				c-8.83-12.95-21.89-19.96-31.28-23.57c-10.19-3.93-18.39-4.74-18.47-4.75l0.07-0.69c0.08,0.01,8.37,0.83,18.65,4.8
				c9.49,3.64,22.67,10.73,31.61,23.83c11.25,16.47,24.15,23.07,32.99,25.7c4.02,1.21,8.05,1.9,12,2.05
				c2.91,0.09,4.67-0.16,4.68-0.16l0.1,0.68C612.04,272.76,610.79,272.94,608.62,272.94z"/>
		</g>
		<g>
			<linearGradient id="SVGID_35_" gradientUnits="userSpaceOnUse" x1="572.8125" y1="244.6748" x2="573.502" y2="244.6748">
				<stop  offset="0" style="stop-color:#3366CC"/>
				<stop  offset="1" style="stop-color:#669BE8"/>
			</linearGradient>
			<rect x="572.81" y="231.38" class="st35" width="0.69" height="26.59"/>
		</g>
		<g>
			<linearGradient id="SVGID_36_" gradientUnits="userSpaceOnUse" x1="589.4814" y1="245.1648" x2="590.1709" y2="245.1648">
				<stop  offset="0" style="stop-color:#3366CC"/>
				<stop  offset="1" style="stop-color:#669BE8"/>
			</linearGradient>
			<rect x="589.48" y="221.62" class="st36" width="0.69" height="47.09"/>
		</g>
		<g>
			<linearGradient id="SVGID_37_" gradientUnits="userSpaceOnUse" x1="604.1299" y1="244.9175" x2="604.8193" y2="244.9175">
				<stop  offset="0" style="stop-color:#3366CC"/>
				<stop  offset="1" style="stop-color:#669BE8"/>
			</linearGradient>
			<rect x="604.13" y="217.33" class="st37" width="0.69" height="55.18"/>
		</g>
		<g>
			<linearGradient id="SVGID_38_" gradientUnits="userSpaceOnUse" x1="550.5869" y1="245.6619" x2="551.2764" y2="245.6619">
				<stop  offset="0" style="stop-color:#3366CC"/>
				<stop  offset="1" style="stop-color:#669BE8"/>
			</linearGradient>
			<rect x="550.59" y="232.34" class="st38" width="0.69" height="26.64"/>
		</g>
		<g>
			<linearGradient id="SVGID_39_" gradientUnits="userSpaceOnUse" x1="536.4443" y1="245.6604" x2="537.1338" y2="245.6604">
				<stop  offset="0" style="stop-color:#3366CC"/>
				<stop  offset="1" style="stop-color:#669BE8"/>
			</linearGradient>
			<rect x="536.44" y="223.49" class="st39" width="0.69" height="44.34"/>
		</g>
		<g>
			<linearGradient id="SVGID_40_" gradientUnits="userSpaceOnUse" x1="522.8057" y1="245.167" x2="523.4951" y2="245.167">
				<stop  offset="0" style="stop-color:#3366CC"/>
				<stop  offset="1" style="stop-color:#669BE8"/>
			</linearGradient>
			<rect x="522.81" y="218.59" class="st40" width="0.69" height="53.15"/>
		</g>
	</g>
	<g>
		<g>
			<linearGradient id="SVGID_41_" gradientUnits="userSpaceOnUse" x1="411.9346" y1="243.7075" x2="511.9858" y2="243.7075">
				<stop  offset="0" style="stop-color:#3366CC"/>
				<stop  offset="1" style="stop-color:#669BE8"/>
			</linearGradient>
			<path class="st41" d="M412,271.55c-0.04,0-0.07,0-0.07,0l0.01-0.69c0.02,0,2.28,0.02,5.82-0.35c4.89-0.51,9.56-1.44,13.87-2.75
				c9.76-2.96,22.89-9.39,30-23.25c2.9-5.65,7.36-10.67,13.25-14.95c4.77-3.45,10.38-6.38,16.68-8.71
				c10.84-4.01,20.26-4.98,20.35-4.99l0.07,0.69c-0.09,0.01-9.43,0.98-20.18,4.95c-6.24,2.31-11.8,5.21-16.52,8.62
				c-5.8,4.21-10.19,9.15-13.04,14.7c-7.22,14.07-20.52,20.6-30.41,23.59c-4.36,1.32-9.07,2.26-14,2.78
				C414.6,271.54,412.41,271.55,412,271.55z"/>
		</g>
		<g>
			<linearGradient id="SVGID_42_" gradientUnits="userSpaceOnUse" x1="411.9116" y1="245.2119" x2="511.9946" y2="245.2119">
				<stop  offset="0" style="stop-color:#3366CC"/>
				<stop  offset="1" style="stop-color:#669BE8"/>
			</linearGradient>
			<path class="st42" d="M509.38,273.11c-2.94,0-8.12-0.36-14.36-2.32c-8.9-2.79-21.91-9.55-33.36-25.92
				c-8.82-12.64-21.88-19.28-31.28-22.63c-4.19-1.49-8.6-2.66-13.11-3.48c-3.29-0.6-5.34-0.76-5.36-0.76l0.05-0.69
				c0.02,0,2.11,0.17,5.43,0.77c4.55,0.83,9,2.01,13.22,3.51c9.5,3.38,22.69,10.1,31.61,22.88c11.33,16.21,24.2,22.9,33,25.66
				c9.58,3.02,16.62,2.19,16.68,2.18l0.09,0.68C511.97,273,511.03,273.11,509.38,273.11z"/>
		</g>
		<g>
			<linearGradient id="SVGID_43_" gradientUnits="userSpaceOnUse" x1="472.7129" y1="244.6721" x2="473.4023" y2="244.6721">
				<stop  offset="0" style="stop-color:#3366CC"/>
				<stop  offset="1" style="stop-color:#669BE8"/>
			</linearGradient>
			<rect x="472.71" y="231.59" class="st43" width="0.69" height="26.16"/>
		</g>
		<g>
			<linearGradient id="SVGID_44_" gradientUnits="userSpaceOnUse" x1="489.3818" y1="245.1614" x2="490.0713" y2="245.1614">
				<stop  offset="0" style="stop-color:#3366CC"/>
				<stop  offset="1" style="stop-color:#669BE8"/>
			</linearGradient>
			<rect x="489.38" y="221.74" class="st44" width="0.69" height="46.84"/>
		</g>
		<g>
			<linearGradient id="SVGID_45_" gradientUnits="userSpaceOnUse" x1="504.0303" y1="244.9189" x2="504.7197" y2="244.9189">
				<stop  offset="0" style="stop-color:#3366CC"/>
				<stop  offset="1" style="stop-color:#669BE8"/>
			</linearGradient>
			<rect x="504.03" y="217.24" class="st45" width="0.69" height="55.36"/>
		</g>
		<g>
			<linearGradient id="SVGID_46_" gradientUnits="userSpaceOnUse" x1="450.4873" y1="245.6279" x2="451.1768" y2="245.6279">
				<stop  offset="0" style="stop-color:#3366CC"/>
				<stop  offset="1" style="stop-color:#669BE8"/>
			</linearGradient>
			<rect x="450.49" y="232.7" class="st46" width="0.69" height="25.86"/>
		</g>
		<g>
			<linearGradient id="SVGID_47_" gradientUnits="userSpaceOnUse" x1="436.3438" y1="245.6179" x2="437.0332" y2="245.6179">
				<stop  offset="0" style="stop-color:#3366CC"/>
				<stop  offset="1" style="stop-color:#669BE8"/>
			</linearGradient>
			<rect x="436.34" y="224.26" class="st47" width="0.69" height="42.72"/>
		</g>
		<g>
			<linearGradient id="SVGID_48_" gradientUnits="userSpaceOnUse" x1="422.7056" y1="245.137" x2="423.395" y2="245.137">
				<stop  offset="0" style="stop-color:#3366CC"/>
				<stop  offset="1" style="stop-color:#669BE8"/>
			</linearGradient>
			<rect x="422.71" y="219.76" class="st48" width="0.69" height="50.76"/>
		</g>
	</g>
	<g>
		<g>
			<linearGradient id="SVGID_49_" gradientUnits="userSpaceOnUse" x1="311.8271" y1="242.8545" x2="411.8892" y2="242.8545">
				<stop  offset="0" style="stop-color:#3366CC"/>
				<stop  offset="1" style="stop-color:#669BE8"/>
			</linearGradient>
			<path class="st49" d="M312.67,268.39c-0.54,0-0.83-0.01-0.84-0.01l0.02-0.69c0.02,0,2.29,0.07,5.83-0.18
				c3.21-0.22,8.23-0.79,13.88-2.21c6.27-1.59,11.8-3.88,16.44-6.81c5.85-3.68,10.4-8.39,13.55-14.01
				c5.2-9.27,15.55-16.93,29.92-22.14c10.84-3.96,20.25-5.02,20.35-5.03l0.08,0.69c-0.09,0.01-9.43,1.06-20.19,4.99
				c-9.92,3.6-23.09,10.31-29.56,21.83c-3.2,5.72-7.84,10.51-13.78,14.25c-4.7,2.97-10.3,5.28-16.64,6.89
				c-5.7,1.44-10.76,2.01-14,2.23C315.42,268.36,313.64,268.39,312.67,268.39z"/>
		</g>
		<g>
			<linearGradient id="SVGID_50_" gradientUnits="userSpaceOnUse" x1="311.8228" y1="246.061" x2="411.8877" y2="246.061">
				<stop  offset="0" style="stop-color:#3366CC"/>
				<stop  offset="1" style="stop-color:#669BE8"/>
			</linearGradient>
			<path class="st50" d="M409.81,271.63c-2.81,0-8.26-0.34-14.89-2.43c-8.89-2.78-21.89-9.26-33.35-24.33
				c-8.87-11.66-21.9-17.44-31.27-20.25c-5.51-1.65-10.17-2.48-13.11-2.88c-3.29-0.46-5.35-0.55-5.37-0.55l0.03-0.69
				c0.02,0,2.11,0.1,5.43,0.56c2.97,0.41,7.67,1.24,13.22,2.9c9.47,2.83,22.64,8.68,31.62,20.49c11.35,14.93,24.21,21.34,33,24.09
				c9.6,3.03,16.62,2.33,16.69,2.33l0.07,0.69C411.87,271.55,411.12,271.63,409.81,271.63z"/>
		</g>
		<g>
			<linearGradient id="SVGID_51_" gradientUnits="userSpaceOnUse" x1="372.6128" y1="244.6592" x2="373.3022" y2="244.6592">
				<stop  offset="0" style="stop-color:#3366CC"/>
				<stop  offset="1" style="stop-color:#669BE8"/>
			</linearGradient>
			<rect x="372.61" y="232.56" class="st51" width="0.69" height="24.2"/>
		</g>
		<g>
			<linearGradient id="SVGID_52_" gradientUnits="userSpaceOnUse" x1="389.2817" y1="245.1179" x2="389.9712" y2="245.1179">
				<stop  offset="0" style="stop-color:#3366CC"/>
				<stop  offset="1" style="stop-color:#669BE8"/>
			</linearGradient>
			<rect x="389.28" y="223.23" class="st52" width="0.69" height="43.78"/>
		</g>
		<g>
			<linearGradient id="SVGID_53_" gradientUnits="userSpaceOnUse" x1="403.9302" y1="244.8958" x2="404.6196" y2="244.8958">
				<stop  offset="0" style="stop-color:#3366CC"/>
				<stop  offset="1" style="stop-color:#669BE8"/>
			</linearGradient>
			<rect x="403.93" y="218.75" class="st53" width="0.69" height="52.28"/>
		</g>
		<g>
			<linearGradient id="SVGID_54_" gradientUnits="userSpaceOnUse" x1="350.3872" y1="245.5264" x2="351.0767" y2="245.5264">
				<stop  offset="0" style="stop-color:#3366CC"/>
				<stop  offset="1" style="stop-color:#669BE8"/>
			</linearGradient>
			<rect x="350.39" y="233.76" class="st54" width="0.69" height="23.53"/>
		</g>
		<g>
			<linearGradient id="SVGID_55_" gradientUnits="userSpaceOnUse" x1="336.2441" y1="245.5059" x2="336.9336" y2="245.5059">
				<stop  offset="0" style="stop-color:#3366CC"/>
				<stop  offset="1" style="stop-color:#669BE8"/>
			</linearGradient>
			<rect x="336.24" y="226.29" class="st55" width="0.69" height="38.44"/>
		</g>
		<g>
			<linearGradient id="SVGID_56_" gradientUnits="userSpaceOnUse" x1="322.6055" y1="245.0669" x2="323.2949" y2="245.0669">
				<stop  offset="0" style="stop-color:#3366CC"/>
				<stop  offset="1" style="stop-color:#669BE8"/>
			</linearGradient>
			<rect x="322.61" y="222.48" class="st56" width="0.69" height="45.17"/>
		</g>
	</g>
	<g>
		<g>
			<linearGradient id="SVGID_57_" gradientUnits="userSpaceOnUse" x1="211.7192" y1="241.9114" x2="311.793" y2="241.9114">
				<stop  offset="0" style="stop-color:#3366CC"/>
				<stop  offset="1" style="stop-color:#669BE8"/>
			</linearGradient>
			<path class="st57" d="M214.82,263.32c-1.94,0-3.09-0.06-3.1-0.06l0.04-0.69c0.02,0,2.29,0.12,5.83,0.02
				c5.04-0.15,9.59-0.6,13.89-1.39c6.25-1.13,11.79-2.89,16.45-5.23c5.83-2.94,10.38-6.82,13.53-11.53
				c5.25-7.83,15.32-14.27,29.92-19.15c10.83-3.6,20.24-4.78,20.34-4.79l0.08,0.68c-0.09,0.01-9.44,1.18-20.2,4.76
				c-14.45,4.83-24.4,11.18-29.56,18.88c-3.22,4.81-7.86,8.77-13.8,11.76c-4.72,2.37-10.32,4.15-16.63,5.3
				c-4.33,0.79-8.91,1.25-13.99,1.4C216.56,263.31,215.62,263.32,214.82,263.32z"/>
		</g>
		<g>
			<linearGradient id="SVGID_58_" gradientUnits="userSpaceOnUse" x1="211.7358" y1="247.03" x2="311.7754" y2="247.03">
				<stop  offset="0" style="stop-color:#3366CC"/>
				<stop  offset="1" style="stop-color:#669BE8"/>
			</linearGradient>
			<path class="st58" d="M310.48,268.41c-0.82,0-2.01-0.03-3.5-0.15c-2.71-0.22-7.02-0.79-12.15-2.28
				c-8.8-2.57-21.73-8.32-33.34-21.12c-3.92-4.31-8.95-7.95-14.95-10.83c-4.81-2.3-10.29-4.14-16.31-5.46
				c-4.11-0.91-8.4-1.55-13.12-1.95c-3.29-0.27-5.35-0.29-5.37-0.29l0-0.69c0.02,0,2.1,0.02,5.42,0.29
				c4.75,0.4,9.07,1.04,13.21,1.96c6.07,1.34,11.61,3.19,16.46,5.52c6.08,2.92,11.19,6.61,15.16,10.99
				c11.5,12.67,24.3,18.37,33.02,20.92c5.07,1.47,9.33,2.04,12.01,2.26c2.92,0.24,4.68,0.12,4.7,0.12l0.05,0.69
				C311.74,268.38,311.29,268.41,310.48,268.41z"/>
		</g>
		<g>
			<linearGradient id="SVGID_59_" gradientUnits="userSpaceOnUse" x1="272.5127" y1="244.6353" x2="273.2021" y2="244.6353">
				<stop  offset="0" style="stop-color:#3366CC"/>
				<stop  offset="1" style="stop-color:#669BE8"/>
			</linearGradient>
			<rect x="272.51" y="234.37" class="st59" width="0.69" height="20.53"/>
		</g>
		<g>
			<linearGradient id="SVGID_60_" gradientUnits="userSpaceOnUse" x1="289.1816" y1="245.0337" x2="289.8711" y2="245.0337">
				<stop  offset="0" style="stop-color:#3366CC"/>
				<stop  offset="1" style="stop-color:#669BE8"/>
			</linearGradient>
			<rect x="289.18" y="226.14" class="st60" width="0.69" height="37.79"/>
		</g>
		<g>
			<linearGradient id="SVGID_61_" gradientUnits="userSpaceOnUse" x1="303.8301" y1="244.8464" x2="304.5195" y2="244.8464">
				<stop  offset="0" style="stop-color:#3366CC"/>
				<stop  offset="1" style="stop-color:#669BE8"/>
			</linearGradient>
			<rect x="303.83" y="221.97" class="st61" width="0.69" height="45.75"/>
		</g>
		<g>
			<linearGradient id="SVGID_62_" gradientUnits="userSpaceOnUse" x1="250.2871" y1="245.3486" x2="250.9766" y2="245.3486">
				<stop  offset="0" style="stop-color:#3366CC"/>
				<stop  offset="1" style="stop-color:#669BE8"/>
			</linearGradient>
			<rect x="250.29" y="235.62" class="st62" width="0.69" height="19.46"/>
		</g>
		<g>
			<linearGradient id="SVGID_63_" gradientUnits="userSpaceOnUse" x1="236.144" y1="245.3164" x2="236.8335" y2="245.3164">
				<stop  offset="0" style="stop-color:#3366CC"/>
				<stop  offset="1" style="stop-color:#669BE8"/>
			</linearGradient>
			<rect x="236.14" y="229.72" class="st63" width="0.69" height="31.19"/>
		</g>
		<g>
			<linearGradient id="SVGID_64_" gradientUnits="userSpaceOnUse" x1="222.5059" y1="244.9512" x2="223.1953" y2="244.9512">
				<stop  offset="0" style="stop-color:#3366CC"/>
				<stop  offset="1" style="stop-color:#669BE8"/>
			</linearGradient>
			<rect x="222.51" y="226.98" class="st64" width="0.69" height="35.95"/>
		</g>
	</g>
	<g>
		<g>
			<linearGradient id="SVGID_65_" gradientUnits="userSpaceOnUse" x1="111.6074" y1="240.9119" x2="211.6934" y2="240.9119">
				<stop  offset="0" style="stop-color:#3366CC"/>
				<stop  offset="1" style="stop-color:#669BE8"/>
			</linearGradient>
			<path class="st65" d="M122.02,256.17c-1.49,0-3-0.02-4.53-0.07c-3.57-0.13-5.86-0.33-5.88-0.33l0.06-0.69
				c0.02,0,2.29,0.2,5.85,0.33c4.85,0.15,9.53,0.06,13.9-0.27c6.21-0.47,11.75-1.47,16.46-2.96c5.8-1.84,10.35-4.48,13.52-7.83
				c2.92-3.07,7.25-5.88,13.25-8.58c4.81-2.16,10.57-4.18,16.65-5.85c5.8-1.61,10.96-2.68,14.26-3.3c3.67-0.68,6.04-0.97,6.06-0.97
				l0.08,0.68c-0.02,0-2.37,0.29-6.02,0.96c-3.29,0.61-8.42,1.68-14.2,3.28c-6.04,1.66-11.77,3.67-16.55,5.82
				c-5.83,2.62-10.22,5.46-13.03,8.42c-3.25,3.44-7.9,6.13-13.81,8.01c-4.76,1.51-10.35,2.52-16.62,2.99
				C128.44,256.06,125.28,256.17,122.02,256.17z"/>
		</g>
		<g>
			<linearGradient id="SVGID_66_" gradientUnits="userSpaceOnUse" x1="111.6191" y1="248.1575" x2="211.6611" y2="248.1575">
				<stop  offset="0" style="stop-color:#3366CC"/>
				<stop  offset="1" style="stop-color:#669BE8"/>
			</linearGradient>
			<path class="st66" d="M211.31,263.26c-0.66,0-2.2-0.03-4.44-0.23c-2.64-0.25-6.88-0.82-12.13-2.14
				c-5.52-1.38-10.98-3.3-16.23-5.73c-6.23-2.86-11.97-6.33-17.07-10.3c-3.95-3.07-8.98-5.54-14.95-7.34
				c-4.92-1.48-10.41-2.53-16.32-3.13c-5.36-0.54-10.1-0.65-13.13-0.66c-3.3,0.01-5.36,0.12-5.38,0.12l-0.04-0.69
				c0.02,0,2.1-0.11,5.42-0.12c3.05,0,7.81,0.12,13.2,0.66c5.96,0.6,11.49,1.66,16.45,3.15c6.05,1.82,11.15,4.33,15.17,7.45
				c5.06,3.94,10.76,7.37,16.94,10.21c5.21,2.4,10.62,4.31,16.11,5.68c5.21,1.31,9.42,1.88,12.03,2.12
				c2.93,0.27,4.69,0.22,4.71,0.23l0.02,0.69C211.64,263.26,211.52,263.26,211.31,263.26z"/>
		</g>
		<g>
			<linearGradient id="SVGID_67_" gradientUnits="userSpaceOnUse" x1="172.4126" y1="244.5979" x2="173.1021" y2="244.5979">
				<stop  offset="0" style="stop-color:#3366CC"/>
				<stop  offset="1" style="stop-color:#669BE8"/>
			</linearGradient>
			<rect x="172.41" y="237.15" class="st67" width="0.69" height="14.89"/>
		</g>
		<g>
			<linearGradient id="SVGID_68_" gradientUnits="userSpaceOnUse" x1="189.0815" y1="244.9011" x2="189.771" y2="244.9011">
				<stop  offset="0" style="stop-color:#3366CC"/>
				<stop  offset="1" style="stop-color:#669BE8"/>
			</linearGradient>
			<rect x="189.08" y="230.69" class="st68" width="0.69" height="28.41"/>
		</g>
		<g>
			<linearGradient id="SVGID_69_" gradientUnits="userSpaceOnUse" x1="203.73" y1="244.7673" x2="204.4194" y2="244.7673">
				<stop  offset="0" style="stop-color:#3366CC"/>
				<stop  offset="1" style="stop-color:#669BE8"/>
			</linearGradient>
			<rect x="203.73" y="227.1" class="st69" width="0.69" height="35.34"/>
		</g>
		<g>
			<linearGradient id="SVGID_70_" gradientUnits="userSpaceOnUse" x1="150.1875" y1="245.0818" x2="150.877" y2="245.0818">
				<stop  offset="0" style="stop-color:#3366CC"/>
				<stop  offset="1" style="stop-color:#669BE8"/>
			</linearGradient>
			<rect x="150.19" y="238.41" class="st70" width="0.69" height="13.34"/>
		</g>
		<g>
			<linearGradient id="SVGID_71_" gradientUnits="userSpaceOnUse" x1="136.0439" y1="245.0356" x2="136.7334" y2="245.0356">
				<stop  offset="0" style="stop-color:#3366CC"/>
				<stop  offset="1" style="stop-color:#669BE8"/>
			</linearGradient>
			<rect x="136.04" y="234.8" class="st71" width="0.69" height="20.47"/>
		</g>
		<g>
			<linearGradient id="SVGID_72_" gradientUnits="userSpaceOnUse" x1="122.4058" y1="244.7815" x2="123.0952" y2="244.7815">
				<stop  offset="0" style="stop-color:#3366CC"/>
				<stop  offset="1" style="stop-color:#669BE8"/>
			</linearGradient>
			<rect x="122.41" y="233.57" class="st72" width="0.69" height="22.42"/>
		</g>
	</g>
	<g>
		<g>
			<linearGradient id="SVGID_73_" gradientUnits="userSpaceOnUse" x1="11.4868" y1="240.3855" x2="111.5962" y2="240.3855">
				<stop  offset="0" style="stop-color:#3366CC"/>
				<stop  offset="1" style="stop-color:#669BE8"/>
			</linearGradient>
			<path class="st73" d="M42.93,247.58c-3.41,0-7.25-0.16-11.61-0.47c-4.89-0.4-9.97-0.94-13.96-1.47c-3.56-0.46-5.85-0.8-5.87-0.8
				l0.1-0.68c0.02,0,2.3,0.34,5.86,0.8c3.98,0.53,9.05,1.07,13.92,1.47c6.59,0.47,11.98,0.58,16.49,0.34
				c5.69-0.31,10.38-1.19,13.55-2.55c2.78-1.18,6.97-2.44,13.19-3.96c5.1-1.24,11-2.54,16.61-3.65c6.51-1.26,11.72-2.12,14.24-2.53
				c3.66-0.59,6.02-0.89,6.05-0.9l0.09,0.68c-0.02,0-2.38,0.31-6.03,0.89c-2.52,0.4-7.72,1.26-14.22,2.52
				c-5.6,1.11-11.49,2.4-16.58,3.64c-6.18,1.51-10.34,2.76-13.09,3.93c-3.29,1.41-7.93,2.28-13.78,2.6
				C46.35,247.54,44.69,247.58,42.93,247.58z"/>
		</g>
		<g>
			<linearGradient id="SVGID_74_" gradientUnits="userSpaceOnUse" x1="11.4858" y1="248.7365" x2="111.5654" y2="248.7365">
				<stop  offset="0" style="stop-color:#3366CC"/>
				<stop  offset="1" style="stop-color:#669BE8"/>
			</linearGradient>
			<path class="st74" d="M111.54,255.76c-0.02,0-1.81-0.07-4.77-0.4c-2.08-0.22-6.41-0.76-12.11-1.83
				c-4.49-0.82-9.78-2.04-16.19-3.72c-5.43-1.43-11.31-3.14-17.02-4.94c-3.97-1.25-9.01-2.04-14.97-2.34
				c-4.85-0.23-10.35-0.13-16.34,0.27c-6.2,0.46-10.9,1.02-13.14,1.31c-3.3,0.41-5.37,0.72-5.39,0.73l-0.1-0.68
				c0.02,0,2.1-0.32,5.41-0.73c2.25-0.29,6.96-0.86,13.18-1.31c6.02-0.41,11.54-0.5,16.43-0.28c6.03,0.31,11.12,1.11,15.15,2.38
				c5.7,1.8,11.58,3.51,16.99,4.93c6.39,1.68,11.67,2.89,16.14,3.71c5.68,1.07,9.99,1.6,12.06,1.83c2.94,0.32,4.71,0.4,4.73,0.4
				L111.54,255.76z"/>
		</g>
		<g>
			<linearGradient id="SVGID_75_" gradientUnits="userSpaceOnUse" x1="72.3125" y1="244.5447" x2="73.002" y2="244.5447">
				<stop  offset="0" style="stop-color:#3366CC"/>
				<stop  offset="1" style="stop-color:#669BE8"/>
			</linearGradient>
			<rect x="72.31" y="241.15" class="st75" width="0.69" height="6.79"/>
		</g>
		<g>
			<linearGradient id="SVGID_76_" gradientUnits="userSpaceOnUse" x1="88.9814" y1="244.7097" x2="89.6709" y2="244.7097">
				<stop  offset="0" style="stop-color:#3366CC"/>
				<stop  offset="1" style="stop-color:#669BE8"/>
			</linearGradient>
			<rect x="88.98" y="237.27" class="st76" width="0.69" height="14.87"/>
		</g>
		<g>
			<linearGradient id="SVGID_77_" gradientUnits="userSpaceOnUse" x1="103.6304" y1="244.6526" x2="104.3198" y2="244.6526">
				<stop  offset="0" style="stop-color:#3366CC"/>
				<stop  offset="1" style="stop-color:#669BE8"/>
			</linearGradient>
			<rect x="103.63" y="234.58" class="st77" width="0.69" height="20.15"/>
		</g>
		<g>
			<linearGradient id="SVGID_78_" gradientUnits="userSpaceOnUse" x1="50.0874" y1="244.6987" x2="50.7769" y2="244.6987">
				<stop  offset="0" style="stop-color:#3366CC"/>
				<stop  offset="1" style="stop-color:#669BE8"/>
			</linearGradient>
			<rect x="50.09" y="242.42" class="st78" width="0.69" height="4.56"/>
		</g>
		<g>
			<linearGradient id="SVGID_79_" gradientUnits="userSpaceOnUse" x1="35.9438" y1="244.6313" x2="36.6333" y2="244.6313">
				<stop  offset="0" style="stop-color:#3366CC"/>
				<stop  offset="1" style="stop-color:#669BE8"/>
			</linearGradient>
			<rect x="35.94" y="242.12" class="st79" width="0.69" height="5.02"/>
		</g>
		<g>
			<linearGradient id="SVGID_80_" gradientUnits="userSpaceOnUse" x1="22.3057" y1="244.5356" x2="22.9951" y2="244.5356">
				<stop  offset="0" style="stop-color:#3366CC"/>
				<stop  offset="1" style="stop-color:#669BE8"/>
			</linearGradient>
			<rect x="22.31" y="243.11" class="st80" width="0.69" height="2.84"/>
		</g>
	</g>
</g>
</svg>
