<?xml version="1.0" encoding="utf-8"?>
<!-- Generator: Adobe Illustrator 25.0.0, SVG Export Plug-In . SVG Version: 6.00 Build 0)  -->
<svg version="1.1" id="Layer_1" xmlns="http://www.w3.org/2000/svg" xmlns:xlink="http://www.w3.org/1999/xlink" x="0px" y="0px"
	 viewBox="0 0 686.06 357.52" style="enable-background:new 0 0 686.06 357.52;" xml:space="preserve">
<path id="_x33_1" d="M683.08,14.18L683.08,14.18c0,4.14-3.38,7.52-7.52,7.52h-61.95c-4.14,0-7.52-3.38-7.52-7.52v0
	c0-4.14,3.38-7.52,7.52-7.52h61.95C679.7,6.66,683.08,10.04,683.08,14.18z"/>
<path id="_x33_0" d="M681.23,49.58L681.23,49.58c-0.43,4.11-4.15,7.13-8.27,6.69l-61.61-6.48c-4.11-0.43-7.13-4.15-6.69-8.27v0
	c0.43-4.11,4.15-7.13,8.27-6.69l61.61,6.48C678.65,41.75,681.66,45.47,681.23,49.58z"/>
<path id="_x32_9" d="M675.68,84.59L675.68,84.59c-0.86,4.05-4.87,6.65-8.92,5.79l-60.59-12.88c-4.05-0.86-6.65-4.87-5.79-8.92v0
	c0.86-4.05,4.87-6.65,8.92-5.79l60.59,12.88C673.93,76.53,676.54,80.55,675.68,84.59z"/>
<path id="_x32_8" d="M666.51,118.83L666.51,118.83c-1.28,3.93-5.54,6.11-9.48,4.83l-58.92-19.14c-3.93-1.28-6.11-5.54-4.83-9.48l0,0
	c1.28-3.93,5.54-6.11,9.48-4.83l58.92,19.14C665.61,110.63,667.78,114.9,666.51,118.83z"/>
<path id="_x32_7" d="M653.8,151.93L653.8,151.93c-1.68,3.78-6.15,5.5-9.93,3.81l-56.59-25.2c-3.78-1.68-5.5-6.15-3.81-9.93l0,0
	c1.68-3.78,6.15-5.5,9.93-3.81l56.59,25.2C653.77,143.68,655.49,148.15,653.8,151.93z"/>
<path id="_x32_6" d="M637.71,183.51L637.71,183.51c-2.07,3.58-6.69,4.82-10.28,2.75l-53.65-30.97c-3.58-2.07-4.82-6.69-2.75-10.28
	l0,0c2.07-3.58,6.69-4.82,10.28-2.75l53.65,30.97C638.54,175.31,639.78,179.93,637.71,183.51z"/>
<path id="_x32_5" d="M618.4,213.24L618.4,213.24c-2.43,3.35-7.16,4.1-10.51,1.66l-50.12-36.41c-3.35-2.43-4.1-7.16-1.66-10.51l0,0
	c2.43-3.35,7.16-4.1,10.51-1.66l50.12,36.41C620.09,205.17,620.83,209.9,618.4,213.24z"/>
<path id="_x32_4" d="M596.09,240.79L596.09,240.79c-2.77,3.07-7.55,3.33-10.62,0.56l-46.04-41.45c-3.07-2.77-3.33-7.55-0.56-10.62h0
	c2.77-3.07,7.55-3.33,10.62-0.56l46.04,41.45C598.61,232.94,598.86,237.72,596.09,240.79z"/>
<path id="_x32_3" d="M571.03,265.86L571.03,265.86c-3.07,2.77-7.85,2.52-10.62-0.56l-41.45-46.04c-2.77-3.07-2.52-7.85,0.56-10.62
	l0,0c3.07-2.77,7.85-2.52,10.62,0.56l41.45,46.04C574.35,258.31,574.1,263.09,571.03,265.86z"/>
<path id="_x32_2" d="M543.48,288.17L543.48,288.17c-3.35,2.43-8.08,1.68-10.51-1.66l-36.41-50.12c-2.43-3.35-1.68-8.08,1.66-10.51h0
	c3.35-2.43,8.08-1.68,10.51,1.66l36.41,50.12C547.58,281.01,546.83,285.73,543.48,288.17z"/>
<path id="_x32_1" d="M513.75,307.47L513.75,307.47c-3.58,2.07-8.21,0.83-10.28-2.75l-30.97-53.65c-2.07-3.58-0.83-8.21,2.75-10.28v0
	c3.58-2.07,8.21-0.83,10.28,2.75l30.97,53.65C518.57,300.78,517.33,305.4,513.75,307.47z"/>
<path id="_x32_0" d="M482.16,323.57L482.16,323.57c-3.78,1.68-8.25-0.03-9.93-3.81l-25.2-56.59c-1.68-3.78,0.03-8.25,3.81-9.93l0,0
	c3.78-1.68,8.25,0.03,9.93,3.81l25.2,56.59C487.66,317.41,485.94,321.88,482.16,323.57z"/>
<path id="_x31_9" d="M449.07,336.27L449.07,336.27c-3.93,1.28-8.2-0.89-9.48-4.83l-19.14-58.92c-1.28-3.93,0.89-8.2,4.83-9.48h0
	c3.93-1.28,8.2,0.89,9.48,4.83l19.14,58.92C455.18,330.73,453.01,334.99,449.07,336.27z"/>
<path id="_x31_8" d="M414.83,345.44L414.83,345.44c-4.05,0.86-8.06-1.75-8.92-5.79l-12.88-60.59c-0.86-4.05,1.75-8.06,5.79-8.92h0
	c4.05-0.86,8.06,1.75,8.92,5.79l12.88,60.59C421.48,340.57,418.88,344.58,414.83,345.44z"/>
<path id="_x31_7" d="M379.82,350.99L379.82,350.99c-4.11,0.43-7.83-2.58-8.27-6.69l-6.48-61.61c-0.43-4.11,2.58-7.83,6.69-8.27h0
	c4.11-0.43,7.83,2.58,8.27,6.69l6.48,61.61C386.94,346.84,383.93,350.56,379.82,350.99z"/>
<path id="_x31_6" d="M344.42,352.84L344.42,352.84c-4.14,0-7.52-3.38-7.52-7.52v-61.95c0-4.14,3.38-7.52,7.52-7.52h0
	c4.14,0,7.52,3.38,7.52,7.52v61.95C351.94,349.46,348.55,352.84,344.42,352.84z"/>
<path id="_x31_5" d="M309.02,350.99L309.02,350.99c-4.11-0.43-7.13-4.15-6.69-8.27l6.48-61.61c0.43-4.11,4.15-7.13,8.27-6.69h0
	c4.11,0.43,7.13,4.15,6.69,8.27l-6.48,61.61C316.85,348.41,313.13,351.42,309.02,350.99z"/>
<path id="_x31_4" d="M274.01,345.44L274.01,345.44c-4.05-0.86-6.65-4.87-5.79-8.92l12.88-60.59c0.86-4.05,4.87-6.65,8.92-5.79h0
	c4.05,0.86,6.65,4.87,5.79,8.92l-12.88,60.59C282.07,343.7,278.05,346.3,274.01,345.44z"/>
<path id="_x31_3" d="M239.76,336.27L239.76,336.27c-3.93-1.28-6.11-5.54-4.83-9.48l19.14-58.92c1.28-3.93,5.54-6.11,9.48-4.83h0
	c3.93,1.28,6.11,5.54,4.83,9.48l-19.14,58.92C247.96,335.37,243.7,337.55,239.76,336.27z"/>
<path id="_x31_2" d="M206.67,323.57L206.67,323.57c-3.78-1.68-5.5-6.15-3.81-9.93l25.2-56.59c1.68-3.78,6.15-5.49,9.93-3.81l0,0
	c3.78,1.68,5.5,6.15,3.81,9.93l-25.2,56.59C214.92,323.53,210.45,325.25,206.67,323.57z"/>
<path id="_x31_1" d="M175.09,307.47L175.09,307.47c-3.58-2.07-4.82-6.69-2.75-10.28l30.97-53.65c2.07-3.58,6.69-4.82,10.28-2.75l0,0
	c3.58,2.07,4.82,6.69,2.75,10.28l-30.97,53.65C183.29,308.3,178.67,309.54,175.09,307.47z"/>
<path id="_x31_0" d="M145.36,288.17L145.36,288.17c-3.35-2.43-4.1-7.16-1.66-10.51l36.41-50.12c2.43-3.35,7.16-4.1,10.51-1.66h0
	c3.35,2.43,4.1,7.16,1.66,10.51l-36.41,50.12C153.43,289.85,148.7,290.6,145.36,288.17z"/>
<path id="_x39_" d="M117.81,265.86L117.81,265.86c-3.07-2.77-3.33-7.55-0.56-10.62l41.45-46.04c2.77-3.07,7.55-3.33,10.62-0.56l0,0
	c3.07,2.77,3.33,7.55,0.56,10.62l-41.45,46.04C125.66,268.37,120.88,268.63,117.81,265.86z"/>
<path id="_x38_" d="M92.74,240.79L92.74,240.79c-2.77-3.07-2.52-7.86,0.56-10.62l46.04-41.45c3.07-2.77,7.85-2.52,10.62,0.56h0
	c2.77,3.07,2.52,7.85-0.56,10.62l-46.04,41.45C100.29,244.12,95.51,243.87,92.74,240.79z"/>
<path id="_x37_" d="M70.43,213.24L70.43,213.24c-2.43-3.35-1.68-8.08,1.66-10.51l50.12-36.41c3.35-2.43,8.08-1.68,10.51,1.66l0,0
	c2.43,3.35,1.68,8.08-1.66,10.51l-50.12,36.41C77.59,217.34,72.86,216.59,70.43,213.24z"/>
<path id="_x36_" d="M51.13,183.51L51.13,183.51c-2.07-3.58-0.83-8.21,2.75-10.28l53.65-30.97c3.58-2.07,8.21-0.83,10.28,2.75l0,0
	c2.07,3.58,0.83,8.21-2.75,10.28L61.4,186.27C57.82,188.33,53.19,187.1,51.13,183.51z"/>
<path id="_x35_" d="M35.03,151.93L35.03,151.93c-1.68-3.78,0.03-8.25,3.81-9.93l56.59-25.2c3.78-1.68,8.25,0.03,9.93,3.81l0,0
	c1.68,3.78-0.03,8.25-3.81,9.93l-56.59,25.2C41.18,157.42,36.72,155.71,35.03,151.93z"/>
<path id="_x34_" d="M22.33,118.83L22.33,118.83c-1.28-3.93,0.89-8.2,4.83-9.48l58.92-19.14c3.93-1.28,8.2,0.89,9.48,4.83v0
	c1.28,3.93-0.89,8.2-4.83,9.48l-58.92,19.14C27.87,124.94,23.61,122.77,22.33,118.83z"/>
<path id="_x33_" d="M13.15,84.59L13.15,84.59c-0.86-4.05,1.75-8.06,5.79-8.92l60.59-12.88c4.05-0.86,8.06,1.75,8.92,5.79v0
	c0.86,4.05-1.75,8.06-5.79,8.92L22.08,90.39C18.03,91.25,14.01,88.64,13.15,84.59z"/>
<path id="_x32_" d="M7.61,49.58L7.61,49.58c-0.43-4.11,2.58-7.83,6.69-8.27l61.61-6.48c4.11-0.43,7.83,2.58,8.27,6.69v0
	c0.43,4.11-2.58,7.83-6.69,8.27l-61.61,6.48C11.76,56.71,8.04,53.7,7.61,49.58z"/>
<path id="_x31__1_" d="M5.75,14.18L5.75,14.18c0-4.14,3.38-7.52,7.52-7.52h61.95c4.14,0,7.52,3.38,7.52,7.52v0
	c0,4.14-3.38,7.52-7.52,7.52H13.28C9.14,21.7,5.75,18.32,5.75,14.18z"/>
<path id="arch" style="fill:none;stroke:red;stroke-miterlimit:10;" d="M646.23,6.66c0,166.69-135.13,301.82-301.82,301.82
	S42.6,173.35,42.6,6.66"/>
</svg>
