<?xml version="1.0" encoding="utf-8"?>
<!-- Generator: Adobe Illustrator 22.1.0, SVG Export Plug-In . SVG Version: 6.00 Build 0)  -->
<svg version="1.1" id="Layer_1" xmlns="http://www.w3.org/2000/svg" xmlns:xlink="http://www.w3.org/1999/xlink" x="0px" y="0px"
	 viewBox="0 0 1501 237" style="enable-background:new 0 0 1501 237;" xml:space="preserve">
<style type="text/css">
	.st0{fill:none;}
	.st1{fill:none;stroke:#5B5B5B;stroke-width:9;stroke-linejoin:round;}
	.st2{font-family:'RechargeRg-Bold';}
	.st3{font-size:100.6864px;}
	.st4{enable-background:new    ;}
	.st5{fill:#FFFFFF;}
	.st6{fill:#FF8E39;}
	.st7{fill:url(#SVGID_1_);}
	.st8{fill:url(#SVGID_2_);}
	.st9{fill:#FD7400;}
	.st10{fill:url(#SVGID_3_);}
	.st11{fill:#CC6633;}
	.st12{fill:#B3B3B3;}
	.st13{fill:#E6E6E6;}
	.st14{fill:#808080;}
	.st15{fill:url(#SVGID_4_);}
	.st16{fill:url(#SVGID_5_);}
	.st17{fill:url(#SVGID_6_);}
	.st18{fill:url(#SVGID_7_);}
	.st19{fill:url(#SVGID_8_);}
	.st20{fill:url(#SVGID_9_);}
</style>
<rect x="226.4" y="71.3" class="st0" width="826.4" height="107.9"/>
<g>
	<text transform="matrix(1 0 0 1 226.3585 149.8564)" class="st1 st2 st3">My</text>
	<text transform="matrix(1 0 0 1 431.131 149.8564)" class="st1 st2 st3">Chem</text>
	<text transform="matrix(1 0 0 1 792.0333 149.8564)" class="st1 st2 st3">.info</text>
</g>
<g>
	<g class="st4">
		<path class="st5" d="M331.1,149.9V94.8c0-1.1-0.5-1.6-1.5-1.6h-1.1c-0.9,0-1.5,0.4-1.8,1.3l-20,53.1c-0.3,0.9-0.8,1.6-1.4,1.9
			s-1.4,0.5-2.5,0.5h-23.9c-1.1,0-2-0.2-2.6-0.5c-0.6-0.3-1-0.9-1.4-1.9L255,94.5c-0.3-0.9-1-1.3-1.9-1.3h-1c-1.1,0-1.6,0.5-1.6,1.6
			v55.1H231V79.6c0-2,0.9-3,2.8-3h33.1c2.1,0,3.6,0.9,4.2,2.7l18,52.4c0.1,0.4,0.4,0.6,1,0.6h1.8c0.4,0,0.7-0.2,0.8-0.6l18.1-52.4
			c0.3-0.9,0.8-1.5,1.5-2c0.6-0.5,1.5-0.7,2.7-0.7h32.7c1.9,0,2.8,1,2.8,3v70.3H331.1z"/>
		<path class="st5" d="M407.3,143.3h0.7V94.6h18.3V151c0,3.2-0.4,6.2-1.2,8.8c-0.8,2.7-2,4.9-3.8,6.8c-1.7,1.9-4.1,3.3-6.9,4.4
			c-2.9,1-6.4,1.6-10.7,1.6h-42v-15.4h39.2c2.6,0,4.4-0.6,5.5-1.8c1-1.2,1.6-3,1.6-5.6v-4.4h-26.1c-8.3,0-14.1-1.7-17.5-5
			c-3.4-3.3-5.1-8.4-5.1-15.2V94.6h18.3v28.2c0,3,0.6,5.1,1.7,6.2c1.1,1.1,3.2,1.7,6,1.7h17L407.3,143.3z"/>
	</g>
	<g class="st4">
		<path class="st6" d="M503.3,105.8h-0.8v-9.9c0-0.7-0.3-1-0.9-1h-35c-4,0-6.9,0.8-8.5,2.5c-1.6,1.7-2.5,4.8-2.5,9.3v12.3
			c0,4.4,0.8,7.4,2.4,9.2c1.6,1.8,4.5,2.7,8.6,2.7h54.9v19h-56.7c-5.4,0-10.1-0.7-13.9-2.1c-3.8-1.4-6.9-3.3-9.3-5.8
			c-2.4-2.5-4.1-5.6-5.1-9.2c-1.1-3.6-1.6-7.6-1.6-12v-15.1c0-4.4,0.5-8.4,1.6-12c1.1-3.6,2.8-6.6,5.1-9.2c2.3-2.5,5.4-4.5,9.3-5.8
			c3.8-1.4,8.5-2.1,13.9-2.1h54.9c1.9,0,2.9,1,2.9,3v19L503.3,105.8z"/>
		<path class="st6" d="M530.7,71.3h18.2v23.3h26.9c4.1,0,7.6,0.5,10.5,1.6c2.9,1,5.2,2.5,7,4.4c1.8,1.9,3.1,4.2,3.9,6.9
			c0.8,2.7,1.2,5.7,1.2,9.1v33.3h-18.2v-32.1c0-3.2-0.7-5.5-2-6.7c-1.3-1.3-3.2-1.9-5.8-1.9h-19.7l-3-8.1h-0.7v48.8h-18.2V71.3z"/>
		<path class="st6" d="M625.5,118.3h-0.7v8.6c0,3.2,0.5,5.3,1.6,6.5c1.1,1.2,3.1,1.8,6,1.8h39.4v14.7H629c-4.1,0-7.6-0.5-10.4-1.6
			c-2.9-1-5.2-2.5-7-4.4s-3.1-4.2-3.9-6.9c-0.8-2.7-1.2-5.7-1.2-9.1v-11.4c0-3.4,0.4-6.4,1.2-9.1c0.8-2.7,2.1-5,3.9-6.9
			s4.1-3.4,7-4.4c2.9-1,6.3-1.6,10.4-1.6h31.9c4.2,0,7.2,1.1,9.1,3.3c1.8,2.2,2.7,5.6,2.7,10.2v5.3c0,4.1-0.9,7.3-2.7,9.8
			c-1.8,2.4-4.8,3.6-9.1,3.6h-32.3L625.5,118.3z M624.7,115.6h27.8c2.1,0,3.1-1.1,3.1-3.2v-2c0-1.1-0.3-1.9-0.8-2.4
			c-0.5-0.5-1.3-0.7-2.4-0.7h-20.1c-2.8,0-4.8,0.6-5.9,1.8c-1.1,1.2-1.7,3.3-1.7,6.3V115.6z"/>
		<path class="st6" d="M736.7,94.6h28.5c4.1,0,7.6,0.5,10.5,1.6c2.9,1,5.2,2.5,7,4.4c1.8,1.9,3.1,4.2,3.9,6.9
			c0.8,2.7,1.2,5.7,1.2,9.1v33.3h-18.2v-32.2c0-3.2-0.6-5.5-1.8-6.7c-1.2-1.2-3.2-1.9-5.8-1.9h-17.1c0.7,2.1,1,4.6,1,7.5v33.3h-18.2
			v-32.2c0-3.2-0.6-5.5-1.8-6.7c-1.2-1.2-3.2-1.9-5.8-1.9h-17.5l-3-8.1h-0.7v48.8h-18.2V94.6h42.8c4,0,7.2,0.5,9.9,1.6
			c2.6,1,4.9,2.5,6.7,4.3l0.4-0.3c-0.6-0.7-1.2-1.5-1.8-2.3c-0.6-0.8-1.2-1.6-1.7-2.5V94.6z"/>
	</g>
	<g class="st4">
		<path class="st5" d="M796.7,149.9v-16.7h18.2v16.7H796.7z"/>
		<path class="st5" d="M824.3,85.9V71.3h18.2v14.6H824.3z M824.3,149.9V94.6h18.2v55.3H824.3z"/>
		<path class="st5" d="M851.8,94.6h45.1c4.1,0,7.6,0.5,10.5,1.6c2.9,1,5.2,2.5,7,4.4c1.8,1.9,3.1,4.2,3.9,6.9
			c0.8,2.7,1.2,5.7,1.2,9.1v33.3h-18.2v-32.1c0-3.2-0.6-5.5-1.8-6.7c-1.2-1.3-3.2-1.9-5.9-1.9h-19.7l-3-8.1h-0.7v48.8h-18.2V94.6z"
			/>
		<path class="st5" d="M967.7,108.5h-16.1v41.4h-18.2v-41.4h-7.5l-4.8-13.1v-0.8h12.3v-6.6c0-3.3,0.3-6,1-8.1
			c0.7-2.1,1.8-3.8,3.4-5.1c1.6-1.3,3.7-2.2,6.2-2.7c2.6-0.5,5.8-0.8,9.6-0.8h8.2l4.9,12.4v0.9H956c-1.7,0-2.9,0.4-3.5,1.2
			c-0.6,0.8-0.9,2.1-0.9,3.9v4.9h16.1V108.5z"/>
		<path class="st5" d="M1043.5,127.9c0,3.4-0.4,6.4-1.2,9.1c-0.8,2.7-2.1,5-3.9,6.9s-4.2,3.4-7,4.4c-2.9,1-6.4,1.6-10.5,1.6h-26.6
			c-4.1,0-7.6-0.5-10.4-1.6c-2.9-1-5.2-2.5-7-4.4s-3.1-4.2-3.9-6.9c-0.8-2.7-1.2-5.7-1.2-9.1v-11.4c0-3.3,0.4-6.3,1.2-9
			s2.1-5,3.9-6.9s4.1-3.4,7-4.4c2.9-1,6.3-1.6,10.4-1.6h26.6c4.1,0,7.6,0.5,10.5,1.6c2.9,1,5.2,2.5,7,4.4s3.1,4.2,3.9,6.9
			s1.2,5.7,1.2,9V127.9z M1017.6,133.6c2.9,0,4.9-0.6,6-1.7c1.1-1.1,1.7-3.3,1.7-6.4v-7.8c0-3.4-0.6-5.6-1.8-6.8
			c-1.2-1.2-3.2-1.8-6-1.8h-19.8c-2.9,0-4.9,0.6-6,1.9c-1.1,1.2-1.7,3.5-1.7,6.8v7.8c0,3.2,0.6,5.3,1.7,6.4c1.1,1.1,3.1,1.7,6,1.7
			H1017.6z"/>
	</g>
</g>
<g class="st4">
	<g>
		<g>
			<g>
				<g>
					<polygon class="st1" points="126.9,85.4 105.8,116.1 76.3,116.1 97.4,85.4 					"/>
				</g>
				<g>
					<polygon class="st1" points="126.9,85.4 105.8,116.1 76.3,116.1 97.4,85.4 					"/>
				</g>
				<g>
					<polygon class="st1" points="126.9,85.4 105.8,116.1 76.3,116.1 97.4,85.4 					"/>
				</g>
			</g>
			<g>
				<g>
					<polygon class="st1" points="127.2,85.5 148.9,116.6 127.2,147.7 105.9,116.6 					"/>
				</g>
				<g>
					<polygon class="st1" points="127.2,85.5 148.9,116.6 127.2,147.7 105.9,116.6 					"/>
				</g>
				<g>
					<polygon class="st1" points="127.2,85.5 148.9,116.6 127.2,147.7 105.9,116.6 					"/>
				</g>
			</g>
			<g>
				<polygon class="st1" points="105.8,116.9 126.9,147.6 97.4,147.6 76.3,116.9 				"/>
			</g>
		</g>
		<g>
			<g>
				<polygon class="st1" points="126.9,23.1 105.8,53.8 76.3,53.8 97.4,23.1 				"/>
			</g>
			<g>
				<polygon class="st1" points="127.2,23.2 148.9,54.3 127.2,85.5 105.9,54.3 				"/>
			</g>
			<g>
				<polygon class="st1" points="105.9,53.8 127.6,85.4 97.2,85.4 75.6,53.8 				"/>
			</g>
		</g>
		<g>
			<g>
				<polygon class="st1" points="126.9,147.6 105.8,178.3 76.3,178.3 97.4,147.6 				"/>
			</g>
			<g>
				<polygon class="st1" points="127.2,147.7 148.9,178.8 127.2,210 105.9,178.8 				"/>
			</g>
			<g>
				<polygon class="st1" points="105.9,178.3 127.6,209.9 97.2,209.9 75.6,178.3 				"/>
			</g>
		</g>
		<g>
			<g>
				<polygon class="st1" points="178.4,116.9 157.3,147.6 127.7,147.6 148.8,116.9 				"/>
			</g>
			<g>
				<polygon class="st1" points="178.8,116.6 200.3,147.7 178.8,178.9 157.4,147.7 				"/>
			</g>
			<g>
				<polygon class="st1" points="157.4,147.6 179.1,179.2 148.7,179.2 127,147.6 				"/>
			</g>
		</g>
		<g>
			<g>
				<polygon class="st1" points="178.2,54.7 157.2,85.4 127.6,85.4 148.7,54.7 				"/>
			</g>
			<g>
				<polygon class="st1" points="178.6,54.3 200.2,85.4 178.6,116.6 157.3,85.4 				"/>
			</g>
			<g>
				<polygon class="st1" points="157.3,85.4 178.9,116.9 148.6,116.9 126.9,85.4 				"/>
			</g>
		</g>
		<g>
			<g>
				<g>
					<polygon class="st1" points="76,116.9 55,147.6 25.3,147.6 46.4,116.9 					"/>
				</g>
				<g>
					<polygon class="st1" points="76,116.9 55,147.6 25.3,147.6 46.4,116.9 					"/>
				</g>
				<g>
					<polygon class="st1" points="76,116.9 55,147.6 25.3,147.6 46.4,116.9 					"/>
				</g>
			</g>
			<g>
				<g>
					<polygon class="st1" points="76.3,116.6 98,147.7 76.3,178.9 55,147.7 					"/>
				</g>
				<g>
					<polygon class="st1" points="76.3,116.6 98,147.7 76.3,178.9 55,147.7 					"/>
				</g>
				<g>
					<polygon class="st1" points="76.3,116.6 98,147.7 76.3,178.9 55,147.7 					"/>
				</g>
			</g>
			<g>
				<polygon class="st1" points="55.1,147.6 76.6,179.2 46.3,179.2 24.7,147.6 				"/>
			</g>
		</g>
		<g>
			<g>
				<g>
					<polygon class="st1" points="75.9,54.7 54.8,85.4 25.2,85.4 46.3,54.7 					"/>
				</g>
				<g>
					<polygon class="st1" points="75.9,54.7 54.8,85.4 25.2,85.4 46.3,54.7 					"/>
				</g>
				<g>
					<polygon class="st1" points="75.9,54.7 54.8,85.4 25.2,85.4 46.3,54.7 					"/>
				</g>
			</g>
			<g>
				<g>
					<polygon class="st1" points="76.2,54.3 97.9,85.4 76.2,116.6 54.8,85.4 					"/>
				</g>
				<g>
					<polygon class="st1" points="76.2,54.3 97.9,85.4 76.2,116.6 54.8,85.4 					"/>
				</g>
				<g>
					<polygon class="st1" points="76.2,54.3 97.9,85.4 76.2,116.6 54.8,85.4 					"/>
				</g>
			</g>
			<g>
				<polygon class="st1" points="54.9,85.4 76.5,116.9 46.2,116.9 24.6,85.4 				"/>
			</g>
		</g>
	</g>
	<g>
		<g>
			<g>
				<g>
					
						<linearGradient id="SVGID_1_" gradientUnits="userSpaceOnUse" x1="-278.2" y1="1112.25" x2="-227.5447" y2="1112.25" gradientTransform="matrix(1 0 0 1 354.5 -1011.5)">
						<stop  offset="0" style="stop-color:#FD7400"/>
						<stop  offset="1" style="stop-color:#FF8E39"/>
					</linearGradient>
					<polygon class="st7" points="126.9,85.4 105.8,116.1 76.3,116.1 97.4,85.4 					"/>
				</g>
				<g>
					
						<linearGradient id="SVGID_2_" gradientUnits="userSpaceOnUse" x1="-80.2" y1="1107.8713" x2="-29.5447" y2="1107.8713" gradientTransform="matrix(1 0 0 1 156.5 -1007.1213)">
						<stop  offset="0" style="stop-color:#FD7400"/>
						<stop  offset="1" style="stop-color:#FF8E39"/>
					</linearGradient>
					<polygon class="st8" points="126.9,85.4 105.8,116.1 76.3,116.1 97.4,85.4 					"/>
				</g>
				<g>
					<polygon class="st9" points="126.9,85.4 105.8,116.1 76.3,116.1 97.4,85.4 					"/>
				</g>
			</g>
			<g>
				<g>
					
						<linearGradient id="SVGID_3_" gradientUnits="userSpaceOnUse" x1="-248.6" y1="1128.1" x2="-205.6" y2="1128.1" gradientTransform="matrix(1 0 0 1 354.5 -1011.5)">
						<stop  offset="0" style="stop-color:#FF8E39;stop-opacity:0"/>
						<stop  offset="0.1239" style="stop-color:#FF913E;stop-opacity:0.1239"/>
						<stop  offset="0.2664" style="stop-color:#FF994C;stop-opacity:0.2664"/>
						<stop  offset="0.4183" style="stop-color:#FFA663;stop-opacity:0.4183"/>
						<stop  offset="0.5766" style="stop-color:#FFB883;stop-opacity:0.5766"/>
						<stop  offset="0.7399" style="stop-color:#FFD0AD;stop-opacity:0.7399"/>
						<stop  offset="0.9051" style="stop-color:#FFEDDF;stop-opacity:0.9051"/>
						<stop  offset="1" style="stop-color:#FFFFFF"/>
					</linearGradient>
					<polygon class="st10" points="127.2,85.5 148.9,116.6 127.2,147.7 105.9,116.6 					"/>
				</g>
				<g>
					<polygon class="st6" points="127.2,85.5 148.9,116.6 127.2,147.7 105.9,116.6 					"/>
				</g>
				<g>
					<polygon class="st6" points="127.2,85.5 148.9,116.6 127.2,147.7 105.9,116.6 					"/>
				</g>
			</g>
			<g>
				<polygon class="st11" points="105.8,116.9 126.9,147.6 97.4,147.6 76.3,116.9 				"/>
			</g>
		</g>
		<g>
			<g>
				<polygon class="st12" points="126.9,23.1 105.8,53.8 76.3,53.8 97.4,23.1 				"/>
			</g>
			<g>
				<polygon class="st13" points="127.2,23.2 148.9,54.3 127.2,85.5 105.9,54.3 				"/>
			</g>
			<g>
				<polygon class="st14" points="105.9,53.8 127.6,85.4 97.2,85.4 75.6,53.8 				"/>
			</g>
		</g>
		<g>
			<g>
				<polygon class="st12" points="126.9,147.6 105.8,178.3 76.3,178.3 97.4,147.6 				"/>
			</g>
			<g>
				<polygon class="st13" points="127.2,147.7 148.9,178.8 127.2,210 105.9,178.8 				"/>
			</g>
			<g>
				<polygon class="st14" points="105.9,178.3 127.6,209.9 97.2,209.9 75.6,178.3 				"/>
			</g>
		</g>
		<g>
			<g>
				<polygon class="st12" points="178.4,116.9 157.3,147.6 127.7,147.6 148.8,116.9 				"/>
			</g>
			<g>
				<polygon class="st13" points="178.8,116.6 200.3,147.7 178.8,178.9 157.4,147.7 				"/>
			</g>
			<g>
				<polygon class="st14" points="157.4,147.6 179.1,179.2 148.7,179.2 127,147.6 				"/>
			</g>
		</g>
		<g>
			<g>
				<polygon class="st12" points="178.2,54.7 157.2,85.4 127.6,85.4 148.7,54.7 				"/>
			</g>
			<g>
				<polygon class="st13" points="178.6,54.3 200.2,85.4 178.6,116.6 157.3,85.4 				"/>
			</g>
			<g>
				<polygon class="st14" points="157.3,85.4 178.9,116.9 148.6,116.9 126.9,85.4 				"/>
			</g>
		</g>
		<g>
			<g>
				<g>
					
						<linearGradient id="SVGID_4_" gradientUnits="userSpaceOnUse" x1="-329.2" y1="1143.75" x2="-278.5" y2="1143.75" gradientTransform="matrix(1 0 0 1 354.5 -1011.5)">
						<stop  offset="0" style="stop-color:#FD7400"/>
						<stop  offset="1" style="stop-color:#FF8E39"/>
					</linearGradient>
					<polygon class="st15" points="76,116.9 55,147.6 25.3,147.6 46.4,116.9 					"/>
				</g>
				<g>
					
						<linearGradient id="SVGID_5_" gradientUnits="userSpaceOnUse" x1="-131.2" y1="1139.3713" x2="-80.5" y2="1139.3713" gradientTransform="matrix(1 0 0 1 156.5 -1007.1213)">
						<stop  offset="0" style="stop-color:#FD7400"/>
						<stop  offset="1" style="stop-color:#FF8E39"/>
					</linearGradient>
					<polygon class="st16" points="76,116.9 55,147.6 25.3,147.6 46.4,116.9 					"/>
				</g>
				<g>
					<polygon class="st9" points="76,116.9 55,147.6 25.3,147.6 46.4,116.9 					"/>
				</g>
			</g>
			<g>
				<g>
					
						<linearGradient id="SVGID_6_" gradientUnits="userSpaceOnUse" x1="-299.5" y1="1159.25" x2="-256.5539" y2="1159.25" gradientTransform="matrix(1 0 0 1 354.5 -1011.5)">
						<stop  offset="0" style="stop-color:#FF8E39;stop-opacity:0"/>
						<stop  offset="0.1239" style="stop-color:#FF913E;stop-opacity:0.1239"/>
						<stop  offset="0.2664" style="stop-color:#FF994C;stop-opacity:0.2664"/>
						<stop  offset="0.4183" style="stop-color:#FFA663;stop-opacity:0.4183"/>
						<stop  offset="0.5766" style="stop-color:#FFB883;stop-opacity:0.5766"/>
						<stop  offset="0.7399" style="stop-color:#FFD0AD;stop-opacity:0.7399"/>
						<stop  offset="0.9051" style="stop-color:#FFEDDF;stop-opacity:0.9051"/>
						<stop  offset="1" style="stop-color:#FFFFFF"/>
					</linearGradient>
					<polygon class="st17" points="76.3,116.6 98,147.7 76.3,178.9 55,147.7 					"/>
				</g>
				<g>
					<polygon class="st6" points="76.3,116.6 98,147.7 76.3,178.9 55,147.7 					"/>
				</g>
				<g>
					<polygon class="st6" points="76.3,116.6 98,147.7 76.3,178.9 55,147.7 					"/>
				</g>
			</g>
			<g>
				<polygon class="st11" points="55.1,147.6 76.6,179.2 46.3,179.2 24.7,147.6 				"/>
			</g>
		</g>
		<g>
			<g>
				<g>
					
						<linearGradient id="SVGID_7_" gradientUnits="userSpaceOnUse" x1="-329.3" y1="1081.55" x2="-278.6" y2="1081.55" gradientTransform="matrix(1 0 0 1 354.5 -1011.5)">
						<stop  offset="0" style="stop-color:#FD7400"/>
						<stop  offset="1" style="stop-color:#FF8E39"/>
					</linearGradient>
					<polygon class="st18" points="75.9,54.7 54.8,85.4 25.2,85.4 46.3,54.7 					"/>
				</g>
				<g>
					
						<linearGradient id="SVGID_8_" gradientUnits="userSpaceOnUse" x1="-131.3" y1="1077.1713" x2="-80.6" y2="1077.1713" gradientTransform="matrix(1 0 0 1 156.5 -1007.1213)">
						<stop  offset="0" style="stop-color:#FD7400"/>
						<stop  offset="1" style="stop-color:#FF8E39"/>
					</linearGradient>
					<polygon class="st19" points="75.9,54.7 54.8,85.4 25.2,85.4 46.3,54.7 					"/>
				</g>
				<g>
					<polygon class="st9" points="75.9,54.7 54.8,85.4 25.2,85.4 46.3,54.7 					"/>
				</g>
			</g>
			<g>
				<g>
					
						<linearGradient id="SVGID_9_" gradientUnits="userSpaceOnUse" x1="-299.7" y1="1096.95" x2="-256.7268" y2="1096.95" gradientTransform="matrix(1 0 0 1 354.5 -1011.5)">
						<stop  offset="0" style="stop-color:#FF8E39;stop-opacity:0"/>
						<stop  offset="0.1239" style="stop-color:#FF913E;stop-opacity:0.1239"/>
						<stop  offset="0.2664" style="stop-color:#FF994C;stop-opacity:0.2664"/>
						<stop  offset="0.4183" style="stop-color:#FFA663;stop-opacity:0.4183"/>
						<stop  offset="0.5766" style="stop-color:#FFB883;stop-opacity:0.5766"/>
						<stop  offset="0.7399" style="stop-color:#FFD0AD;stop-opacity:0.7399"/>
						<stop  offset="0.9051" style="stop-color:#FFEDDF;stop-opacity:0.9051"/>
						<stop  offset="1" style="stop-color:#FFFFFF"/>
					</linearGradient>
					<polygon class="st20" points="76.2,54.3 97.9,85.4 76.2,116.6 54.8,85.4 					"/>
				</g>
				<g>
					<polygon class="st6" points="76.2,54.3 97.9,85.4 76.2,116.6 54.8,85.4 					"/>
				</g>
				<g>
					<polygon class="st6" points="76.2,54.3 97.9,85.4 76.2,116.6 54.8,85.4 					"/>
				</g>
			</g>
			<g>
				<polygon class="st11" points="54.9,85.4 76.5,116.9 46.2,116.9 24.6,85.4 				"/>
			</g>
		</g>
	</g>
</g>
</svg>
