<?xml version="1.0" encoding="utf-8"?>
<!-- Generator: Adobe Illustrator 22.1.0, SVG Export Plug-In . SVG Version: 6.00 Build 0)  -->
<svg version="1.1" id="Layer_1" xmlns="http://www.w3.org/2000/svg" xmlns:xlink="http://www.w3.org/1999/xlink" x="0px" y="0px"
	 viewBox="0 0 279.7 29.3" style="enable-background:new 0 0 279.7 29.3;" xml:space="preserve">
<style type="text/css">
	.st0{fill:#F7F7F7;}
	.st1{fill:#FF8E39;}
</style>
<g>
	<path class="st0" d="M52.8,24.7h-7.6V13.2L40,24.7h-5.9l-5.4-11.5v11.5h-7.6V4.6h9.4l6.7,14.6l6.9-14.6h8.6V24.7z"/>
	<path class="st0" d="M68.3,18.3V9.2h6.5v19.5H56.9v-4h11.4v-2.3h-7.8l-3.7-3.1V9.2h6.5v9.1H68.3z"/>
	<path class="st1" d="M104.5,24.7H78.9v-17l6.2-3.1h19.3v4.6H88.2V20h16.3V24.7z"/>
	<path class="st1" d="M126.2,24.7H120V13.5h-5v11.2h-6.5V3h6.5v6.2h7.4l3.7,3.1V24.7z"/>
	<path class="st1" d="M148.8,24.7h-19.6V12.3l3.7-3.1h12.4l3.7,3.1V18h-12.4v2h12.1V24.7z M142.8,15.4v-1.9h-6.2v1.9H142.8z"/>
	<path class="st1" d="M180.8,24.7h-6.2V13.5h-5v11.2h-5.4V13.5h-5v11.2h-6.2V12.3l2.5-3.1H178l2.8,3.1V24.7z"/>
	<path class="st0" d="M189.6,24.7h-4.7V20h4.7V24.7z"/>
	<path class="st0" d="M200.3,7h-6.5V3.9h6.5V7z M200.3,24.7h-6.5V9.2h6.5V24.7z"/>
	<path class="st0" d="M224.2,24.7H218V13.5h-7.4v11.2h-6.2V12.3l3.7-3.1h12.4l3.7,3.1V24.7z"/>
	<path class="st0" d="M236.8,7.7h-2v1.5h2V12h-2v12.7h-6.5V12h-1.7V9.2h1.7V6.1l3.7-3.1h4.8V7.7z"/>
	<path class="st0" d="M258.7,24.7h-20V12.3l3.7-3.1h12.1l4.1,3.1L258.7,24.7z M252.4,20v-6.5h-7.4V20H252.4z"/>
</g>
</svg>
