<?xml version="1.0" encoding="utf-8"?>
<!-- Generator: Adobe Illustrator 22.1.0, SVG Export Plug-In . SVG Version: 6.00 Build 0)  -->
<svg version="1.1" id="Layer_1" xmlns="http://www.w3.org/2000/svg" xmlns:xlink="http://www.w3.org/1999/xlink" x="0px" y="0px"
	 viewBox="0 0 200 200" style="enable-background:new 0 0 200 200;" xml:space="preserve">
<style type="text/css">
	.st0{enable-background:new    ;}
	.st1{fill:#2A7FE2;}
	.st2{fill:#669BE8;}
	.st3{fill:#3366CC;}
	.st4{fill:none;stroke:url(#SVGID_1_);stroke-width:2;stroke-linejoin:round;}
	.st5{fill:url(#SVGID_2_);}
	.st6{fill:url(#SVGID_3_);}
	.st7{fill:none;stroke:url(#SVGID_4_);stroke-width:2;stroke-linejoin:round;}
	.st8{fill:url(#SVGID_5_);}
	.st9{fill:none;stroke:url(#SVGID_6_);stroke-width:2;stroke-linejoin:round;}
	.st10{fill:url(#SVGID_7_);}
	.st11{fill:none;stroke:url(#SVGID_8_);stroke-width:2;stroke-linejoin:round;}
	.st12{fill:url(#SVGID_9_);}
	.st13{fill:url(#SVGID_10_);}
	.st14{fill:none;stroke:url(#SVGID_11_);stroke-width:2;stroke-linejoin:round;}
	.st15{fill:url(#SVGID_12_);}
	.st16{fill:none;stroke:url(#SVGID_13_);stroke-width:2;stroke-linejoin:round;}
	.st17{fill:url(#SVGID_14_);}
	.st18{fill:none;stroke:url(#SVGID_15_);stroke-width:2;stroke-linejoin:round;}
	.st19{fill:url(#SVGID_16_);}
	.st20{fill:url(#SVGID_17_);}
	.st21{fill:none;stroke:url(#SVGID_18_);stroke-width:2;stroke-linejoin:round;}
	.st22{fill:url(#SVGID_19_);}
	.st23{fill:none;stroke:url(#SVGID_20_);stroke-width:2;stroke-linejoin:round;}
	.st24{fill:url(#SVGID_21_);}
	.st25{fill:#B3B3B3;}
	.st26{fill:#E6E6E6;}
	.st27{fill:#808080;}
</style>
<g>
	<g class="st0">
		<g>
			<polygon class="st1" points="113.9,5.4 91.4,37.3 59.5,37.3 82.1,5.4 			"/>
		</g>
		<g>
			<polygon class="st2" points="113.9,5.4 136.5,37.3 113.9,69.2 91.4,37.3 			"/>
		</g>
		<g>
			<polygon class="st3" points="91.4,37.3 113.9,69.2 82.1,69.2 59.5,37.3 			"/>
		</g>
	</g>
</g>
<g>
	<g class="st0">
		<g>
			<polygon class="st1" points="113.9,69.2 91.4,101.1 59.5,101.1 82.1,69.2 			"/>
		</g>
		<g>
			<polygon class="st2" points="113.9,69.2 136.5,101.1 113.9,133 91.4,101.1 			"/>
		</g>
		<g>
			<polygon class="st3" points="91.4,101.1 113.9,133 82.1,133 59.5,101.1 			"/>
		</g>
	</g>
</g>
<g>
	<g class="st0">
		<g>
			<polygon class="st1" points="168.4,37.3 145.9,69.2 114,69.2 136.5,37.3 			"/>
		</g>
		<g>
			<polygon class="st2" points="168.4,37.3 191,69.2 168.4,101.1 145.9,69.2 			"/>
		</g>
		<g>
			<polygon class="st3" points="145.9,69.2 168.4,101.1 136.5,101.1 114,69.2 			"/>
		</g>
	</g>
</g>
<g>
	<g>
		<g>
			<polygon class="st1" points="113.9,69.2 91.4,101.1 59.5,101.1 82,69.2 			"/>
		</g>
		<g>
			
				<linearGradient id="SVGID_1_" gradientUnits="userSpaceOnUse" x1="271.7" y1="69.2" x2="271.7" y2="37.3" gradientTransform="matrix(1 0 0 1 -185 31.9)">
				<stop  offset="0" style="stop-color:#B6C8ED"/>
				<stop  offset="1" style="stop-color:#669BE8"/>
			</linearGradient>
			<polygon class="st4" points="113.9,69.2 91.4,101.1 59.5,101.1 82,69.2 			"/>
		</g>
		<g>
			
				<linearGradient id="SVGID_2_" gradientUnits="userSpaceOnUse" x1="244.5" y1="53.25" x2="298.9" y2="53.25" gradientTransform="matrix(1 0 0 1 -185 31.9)">
				<stop  offset="0" style="stop-color:#2A7FE2"/>
				<stop  offset="1" style="stop-color:#669BE8"/>
			</linearGradient>
			<polygon class="st5" points="113.9,69.2 91.4,101.1 59.5,101.1 82,69.2 			"/>
		</g>
		<g>
			
				<linearGradient id="SVGID_3_" gradientUnits="userSpaceOnUse" x1="257.9934" y1="76.9904" x2="285.4066" y2="29.5096" gradientTransform="matrix(1 0 0 1 -185 31.9)">
				<stop  offset="0" style="stop-color:#2ADEFF;stop-opacity:0"/>
				<stop  offset="4.119969e-03" style="stop-color:#2CDEFF;stop-opacity:3.231120e-03"/>
				<stop  offset="0.1448" style="stop-color:#76EAFF;stop-opacity:0.1135"/>
				<stop  offset="0.2706" style="stop-color:#B1F3FF;stop-opacity:0.2122"/>
				<stop  offset="0.3772" style="stop-color:#DBF9FF;stop-opacity:0.2958"/>
				<stop  offset="0.4604" style="stop-color:#F5FEFF;stop-opacity:0.3611"/>
				<stop  offset="0.51" style="stop-color:#FFFFFF;stop-opacity:0.4"/>
				<stop  offset="0.5152" style="stop-color:#FFFFFF;stop-opacity:0"/>
			</linearGradient>
			<polygon class="st6" points="113.9,69.2 91.4,101.1 59.5,101.1 82,69.2 			"/>
		</g>
	</g>
	<g>
		<g>
			<polygon class="st2" points="113.9,69.2 136.5,101.1 113.9,133 91.4,101.1 			"/>
		</g>
		<g>
			
				<linearGradient id="SVGID_4_" gradientUnits="userSpaceOnUse" x1="276.4" y1="69.2" x2="321.5" y2="69.2" gradientTransform="matrix(1 0 0 1 -185 31.9)">
				<stop  offset="0" style="stop-color:#B6C8ED"/>
				<stop  offset="1" style="stop-color:#669BE8"/>
			</linearGradient>
			<polygon class="st7" points="113.9,69.2 136.5,101.1 113.9,133 91.4,101.1 			"/>
		</g>
		<g>
			<polygon class="st2" points="113.9,69.2 136.5,101.1 113.9,133 91.4,101.1 			"/>
		</g>
		<g>
			
				<linearGradient id="SVGID_5_" gradientUnits="userSpaceOnUse" x1="285.1244" y1="93.1466" x2="312.7506" y2="45.2966" gradientTransform="matrix(1 0 0 1 -185 31.9)">
				<stop  offset="0" style="stop-color:#3366CC;stop-opacity:0"/>
				<stop  offset="0.1218" style="stop-color:#386ACD;stop-opacity:0.1218"/>
				<stop  offset="0.262" style="stop-color:#4674D1;stop-opacity:0.262"/>
				<stop  offset="0.4114" style="stop-color:#5D85D6;stop-opacity:0.4114"/>
				<stop  offset="0.5671" style="stop-color:#7D9EDF;stop-opacity:0.5671"/>
				<stop  offset="0.7278" style="stop-color:#A7BDE9;stop-opacity:0.7278"/>
				<stop  offset="0.8902" style="stop-color:#D9E2F5;stop-opacity:0.8902"/>
				<stop  offset="1" style="stop-color:#FFFFFF"/>
			</linearGradient>
			<polygon class="st8" points="113.9,69.2 136.5,101.1 113.9,133 91.4,101.1 			"/>
		</g>
	</g>
	<g>
		<g>
			<polygon class="st3" points="91.4,101.1 113.9,133 82,133 59.5,101.1 			"/>
		</g>
		<g>
			
				<linearGradient id="SVGID_6_" gradientUnits="userSpaceOnUse" x1="271.7" y1="101.1" x2="271.7" y2="69.2" gradientTransform="matrix(1 0 0 1 -185 31.9)">
				<stop  offset="0" style="stop-color:#669BE8"/>
				<stop  offset="1" style="stop-color:#B6C8ED"/>
			</linearGradient>
			<polygon class="st9" points="91.4,101.1 113.9,133 82,133 59.5,101.1 			"/>
		</g>
		<g>
			
				<linearGradient id="SVGID_7_" gradientUnits="userSpaceOnUse" x1="244.5" y1="85.15" x2="298.9" y2="85.15" gradientTransform="matrix(1 0 0 1 -185 31.9)">
				<stop  offset="0" style="stop-color:#2A7FE2"/>
				<stop  offset="1" style="stop-color:#2741C2"/>
			</linearGradient>
			<polygon class="st10" points="91.4,101.1 113.9,133 82,133 59.5,101.1 			"/>
		</g>
	</g>
</g>
<g>
	<g>
		<g>
			<polygon class="st1" points="113.9,5.4 91.4,37.3 59.5,37.3 82,5.4 			"/>
		</g>
		<g>
			
				<linearGradient id="SVGID_8_" gradientUnits="userSpaceOnUse" x1="271.7" y1="69.2" x2="271.7" y2="37.3" gradientTransform="matrix(1 0 0 1 -185 -31.9)">
				<stop  offset="0" style="stop-color:#B6C8ED"/>
				<stop  offset="1" style="stop-color:#669BE8"/>
			</linearGradient>
			<polygon class="st11" points="113.9,5.4 91.4,37.3 59.5,37.3 82,5.4 			"/>
		</g>
		<g>
			
				<linearGradient id="SVGID_9_" gradientUnits="userSpaceOnUse" x1="244.5" y1="53.25" x2="298.9" y2="53.25" gradientTransform="matrix(1 0 0 1 -185 -31.9)">
				<stop  offset="0" style="stop-color:#2A7FE2"/>
				<stop  offset="1" style="stop-color:#669BE8"/>
			</linearGradient>
			<polygon class="st12" points="113.9,5.4 91.4,37.3 59.5,37.3 82,5.4 			"/>
		</g>
		<g>
			
				<linearGradient id="SVGID_10_" gradientUnits="userSpaceOnUse" x1="257.9934" y1="76.9904" x2="285.4066" y2="29.5096" gradientTransform="matrix(1 0 0 1 -185 -31.9)">
				<stop  offset="0" style="stop-color:#2ADEFF;stop-opacity:0"/>
				<stop  offset="4.119969e-03" style="stop-color:#2CDEFF;stop-opacity:3.231120e-03"/>
				<stop  offset="0.1448" style="stop-color:#76EAFF;stop-opacity:0.1135"/>
				<stop  offset="0.2706" style="stop-color:#B1F3FF;stop-opacity:0.2122"/>
				<stop  offset="0.3772" style="stop-color:#DBF9FF;stop-opacity:0.2958"/>
				<stop  offset="0.4604" style="stop-color:#F5FEFF;stop-opacity:0.3611"/>
				<stop  offset="0.51" style="stop-color:#FFFFFF;stop-opacity:0.4"/>
				<stop  offset="0.5152" style="stop-color:#FFFFFF;stop-opacity:0"/>
			</linearGradient>
			<polygon class="st13" points="113.9,5.4 91.4,37.3 59.5,37.3 82,5.4 			"/>
		</g>
	</g>
	<g>
		<g>
			<polygon class="st2" points="113.9,5.4 136.5,37.3 113.9,69.2 91.4,37.3 			"/>
		</g>
		<g>
			
				<linearGradient id="SVGID_11_" gradientUnits="userSpaceOnUse" x1="276.4" y1="69.2" x2="321.5" y2="69.2" gradientTransform="matrix(1 0 0 1 -185 -31.9)">
				<stop  offset="0" style="stop-color:#B6C8ED"/>
				<stop  offset="1" style="stop-color:#669BE8"/>
			</linearGradient>
			<polygon class="st14" points="113.9,5.4 136.5,37.3 113.9,69.2 91.4,37.3 			"/>
		</g>
		<g>
			<polygon class="st2" points="113.9,5.4 136.5,37.3 113.9,69.2 91.4,37.3 			"/>
		</g>
		<g>
			
				<linearGradient id="SVGID_12_" gradientUnits="userSpaceOnUse" x1="285.1244" y1="93.1466" x2="312.7506" y2="45.2966" gradientTransform="matrix(1 0 0 1 -185 -31.9)">
				<stop  offset="0" style="stop-color:#3366CC;stop-opacity:0"/>
				<stop  offset="0.1218" style="stop-color:#386ACD;stop-opacity:0.1218"/>
				<stop  offset="0.262" style="stop-color:#4674D1;stop-opacity:0.262"/>
				<stop  offset="0.4114" style="stop-color:#5D85D6;stop-opacity:0.4114"/>
				<stop  offset="0.5671" style="stop-color:#7D9EDF;stop-opacity:0.5671"/>
				<stop  offset="0.7278" style="stop-color:#A7BDE9;stop-opacity:0.7278"/>
				<stop  offset="0.8902" style="stop-color:#D9E2F5;stop-opacity:0.8902"/>
				<stop  offset="1" style="stop-color:#FFFFFF"/>
			</linearGradient>
			<polygon class="st15" points="113.9,5.4 136.5,37.3 113.9,69.2 91.4,37.3 			"/>
		</g>
	</g>
	<g>
		<g>
			<polygon class="st3" points="91.4,37.3 113.9,69.2 82,69.2 59.5,37.3 			"/>
		</g>
		<g>
			
				<linearGradient id="SVGID_13_" gradientUnits="userSpaceOnUse" x1="271.7" y1="101.1" x2="271.7" y2="69.2" gradientTransform="matrix(1 0 0 1 -185 -31.9)">
				<stop  offset="0" style="stop-color:#669BE8"/>
				<stop  offset="1" style="stop-color:#B6C8ED"/>
			</linearGradient>
			<polygon class="st16" points="91.4,37.3 113.9,69.2 82,69.2 59.5,37.3 			"/>
		</g>
		<g>
			
				<linearGradient id="SVGID_14_" gradientUnits="userSpaceOnUse" x1="244.5" y1="85.15" x2="298.9" y2="85.15" gradientTransform="matrix(1 0 0 1 -185 -31.9)">
				<stop  offset="0" style="stop-color:#2A7FE2"/>
				<stop  offset="1" style="stop-color:#2741C2"/>
			</linearGradient>
			<polygon class="st17" points="91.4,37.3 113.9,69.2 82,69.2 59.5,37.3 			"/>
		</g>
	</g>
</g>
<g>
	<g>
		<g>
			<polygon class="st1" points="168.4,37.3 145.9,69.2 114,69.2 136.5,37.3 			"/>
		</g>
		<g>
			
				<linearGradient id="SVGID_15_" gradientUnits="userSpaceOnUse" x1="271.7" y1="69.2" x2="271.7" y2="37.3" gradientTransform="matrix(1 0 0 1 -130.5 0)">
				<stop  offset="0" style="stop-color:#B6C8ED"/>
				<stop  offset="1" style="stop-color:#669BE8"/>
			</linearGradient>
			<polygon class="st18" points="168.4,37.3 145.9,69.2 114,69.2 136.5,37.3 			"/>
		</g>
		<g>
			
				<linearGradient id="SVGID_16_" gradientUnits="userSpaceOnUse" x1="244.5" y1="53.25" x2="298.9" y2="53.25" gradientTransform="matrix(1 0 0 1 -130.5 0)">
				<stop  offset="0" style="stop-color:#2A7FE2"/>
				<stop  offset="1" style="stop-color:#669BE8"/>
			</linearGradient>
			<polygon class="st19" points="168.4,37.3 145.9,69.2 114,69.2 136.5,37.3 			"/>
		</g>
		<g>
			
				<linearGradient id="SVGID_17_" gradientUnits="userSpaceOnUse" x1="257.9934" y1="76.9904" x2="285.4066" y2="29.5096" gradientTransform="matrix(1 0 0 1 -130.5 0)">
				<stop  offset="0" style="stop-color:#2ADEFF;stop-opacity:0"/>
				<stop  offset="4.119969e-03" style="stop-color:#2CDEFF;stop-opacity:3.231120e-03"/>
				<stop  offset="0.1448" style="stop-color:#76EAFF;stop-opacity:0.1135"/>
				<stop  offset="0.2706" style="stop-color:#B1F3FF;stop-opacity:0.2122"/>
				<stop  offset="0.3772" style="stop-color:#DBF9FF;stop-opacity:0.2958"/>
				<stop  offset="0.4604" style="stop-color:#F5FEFF;stop-opacity:0.3611"/>
				<stop  offset="0.51" style="stop-color:#FFFFFF;stop-opacity:0.4"/>
				<stop  offset="0.5152" style="stop-color:#FFFFFF;stop-opacity:0"/>
			</linearGradient>
			<polygon class="st20" points="168.4,37.3 145.9,69.2 114,69.2 136.5,37.3 			"/>
		</g>
	</g>
	<g>
		<g>
			<polygon class="st2" points="168.4,37.3 191,69.2 168.4,101.1 145.9,69.2 			"/>
		</g>
		<g>
			
				<linearGradient id="SVGID_18_" gradientUnits="userSpaceOnUse" x1="276.4" y1="69.2" x2="321.5" y2="69.2" gradientTransform="matrix(1 0 0 1 -130.5 0)">
				<stop  offset="0" style="stop-color:#B6C8ED"/>
				<stop  offset="1" style="stop-color:#669BE8"/>
			</linearGradient>
			<polygon class="st21" points="168.4,37.3 191,69.2 168.4,101.1 145.9,69.2 			"/>
		</g>
		<g>
			<polygon class="st2" points="168.4,37.3 191,69.2 168.4,101.1 145.9,69.2 			"/>
		</g>
		<g>
			
				<linearGradient id="SVGID_19_" gradientUnits="userSpaceOnUse" x1="285.1244" y1="93.1466" x2="312.7506" y2="45.2966" gradientTransform="matrix(1 0 0 1 -130.5 0)">
				<stop  offset="0" style="stop-color:#3366CC;stop-opacity:0"/>
				<stop  offset="0.1218" style="stop-color:#386ACD;stop-opacity:0.1218"/>
				<stop  offset="0.262" style="stop-color:#4674D1;stop-opacity:0.262"/>
				<stop  offset="0.4114" style="stop-color:#5D85D6;stop-opacity:0.4114"/>
				<stop  offset="0.5671" style="stop-color:#7D9EDF;stop-opacity:0.5671"/>
				<stop  offset="0.7278" style="stop-color:#A7BDE9;stop-opacity:0.7278"/>
				<stop  offset="0.8902" style="stop-color:#D9E2F5;stop-opacity:0.8902"/>
				<stop  offset="1" style="stop-color:#FFFFFF"/>
			</linearGradient>
			<polygon class="st22" points="168.4,37.3 191,69.2 168.4,101.1 145.9,69.2 			"/>
		</g>
	</g>
	<g>
		<g>
			<polygon class="st3" points="145.9,69.2 168.4,101.1 136.5,101.1 114,69.2 			"/>
		</g>
		<g>
			
				<linearGradient id="SVGID_20_" gradientUnits="userSpaceOnUse" x1="271.7" y1="101.1" x2="271.7" y2="69.2" gradientTransform="matrix(1 0 0 1 -130.5 0)">
				<stop  offset="0" style="stop-color:#669BE8"/>
				<stop  offset="1" style="stop-color:#B6C8ED"/>
			</linearGradient>
			<polygon class="st23" points="145.9,69.2 168.4,101.1 136.5,101.1 114,69.2 			"/>
		</g>
		<g>
			
				<linearGradient id="SVGID_21_" gradientUnits="userSpaceOnUse" x1="244.5" y1="85.15" x2="298.9" y2="85.15" gradientTransform="matrix(1 0 0 1 -130.5 0)">
				<stop  offset="0" style="stop-color:#2A7FE2"/>
				<stop  offset="1" style="stop-color:#2741C2"/>
			</linearGradient>
			<polygon class="st24" points="145.9,69.2 168.4,101.1 136.5,101.1 114,69.2 			"/>
		</g>
	</g>
</g>
<g>
	<g class="st0">
		<g>
			<polygon class="st25" points="168.4,101.1 145.9,133 114,133 136.5,101.1 			"/>
		</g>
		<g>
			<polygon class="st26" points="168.4,101.1 191,133 168.4,164.9 145.9,133 			"/>
		</g>
		<g>
			<polygon class="st27" points="145.9,133 168.4,164.9 136.5,164.9 114,133 			"/>
		</g>
	</g>
</g>
<g>
	<g class="st0">
		<g>
			<polygon class="st25" points="59.5,37.3 36.9,69.2 5,69.2 27.6,37.3 			"/>
		</g>
		<g>
			<polygon class="st26" points="59.5,37.3 82,69.2 59.5,101.1 36.9,69.2 			"/>
		</g>
		<g>
			<polygon class="st27" points="36.9,69.2 59.5,101.1 27.6,101.1 5,69.2 			"/>
		</g>
	</g>
</g>
<g>
	<g class="st0">
		<g>
			<polygon class="st25" points="59.5,101.1 36.9,133 5,133 27.6,101.1 			"/>
		</g>
		<g>
			<polygon class="st26" points="59.5,101.1 82,133 59.5,164.9 36.9,133 			"/>
		</g>
		<g>
			<polygon class="st27" points="36.9,133 59.5,164.9 27.6,164.9 5,133 			"/>
		</g>
	</g>
</g>
<g>
	<g class="st0">
		<g>
			<polygon class="st25" points="113.9,133 91.4,164.9 59.5,164.9 82.1,133 			"/>
		</g>
		<g>
			<polygon class="st26" points="113.9,133 136.5,164.9 113.9,196.8 91.4,164.9 			"/>
		</g>
		<g>
			<polygon class="st27" points="91.4,164.9 113.9,196.8 82.1,196.8 59.5,164.9 			"/>
		</g>
	</g>
</g>
</svg>
