<?xml version="1.0" encoding="utf-8"?>
<!-- Generator: Adobe Illustrator 22.1.0, SVG Export Plug-In . SVG Version: 6.00 Build 0)  -->
<svg version="1.1" id="Layer_1" xmlns="http://www.w3.org/2000/svg" xmlns:xlink="http://www.w3.org/1999/xlink" x="0px" y="0px"
	 viewBox="0 0 200 200" style="enable-background:new 0 0 200 200;" xml:space="preserve">
<style type="text/css">
	.st0{enable-background:new    ;}
	.st1{fill:#2A7FE2;}
	.st2{fill:#669BE8;}
	.st3{fill:#3366CC;}
	.st4{fill:#B3B3B3;}
	.st5{fill:#E6E6E6;}
	.st6{fill:#808080;}
</style>
<g>
	<g class="st0">
		<g>
			<polygon class="st1" points="113.9,5.4 91.4,37.3 59.5,37.3 82.1,5.4 			"/>
		</g>
		<g>
			<polygon class="st2" points="113.9,5.4 136.5,37.3 113.9,69.2 91.4,37.3 			"/>
		</g>
		<g>
			<polygon class="st3" points="91.4,37.3 113.9,69.2 82.1,69.2 59.5,37.3 			"/>
		</g>
	</g>
</g>
<g>
	<g class="st0">
		<g>
			<polygon class="st1" points="113.9,69.2 91.4,101.1 59.5,101.1 82.1,69.2 			"/>
		</g>
		<g>
			<polygon class="st2" points="113.9,69.2 136.5,101.1 113.9,133 91.4,101.1 			"/>
		</g>
		<g>
			<polygon class="st3" points="91.4,101.1 113.9,133 82.1,133 59.5,101.1 			"/>
		</g>
	</g>
</g>
<g>
	<g class="st0">
		<g>
			<polygon class="st1" points="168.4,37.3 145.9,69.2 114,69.2 136.5,37.3 			"/>
		</g>
		<g>
			<polygon class="st2" points="168.4,37.3 191,69.2 168.4,101.1 145.9,69.2 			"/>
		</g>
		<g>
			<polygon class="st3" points="145.9,69.2 168.4,101.1 136.5,101.1 114,69.2 			"/>
		</g>
	</g>
</g>
<g>
	<g class="st0">
		<g>
			<polygon class="st4" points="168.4,101.1 145.9,133 114,133 136.5,101.1 			"/>
		</g>
		<g>
			<polygon class="st5" points="168.4,101.1 191,133 168.4,164.9 145.9,133 			"/>
		</g>
		<g>
			<polygon class="st6" points="145.9,133 168.4,164.9 136.5,164.9 114,133 			"/>
		</g>
	</g>
</g>
<g>
	<g class="st0">
		<g>
			<polygon class="st4" points="59.5,37.3 36.9,69.2 5,69.2 27.6,37.3 			"/>
		</g>
		<g>
			<polygon class="st5" points="59.5,37.3 82,69.2 59.5,101.1 36.9,69.2 			"/>
		</g>
		<g>
			<polygon class="st6" points="36.9,69.2 59.5,101.1 27.6,101.1 5,69.2 			"/>
		</g>
	</g>
</g>
<g>
	<g class="st0">
		<g>
			<polygon class="st4" points="59.5,101.1 36.9,133 5,133 27.6,101.1 			"/>
		</g>
		<g>
			<polygon class="st5" points="59.5,101.1 82,133 59.5,164.9 36.9,133 			"/>
		</g>
		<g>
			<polygon class="st6" points="36.9,133 59.5,164.9 27.6,164.9 5,133 			"/>
		</g>
	</g>
</g>
<g>
	<g class="st0">
		<g>
			<polygon class="st4" points="113.9,133 91.4,164.9 59.5,164.9 82.1,133 			"/>
		</g>
		<g>
			<polygon class="st5" points="113.9,133 136.5,164.9 113.9,196.8 91.4,164.9 			"/>
		</g>
		<g>
			<polygon class="st6" points="91.4,164.9 113.9,196.8 82.1,196.8 59.5,164.9 			"/>
		</g>
	</g>
</g>
</svg>
