<?xml version="1.0" standalone="no"?>
<!DOCTYPE svg PUBLIC "-//W3C//DTD SVG 20010904//EN"
 "http://www.w3.org/TR/2001/REC-SVG-20010904/DTD/svg10.dtd">
<svg version="1.0" xmlns="http://www.w3.org/2000/svg"
 width="512.000000pt" height="512.000000pt" viewBox="0 0 512.000000 512.000000"
 preserveAspectRatio="xMidYMid meet">
<metadata>
Created by potrace 1.11, written by Peter Selinger 2001-2013
</metadata>
<g transform="translate(0.000000,512.000000) scale(0.100000,-0.100000)"
fill="#000000" stroke="none">
<path d="M2087 4948 c-36 -51 -162 -235 -281 -408 l-217 -315 -397 -5 -397 -5
-282 -410 c-156 -225 -283 -413 -283 -417 0 -4 124 -188 276 -409 152 -221
278 -408 281 -415 4 -10 -326 -503 -530 -791 l-29 -41 272 -399 c150 -219 280
-406 288 -415 14 -17 46 -18 406 -18 l392 0 284 -415 284 -415 398 0 c219 0
398 3 398 6 0 4 -126 190 -280 415 -154 225 -281 413 -283 417 -3 11 555 822
562 817 3 -2 132 -188 286 -414 l280 -410 403 -1 c221 0 402 2 402 5 0 4 -372
550 -516 756 l-53 77 280 406 c153 224 279 412 279 418 0 5 -124 193 -277 416
-152 224 -276 411 -276 417 0 7 121 189 269 406 149 217 274 400 278 407 6 9
-75 12 -391 12 l-398 -1 -280 -409 c-154 -225 -283 -409 -287 -407 -4 1 -133
186 -287 411 l-280 410 33 45 c38 53 509 740 520 759 6 9 -75 12 -388 12
l-395 0 -64 -92z m-202 -1152 l285 -409 -19 -26 c-169 -240 -551 -795 -551
-801 0 -4 127 -189 281 -411 155 -222 282 -409 283 -415 1 -12 -555 -822 -564
-823 -3 -1 -132 186 -287 413 l-283 415 276 403 c152 222 278 408 281 415 3 6
-122 196 -276 421 -155 226 -281 413 -281 417 0 13 555 815 563 812 4 -1 136
-186 292 -411z m1350 -831 c147 -214 269 -395 272 -402 2 -6 -94 -155 -214
-330 -120 -175 -245 -357 -277 -406 -48 -70 -62 -85 -72 -75 -7 7 -136 193
-287 413 l-275 400 18 25 c9 14 135 197 280 408 216 316 265 381 276 370 7 -7
133 -188 279 -403z"/>
</g>
</svg>
