<?xml version="1.0" encoding="utf-8"?>
<!-- Generator: Adobe Illustrator 22.1.0, SVG Export Plug-In . SVG Version: 6.00 Build 0)  -->
<svg version="1.1" id="Layer_1" xmlns="http://www.w3.org/2000/svg" xmlns:xlink="http://www.w3.org/1999/xlink" x="0px" y="0px"
	 viewBox="0 0 1920 728" style="enable-background:new 0 0 1920 728;" xml:space="preserve">
<style type="text/css">
	.st0{fill:none;stroke:#F48F2A;stroke-width:0.75;stroke-linejoin:round;}
	.st1{fill:none;stroke:#F5922C;stroke-width:0.7292;stroke-linejoin:round;}
	.st2{fill:none;stroke:#F6962E;stroke-width:0.7083;stroke-linejoin:round;}
	.st3{fill:none;stroke:#F79930;stroke-width:0.6875;stroke-linejoin:round;}
	.st4{fill:none;stroke:#F89C32;stroke-width:0.6667;stroke-linejoin:round;}
	.st5{fill:none;stroke:#F9A034;stroke-width:0.6458;stroke-linejoin:round;}
	.st6{fill:none;stroke:#FAA337;stroke-width:0.625;stroke-linejoin:round;}
	.st7{fill:none;stroke:#FAA639;stroke-width:0.6042;stroke-linejoin:round;}
	.st8{fill:none;stroke:#FBAA3B;stroke-width:0.5833;stroke-linejoin:round;}
	.st9{fill:none;stroke:#FCAD3D;stroke-width:0.5625;stroke-linejoin:round;}
	.st10{fill:none;stroke:#FDB03F;stroke-width:0.5417;stroke-linejoin:round;}
	.st11{fill:none;stroke:#FEB441;stroke-width:0.5208;stroke-linejoin:round;}
	.st12{fill:none;stroke:#FFB743;stroke-width:0.5;stroke-linejoin:round;}
</style>
<g>
	<path class="st0" d="M-0.5,527.5c0,0,141-354,432-279s282,561,741,249s615-267,747-105"/>
	<path class="st1" d="M-0.5,522.8c0,0,141-361.1,432-286.1s282,568.8,741,256.8s615-274.2,747-112.2"/>
	<path class="st2" d="M-0.5,518.2c0,0,141-368.2,432-293.2s282,576.5,741,264.5s615-281.3,747-119.3"/>
	<path class="st3" d="M-0.5,513.5c0,0,141-375.2,432-300.2s282,584.2,741,272.2s615-288.5,747-126.5"/>
	<path class="st4" d="M-0.5,508.8c0,0,141-382.3,432-307.3s282,592,741,280s615-295.7,747-133.7"/>
	<path class="st5" d="M-0.5,504.2c0,0,141-389.4,432-314.4s282,599.8,741,287.8s615-302.8,747-140.8"/>
	<path class="st6" d="M-0.5,499.5c0,0,141-396.5,432-321.5s282,607.5,741,295.5s615-310,747-148"/>
	<path class="st7" d="M-0.5,494.8c0,0,141-403.6,432-328.6s282,615.2,741,303.2s615-317.2,747-155.2"/>
	<path class="st8" d="M-0.5,490.2c0,0,141-410.7,432-335.7s282,623,741,311s615-324.3,747-162.3"/>
	<path class="st9" d="M-0.5,485.5c0,0,141-417.8,432-342.8s282,630.8,741,318.8s615-331.5,747-169.5"/>
	<path class="st10" d="M-0.5,480.8c0,0,141-424.8,432-349.8s282,638.5,741,326.5s615-338.7,747-176.7"/>
	<path class="st11" d="M-0.5,476.2c0,0,141-431.9,432-356.9s282,646.2,741,334.2s615-345.8,747-183.8"/>
	<path class="st12" d="M-0.5,471.5c0,0,141-439,432-364s282,654,741,342s615-353,747-191"/>
</g>
</svg>
