<?xml version="1.0" encoding="utf-8"?>
<!-- Generator: Adobe Illustrator 22.1.0, SVG Export Plug-In . SVG Version: 6.00 Build 0)  -->
<svg version="1.1" id="Layer_1" xmlns="http://www.w3.org/2000/svg" xmlns:xlink="http://www.w3.org/1999/xlink" x="0px" y="0px"
	 viewBox="0 0 1480 237" style="enable-background:new 0 0 1480 237;" xml:space="preserve">
<style type="text/css">
	.st0{fill:none;}
	.st1{fill:none;stroke:#5B5B5B;stroke-width:10;stroke-linejoin:round;}
	.st2{font-family:'RechargeRg-Bold';}
	.st3{font-size:100.1672px;}
	.st4{enable-background:new    ;}
	.st5{fill:#FFFFFF;}
	.st6{fill:#669BE8;}
	.st7{fill:url(#SVGID_1_);}
	.st8{fill:#2A7FE2;}
	.st9{fill:url(#SVGID_2_);}
	.st10{fill:#3366CC;}
	.st11{fill:#B3B3B3;}
	.st12{fill:#E6E6E6;}
	.st13{fill:#808080;}
	.st14{fill:url(#SVGID_3_);}
	.st15{fill:url(#SVGID_4_);}
	.st16{fill:url(#SVGID_5_);}
	.st17{fill:url(#SVGID_6_);}
</style>
<rect x="229.6" y="71.6" class="st0" width="822.2" height="107.3"/>
<g>
	<text transform="matrix(1 0 0 1 229.5654 149.709)" class="st1 st2 st3">My</text>
	<text transform="matrix(1 0 0 1 433.2822 149.709)" class="st1 st2 st3">Gene</text>
	<text transform="matrix(1 0 0 1 750.3052 149.709)" class="st1 st2 st3">.info</text>
</g>
<g>
	<g class="st4">
		<path class="st5" d="M333.7,149.7V94.9c0-1.1-0.5-1.6-1.5-1.6h-1.1c-0.9,0-1.5,0.4-1.8,1.3l-19.9,52.8c-0.3,0.9-0.8,1.6-1.4,1.9
			c-0.6,0.3-1.4,0.5-2.5,0.5h-23.7c-1.1,0-2-0.2-2.6-0.5c-0.6-0.3-1-0.9-1.4-1.9L258,94.6c-0.3-0.9-1-1.3-1.9-1.3h-1
			c-1.1,0-1.6,0.5-1.6,1.6v54.8h-19.3V79.8c0-2,0.9-3,2.8-3h33c2.1,0,3.5,0.9,4.2,2.7l17.9,52.1c0.1,0.4,0.4,0.6,1,0.6h1.8
			c0.4,0,0.7-0.2,0.8-0.6l18-52.1c0.3-0.9,0.8-1.5,1.5-2c0.6-0.5,1.5-0.7,2.7-0.7h32.6c1.9,0,2.8,1,2.8,3v69.9H333.7z"/>
		<path class="st5" d="M409.6,143.2h0.7V94.7h18.2v56.1c0,3.2-0.4,6.1-1.2,8.8c-0.8,2.6-2,4.9-3.8,6.8c-1.7,1.9-4,3.3-6.9,4.4
			c-2.9,1-6.4,1.6-10.6,1.6h-41.8v-15.3h39c2.6,0,4.4-0.6,5.5-1.8c1-1.2,1.6-3,1.6-5.6v-4.4h-25.9c-8.2,0-14-1.7-17.4-5
			s-5.1-8.3-5.1-15.1V94.7H380v28c0,3,0.6,5.1,1.7,6.2c1.1,1.1,3.1,1.7,6,1.7h16.9L409.6,143.2z"/>
	</g>
	<g class="st4">
		<path class="st6" d="M504.2,118.5c0-1.1-0.1-2.2-0.2-3.4c-0.1-1.2-0.2-2.2-0.4-3.1v-0.9h20.4v35.8c0,1.9-0.8,2.8-2.5,2.8h-54.9
			c-5.4,0-10-0.7-13.8-2.1c-3.8-1.4-6.9-3.3-9.2-5.8c-2.3-2.5-4-5.5-5.1-9.1c-1.1-3.6-1.6-7.6-1.6-12v-15c0-4.4,0.5-8.4,1.6-12
			c1.1-3.6,2.8-6.6,5.1-9.1c2.3-2.5,5.4-4.4,9.2-5.8c3.8-1.4,8.4-2.1,13.8-2.1h54.6c1.9,0,2.9,1,2.9,3v15.7l-19.1,7h-0.8v-7
			c0-0.7-0.3-1-0.9-1h-34.9c-2,0-3.7,0.2-5.1,0.6c-1.4,0.4-2.5,1-3.4,1.9c-0.9,0.9-1.5,2.1-1.9,3.6c-0.4,1.5-0.6,3.4-0.6,5.6V119
			c0,4.4,0.8,7.5,2.5,9.2c1.7,1.7,4.5,2.6,8.4,2.6h34.6c0.7,0,1.1-0.4,1.1-1.2V118.5z"/>
		<path class="st6" d="M551.3,118.4h-0.7v8.5c0,3.1,0.5,5.3,1.6,6.5c1.1,1.2,3.1,1.8,6,1.8h39.2v14.6h-42.6c-4.1,0-7.5-0.5-10.4-1.6
			c-2.8-1-5.2-2.5-7-4.4c-1.8-1.9-3.1-4.2-3.9-6.9c-0.8-2.7-1.2-5.7-1.2-9v-11.3c0-3.3,0.4-6.3,1.2-9s2.1-5,3.9-6.9
			c1.8-1.9,4.1-3.4,7-4.4c2.8-1,6.3-1.6,10.4-1.6h31.8c4.2,0,7.2,1.1,9,3.3c1.8,2.2,2.7,5.6,2.7,10.2v5.3c0,4.1-0.9,7.3-2.7,9.7
			c-1.8,2.4-4.8,3.6-9,3.6h-32.2L551.3,118.4z M550.6,115.7h27.6c2.1,0,3.1-1.1,3.1-3.2v-2c0-1.1-0.3-1.9-0.8-2.4
			c-0.5-0.5-1.3-0.7-2.4-0.7h-20c-2.8,0-4.8,0.6-5.9,1.8c-1.1,1.2-1.7,3.3-1.7,6.3V115.7z"/>
		<path class="st6" d="M606,94.7h44.9c4.1,0,7.5,0.5,10.4,1.6c2.9,1,5.2,2.5,7,4.4c1.8,1.9,3.1,4.2,3.9,6.9c0.8,2.7,1.2,5.7,1.2,9
			v33.2h-18.1v-32c0-3.2-0.6-5.4-1.8-6.7s-3.2-1.9-5.9-1.9h-19.6l-3-8h-0.7v48.6H606V94.7z"/>
		<path class="st6" d="M700.2,118.4h-0.7v8.5c0,3.1,0.5,5.3,1.6,6.5c1.1,1.2,3.1,1.8,6,1.8h39.2v14.6h-42.6c-4.1,0-7.5-0.5-10.4-1.6
			c-2.8-1-5.2-2.5-7-4.4c-1.8-1.9-3.1-4.2-3.9-6.9c-0.8-2.7-1.2-5.7-1.2-9v-11.3c0-3.3,0.4-6.3,1.2-9s2.1-5,3.9-6.9
			c1.8-1.9,4.1-3.4,7-4.4c2.8-1,6.3-1.6,10.4-1.6h31.8c4.2,0,7.2,1.1,9,3.3c1.8,2.2,2.7,5.6,2.7,10.2v5.3c0,4.1-0.9,7.3-2.7,9.7
			c-1.8,2.4-4.8,3.6-9,3.6h-32.2L700.2,118.4z M699.5,115.7h27.6c2.1,0,3.1-1.1,3.1-3.2v-2c0-1.1-0.3-1.9-0.8-2.4
			c-0.5-0.5-1.3-0.7-2.4-0.7h-20c-2.8,0-4.8,0.6-5.9,1.8c-1.1,1.2-1.7,3.3-1.7,6.3V115.7z"/>
	</g>
	<g class="st4">
		<path class="st5" d="M754.9,149.7v-16.6H773v16.6H754.9z"/>
		<path class="st5" d="M782.4,86.1V71.6h18.1v14.5H782.4z M782.4,149.7v-55h18.1v55H782.4z"/>
		<path class="st5" d="M809.8,94.7h44.9c4.1,0,7.5,0.5,10.4,1.6c2.9,1,5.2,2.5,7,4.4c1.8,1.9,3.1,4.2,3.9,6.9c0.8,2.7,1.2,5.7,1.2,9
			v33.2H859v-32c0-3.2-0.6-5.4-1.8-6.7c-1.2-1.3-3.2-1.9-5.9-1.9h-19.6l-3-8h-0.7v48.6h-18.1V94.7z"/>
		<path class="st5" d="M925.1,108.5h-16v41.2h-18.1v-41.2h-7.4l-4.8-13v-0.8h12.2v-6.6c0-3.3,0.3-6,1-8.1c0.7-2.1,1.8-3.8,3.4-5.1
			c1.6-1.3,3.6-2.2,6.2-2.7c2.6-0.5,5.8-0.8,9.6-0.8h8.1l4.9,12.3v0.9h-10.6c-1.7,0-2.9,0.4-3.5,1.2c-0.6,0.8-0.9,2.1-0.9,3.9v4.9
			h16V108.5z"/>
		<path class="st5" d="M1000.5,127.9c0,3.3-0.4,6.3-1.2,9c-0.8,2.7-2.1,5-3.9,6.9c-1.8,1.9-4.1,3.4-7,4.4c-2.9,1-6.3,1.6-10.4,1.6
			h-26.4c-4.1,0-7.5-0.5-10.4-1.6c-2.8-1-5.2-2.5-7-4.4s-3.1-4.2-3.9-6.9c-0.8-2.7-1.2-5.7-1.2-9v-11.3c0-3.3,0.4-6.3,1.2-9
			c0.8-2.7,2.1-5,3.9-6.9c1.8-1.9,4.1-3.4,7-4.4c2.8-1,6.3-1.6,10.4-1.6H978c4.1,0,7.5,0.5,10.4,1.6c2.9,1,5.2,2.5,7,4.4
			c1.8,1.9,3.1,4.2,3.9,6.9c0.8,2.7,1.2,5.7,1.2,9V127.9z M974.7,133.6c2.9,0,4.9-0.6,6-1.7c1.1-1.1,1.7-3.3,1.7-6.4v-7.7
			c0-3.3-0.6-5.6-1.8-6.8c-1.2-1.2-3.2-1.8-6-1.8h-19.7c-2.9,0-4.9,0.6-6,1.9c-1.1,1.2-1.7,3.5-1.7,6.8v7.7c0,3.1,0.6,5.3,1.7,6.4
			c1.1,1.1,3.1,1.7,6,1.7H974.7z"/>
	</g>
</g>
<g class="st4">
	<g>
		<g>
			<g>
				<g>
					<polygon class="st1" points="176.7,55.5 155.6,86.3 126,86.3 147,55.5 					"/>
				</g>
				<g>
					<polygon class="st1" points="176.7,55.5 155.6,86.3 126,86.3 147,55.5 					"/>
				</g>
			</g>
			<g>
				<g>
					<polygon class="st1" points="176.9,55 198.5,86.1 176.9,117.2 155.6,86.1 					"/>
				</g>
				<g>
					<polygon class="st1" points="176.9,55 198.5,86.1 176.9,117.2 155.6,86.1 					"/>
				</g>
			</g>
			<g>
				<polygon class="st1" points="155.6,86.3 176.6,117 147,117 126.1,86.3 				"/>
			</g>
		</g>
		<g>
			<g>
				<polygon class="st1" points="74.4,116.2 53.4,147 23.7,147 44.8,116.2 				"/>
			</g>
			<g>
				<polygon class="st1" points="74.6,116.3 96.2,147.4 74.6,178.5 53.4,147.4 				"/>
			</g>
			<g>
				<polygon class="st1" points="53.3,147.7 74.3,178.5 44.8,178.5 23.7,147.7 				"/>
			</g>
		</g>
		<g>
			<g>
				<polygon class="st1" points="125.5,147.7 104.4,178.5 74.8,178.5 95.8,147.7 				"/>
			</g>
			<g>
				<polygon class="st1" points="125.7,147.8 147.3,178.9 125.7,210 104.4,178.9 				"/>
			</g>
			<g>
				<polygon class="st1" points="104.5,178.5 126.1,210 95.7,210 74.2,178.5 				"/>
			</g>
		</g>
		<g>
			<g>
				<polygon class="st1" points="176.8,117 155.8,147.7 126.1,147.7 147.2,117 				"/>
			</g>
			<g>
				<polygon class="st1" points="177,116.8 198.7,147.8 177,178.9 155.8,147.8 				"/>
			</g>
			<g>
				<polygon class="st1" points="155.8,147.7 176.8,178.5 147.2,178.5 126.1,147.7 				"/>
			</g>
		</g>
		<g>
			<g>
				<polygon class="st1" points="74.4,54.7 53.4,85.5 23.7,85.5 44.8,54.7 				"/>
			</g>
			<g>
				<polygon class="st1" points="74.6,54.6 96.2,85.6 74.6,116.7 53.4,85.6 				"/>
			</g>
			<g>
				<polygon class="st1" points="53.3,85.5 74.3,116.2 44.8,116.2 23.7,85.5 				"/>
			</g>
		</g>
		<g>
			<g>
				<g>
					<polygon class="st1" points="125.9,86.3 104.8,117 75.1,117 96.3,86.3 					"/>
				</g>
				<g>
					<polygon class="st1" points="125.9,86.3 104.8,117 75.1,117 96.3,86.3 					"/>
				</g>
			</g>
			<g>
				<g>
					<polygon class="st1" points="126.1,86.2 147.7,117.2 126.1,148.3 104.8,117.2 					"/>
				</g>
				<g>
					<polygon class="st1" points="126.1,86.2 147.7,117.2 126.1,148.3 104.8,117.2 					"/>
				</g>
			</g>
			<g>
				<polygon class="st1" points="104.8,117 126.4,148.5 96.2,148.5 74.6,117 				"/>
			</g>
		</g>
		<g>
			<g>
				<g>
					<polygon class="st1" points="125.8,24 104.7,54.7 75.1,54.7 96.1,24 					"/>
				</g>
				<g>
					<polygon class="st1" points="125.8,24 104.7,54.7 75.1,54.7 96.1,24 					"/>
				</g>
			</g>
			<g>
				<g>
					<polygon class="st1" points="126,24 147.5,55 126,86.2 104.7,55 					"/>
				</g>
				<g>
					<polygon class="st1" points="126,24 147.5,55 126,86.2 104.7,55 					"/>
				</g>
			</g>
			<g>
				<polygon class="st1" points="104.7,54.7 126.3,86.3 96,86.3 74.5,54.7 				"/>
			</g>
		</g>
	</g>
	<g>
		<g>
			<g>
				<g>
					
						<linearGradient id="SVGID_1_" gradientUnits="userSpaceOnUse" x1="10" y1="1082.4" x2="60.7" y2="1082.4" gradientTransform="matrix(1 0 0 1 116 -1011.5)">
						<stop  offset="0" style="stop-color:#FD7400"/>
						<stop  offset="1" style="stop-color:#FF8E39"/>
					</linearGradient>
					<polygon class="st7" points="176.7,55.5 155.6,86.3 126,86.3 147,55.5 					"/>
				</g>
				<g>
					<polygon class="st8" points="176.7,55.5 155.6,86.3 126,86.3 147,55.5 					"/>
				</g>
			</g>
			<g>
				<g>
					
						<linearGradient id="SVGID_2_" gradientUnits="userSpaceOnUse" x1="39.6" y1="1097.6" x2="82.4492" y2="1097.6" gradientTransform="matrix(1 0 0 1 116 -1011.5)">
						<stop  offset="0" style="stop-color:#FF8E39;stop-opacity:0"/>
						<stop  offset="0.1239" style="stop-color:#FF913E;stop-opacity:0.1239"/>
						<stop  offset="0.2664" style="stop-color:#FF994C;stop-opacity:0.2664"/>
						<stop  offset="0.4183" style="stop-color:#FFA663;stop-opacity:0.4183"/>
						<stop  offset="0.5766" style="stop-color:#FFB883;stop-opacity:0.5766"/>
						<stop  offset="0.7399" style="stop-color:#FFD0AD;stop-opacity:0.7399"/>
						<stop  offset="0.9051" style="stop-color:#FFEDDF;stop-opacity:0.9051"/>
						<stop  offset="1" style="stop-color:#FFFFFF"/>
					</linearGradient>
					<polygon class="st9" points="176.9,55 198.5,86.1 176.9,117.2 155.6,86.1 					"/>
				</g>
				<g>
					<polygon class="st6" points="176.9,55 198.5,86.1 176.9,117.2 155.6,86.1 					"/>
				</g>
			</g>
			<g>
				<polygon class="st10" points="155.6,86.3 176.6,117 147,117 126.1,86.3 				"/>
			</g>
		</g>
		<g>
			<g>
				<polygon class="st11" points="74.4,116.2 53.4,147 23.7,147 44.8,116.2 				"/>
			</g>
			<g>
				<polygon class="st12" points="74.6,116.3 96.2,147.4 74.6,178.5 53.4,147.4 				"/>
			</g>
			<g>
				<polygon class="st13" points="53.3,147.7 74.3,178.5 44.8,178.5 23.7,147.7 				"/>
			</g>
		</g>
		<g>
			<g>
				<polygon class="st11" points="125.5,147.7 104.4,178.5 74.8,178.5 95.8,147.7 				"/>
			</g>
			<g>
				<polygon class="st12" points="125.7,147.8 147.3,178.9 125.7,210 104.4,178.9 				"/>
			</g>
			<g>
				<polygon class="st13" points="104.5,178.5 126.1,210 95.7,210 74.2,178.5 				"/>
			</g>
		</g>
		<g>
			<g>
				<polygon class="st11" points="176.8,117 155.8,147.7 126.1,147.7 147.2,117 				"/>
			</g>
			<g>
				<polygon class="st12" points="177,116.8 198.7,147.8 177,178.9 155.8,147.8 				"/>
			</g>
			<g>
				<polygon class="st13" points="155.8,147.7 176.8,178.5 147.2,178.5 126.1,147.7 				"/>
			</g>
		</g>
		<g>
			<g>
				<polygon class="st11" points="74.4,54.7 53.4,85.5 23.7,85.5 44.8,54.7 				"/>
			</g>
			<g>
				<polygon class="st12" points="74.6,54.6 96.2,85.6 74.6,116.7 53.4,85.6 				"/>
			</g>
			<g>
				<polygon class="st13" points="53.3,85.5 74.3,116.2 44.8,116.2 23.7,85.5 				"/>
			</g>
		</g>
		<g>
			<g>
				<g>
					
						<linearGradient id="SVGID_3_" gradientUnits="userSpaceOnUse" x1="-40.9" y1="1113.15" x2="9.8321" y2="1113.15" gradientTransform="matrix(1 0 0 1 116 -1011.5)">
						<stop  offset="0" style="stop-color:#FD7400"/>
						<stop  offset="1" style="stop-color:#FF8E39"/>
					</linearGradient>
					<polygon class="st14" points="125.9,86.3 104.8,117 75.1,117 96.3,86.3 					"/>
				</g>
				<g>
					<polygon class="st8" points="125.9,86.3 104.8,117 75.1,117 96.3,86.3 					"/>
				</g>
			</g>
			<g>
				<g>
					
						<linearGradient id="SVGID_4_" gradientUnits="userSpaceOnUse" x1="-11.2" y1="1128.75" x2="31.7" y2="1128.75" gradientTransform="matrix(1 0 0 1 116 -1011.5)">
						<stop  offset="0" style="stop-color:#FF8E39;stop-opacity:0"/>
						<stop  offset="0.1239" style="stop-color:#FF913E;stop-opacity:0.1239"/>
						<stop  offset="0.2664" style="stop-color:#FF994C;stop-opacity:0.2664"/>
						<stop  offset="0.4183" style="stop-color:#FFA663;stop-opacity:0.4183"/>
						<stop  offset="0.5766" style="stop-color:#FFB883;stop-opacity:0.5766"/>
						<stop  offset="0.7399" style="stop-color:#FFD0AD;stop-opacity:0.7399"/>
						<stop  offset="0.9051" style="stop-color:#FFEDDF;stop-opacity:0.9051"/>
						<stop  offset="1" style="stop-color:#FFFFFF"/>
					</linearGradient>
					<polygon class="st15" points="126.1,86.2 147.7,117.2 126.1,148.3 104.8,117.2 					"/>
				</g>
				<g>
					<polygon class="st6" points="126.1,86.2 147.7,117.2 126.1,148.3 104.8,117.2 					"/>
				</g>
			</g>
			<g>
				<polygon class="st10" points="104.8,117 126.4,148.5 96.2,148.5 74.6,117 				"/>
			</g>
		</g>
		<g>
			<g>
				<g>
					
						<linearGradient id="SVGID_5_" gradientUnits="userSpaceOnUse" x1="-40.9" y1="1050.85" x2="9.8" y2="1050.85" gradientTransform="matrix(1 0 0 1 116 -1011.5)">
						<stop  offset="0" style="stop-color:#FD7400"/>
						<stop  offset="1" style="stop-color:#FF8E39"/>
					</linearGradient>
					<polygon class="st16" points="125.8,24 104.7,54.7 75.1,54.7 96.1,24 					"/>
				</g>
				<g>
					<polygon class="st8" points="125.8,24 104.7,54.7 75.1,54.7 96.1,24 					"/>
				</g>
			</g>
			<g>
				<g>
					
						<linearGradient id="SVGID_6_" gradientUnits="userSpaceOnUse" x1="-11.3" y1="1066.6" x2="31.5492" y2="1066.6" gradientTransform="matrix(1 0 0 1 116 -1011.5)">
						<stop  offset="0" style="stop-color:#FF8E39;stop-opacity:0"/>
						<stop  offset="0.1239" style="stop-color:#FF913E;stop-opacity:0.1239"/>
						<stop  offset="0.2664" style="stop-color:#FF994C;stop-opacity:0.2664"/>
						<stop  offset="0.4183" style="stop-color:#FFA663;stop-opacity:0.4183"/>
						<stop  offset="0.5766" style="stop-color:#FFB883;stop-opacity:0.5766"/>
						<stop  offset="0.7399" style="stop-color:#FFD0AD;stop-opacity:0.7399"/>
						<stop  offset="0.9051" style="stop-color:#FFEDDF;stop-opacity:0.9051"/>
						<stop  offset="1" style="stop-color:#FFFFFF"/>
					</linearGradient>
					<polygon class="st17" points="126,24 147.5,55 126,86.2 104.7,55 					"/>
				</g>
				<g>
					<polygon class="st6" points="126,24 147.5,55 126,86.2 104.7,55 					"/>
				</g>
			</g>
			<g>
				<polygon class="st10" points="104.7,54.7 126.3,86.3 96,86.3 74.5,54.7 				"/>
			</g>
		</g>
	</g>
</g>
</svg>
