<?xml version="1.0" encoding="utf-8"?>
<!-- Generator: Adobe Illustrator 22.1.0, SVG Export Plug-In . SVG Version: 6.00 Build 0)  -->
<svg version="1.1" id="Layer_1" xmlns="http://www.w3.org/2000/svg" xmlns:xlink="http://www.w3.org/1999/xlink" x="0px" y="0px"
	 viewBox="0 0 200 200" style="enable-background:new 0 0 200 200;" xml:space="preserve">
<style type="text/css">
	.st0{enable-background:new    ;}
	.st1{fill:none;stroke:#669BE8;stroke-miterlimit:10;}
	.st2{fill:#2A7FE2;}
	.st3{fill:#669BE8;}
	.st4{fill:#3366CC;}
</style>
<g>
	<g class="st0">
		<g>
			<polygon class="st1" points="115.9,4.4 93.4,36.3 61.5,36.3 84.1,4.4 			"/>
		</g>
		<g>
			<polygon class="st1" points="115.9,4.4 138.5,36.3 115.9,68.2 93.4,36.3 			"/>
		</g>
		<g>
			<polygon class="st1" points="93.4,36.3 115.9,68.2 84.1,68.2 61.5,36.3 			"/>
		</g>
	</g>
</g>
<g>
	<g class="st0">
		<g>
			<polygon class="st1" points="170.4,36.3 147.9,68.2 116,68.2 138.5,36.3 			"/>
		</g>
		<g>
			<polygon class="st1" points="170.4,36.3 193,68.2 170.4,100.1 147.9,68.2 			"/>
		</g>
		<g>
			<polygon class="st1" points="147.9,68.2 170.4,100.1 138.5,100.1 116,68.2 			"/>
		</g>
	</g>
</g>
<g>
	<g class="st0">
		<g>
			<polygon class="st1" points="170.4,100.1 147.9,132 116,132 138.5,100.1 			"/>
		</g>
		<g>
			<polygon class="st1" points="170.4,100.1 193,132 170.4,163.9 147.9,132 			"/>
		</g>
		<g>
			<polygon class="st1" points="147.9,132 170.4,163.9 138.5,163.9 116,132 			"/>
		</g>
	</g>
</g>
<g>
	<g class="st0">
		<g>
			<polygon class="st1" points="61.5,36.3 38.9,68.2 7,68.2 29.6,36.3 			"/>
		</g>
		<g>
			<polygon class="st1" points="61.5,36.3 84,68.2 61.5,100.1 38.9,68.2 			"/>
		</g>
		<g>
			<polygon class="st1" points="38.9,68.2 61.5,100.1 29.6,100.1 7,68.2 			"/>
		</g>
	</g>
</g>
<g>
	<g class="st0">
		<g>
			<polygon class="st1" points="61.5,100.1 38.9,132 7,132 29.6,100.1 			"/>
		</g>
		<g>
			<polygon class="st1" points="61.5,100.1 84,132 61.5,163.9 38.9,132 			"/>
		</g>
		<g>
			<polygon class="st1" points="38.9,132 61.5,163.9 29.6,163.9 7,132 			"/>
		</g>
	</g>
</g>
<g>
	<g class="st0">
		<g>
			<polygon class="st1" points="115.9,132 93.4,163.9 61.5,163.9 84.1,132 			"/>
		</g>
		<g>
			<polygon class="st1" points="115.9,132 138.5,163.9 115.9,195.8 93.4,163.9 			"/>
		</g>
		<g>
			<polygon class="st1" points="93.4,163.9 115.9,195.8 84.1,195.8 61.5,163.9 			"/>
		</g>
	</g>
</g>
<g>
	<g class="st0">
		<g>
			<polygon class="st2" points="115.9,68.2 93.4,100.1 61.5,100.1 84.1,68.2 			"/>
		</g>
		<g>
			<polygon class="st3" points="115.9,68.2 138.5,100.1 115.9,132 93.4,100.1 			"/>
		</g>
		<g>
			<polygon class="st4" points="93.4,100.1 115.9,132 84.1,132 61.5,100.1 			"/>
		</g>
	</g>
</g>
</svg>
