<?xml version="1.0" encoding="utf-8"?>
<!-- Generator: Adobe Illustrator 22.1.0, SVG Export Plug-In . SVG Version: 6.00 Build 0)  -->
<svg version="1.1" id="Layer_1" xmlns="http://www.w3.org/2000/svg" xmlns:xlink="http://www.w3.org/1999/xlink" x="0px" y="0px"
	 viewBox="0 0 964 745" style="enable-background:new 0 0 964 745;" xml:space="preserve">
<style type="text/css">
	.st0{fill:none;}
	.st1{fill:#FFFFFF;}
	.st2{font-family:'RechargeRg-Bold';}
	.st3{font-size:112.1402px;}
	.st4{fill:#669BE8;}
	.st5{fill:url(#SVGID_1_);}
	.st6{fill:#2A7FE2;}
	.st7{fill:url(#SVGID_2_);}
	.st8{fill:#3366CC;}
	.st9{fill:#B3B3B3;}
	.st10{fill:#E6E6E6;}
	.st11{fill:#808080;}
	.st12{fill:url(#SVGID_3_);}
	.st13{fill:url(#SVGID_4_);}
	.st14{fill:url(#SVGID_5_);}
	.st15{fill:url(#SVGID_6_);}
</style>
<g>
	<rect x="59.8" y="542.1" class="st0" width="920.4" height="120.2"/>
	<g>
		<text transform="matrix(1 0 0 1 59.7768 629.5355)" class="st1 st2 st3">My</text>
		<text transform="matrix(1 0 0 1 287.8437 629.5355)" class="st4 st2 st3">Gene</text>
		<text transform="matrix(1 0 0 1 642.7592 629.5355)" class="st1 st2 st3">.info</text>
	</g>
</g>
<g>
	<g>
		<g>
			<g>
				<g>
					<polygon class="st0" points="651.6,125.7 598.5,203 524.1,203 576.9,125.7 					"/>
				</g>
				<g>
					<polygon class="st0" points="651.6,125.7 598.5,203 524.1,203 576.9,125.7 					"/>
				</g>
			</g>
			<g>
				<g>
					<polygon class="st0" points="651.6,125.7 705.2,203 651.6,280.5 598.5,203 					"/>
				</g>
				<g>
					<polygon class="st0" points="651.6,125.7 705.2,203 651.6,280.5 598.5,203 					"/>
				</g>
			</g>
			<g>
				<polygon class="st0" points="598.5,203 651.6,280.5 576.9,280.5 524.1,203 				"/>
			</g>
		</g>
		<g>
			<g>
				<polygon class="st0" points="396.8,278.3 343.9,355.6 269.2,355.6 322.4,278.3 				"/>
			</g>
			<g>
				<polygon class="st0" points="396.8,278.3 450.6,355.6 396.8,433.1 343.9,355.6 				"/>
			</g>
			<g>
				<polygon class="st0" points="343.9,355.6 396.8,433.1 322.4,433.1 269.2,355.6 				"/>
			</g>
		</g>
		<g>
			<g>
				<polygon class="st0" points="524.1,356.8 470.9,434.1 396.5,434.1 449.4,356.8 				"/>
			</g>
			<g>
				<polygon class="st0" points="524.1,356.8 577.6,434.1 524.1,511.6 470.9,434.1 				"/>
			</g>
			<g>
				<polygon class="st0" points="470.9,434.1 524.1,511.6 449.4,511.6 396.5,434.1 				"/>
			</g>
		</g>
		<g>
			<g>
				<polygon class="st0" points="651.8,279.5 598.9,356.8 524.3,356.8 577.4,279.5 				"/>
			</g>
			<g>
				<polygon class="st0" points="651.8,279.5 705.7,356.8 651.8,434.1 598.9,356.8 				"/>
			</g>
			<g>
				<polygon class="st0" points="598.9,356.8 651.8,434.1 577.4,434.1 524.3,356.8 				"/>
			</g>
		</g>
		<g>
			<g>
				<polygon class="st0" points="396.8,124.5 343.9,201.8 269.2,201.8 322.4,124.5 				"/>
			</g>
			<g>
				<polygon class="st0" points="396.8,124.5 450.6,201.8 396.8,279.3 343.9,201.8 				"/>
			</g>
			<g>
				<polygon class="st0" points="343.9,201.8 396.8,279.3 322.4,279.3 269.2,201.8 				"/>
			</g>
		</g>
		<g>
			<g>
				<g>
					<polygon class="st0" points="525,203.2 471.9,280.5 397.5,280.5 450.6,203.2 					"/>
				</g>
				<g>
					<polygon class="st0" points="525,203.2 471.9,280.5 397.5,280.5 450.6,203.2 					"/>
				</g>
			</g>
			<g>
				<g>
					<polygon class="st0" points="525,203.2 578.8,280.5 525,358 471.9,280.5 					"/>
				</g>
				<g>
					<polygon class="st0" points="525,203.2 578.8,280.5 525,358 471.9,280.5 					"/>
				</g>
			</g>
			<g>
				<polygon class="st0" points="471.9,280.5 525,358 450.6,358 397.5,280.5 				"/>
			</g>
		</g>
		<g>
			<g>
				<g>
					<polygon class="st0" points="524.8,48.4 471.7,125.7 397.3,125.7 450.1,48.4 					"/>
				</g>
				<g>
					<polygon class="st0" points="524.8,48.4 471.7,125.7 397.3,125.7 450.1,48.4 					"/>
				</g>
			</g>
			<g>
				<g>
					<polygon class="st0" points="524.8,48.4 578.4,125.7 524.8,203.2 471.7,125.7 					"/>
				</g>
				<g>
					<polygon class="st0" points="524.8,48.4 578.4,125.7 524.8,203.2 471.7,125.7 					"/>
				</g>
			</g>
			<g>
				<polygon class="st0" points="471.7,125.7 524.8,203.2 450.1,203.2 397.3,125.7 				"/>
			</g>
		</g>
	</g>
	<g>
		<g>
			<g>
				<g>
					
						<linearGradient id="SVGID_1_" gradientUnits="userSpaceOnUse" x1="438.1" y1="120.85" x2="565.6" y2="120.85" gradientTransform="matrix(1 0 0 1 86 43.5)">
						<stop  offset="0" style="stop-color:#FD7400"/>
						<stop  offset="1" style="stop-color:#FF8E39"/>
					</linearGradient>
					<polygon class="st5" points="651.6,125.7 598.5,203 524.1,203 576.9,125.7 					"/>
				</g>
				<g>
					<polygon class="st6" points="651.6,125.7 598.5,203 524.1,203 576.9,125.7 					"/>
				</g>
			</g>
			<g>
				<g>
					
						<linearGradient id="SVGID_2_" gradientUnits="userSpaceOnUse" x1="512.5" y1="159.6" x2="619.2" y2="159.6" gradientTransform="matrix(1 0 0 1 86 43.5)">
						<stop  offset="0" style="stop-color:#FF8E39;stop-opacity:0"/>
						<stop  offset="0.1239" style="stop-color:#FF913E;stop-opacity:0.1239"/>
						<stop  offset="0.2664" style="stop-color:#FF994C;stop-opacity:0.2664"/>
						<stop  offset="0.4183" style="stop-color:#FFA663;stop-opacity:0.4183"/>
						<stop  offset="0.5766" style="stop-color:#FFB883;stop-opacity:0.5766"/>
						<stop  offset="0.7399" style="stop-color:#FFD0AD;stop-opacity:0.7399"/>
						<stop  offset="0.9051" style="stop-color:#FFEDDF;stop-opacity:0.9051"/>
						<stop  offset="1" style="stop-color:#FFFFFF"/>
					</linearGradient>
					<polygon class="st7" points="651.6,125.7 705.2,203 651.6,280.5 598.5,203 					"/>
				</g>
				<g>
					<polygon class="st4" points="651.6,125.7 705.2,203 651.6,280.5 598.5,203 					"/>
				</g>
			</g>
			<g>
				<polygon class="st8" points="598.5,203 651.6,280.5 576.9,280.5 524.1,203 				"/>
			</g>
		</g>
		<g>
			<g>
				<polygon class="st9" points="396.8,278.3 343.9,355.6 269.2,355.6 322.4,278.3 				"/>
			</g>
			<g>
				<polygon class="st10" points="396.8,278.3 450.6,355.6 396.8,433.1 343.9,355.6 				"/>
			</g>
			<g>
				<polygon class="st11" points="343.9,355.6 396.8,433.1 322.4,433.1 269.2,355.6 				"/>
			</g>
		</g>
		<g>
			<g>
				<polygon class="st9" points="524.1,356.8 470.9,434.1 396.5,434.1 449.4,356.8 				"/>
			</g>
			<g>
				<polygon class="st10" points="524.1,356.8 577.6,434.1 524.1,511.6 470.9,434.1 				"/>
			</g>
			<g>
				<polygon class="st11" points="470.9,434.1 524.1,511.6 449.4,511.6 396.5,434.1 				"/>
			</g>
		</g>
		<g>
			<g>
				<polygon class="st9" points="651.8,279.5 598.9,356.8 524.3,356.8 577.4,279.5 				"/>
			</g>
			<g>
				<polygon class="st10" points="651.8,279.5 705.7,356.8 651.8,434.1 598.9,356.8 				"/>
			</g>
			<g>
				<polygon class="st11" points="598.9,356.8 651.8,434.1 577.4,434.1 524.3,356.8 				"/>
			</g>
		</g>
		<g>
			<g>
				<polygon class="st9" points="396.8,124.5 343.9,201.8 269.2,201.8 322.4,124.5 				"/>
			</g>
			<g>
				<polygon class="st10" points="396.8,124.5 450.6,201.8 396.8,279.3 343.9,201.8 				"/>
			</g>
			<g>
				<polygon class="st11" points="343.9,201.8 396.8,279.3 322.4,279.3 269.2,201.8 				"/>
			</g>
		</g>
		<g>
			<g>
				<g>
					
						<linearGradient id="SVGID_3_" gradientUnits="userSpaceOnUse" x1="311.5" y1="198.35" x2="439" y2="198.35" gradientTransform="matrix(1 0 0 1 86 43.5)">
						<stop  offset="0" style="stop-color:#FD7400"/>
						<stop  offset="1" style="stop-color:#FF8E39"/>
					</linearGradient>
					<polygon class="st12" points="525,203.2 471.9,280.5 397.5,280.5 450.6,203.2 					"/>
				</g>
				<g>
					<polygon class="st6" points="525,203.2 471.9,280.5 397.5,280.5 450.6,203.2 					"/>
				</g>
			</g>
			<g>
				<g>
					
						<linearGradient id="SVGID_4_" gradientUnits="userSpaceOnUse" x1="386.0174" y1="237.1" x2="492.7923" y2="237.1" gradientTransform="matrix(1 0 0 1 86 43.5)">
						<stop  offset="0" style="stop-color:#FF8E39;stop-opacity:0"/>
						<stop  offset="0.1239" style="stop-color:#FF913E;stop-opacity:0.1239"/>
						<stop  offset="0.2664" style="stop-color:#FF994C;stop-opacity:0.2664"/>
						<stop  offset="0.4183" style="stop-color:#FFA663;stop-opacity:0.4183"/>
						<stop  offset="0.5766" style="stop-color:#FFB883;stop-opacity:0.5766"/>
						<stop  offset="0.7399" style="stop-color:#FFD0AD;stop-opacity:0.7399"/>
						<stop  offset="0.9051" style="stop-color:#FFEDDF;stop-opacity:0.9051"/>
						<stop  offset="1" style="stop-color:#FFFFFF"/>
					</linearGradient>
					<polygon class="st13" points="525,203.2 578.8,280.5 525,358 471.9,280.5 					"/>
				</g>
				<g>
					<polygon class="st4" points="525,203.2 578.8,280.5 525,358 471.9,280.5 					"/>
				</g>
			</g>
			<g>
				<polygon class="st8" points="471.9,280.5 525,358 450.6,358 397.5,280.5 				"/>
			</g>
		</g>
		<g>
			<g>
				<g>
					
						<linearGradient id="SVGID_5_" gradientUnits="userSpaceOnUse" x1="311.3" y1="43.55" x2="438.8" y2="43.55" gradientTransform="matrix(1 0 0 1 86 43.5)">
						<stop  offset="0" style="stop-color:#FD7400"/>
						<stop  offset="1" style="stop-color:#FF8E39"/>
					</linearGradient>
					<polygon class="st14" points="524.8,48.4 471.7,125.7 397.3,125.7 450.1,48.4 					"/>
				</g>
				<g>
					<polygon class="st6" points="524.8,48.4 471.7,125.7 397.3,125.7 450.1,48.4 					"/>
				</g>
			</g>
			<g>
				<g>
					
						<linearGradient id="SVGID_6_" gradientUnits="userSpaceOnUse" x1="385.7" y1="82.3" x2="492.4" y2="82.3" gradientTransform="matrix(1 0 0 1 86 43.5)">
						<stop  offset="0" style="stop-color:#FF8E39;stop-opacity:0"/>
						<stop  offset="0.1239" style="stop-color:#FF913E;stop-opacity:0.1239"/>
						<stop  offset="0.2664" style="stop-color:#FF994C;stop-opacity:0.2664"/>
						<stop  offset="0.4183" style="stop-color:#FFA663;stop-opacity:0.4183"/>
						<stop  offset="0.5766" style="stop-color:#FFB883;stop-opacity:0.5766"/>
						<stop  offset="0.7399" style="stop-color:#FFD0AD;stop-opacity:0.7399"/>
						<stop  offset="0.9051" style="stop-color:#FFEDDF;stop-opacity:0.9051"/>
						<stop  offset="1" style="stop-color:#FFFFFF"/>
					</linearGradient>
					<polygon class="st15" points="524.8,48.4 578.4,125.7 524.8,203.2 471.7,125.7 					"/>
				</g>
				<g>
					<polygon class="st4" points="524.8,48.4 578.4,125.7 524.8,203.2 471.7,125.7 					"/>
				</g>
			</g>
			<g>
				<polygon class="st8" points="471.7,125.7 524.8,203.2 450.1,203.2 397.3,125.7 				"/>
			</g>
		</g>
	</g>
</g>
</svg>
