<?xml version="1.0" encoding="utf-8"?>
<!-- Generator: Adobe Illustrator 22.1.0, SVG Export Plug-In . SVG Version: 6.00 Build 0)  -->
<svg version="1.1" id="Layer_1" xmlns="http://www.w3.org/2000/svg" xmlns:xlink="http://www.w3.org/1999/xlink" x="0px" y="0px"
	 viewBox="0 0 200 200" style="enable-background:new 0 0 200 200;" xml:space="preserve">
<style type="text/css">
	.st0{fill:url(#SVGID_1_);}
	.st1{fill:#B3B3B3;}
	.st2{fill:url(#SVGID_2_);}
	.st3{fill:#E6E6E6;}
	.st4{fill:#808080;}
	.st5{fill:#67CF2E;}
	.st6{fill:#85D958;}
	.st7{fill:#40B307;}
	.st8{fill:url(#SVGID_3_);}
	.st9{fill:url(#SVGID_4_);}
	.st10{fill:url(#SVGID_5_);}
	.st11{fill:url(#SVGID_6_);}
</style>
<g>
	<g>
		<g>
			<linearGradient id="SVGID_1_" gradientUnits="userSpaceOnUse" x1="117.5595" y1="51.694" x2="170.8831" y2="51.694">
				<stop  offset="0" style="stop-color:#FD7400"/>
				<stop  offset="1" style="stop-color:#FF8E39"/>
			</linearGradient>
			<polygon class="st0" points="170.9,35.5 148.7,67.8 117.6,67.8 139.7,35.5 			"/>
		</g>
		<g>
			<polygon class="st1" points="170.9,35.5 148.7,67.8 117.6,67.8 139.7,35.5 			"/>
		</g>
	</g>
	<g>
		<g>
			<linearGradient id="SVGID_2_" gradientUnits="userSpaceOnUse" x1="148.7022" y1="67.8833" x2="193.3303" y2="67.8833">
				<stop  offset="0" style="stop-color:#FF8E39;stop-opacity:0"/>
				<stop  offset="0.1239" style="stop-color:#FF913E;stop-opacity:0.1239"/>
				<stop  offset="0.2664" style="stop-color:#FF994C;stop-opacity:0.2664"/>
				<stop  offset="0.4183" style="stop-color:#FFA663;stop-opacity:0.4183"/>
				<stop  offset="0.5766" style="stop-color:#FFB883;stop-opacity:0.5766"/>
				<stop  offset="0.7399" style="stop-color:#FFD0AD;stop-opacity:0.7399"/>
				<stop  offset="0.9051" style="stop-color:#FFEDDF;stop-opacity:0.9051"/>
				<stop  offset="1" style="stop-color:#FFFFFF"/>
			</linearGradient>
			<polygon class="st2" points="170.9,35.5 193.3,67.8 170.9,100.2 148.7,67.8 			"/>
		</g>
		<g>
			<polygon class="st3" points="170.9,35.5 193.3,67.8 170.9,100.2 148.7,67.8 			"/>
		</g>
	</g>
	<g>
		<polygon class="st4" points="148.7,67.8 170.9,100.2 139.7,100.2 117.6,67.8 		"/>
	</g>
</g>
<g>
	<g>
		<polygon class="st1" points="64.4,99.3 42.2,131.6 11.1,131.6 33.3,99.3 		"/>
	</g>
	<g>
		<polygon class="st3" points="64.4,99.3 86.9,131.6 64.4,164 42.2,131.6 		"/>
	</g>
	<g>
		<polygon class="st4" points="42.2,131.6 64.4,164 33.3,164 11.1,131.6 		"/>
	</g>
</g>
<g>
	<g>
		<polygon class="st5" points="117.6,132.1 95.4,164.4 64.2,164.4 86.4,132.1 		"/>
	</g>
	<g>
		<polygon class="st6" points="117.6,132.1 140,164.4 117.6,196.8 95.4,164.4 		"/>
	</g>
	<g>
		<polygon class="st7" points="95.4,164.4 117.6,196.8 86.4,196.8 64.2,164.4 		"/>
	</g>
</g>
<g>
	<g>
		<polygon class="st5" points="171,99.8 148.8,132.1 117.7,132.1 139.9,99.8 		"/>
	</g>
	<g>
		<polygon class="st6" points="171,99.8 193.5,132.1 171,164.4 148.8,132.1 		"/>
	</g>
	<g>
		<polygon class="st7" points="148.8,132.1 171,164.4 139.9,164.4 117.7,132.1 		"/>
	</g>
</g>
<g>
	<g>
		<polygon class="st1" points="64.4,35 42.2,67.3 11.1,67.3 33.3,35 		"/>
	</g>
	<g>
		<polygon class="st3" points="64.4,35 86.9,67.3 64.4,99.7 42.2,67.3 		"/>
	</g>
	<g>
		<polygon class="st4" points="42.2,67.3 64.4,99.7 33.3,99.7 11.1,67.3 		"/>
	</g>
</g>
<g>
	<g>
		<g>
			<linearGradient id="SVGID_3_" gradientUnits="userSpaceOnUse" x1="64.6877" y1="84.0273" x2="118.0114" y2="84.0273">
				<stop  offset="0" style="stop-color:#FD7400"/>
				<stop  offset="1" style="stop-color:#FF8E39"/>
			</linearGradient>
			<polygon class="st8" points="118,67.9 95.8,100.2 64.7,100.2 86.9,67.9 			"/>
		</g>
		<g>
			<polygon class="st5" points="118,67.9 95.8,100.2 64.7,100.2 86.9,67.9 			"/>
		</g>
	</g>
	<g>
		<g>
			<linearGradient id="SVGID_4_" gradientUnits="userSpaceOnUse" x1="95.8304" y1="100.2167" x2="140.4585" y2="100.2167">
				<stop  offset="0" style="stop-color:#FF8E39;stop-opacity:0"/>
				<stop  offset="0.1239" style="stop-color:#FF913E;stop-opacity:0.1239"/>
				<stop  offset="0.2664" style="stop-color:#FF994C;stop-opacity:0.2664"/>
				<stop  offset="0.4183" style="stop-color:#FFA663;stop-opacity:0.4183"/>
				<stop  offset="0.5766" style="stop-color:#FFB883;stop-opacity:0.5766"/>
				<stop  offset="0.7399" style="stop-color:#FFD0AD;stop-opacity:0.7399"/>
				<stop  offset="0.9051" style="stop-color:#FFEDDF;stop-opacity:0.9051"/>
				<stop  offset="1" style="stop-color:#FFFFFF"/>
			</linearGradient>
			<polygon class="st9" points="118,67.9 140.5,100.2 118,132.6 95.8,100.2 			"/>
		</g>
		<g>
			<polygon class="st6" points="118,67.9 140.5,100.2 118,132.6 95.8,100.2 			"/>
		</g>
	</g>
	<g>
		<polygon class="st7" points="95.8,100.2 118,132.6 86.9,132.6 64.7,100.2 		"/>
	</g>
</g>
<g>
	<g>
		<g>
			<linearGradient id="SVGID_5_" gradientUnits="userSpaceOnUse" x1="64.5546" y1="19.3606" x2="117.8783" y2="19.3606">
				<stop  offset="0" style="stop-color:#FD7400"/>
				<stop  offset="1" style="stop-color:#FF8E39"/>
			</linearGradient>
			<polygon class="st10" points="117.9,3.2 95.7,35.5 64.6,35.5 86.7,3.2 			"/>
		</g>
		<g>
			<polygon class="st1" points="117.9,3.2 95.7,35.5 64.6,35.5 86.7,3.2 			"/>
		</g>
	</g>
	<g>
		<g>
			<linearGradient id="SVGID_6_" gradientUnits="userSpaceOnUse" x1="95.6973" y1="35.55" x2="140.3254" y2="35.55">
				<stop  offset="0" style="stop-color:#FF8E39;stop-opacity:0"/>
				<stop  offset="0.1239" style="stop-color:#FF913E;stop-opacity:0.1239"/>
				<stop  offset="0.2664" style="stop-color:#FF994C;stop-opacity:0.2664"/>
				<stop  offset="0.4183" style="stop-color:#FFA663;stop-opacity:0.4183"/>
				<stop  offset="0.5766" style="stop-color:#FFB883;stop-opacity:0.5766"/>
				<stop  offset="0.7399" style="stop-color:#FFD0AD;stop-opacity:0.7399"/>
				<stop  offset="0.9051" style="stop-color:#FFEDDF;stop-opacity:0.9051"/>
				<stop  offset="1" style="stop-color:#FFFFFF"/>
			</linearGradient>
			<polygon class="st11" points="117.9,3.2 140.3,35.5 117.9,67.9 95.7,35.5 			"/>
		</g>
		<g>
			<polygon class="st3" points="117.9,3.2 140.3,35.5 117.9,67.9 95.7,35.5 			"/>
		</g>
	</g>
	<g>
		<polygon class="st4" points="95.7,35.5 117.9,67.9 86.7,67.9 64.6,35.5 		"/>
	</g>
</g>
</svg>
