<?xml version="1.0" encoding="utf-8"?>
<!-- Generator: Adobe Illustrator 22.1.0, SVG Export Plug-In . SVG Version: 6.00 Build 0)  -->
<svg version="1.1" id="Layer_1" xmlns="http://www.w3.org/2000/svg" xmlns:xlink="http://www.w3.org/1999/xlink" x="0px" y="0px"
	 viewBox="0 0 964 745" style="enable-background:new 0 0 964 745;" xml:space="preserve">
<style type="text/css">
	.st0{fill:none;}
	.st1{fill:url(#SVGID_1_);}
	.st2{fill:#B3B3B3;}
	.st3{fill:url(#SVGID_2_);}
	.st4{fill:#E6E6E6;}
	.st5{fill:#808080;}
	.st6{fill:#67CF2E;}
	.st7{fill:#85D958;}
	.st8{fill:#40B307;}
	.st9{fill:url(#SVGID_3_);}
	.st10{fill:url(#SVGID_4_);}
	.st11{fill:#FFFFFF;}
</style>
<rect x="23.3" y="562" class="st0" width="924.3" height="119"/>
<g>
	<g>
		<g>
			<g>
				<g>
					
						<linearGradient id="SVGID_1_" gradientUnits="userSpaceOnUse" x1="102.6" y1="-792.95" x2="231.8" y2="-792.95" gradientTransform="matrix(1 0 0 1 420 954.5)">
						<stop  offset="0" style="stop-color:#FD7400"/>
						<stop  offset="1" style="stop-color:#FF8E39"/>
					</linearGradient>
					<polygon class="st1" points="651.8,122.4 598,200.7 522.6,200.7 576.2,122.4 					"/>
				</g>
				<g>
					<polygon class="st2" points="651.8,122.4 598,200.7 522.6,200.7 576.2,122.4 					"/>
				</g>
			</g>
			<g>
				<g>
					
						<linearGradient id="SVGID_2_" gradientUnits="userSpaceOnUse" x1="178" y1="-753.3" x2="286.2" y2="-753.3" gradientTransform="matrix(1 0 0 1 420 954.5)">
						<stop  offset="0" style="stop-color:#FF8E39;stop-opacity:0"/>
						<stop  offset="0.1239" style="stop-color:#FF913E;stop-opacity:0.1239"/>
						<stop  offset="0.2664" style="stop-color:#FF994C;stop-opacity:0.2664"/>
						<stop  offset="0.4183" style="stop-color:#FFA663;stop-opacity:0.4183"/>
						<stop  offset="0.5766" style="stop-color:#FFB883;stop-opacity:0.5766"/>
						<stop  offset="0.7399" style="stop-color:#FFD0AD;stop-opacity:0.7399"/>
						<stop  offset="0.9051" style="stop-color:#FFEDDF;stop-opacity:0.9051"/>
						<stop  offset="1" style="stop-color:#FFFFFF"/>
					</linearGradient>
					<polygon class="st3" points="651.8,122.7 706.2,201.1 651.8,279.7 598,201.1 					"/>
				</g>
				<g>
					<polygon class="st4" points="651.8,122.7 706.2,201.1 651.8,279.7 598,201.1 					"/>
				</g>
			</g>
			<g>
				<polygon class="st5" points="598,200.7 651.6,279 576.2,279 522.8,200.7 				"/>
			</g>
		</g>
		<g>
			<g>
				<polygon class="st2" points="393.4,277.5 339.6,355.7 264.3,355.7 318.1,277.5 				"/>
			</g>
			<g>
				<polygon class="st4" points="393.5,277.5 448.1,355.8 393.5,434.4 339.6,355.8 				"/>
			</g>
			<g>
				<polygon class="st5" points="339.6,355.7 393.2,434 318.1,434 264.5,355.7 				"/>
			</g>
		</g>
		<g>
			<g>
				<polygon class="st6" points="522.5,357.2 468.7,435.5 393.1,435.5 446.9,357.2 				"/>
			</g>
			<g>
				<polygon class="st7" points="522.5,357 576.9,435.4 522.5,514 468.7,435.4 				"/>
			</g>
			<g>
				<polygon class="st8" points="468.7,435.5 522.3,513.8 446.9,513.8 393.3,435.5 				"/>
			</g>
		</g>
		<g>
			<g>
				<polygon class="st6" points="652,279 598.2,357.2 522.9,357.2 576.7,279 				"/>
			</g>
			<g>
				<polygon class="st7" points="652.1,278.7 706.7,357 652.1,435.4 598.2,357 				"/>
			</g>
			<g>
				<polygon class="st8" points="598.2,357.2 652,435.5 576.7,435.5 522.9,357.2 				"/>
			</g>
		</g>
		<g>
			<g>
				<polygon class="st2" points="393.4,122.9 339.6,201.2 264.3,201.2 318.1,122.9 				"/>
			</g>
			<g>
				<polygon class="st4" points="393.5,121.5 448.1,199.8 393.5,278.4 339.4,201 				"/>
			</g>
			<g>
				<polygon class="st5" points="339.6,200.7 393.2,279 318.1,279 264.5,200.7 				"/>
			</g>
		</g>
		<g>
			<g>
				<g>
					<polygon class="st6" points="523.4,201 469.4,280 393.3,279 447.1,200.7 					"/>
				</g>
			</g>
			<g>
				<g>
					<polygon class="st7" points="522.4,201 578.1,279.7 523.4,359 469.4,280 					"/>
				</g>
			</g>
			<g>
				<polygon class="st8" points="469.4,280 523.3,358.8 448.1,358.8 393.4,278 				"/>
			</g>
		</g>
		<g>
			<g>
				<g>
					
						<linearGradient id="SVGID_3_" gradientUnits="userSpaceOnUse" x1="-26" y1="-871.25" x2="103.2" y2="-871.25" gradientTransform="matrix(1 0 0 1 420 954.5)">
						<stop  offset="0" style="stop-color:#FD7400"/>
						<stop  offset="1" style="stop-color:#FF8E39"/>
					</linearGradient>
					<polygon class="st9" points="523.2,44.1 469.4,122.4 394,122.4 447.6,44.1 					"/>
				</g>
				<g>
					<polygon class="st2" points="523.2,44.1 469.4,122.4 394,122.4 447.6,44.1 					"/>
				</g>
			</g>
			<g>
				<g>
					
						<linearGradient id="SVGID_4_" gradientUnits="userSpaceOnUse" x1="49.4" y1="-831.7" x2="157.6" y2="-831.7" gradientTransform="matrix(1 0 0 1 420 954.5)">
						<stop  offset="0" style="stop-color:#FF8E39;stop-opacity:0"/>
						<stop  offset="0.1239" style="stop-color:#FF913E;stop-opacity:0.1239"/>
						<stop  offset="0.2664" style="stop-color:#FF994C;stop-opacity:0.2664"/>
						<stop  offset="0.4183" style="stop-color:#FFA663;stop-opacity:0.4183"/>
						<stop  offset="0.5766" style="stop-color:#FFB883;stop-opacity:0.5766"/>
						<stop  offset="0.7399" style="stop-color:#FFD0AD;stop-opacity:0.7399"/>
						<stop  offset="0.9051" style="stop-color:#FFEDDF;stop-opacity:0.9051"/>
						<stop  offset="1" style="stop-color:#FFFFFF"/>
					</linearGradient>
					<polygon class="st10" points="523.3,44.3 577.6,122.7 523.3,201.3 469.4,122.7 					"/>
				</g>
				<g>
					<polygon class="st4" points="523.3,44.3 577.6,122.7 523.3,201.3 469.4,122.7 					"/>
				</g>
			</g>
			<g>
				<polygon class="st5" points="469.4,122.4 523,200.7 447.6,200.7 394.2,122.4 				"/>
			</g>
		</g>
	</g>
</g>
<g>
	<g>
		<path class="st11" d="M136.2,633v-55.2c0-1.1-0.5-1.6-1.5-1.6h-1.1c-0.9,0-1.5,0.4-1.8,1.3l-20.1,53.2c-0.3,0.9-0.8,1.6-1.4,1.9
			c-0.6,0.3-1.4,0.5-2.5,0.5h-24c-1.1,0-2-0.2-2.6-0.5s-1-0.9-1.4-1.9l-20-53.2c-0.3-0.9-1-1.3-1.9-1.3h-1c-1.1,0-1.6,0.5-1.6,1.6
			V633H35.8v-70.5c0-2,0.9-3,2.8-3h33.2c2.2,0,3.6,0.9,4.2,2.7l18.1,52.5c0.1,0.4,0.4,0.6,1,0.6H97c0.4,0,0.7-0.2,0.8-0.6l18.2-52.5
			c0.3-0.9,0.8-1.5,1.5-2c0.6-0.5,1.5-0.7,2.7-0.7H153c1.9,0,2.8,1,2.8,3V633H136.2z"/>
		<path class="st11" d="M212.6,626.4h0.7v-48.9h18.4v56.6c0,3.2-0.4,6.2-1.2,8.8c-0.8,2.7-2,4.9-3.8,6.8c-1.8,1.9-4.1,3.3-7,4.4
			c-2.9,1-6.5,1.6-10.7,1.6h-42v-15.5h39.3c2.6,0,4.5-0.6,5.5-1.8s1.6-3,1.6-5.6v-4.4h-26.2c-8.3,0-14.1-1.7-17.6-5
			s-5.2-8.4-5.2-15.2v-30.7h18.4v28.3c0,3,0.6,5.1,1.7,6.2c1.1,1.1,3.2,1.7,6.1,1.7h17.1L212.6,626.4z"/>
		<path class="st7" d="M320.6,559.5h24.1v0.8l-36.9,70.4c-0.5,0.9-1,1.6-1.5,1.9c-0.5,0.3-1.3,0.5-2.4,0.5h-25.6
			c-1.1,0-2-0.2-2.5-0.5s-1-0.9-1.5-1.8l-36.6-70.4v-0.8h24.5l27.1,55.2c0.3,0.5,0.7,0.8,1.4,0.8h1.1c0.7,0,1.1-0.3,1.4-0.8
			L320.6,559.5z"/>
		<path class="st7" d="M342.7,591.3v-13.7h51.5c3.6,0,6.3,1,8,3s2.6,4.9,2.6,8.8v41.2c0,1.6-0.8,2.4-2.3,2.4h-48.4
			c-2,0-3.8-0.3-5.4-0.8s-2.9-1.4-4-2.6s-2-2.8-2.5-4.8c-0.6-2-0.9-4.5-0.9-7.4v-4.1c0-5.3,1.1-9,3.4-11.3s5.4-3.4,9.4-3.4h28.2
			l3.4,8.2h0.7v-11.2c0-1.5-0.3-2.7-1-3.3c-0.6-0.7-1.6-1-2.9-1L342.7,591.3L342.7,591.3z M385.4,619.3c0.7,0,1.1-0.4,1.1-1.2v-8.5
			h-24c-1.2,0-2.1,0.3-2.6,0.9s-0.8,1.5-0.8,2.7v2.4c0,1.1,0.3,2,0.8,2.7c0.5,0.6,1.4,1,2.6,1L385.4,619.3L385.4,619.3z"/>
		<path class="st7" d="M460.3,600.8h-0.8v-7.6c0-0.7-0.3-1.1-1-1.1h-22.3c-1.6,0-2.8,0.4-3.4,1.1c-0.7,0.7-1,2-1,3.8v36h-18.3v-39.9
			c0-4.7,1.2-8.5,3.7-11.3s6.4-4.2,11.8-4.2h44.9c1.8,0,2.6,0.9,2.6,2.7v14.3L460.3,600.8z"/>
		<path class="st7" d="M483.3,568.9v-14.6h18.3v14.6H483.3z M483.3,633v-55.4h18.3V633H483.3z"/>
		<path class="st7" d="M510.8,591.3v-13.7h51.5c3.6,0,6.3,1,8,3s2.6,4.9,2.6,8.8v41.2c0,1.6-0.8,2.4-2.3,2.4h-48.4
			c-2,0-3.8-0.3-5.4-0.8c-1.6-0.5-2.9-1.4-4-2.6c-1.1-1.2-2-2.8-2.5-4.8c-0.6-2-0.9-4.5-0.9-7.4v-4.1c0-5.3,1.1-9,3.4-11.3
			s5.4-3.4,9.4-3.4h28.2l3.4,8.2h0.7v-11.2c0-1.5-0.3-2.7-1-3.3c-0.6-0.7-1.6-1-2.9-1L510.8,591.3L510.8,591.3z M553.4,619.3
			c0.7,0,1.1-0.4,1.1-1.2v-8.5h-24c-1.2,0-2.1,0.3-2.6,0.9s-0.8,1.5-0.8,2.7v2.4c0,1.1,0.3,2,0.8,2.7c0.5,0.6,1.4,1,2.6,1
			L553.4,619.3L553.4,619.3z"/>
		<path class="st7" d="M581.8,577.6H627c4.1,0,7.6,0.5,10.5,1.6c2.9,1,5.2,2.5,7,4.4s3.1,4.2,3.9,6.9c0.8,2.7,1.2,5.7,1.2,9.1V633
			h-18.3v-32.2c0-3.2-0.6-5.5-1.8-6.8s-3.2-1.9-6-1.9h-19.8l-3-8.1H600v49h-18.3L581.8,577.6L581.8,577.6z"/>
		<path class="st7" d="M698,591.5h-16.2V633h-18.3v-41.5h-7.3l-5-13.1v-0.8h12.3v-18.1h18.3v18.1H698V591.5z"/>
		<path class="st11" d="M694.5,633v-16.8h18.3V633H694.5z"/>
		<path class="st11" d="M722.2,568.9v-14.6h18.3v14.6H722.2z M722.2,633v-55.4h18.3V633H722.2z"/>
		<path class="st11" d="M749.9,577.6h45.2c4.1,0,7.6,0.5,10.5,1.6c2.9,1,5.2,2.5,7,4.4s3.1,4.2,3.9,6.9c0.8,2.7,1.2,5.7,1.2,9.1V633
			h-18.3v-32.2c0-3.2-0.6-5.5-1.8-6.8s-3.2-1.9-6-1.9h-19.8l-3-8.1h-0.7v49h-18.3L749.9,577.6L749.9,577.6z"/>
		<path class="st11" d="M866.1,591.5h-16.2V633h-18.3v-41.5h-7.5l-4.8-13.1v-0.8h12.3v-6.7c0-3.3,0.3-6,1-8.1s1.8-3.8,3.4-5.1
			c1.6-1.3,3.7-2.2,6.3-2.7s5.8-0.8,9.6-0.8h8.2l4.9,12.4v0.9h-10.7c-1.8,0-2.9,0.4-3.5,1.2s-0.9,2.1-0.9,3.9v4.9h16.2V591.5z"/>
		<path class="st11" d="M942.2,611c0,3.4-0.4,6.4-1.2,9.1c-0.8,2.7-2.1,5-3.9,6.9c-1.8,1.9-4.2,3.4-7.1,4.4c-2.9,1-6.4,1.6-10.5,1.6
			h-26.7c-4.1,0-7.6-0.5-10.5-1.6c-2.9-1-5.2-2.5-7-4.4s-3.1-4.2-3.9-6.9c-0.8-2.7-1.2-5.7-1.2-9.1v-11.4c0-3.3,0.4-6.3,1.2-9
			s2.1-5,3.9-7c1.8-1.9,4.2-3.4,7-4.4c2.9-1,6.3-1.6,10.5-1.6h26.7c4.1,0,7.6,0.5,10.5,1.6c2.9,1,5.3,2.5,7.1,4.4s3.1,4.2,3.9,7
			c0.8,2.7,1.2,5.7,1.2,9V611z M916.1,616.7c2.9,0,4.9-0.6,6.1-1.7c1.1-1.1,1.7-3.3,1.7-6.5v-7.8c0-3.4-0.6-5.7-1.8-6.9
			s-3.2-1.8-6-1.8h-19.9c-2.9,0-4.9,0.6-6,1.9c-1.1,1.2-1.7,3.5-1.7,6.8v7.8c0,3.2,0.6,5.3,1.7,6.5c1.1,1.1,3.1,1.7,6,1.7H916.1z"/>
	</g>
</g>
</svg>
