<?xml version="1.0" encoding="utf-8"?>
<!-- Generator: Adobe Illustrator 22.1.0, SVG Export Plug-In . SVG Version: 6.00 Build 0)  -->
<svg version="1.1" id="Layer_1" xmlns="http://www.w3.org/2000/svg" xmlns:xlink="http://www.w3.org/1999/xlink" x="0px" y="0px"
	 viewBox="0 0 1920 728" style="enable-background:new 0 0 1920 728;" xml:space="preserve">
<style type="text/css">
	.st0{fill:none;stroke:#5EE84F;stroke-width:0.75;stroke-linejoin:round;}
	.st1{fill:none;stroke:#5EE84F;stroke-width:0.7308;stroke-linejoin:round;}
	.st2{fill:none;stroke:#5EE84F;stroke-width:0.7115;stroke-linejoin:round;}
	.st3{fill:none;stroke:#5EE84F;stroke-width:0.6923;stroke-linejoin:round;}
	.st4{fill:none;stroke:#5EE84F;stroke-width:0.6731;stroke-linejoin:round;}
	.st5{fill:none;stroke:#5EE84F;stroke-width:0.6538;stroke-linejoin:round;}
	.st6{fill:none;stroke:#5EE84F;stroke-width:0.6346;stroke-linejoin:round;}
	.st7{fill:none;stroke:#5EE84F;stroke-width:0.6154;stroke-linejoin:round;}
	.st8{fill:none;stroke:#5EE84F;stroke-width:0.5962;stroke-linejoin:round;}
	.st9{fill:none;stroke:#5EE84F;stroke-width:0.5769;stroke-linejoin:round;}
	.st10{fill:none;stroke:#5EE84F;stroke-width:0.5577;stroke-linejoin:round;}
	.st11{fill:none;stroke:#5EE84F;stroke-width:0.5385;stroke-linejoin:round;}
	.st12{fill:none;stroke:#5EE84F;stroke-width:0.5192;stroke-linejoin:round;}
	.st13{fill:none;stroke:#5EE84F;stroke-width:0.5;stroke-linejoin:round;}
</style>
<g>
	<path class="st0" d="M0.5,665.5c0,0,209-310,617.7-232c398,76,169.8,362,1301.8-68"/>
	<path class="st1" d="M0.5,639.2c0,0,204.5-268.1,567.3-217.5c18.3,2.6,36.9,5.9,55.9,10C811.7,472.9,860,551.2,973.5,582
		c131.7,35.4,353.2,6.9,946.5-235.6"/>
	<path class="st2" d="M0.5,612.9c0,0,219.3-254.4,573.2-194.6c18.3,3.1,36.8,6.9,55.4,11.6C819.5,477,866.6,552.7,979,581.1
		c132,33.4,358.4,1.6,940.9-253.8"/>
	<path class="st3" d="M0.5,586.6c0,0,234-240.4,579.1-171.6c18.3,3.6,36.6,8,55,13.1c192.8,53.2,238.7,125.9,350,152.2
		c132.5,31.3,363.6-3.6,935.3-272"/>
	<path class="st4" d="M0.5,560.3c0,0,248.8-226.1,585-148.7c18.3,4.2,36.5,9.1,54.6,14.6c195.2,59.4,239.9,129,350.1,153.2
		c132.9,29.1,368.9-8.8,929.6-290.2"/>
	<path class="st5" d="M0.5,534c0,0,263.5-211.5,590.9-125.7c18.3,4.8,36.3,10.2,54.2,16.1c197.5,65.7,241.2,132.1,350.3,154.1
		c133.3,26.9,374.1-14.1,924-308.4"/>
	<path class="st6" d="M0.5,507.7c0,0,278.2-196.6,596.8-102.7c18.2,5.4,36.1,11.3,53.7,17.7c199.9,72.2,242.4,135.2,350.4,155
		c133.8,24.6,379.3-19.3,918.4-326.6"/>
	<path class="st7" d="M0.5,481.3c0,0,292.8-181.5,602.7-79.8c18.2,6,36,12.4,53.3,19.2c202.2,78.8,243.7,138.2,350.5,156
		c134.2,22.4,384.6-24.6,912.8-344.8"/>
	<path class="st8" d="M0.5,455c0,0,307.4-166.1,608.6-56.8c18.2,6.6,35.8,13.6,52.9,20.7c204.4,85.5,245,141.2,350.6,156.9
		c134.7,20.1,389.8-29.8,907.1-363"/>
	<path class="st9" d="M0.5,428.7c0,0,321.8-150.5,614.4-33.8c18.2,7.2,35.6,14.7,52.4,22.3C874,509.5,913.6,561.3,1018.2,575
		c135.1,17.7,395.1-35,901.5-381.2"/>
	<path class="st10" d="M0.5,402.4c0,0,336.1-134.6,620.3-10.9c18.1,7.9,35.4,15.9,52,23.8c208.7,99.3,247.5,147.1,350.9,158.8
		c135.6,15.3,400.3-40.3,895.9-399.4"/>
	<path class="st11" d="M0.5,376.1c0,0,350.2-118.6,626.2,12.1c18.1,8.6,35.2,17,51.6,25.3c210.7,106.4,248.8,150,351,159.7
		c136.1,12.9,405.5-45.5,890.3-417.6"/>
	<path class="st12" d="M0.5,349.8c0,0,364.2-102.4,632.1,35c18,9.2,35,18.2,51.2,26.8c212.6,113.6,250.1,152.8,351.1,160.7
		c136.6,10.3,410.8-50.8,884.6-435.8"/>
	<path class="st13" d="M0.5,323.5c0,0,378-86,638,58s294.7,183.7,402,190c137,8,416-56,879-454"/>
</g>
</svg>
